M48
; DRILL file {KiCad 8.0.2} date 2024-05-25T18:25:16-0400
; FORMAT={-:-/ absolute / inch / decimal}
; #@! TF.CreationDate,2024-05-25T18:25:16-04:00
; #@! TF.GenerationSoftware,Kicad,Pcbnew,8.0.2
; #@! TF.FileFunction,Plated,1,4,PTH
FMAT,2
INCH
; #@! TA.AperFunction,Plated,PTH,ViaDrill
T1C0.0118
; #@! TA.AperFunction,Plated,PTH,ComponentDrill
T2C0.0276
; #@! TA.AperFunction,Plated,PTH,ComponentDrill
T3C0.0315
; #@! TA.AperFunction,Plated,PTH,ComponentDrill
T4C0.0354
; #@! TA.AperFunction,Plated,PTH,ComponentDrill
T5C0.0394
; #@! TA.AperFunction,Plated,PTH,ComponentDrill
T6C0.0433
; #@! TA.AperFunction,Plated,PTH,ComponentDrill
T7C0.0512
%
G90
G05
T1
X6.5643Y-1.4402
X6.8504Y-2.6378
X7.8834Y-2.411
X7.9134Y-2.1969
X8.5911Y-2.1738
T2
X6.8898Y-1.4638
X6.8898Y-1.5638
X7.1063Y-1.4677
X7.1063Y-1.5677
X7.4575Y-1.4874
X7.4575Y-1.5874
X7.8882Y-1.0906
X7.9882Y-1.0906
X9.1606Y-1.811
X9.2606Y-1.811
X9.6528Y-1.8307
X9.7528Y-1.8307
X10.011Y-1.8307
X10.111Y-1.8307
T3
X6.2287Y-2.1386
X6.2626Y-1.2795
X6.3272Y-2.1386
X6.3321Y-2.2638
X6.3321Y-2.5638
X6.361Y-1.2795
X6.3661Y-1.385
X6.3661Y-1.685
X6.3681Y-1.811
X6.4321Y-2.2638
X6.4321Y-2.5638
X6.4661Y-1.385
X6.4661Y-1.685
X6.4665Y-1.811
X6.5321Y-2.2638
X6.5321Y-2.5638
X6.5661Y-1.385
X6.5661Y-1.685
X6.6321Y-2.2638
X6.6321Y-2.5638
X6.6661Y-1.385
X6.6661Y-1.685
X6.6732Y-1.2795
X6.7321Y-2.2638
X6.7321Y-2.5638
X6.7717Y-1.2795
X6.8321Y-2.2638
X6.8321Y-2.5638
X6.9321Y-2.2638
X6.9321Y-2.5638
X7.2425Y-2.1386
X7.336Y-2.2638
X7.336Y-2.5638
X7.3409Y-2.1386
X7.436Y-2.2638
X7.436Y-2.5638
X7.536Y-2.2638
X7.536Y-2.5638
X7.5886Y-1.2795
X7.636Y-2.2638
X7.636Y-2.5638
X7.687Y-1.2795
X7.6921Y-1.3929
X7.6921Y-1.6929
X7.736Y-2.2638
X7.736Y-2.5638
X7.7921Y-1.2795
X7.7921Y-1.3929
X7.7921Y-1.6929
X7.836Y-2.2638
X7.836Y-2.5638
X7.8906Y-1.2795
X7.8921Y-1.3929
X7.8921Y-1.6929
X7.936Y-2.2638
X7.936Y-2.5638
X7.9921Y-1.3929
X7.9921Y-1.6929
X7.9988Y-1.2795
X8.0972Y-1.2795
X8.1972Y-2.1386
X8.2957Y-2.1386
X8.3055Y-2.2638
X8.3055Y-2.5638
X8.4055Y-2.2638
X8.4055Y-2.5638
X8.5055Y-2.2638
X8.5055Y-2.5638
X8.6055Y-2.2638
X8.6055Y-2.5638
X8.7055Y-2.2638
X8.7055Y-2.5638
X8.75Y-1.2795
X8.8055Y-2.2638
X8.8055Y-2.5638
X8.8465Y-1.385
X8.8465Y-1.685
X8.8484Y-1.2795
X8.9055Y-2.2638
X8.9055Y-2.5638
X8.9465Y-1.385
X8.9465Y-1.685
X9.0465Y-1.385
X9.0465Y-1.685
X9.1437Y-1.2795
X9.1465Y-1.385
X9.1465Y-1.685
X9.2421Y-1.2795
X9.6835Y-2.2244
X9.7835Y-2.2244
X9.8835Y-2.2244
X10.4134Y-2.2638
X10.4134Y-2.3425
X10.4134Y-2.4213
X10.4134Y-2.5
X10.4134Y-2.5787
T4
X10.3238Y-1.8307
X10.4238Y-1.8307
T5
X9.9321Y-1.2598
X9.9321Y-1.3583
X9.9321Y-1.4567
T7
X9.6571Y-2.5787
X9.913Y-2.5787
T6
G00X10.2136Y-1.1693
M15
G01X10.2411Y-1.1693
M16
G05
G00X10.2136Y-1.5472
M15
G01X10.2411Y-1.5472
M16
G05
M30
