%TF.GenerationSoftware,KiCad,Pcbnew,8.0.2*%
%TF.CreationDate,2024-05-25T18:25:13-04:00*%
%TF.ProjectId,8bc_clock,3862635f-636c-46f6-936b-2e6b69636164,3.0*%
%TF.SameCoordinates,Original*%
%TF.FileFunction,Soldermask,Top*%
%TF.FilePolarity,Negative*%
%FSLAX46Y46*%
G04 Gerber Fmt 4.6, Leading zero omitted, Abs format (unit mm)*
G04 Created by KiCad (PCBNEW 8.0.2) date 2024-05-25 18:25:13*
%MOMM*%
%LPD*%
G01*
G04 APERTURE LIST*
%ADD10C,1.400000*%
%ADD11O,1.400000X1.400000*%
%ADD12R,1.600000X1.600000*%
%ADD13O,1.600000X1.600000*%
%ADD14O,3.240000X2.720000*%
%ADD15R,1.800000X1.800000*%
%ADD16C,1.800000*%
%ADD17C,1.600000*%
%ADD18R,1.350000X1.350000*%
%ADD19O,1.350000X1.350000*%
%ADD20R,2.250000X2.250000*%
%ADD21C,2.250000*%
%ADD22R,1.500000X1.500000*%
G04 APERTURE END LIST*
D10*
%TO.C,R6*%
X247720000Y-46500000D03*
D11*
X245180000Y-46500000D03*
%TD*%
D12*
%TO.C,U6*%
X210960000Y-65120000D03*
D13*
X213500000Y-65120000D03*
X216040000Y-65120000D03*
X218580000Y-65120000D03*
X221120000Y-65120000D03*
X223660000Y-65120000D03*
X226200000Y-65120000D03*
X226200000Y-57500000D03*
X223660000Y-57500000D03*
X221120000Y-57500000D03*
X218580000Y-57500000D03*
X216040000Y-57500000D03*
X213500000Y-57500000D03*
X210960000Y-57500000D03*
%TD*%
D14*
%TO.C,RV1*%
X259775000Y-29700000D03*
X259775000Y-39300000D03*
D15*
X252275000Y-32000000D03*
D16*
X252275000Y-34500000D03*
X252275000Y-37000000D03*
%TD*%
D15*
%TO.C,D1*%
X262225000Y-46500000D03*
D16*
X264765000Y-46500000D03*
%TD*%
D12*
%TO.C,U3*%
X224700000Y-42800000D03*
D13*
X227240000Y-42800000D03*
X229780000Y-42800000D03*
X232320000Y-42800000D03*
X232320000Y-35180000D03*
X229780000Y-35180000D03*
X227240000Y-35180000D03*
X224700000Y-35180000D03*
%TD*%
D17*
%TO.C,C1*%
X159070000Y-32500000D03*
X161570000Y-32500000D03*
%TD*%
%TO.C,C6*%
X208210000Y-54320000D03*
X210710000Y-54320000D03*
%TD*%
D10*
%TO.C,R5*%
X235220000Y-46000000D03*
D11*
X232680000Y-46000000D03*
%TD*%
D10*
%TO.C,R1*%
X175000000Y-39720000D03*
D11*
X175000000Y-37180000D03*
%TD*%
D10*
%TO.C,R3*%
X189420000Y-37780000D03*
D11*
X189420000Y-40320000D03*
%TD*%
D17*
%TO.C,C2*%
X192750000Y-32500000D03*
X195250000Y-32500000D03*
%TD*%
%TO.C,C7*%
X169500000Y-32500000D03*
X172000000Y-32500000D03*
%TD*%
%TO.C,C4*%
X158210000Y-54320000D03*
X160710000Y-54320000D03*
%TD*%
%TO.C,C10*%
X200420000Y-32500000D03*
X197920000Y-32500000D03*
%TD*%
D10*
%TO.C,R4*%
X202900000Y-27700000D03*
D11*
X200360000Y-27700000D03*
%TD*%
D18*
%TO.C,J1*%
X264500000Y-57500000D03*
D19*
X264500000Y-59500000D03*
X264500000Y-61500000D03*
X264500000Y-63500000D03*
X264500000Y-65500000D03*
%TD*%
D20*
%TO.C,SW1*%
X245290000Y-65500000D03*
D21*
X251790000Y-65500000D03*
%TD*%
D17*
%TO.C,C3*%
X222250000Y-32500000D03*
X224750000Y-32500000D03*
%TD*%
D12*
%TO.C,U5*%
X186335000Y-65120000D03*
D13*
X188875000Y-65120000D03*
X191415000Y-65120000D03*
X193955000Y-65120000D03*
X196495000Y-65120000D03*
X199035000Y-65120000D03*
X201575000Y-65120000D03*
X201575000Y-57500000D03*
X199035000Y-57500000D03*
X196495000Y-57500000D03*
X193955000Y-57500000D03*
X191415000Y-57500000D03*
X188875000Y-57500000D03*
X186335000Y-57500000D03*
%TD*%
D10*
%TO.C,R2*%
X180500000Y-37280000D03*
D11*
X180500000Y-39820000D03*
%TD*%
D17*
%TO.C,C5*%
X183960000Y-54320000D03*
X186460000Y-54320000D03*
%TD*%
D12*
%TO.C,U1*%
X161700000Y-42800000D03*
D13*
X164240000Y-42800000D03*
X166780000Y-42800000D03*
X169320000Y-42800000D03*
X169320000Y-35180000D03*
X166780000Y-35180000D03*
X164240000Y-35180000D03*
X161700000Y-35180000D03*
%TD*%
D17*
%TO.C,C8*%
X164250000Y-46000000D03*
X161750000Y-46000000D03*
%TD*%
%TO.C,C9*%
X203170000Y-32500000D03*
X205670000Y-32500000D03*
%TD*%
%TO.C,C11*%
X232250000Y-32500000D03*
X234750000Y-32500000D03*
%TD*%
D22*
%TO.C,SW2*%
X248500000Y-56500000D03*
D17*
X245960000Y-56500000D03*
X251040000Y-56500000D03*
%TD*%
D12*
%TO.C,U2*%
X195380000Y-43000000D03*
D13*
X197920000Y-43000000D03*
X200460000Y-43000000D03*
X203000000Y-43000000D03*
X203000000Y-35380000D03*
X200460000Y-35380000D03*
X197920000Y-35380000D03*
X195380000Y-35380000D03*
%TD*%
D10*
%TO.C,R7*%
X254280000Y-46500000D03*
D11*
X256820000Y-46500000D03*
%TD*%
D12*
%TO.C,U4*%
X160835000Y-65120000D03*
D13*
X163375000Y-65120000D03*
X165915000Y-65120000D03*
X168455000Y-65120000D03*
X170995000Y-65120000D03*
X173535000Y-65120000D03*
X176075000Y-65120000D03*
X176075000Y-57500000D03*
X173535000Y-57500000D03*
X170995000Y-57500000D03*
X168455000Y-57500000D03*
X165915000Y-57500000D03*
X163375000Y-57500000D03*
X160835000Y-57500000D03*
%TD*%
M02*
