%TF.GenerationSoftware,KiCad,Pcbnew,8.0.2*%
%TF.CreationDate,2024-05-25T18:25:13-04:00*%
%TF.ProjectId,8bc_clock,3862635f-636c-46f6-936b-2e6b69636164,3.0*%
%TF.SameCoordinates,Original*%
%TF.FileFunction,Legend,Top*%
%TF.FilePolarity,Positive*%
%FSLAX46Y46*%
G04 Gerber Fmt 4.6, Leading zero omitted, Abs format (unit mm)*
G04 Created by KiCad (PCBNEW 8.0.2) date 2024-05-25 18:25:13*
%MOMM*%
%LPD*%
G01*
G04 APERTURE LIST*
%ADD10C,0.100000*%
%ADD11C,0.150000*%
%ADD12C,0.120000*%
G04 APERTURE END LIST*
D10*
X207684836Y-29059561D02*
X207589598Y-29154800D01*
X207589598Y-29154800D02*
X207303884Y-29250038D01*
X207303884Y-29250038D02*
X207113408Y-29250038D01*
X207113408Y-29250038D02*
X206827693Y-29154800D01*
X206827693Y-29154800D02*
X206637217Y-28964323D01*
X206637217Y-28964323D02*
X206541979Y-28773847D01*
X206541979Y-28773847D02*
X206446741Y-28392895D01*
X206446741Y-28392895D02*
X206446741Y-28107180D01*
X206446741Y-28107180D02*
X206541979Y-27726228D01*
X206541979Y-27726228D02*
X206637217Y-27535752D01*
X206637217Y-27535752D02*
X206827693Y-27345276D01*
X206827693Y-27345276D02*
X207113408Y-27250038D01*
X207113408Y-27250038D02*
X207303884Y-27250038D01*
X207303884Y-27250038D02*
X207589598Y-27345276D01*
X207589598Y-27345276D02*
X207684836Y-27440514D01*
X209494360Y-29250038D02*
X208541979Y-29250038D01*
X208541979Y-29250038D02*
X208541979Y-27250038D01*
X210541979Y-27250038D02*
X210922932Y-27250038D01*
X210922932Y-27250038D02*
X211113408Y-27345276D01*
X211113408Y-27345276D02*
X211303884Y-27535752D01*
X211303884Y-27535752D02*
X211399122Y-27916704D01*
X211399122Y-27916704D02*
X211399122Y-28583371D01*
X211399122Y-28583371D02*
X211303884Y-28964323D01*
X211303884Y-28964323D02*
X211113408Y-29154800D01*
X211113408Y-29154800D02*
X210922932Y-29250038D01*
X210922932Y-29250038D02*
X210541979Y-29250038D01*
X210541979Y-29250038D02*
X210351503Y-29154800D01*
X210351503Y-29154800D02*
X210161027Y-28964323D01*
X210161027Y-28964323D02*
X210065789Y-28583371D01*
X210065789Y-28583371D02*
X210065789Y-27916704D01*
X210065789Y-27916704D02*
X210161027Y-27535752D01*
X210161027Y-27535752D02*
X210351503Y-27345276D01*
X210351503Y-27345276D02*
X210541979Y-27250038D01*
X213399122Y-29059561D02*
X213303884Y-29154800D01*
X213303884Y-29154800D02*
X213018170Y-29250038D01*
X213018170Y-29250038D02*
X212827694Y-29250038D01*
X212827694Y-29250038D02*
X212541979Y-29154800D01*
X212541979Y-29154800D02*
X212351503Y-28964323D01*
X212351503Y-28964323D02*
X212256265Y-28773847D01*
X212256265Y-28773847D02*
X212161027Y-28392895D01*
X212161027Y-28392895D02*
X212161027Y-28107180D01*
X212161027Y-28107180D02*
X212256265Y-27726228D01*
X212256265Y-27726228D02*
X212351503Y-27535752D01*
X212351503Y-27535752D02*
X212541979Y-27345276D01*
X212541979Y-27345276D02*
X212827694Y-27250038D01*
X212827694Y-27250038D02*
X213018170Y-27250038D01*
X213018170Y-27250038D02*
X213303884Y-27345276D01*
X213303884Y-27345276D02*
X213399122Y-27440514D01*
X214256265Y-29250038D02*
X214256265Y-27250038D01*
X215399122Y-29250038D02*
X214541979Y-28107180D01*
X215399122Y-27250038D02*
X214256265Y-28392895D01*
X217780075Y-29250038D02*
X217780075Y-27250038D01*
X217780075Y-27250038D02*
X218446742Y-28678609D01*
X218446742Y-28678609D02*
X219113408Y-27250038D01*
X219113408Y-27250038D02*
X219113408Y-29250038D01*
X220446741Y-27250038D02*
X220827694Y-27250038D01*
X220827694Y-27250038D02*
X221018170Y-27345276D01*
X221018170Y-27345276D02*
X221208646Y-27535752D01*
X221208646Y-27535752D02*
X221303884Y-27916704D01*
X221303884Y-27916704D02*
X221303884Y-28583371D01*
X221303884Y-28583371D02*
X221208646Y-28964323D01*
X221208646Y-28964323D02*
X221018170Y-29154800D01*
X221018170Y-29154800D02*
X220827694Y-29250038D01*
X220827694Y-29250038D02*
X220446741Y-29250038D01*
X220446741Y-29250038D02*
X220256265Y-29154800D01*
X220256265Y-29154800D02*
X220065789Y-28964323D01*
X220065789Y-28964323D02*
X219970551Y-28583371D01*
X219970551Y-28583371D02*
X219970551Y-27916704D01*
X219970551Y-27916704D02*
X220065789Y-27535752D01*
X220065789Y-27535752D02*
X220256265Y-27345276D01*
X220256265Y-27345276D02*
X220446741Y-27250038D01*
X222161027Y-29250038D02*
X222161027Y-27250038D01*
X222161027Y-27250038D02*
X222637217Y-27250038D01*
X222637217Y-27250038D02*
X222922932Y-27345276D01*
X222922932Y-27345276D02*
X223113408Y-27535752D01*
X223113408Y-27535752D02*
X223208646Y-27726228D01*
X223208646Y-27726228D02*
X223303884Y-28107180D01*
X223303884Y-28107180D02*
X223303884Y-28392895D01*
X223303884Y-28392895D02*
X223208646Y-28773847D01*
X223208646Y-28773847D02*
X223113408Y-28964323D01*
X223113408Y-28964323D02*
X222922932Y-29154800D01*
X222922932Y-29154800D02*
X222637217Y-29250038D01*
X222637217Y-29250038D02*
X222161027Y-29250038D01*
X224161027Y-27250038D02*
X224161027Y-28869085D01*
X224161027Y-28869085D02*
X224256265Y-29059561D01*
X224256265Y-29059561D02*
X224351503Y-29154800D01*
X224351503Y-29154800D02*
X224541979Y-29250038D01*
X224541979Y-29250038D02*
X224922932Y-29250038D01*
X224922932Y-29250038D02*
X225113408Y-29154800D01*
X225113408Y-29154800D02*
X225208646Y-29059561D01*
X225208646Y-29059561D02*
X225303884Y-28869085D01*
X225303884Y-28869085D02*
X225303884Y-27250038D01*
X227208646Y-29250038D02*
X226256265Y-29250038D01*
X226256265Y-29250038D02*
X226256265Y-27250038D01*
X227875313Y-28202419D02*
X228541980Y-28202419D01*
X228827694Y-29250038D02*
X227875313Y-29250038D01*
X227875313Y-29250038D02*
X227875313Y-27250038D01*
X227875313Y-27250038D02*
X228827694Y-27250038D01*
X209589598Y-67872419D02*
X209589598Y-68586704D01*
X209589598Y-68586704D02*
X209541979Y-68729561D01*
X209541979Y-68729561D02*
X209446741Y-68824800D01*
X209446741Y-68824800D02*
X209303884Y-68872419D01*
X209303884Y-68872419D02*
X209208646Y-68872419D01*
X210541979Y-68872419D02*
X210065789Y-68872419D01*
X210065789Y-68872419D02*
X210065789Y-67872419D01*
X211446741Y-68777180D02*
X211399122Y-68824800D01*
X211399122Y-68824800D02*
X211256265Y-68872419D01*
X211256265Y-68872419D02*
X211161027Y-68872419D01*
X211161027Y-68872419D02*
X211018170Y-68824800D01*
X211018170Y-68824800D02*
X210922932Y-68729561D01*
X210922932Y-68729561D02*
X210875313Y-68634323D01*
X210875313Y-68634323D02*
X210827694Y-68443847D01*
X210827694Y-68443847D02*
X210827694Y-68300990D01*
X210827694Y-68300990D02*
X210875313Y-68110514D01*
X210875313Y-68110514D02*
X210922932Y-68015276D01*
X210922932Y-68015276D02*
X211018170Y-67920038D01*
X211018170Y-67920038D02*
X211161027Y-67872419D01*
X211161027Y-67872419D02*
X211256265Y-67872419D01*
X211256265Y-67872419D02*
X211399122Y-67920038D01*
X211399122Y-67920038D02*
X211446741Y-67967657D01*
X212161027Y-67872419D02*
X212161027Y-68586704D01*
X212161027Y-68586704D02*
X212113408Y-68729561D01*
X212113408Y-68729561D02*
X212018170Y-68824800D01*
X212018170Y-68824800D02*
X211875313Y-68872419D01*
X211875313Y-68872419D02*
X211780075Y-68872419D01*
X213113408Y-68872419D02*
X212637218Y-68872419D01*
X212637218Y-68872419D02*
X212637218Y-67872419D01*
X214018170Y-68777180D02*
X213970551Y-68824800D01*
X213970551Y-68824800D02*
X213827694Y-68872419D01*
X213827694Y-68872419D02*
X213732456Y-68872419D01*
X213732456Y-68872419D02*
X213589599Y-68824800D01*
X213589599Y-68824800D02*
X213494361Y-68729561D01*
X213494361Y-68729561D02*
X213446742Y-68634323D01*
X213446742Y-68634323D02*
X213399123Y-68443847D01*
X213399123Y-68443847D02*
X213399123Y-68300990D01*
X213399123Y-68300990D02*
X213446742Y-68110514D01*
X213446742Y-68110514D02*
X213494361Y-68015276D01*
X213494361Y-68015276D02*
X213589599Y-67920038D01*
X213589599Y-67920038D02*
X213732456Y-67872419D01*
X213732456Y-67872419D02*
X213827694Y-67872419D01*
X213827694Y-67872419D02*
X213970551Y-67920038D01*
X213970551Y-67920038D02*
X214018170Y-67967657D01*
X214732456Y-67872419D02*
X214732456Y-68586704D01*
X214732456Y-68586704D02*
X214684837Y-68729561D01*
X214684837Y-68729561D02*
X214589599Y-68824800D01*
X214589599Y-68824800D02*
X214446742Y-68872419D01*
X214446742Y-68872419D02*
X214351504Y-68872419D01*
X215684837Y-68872419D02*
X215208647Y-68872419D01*
X215208647Y-68872419D02*
X215208647Y-67872419D01*
X216589599Y-68777180D02*
X216541980Y-68824800D01*
X216541980Y-68824800D02*
X216399123Y-68872419D01*
X216399123Y-68872419D02*
X216303885Y-68872419D01*
X216303885Y-68872419D02*
X216161028Y-68824800D01*
X216161028Y-68824800D02*
X216065790Y-68729561D01*
X216065790Y-68729561D02*
X216018171Y-68634323D01*
X216018171Y-68634323D02*
X215970552Y-68443847D01*
X215970552Y-68443847D02*
X215970552Y-68300990D01*
X215970552Y-68300990D02*
X216018171Y-68110514D01*
X216018171Y-68110514D02*
X216065790Y-68015276D01*
X216065790Y-68015276D02*
X216161028Y-67920038D01*
X216161028Y-67920038D02*
X216303885Y-67872419D01*
X216303885Y-67872419D02*
X216399123Y-67872419D01*
X216399123Y-67872419D02*
X216541980Y-67920038D01*
X216541980Y-67920038D02*
X216589599Y-67967657D01*
X217303885Y-67872419D02*
X217303885Y-68586704D01*
X217303885Y-68586704D02*
X217256266Y-68729561D01*
X217256266Y-68729561D02*
X217161028Y-68824800D01*
X217161028Y-68824800D02*
X217018171Y-68872419D01*
X217018171Y-68872419D02*
X216922933Y-68872419D01*
X218256266Y-68872419D02*
X217780076Y-68872419D01*
X217780076Y-68872419D02*
X217780076Y-67872419D01*
X219161028Y-68777180D02*
X219113409Y-68824800D01*
X219113409Y-68824800D02*
X218970552Y-68872419D01*
X218970552Y-68872419D02*
X218875314Y-68872419D01*
X218875314Y-68872419D02*
X218732457Y-68824800D01*
X218732457Y-68824800D02*
X218637219Y-68729561D01*
X218637219Y-68729561D02*
X218589600Y-68634323D01*
X218589600Y-68634323D02*
X218541981Y-68443847D01*
X218541981Y-68443847D02*
X218541981Y-68300990D01*
X218541981Y-68300990D02*
X218589600Y-68110514D01*
X218589600Y-68110514D02*
X218637219Y-68015276D01*
X218637219Y-68015276D02*
X218732457Y-67920038D01*
X218732457Y-67920038D02*
X218875314Y-67872419D01*
X218875314Y-67872419D02*
X218970552Y-67872419D01*
X218970552Y-67872419D02*
X219113409Y-67920038D01*
X219113409Y-67920038D02*
X219161028Y-67967657D01*
X260303884Y-65872419D02*
X260303884Y-64872419D01*
X260303884Y-65348609D02*
X260875312Y-65348609D01*
X260875312Y-65872419D02*
X260875312Y-64872419D01*
X261827693Y-65872419D02*
X261351503Y-65872419D01*
X261351503Y-65872419D02*
X261351503Y-64872419D01*
X262018170Y-64872419D02*
X262589598Y-64872419D01*
X262303884Y-65872419D02*
X262303884Y-64872419D01*
X260875312Y-61777180D02*
X260827693Y-61824800D01*
X260827693Y-61824800D02*
X260684836Y-61872419D01*
X260684836Y-61872419D02*
X260589598Y-61872419D01*
X260589598Y-61872419D02*
X260446741Y-61824800D01*
X260446741Y-61824800D02*
X260351503Y-61729561D01*
X260351503Y-61729561D02*
X260303884Y-61634323D01*
X260303884Y-61634323D02*
X260256265Y-61443847D01*
X260256265Y-61443847D02*
X260256265Y-61300990D01*
X260256265Y-61300990D02*
X260303884Y-61110514D01*
X260303884Y-61110514D02*
X260351503Y-61015276D01*
X260351503Y-61015276D02*
X260446741Y-60920038D01*
X260446741Y-60920038D02*
X260589598Y-60872419D01*
X260589598Y-60872419D02*
X260684836Y-60872419D01*
X260684836Y-60872419D02*
X260827693Y-60920038D01*
X260827693Y-60920038D02*
X260875312Y-60967657D01*
X261780074Y-61872419D02*
X261303884Y-61872419D01*
X261303884Y-61872419D02*
X261303884Y-60872419D01*
X262113408Y-61872419D02*
X262113408Y-60872419D01*
X262684836Y-61872419D02*
X262256265Y-61300990D01*
X262684836Y-60872419D02*
X262113408Y-61443847D01*
X260827693Y-58920038D02*
X260732455Y-58872419D01*
X260732455Y-58872419D02*
X260589598Y-58872419D01*
X260589598Y-58872419D02*
X260446741Y-58920038D01*
X260446741Y-58920038D02*
X260351503Y-59015276D01*
X260351503Y-59015276D02*
X260303884Y-59110514D01*
X260303884Y-59110514D02*
X260256265Y-59300990D01*
X260256265Y-59300990D02*
X260256265Y-59443847D01*
X260256265Y-59443847D02*
X260303884Y-59634323D01*
X260303884Y-59634323D02*
X260351503Y-59729561D01*
X260351503Y-59729561D02*
X260446741Y-59824800D01*
X260446741Y-59824800D02*
X260589598Y-59872419D01*
X260589598Y-59872419D02*
X260684836Y-59872419D01*
X260684836Y-59872419D02*
X260827693Y-59824800D01*
X260827693Y-59824800D02*
X260875312Y-59777180D01*
X260875312Y-59777180D02*
X260875312Y-59443847D01*
X260875312Y-59443847D02*
X260684836Y-59443847D01*
X261303884Y-59872419D02*
X261303884Y-58872419D01*
X261303884Y-58872419D02*
X261875312Y-59872419D01*
X261875312Y-59872419D02*
X261875312Y-58872419D01*
X262351503Y-59872419D02*
X262351503Y-58872419D01*
X262351503Y-58872419D02*
X262589598Y-58872419D01*
X262589598Y-58872419D02*
X262732455Y-58920038D01*
X262732455Y-58920038D02*
X262827693Y-59015276D01*
X262827693Y-59015276D02*
X262875312Y-59110514D01*
X262875312Y-59110514D02*
X262922931Y-59300990D01*
X262922931Y-59300990D02*
X262922931Y-59443847D01*
X262922931Y-59443847D02*
X262875312Y-59634323D01*
X262875312Y-59634323D02*
X262827693Y-59729561D01*
X262827693Y-59729561D02*
X262732455Y-59824800D01*
X262732455Y-59824800D02*
X262589598Y-59872419D01*
X262589598Y-59872419D02*
X262351503Y-59872419D01*
X260161027Y-56872419D02*
X260494360Y-57872419D01*
X260494360Y-57872419D02*
X260827693Y-56872419D01*
X261732455Y-57777180D02*
X261684836Y-57824800D01*
X261684836Y-57824800D02*
X261541979Y-57872419D01*
X261541979Y-57872419D02*
X261446741Y-57872419D01*
X261446741Y-57872419D02*
X261303884Y-57824800D01*
X261303884Y-57824800D02*
X261208646Y-57729561D01*
X261208646Y-57729561D02*
X261161027Y-57634323D01*
X261161027Y-57634323D02*
X261113408Y-57443847D01*
X261113408Y-57443847D02*
X261113408Y-57300990D01*
X261113408Y-57300990D02*
X261161027Y-57110514D01*
X261161027Y-57110514D02*
X261208646Y-57015276D01*
X261208646Y-57015276D02*
X261303884Y-56920038D01*
X261303884Y-56920038D02*
X261446741Y-56872419D01*
X261446741Y-56872419D02*
X261541979Y-56872419D01*
X261541979Y-56872419D02*
X261684836Y-56920038D01*
X261684836Y-56920038D02*
X261732455Y-56967657D01*
X262732455Y-57777180D02*
X262684836Y-57824800D01*
X262684836Y-57824800D02*
X262541979Y-57872419D01*
X262541979Y-57872419D02*
X262446741Y-57872419D01*
X262446741Y-57872419D02*
X262303884Y-57824800D01*
X262303884Y-57824800D02*
X262208646Y-57729561D01*
X262208646Y-57729561D02*
X262161027Y-57634323D01*
X262161027Y-57634323D02*
X262113408Y-57443847D01*
X262113408Y-57443847D02*
X262113408Y-57300990D01*
X262113408Y-57300990D02*
X262161027Y-57110514D01*
X262161027Y-57110514D02*
X262208646Y-57015276D01*
X262208646Y-57015276D02*
X262303884Y-56920038D01*
X262303884Y-56920038D02*
X262446741Y-56872419D01*
X262446741Y-56872419D02*
X262541979Y-56872419D01*
X262541979Y-56872419D02*
X262684836Y-56920038D01*
X262684836Y-56920038D02*
X262732455Y-56967657D01*
X260875312Y-63777180D02*
X260827693Y-63824800D01*
X260827693Y-63824800D02*
X260684836Y-63872419D01*
X260684836Y-63872419D02*
X260589598Y-63872419D01*
X260589598Y-63872419D02*
X260446741Y-63824800D01*
X260446741Y-63824800D02*
X260351503Y-63729561D01*
X260351503Y-63729561D02*
X260303884Y-63634323D01*
X260303884Y-63634323D02*
X260256265Y-63443847D01*
X260256265Y-63443847D02*
X260256265Y-63300990D01*
X260256265Y-63300990D02*
X260303884Y-63110514D01*
X260303884Y-63110514D02*
X260351503Y-63015276D01*
X260351503Y-63015276D02*
X260446741Y-62920038D01*
X260446741Y-62920038D02*
X260589598Y-62872419D01*
X260589598Y-62872419D02*
X260684836Y-62872419D01*
X260684836Y-62872419D02*
X260827693Y-62920038D01*
X260827693Y-62920038D02*
X260875312Y-62967657D01*
X261780074Y-63872419D02*
X261303884Y-63872419D01*
X261303884Y-63872419D02*
X261303884Y-62872419D01*
X262113408Y-63872419D02*
X262113408Y-62872419D01*
X262684836Y-63872419D02*
X262256265Y-63300990D01*
X262684836Y-62872419D02*
X262113408Y-63443847D01*
X260165789Y-62594800D02*
X262775313Y-62594800D01*
D11*
X246283333Y-48874819D02*
X245950000Y-48398628D01*
X245711905Y-48874819D02*
X245711905Y-47874819D01*
X245711905Y-47874819D02*
X246092857Y-47874819D01*
X246092857Y-47874819D02*
X246188095Y-47922438D01*
X246188095Y-47922438D02*
X246235714Y-47970057D01*
X246235714Y-47970057D02*
X246283333Y-48065295D01*
X246283333Y-48065295D02*
X246283333Y-48208152D01*
X246283333Y-48208152D02*
X246235714Y-48303390D01*
X246235714Y-48303390D02*
X246188095Y-48351009D01*
X246188095Y-48351009D02*
X246092857Y-48398628D01*
X246092857Y-48398628D02*
X245711905Y-48398628D01*
X247140476Y-47874819D02*
X246950000Y-47874819D01*
X246950000Y-47874819D02*
X246854762Y-47922438D01*
X246854762Y-47922438D02*
X246807143Y-47970057D01*
X246807143Y-47970057D02*
X246711905Y-48112914D01*
X246711905Y-48112914D02*
X246664286Y-48303390D01*
X246664286Y-48303390D02*
X246664286Y-48684342D01*
X246664286Y-48684342D02*
X246711905Y-48779580D01*
X246711905Y-48779580D02*
X246759524Y-48827200D01*
X246759524Y-48827200D02*
X246854762Y-48874819D01*
X246854762Y-48874819D02*
X247045238Y-48874819D01*
X247045238Y-48874819D02*
X247140476Y-48827200D01*
X247140476Y-48827200D02*
X247188095Y-48779580D01*
X247188095Y-48779580D02*
X247235714Y-48684342D01*
X247235714Y-48684342D02*
X247235714Y-48446247D01*
X247235714Y-48446247D02*
X247188095Y-48351009D01*
X247188095Y-48351009D02*
X247140476Y-48303390D01*
X247140476Y-48303390D02*
X247045238Y-48255771D01*
X247045238Y-48255771D02*
X246854762Y-48255771D01*
X246854762Y-48255771D02*
X246759524Y-48303390D01*
X246759524Y-48303390D02*
X246711905Y-48351009D01*
X246711905Y-48351009D02*
X246664286Y-48446247D01*
X208084819Y-62071904D02*
X208894342Y-62071904D01*
X208894342Y-62071904D02*
X208989580Y-62024285D01*
X208989580Y-62024285D02*
X209037200Y-61976666D01*
X209037200Y-61976666D02*
X209084819Y-61881428D01*
X209084819Y-61881428D02*
X209084819Y-61690952D01*
X209084819Y-61690952D02*
X209037200Y-61595714D01*
X209037200Y-61595714D02*
X208989580Y-61548095D01*
X208989580Y-61548095D02*
X208894342Y-61500476D01*
X208894342Y-61500476D02*
X208084819Y-61500476D01*
X208084819Y-60595714D02*
X208084819Y-60786190D01*
X208084819Y-60786190D02*
X208132438Y-60881428D01*
X208132438Y-60881428D02*
X208180057Y-60929047D01*
X208180057Y-60929047D02*
X208322914Y-61024285D01*
X208322914Y-61024285D02*
X208513390Y-61071904D01*
X208513390Y-61071904D02*
X208894342Y-61071904D01*
X208894342Y-61071904D02*
X208989580Y-61024285D01*
X208989580Y-61024285D02*
X209037200Y-60976666D01*
X209037200Y-60976666D02*
X209084819Y-60881428D01*
X209084819Y-60881428D02*
X209084819Y-60690952D01*
X209084819Y-60690952D02*
X209037200Y-60595714D01*
X209037200Y-60595714D02*
X208989580Y-60548095D01*
X208989580Y-60548095D02*
X208894342Y-60500476D01*
X208894342Y-60500476D02*
X208656247Y-60500476D01*
X208656247Y-60500476D02*
X208561009Y-60548095D01*
X208561009Y-60548095D02*
X208513390Y-60595714D01*
X208513390Y-60595714D02*
X208465771Y-60690952D01*
X208465771Y-60690952D02*
X208465771Y-60881428D01*
X208465771Y-60881428D02*
X208513390Y-60976666D01*
X208513390Y-60976666D02*
X208561009Y-61024285D01*
X208561009Y-61024285D02*
X208656247Y-61071904D01*
X258389761Y-27814819D02*
X258056428Y-27338628D01*
X257818333Y-27814819D02*
X257818333Y-26814819D01*
X257818333Y-26814819D02*
X258199285Y-26814819D01*
X258199285Y-26814819D02*
X258294523Y-26862438D01*
X258294523Y-26862438D02*
X258342142Y-26910057D01*
X258342142Y-26910057D02*
X258389761Y-27005295D01*
X258389761Y-27005295D02*
X258389761Y-27148152D01*
X258389761Y-27148152D02*
X258342142Y-27243390D01*
X258342142Y-27243390D02*
X258294523Y-27291009D01*
X258294523Y-27291009D02*
X258199285Y-27338628D01*
X258199285Y-27338628D02*
X257818333Y-27338628D01*
X258675476Y-26814819D02*
X259008809Y-27814819D01*
X259008809Y-27814819D02*
X259342142Y-26814819D01*
X260199285Y-27814819D02*
X259627857Y-27814819D01*
X259913571Y-27814819D02*
X259913571Y-26814819D01*
X259913571Y-26814819D02*
X259818333Y-26957676D01*
X259818333Y-26957676D02*
X259723095Y-27052914D01*
X259723095Y-27052914D02*
X259627857Y-27100533D01*
X262756905Y-43994819D02*
X262756905Y-42994819D01*
X262756905Y-42994819D02*
X262995000Y-42994819D01*
X262995000Y-42994819D02*
X263137857Y-43042438D01*
X263137857Y-43042438D02*
X263233095Y-43137676D01*
X263233095Y-43137676D02*
X263280714Y-43232914D01*
X263280714Y-43232914D02*
X263328333Y-43423390D01*
X263328333Y-43423390D02*
X263328333Y-43566247D01*
X263328333Y-43566247D02*
X263280714Y-43756723D01*
X263280714Y-43756723D02*
X263233095Y-43851961D01*
X263233095Y-43851961D02*
X263137857Y-43947200D01*
X263137857Y-43947200D02*
X262995000Y-43994819D01*
X262995000Y-43994819D02*
X262756905Y-43994819D01*
X264280714Y-43994819D02*
X263709286Y-43994819D01*
X263995000Y-43994819D02*
X263995000Y-42994819D01*
X263995000Y-42994819D02*
X263899762Y-43137676D01*
X263899762Y-43137676D02*
X263804524Y-43232914D01*
X263804524Y-43232914D02*
X263709286Y-43280533D01*
X221824819Y-39751904D02*
X222634342Y-39751904D01*
X222634342Y-39751904D02*
X222729580Y-39704285D01*
X222729580Y-39704285D02*
X222777200Y-39656666D01*
X222777200Y-39656666D02*
X222824819Y-39561428D01*
X222824819Y-39561428D02*
X222824819Y-39370952D01*
X222824819Y-39370952D02*
X222777200Y-39275714D01*
X222777200Y-39275714D02*
X222729580Y-39228095D01*
X222729580Y-39228095D02*
X222634342Y-39180476D01*
X222634342Y-39180476D02*
X221824819Y-39180476D01*
X221824819Y-38799523D02*
X221824819Y-38180476D01*
X221824819Y-38180476D02*
X222205771Y-38513809D01*
X222205771Y-38513809D02*
X222205771Y-38370952D01*
X222205771Y-38370952D02*
X222253390Y-38275714D01*
X222253390Y-38275714D02*
X222301009Y-38228095D01*
X222301009Y-38228095D02*
X222396247Y-38180476D01*
X222396247Y-38180476D02*
X222634342Y-38180476D01*
X222634342Y-38180476D02*
X222729580Y-38228095D01*
X222729580Y-38228095D02*
X222777200Y-38275714D01*
X222777200Y-38275714D02*
X222824819Y-38370952D01*
X222824819Y-38370952D02*
X222824819Y-38656666D01*
X222824819Y-38656666D02*
X222777200Y-38751904D01*
X222777200Y-38751904D02*
X222729580Y-38799523D01*
X160153333Y-30809580D02*
X160105714Y-30857200D01*
X160105714Y-30857200D02*
X159962857Y-30904819D01*
X159962857Y-30904819D02*
X159867619Y-30904819D01*
X159867619Y-30904819D02*
X159724762Y-30857200D01*
X159724762Y-30857200D02*
X159629524Y-30761961D01*
X159629524Y-30761961D02*
X159581905Y-30666723D01*
X159581905Y-30666723D02*
X159534286Y-30476247D01*
X159534286Y-30476247D02*
X159534286Y-30333390D01*
X159534286Y-30333390D02*
X159581905Y-30142914D01*
X159581905Y-30142914D02*
X159629524Y-30047676D01*
X159629524Y-30047676D02*
X159724762Y-29952438D01*
X159724762Y-29952438D02*
X159867619Y-29904819D01*
X159867619Y-29904819D02*
X159962857Y-29904819D01*
X159962857Y-29904819D02*
X160105714Y-29952438D01*
X160105714Y-29952438D02*
X160153333Y-30000057D01*
X161105714Y-30904819D02*
X160534286Y-30904819D01*
X160820000Y-30904819D02*
X160820000Y-29904819D01*
X160820000Y-29904819D02*
X160724762Y-30047676D01*
X160724762Y-30047676D02*
X160629524Y-30142914D01*
X160629524Y-30142914D02*
X160534286Y-30190533D01*
X209293333Y-52629580D02*
X209245714Y-52677200D01*
X209245714Y-52677200D02*
X209102857Y-52724819D01*
X209102857Y-52724819D02*
X209007619Y-52724819D01*
X209007619Y-52724819D02*
X208864762Y-52677200D01*
X208864762Y-52677200D02*
X208769524Y-52581961D01*
X208769524Y-52581961D02*
X208721905Y-52486723D01*
X208721905Y-52486723D02*
X208674286Y-52296247D01*
X208674286Y-52296247D02*
X208674286Y-52153390D01*
X208674286Y-52153390D02*
X208721905Y-51962914D01*
X208721905Y-51962914D02*
X208769524Y-51867676D01*
X208769524Y-51867676D02*
X208864762Y-51772438D01*
X208864762Y-51772438D02*
X209007619Y-51724819D01*
X209007619Y-51724819D02*
X209102857Y-51724819D01*
X209102857Y-51724819D02*
X209245714Y-51772438D01*
X209245714Y-51772438D02*
X209293333Y-51820057D01*
X210150476Y-51724819D02*
X209960000Y-51724819D01*
X209960000Y-51724819D02*
X209864762Y-51772438D01*
X209864762Y-51772438D02*
X209817143Y-51820057D01*
X209817143Y-51820057D02*
X209721905Y-51962914D01*
X209721905Y-51962914D02*
X209674286Y-52153390D01*
X209674286Y-52153390D02*
X209674286Y-52534342D01*
X209674286Y-52534342D02*
X209721905Y-52629580D01*
X209721905Y-52629580D02*
X209769524Y-52677200D01*
X209769524Y-52677200D02*
X209864762Y-52724819D01*
X209864762Y-52724819D02*
X210055238Y-52724819D01*
X210055238Y-52724819D02*
X210150476Y-52677200D01*
X210150476Y-52677200D02*
X210198095Y-52629580D01*
X210198095Y-52629580D02*
X210245714Y-52534342D01*
X210245714Y-52534342D02*
X210245714Y-52296247D01*
X210245714Y-52296247D02*
X210198095Y-52201009D01*
X210198095Y-52201009D02*
X210150476Y-52153390D01*
X210150476Y-52153390D02*
X210055238Y-52105771D01*
X210055238Y-52105771D02*
X209864762Y-52105771D01*
X209864762Y-52105771D02*
X209769524Y-52153390D01*
X209769524Y-52153390D02*
X209721905Y-52201009D01*
X209721905Y-52201009D02*
X209674286Y-52296247D01*
X233783333Y-48374819D02*
X233450000Y-47898628D01*
X233211905Y-48374819D02*
X233211905Y-47374819D01*
X233211905Y-47374819D02*
X233592857Y-47374819D01*
X233592857Y-47374819D02*
X233688095Y-47422438D01*
X233688095Y-47422438D02*
X233735714Y-47470057D01*
X233735714Y-47470057D02*
X233783333Y-47565295D01*
X233783333Y-47565295D02*
X233783333Y-47708152D01*
X233783333Y-47708152D02*
X233735714Y-47803390D01*
X233735714Y-47803390D02*
X233688095Y-47851009D01*
X233688095Y-47851009D02*
X233592857Y-47898628D01*
X233592857Y-47898628D02*
X233211905Y-47898628D01*
X234688095Y-47374819D02*
X234211905Y-47374819D01*
X234211905Y-47374819D02*
X234164286Y-47851009D01*
X234164286Y-47851009D02*
X234211905Y-47803390D01*
X234211905Y-47803390D02*
X234307143Y-47755771D01*
X234307143Y-47755771D02*
X234545238Y-47755771D01*
X234545238Y-47755771D02*
X234640476Y-47803390D01*
X234640476Y-47803390D02*
X234688095Y-47851009D01*
X234688095Y-47851009D02*
X234735714Y-47946247D01*
X234735714Y-47946247D02*
X234735714Y-48184342D01*
X234735714Y-48184342D02*
X234688095Y-48279580D01*
X234688095Y-48279580D02*
X234640476Y-48327200D01*
X234640476Y-48327200D02*
X234545238Y-48374819D01*
X234545238Y-48374819D02*
X234307143Y-48374819D01*
X234307143Y-48374819D02*
X234211905Y-48327200D01*
X234211905Y-48327200D02*
X234164286Y-48279580D01*
X173534819Y-38616666D02*
X173058628Y-38949999D01*
X173534819Y-39188094D02*
X172534819Y-39188094D01*
X172534819Y-39188094D02*
X172534819Y-38807142D01*
X172534819Y-38807142D02*
X172582438Y-38711904D01*
X172582438Y-38711904D02*
X172630057Y-38664285D01*
X172630057Y-38664285D02*
X172725295Y-38616666D01*
X172725295Y-38616666D02*
X172868152Y-38616666D01*
X172868152Y-38616666D02*
X172963390Y-38664285D01*
X172963390Y-38664285D02*
X173011009Y-38711904D01*
X173011009Y-38711904D02*
X173058628Y-38807142D01*
X173058628Y-38807142D02*
X173058628Y-39188094D01*
X173534819Y-37664285D02*
X173534819Y-38235713D01*
X173534819Y-37949999D02*
X172534819Y-37949999D01*
X172534819Y-37949999D02*
X172677676Y-38045237D01*
X172677676Y-38045237D02*
X172772914Y-38140475D01*
X172772914Y-38140475D02*
X172820533Y-38235713D01*
X191794819Y-39216666D02*
X191318628Y-39549999D01*
X191794819Y-39788094D02*
X190794819Y-39788094D01*
X190794819Y-39788094D02*
X190794819Y-39407142D01*
X190794819Y-39407142D02*
X190842438Y-39311904D01*
X190842438Y-39311904D02*
X190890057Y-39264285D01*
X190890057Y-39264285D02*
X190985295Y-39216666D01*
X190985295Y-39216666D02*
X191128152Y-39216666D01*
X191128152Y-39216666D02*
X191223390Y-39264285D01*
X191223390Y-39264285D02*
X191271009Y-39311904D01*
X191271009Y-39311904D02*
X191318628Y-39407142D01*
X191318628Y-39407142D02*
X191318628Y-39788094D01*
X190794819Y-38883332D02*
X190794819Y-38264285D01*
X190794819Y-38264285D02*
X191175771Y-38597618D01*
X191175771Y-38597618D02*
X191175771Y-38454761D01*
X191175771Y-38454761D02*
X191223390Y-38359523D01*
X191223390Y-38359523D02*
X191271009Y-38311904D01*
X191271009Y-38311904D02*
X191366247Y-38264285D01*
X191366247Y-38264285D02*
X191604342Y-38264285D01*
X191604342Y-38264285D02*
X191699580Y-38311904D01*
X191699580Y-38311904D02*
X191747200Y-38359523D01*
X191747200Y-38359523D02*
X191794819Y-38454761D01*
X191794819Y-38454761D02*
X191794819Y-38740475D01*
X191794819Y-38740475D02*
X191747200Y-38835713D01*
X191747200Y-38835713D02*
X191699580Y-38883332D01*
X193833333Y-30809580D02*
X193785714Y-30857200D01*
X193785714Y-30857200D02*
X193642857Y-30904819D01*
X193642857Y-30904819D02*
X193547619Y-30904819D01*
X193547619Y-30904819D02*
X193404762Y-30857200D01*
X193404762Y-30857200D02*
X193309524Y-30761961D01*
X193309524Y-30761961D02*
X193261905Y-30666723D01*
X193261905Y-30666723D02*
X193214286Y-30476247D01*
X193214286Y-30476247D02*
X193214286Y-30333390D01*
X193214286Y-30333390D02*
X193261905Y-30142914D01*
X193261905Y-30142914D02*
X193309524Y-30047676D01*
X193309524Y-30047676D02*
X193404762Y-29952438D01*
X193404762Y-29952438D02*
X193547619Y-29904819D01*
X193547619Y-29904819D02*
X193642857Y-29904819D01*
X193642857Y-29904819D02*
X193785714Y-29952438D01*
X193785714Y-29952438D02*
X193833333Y-30000057D01*
X194214286Y-30000057D02*
X194261905Y-29952438D01*
X194261905Y-29952438D02*
X194357143Y-29904819D01*
X194357143Y-29904819D02*
X194595238Y-29904819D01*
X194595238Y-29904819D02*
X194690476Y-29952438D01*
X194690476Y-29952438D02*
X194738095Y-30000057D01*
X194738095Y-30000057D02*
X194785714Y-30095295D01*
X194785714Y-30095295D02*
X194785714Y-30190533D01*
X194785714Y-30190533D02*
X194738095Y-30333390D01*
X194738095Y-30333390D02*
X194166667Y-30904819D01*
X194166667Y-30904819D02*
X194785714Y-30904819D01*
X170583333Y-30809580D02*
X170535714Y-30857200D01*
X170535714Y-30857200D02*
X170392857Y-30904819D01*
X170392857Y-30904819D02*
X170297619Y-30904819D01*
X170297619Y-30904819D02*
X170154762Y-30857200D01*
X170154762Y-30857200D02*
X170059524Y-30761961D01*
X170059524Y-30761961D02*
X170011905Y-30666723D01*
X170011905Y-30666723D02*
X169964286Y-30476247D01*
X169964286Y-30476247D02*
X169964286Y-30333390D01*
X169964286Y-30333390D02*
X170011905Y-30142914D01*
X170011905Y-30142914D02*
X170059524Y-30047676D01*
X170059524Y-30047676D02*
X170154762Y-29952438D01*
X170154762Y-29952438D02*
X170297619Y-29904819D01*
X170297619Y-29904819D02*
X170392857Y-29904819D01*
X170392857Y-29904819D02*
X170535714Y-29952438D01*
X170535714Y-29952438D02*
X170583333Y-30000057D01*
X170916667Y-29904819D02*
X171583333Y-29904819D01*
X171583333Y-29904819D02*
X171154762Y-30904819D01*
X159293333Y-52629580D02*
X159245714Y-52677200D01*
X159245714Y-52677200D02*
X159102857Y-52724819D01*
X159102857Y-52724819D02*
X159007619Y-52724819D01*
X159007619Y-52724819D02*
X158864762Y-52677200D01*
X158864762Y-52677200D02*
X158769524Y-52581961D01*
X158769524Y-52581961D02*
X158721905Y-52486723D01*
X158721905Y-52486723D02*
X158674286Y-52296247D01*
X158674286Y-52296247D02*
X158674286Y-52153390D01*
X158674286Y-52153390D02*
X158721905Y-51962914D01*
X158721905Y-51962914D02*
X158769524Y-51867676D01*
X158769524Y-51867676D02*
X158864762Y-51772438D01*
X158864762Y-51772438D02*
X159007619Y-51724819D01*
X159007619Y-51724819D02*
X159102857Y-51724819D01*
X159102857Y-51724819D02*
X159245714Y-51772438D01*
X159245714Y-51772438D02*
X159293333Y-51820057D01*
X160150476Y-52058152D02*
X160150476Y-52724819D01*
X159912381Y-51677200D02*
X159674286Y-52391485D01*
X159674286Y-52391485D02*
X160293333Y-52391485D01*
X197857142Y-30859580D02*
X197809523Y-30907200D01*
X197809523Y-30907200D02*
X197666666Y-30954819D01*
X197666666Y-30954819D02*
X197571428Y-30954819D01*
X197571428Y-30954819D02*
X197428571Y-30907200D01*
X197428571Y-30907200D02*
X197333333Y-30811961D01*
X197333333Y-30811961D02*
X197285714Y-30716723D01*
X197285714Y-30716723D02*
X197238095Y-30526247D01*
X197238095Y-30526247D02*
X197238095Y-30383390D01*
X197238095Y-30383390D02*
X197285714Y-30192914D01*
X197285714Y-30192914D02*
X197333333Y-30097676D01*
X197333333Y-30097676D02*
X197428571Y-30002438D01*
X197428571Y-30002438D02*
X197571428Y-29954819D01*
X197571428Y-29954819D02*
X197666666Y-29954819D01*
X197666666Y-29954819D02*
X197809523Y-30002438D01*
X197809523Y-30002438D02*
X197857142Y-30050057D01*
X198809523Y-30954819D02*
X198238095Y-30954819D01*
X198523809Y-30954819D02*
X198523809Y-29954819D01*
X198523809Y-29954819D02*
X198428571Y-30097676D01*
X198428571Y-30097676D02*
X198333333Y-30192914D01*
X198333333Y-30192914D02*
X198238095Y-30240533D01*
X199428571Y-29954819D02*
X199523809Y-29954819D01*
X199523809Y-29954819D02*
X199619047Y-30002438D01*
X199619047Y-30002438D02*
X199666666Y-30050057D01*
X199666666Y-30050057D02*
X199714285Y-30145295D01*
X199714285Y-30145295D02*
X199761904Y-30335771D01*
X199761904Y-30335771D02*
X199761904Y-30573866D01*
X199761904Y-30573866D02*
X199714285Y-30764342D01*
X199714285Y-30764342D02*
X199666666Y-30859580D01*
X199666666Y-30859580D02*
X199619047Y-30907200D01*
X199619047Y-30907200D02*
X199523809Y-30954819D01*
X199523809Y-30954819D02*
X199428571Y-30954819D01*
X199428571Y-30954819D02*
X199333333Y-30907200D01*
X199333333Y-30907200D02*
X199285714Y-30859580D01*
X199285714Y-30859580D02*
X199238095Y-30764342D01*
X199238095Y-30764342D02*
X199190476Y-30573866D01*
X199190476Y-30573866D02*
X199190476Y-30335771D01*
X199190476Y-30335771D02*
X199238095Y-30145295D01*
X199238095Y-30145295D02*
X199285714Y-30050057D01*
X199285714Y-30050057D02*
X199333333Y-30002438D01*
X199333333Y-30002438D02*
X199428571Y-29954819D01*
X201463333Y-30074819D02*
X201130000Y-29598628D01*
X200891905Y-30074819D02*
X200891905Y-29074819D01*
X200891905Y-29074819D02*
X201272857Y-29074819D01*
X201272857Y-29074819D02*
X201368095Y-29122438D01*
X201368095Y-29122438D02*
X201415714Y-29170057D01*
X201415714Y-29170057D02*
X201463333Y-29265295D01*
X201463333Y-29265295D02*
X201463333Y-29408152D01*
X201463333Y-29408152D02*
X201415714Y-29503390D01*
X201415714Y-29503390D02*
X201368095Y-29551009D01*
X201368095Y-29551009D02*
X201272857Y-29598628D01*
X201272857Y-29598628D02*
X200891905Y-29598628D01*
X202320476Y-29408152D02*
X202320476Y-30074819D01*
X202082381Y-29027200D02*
X201844286Y-29741485D01*
X201844286Y-29741485D02*
X202463333Y-29741485D01*
X264166666Y-54894819D02*
X264166666Y-55609104D01*
X264166666Y-55609104D02*
X264119047Y-55751961D01*
X264119047Y-55751961D02*
X264023809Y-55847200D01*
X264023809Y-55847200D02*
X263880952Y-55894819D01*
X263880952Y-55894819D02*
X263785714Y-55894819D01*
X265166666Y-55894819D02*
X264595238Y-55894819D01*
X264880952Y-55894819D02*
X264880952Y-54894819D01*
X264880952Y-54894819D02*
X264785714Y-55037676D01*
X264785714Y-55037676D02*
X264690476Y-55132914D01*
X264690476Y-55132914D02*
X264595238Y-55180533D01*
X247376667Y-63207200D02*
X247519524Y-63254819D01*
X247519524Y-63254819D02*
X247757619Y-63254819D01*
X247757619Y-63254819D02*
X247852857Y-63207200D01*
X247852857Y-63207200D02*
X247900476Y-63159580D01*
X247900476Y-63159580D02*
X247948095Y-63064342D01*
X247948095Y-63064342D02*
X247948095Y-62969104D01*
X247948095Y-62969104D02*
X247900476Y-62873866D01*
X247900476Y-62873866D02*
X247852857Y-62826247D01*
X247852857Y-62826247D02*
X247757619Y-62778628D01*
X247757619Y-62778628D02*
X247567143Y-62731009D01*
X247567143Y-62731009D02*
X247471905Y-62683390D01*
X247471905Y-62683390D02*
X247424286Y-62635771D01*
X247424286Y-62635771D02*
X247376667Y-62540533D01*
X247376667Y-62540533D02*
X247376667Y-62445295D01*
X247376667Y-62445295D02*
X247424286Y-62350057D01*
X247424286Y-62350057D02*
X247471905Y-62302438D01*
X247471905Y-62302438D02*
X247567143Y-62254819D01*
X247567143Y-62254819D02*
X247805238Y-62254819D01*
X247805238Y-62254819D02*
X247948095Y-62302438D01*
X248281429Y-62254819D02*
X248519524Y-63254819D01*
X248519524Y-63254819D02*
X248710000Y-62540533D01*
X248710000Y-62540533D02*
X248900476Y-63254819D01*
X248900476Y-63254819D02*
X249138572Y-62254819D01*
X250043333Y-63254819D02*
X249471905Y-63254819D01*
X249757619Y-63254819D02*
X249757619Y-62254819D01*
X249757619Y-62254819D02*
X249662381Y-62397676D01*
X249662381Y-62397676D02*
X249567143Y-62492914D01*
X249567143Y-62492914D02*
X249471905Y-62540533D01*
X223333333Y-30809580D02*
X223285714Y-30857200D01*
X223285714Y-30857200D02*
X223142857Y-30904819D01*
X223142857Y-30904819D02*
X223047619Y-30904819D01*
X223047619Y-30904819D02*
X222904762Y-30857200D01*
X222904762Y-30857200D02*
X222809524Y-30761961D01*
X222809524Y-30761961D02*
X222761905Y-30666723D01*
X222761905Y-30666723D02*
X222714286Y-30476247D01*
X222714286Y-30476247D02*
X222714286Y-30333390D01*
X222714286Y-30333390D02*
X222761905Y-30142914D01*
X222761905Y-30142914D02*
X222809524Y-30047676D01*
X222809524Y-30047676D02*
X222904762Y-29952438D01*
X222904762Y-29952438D02*
X223047619Y-29904819D01*
X223047619Y-29904819D02*
X223142857Y-29904819D01*
X223142857Y-29904819D02*
X223285714Y-29952438D01*
X223285714Y-29952438D02*
X223333333Y-30000057D01*
X223666667Y-29904819D02*
X224285714Y-29904819D01*
X224285714Y-29904819D02*
X223952381Y-30285771D01*
X223952381Y-30285771D02*
X224095238Y-30285771D01*
X224095238Y-30285771D02*
X224190476Y-30333390D01*
X224190476Y-30333390D02*
X224238095Y-30381009D01*
X224238095Y-30381009D02*
X224285714Y-30476247D01*
X224285714Y-30476247D02*
X224285714Y-30714342D01*
X224285714Y-30714342D02*
X224238095Y-30809580D01*
X224238095Y-30809580D02*
X224190476Y-30857200D01*
X224190476Y-30857200D02*
X224095238Y-30904819D01*
X224095238Y-30904819D02*
X223809524Y-30904819D01*
X223809524Y-30904819D02*
X223714286Y-30857200D01*
X223714286Y-30857200D02*
X223666667Y-30809580D01*
X183459819Y-62071904D02*
X184269342Y-62071904D01*
X184269342Y-62071904D02*
X184364580Y-62024285D01*
X184364580Y-62024285D02*
X184412200Y-61976666D01*
X184412200Y-61976666D02*
X184459819Y-61881428D01*
X184459819Y-61881428D02*
X184459819Y-61690952D01*
X184459819Y-61690952D02*
X184412200Y-61595714D01*
X184412200Y-61595714D02*
X184364580Y-61548095D01*
X184364580Y-61548095D02*
X184269342Y-61500476D01*
X184269342Y-61500476D02*
X183459819Y-61500476D01*
X183459819Y-60548095D02*
X183459819Y-61024285D01*
X183459819Y-61024285D02*
X183936009Y-61071904D01*
X183936009Y-61071904D02*
X183888390Y-61024285D01*
X183888390Y-61024285D02*
X183840771Y-60929047D01*
X183840771Y-60929047D02*
X183840771Y-60690952D01*
X183840771Y-60690952D02*
X183888390Y-60595714D01*
X183888390Y-60595714D02*
X183936009Y-60548095D01*
X183936009Y-60548095D02*
X184031247Y-60500476D01*
X184031247Y-60500476D02*
X184269342Y-60500476D01*
X184269342Y-60500476D02*
X184364580Y-60548095D01*
X184364580Y-60548095D02*
X184412200Y-60595714D01*
X184412200Y-60595714D02*
X184459819Y-60690952D01*
X184459819Y-60690952D02*
X184459819Y-60929047D01*
X184459819Y-60929047D02*
X184412200Y-61024285D01*
X184412200Y-61024285D02*
X184364580Y-61071904D01*
X178954819Y-38666666D02*
X178478628Y-38999999D01*
X178954819Y-39238094D02*
X177954819Y-39238094D01*
X177954819Y-39238094D02*
X177954819Y-38857142D01*
X177954819Y-38857142D02*
X178002438Y-38761904D01*
X178002438Y-38761904D02*
X178050057Y-38714285D01*
X178050057Y-38714285D02*
X178145295Y-38666666D01*
X178145295Y-38666666D02*
X178288152Y-38666666D01*
X178288152Y-38666666D02*
X178383390Y-38714285D01*
X178383390Y-38714285D02*
X178431009Y-38761904D01*
X178431009Y-38761904D02*
X178478628Y-38857142D01*
X178478628Y-38857142D02*
X178478628Y-39238094D01*
X178050057Y-38285713D02*
X178002438Y-38238094D01*
X178002438Y-38238094D02*
X177954819Y-38142856D01*
X177954819Y-38142856D02*
X177954819Y-37904761D01*
X177954819Y-37904761D02*
X178002438Y-37809523D01*
X178002438Y-37809523D02*
X178050057Y-37761904D01*
X178050057Y-37761904D02*
X178145295Y-37714285D01*
X178145295Y-37714285D02*
X178240533Y-37714285D01*
X178240533Y-37714285D02*
X178383390Y-37761904D01*
X178383390Y-37761904D02*
X178954819Y-38333332D01*
X178954819Y-38333332D02*
X178954819Y-37714285D01*
X185043333Y-52629580D02*
X184995714Y-52677200D01*
X184995714Y-52677200D02*
X184852857Y-52724819D01*
X184852857Y-52724819D02*
X184757619Y-52724819D01*
X184757619Y-52724819D02*
X184614762Y-52677200D01*
X184614762Y-52677200D02*
X184519524Y-52581961D01*
X184519524Y-52581961D02*
X184471905Y-52486723D01*
X184471905Y-52486723D02*
X184424286Y-52296247D01*
X184424286Y-52296247D02*
X184424286Y-52153390D01*
X184424286Y-52153390D02*
X184471905Y-51962914D01*
X184471905Y-51962914D02*
X184519524Y-51867676D01*
X184519524Y-51867676D02*
X184614762Y-51772438D01*
X184614762Y-51772438D02*
X184757619Y-51724819D01*
X184757619Y-51724819D02*
X184852857Y-51724819D01*
X184852857Y-51724819D02*
X184995714Y-51772438D01*
X184995714Y-51772438D02*
X185043333Y-51820057D01*
X185948095Y-51724819D02*
X185471905Y-51724819D01*
X185471905Y-51724819D02*
X185424286Y-52201009D01*
X185424286Y-52201009D02*
X185471905Y-52153390D01*
X185471905Y-52153390D02*
X185567143Y-52105771D01*
X185567143Y-52105771D02*
X185805238Y-52105771D01*
X185805238Y-52105771D02*
X185900476Y-52153390D01*
X185900476Y-52153390D02*
X185948095Y-52201009D01*
X185948095Y-52201009D02*
X185995714Y-52296247D01*
X185995714Y-52296247D02*
X185995714Y-52534342D01*
X185995714Y-52534342D02*
X185948095Y-52629580D01*
X185948095Y-52629580D02*
X185900476Y-52677200D01*
X185900476Y-52677200D02*
X185805238Y-52724819D01*
X185805238Y-52724819D02*
X185567143Y-52724819D01*
X185567143Y-52724819D02*
X185471905Y-52677200D01*
X185471905Y-52677200D02*
X185424286Y-52629580D01*
X158824819Y-39751904D02*
X159634342Y-39751904D01*
X159634342Y-39751904D02*
X159729580Y-39704285D01*
X159729580Y-39704285D02*
X159777200Y-39656666D01*
X159777200Y-39656666D02*
X159824819Y-39561428D01*
X159824819Y-39561428D02*
X159824819Y-39370952D01*
X159824819Y-39370952D02*
X159777200Y-39275714D01*
X159777200Y-39275714D02*
X159729580Y-39228095D01*
X159729580Y-39228095D02*
X159634342Y-39180476D01*
X159634342Y-39180476D02*
X158824819Y-39180476D01*
X159824819Y-38180476D02*
X159824819Y-38751904D01*
X159824819Y-38466190D02*
X158824819Y-38466190D01*
X158824819Y-38466190D02*
X158967676Y-38561428D01*
X158967676Y-38561428D02*
X159062914Y-38656666D01*
X159062914Y-38656666D02*
X159110533Y-38751904D01*
X162833333Y-48409580D02*
X162785714Y-48457200D01*
X162785714Y-48457200D02*
X162642857Y-48504819D01*
X162642857Y-48504819D02*
X162547619Y-48504819D01*
X162547619Y-48504819D02*
X162404762Y-48457200D01*
X162404762Y-48457200D02*
X162309524Y-48361961D01*
X162309524Y-48361961D02*
X162261905Y-48266723D01*
X162261905Y-48266723D02*
X162214286Y-48076247D01*
X162214286Y-48076247D02*
X162214286Y-47933390D01*
X162214286Y-47933390D02*
X162261905Y-47742914D01*
X162261905Y-47742914D02*
X162309524Y-47647676D01*
X162309524Y-47647676D02*
X162404762Y-47552438D01*
X162404762Y-47552438D02*
X162547619Y-47504819D01*
X162547619Y-47504819D02*
X162642857Y-47504819D01*
X162642857Y-47504819D02*
X162785714Y-47552438D01*
X162785714Y-47552438D02*
X162833333Y-47600057D01*
X163404762Y-47933390D02*
X163309524Y-47885771D01*
X163309524Y-47885771D02*
X163261905Y-47838152D01*
X163261905Y-47838152D02*
X163214286Y-47742914D01*
X163214286Y-47742914D02*
X163214286Y-47695295D01*
X163214286Y-47695295D02*
X163261905Y-47600057D01*
X163261905Y-47600057D02*
X163309524Y-47552438D01*
X163309524Y-47552438D02*
X163404762Y-47504819D01*
X163404762Y-47504819D02*
X163595238Y-47504819D01*
X163595238Y-47504819D02*
X163690476Y-47552438D01*
X163690476Y-47552438D02*
X163738095Y-47600057D01*
X163738095Y-47600057D02*
X163785714Y-47695295D01*
X163785714Y-47695295D02*
X163785714Y-47742914D01*
X163785714Y-47742914D02*
X163738095Y-47838152D01*
X163738095Y-47838152D02*
X163690476Y-47885771D01*
X163690476Y-47885771D02*
X163595238Y-47933390D01*
X163595238Y-47933390D02*
X163404762Y-47933390D01*
X163404762Y-47933390D02*
X163309524Y-47981009D01*
X163309524Y-47981009D02*
X163261905Y-48028628D01*
X163261905Y-48028628D02*
X163214286Y-48123866D01*
X163214286Y-48123866D02*
X163214286Y-48314342D01*
X163214286Y-48314342D02*
X163261905Y-48409580D01*
X163261905Y-48409580D02*
X163309524Y-48457200D01*
X163309524Y-48457200D02*
X163404762Y-48504819D01*
X163404762Y-48504819D02*
X163595238Y-48504819D01*
X163595238Y-48504819D02*
X163690476Y-48457200D01*
X163690476Y-48457200D02*
X163738095Y-48409580D01*
X163738095Y-48409580D02*
X163785714Y-48314342D01*
X163785714Y-48314342D02*
X163785714Y-48123866D01*
X163785714Y-48123866D02*
X163738095Y-48028628D01*
X163738095Y-48028628D02*
X163690476Y-47981009D01*
X163690476Y-47981009D02*
X163595238Y-47933390D01*
X204253333Y-30809580D02*
X204205714Y-30857200D01*
X204205714Y-30857200D02*
X204062857Y-30904819D01*
X204062857Y-30904819D02*
X203967619Y-30904819D01*
X203967619Y-30904819D02*
X203824762Y-30857200D01*
X203824762Y-30857200D02*
X203729524Y-30761961D01*
X203729524Y-30761961D02*
X203681905Y-30666723D01*
X203681905Y-30666723D02*
X203634286Y-30476247D01*
X203634286Y-30476247D02*
X203634286Y-30333390D01*
X203634286Y-30333390D02*
X203681905Y-30142914D01*
X203681905Y-30142914D02*
X203729524Y-30047676D01*
X203729524Y-30047676D02*
X203824762Y-29952438D01*
X203824762Y-29952438D02*
X203967619Y-29904819D01*
X203967619Y-29904819D02*
X204062857Y-29904819D01*
X204062857Y-29904819D02*
X204205714Y-29952438D01*
X204205714Y-29952438D02*
X204253333Y-30000057D01*
X204729524Y-30904819D02*
X204920000Y-30904819D01*
X204920000Y-30904819D02*
X205015238Y-30857200D01*
X205015238Y-30857200D02*
X205062857Y-30809580D01*
X205062857Y-30809580D02*
X205158095Y-30666723D01*
X205158095Y-30666723D02*
X205205714Y-30476247D01*
X205205714Y-30476247D02*
X205205714Y-30095295D01*
X205205714Y-30095295D02*
X205158095Y-30000057D01*
X205158095Y-30000057D02*
X205110476Y-29952438D01*
X205110476Y-29952438D02*
X205015238Y-29904819D01*
X205015238Y-29904819D02*
X204824762Y-29904819D01*
X204824762Y-29904819D02*
X204729524Y-29952438D01*
X204729524Y-29952438D02*
X204681905Y-30000057D01*
X204681905Y-30000057D02*
X204634286Y-30095295D01*
X204634286Y-30095295D02*
X204634286Y-30333390D01*
X204634286Y-30333390D02*
X204681905Y-30428628D01*
X204681905Y-30428628D02*
X204729524Y-30476247D01*
X204729524Y-30476247D02*
X204824762Y-30523866D01*
X204824762Y-30523866D02*
X205015238Y-30523866D01*
X205015238Y-30523866D02*
X205110476Y-30476247D01*
X205110476Y-30476247D02*
X205158095Y-30428628D01*
X205158095Y-30428628D02*
X205205714Y-30333390D01*
X232857142Y-30809580D02*
X232809523Y-30857200D01*
X232809523Y-30857200D02*
X232666666Y-30904819D01*
X232666666Y-30904819D02*
X232571428Y-30904819D01*
X232571428Y-30904819D02*
X232428571Y-30857200D01*
X232428571Y-30857200D02*
X232333333Y-30761961D01*
X232333333Y-30761961D02*
X232285714Y-30666723D01*
X232285714Y-30666723D02*
X232238095Y-30476247D01*
X232238095Y-30476247D02*
X232238095Y-30333390D01*
X232238095Y-30333390D02*
X232285714Y-30142914D01*
X232285714Y-30142914D02*
X232333333Y-30047676D01*
X232333333Y-30047676D02*
X232428571Y-29952438D01*
X232428571Y-29952438D02*
X232571428Y-29904819D01*
X232571428Y-29904819D02*
X232666666Y-29904819D01*
X232666666Y-29904819D02*
X232809523Y-29952438D01*
X232809523Y-29952438D02*
X232857142Y-30000057D01*
X233809523Y-30904819D02*
X233238095Y-30904819D01*
X233523809Y-30904819D02*
X233523809Y-29904819D01*
X233523809Y-29904819D02*
X233428571Y-30047676D01*
X233428571Y-30047676D02*
X233333333Y-30142914D01*
X233333333Y-30142914D02*
X233238095Y-30190533D01*
X234761904Y-30904819D02*
X234190476Y-30904819D01*
X234476190Y-30904819D02*
X234476190Y-29904819D01*
X234476190Y-29904819D02*
X234380952Y-30047676D01*
X234380952Y-30047676D02*
X234285714Y-30142914D01*
X234285714Y-30142914D02*
X234190476Y-30190533D01*
X247166667Y-54367200D02*
X247309524Y-54414819D01*
X247309524Y-54414819D02*
X247547619Y-54414819D01*
X247547619Y-54414819D02*
X247642857Y-54367200D01*
X247642857Y-54367200D02*
X247690476Y-54319580D01*
X247690476Y-54319580D02*
X247738095Y-54224342D01*
X247738095Y-54224342D02*
X247738095Y-54129104D01*
X247738095Y-54129104D02*
X247690476Y-54033866D01*
X247690476Y-54033866D02*
X247642857Y-53986247D01*
X247642857Y-53986247D02*
X247547619Y-53938628D01*
X247547619Y-53938628D02*
X247357143Y-53891009D01*
X247357143Y-53891009D02*
X247261905Y-53843390D01*
X247261905Y-53843390D02*
X247214286Y-53795771D01*
X247214286Y-53795771D02*
X247166667Y-53700533D01*
X247166667Y-53700533D02*
X247166667Y-53605295D01*
X247166667Y-53605295D02*
X247214286Y-53510057D01*
X247214286Y-53510057D02*
X247261905Y-53462438D01*
X247261905Y-53462438D02*
X247357143Y-53414819D01*
X247357143Y-53414819D02*
X247595238Y-53414819D01*
X247595238Y-53414819D02*
X247738095Y-53462438D01*
X248071429Y-53414819D02*
X248309524Y-54414819D01*
X248309524Y-54414819D02*
X248500000Y-53700533D01*
X248500000Y-53700533D02*
X248690476Y-54414819D01*
X248690476Y-54414819D02*
X248928572Y-53414819D01*
X249261905Y-53510057D02*
X249309524Y-53462438D01*
X249309524Y-53462438D02*
X249404762Y-53414819D01*
X249404762Y-53414819D02*
X249642857Y-53414819D01*
X249642857Y-53414819D02*
X249738095Y-53462438D01*
X249738095Y-53462438D02*
X249785714Y-53510057D01*
X249785714Y-53510057D02*
X249833333Y-53605295D01*
X249833333Y-53605295D02*
X249833333Y-53700533D01*
X249833333Y-53700533D02*
X249785714Y-53843390D01*
X249785714Y-53843390D02*
X249214286Y-54414819D01*
X249214286Y-54414819D02*
X249833333Y-54414819D01*
X192504819Y-39951904D02*
X193314342Y-39951904D01*
X193314342Y-39951904D02*
X193409580Y-39904285D01*
X193409580Y-39904285D02*
X193457200Y-39856666D01*
X193457200Y-39856666D02*
X193504819Y-39761428D01*
X193504819Y-39761428D02*
X193504819Y-39570952D01*
X193504819Y-39570952D02*
X193457200Y-39475714D01*
X193457200Y-39475714D02*
X193409580Y-39428095D01*
X193409580Y-39428095D02*
X193314342Y-39380476D01*
X193314342Y-39380476D02*
X192504819Y-39380476D01*
X192600057Y-38951904D02*
X192552438Y-38904285D01*
X192552438Y-38904285D02*
X192504819Y-38809047D01*
X192504819Y-38809047D02*
X192504819Y-38570952D01*
X192504819Y-38570952D02*
X192552438Y-38475714D01*
X192552438Y-38475714D02*
X192600057Y-38428095D01*
X192600057Y-38428095D02*
X192695295Y-38380476D01*
X192695295Y-38380476D02*
X192790533Y-38380476D01*
X192790533Y-38380476D02*
X192933390Y-38428095D01*
X192933390Y-38428095D02*
X193504819Y-38999523D01*
X193504819Y-38999523D02*
X193504819Y-38380476D01*
X255383333Y-45034819D02*
X255050000Y-44558628D01*
X254811905Y-45034819D02*
X254811905Y-44034819D01*
X254811905Y-44034819D02*
X255192857Y-44034819D01*
X255192857Y-44034819D02*
X255288095Y-44082438D01*
X255288095Y-44082438D02*
X255335714Y-44130057D01*
X255335714Y-44130057D02*
X255383333Y-44225295D01*
X255383333Y-44225295D02*
X255383333Y-44368152D01*
X255383333Y-44368152D02*
X255335714Y-44463390D01*
X255335714Y-44463390D02*
X255288095Y-44511009D01*
X255288095Y-44511009D02*
X255192857Y-44558628D01*
X255192857Y-44558628D02*
X254811905Y-44558628D01*
X255716667Y-44034819D02*
X256383333Y-44034819D01*
X256383333Y-44034819D02*
X255954762Y-45034819D01*
X157959819Y-62071904D02*
X158769342Y-62071904D01*
X158769342Y-62071904D02*
X158864580Y-62024285D01*
X158864580Y-62024285D02*
X158912200Y-61976666D01*
X158912200Y-61976666D02*
X158959819Y-61881428D01*
X158959819Y-61881428D02*
X158959819Y-61690952D01*
X158959819Y-61690952D02*
X158912200Y-61595714D01*
X158912200Y-61595714D02*
X158864580Y-61548095D01*
X158864580Y-61548095D02*
X158769342Y-61500476D01*
X158769342Y-61500476D02*
X157959819Y-61500476D01*
X158293152Y-60595714D02*
X158959819Y-60595714D01*
X157912200Y-60833809D02*
X158626485Y-61071904D01*
X158626485Y-61071904D02*
X158626485Y-60452857D01*
D12*
%TO.C,R6*%
X246800000Y-46500000D02*
X246180000Y-46500000D01*
X248640000Y-46500000D02*
G75*
G02*
X246800000Y-46500000I-920000J0D01*
G01*
X246800000Y-46500000D02*
G75*
G02*
X248640000Y-46500000I920000J0D01*
G01*
%TO.C,U6*%
X209570000Y-56170000D02*
X209570000Y-66450000D01*
X209570000Y-66450000D02*
X227590000Y-66450000D01*
X209630000Y-58660000D02*
X209630000Y-60310000D01*
X209630000Y-62310000D02*
X209630000Y-63960000D01*
X209630000Y-63960000D02*
X227530000Y-63960000D01*
X227530000Y-58660000D02*
X209630000Y-58660000D01*
X227530000Y-63960000D02*
X227530000Y-58660000D01*
X227590000Y-56170000D02*
X209570000Y-56170000D01*
X227590000Y-66450000D02*
X227590000Y-56170000D01*
X209630000Y-60310000D02*
G75*
G02*
X209630000Y-62310000I0J-1000000D01*
G01*
%TO.C,RV1*%
X253155000Y-29620000D02*
X257875000Y-29620000D01*
X253155000Y-30810000D02*
X253155000Y-29630000D01*
X253155000Y-33710000D02*
X253155000Y-33180000D01*
X253155000Y-36160000D02*
X253155000Y-35330000D01*
X253155000Y-39370000D02*
X253155000Y-37880000D01*
X253155000Y-39370000D02*
X257875000Y-39370000D01*
X261685000Y-29630000D02*
X264745000Y-29630000D01*
X261685000Y-39370000D02*
X264745000Y-39370000D01*
X264745000Y-39370000D02*
X264745000Y-29630000D01*
%TO.C,D1*%
X261935000Y-45264000D02*
X261935000Y-45420000D01*
X261935000Y-47580000D02*
X261935000Y-47736000D01*
X261935000Y-45264484D02*
G75*
G02*
X265167335Y-45421392I1560000J-1235516D01*
G01*
X262454039Y-45420000D02*
G75*
G02*
X264536130Y-45420163I1040961J-1080000D01*
G01*
X264536130Y-47579837D02*
G75*
G02*
X262454039Y-47580000I-1041130J1079837D01*
G01*
X265167335Y-47578608D02*
G75*
G02*
X261935000Y-47735516I-1672335J1078608D01*
G01*
%TO.C,U3*%
X223370000Y-36340000D02*
X223370000Y-37990000D01*
X223370000Y-39990000D02*
X223370000Y-41640000D01*
X223370000Y-41640000D02*
X233650000Y-41640000D01*
X233650000Y-36340000D02*
X223370000Y-36340000D01*
X233650000Y-41640000D02*
X233650000Y-36340000D01*
X223370000Y-37990000D02*
G75*
G02*
X223370000Y-39990000I0J-1000000D01*
G01*
%TO.C,C1*%
X159691000Y-31580000D02*
X160949000Y-31580000D01*
X159691000Y-33420000D02*
X160949000Y-33420000D01*
%TO.C,C6*%
X208831000Y-53400000D02*
X210089000Y-53400000D01*
X208831000Y-55240000D02*
X210089000Y-55240000D01*
%TO.C,R5*%
X234300000Y-46000000D02*
X233680000Y-46000000D01*
X236140000Y-46000000D02*
G75*
G02*
X234300000Y-46000000I-920000J0D01*
G01*
X234300000Y-46000000D02*
G75*
G02*
X236140000Y-46000000I920000J0D01*
G01*
%TO.C,R1*%
X175000000Y-38800000D02*
X175000000Y-38180000D01*
X175920000Y-39720000D02*
G75*
G02*
X174080000Y-39720000I-920000J0D01*
G01*
X174080000Y-39720000D02*
G75*
G02*
X175920000Y-39720000I920000J0D01*
G01*
%TO.C,R3*%
X189420000Y-38700000D02*
X189420000Y-39320000D01*
X190340000Y-37780000D02*
G75*
G02*
X188500000Y-37780000I-920000J0D01*
G01*
X188500000Y-37780000D02*
G75*
G02*
X190340000Y-37780000I920000J0D01*
G01*
%TO.C,C2*%
X193371000Y-31580000D02*
X194629000Y-31580000D01*
X193371000Y-33420000D02*
X194629000Y-33420000D01*
%TO.C,C7*%
X170121000Y-31580000D02*
X171379000Y-31580000D01*
X170121000Y-33420000D02*
X171379000Y-33420000D01*
%TO.C,C4*%
X158831000Y-53400000D02*
X160089000Y-53400000D01*
X158831000Y-55240000D02*
X160089000Y-55240000D01*
%TO.C,C10*%
X199799000Y-31580000D02*
X198541000Y-31580000D01*
X199799000Y-33420000D02*
X198541000Y-33420000D01*
%TO.C,R4*%
X201980000Y-27700000D02*
X201360000Y-27700000D01*
X203820000Y-27700000D02*
G75*
G02*
X201980000Y-27700000I-920000J0D01*
G01*
X201980000Y-27700000D02*
G75*
G02*
X203820000Y-27700000I920000J0D01*
G01*
%TO.C,J1*%
X263440000Y-56440000D02*
X264500000Y-56440000D01*
X263440000Y-57500000D02*
X263440000Y-56440000D01*
X263440000Y-58500000D02*
X263440000Y-66560000D01*
X263440000Y-58500000D02*
X265560000Y-58500000D01*
X263440000Y-66560000D02*
X265560000Y-66560000D01*
X265560000Y-58500000D02*
X265560000Y-66560000D01*
%TO.C,SW1*%
X245440000Y-63650000D02*
X245440000Y-64110000D01*
X245440000Y-64110000D02*
X244440000Y-64110000D01*
X245440000Y-66890000D02*
X245440000Y-67350000D01*
X245440000Y-67350000D02*
X251640000Y-67350000D01*
X251640000Y-63650000D02*
X245440000Y-63650000D01*
X251640000Y-63650000D02*
X251640000Y-64110000D01*
X251640000Y-66890000D02*
X251640000Y-67350000D01*
X247040000Y-64950000D02*
X249890000Y-64950000D01*
X249890000Y-66000000D01*
X247040000Y-66000000D01*
X247040000Y-64950000D01*
%TO.C,C3*%
X222871000Y-31580000D02*
X224129000Y-31580000D01*
X222871000Y-33420000D02*
X224129000Y-33420000D01*
%TO.C,U5*%
X184945000Y-56170000D02*
X184945000Y-66450000D01*
X184945000Y-66450000D02*
X202965000Y-66450000D01*
X185005000Y-58660000D02*
X185005000Y-60310000D01*
X185005000Y-62310000D02*
X185005000Y-63960000D01*
X185005000Y-63960000D02*
X202905000Y-63960000D01*
X202905000Y-58660000D02*
X185005000Y-58660000D01*
X202905000Y-63960000D02*
X202905000Y-58660000D01*
X202965000Y-56170000D02*
X184945000Y-56170000D01*
X202965000Y-66450000D02*
X202965000Y-56170000D01*
X185005000Y-60310000D02*
G75*
G02*
X185005000Y-62310000I0J-1000000D01*
G01*
%TO.C,R2*%
X180500000Y-38200000D02*
X180500000Y-38820000D01*
X181420000Y-37280000D02*
G75*
G02*
X179580000Y-37280000I-920000J0D01*
G01*
X179580000Y-37280000D02*
G75*
G02*
X181420000Y-37280000I920000J0D01*
G01*
%TO.C,C5*%
X184581000Y-53400000D02*
X185839000Y-53400000D01*
X184581000Y-55240000D02*
X185839000Y-55240000D01*
%TO.C,U1*%
X160370000Y-36340000D02*
X160370000Y-37990000D01*
X160370000Y-39990000D02*
X160370000Y-41640000D01*
X160370000Y-41640000D02*
X170650000Y-41640000D01*
X170650000Y-36340000D02*
X160370000Y-36340000D01*
X170650000Y-41640000D02*
X170650000Y-36340000D01*
X160370000Y-37990000D02*
G75*
G02*
X160370000Y-39990000I0J-1000000D01*
G01*
%TO.C,C8*%
X163629000Y-45080000D02*
X162371000Y-45080000D01*
X163629000Y-46920000D02*
X162371000Y-46920000D01*
%TO.C,C9*%
X203791000Y-31580000D02*
X205049000Y-31580000D01*
X203791000Y-33420000D02*
X205049000Y-33420000D01*
%TO.C,C11*%
X232871000Y-31580000D02*
X234129000Y-31580000D01*
X232871000Y-33420000D02*
X234129000Y-33420000D01*
%TO.C,SW2*%
X243390000Y-55140000D02*
X253610000Y-55140000D01*
X253610000Y-57860000D01*
X243390000Y-57860000D01*
X243390000Y-55140000D01*
%TO.C,U2*%
X194050000Y-36540000D02*
X194050000Y-38190000D01*
X194050000Y-40190000D02*
X194050000Y-41840000D01*
X194050000Y-41840000D02*
X204330000Y-41840000D01*
X204330000Y-36540000D02*
X194050000Y-36540000D01*
X204330000Y-41840000D02*
X204330000Y-36540000D01*
X194050000Y-38190000D02*
G75*
G02*
X194050000Y-40190000I0J-1000000D01*
G01*
%TO.C,R7*%
X255200000Y-46500000D02*
X255820000Y-46500000D01*
X255200000Y-46500000D02*
G75*
G02*
X253360000Y-46500000I-920000J0D01*
G01*
X253360000Y-46500000D02*
G75*
G02*
X255200000Y-46500000I920000J0D01*
G01*
%TO.C,U4*%
X159445000Y-56170000D02*
X159445000Y-66450000D01*
X159445000Y-66450000D02*
X177465000Y-66450000D01*
X159505000Y-58660000D02*
X159505000Y-60310000D01*
X159505000Y-62310000D02*
X159505000Y-63960000D01*
X159505000Y-63960000D02*
X177405000Y-63960000D01*
X177405000Y-58660000D02*
X159505000Y-58660000D01*
X177405000Y-63960000D02*
X177405000Y-58660000D01*
X177465000Y-56170000D02*
X159445000Y-56170000D01*
X177465000Y-66450000D02*
X177465000Y-56170000D01*
X159505000Y-60310000D02*
G75*
G02*
X159505000Y-62310000I0J-1000000D01*
G01*
%TD*%
M02*
