%TF.GenerationSoftware,KiCad,Pcbnew,8.0.2*%
%TF.CreationDate,2024-05-25T18:25:16-04:00*%
%TF.ProjectId,8bc_clock,3862635f-636c-46f6-936b-2e6b69636164,3.0*%
%TF.SameCoordinates,Original*%
%TF.FileFunction,Drillmap*%
%TF.FilePolarity,Positive*%
%FSLAX45Y45*%
G04 Gerber Fmt 4.5, Leading zero omitted, Abs format (unit mm)*
G04 Created by KiCad (PCBNEW 8.0.2) date 2024-05-25 18:25:16*
%MOMM*%
%LPD*%
G01*
G04 APERTURE LIST*
%ADD10C,0.050000*%
%ADD11C,0.200000*%
%ADD12C,0.100000*%
%ADD13C,0.110000*%
%ADD14C,0.130000*%
G04 APERTURE END LIST*
D10*
X15500000Y-2550000D02*
X26700000Y-2550000D01*
X26700000Y-7000000D01*
X15500000Y-7000000D01*
X15500000Y-2550000D01*
D11*
D12*
X16658332Y-3643000D02*
X16688332Y-3673000D01*
X16688332Y-3643000D02*
X16658332Y-3673000D01*
X17385000Y-6685000D02*
X17415000Y-6715000D01*
X17415000Y-6685000D02*
X17385000Y-6715000D01*
X20008958Y-6108958D02*
X20038958Y-6138958D01*
X20038958Y-6108958D02*
X20008958Y-6138958D01*
X20085000Y-5565000D02*
X20115000Y-5595000D01*
X20115000Y-5565000D02*
X20085000Y-5595000D01*
X21806427Y-5506427D02*
X21836427Y-5536427D01*
X21836427Y-5506427D02*
X21806427Y-5536427D01*
X17535000Y-3718000D02*
G75*
G02*
X17465000Y-3718000I-35000J0D01*
G01*
X17465000Y-3718000D02*
G75*
G02*
X17535000Y-3718000I35000J0D01*
G01*
X17535000Y-3972000D02*
G75*
G02*
X17465000Y-3972000I-35000J0D01*
G01*
X17465000Y-3972000D02*
G75*
G02*
X17535000Y-3972000I35000J0D01*
G01*
X18085000Y-3728000D02*
G75*
G02*
X18015000Y-3728000I-35000J0D01*
G01*
X18015000Y-3728000D02*
G75*
G02*
X18085000Y-3728000I35000J0D01*
G01*
X18085000Y-3982000D02*
G75*
G02*
X18015000Y-3982000I-35000J0D01*
G01*
X18015000Y-3982000D02*
G75*
G02*
X18085000Y-3982000I35000J0D01*
G01*
X18977000Y-3778000D02*
G75*
G02*
X18907000Y-3778000I-35000J0D01*
G01*
X18907000Y-3778000D02*
G75*
G02*
X18977000Y-3778000I35000J0D01*
G01*
X18977000Y-4032000D02*
G75*
G02*
X18907000Y-4032000I-35000J0D01*
G01*
X18907000Y-4032000D02*
G75*
G02*
X18977000Y-4032000I35000J0D01*
G01*
X20071000Y-2770000D02*
G75*
G02*
X20001000Y-2770000I-35000J0D01*
G01*
X20001000Y-2770000D02*
G75*
G02*
X20071000Y-2770000I35000J0D01*
G01*
X20325000Y-2770000D02*
G75*
G02*
X20255000Y-2770000I-35000J0D01*
G01*
X20255000Y-2770000D02*
G75*
G02*
X20325000Y-2770000I35000J0D01*
G01*
X23303000Y-4600000D02*
G75*
G02*
X23233000Y-4600000I-35000J0D01*
G01*
X23233000Y-4600000D02*
G75*
G02*
X23303000Y-4600000I35000J0D01*
G01*
X23557000Y-4600000D02*
G75*
G02*
X23487000Y-4600000I-35000J0D01*
G01*
X23487000Y-4600000D02*
G75*
G02*
X23557000Y-4600000I35000J0D01*
G01*
X24553000Y-4650000D02*
G75*
G02*
X24483000Y-4650000I-35000J0D01*
G01*
X24483000Y-4650000D02*
G75*
G02*
X24553000Y-4650000I35000J0D01*
G01*
X24807000Y-4650000D02*
G75*
G02*
X24737000Y-4650000I-35000J0D01*
G01*
X24737000Y-4650000D02*
G75*
G02*
X24807000Y-4650000I35000J0D01*
G01*
X25463000Y-4650000D02*
G75*
G02*
X25393000Y-4650000I-35000J0D01*
G01*
X25393000Y-4650000D02*
G75*
G02*
X25463000Y-4650000I35000J0D01*
G01*
X25717000Y-4650000D02*
G75*
G02*
X25647000Y-4650000I-35000J0D01*
G01*
X25647000Y-4650000D02*
G75*
G02*
X25717000Y-4650000I35000J0D01*
G01*
X15821000Y-5392000D02*
X15821000Y-5472000D01*
X15781000Y-5432000D02*
X15861000Y-5432000D01*
X15907000Y-3210000D02*
X15907000Y-3290000D01*
X15867000Y-3250000D02*
X15947000Y-3250000D01*
X16071000Y-5392000D02*
X16071000Y-5472000D01*
X16031000Y-5432000D02*
X16111000Y-5432000D01*
X16083500Y-5710000D02*
X16083500Y-5790000D01*
X16043500Y-5750000D02*
X16123500Y-5750000D01*
X16083500Y-6472000D02*
X16083500Y-6552000D01*
X16043500Y-6512000D02*
X16123500Y-6512000D01*
X16157000Y-3210000D02*
X16157000Y-3290000D01*
X16117000Y-3250000D02*
X16197000Y-3250000D01*
X16170000Y-3478000D02*
X16170000Y-3558000D01*
X16130000Y-3518000D02*
X16210000Y-3518000D01*
X16170000Y-4240000D02*
X16170000Y-4320000D01*
X16130000Y-4280000D02*
X16210000Y-4280000D01*
X16175000Y-4560000D02*
X16175000Y-4640000D01*
X16135000Y-4600000D02*
X16215000Y-4600000D01*
X16337500Y-5710000D02*
X16337500Y-5790000D01*
X16297500Y-5750000D02*
X16377500Y-5750000D01*
X16337500Y-6472000D02*
X16337500Y-6552000D01*
X16297500Y-6512000D02*
X16377500Y-6512000D01*
X16424000Y-3478000D02*
X16424000Y-3558000D01*
X16384000Y-3518000D02*
X16464000Y-3518000D01*
X16424000Y-4240000D02*
X16424000Y-4320000D01*
X16384000Y-4280000D02*
X16464000Y-4280000D01*
X16425000Y-4560000D02*
X16425000Y-4640000D01*
X16385000Y-4600000D02*
X16465000Y-4600000D01*
X16591500Y-5710000D02*
X16591500Y-5790000D01*
X16551500Y-5750000D02*
X16631500Y-5750000D01*
X16591500Y-6472000D02*
X16591500Y-6552000D01*
X16551500Y-6512000D02*
X16631500Y-6512000D01*
X16678000Y-3478000D02*
X16678000Y-3558000D01*
X16638000Y-3518000D02*
X16718000Y-3518000D01*
X16678000Y-4240000D02*
X16678000Y-4320000D01*
X16638000Y-4280000D02*
X16718000Y-4280000D01*
X16845500Y-5710000D02*
X16845500Y-5790000D01*
X16805500Y-5750000D02*
X16885500Y-5750000D01*
X16845500Y-6472000D02*
X16845500Y-6552000D01*
X16805500Y-6512000D02*
X16885500Y-6512000D01*
X16932000Y-3478000D02*
X16932000Y-3558000D01*
X16892000Y-3518000D02*
X16972000Y-3518000D01*
X16932000Y-4240000D02*
X16932000Y-4320000D01*
X16892000Y-4280000D02*
X16972000Y-4280000D01*
X16950000Y-3210000D02*
X16950000Y-3290000D01*
X16910000Y-3250000D02*
X16990000Y-3250000D01*
X17099500Y-5710000D02*
X17099500Y-5790000D01*
X17059500Y-5750000D02*
X17139500Y-5750000D01*
X17099500Y-6472000D02*
X17099500Y-6552000D01*
X17059500Y-6512000D02*
X17139500Y-6512000D01*
X17200000Y-3210000D02*
X17200000Y-3290000D01*
X17160000Y-3250000D02*
X17240000Y-3250000D01*
X17353500Y-5710000D02*
X17353500Y-5790000D01*
X17313500Y-5750000D02*
X17393500Y-5750000D01*
X17353500Y-6472000D02*
X17353500Y-6552000D01*
X17313500Y-6512000D02*
X17393500Y-6512000D01*
X17607500Y-5710000D02*
X17607500Y-5790000D01*
X17567500Y-5750000D02*
X17647500Y-5750000D01*
X17607500Y-6472000D02*
X17607500Y-6552000D01*
X17567500Y-6512000D02*
X17647500Y-6512000D01*
X18396000Y-5392000D02*
X18396000Y-5472000D01*
X18356000Y-5432000D02*
X18436000Y-5432000D01*
X18633500Y-5710000D02*
X18633500Y-5790000D01*
X18593500Y-5750000D02*
X18673500Y-5750000D01*
X18633500Y-6472000D02*
X18633500Y-6552000D01*
X18593500Y-6512000D02*
X18673500Y-6512000D01*
X18646000Y-5392000D02*
X18646000Y-5472000D01*
X18606000Y-5432000D02*
X18686000Y-5432000D01*
X18887500Y-5710000D02*
X18887500Y-5790000D01*
X18847500Y-5750000D02*
X18927500Y-5750000D01*
X18887500Y-6472000D02*
X18887500Y-6552000D01*
X18847500Y-6512000D02*
X18927500Y-6512000D01*
X19141500Y-5710000D02*
X19141500Y-5790000D01*
X19101500Y-5750000D02*
X19181500Y-5750000D01*
X19141500Y-6472000D02*
X19141500Y-6552000D01*
X19101500Y-6512000D02*
X19181500Y-6512000D01*
X19275000Y-3210000D02*
X19275000Y-3290000D01*
X19235000Y-3250000D02*
X19315000Y-3250000D01*
X19395500Y-5710000D02*
X19395500Y-5790000D01*
X19355500Y-5750000D02*
X19435500Y-5750000D01*
X19395500Y-6472000D02*
X19395500Y-6552000D01*
X19355500Y-6512000D02*
X19435500Y-6512000D01*
X19525000Y-3210000D02*
X19525000Y-3290000D01*
X19485000Y-3250000D02*
X19565000Y-3250000D01*
X19538000Y-3498000D02*
X19538000Y-3578000D01*
X19498000Y-3538000D02*
X19578000Y-3538000D01*
X19538000Y-4260000D02*
X19538000Y-4340000D01*
X19498000Y-4300000D02*
X19578000Y-4300000D01*
X19649500Y-5710000D02*
X19649500Y-5790000D01*
X19609500Y-5750000D02*
X19689500Y-5750000D01*
X19649500Y-6472000D02*
X19649500Y-6552000D01*
X19609500Y-6512000D02*
X19689500Y-6512000D01*
X19792000Y-3210000D02*
X19792000Y-3290000D01*
X19752000Y-3250000D02*
X19832000Y-3250000D01*
X19792000Y-3498000D02*
X19792000Y-3578000D01*
X19752000Y-3538000D02*
X19832000Y-3538000D01*
X19792000Y-4260000D02*
X19792000Y-4340000D01*
X19752000Y-4300000D02*
X19832000Y-4300000D01*
X19903500Y-5710000D02*
X19903500Y-5790000D01*
X19863500Y-5750000D02*
X19943500Y-5750000D01*
X19903500Y-6472000D02*
X19903500Y-6552000D01*
X19863500Y-6512000D02*
X19943500Y-6512000D01*
X20042000Y-3210000D02*
X20042000Y-3290000D01*
X20002000Y-3250000D02*
X20082000Y-3250000D01*
X20046000Y-3498000D02*
X20046000Y-3578000D01*
X20006000Y-3538000D02*
X20086000Y-3538000D01*
X20046000Y-4260000D02*
X20046000Y-4340000D01*
X20006000Y-4300000D02*
X20086000Y-4300000D01*
X20157500Y-5710000D02*
X20157500Y-5790000D01*
X20117500Y-5750000D02*
X20197500Y-5750000D01*
X20157500Y-6472000D02*
X20157500Y-6552000D01*
X20117500Y-6512000D02*
X20197500Y-6512000D01*
X20300000Y-3498000D02*
X20300000Y-3578000D01*
X20260000Y-3538000D02*
X20340000Y-3538000D01*
X20300000Y-4260000D02*
X20300000Y-4340000D01*
X20260000Y-4300000D02*
X20340000Y-4300000D01*
X20317000Y-3210000D02*
X20317000Y-3290000D01*
X20277000Y-3250000D02*
X20357000Y-3250000D01*
X20567000Y-3210000D02*
X20567000Y-3290000D01*
X20527000Y-3250000D02*
X20607000Y-3250000D01*
X20821000Y-5392000D02*
X20821000Y-5472000D01*
X20781000Y-5432000D02*
X20861000Y-5432000D01*
X21071000Y-5392000D02*
X21071000Y-5472000D01*
X21031000Y-5432000D02*
X21111000Y-5432000D01*
X21096000Y-5710000D02*
X21096000Y-5790000D01*
X21056000Y-5750000D02*
X21136000Y-5750000D01*
X21096000Y-6472000D02*
X21096000Y-6552000D01*
X21056000Y-6512000D02*
X21136000Y-6512000D01*
X21350000Y-5710000D02*
X21350000Y-5790000D01*
X21310000Y-5750000D02*
X21390000Y-5750000D01*
X21350000Y-6472000D02*
X21350000Y-6552000D01*
X21310000Y-6512000D02*
X21390000Y-6512000D01*
X21604000Y-5710000D02*
X21604000Y-5790000D01*
X21564000Y-5750000D02*
X21644000Y-5750000D01*
X21604000Y-6472000D02*
X21604000Y-6552000D01*
X21564000Y-6512000D02*
X21644000Y-6512000D01*
X21858000Y-5710000D02*
X21858000Y-5790000D01*
X21818000Y-5750000D02*
X21898000Y-5750000D01*
X21858000Y-6472000D02*
X21858000Y-6552000D01*
X21818000Y-6512000D02*
X21898000Y-6512000D01*
X22112000Y-5710000D02*
X22112000Y-5790000D01*
X22072000Y-5750000D02*
X22152000Y-5750000D01*
X22112000Y-6472000D02*
X22112000Y-6552000D01*
X22072000Y-6512000D02*
X22152000Y-6512000D01*
X22225000Y-3210000D02*
X22225000Y-3290000D01*
X22185000Y-3250000D02*
X22265000Y-3250000D01*
X22366000Y-5710000D02*
X22366000Y-5790000D01*
X22326000Y-5750000D02*
X22406000Y-5750000D01*
X22366000Y-6472000D02*
X22366000Y-6552000D01*
X22326000Y-6512000D02*
X22406000Y-6512000D01*
X22470000Y-3478000D02*
X22470000Y-3558000D01*
X22430000Y-3518000D02*
X22510000Y-3518000D01*
X22470000Y-4240000D02*
X22470000Y-4320000D01*
X22430000Y-4280000D02*
X22510000Y-4280000D01*
X22475000Y-3210000D02*
X22475000Y-3290000D01*
X22435000Y-3250000D02*
X22515000Y-3250000D01*
X22620000Y-5710000D02*
X22620000Y-5790000D01*
X22580000Y-5750000D02*
X22660000Y-5750000D01*
X22620000Y-6472000D02*
X22620000Y-6552000D01*
X22580000Y-6512000D02*
X22660000Y-6512000D01*
X22724000Y-3478000D02*
X22724000Y-3558000D01*
X22684000Y-3518000D02*
X22764000Y-3518000D01*
X22724000Y-4240000D02*
X22724000Y-4320000D01*
X22684000Y-4280000D02*
X22764000Y-4280000D01*
X22978000Y-3478000D02*
X22978000Y-3558000D01*
X22938000Y-3518000D02*
X23018000Y-3518000D01*
X22978000Y-4240000D02*
X22978000Y-4320000D01*
X22938000Y-4280000D02*
X23018000Y-4280000D01*
X23225000Y-3210000D02*
X23225000Y-3290000D01*
X23185000Y-3250000D02*
X23265000Y-3250000D01*
X23232000Y-3478000D02*
X23232000Y-3558000D01*
X23192000Y-3518000D02*
X23272000Y-3518000D01*
X23232000Y-4240000D02*
X23232000Y-4320000D01*
X23192000Y-4280000D02*
X23272000Y-4280000D01*
X23475000Y-3210000D02*
X23475000Y-3290000D01*
X23435000Y-3250000D02*
X23515000Y-3250000D01*
X24596000Y-5610000D02*
X24596000Y-5690000D01*
X24556000Y-5650000D02*
X24636000Y-5650000D01*
X24850000Y-5610000D02*
X24850000Y-5690000D01*
X24810000Y-5650000D02*
X24890000Y-5650000D01*
X25104000Y-5610000D02*
X25104000Y-5690000D01*
X25064000Y-5650000D02*
X25144000Y-5650000D01*
X26450000Y-5710000D02*
X26450000Y-5790000D01*
X26410000Y-5750000D02*
X26490000Y-5750000D01*
X26450000Y-5910000D02*
X26450000Y-5990000D01*
X26410000Y-5950000D02*
X26490000Y-5950000D01*
X26450000Y-6110000D02*
X26450000Y-6190000D01*
X26410000Y-6150000D02*
X26490000Y-6150000D01*
X26450000Y-6310000D02*
X26450000Y-6390000D01*
X26410000Y-6350000D02*
X26490000Y-6350000D01*
X26450000Y-6510000D02*
X26450000Y-6590000D01*
X26410000Y-6550000D02*
X26490000Y-6550000D01*
X26254320Y-4681820D02*
X26254320Y-4618180D01*
X26190680Y-4618180D01*
X26190680Y-4681820D01*
X26254320Y-4681820D01*
X26508320Y-4681820D02*
X26508320Y-4618180D01*
X26444680Y-4618180D01*
X26444680Y-4681820D01*
X26508320Y-4681820D01*
X25227500Y-3250000D02*
X25277500Y-3200000D01*
X25227500Y-3150000D01*
X25177500Y-3200000D01*
X25227500Y-3250000D01*
X25227500Y-3500000D02*
X25277500Y-3450000D01*
X25227500Y-3400000D01*
X25177500Y-3450000D01*
X25227500Y-3500000D01*
X25227500Y-3750000D02*
X25277500Y-3700000D01*
X25227500Y-3650000D01*
X25177500Y-3700000D01*
X25227500Y-3750000D01*
D13*
X25922500Y-2915000D02*
X26032500Y-3025000D01*
X26032500Y-2915000D02*
X25922500Y-3025000D01*
X26032500Y-2970000D02*
G75*
G02*
X25922500Y-2970000I-55000J0D01*
G01*
X25922500Y-2970000D02*
G75*
G02*
X26032500Y-2970000I55000J0D01*
G01*
D12*
X25942500Y-3025000D02*
X26012500Y-3025000D01*
X26012500Y-2915000D02*
G75*
G02*
X26012500Y-3025000I0J-55000D01*
G01*
X26012500Y-2915000D02*
X25942500Y-2915000D01*
X25942500Y-2915000D02*
G75*
G03*
X25942500Y-3025000I0J-55000D01*
G01*
D13*
X25922500Y-3875000D02*
X26032500Y-3985000D01*
X26032500Y-3875000D02*
X25922500Y-3985000D01*
X26032500Y-3930000D02*
G75*
G02*
X25922500Y-3930000I-55000J0D01*
G01*
X25922500Y-3930000D02*
G75*
G02*
X26032500Y-3930000I55000J0D01*
G01*
D12*
X25942500Y-3985000D02*
X26012500Y-3985000D01*
X26012500Y-3875000D02*
G75*
G02*
X26012500Y-3985000I0J-55000D01*
G01*
X26012500Y-3875000D02*
X25942500Y-3875000D01*
X25942500Y-3875000D02*
G75*
G03*
X25942500Y-3985000I0J-55000D01*
G01*
D14*
X24464000Y-6485000D02*
X24594000Y-6615000D01*
X24594000Y-6485000D02*
X24464000Y-6615000D01*
X24529000Y-6485000D02*
X24529000Y-6615000D01*
X24464000Y-6550000D02*
X24594000Y-6550000D01*
X25114000Y-6485000D02*
X25244000Y-6615000D01*
X25244000Y-6485000D02*
X25114000Y-6615000D01*
X25179000Y-6485000D02*
X25179000Y-6615000D01*
X25114000Y-6550000D02*
X25244000Y-6550000D01*
D11*
X15758277Y-7313984D02*
X15758277Y-7113984D01*
X15758277Y-7113984D02*
X15805896Y-7113984D01*
X15805896Y-7113984D02*
X15834467Y-7123508D01*
X15834467Y-7123508D02*
X15853515Y-7142555D01*
X15853515Y-7142555D02*
X15863039Y-7161603D01*
X15863039Y-7161603D02*
X15872562Y-7199698D01*
X15872562Y-7199698D02*
X15872562Y-7228269D01*
X15872562Y-7228269D02*
X15863039Y-7266365D01*
X15863039Y-7266365D02*
X15853515Y-7285412D01*
X15853515Y-7285412D02*
X15834467Y-7304460D01*
X15834467Y-7304460D02*
X15805896Y-7313984D01*
X15805896Y-7313984D02*
X15758277Y-7313984D01*
X15958277Y-7313984D02*
X15958277Y-7180650D01*
X15958277Y-7218746D02*
X15967801Y-7199698D01*
X15967801Y-7199698D02*
X15977324Y-7190174D01*
X15977324Y-7190174D02*
X15996372Y-7180650D01*
X15996372Y-7180650D02*
X16015420Y-7180650D01*
X16082086Y-7313984D02*
X16082086Y-7180650D01*
X16082086Y-7113984D02*
X16072562Y-7123508D01*
X16072562Y-7123508D02*
X16082086Y-7133031D01*
X16082086Y-7133031D02*
X16091610Y-7123508D01*
X16091610Y-7123508D02*
X16082086Y-7113984D01*
X16082086Y-7113984D02*
X16082086Y-7133031D01*
X16205896Y-7313984D02*
X16186848Y-7304460D01*
X16186848Y-7304460D02*
X16177324Y-7285412D01*
X16177324Y-7285412D02*
X16177324Y-7113984D01*
X16310658Y-7313984D02*
X16291610Y-7304460D01*
X16291610Y-7304460D02*
X16282086Y-7285412D01*
X16282086Y-7285412D02*
X16282086Y-7113984D01*
X16539229Y-7313984D02*
X16539229Y-7113984D01*
X16539229Y-7113984D02*
X16605896Y-7256841D01*
X16605896Y-7256841D02*
X16672562Y-7113984D01*
X16672562Y-7113984D02*
X16672562Y-7313984D01*
X16853515Y-7313984D02*
X16853515Y-7209222D01*
X16853515Y-7209222D02*
X16843991Y-7190174D01*
X16843991Y-7190174D02*
X16824944Y-7180650D01*
X16824944Y-7180650D02*
X16786848Y-7180650D01*
X16786848Y-7180650D02*
X16767801Y-7190174D01*
X16853515Y-7304460D02*
X16834467Y-7313984D01*
X16834467Y-7313984D02*
X16786848Y-7313984D01*
X16786848Y-7313984D02*
X16767801Y-7304460D01*
X16767801Y-7304460D02*
X16758277Y-7285412D01*
X16758277Y-7285412D02*
X16758277Y-7266365D01*
X16758277Y-7266365D02*
X16767801Y-7247317D01*
X16767801Y-7247317D02*
X16786848Y-7237793D01*
X16786848Y-7237793D02*
X16834467Y-7237793D01*
X16834467Y-7237793D02*
X16853515Y-7228269D01*
X16948753Y-7180650D02*
X16948753Y-7380650D01*
X16948753Y-7190174D02*
X16967801Y-7180650D01*
X16967801Y-7180650D02*
X17005896Y-7180650D01*
X17005896Y-7180650D02*
X17024944Y-7190174D01*
X17024944Y-7190174D02*
X17034467Y-7199698D01*
X17034467Y-7199698D02*
X17043991Y-7218746D01*
X17043991Y-7218746D02*
X17043991Y-7275888D01*
X17043991Y-7275888D02*
X17034467Y-7294936D01*
X17034467Y-7294936D02*
X17024944Y-7304460D01*
X17024944Y-7304460D02*
X17005896Y-7313984D01*
X17005896Y-7313984D02*
X16967801Y-7313984D01*
X16967801Y-7313984D02*
X16948753Y-7304460D01*
X17129705Y-7294936D02*
X17139229Y-7304460D01*
X17139229Y-7304460D02*
X17129705Y-7313984D01*
X17129705Y-7313984D02*
X17120182Y-7304460D01*
X17120182Y-7304460D02*
X17129705Y-7294936D01*
X17129705Y-7294936D02*
X17129705Y-7313984D01*
X17129705Y-7190174D02*
X17139229Y-7199698D01*
X17139229Y-7199698D02*
X17129705Y-7209222D01*
X17129705Y-7209222D02*
X17120182Y-7199698D01*
X17120182Y-7199698D02*
X17129705Y-7190174D01*
X17129705Y-7190174D02*
X17129705Y-7209222D01*
D12*
X15467500Y-7627500D02*
X15497500Y-7657500D01*
X15497500Y-7627500D02*
X15467500Y-7657500D01*
D11*
X15796372Y-7533984D02*
X15815420Y-7533984D01*
X15815420Y-7533984D02*
X15834467Y-7543508D01*
X15834467Y-7543508D02*
X15843991Y-7553031D01*
X15843991Y-7553031D02*
X15853515Y-7572079D01*
X15853515Y-7572079D02*
X15863039Y-7610174D01*
X15863039Y-7610174D02*
X15863039Y-7657793D01*
X15863039Y-7657793D02*
X15853515Y-7695888D01*
X15853515Y-7695888D02*
X15843991Y-7714936D01*
X15843991Y-7714936D02*
X15834467Y-7724460D01*
X15834467Y-7724460D02*
X15815420Y-7733984D01*
X15815420Y-7733984D02*
X15796372Y-7733984D01*
X15796372Y-7733984D02*
X15777324Y-7724460D01*
X15777324Y-7724460D02*
X15767801Y-7714936D01*
X15767801Y-7714936D02*
X15758277Y-7695888D01*
X15758277Y-7695888D02*
X15748753Y-7657793D01*
X15748753Y-7657793D02*
X15748753Y-7610174D01*
X15748753Y-7610174D02*
X15758277Y-7572079D01*
X15758277Y-7572079D02*
X15767801Y-7553031D01*
X15767801Y-7553031D02*
X15777324Y-7543508D01*
X15777324Y-7543508D02*
X15796372Y-7533984D01*
X15948753Y-7714936D02*
X15958277Y-7724460D01*
X15958277Y-7724460D02*
X15948753Y-7733984D01*
X15948753Y-7733984D02*
X15939229Y-7724460D01*
X15939229Y-7724460D02*
X15948753Y-7714936D01*
X15948753Y-7714936D02*
X15948753Y-7733984D01*
X16024943Y-7533984D02*
X16148753Y-7533984D01*
X16148753Y-7533984D02*
X16082086Y-7610174D01*
X16082086Y-7610174D02*
X16110658Y-7610174D01*
X16110658Y-7610174D02*
X16129705Y-7619698D01*
X16129705Y-7619698D02*
X16139229Y-7629222D01*
X16139229Y-7629222D02*
X16148753Y-7648269D01*
X16148753Y-7648269D02*
X16148753Y-7695888D01*
X16148753Y-7695888D02*
X16139229Y-7714936D01*
X16139229Y-7714936D02*
X16129705Y-7724460D01*
X16129705Y-7724460D02*
X16110658Y-7733984D01*
X16110658Y-7733984D02*
X16053515Y-7733984D01*
X16053515Y-7733984D02*
X16034467Y-7724460D01*
X16034467Y-7724460D02*
X16024943Y-7714936D01*
X16272562Y-7533984D02*
X16291610Y-7533984D01*
X16291610Y-7533984D02*
X16310658Y-7543508D01*
X16310658Y-7543508D02*
X16320182Y-7553031D01*
X16320182Y-7553031D02*
X16329705Y-7572079D01*
X16329705Y-7572079D02*
X16339229Y-7610174D01*
X16339229Y-7610174D02*
X16339229Y-7657793D01*
X16339229Y-7657793D02*
X16329705Y-7695888D01*
X16329705Y-7695888D02*
X16320182Y-7714936D01*
X16320182Y-7714936D02*
X16310658Y-7724460D01*
X16310658Y-7724460D02*
X16291610Y-7733984D01*
X16291610Y-7733984D02*
X16272562Y-7733984D01*
X16272562Y-7733984D02*
X16253515Y-7724460D01*
X16253515Y-7724460D02*
X16243991Y-7714936D01*
X16243991Y-7714936D02*
X16234467Y-7695888D01*
X16234467Y-7695888D02*
X16224943Y-7657793D01*
X16224943Y-7657793D02*
X16224943Y-7610174D01*
X16224943Y-7610174D02*
X16234467Y-7572079D01*
X16234467Y-7572079D02*
X16243991Y-7553031D01*
X16243991Y-7553031D02*
X16253515Y-7543508D01*
X16253515Y-7543508D02*
X16272562Y-7533984D01*
X16463039Y-7533984D02*
X16482086Y-7533984D01*
X16482086Y-7533984D02*
X16501134Y-7543508D01*
X16501134Y-7543508D02*
X16510658Y-7553031D01*
X16510658Y-7553031D02*
X16520182Y-7572079D01*
X16520182Y-7572079D02*
X16529705Y-7610174D01*
X16529705Y-7610174D02*
X16529705Y-7657793D01*
X16529705Y-7657793D02*
X16520182Y-7695888D01*
X16520182Y-7695888D02*
X16510658Y-7714936D01*
X16510658Y-7714936D02*
X16501134Y-7724460D01*
X16501134Y-7724460D02*
X16482086Y-7733984D01*
X16482086Y-7733984D02*
X16463039Y-7733984D01*
X16463039Y-7733984D02*
X16443991Y-7724460D01*
X16443991Y-7724460D02*
X16434467Y-7714936D01*
X16434467Y-7714936D02*
X16424943Y-7695888D01*
X16424943Y-7695888D02*
X16415420Y-7657793D01*
X16415420Y-7657793D02*
X16415420Y-7610174D01*
X16415420Y-7610174D02*
X16424943Y-7572079D01*
X16424943Y-7572079D02*
X16434467Y-7553031D01*
X16434467Y-7553031D02*
X16443991Y-7543508D01*
X16443991Y-7543508D02*
X16463039Y-7533984D01*
X16615420Y-7733984D02*
X16615420Y-7600650D01*
X16615420Y-7619698D02*
X16624943Y-7610174D01*
X16624943Y-7610174D02*
X16643991Y-7600650D01*
X16643991Y-7600650D02*
X16672563Y-7600650D01*
X16672563Y-7600650D02*
X16691610Y-7610174D01*
X16691610Y-7610174D02*
X16701134Y-7629222D01*
X16701134Y-7629222D02*
X16701134Y-7733984D01*
X16701134Y-7629222D02*
X16710658Y-7610174D01*
X16710658Y-7610174D02*
X16729705Y-7600650D01*
X16729705Y-7600650D02*
X16758277Y-7600650D01*
X16758277Y-7600650D02*
X16777325Y-7610174D01*
X16777325Y-7610174D02*
X16786848Y-7629222D01*
X16786848Y-7629222D02*
X16786848Y-7733984D01*
X16882086Y-7733984D02*
X16882086Y-7600650D01*
X16882086Y-7619698D02*
X16891610Y-7610174D01*
X16891610Y-7610174D02*
X16910658Y-7600650D01*
X16910658Y-7600650D02*
X16939229Y-7600650D01*
X16939229Y-7600650D02*
X16958277Y-7610174D01*
X16958277Y-7610174D02*
X16967801Y-7629222D01*
X16967801Y-7629222D02*
X16967801Y-7733984D01*
X16967801Y-7629222D02*
X16977325Y-7610174D01*
X16977325Y-7610174D02*
X16996372Y-7600650D01*
X16996372Y-7600650D02*
X17024944Y-7600650D01*
X17024944Y-7600650D02*
X17043991Y-7610174D01*
X17043991Y-7610174D02*
X17053515Y-7629222D01*
X17053515Y-7629222D02*
X17053515Y-7733984D01*
X17443991Y-7524460D02*
X17272563Y-7781603D01*
X17701134Y-7533984D02*
X17720182Y-7533984D01*
X17720182Y-7533984D02*
X17739229Y-7543508D01*
X17739229Y-7543508D02*
X17748753Y-7553031D01*
X17748753Y-7553031D02*
X17758277Y-7572079D01*
X17758277Y-7572079D02*
X17767801Y-7610174D01*
X17767801Y-7610174D02*
X17767801Y-7657793D01*
X17767801Y-7657793D02*
X17758277Y-7695888D01*
X17758277Y-7695888D02*
X17748753Y-7714936D01*
X17748753Y-7714936D02*
X17739229Y-7724460D01*
X17739229Y-7724460D02*
X17720182Y-7733984D01*
X17720182Y-7733984D02*
X17701134Y-7733984D01*
X17701134Y-7733984D02*
X17682087Y-7724460D01*
X17682087Y-7724460D02*
X17672563Y-7714936D01*
X17672563Y-7714936D02*
X17663039Y-7695888D01*
X17663039Y-7695888D02*
X17653515Y-7657793D01*
X17653515Y-7657793D02*
X17653515Y-7610174D01*
X17653515Y-7610174D02*
X17663039Y-7572079D01*
X17663039Y-7572079D02*
X17672563Y-7553031D01*
X17672563Y-7553031D02*
X17682087Y-7543508D01*
X17682087Y-7543508D02*
X17701134Y-7533984D01*
X17853515Y-7714936D02*
X17863039Y-7724460D01*
X17863039Y-7724460D02*
X17853515Y-7733984D01*
X17853515Y-7733984D02*
X17843991Y-7724460D01*
X17843991Y-7724460D02*
X17853515Y-7714936D01*
X17853515Y-7714936D02*
X17853515Y-7733984D01*
X17986848Y-7533984D02*
X18005896Y-7533984D01*
X18005896Y-7533984D02*
X18024944Y-7543508D01*
X18024944Y-7543508D02*
X18034468Y-7553031D01*
X18034468Y-7553031D02*
X18043991Y-7572079D01*
X18043991Y-7572079D02*
X18053515Y-7610174D01*
X18053515Y-7610174D02*
X18053515Y-7657793D01*
X18053515Y-7657793D02*
X18043991Y-7695888D01*
X18043991Y-7695888D02*
X18034468Y-7714936D01*
X18034468Y-7714936D02*
X18024944Y-7724460D01*
X18024944Y-7724460D02*
X18005896Y-7733984D01*
X18005896Y-7733984D02*
X17986848Y-7733984D01*
X17986848Y-7733984D02*
X17967801Y-7724460D01*
X17967801Y-7724460D02*
X17958277Y-7714936D01*
X17958277Y-7714936D02*
X17948753Y-7695888D01*
X17948753Y-7695888D02*
X17939229Y-7657793D01*
X17939229Y-7657793D02*
X17939229Y-7610174D01*
X17939229Y-7610174D02*
X17948753Y-7572079D01*
X17948753Y-7572079D02*
X17958277Y-7553031D01*
X17958277Y-7553031D02*
X17967801Y-7543508D01*
X17967801Y-7543508D02*
X17986848Y-7533984D01*
X18243991Y-7733984D02*
X18129706Y-7733984D01*
X18186848Y-7733984D02*
X18186848Y-7533984D01*
X18186848Y-7533984D02*
X18167801Y-7562555D01*
X18167801Y-7562555D02*
X18148753Y-7581603D01*
X18148753Y-7581603D02*
X18129706Y-7591127D01*
X18434468Y-7733984D02*
X18320182Y-7733984D01*
X18377325Y-7733984D02*
X18377325Y-7533984D01*
X18377325Y-7533984D02*
X18358277Y-7562555D01*
X18358277Y-7562555D02*
X18339229Y-7581603D01*
X18339229Y-7581603D02*
X18320182Y-7591127D01*
X18548753Y-7619698D02*
X18529706Y-7610174D01*
X18529706Y-7610174D02*
X18520182Y-7600650D01*
X18520182Y-7600650D02*
X18510658Y-7581603D01*
X18510658Y-7581603D02*
X18510658Y-7572079D01*
X18510658Y-7572079D02*
X18520182Y-7553031D01*
X18520182Y-7553031D02*
X18529706Y-7543508D01*
X18529706Y-7543508D02*
X18548753Y-7533984D01*
X18548753Y-7533984D02*
X18586849Y-7533984D01*
X18586849Y-7533984D02*
X18605896Y-7543508D01*
X18605896Y-7543508D02*
X18615420Y-7553031D01*
X18615420Y-7553031D02*
X18624944Y-7572079D01*
X18624944Y-7572079D02*
X18624944Y-7581603D01*
X18624944Y-7581603D02*
X18615420Y-7600650D01*
X18615420Y-7600650D02*
X18605896Y-7610174D01*
X18605896Y-7610174D02*
X18586849Y-7619698D01*
X18586849Y-7619698D02*
X18548753Y-7619698D01*
X18548753Y-7619698D02*
X18529706Y-7629222D01*
X18529706Y-7629222D02*
X18520182Y-7638746D01*
X18520182Y-7638746D02*
X18510658Y-7657793D01*
X18510658Y-7657793D02*
X18510658Y-7695888D01*
X18510658Y-7695888D02*
X18520182Y-7714936D01*
X18520182Y-7714936D02*
X18529706Y-7724460D01*
X18529706Y-7724460D02*
X18548753Y-7733984D01*
X18548753Y-7733984D02*
X18586849Y-7733984D01*
X18586849Y-7733984D02*
X18605896Y-7724460D01*
X18605896Y-7724460D02*
X18615420Y-7714936D01*
X18615420Y-7714936D02*
X18624944Y-7695888D01*
X18624944Y-7695888D02*
X18624944Y-7657793D01*
X18624944Y-7657793D02*
X18615420Y-7638746D01*
X18615420Y-7638746D02*
X18605896Y-7629222D01*
X18605896Y-7629222D02*
X18586849Y-7619698D01*
X18701134Y-7533984D02*
X18701134Y-7572079D01*
X18777325Y-7533984D02*
X18777325Y-7572079D01*
X19072563Y-7810174D02*
X19063039Y-7800650D01*
X19063039Y-7800650D02*
X19043991Y-7772079D01*
X19043991Y-7772079D02*
X19034468Y-7753031D01*
X19034468Y-7753031D02*
X19024944Y-7724460D01*
X19024944Y-7724460D02*
X19015420Y-7676841D01*
X19015420Y-7676841D02*
X19015420Y-7638746D01*
X19015420Y-7638746D02*
X19024944Y-7591127D01*
X19024944Y-7591127D02*
X19034468Y-7562555D01*
X19034468Y-7562555D02*
X19043991Y-7543508D01*
X19043991Y-7543508D02*
X19063039Y-7514936D01*
X19063039Y-7514936D02*
X19072563Y-7505412D01*
X19243991Y-7533984D02*
X19148753Y-7533984D01*
X19148753Y-7533984D02*
X19139230Y-7629222D01*
X19139230Y-7629222D02*
X19148753Y-7619698D01*
X19148753Y-7619698D02*
X19167801Y-7610174D01*
X19167801Y-7610174D02*
X19215420Y-7610174D01*
X19215420Y-7610174D02*
X19234468Y-7619698D01*
X19234468Y-7619698D02*
X19243991Y-7629222D01*
X19243991Y-7629222D02*
X19253515Y-7648269D01*
X19253515Y-7648269D02*
X19253515Y-7695888D01*
X19253515Y-7695888D02*
X19243991Y-7714936D01*
X19243991Y-7714936D02*
X19234468Y-7724460D01*
X19234468Y-7724460D02*
X19215420Y-7733984D01*
X19215420Y-7733984D02*
X19167801Y-7733984D01*
X19167801Y-7733984D02*
X19148753Y-7724460D01*
X19148753Y-7724460D02*
X19139230Y-7714936D01*
X19491611Y-7733984D02*
X19491611Y-7533984D01*
X19577325Y-7733984D02*
X19577325Y-7629222D01*
X19577325Y-7629222D02*
X19567801Y-7610174D01*
X19567801Y-7610174D02*
X19548753Y-7600650D01*
X19548753Y-7600650D02*
X19520182Y-7600650D01*
X19520182Y-7600650D02*
X19501134Y-7610174D01*
X19501134Y-7610174D02*
X19491611Y-7619698D01*
X19701134Y-7733984D02*
X19682087Y-7724460D01*
X19682087Y-7724460D02*
X19672563Y-7714936D01*
X19672563Y-7714936D02*
X19663039Y-7695888D01*
X19663039Y-7695888D02*
X19663039Y-7638746D01*
X19663039Y-7638746D02*
X19672563Y-7619698D01*
X19672563Y-7619698D02*
X19682087Y-7610174D01*
X19682087Y-7610174D02*
X19701134Y-7600650D01*
X19701134Y-7600650D02*
X19729706Y-7600650D01*
X19729706Y-7600650D02*
X19748753Y-7610174D01*
X19748753Y-7610174D02*
X19758277Y-7619698D01*
X19758277Y-7619698D02*
X19767801Y-7638746D01*
X19767801Y-7638746D02*
X19767801Y-7695888D01*
X19767801Y-7695888D02*
X19758277Y-7714936D01*
X19758277Y-7714936D02*
X19748753Y-7724460D01*
X19748753Y-7724460D02*
X19729706Y-7733984D01*
X19729706Y-7733984D02*
X19701134Y-7733984D01*
X19882087Y-7733984D02*
X19863039Y-7724460D01*
X19863039Y-7724460D02*
X19853515Y-7705412D01*
X19853515Y-7705412D02*
X19853515Y-7533984D01*
X20034468Y-7724460D02*
X20015420Y-7733984D01*
X20015420Y-7733984D02*
X19977325Y-7733984D01*
X19977325Y-7733984D02*
X19958277Y-7724460D01*
X19958277Y-7724460D02*
X19948753Y-7705412D01*
X19948753Y-7705412D02*
X19948753Y-7629222D01*
X19948753Y-7629222D02*
X19958277Y-7610174D01*
X19958277Y-7610174D02*
X19977325Y-7600650D01*
X19977325Y-7600650D02*
X20015420Y-7600650D01*
X20015420Y-7600650D02*
X20034468Y-7610174D01*
X20034468Y-7610174D02*
X20043992Y-7629222D01*
X20043992Y-7629222D02*
X20043992Y-7648269D01*
X20043992Y-7648269D02*
X19948753Y-7667317D01*
X20120182Y-7724460D02*
X20139230Y-7733984D01*
X20139230Y-7733984D02*
X20177325Y-7733984D01*
X20177325Y-7733984D02*
X20196373Y-7724460D01*
X20196373Y-7724460D02*
X20205896Y-7705412D01*
X20205896Y-7705412D02*
X20205896Y-7695888D01*
X20205896Y-7695888D02*
X20196373Y-7676841D01*
X20196373Y-7676841D02*
X20177325Y-7667317D01*
X20177325Y-7667317D02*
X20148753Y-7667317D01*
X20148753Y-7667317D02*
X20129706Y-7657793D01*
X20129706Y-7657793D02*
X20120182Y-7638746D01*
X20120182Y-7638746D02*
X20120182Y-7629222D01*
X20120182Y-7629222D02*
X20129706Y-7610174D01*
X20129706Y-7610174D02*
X20148753Y-7600650D01*
X20148753Y-7600650D02*
X20177325Y-7600650D01*
X20177325Y-7600650D02*
X20196373Y-7610174D01*
X20272563Y-7810174D02*
X20282087Y-7800650D01*
X20282087Y-7800650D02*
X20301134Y-7772079D01*
X20301134Y-7772079D02*
X20310658Y-7753031D01*
X20310658Y-7753031D02*
X20320182Y-7724460D01*
X20320182Y-7724460D02*
X20329706Y-7676841D01*
X20329706Y-7676841D02*
X20329706Y-7638746D01*
X20329706Y-7638746D02*
X20320182Y-7591127D01*
X20320182Y-7591127D02*
X20310658Y-7562555D01*
X20310658Y-7562555D02*
X20301134Y-7543508D01*
X20301134Y-7543508D02*
X20282087Y-7514936D01*
X20282087Y-7514936D02*
X20272563Y-7505412D01*
D12*
X15497500Y-7906500D02*
G75*
G02*
X15427500Y-7906500I-35000J0D01*
G01*
X15427500Y-7906500D02*
G75*
G02*
X15497500Y-7906500I35000J0D01*
G01*
D11*
X15796372Y-7797984D02*
X15815420Y-7797984D01*
X15815420Y-7797984D02*
X15834467Y-7807508D01*
X15834467Y-7807508D02*
X15843991Y-7817031D01*
X15843991Y-7817031D02*
X15853515Y-7836079D01*
X15853515Y-7836079D02*
X15863039Y-7874174D01*
X15863039Y-7874174D02*
X15863039Y-7921793D01*
X15863039Y-7921793D02*
X15853515Y-7959888D01*
X15853515Y-7959888D02*
X15843991Y-7978936D01*
X15843991Y-7978936D02*
X15834467Y-7988460D01*
X15834467Y-7988460D02*
X15815420Y-7997984D01*
X15815420Y-7997984D02*
X15796372Y-7997984D01*
X15796372Y-7997984D02*
X15777324Y-7988460D01*
X15777324Y-7988460D02*
X15767801Y-7978936D01*
X15767801Y-7978936D02*
X15758277Y-7959888D01*
X15758277Y-7959888D02*
X15748753Y-7921793D01*
X15748753Y-7921793D02*
X15748753Y-7874174D01*
X15748753Y-7874174D02*
X15758277Y-7836079D01*
X15758277Y-7836079D02*
X15767801Y-7817031D01*
X15767801Y-7817031D02*
X15777324Y-7807508D01*
X15777324Y-7807508D02*
X15796372Y-7797984D01*
X15948753Y-7978936D02*
X15958277Y-7988460D01*
X15958277Y-7988460D02*
X15948753Y-7997984D01*
X15948753Y-7997984D02*
X15939229Y-7988460D01*
X15939229Y-7988460D02*
X15948753Y-7978936D01*
X15948753Y-7978936D02*
X15948753Y-7997984D01*
X16024943Y-7797984D02*
X16158277Y-7797984D01*
X16158277Y-7797984D02*
X16072562Y-7997984D01*
X16272562Y-7797984D02*
X16291610Y-7797984D01*
X16291610Y-7797984D02*
X16310658Y-7807508D01*
X16310658Y-7807508D02*
X16320182Y-7817031D01*
X16320182Y-7817031D02*
X16329705Y-7836079D01*
X16329705Y-7836079D02*
X16339229Y-7874174D01*
X16339229Y-7874174D02*
X16339229Y-7921793D01*
X16339229Y-7921793D02*
X16329705Y-7959888D01*
X16329705Y-7959888D02*
X16320182Y-7978936D01*
X16320182Y-7978936D02*
X16310658Y-7988460D01*
X16310658Y-7988460D02*
X16291610Y-7997984D01*
X16291610Y-7997984D02*
X16272562Y-7997984D01*
X16272562Y-7997984D02*
X16253515Y-7988460D01*
X16253515Y-7988460D02*
X16243991Y-7978936D01*
X16243991Y-7978936D02*
X16234467Y-7959888D01*
X16234467Y-7959888D02*
X16224943Y-7921793D01*
X16224943Y-7921793D02*
X16224943Y-7874174D01*
X16224943Y-7874174D02*
X16234467Y-7836079D01*
X16234467Y-7836079D02*
X16243991Y-7817031D01*
X16243991Y-7817031D02*
X16253515Y-7807508D01*
X16253515Y-7807508D02*
X16272562Y-7797984D01*
X16463039Y-7797984D02*
X16482086Y-7797984D01*
X16482086Y-7797984D02*
X16501134Y-7807508D01*
X16501134Y-7807508D02*
X16510658Y-7817031D01*
X16510658Y-7817031D02*
X16520182Y-7836079D01*
X16520182Y-7836079D02*
X16529705Y-7874174D01*
X16529705Y-7874174D02*
X16529705Y-7921793D01*
X16529705Y-7921793D02*
X16520182Y-7959888D01*
X16520182Y-7959888D02*
X16510658Y-7978936D01*
X16510658Y-7978936D02*
X16501134Y-7988460D01*
X16501134Y-7988460D02*
X16482086Y-7997984D01*
X16482086Y-7997984D02*
X16463039Y-7997984D01*
X16463039Y-7997984D02*
X16443991Y-7988460D01*
X16443991Y-7988460D02*
X16434467Y-7978936D01*
X16434467Y-7978936D02*
X16424943Y-7959888D01*
X16424943Y-7959888D02*
X16415420Y-7921793D01*
X16415420Y-7921793D02*
X16415420Y-7874174D01*
X16415420Y-7874174D02*
X16424943Y-7836079D01*
X16424943Y-7836079D02*
X16434467Y-7817031D01*
X16434467Y-7817031D02*
X16443991Y-7807508D01*
X16443991Y-7807508D02*
X16463039Y-7797984D01*
X16615420Y-7997984D02*
X16615420Y-7864650D01*
X16615420Y-7883698D02*
X16624943Y-7874174D01*
X16624943Y-7874174D02*
X16643991Y-7864650D01*
X16643991Y-7864650D02*
X16672563Y-7864650D01*
X16672563Y-7864650D02*
X16691610Y-7874174D01*
X16691610Y-7874174D02*
X16701134Y-7893222D01*
X16701134Y-7893222D02*
X16701134Y-7997984D01*
X16701134Y-7893222D02*
X16710658Y-7874174D01*
X16710658Y-7874174D02*
X16729705Y-7864650D01*
X16729705Y-7864650D02*
X16758277Y-7864650D01*
X16758277Y-7864650D02*
X16777325Y-7874174D01*
X16777325Y-7874174D02*
X16786848Y-7893222D01*
X16786848Y-7893222D02*
X16786848Y-7997984D01*
X16882086Y-7997984D02*
X16882086Y-7864650D01*
X16882086Y-7883698D02*
X16891610Y-7874174D01*
X16891610Y-7874174D02*
X16910658Y-7864650D01*
X16910658Y-7864650D02*
X16939229Y-7864650D01*
X16939229Y-7864650D02*
X16958277Y-7874174D01*
X16958277Y-7874174D02*
X16967801Y-7893222D01*
X16967801Y-7893222D02*
X16967801Y-7997984D01*
X16967801Y-7893222D02*
X16977325Y-7874174D01*
X16977325Y-7874174D02*
X16996372Y-7864650D01*
X16996372Y-7864650D02*
X17024944Y-7864650D01*
X17024944Y-7864650D02*
X17043991Y-7874174D01*
X17043991Y-7874174D02*
X17053515Y-7893222D01*
X17053515Y-7893222D02*
X17053515Y-7997984D01*
X17443991Y-7788460D02*
X17272563Y-8045603D01*
X17701134Y-7797984D02*
X17720182Y-7797984D01*
X17720182Y-7797984D02*
X17739229Y-7807508D01*
X17739229Y-7807508D02*
X17748753Y-7817031D01*
X17748753Y-7817031D02*
X17758277Y-7836079D01*
X17758277Y-7836079D02*
X17767801Y-7874174D01*
X17767801Y-7874174D02*
X17767801Y-7921793D01*
X17767801Y-7921793D02*
X17758277Y-7959888D01*
X17758277Y-7959888D02*
X17748753Y-7978936D01*
X17748753Y-7978936D02*
X17739229Y-7988460D01*
X17739229Y-7988460D02*
X17720182Y-7997984D01*
X17720182Y-7997984D02*
X17701134Y-7997984D01*
X17701134Y-7997984D02*
X17682087Y-7988460D01*
X17682087Y-7988460D02*
X17672563Y-7978936D01*
X17672563Y-7978936D02*
X17663039Y-7959888D01*
X17663039Y-7959888D02*
X17653515Y-7921793D01*
X17653515Y-7921793D02*
X17653515Y-7874174D01*
X17653515Y-7874174D02*
X17663039Y-7836079D01*
X17663039Y-7836079D02*
X17672563Y-7817031D01*
X17672563Y-7817031D02*
X17682087Y-7807508D01*
X17682087Y-7807508D02*
X17701134Y-7797984D01*
X17853515Y-7978936D02*
X17863039Y-7988460D01*
X17863039Y-7988460D02*
X17853515Y-7997984D01*
X17853515Y-7997984D02*
X17843991Y-7988460D01*
X17843991Y-7988460D02*
X17853515Y-7978936D01*
X17853515Y-7978936D02*
X17853515Y-7997984D01*
X17986848Y-7797984D02*
X18005896Y-7797984D01*
X18005896Y-7797984D02*
X18024944Y-7807508D01*
X18024944Y-7807508D02*
X18034468Y-7817031D01*
X18034468Y-7817031D02*
X18043991Y-7836079D01*
X18043991Y-7836079D02*
X18053515Y-7874174D01*
X18053515Y-7874174D02*
X18053515Y-7921793D01*
X18053515Y-7921793D02*
X18043991Y-7959888D01*
X18043991Y-7959888D02*
X18034468Y-7978936D01*
X18034468Y-7978936D02*
X18024944Y-7988460D01*
X18024944Y-7988460D02*
X18005896Y-7997984D01*
X18005896Y-7997984D02*
X17986848Y-7997984D01*
X17986848Y-7997984D02*
X17967801Y-7988460D01*
X17967801Y-7988460D02*
X17958277Y-7978936D01*
X17958277Y-7978936D02*
X17948753Y-7959888D01*
X17948753Y-7959888D02*
X17939229Y-7921793D01*
X17939229Y-7921793D02*
X17939229Y-7874174D01*
X17939229Y-7874174D02*
X17948753Y-7836079D01*
X17948753Y-7836079D02*
X17958277Y-7817031D01*
X17958277Y-7817031D02*
X17967801Y-7807508D01*
X17967801Y-7807508D02*
X17986848Y-7797984D01*
X18129706Y-7817031D02*
X18139229Y-7807508D01*
X18139229Y-7807508D02*
X18158277Y-7797984D01*
X18158277Y-7797984D02*
X18205896Y-7797984D01*
X18205896Y-7797984D02*
X18224944Y-7807508D01*
X18224944Y-7807508D02*
X18234468Y-7817031D01*
X18234468Y-7817031D02*
X18243991Y-7836079D01*
X18243991Y-7836079D02*
X18243991Y-7855127D01*
X18243991Y-7855127D02*
X18234468Y-7883698D01*
X18234468Y-7883698D02*
X18120182Y-7997984D01*
X18120182Y-7997984D02*
X18243991Y-7997984D01*
X18310658Y-7797984D02*
X18443991Y-7797984D01*
X18443991Y-7797984D02*
X18358277Y-7997984D01*
X18605896Y-7797984D02*
X18567801Y-7797984D01*
X18567801Y-7797984D02*
X18548753Y-7807508D01*
X18548753Y-7807508D02*
X18539229Y-7817031D01*
X18539229Y-7817031D02*
X18520182Y-7845603D01*
X18520182Y-7845603D02*
X18510658Y-7883698D01*
X18510658Y-7883698D02*
X18510658Y-7959888D01*
X18510658Y-7959888D02*
X18520182Y-7978936D01*
X18520182Y-7978936D02*
X18529706Y-7988460D01*
X18529706Y-7988460D02*
X18548753Y-7997984D01*
X18548753Y-7997984D02*
X18586849Y-7997984D01*
X18586849Y-7997984D02*
X18605896Y-7988460D01*
X18605896Y-7988460D02*
X18615420Y-7978936D01*
X18615420Y-7978936D02*
X18624944Y-7959888D01*
X18624944Y-7959888D02*
X18624944Y-7912269D01*
X18624944Y-7912269D02*
X18615420Y-7893222D01*
X18615420Y-7893222D02*
X18605896Y-7883698D01*
X18605896Y-7883698D02*
X18586849Y-7874174D01*
X18586849Y-7874174D02*
X18548753Y-7874174D01*
X18548753Y-7874174D02*
X18529706Y-7883698D01*
X18529706Y-7883698D02*
X18520182Y-7893222D01*
X18520182Y-7893222D02*
X18510658Y-7912269D01*
X18701134Y-7797984D02*
X18701134Y-7836079D01*
X18777325Y-7797984D02*
X18777325Y-7836079D01*
X19072563Y-8074174D02*
X19063039Y-8064650D01*
X19063039Y-8064650D02*
X19043991Y-8036079D01*
X19043991Y-8036079D02*
X19034468Y-8017031D01*
X19034468Y-8017031D02*
X19024944Y-7988460D01*
X19024944Y-7988460D02*
X19015420Y-7940841D01*
X19015420Y-7940841D02*
X19015420Y-7902746D01*
X19015420Y-7902746D02*
X19024944Y-7855127D01*
X19024944Y-7855127D02*
X19034468Y-7826555D01*
X19034468Y-7826555D02*
X19043991Y-7807508D01*
X19043991Y-7807508D02*
X19063039Y-7778936D01*
X19063039Y-7778936D02*
X19072563Y-7769412D01*
X19253515Y-7997984D02*
X19139230Y-7997984D01*
X19196372Y-7997984D02*
X19196372Y-7797984D01*
X19196372Y-7797984D02*
X19177325Y-7826555D01*
X19177325Y-7826555D02*
X19158277Y-7845603D01*
X19158277Y-7845603D02*
X19139230Y-7855127D01*
X19424944Y-7864650D02*
X19424944Y-7997984D01*
X19377325Y-7788460D02*
X19329706Y-7931317D01*
X19329706Y-7931317D02*
X19453515Y-7931317D01*
X19682087Y-7997984D02*
X19682087Y-7797984D01*
X19767801Y-7997984D02*
X19767801Y-7893222D01*
X19767801Y-7893222D02*
X19758277Y-7874174D01*
X19758277Y-7874174D02*
X19739230Y-7864650D01*
X19739230Y-7864650D02*
X19710658Y-7864650D01*
X19710658Y-7864650D02*
X19691611Y-7874174D01*
X19691611Y-7874174D02*
X19682087Y-7883698D01*
X19891611Y-7997984D02*
X19872563Y-7988460D01*
X19872563Y-7988460D02*
X19863039Y-7978936D01*
X19863039Y-7978936D02*
X19853515Y-7959888D01*
X19853515Y-7959888D02*
X19853515Y-7902746D01*
X19853515Y-7902746D02*
X19863039Y-7883698D01*
X19863039Y-7883698D02*
X19872563Y-7874174D01*
X19872563Y-7874174D02*
X19891611Y-7864650D01*
X19891611Y-7864650D02*
X19920182Y-7864650D01*
X19920182Y-7864650D02*
X19939230Y-7874174D01*
X19939230Y-7874174D02*
X19948753Y-7883698D01*
X19948753Y-7883698D02*
X19958277Y-7902746D01*
X19958277Y-7902746D02*
X19958277Y-7959888D01*
X19958277Y-7959888D02*
X19948753Y-7978936D01*
X19948753Y-7978936D02*
X19939230Y-7988460D01*
X19939230Y-7988460D02*
X19920182Y-7997984D01*
X19920182Y-7997984D02*
X19891611Y-7997984D01*
X20072563Y-7997984D02*
X20053515Y-7988460D01*
X20053515Y-7988460D02*
X20043992Y-7969412D01*
X20043992Y-7969412D02*
X20043992Y-7797984D01*
X20224944Y-7988460D02*
X20205896Y-7997984D01*
X20205896Y-7997984D02*
X20167801Y-7997984D01*
X20167801Y-7997984D02*
X20148753Y-7988460D01*
X20148753Y-7988460D02*
X20139230Y-7969412D01*
X20139230Y-7969412D02*
X20139230Y-7893222D01*
X20139230Y-7893222D02*
X20148753Y-7874174D01*
X20148753Y-7874174D02*
X20167801Y-7864650D01*
X20167801Y-7864650D02*
X20205896Y-7864650D01*
X20205896Y-7864650D02*
X20224944Y-7874174D01*
X20224944Y-7874174D02*
X20234468Y-7893222D01*
X20234468Y-7893222D02*
X20234468Y-7912269D01*
X20234468Y-7912269D02*
X20139230Y-7931317D01*
X20310658Y-7988460D02*
X20329706Y-7997984D01*
X20329706Y-7997984D02*
X20367801Y-7997984D01*
X20367801Y-7997984D02*
X20386849Y-7988460D01*
X20386849Y-7988460D02*
X20396373Y-7969412D01*
X20396373Y-7969412D02*
X20396373Y-7959888D01*
X20396373Y-7959888D02*
X20386849Y-7940841D01*
X20386849Y-7940841D02*
X20367801Y-7931317D01*
X20367801Y-7931317D02*
X20339230Y-7931317D01*
X20339230Y-7931317D02*
X20320182Y-7921793D01*
X20320182Y-7921793D02*
X20310658Y-7902746D01*
X20310658Y-7902746D02*
X20310658Y-7893222D01*
X20310658Y-7893222D02*
X20320182Y-7874174D01*
X20320182Y-7874174D02*
X20339230Y-7864650D01*
X20339230Y-7864650D02*
X20367801Y-7864650D01*
X20367801Y-7864650D02*
X20386849Y-7874174D01*
X20463039Y-8074174D02*
X20472563Y-8064650D01*
X20472563Y-8064650D02*
X20491611Y-8036079D01*
X20491611Y-8036079D02*
X20501134Y-8017031D01*
X20501134Y-8017031D02*
X20510658Y-7988460D01*
X20510658Y-7988460D02*
X20520182Y-7940841D01*
X20520182Y-7940841D02*
X20520182Y-7902746D01*
X20520182Y-7902746D02*
X20510658Y-7855127D01*
X20510658Y-7855127D02*
X20501134Y-7826555D01*
X20501134Y-7826555D02*
X20491611Y-7807508D01*
X20491611Y-7807508D02*
X20472563Y-7778936D01*
X20472563Y-7778936D02*
X20463039Y-7769412D01*
D12*
X15457500Y-8130500D02*
X15457500Y-8210500D01*
X15417500Y-8170500D02*
X15497500Y-8170500D01*
D11*
X15796372Y-8061984D02*
X15815420Y-8061984D01*
X15815420Y-8061984D02*
X15834467Y-8071508D01*
X15834467Y-8071508D02*
X15843991Y-8081031D01*
X15843991Y-8081031D02*
X15853515Y-8100079D01*
X15853515Y-8100079D02*
X15863039Y-8138174D01*
X15863039Y-8138174D02*
X15863039Y-8185793D01*
X15863039Y-8185793D02*
X15853515Y-8223888D01*
X15853515Y-8223888D02*
X15843991Y-8242936D01*
X15843991Y-8242936D02*
X15834467Y-8252460D01*
X15834467Y-8252460D02*
X15815420Y-8261984D01*
X15815420Y-8261984D02*
X15796372Y-8261984D01*
X15796372Y-8261984D02*
X15777324Y-8252460D01*
X15777324Y-8252460D02*
X15767801Y-8242936D01*
X15767801Y-8242936D02*
X15758277Y-8223888D01*
X15758277Y-8223888D02*
X15748753Y-8185793D01*
X15748753Y-8185793D02*
X15748753Y-8138174D01*
X15748753Y-8138174D02*
X15758277Y-8100079D01*
X15758277Y-8100079D02*
X15767801Y-8081031D01*
X15767801Y-8081031D02*
X15777324Y-8071508D01*
X15777324Y-8071508D02*
X15796372Y-8061984D01*
X15948753Y-8242936D02*
X15958277Y-8252460D01*
X15958277Y-8252460D02*
X15948753Y-8261984D01*
X15948753Y-8261984D02*
X15939229Y-8252460D01*
X15939229Y-8252460D02*
X15948753Y-8242936D01*
X15948753Y-8242936D02*
X15948753Y-8261984D01*
X16072562Y-8147698D02*
X16053515Y-8138174D01*
X16053515Y-8138174D02*
X16043991Y-8128650D01*
X16043991Y-8128650D02*
X16034467Y-8109603D01*
X16034467Y-8109603D02*
X16034467Y-8100079D01*
X16034467Y-8100079D02*
X16043991Y-8081031D01*
X16043991Y-8081031D02*
X16053515Y-8071508D01*
X16053515Y-8071508D02*
X16072562Y-8061984D01*
X16072562Y-8061984D02*
X16110658Y-8061984D01*
X16110658Y-8061984D02*
X16129705Y-8071508D01*
X16129705Y-8071508D02*
X16139229Y-8081031D01*
X16139229Y-8081031D02*
X16148753Y-8100079D01*
X16148753Y-8100079D02*
X16148753Y-8109603D01*
X16148753Y-8109603D02*
X16139229Y-8128650D01*
X16139229Y-8128650D02*
X16129705Y-8138174D01*
X16129705Y-8138174D02*
X16110658Y-8147698D01*
X16110658Y-8147698D02*
X16072562Y-8147698D01*
X16072562Y-8147698D02*
X16053515Y-8157222D01*
X16053515Y-8157222D02*
X16043991Y-8166746D01*
X16043991Y-8166746D02*
X16034467Y-8185793D01*
X16034467Y-8185793D02*
X16034467Y-8223888D01*
X16034467Y-8223888D02*
X16043991Y-8242936D01*
X16043991Y-8242936D02*
X16053515Y-8252460D01*
X16053515Y-8252460D02*
X16072562Y-8261984D01*
X16072562Y-8261984D02*
X16110658Y-8261984D01*
X16110658Y-8261984D02*
X16129705Y-8252460D01*
X16129705Y-8252460D02*
X16139229Y-8242936D01*
X16139229Y-8242936D02*
X16148753Y-8223888D01*
X16148753Y-8223888D02*
X16148753Y-8185793D01*
X16148753Y-8185793D02*
X16139229Y-8166746D01*
X16139229Y-8166746D02*
X16129705Y-8157222D01*
X16129705Y-8157222D02*
X16110658Y-8147698D01*
X16272562Y-8061984D02*
X16291610Y-8061984D01*
X16291610Y-8061984D02*
X16310658Y-8071508D01*
X16310658Y-8071508D02*
X16320182Y-8081031D01*
X16320182Y-8081031D02*
X16329705Y-8100079D01*
X16329705Y-8100079D02*
X16339229Y-8138174D01*
X16339229Y-8138174D02*
X16339229Y-8185793D01*
X16339229Y-8185793D02*
X16329705Y-8223888D01*
X16329705Y-8223888D02*
X16320182Y-8242936D01*
X16320182Y-8242936D02*
X16310658Y-8252460D01*
X16310658Y-8252460D02*
X16291610Y-8261984D01*
X16291610Y-8261984D02*
X16272562Y-8261984D01*
X16272562Y-8261984D02*
X16253515Y-8252460D01*
X16253515Y-8252460D02*
X16243991Y-8242936D01*
X16243991Y-8242936D02*
X16234467Y-8223888D01*
X16234467Y-8223888D02*
X16224943Y-8185793D01*
X16224943Y-8185793D02*
X16224943Y-8138174D01*
X16224943Y-8138174D02*
X16234467Y-8100079D01*
X16234467Y-8100079D02*
X16243991Y-8081031D01*
X16243991Y-8081031D02*
X16253515Y-8071508D01*
X16253515Y-8071508D02*
X16272562Y-8061984D01*
X16463039Y-8061984D02*
X16482086Y-8061984D01*
X16482086Y-8061984D02*
X16501134Y-8071508D01*
X16501134Y-8071508D02*
X16510658Y-8081031D01*
X16510658Y-8081031D02*
X16520182Y-8100079D01*
X16520182Y-8100079D02*
X16529705Y-8138174D01*
X16529705Y-8138174D02*
X16529705Y-8185793D01*
X16529705Y-8185793D02*
X16520182Y-8223888D01*
X16520182Y-8223888D02*
X16510658Y-8242936D01*
X16510658Y-8242936D02*
X16501134Y-8252460D01*
X16501134Y-8252460D02*
X16482086Y-8261984D01*
X16482086Y-8261984D02*
X16463039Y-8261984D01*
X16463039Y-8261984D02*
X16443991Y-8252460D01*
X16443991Y-8252460D02*
X16434467Y-8242936D01*
X16434467Y-8242936D02*
X16424943Y-8223888D01*
X16424943Y-8223888D02*
X16415420Y-8185793D01*
X16415420Y-8185793D02*
X16415420Y-8138174D01*
X16415420Y-8138174D02*
X16424943Y-8100079D01*
X16424943Y-8100079D02*
X16434467Y-8081031D01*
X16434467Y-8081031D02*
X16443991Y-8071508D01*
X16443991Y-8071508D02*
X16463039Y-8061984D01*
X16615420Y-8261984D02*
X16615420Y-8128650D01*
X16615420Y-8147698D02*
X16624943Y-8138174D01*
X16624943Y-8138174D02*
X16643991Y-8128650D01*
X16643991Y-8128650D02*
X16672563Y-8128650D01*
X16672563Y-8128650D02*
X16691610Y-8138174D01*
X16691610Y-8138174D02*
X16701134Y-8157222D01*
X16701134Y-8157222D02*
X16701134Y-8261984D01*
X16701134Y-8157222D02*
X16710658Y-8138174D01*
X16710658Y-8138174D02*
X16729705Y-8128650D01*
X16729705Y-8128650D02*
X16758277Y-8128650D01*
X16758277Y-8128650D02*
X16777325Y-8138174D01*
X16777325Y-8138174D02*
X16786848Y-8157222D01*
X16786848Y-8157222D02*
X16786848Y-8261984D01*
X16882086Y-8261984D02*
X16882086Y-8128650D01*
X16882086Y-8147698D02*
X16891610Y-8138174D01*
X16891610Y-8138174D02*
X16910658Y-8128650D01*
X16910658Y-8128650D02*
X16939229Y-8128650D01*
X16939229Y-8128650D02*
X16958277Y-8138174D01*
X16958277Y-8138174D02*
X16967801Y-8157222D01*
X16967801Y-8157222D02*
X16967801Y-8261984D01*
X16967801Y-8157222D02*
X16977325Y-8138174D01*
X16977325Y-8138174D02*
X16996372Y-8128650D01*
X16996372Y-8128650D02*
X17024944Y-8128650D01*
X17024944Y-8128650D02*
X17043991Y-8138174D01*
X17043991Y-8138174D02*
X17053515Y-8157222D01*
X17053515Y-8157222D02*
X17053515Y-8261984D01*
X17443991Y-8052460D02*
X17272563Y-8309603D01*
X17701134Y-8061984D02*
X17720182Y-8061984D01*
X17720182Y-8061984D02*
X17739229Y-8071508D01*
X17739229Y-8071508D02*
X17748753Y-8081031D01*
X17748753Y-8081031D02*
X17758277Y-8100079D01*
X17758277Y-8100079D02*
X17767801Y-8138174D01*
X17767801Y-8138174D02*
X17767801Y-8185793D01*
X17767801Y-8185793D02*
X17758277Y-8223888D01*
X17758277Y-8223888D02*
X17748753Y-8242936D01*
X17748753Y-8242936D02*
X17739229Y-8252460D01*
X17739229Y-8252460D02*
X17720182Y-8261984D01*
X17720182Y-8261984D02*
X17701134Y-8261984D01*
X17701134Y-8261984D02*
X17682087Y-8252460D01*
X17682087Y-8252460D02*
X17672563Y-8242936D01*
X17672563Y-8242936D02*
X17663039Y-8223888D01*
X17663039Y-8223888D02*
X17653515Y-8185793D01*
X17653515Y-8185793D02*
X17653515Y-8138174D01*
X17653515Y-8138174D02*
X17663039Y-8100079D01*
X17663039Y-8100079D02*
X17672563Y-8081031D01*
X17672563Y-8081031D02*
X17682087Y-8071508D01*
X17682087Y-8071508D02*
X17701134Y-8061984D01*
X17853515Y-8242936D02*
X17863039Y-8252460D01*
X17863039Y-8252460D02*
X17853515Y-8261984D01*
X17853515Y-8261984D02*
X17843991Y-8252460D01*
X17843991Y-8252460D02*
X17853515Y-8242936D01*
X17853515Y-8242936D02*
X17853515Y-8261984D01*
X17986848Y-8061984D02*
X18005896Y-8061984D01*
X18005896Y-8061984D02*
X18024944Y-8071508D01*
X18024944Y-8071508D02*
X18034468Y-8081031D01*
X18034468Y-8081031D02*
X18043991Y-8100079D01*
X18043991Y-8100079D02*
X18053515Y-8138174D01*
X18053515Y-8138174D02*
X18053515Y-8185793D01*
X18053515Y-8185793D02*
X18043991Y-8223888D01*
X18043991Y-8223888D02*
X18034468Y-8242936D01*
X18034468Y-8242936D02*
X18024944Y-8252460D01*
X18024944Y-8252460D02*
X18005896Y-8261984D01*
X18005896Y-8261984D02*
X17986848Y-8261984D01*
X17986848Y-8261984D02*
X17967801Y-8252460D01*
X17967801Y-8252460D02*
X17958277Y-8242936D01*
X17958277Y-8242936D02*
X17948753Y-8223888D01*
X17948753Y-8223888D02*
X17939229Y-8185793D01*
X17939229Y-8185793D02*
X17939229Y-8138174D01*
X17939229Y-8138174D02*
X17948753Y-8100079D01*
X17948753Y-8100079D02*
X17958277Y-8081031D01*
X17958277Y-8081031D02*
X17967801Y-8071508D01*
X17967801Y-8071508D02*
X17986848Y-8061984D01*
X18120182Y-8061984D02*
X18243991Y-8061984D01*
X18243991Y-8061984D02*
X18177325Y-8138174D01*
X18177325Y-8138174D02*
X18205896Y-8138174D01*
X18205896Y-8138174D02*
X18224944Y-8147698D01*
X18224944Y-8147698D02*
X18234468Y-8157222D01*
X18234468Y-8157222D02*
X18243991Y-8176269D01*
X18243991Y-8176269D02*
X18243991Y-8223888D01*
X18243991Y-8223888D02*
X18234468Y-8242936D01*
X18234468Y-8242936D02*
X18224944Y-8252460D01*
X18224944Y-8252460D02*
X18205896Y-8261984D01*
X18205896Y-8261984D02*
X18148753Y-8261984D01*
X18148753Y-8261984D02*
X18129706Y-8252460D01*
X18129706Y-8252460D02*
X18120182Y-8242936D01*
X18434468Y-8261984D02*
X18320182Y-8261984D01*
X18377325Y-8261984D02*
X18377325Y-8061984D01*
X18377325Y-8061984D02*
X18358277Y-8090555D01*
X18358277Y-8090555D02*
X18339229Y-8109603D01*
X18339229Y-8109603D02*
X18320182Y-8119127D01*
X18615420Y-8061984D02*
X18520182Y-8061984D01*
X18520182Y-8061984D02*
X18510658Y-8157222D01*
X18510658Y-8157222D02*
X18520182Y-8147698D01*
X18520182Y-8147698D02*
X18539229Y-8138174D01*
X18539229Y-8138174D02*
X18586849Y-8138174D01*
X18586849Y-8138174D02*
X18605896Y-8147698D01*
X18605896Y-8147698D02*
X18615420Y-8157222D01*
X18615420Y-8157222D02*
X18624944Y-8176269D01*
X18624944Y-8176269D02*
X18624944Y-8223888D01*
X18624944Y-8223888D02*
X18615420Y-8242936D01*
X18615420Y-8242936D02*
X18605896Y-8252460D01*
X18605896Y-8252460D02*
X18586849Y-8261984D01*
X18586849Y-8261984D02*
X18539229Y-8261984D01*
X18539229Y-8261984D02*
X18520182Y-8252460D01*
X18520182Y-8252460D02*
X18510658Y-8242936D01*
X18701134Y-8061984D02*
X18701134Y-8100079D01*
X18777325Y-8061984D02*
X18777325Y-8100079D01*
X19072563Y-8338174D02*
X19063039Y-8328650D01*
X19063039Y-8328650D02*
X19043991Y-8300079D01*
X19043991Y-8300079D02*
X19034468Y-8281031D01*
X19034468Y-8281031D02*
X19024944Y-8252460D01*
X19024944Y-8252460D02*
X19015420Y-8204841D01*
X19015420Y-8204841D02*
X19015420Y-8166746D01*
X19015420Y-8166746D02*
X19024944Y-8119127D01*
X19024944Y-8119127D02*
X19034468Y-8090555D01*
X19034468Y-8090555D02*
X19043991Y-8071508D01*
X19043991Y-8071508D02*
X19063039Y-8042936D01*
X19063039Y-8042936D02*
X19072563Y-8033412D01*
X19158277Y-8261984D02*
X19196372Y-8261984D01*
X19196372Y-8261984D02*
X19215420Y-8252460D01*
X19215420Y-8252460D02*
X19224944Y-8242936D01*
X19224944Y-8242936D02*
X19243991Y-8214365D01*
X19243991Y-8214365D02*
X19253515Y-8176269D01*
X19253515Y-8176269D02*
X19253515Y-8100079D01*
X19253515Y-8100079D02*
X19243991Y-8081031D01*
X19243991Y-8081031D02*
X19234468Y-8071508D01*
X19234468Y-8071508D02*
X19215420Y-8061984D01*
X19215420Y-8061984D02*
X19177325Y-8061984D01*
X19177325Y-8061984D02*
X19158277Y-8071508D01*
X19158277Y-8071508D02*
X19148753Y-8081031D01*
X19148753Y-8081031D02*
X19139230Y-8100079D01*
X19139230Y-8100079D02*
X19139230Y-8147698D01*
X19139230Y-8147698D02*
X19148753Y-8166746D01*
X19148753Y-8166746D02*
X19158277Y-8176269D01*
X19158277Y-8176269D02*
X19177325Y-8185793D01*
X19177325Y-8185793D02*
X19215420Y-8185793D01*
X19215420Y-8185793D02*
X19234468Y-8176269D01*
X19234468Y-8176269D02*
X19243991Y-8166746D01*
X19243991Y-8166746D02*
X19253515Y-8147698D01*
X19424944Y-8061984D02*
X19386849Y-8061984D01*
X19386849Y-8061984D02*
X19367801Y-8071508D01*
X19367801Y-8071508D02*
X19358277Y-8081031D01*
X19358277Y-8081031D02*
X19339230Y-8109603D01*
X19339230Y-8109603D02*
X19329706Y-8147698D01*
X19329706Y-8147698D02*
X19329706Y-8223888D01*
X19329706Y-8223888D02*
X19339230Y-8242936D01*
X19339230Y-8242936D02*
X19348753Y-8252460D01*
X19348753Y-8252460D02*
X19367801Y-8261984D01*
X19367801Y-8261984D02*
X19405896Y-8261984D01*
X19405896Y-8261984D02*
X19424944Y-8252460D01*
X19424944Y-8252460D02*
X19434468Y-8242936D01*
X19434468Y-8242936D02*
X19443991Y-8223888D01*
X19443991Y-8223888D02*
X19443991Y-8176269D01*
X19443991Y-8176269D02*
X19434468Y-8157222D01*
X19434468Y-8157222D02*
X19424944Y-8147698D01*
X19424944Y-8147698D02*
X19405896Y-8138174D01*
X19405896Y-8138174D02*
X19367801Y-8138174D01*
X19367801Y-8138174D02*
X19348753Y-8147698D01*
X19348753Y-8147698D02*
X19339230Y-8157222D01*
X19339230Y-8157222D02*
X19329706Y-8176269D01*
X19682087Y-8261984D02*
X19682087Y-8061984D01*
X19767801Y-8261984D02*
X19767801Y-8157222D01*
X19767801Y-8157222D02*
X19758277Y-8138174D01*
X19758277Y-8138174D02*
X19739230Y-8128650D01*
X19739230Y-8128650D02*
X19710658Y-8128650D01*
X19710658Y-8128650D02*
X19691611Y-8138174D01*
X19691611Y-8138174D02*
X19682087Y-8147698D01*
X19891611Y-8261984D02*
X19872563Y-8252460D01*
X19872563Y-8252460D02*
X19863039Y-8242936D01*
X19863039Y-8242936D02*
X19853515Y-8223888D01*
X19853515Y-8223888D02*
X19853515Y-8166746D01*
X19853515Y-8166746D02*
X19863039Y-8147698D01*
X19863039Y-8147698D02*
X19872563Y-8138174D01*
X19872563Y-8138174D02*
X19891611Y-8128650D01*
X19891611Y-8128650D02*
X19920182Y-8128650D01*
X19920182Y-8128650D02*
X19939230Y-8138174D01*
X19939230Y-8138174D02*
X19948753Y-8147698D01*
X19948753Y-8147698D02*
X19958277Y-8166746D01*
X19958277Y-8166746D02*
X19958277Y-8223888D01*
X19958277Y-8223888D02*
X19948753Y-8242936D01*
X19948753Y-8242936D02*
X19939230Y-8252460D01*
X19939230Y-8252460D02*
X19920182Y-8261984D01*
X19920182Y-8261984D02*
X19891611Y-8261984D01*
X20072563Y-8261984D02*
X20053515Y-8252460D01*
X20053515Y-8252460D02*
X20043992Y-8233412D01*
X20043992Y-8233412D02*
X20043992Y-8061984D01*
X20224944Y-8252460D02*
X20205896Y-8261984D01*
X20205896Y-8261984D02*
X20167801Y-8261984D01*
X20167801Y-8261984D02*
X20148753Y-8252460D01*
X20148753Y-8252460D02*
X20139230Y-8233412D01*
X20139230Y-8233412D02*
X20139230Y-8157222D01*
X20139230Y-8157222D02*
X20148753Y-8138174D01*
X20148753Y-8138174D02*
X20167801Y-8128650D01*
X20167801Y-8128650D02*
X20205896Y-8128650D01*
X20205896Y-8128650D02*
X20224944Y-8138174D01*
X20224944Y-8138174D02*
X20234468Y-8157222D01*
X20234468Y-8157222D02*
X20234468Y-8176269D01*
X20234468Y-8176269D02*
X20139230Y-8195317D01*
X20310658Y-8252460D02*
X20329706Y-8261984D01*
X20329706Y-8261984D02*
X20367801Y-8261984D01*
X20367801Y-8261984D02*
X20386849Y-8252460D01*
X20386849Y-8252460D02*
X20396373Y-8233412D01*
X20396373Y-8233412D02*
X20396373Y-8223888D01*
X20396373Y-8223888D02*
X20386849Y-8204841D01*
X20386849Y-8204841D02*
X20367801Y-8195317D01*
X20367801Y-8195317D02*
X20339230Y-8195317D01*
X20339230Y-8195317D02*
X20320182Y-8185793D01*
X20320182Y-8185793D02*
X20310658Y-8166746D01*
X20310658Y-8166746D02*
X20310658Y-8157222D01*
X20310658Y-8157222D02*
X20320182Y-8138174D01*
X20320182Y-8138174D02*
X20339230Y-8128650D01*
X20339230Y-8128650D02*
X20367801Y-8128650D01*
X20367801Y-8128650D02*
X20386849Y-8138174D01*
X20463039Y-8338174D02*
X20472563Y-8328650D01*
X20472563Y-8328650D02*
X20491611Y-8300079D01*
X20491611Y-8300079D02*
X20501134Y-8281031D01*
X20501134Y-8281031D02*
X20510658Y-8252460D01*
X20510658Y-8252460D02*
X20520182Y-8204841D01*
X20520182Y-8204841D02*
X20520182Y-8166746D01*
X20520182Y-8166746D02*
X20510658Y-8119127D01*
X20510658Y-8119127D02*
X20501134Y-8090555D01*
X20501134Y-8090555D02*
X20491611Y-8071508D01*
X20491611Y-8071508D02*
X20472563Y-8042936D01*
X20472563Y-8042936D02*
X20463039Y-8033412D01*
D12*
X15484320Y-8466320D02*
X15484320Y-8402680D01*
X15420680Y-8402680D01*
X15420680Y-8466320D01*
X15484320Y-8466320D01*
D11*
X15796372Y-8325984D02*
X15815420Y-8325984D01*
X15815420Y-8325984D02*
X15834467Y-8335508D01*
X15834467Y-8335508D02*
X15843991Y-8345031D01*
X15843991Y-8345031D02*
X15853515Y-8364079D01*
X15853515Y-8364079D02*
X15863039Y-8402174D01*
X15863039Y-8402174D02*
X15863039Y-8449793D01*
X15863039Y-8449793D02*
X15853515Y-8487889D01*
X15853515Y-8487889D02*
X15843991Y-8506936D01*
X15843991Y-8506936D02*
X15834467Y-8516460D01*
X15834467Y-8516460D02*
X15815420Y-8525984D01*
X15815420Y-8525984D02*
X15796372Y-8525984D01*
X15796372Y-8525984D02*
X15777324Y-8516460D01*
X15777324Y-8516460D02*
X15767801Y-8506936D01*
X15767801Y-8506936D02*
X15758277Y-8487889D01*
X15758277Y-8487889D02*
X15748753Y-8449793D01*
X15748753Y-8449793D02*
X15748753Y-8402174D01*
X15748753Y-8402174D02*
X15758277Y-8364079D01*
X15758277Y-8364079D02*
X15767801Y-8345031D01*
X15767801Y-8345031D02*
X15777324Y-8335508D01*
X15777324Y-8335508D02*
X15796372Y-8325984D01*
X15948753Y-8506936D02*
X15958277Y-8516460D01*
X15958277Y-8516460D02*
X15948753Y-8525984D01*
X15948753Y-8525984D02*
X15939229Y-8516460D01*
X15939229Y-8516460D02*
X15948753Y-8506936D01*
X15948753Y-8506936D02*
X15948753Y-8525984D01*
X16053515Y-8525984D02*
X16091610Y-8525984D01*
X16091610Y-8525984D02*
X16110658Y-8516460D01*
X16110658Y-8516460D02*
X16120182Y-8506936D01*
X16120182Y-8506936D02*
X16139229Y-8478365D01*
X16139229Y-8478365D02*
X16148753Y-8440270D01*
X16148753Y-8440270D02*
X16148753Y-8364079D01*
X16148753Y-8364079D02*
X16139229Y-8345031D01*
X16139229Y-8345031D02*
X16129705Y-8335508D01*
X16129705Y-8335508D02*
X16110658Y-8325984D01*
X16110658Y-8325984D02*
X16072562Y-8325984D01*
X16072562Y-8325984D02*
X16053515Y-8335508D01*
X16053515Y-8335508D02*
X16043991Y-8345031D01*
X16043991Y-8345031D02*
X16034467Y-8364079D01*
X16034467Y-8364079D02*
X16034467Y-8411698D01*
X16034467Y-8411698D02*
X16043991Y-8430746D01*
X16043991Y-8430746D02*
X16053515Y-8440270D01*
X16053515Y-8440270D02*
X16072562Y-8449793D01*
X16072562Y-8449793D02*
X16110658Y-8449793D01*
X16110658Y-8449793D02*
X16129705Y-8440270D01*
X16129705Y-8440270D02*
X16139229Y-8430746D01*
X16139229Y-8430746D02*
X16148753Y-8411698D01*
X16272562Y-8325984D02*
X16291610Y-8325984D01*
X16291610Y-8325984D02*
X16310658Y-8335508D01*
X16310658Y-8335508D02*
X16320182Y-8345031D01*
X16320182Y-8345031D02*
X16329705Y-8364079D01*
X16329705Y-8364079D02*
X16339229Y-8402174D01*
X16339229Y-8402174D02*
X16339229Y-8449793D01*
X16339229Y-8449793D02*
X16329705Y-8487889D01*
X16329705Y-8487889D02*
X16320182Y-8506936D01*
X16320182Y-8506936D02*
X16310658Y-8516460D01*
X16310658Y-8516460D02*
X16291610Y-8525984D01*
X16291610Y-8525984D02*
X16272562Y-8525984D01*
X16272562Y-8525984D02*
X16253515Y-8516460D01*
X16253515Y-8516460D02*
X16243991Y-8506936D01*
X16243991Y-8506936D02*
X16234467Y-8487889D01*
X16234467Y-8487889D02*
X16224943Y-8449793D01*
X16224943Y-8449793D02*
X16224943Y-8402174D01*
X16224943Y-8402174D02*
X16234467Y-8364079D01*
X16234467Y-8364079D02*
X16243991Y-8345031D01*
X16243991Y-8345031D02*
X16253515Y-8335508D01*
X16253515Y-8335508D02*
X16272562Y-8325984D01*
X16463039Y-8325984D02*
X16482086Y-8325984D01*
X16482086Y-8325984D02*
X16501134Y-8335508D01*
X16501134Y-8335508D02*
X16510658Y-8345031D01*
X16510658Y-8345031D02*
X16520182Y-8364079D01*
X16520182Y-8364079D02*
X16529705Y-8402174D01*
X16529705Y-8402174D02*
X16529705Y-8449793D01*
X16529705Y-8449793D02*
X16520182Y-8487889D01*
X16520182Y-8487889D02*
X16510658Y-8506936D01*
X16510658Y-8506936D02*
X16501134Y-8516460D01*
X16501134Y-8516460D02*
X16482086Y-8525984D01*
X16482086Y-8525984D02*
X16463039Y-8525984D01*
X16463039Y-8525984D02*
X16443991Y-8516460D01*
X16443991Y-8516460D02*
X16434467Y-8506936D01*
X16434467Y-8506936D02*
X16424943Y-8487889D01*
X16424943Y-8487889D02*
X16415420Y-8449793D01*
X16415420Y-8449793D02*
X16415420Y-8402174D01*
X16415420Y-8402174D02*
X16424943Y-8364079D01*
X16424943Y-8364079D02*
X16434467Y-8345031D01*
X16434467Y-8345031D02*
X16443991Y-8335508D01*
X16443991Y-8335508D02*
X16463039Y-8325984D01*
X16615420Y-8525984D02*
X16615420Y-8392650D01*
X16615420Y-8411698D02*
X16624943Y-8402174D01*
X16624943Y-8402174D02*
X16643991Y-8392650D01*
X16643991Y-8392650D02*
X16672563Y-8392650D01*
X16672563Y-8392650D02*
X16691610Y-8402174D01*
X16691610Y-8402174D02*
X16701134Y-8421222D01*
X16701134Y-8421222D02*
X16701134Y-8525984D01*
X16701134Y-8421222D02*
X16710658Y-8402174D01*
X16710658Y-8402174D02*
X16729705Y-8392650D01*
X16729705Y-8392650D02*
X16758277Y-8392650D01*
X16758277Y-8392650D02*
X16777325Y-8402174D01*
X16777325Y-8402174D02*
X16786848Y-8421222D01*
X16786848Y-8421222D02*
X16786848Y-8525984D01*
X16882086Y-8525984D02*
X16882086Y-8392650D01*
X16882086Y-8411698D02*
X16891610Y-8402174D01*
X16891610Y-8402174D02*
X16910658Y-8392650D01*
X16910658Y-8392650D02*
X16939229Y-8392650D01*
X16939229Y-8392650D02*
X16958277Y-8402174D01*
X16958277Y-8402174D02*
X16967801Y-8421222D01*
X16967801Y-8421222D02*
X16967801Y-8525984D01*
X16967801Y-8421222D02*
X16977325Y-8402174D01*
X16977325Y-8402174D02*
X16996372Y-8392650D01*
X16996372Y-8392650D02*
X17024944Y-8392650D01*
X17024944Y-8392650D02*
X17043991Y-8402174D01*
X17043991Y-8402174D02*
X17053515Y-8421222D01*
X17053515Y-8421222D02*
X17053515Y-8525984D01*
X17443991Y-8316460D02*
X17272563Y-8573603D01*
X17701134Y-8325984D02*
X17720182Y-8325984D01*
X17720182Y-8325984D02*
X17739229Y-8335508D01*
X17739229Y-8335508D02*
X17748753Y-8345031D01*
X17748753Y-8345031D02*
X17758277Y-8364079D01*
X17758277Y-8364079D02*
X17767801Y-8402174D01*
X17767801Y-8402174D02*
X17767801Y-8449793D01*
X17767801Y-8449793D02*
X17758277Y-8487889D01*
X17758277Y-8487889D02*
X17748753Y-8506936D01*
X17748753Y-8506936D02*
X17739229Y-8516460D01*
X17739229Y-8516460D02*
X17720182Y-8525984D01*
X17720182Y-8525984D02*
X17701134Y-8525984D01*
X17701134Y-8525984D02*
X17682087Y-8516460D01*
X17682087Y-8516460D02*
X17672563Y-8506936D01*
X17672563Y-8506936D02*
X17663039Y-8487889D01*
X17663039Y-8487889D02*
X17653515Y-8449793D01*
X17653515Y-8449793D02*
X17653515Y-8402174D01*
X17653515Y-8402174D02*
X17663039Y-8364079D01*
X17663039Y-8364079D02*
X17672563Y-8345031D01*
X17672563Y-8345031D02*
X17682087Y-8335508D01*
X17682087Y-8335508D02*
X17701134Y-8325984D01*
X17853515Y-8506936D02*
X17863039Y-8516460D01*
X17863039Y-8516460D02*
X17853515Y-8525984D01*
X17853515Y-8525984D02*
X17843991Y-8516460D01*
X17843991Y-8516460D02*
X17853515Y-8506936D01*
X17853515Y-8506936D02*
X17853515Y-8525984D01*
X17986848Y-8325984D02*
X18005896Y-8325984D01*
X18005896Y-8325984D02*
X18024944Y-8335508D01*
X18024944Y-8335508D02*
X18034468Y-8345031D01*
X18034468Y-8345031D02*
X18043991Y-8364079D01*
X18043991Y-8364079D02*
X18053515Y-8402174D01*
X18053515Y-8402174D02*
X18053515Y-8449793D01*
X18053515Y-8449793D02*
X18043991Y-8487889D01*
X18043991Y-8487889D02*
X18034468Y-8506936D01*
X18034468Y-8506936D02*
X18024944Y-8516460D01*
X18024944Y-8516460D02*
X18005896Y-8525984D01*
X18005896Y-8525984D02*
X17986848Y-8525984D01*
X17986848Y-8525984D02*
X17967801Y-8516460D01*
X17967801Y-8516460D02*
X17958277Y-8506936D01*
X17958277Y-8506936D02*
X17948753Y-8487889D01*
X17948753Y-8487889D02*
X17939229Y-8449793D01*
X17939229Y-8449793D02*
X17939229Y-8402174D01*
X17939229Y-8402174D02*
X17948753Y-8364079D01*
X17948753Y-8364079D02*
X17958277Y-8345031D01*
X17958277Y-8345031D02*
X17967801Y-8335508D01*
X17967801Y-8335508D02*
X17986848Y-8325984D01*
X18120182Y-8325984D02*
X18243991Y-8325984D01*
X18243991Y-8325984D02*
X18177325Y-8402174D01*
X18177325Y-8402174D02*
X18205896Y-8402174D01*
X18205896Y-8402174D02*
X18224944Y-8411698D01*
X18224944Y-8411698D02*
X18234468Y-8421222D01*
X18234468Y-8421222D02*
X18243991Y-8440270D01*
X18243991Y-8440270D02*
X18243991Y-8487889D01*
X18243991Y-8487889D02*
X18234468Y-8506936D01*
X18234468Y-8506936D02*
X18224944Y-8516460D01*
X18224944Y-8516460D02*
X18205896Y-8525984D01*
X18205896Y-8525984D02*
X18148753Y-8525984D01*
X18148753Y-8525984D02*
X18129706Y-8516460D01*
X18129706Y-8516460D02*
X18120182Y-8506936D01*
X18424944Y-8325984D02*
X18329706Y-8325984D01*
X18329706Y-8325984D02*
X18320182Y-8421222D01*
X18320182Y-8421222D02*
X18329706Y-8411698D01*
X18329706Y-8411698D02*
X18348753Y-8402174D01*
X18348753Y-8402174D02*
X18396372Y-8402174D01*
X18396372Y-8402174D02*
X18415420Y-8411698D01*
X18415420Y-8411698D02*
X18424944Y-8421222D01*
X18424944Y-8421222D02*
X18434468Y-8440270D01*
X18434468Y-8440270D02*
X18434468Y-8487889D01*
X18434468Y-8487889D02*
X18424944Y-8506936D01*
X18424944Y-8506936D02*
X18415420Y-8516460D01*
X18415420Y-8516460D02*
X18396372Y-8525984D01*
X18396372Y-8525984D02*
X18348753Y-8525984D01*
X18348753Y-8525984D02*
X18329706Y-8516460D01*
X18329706Y-8516460D02*
X18320182Y-8506936D01*
X18605896Y-8392650D02*
X18605896Y-8525984D01*
X18558277Y-8316460D02*
X18510658Y-8459317D01*
X18510658Y-8459317D02*
X18634468Y-8459317D01*
X18701134Y-8325984D02*
X18701134Y-8364079D01*
X18777325Y-8325984D02*
X18777325Y-8364079D01*
X19072563Y-8602174D02*
X19063039Y-8592650D01*
X19063039Y-8592650D02*
X19043991Y-8564079D01*
X19043991Y-8564079D02*
X19034468Y-8545031D01*
X19034468Y-8545031D02*
X19024944Y-8516460D01*
X19024944Y-8516460D02*
X19015420Y-8468841D01*
X19015420Y-8468841D02*
X19015420Y-8430746D01*
X19015420Y-8430746D02*
X19024944Y-8383127D01*
X19024944Y-8383127D02*
X19034468Y-8354555D01*
X19034468Y-8354555D02*
X19043991Y-8335508D01*
X19043991Y-8335508D02*
X19063039Y-8306936D01*
X19063039Y-8306936D02*
X19072563Y-8297412D01*
X19139230Y-8345031D02*
X19148753Y-8335508D01*
X19148753Y-8335508D02*
X19167801Y-8325984D01*
X19167801Y-8325984D02*
X19215420Y-8325984D01*
X19215420Y-8325984D02*
X19234468Y-8335508D01*
X19234468Y-8335508D02*
X19243991Y-8345031D01*
X19243991Y-8345031D02*
X19253515Y-8364079D01*
X19253515Y-8364079D02*
X19253515Y-8383127D01*
X19253515Y-8383127D02*
X19243991Y-8411698D01*
X19243991Y-8411698D02*
X19129706Y-8525984D01*
X19129706Y-8525984D02*
X19253515Y-8525984D01*
X19491611Y-8525984D02*
X19491611Y-8325984D01*
X19577325Y-8525984D02*
X19577325Y-8421222D01*
X19577325Y-8421222D02*
X19567801Y-8402174D01*
X19567801Y-8402174D02*
X19548753Y-8392650D01*
X19548753Y-8392650D02*
X19520182Y-8392650D01*
X19520182Y-8392650D02*
X19501134Y-8402174D01*
X19501134Y-8402174D02*
X19491611Y-8411698D01*
X19701134Y-8525984D02*
X19682087Y-8516460D01*
X19682087Y-8516460D02*
X19672563Y-8506936D01*
X19672563Y-8506936D02*
X19663039Y-8487889D01*
X19663039Y-8487889D02*
X19663039Y-8430746D01*
X19663039Y-8430746D02*
X19672563Y-8411698D01*
X19672563Y-8411698D02*
X19682087Y-8402174D01*
X19682087Y-8402174D02*
X19701134Y-8392650D01*
X19701134Y-8392650D02*
X19729706Y-8392650D01*
X19729706Y-8392650D02*
X19748753Y-8402174D01*
X19748753Y-8402174D02*
X19758277Y-8411698D01*
X19758277Y-8411698D02*
X19767801Y-8430746D01*
X19767801Y-8430746D02*
X19767801Y-8487889D01*
X19767801Y-8487889D02*
X19758277Y-8506936D01*
X19758277Y-8506936D02*
X19748753Y-8516460D01*
X19748753Y-8516460D02*
X19729706Y-8525984D01*
X19729706Y-8525984D02*
X19701134Y-8525984D01*
X19882087Y-8525984D02*
X19863039Y-8516460D01*
X19863039Y-8516460D02*
X19853515Y-8497412D01*
X19853515Y-8497412D02*
X19853515Y-8325984D01*
X20034468Y-8516460D02*
X20015420Y-8525984D01*
X20015420Y-8525984D02*
X19977325Y-8525984D01*
X19977325Y-8525984D02*
X19958277Y-8516460D01*
X19958277Y-8516460D02*
X19948753Y-8497412D01*
X19948753Y-8497412D02*
X19948753Y-8421222D01*
X19948753Y-8421222D02*
X19958277Y-8402174D01*
X19958277Y-8402174D02*
X19977325Y-8392650D01*
X19977325Y-8392650D02*
X20015420Y-8392650D01*
X20015420Y-8392650D02*
X20034468Y-8402174D01*
X20034468Y-8402174D02*
X20043992Y-8421222D01*
X20043992Y-8421222D02*
X20043992Y-8440270D01*
X20043992Y-8440270D02*
X19948753Y-8459317D01*
X20120182Y-8516460D02*
X20139230Y-8525984D01*
X20139230Y-8525984D02*
X20177325Y-8525984D01*
X20177325Y-8525984D02*
X20196373Y-8516460D01*
X20196373Y-8516460D02*
X20205896Y-8497412D01*
X20205896Y-8497412D02*
X20205896Y-8487889D01*
X20205896Y-8487889D02*
X20196373Y-8468841D01*
X20196373Y-8468841D02*
X20177325Y-8459317D01*
X20177325Y-8459317D02*
X20148753Y-8459317D01*
X20148753Y-8459317D02*
X20129706Y-8449793D01*
X20129706Y-8449793D02*
X20120182Y-8430746D01*
X20120182Y-8430746D02*
X20120182Y-8421222D01*
X20120182Y-8421222D02*
X20129706Y-8402174D01*
X20129706Y-8402174D02*
X20148753Y-8392650D01*
X20148753Y-8392650D02*
X20177325Y-8392650D01*
X20177325Y-8392650D02*
X20196373Y-8402174D01*
X20272563Y-8602174D02*
X20282087Y-8592650D01*
X20282087Y-8592650D02*
X20301134Y-8564079D01*
X20301134Y-8564079D02*
X20310658Y-8545031D01*
X20310658Y-8545031D02*
X20320182Y-8516460D01*
X20320182Y-8516460D02*
X20329706Y-8468841D01*
X20329706Y-8468841D02*
X20329706Y-8430746D01*
X20329706Y-8430746D02*
X20320182Y-8383127D01*
X20320182Y-8383127D02*
X20310658Y-8354555D01*
X20310658Y-8354555D02*
X20301134Y-8335508D01*
X20301134Y-8335508D02*
X20282087Y-8306936D01*
X20282087Y-8306936D02*
X20272563Y-8297412D01*
D12*
X15447500Y-8748500D02*
X15497500Y-8698500D01*
X15447500Y-8648500D01*
X15397500Y-8698500D01*
X15447500Y-8748500D01*
D11*
X15863039Y-8789984D02*
X15748753Y-8789984D01*
X15805896Y-8789984D02*
X15805896Y-8589984D01*
X15805896Y-8589984D02*
X15786848Y-8618555D01*
X15786848Y-8618555D02*
X15767801Y-8637603D01*
X15767801Y-8637603D02*
X15748753Y-8647127D01*
X15948753Y-8770936D02*
X15958277Y-8780460D01*
X15958277Y-8780460D02*
X15948753Y-8789984D01*
X15948753Y-8789984D02*
X15939229Y-8780460D01*
X15939229Y-8780460D02*
X15948753Y-8770936D01*
X15948753Y-8770936D02*
X15948753Y-8789984D01*
X16082086Y-8589984D02*
X16101134Y-8589984D01*
X16101134Y-8589984D02*
X16120182Y-8599508D01*
X16120182Y-8599508D02*
X16129705Y-8609031D01*
X16129705Y-8609031D02*
X16139229Y-8628079D01*
X16139229Y-8628079D02*
X16148753Y-8666174D01*
X16148753Y-8666174D02*
X16148753Y-8713793D01*
X16148753Y-8713793D02*
X16139229Y-8751889D01*
X16139229Y-8751889D02*
X16129705Y-8770936D01*
X16129705Y-8770936D02*
X16120182Y-8780460D01*
X16120182Y-8780460D02*
X16101134Y-8789984D01*
X16101134Y-8789984D02*
X16082086Y-8789984D01*
X16082086Y-8789984D02*
X16063039Y-8780460D01*
X16063039Y-8780460D02*
X16053515Y-8770936D01*
X16053515Y-8770936D02*
X16043991Y-8751889D01*
X16043991Y-8751889D02*
X16034467Y-8713793D01*
X16034467Y-8713793D02*
X16034467Y-8666174D01*
X16034467Y-8666174D02*
X16043991Y-8628079D01*
X16043991Y-8628079D02*
X16053515Y-8609031D01*
X16053515Y-8609031D02*
X16063039Y-8599508D01*
X16063039Y-8599508D02*
X16082086Y-8589984D01*
X16272562Y-8589984D02*
X16291610Y-8589984D01*
X16291610Y-8589984D02*
X16310658Y-8599508D01*
X16310658Y-8599508D02*
X16320182Y-8609031D01*
X16320182Y-8609031D02*
X16329705Y-8628079D01*
X16329705Y-8628079D02*
X16339229Y-8666174D01*
X16339229Y-8666174D02*
X16339229Y-8713793D01*
X16339229Y-8713793D02*
X16329705Y-8751889D01*
X16329705Y-8751889D02*
X16320182Y-8770936D01*
X16320182Y-8770936D02*
X16310658Y-8780460D01*
X16310658Y-8780460D02*
X16291610Y-8789984D01*
X16291610Y-8789984D02*
X16272562Y-8789984D01*
X16272562Y-8789984D02*
X16253515Y-8780460D01*
X16253515Y-8780460D02*
X16243991Y-8770936D01*
X16243991Y-8770936D02*
X16234467Y-8751889D01*
X16234467Y-8751889D02*
X16224943Y-8713793D01*
X16224943Y-8713793D02*
X16224943Y-8666174D01*
X16224943Y-8666174D02*
X16234467Y-8628079D01*
X16234467Y-8628079D02*
X16243991Y-8609031D01*
X16243991Y-8609031D02*
X16253515Y-8599508D01*
X16253515Y-8599508D02*
X16272562Y-8589984D01*
X16463039Y-8589984D02*
X16482086Y-8589984D01*
X16482086Y-8589984D02*
X16501134Y-8599508D01*
X16501134Y-8599508D02*
X16510658Y-8609031D01*
X16510658Y-8609031D02*
X16520182Y-8628079D01*
X16520182Y-8628079D02*
X16529705Y-8666174D01*
X16529705Y-8666174D02*
X16529705Y-8713793D01*
X16529705Y-8713793D02*
X16520182Y-8751889D01*
X16520182Y-8751889D02*
X16510658Y-8770936D01*
X16510658Y-8770936D02*
X16501134Y-8780460D01*
X16501134Y-8780460D02*
X16482086Y-8789984D01*
X16482086Y-8789984D02*
X16463039Y-8789984D01*
X16463039Y-8789984D02*
X16443991Y-8780460D01*
X16443991Y-8780460D02*
X16434467Y-8770936D01*
X16434467Y-8770936D02*
X16424943Y-8751889D01*
X16424943Y-8751889D02*
X16415420Y-8713793D01*
X16415420Y-8713793D02*
X16415420Y-8666174D01*
X16415420Y-8666174D02*
X16424943Y-8628079D01*
X16424943Y-8628079D02*
X16434467Y-8609031D01*
X16434467Y-8609031D02*
X16443991Y-8599508D01*
X16443991Y-8599508D02*
X16463039Y-8589984D01*
X16615420Y-8789984D02*
X16615420Y-8656650D01*
X16615420Y-8675698D02*
X16624943Y-8666174D01*
X16624943Y-8666174D02*
X16643991Y-8656650D01*
X16643991Y-8656650D02*
X16672563Y-8656650D01*
X16672563Y-8656650D02*
X16691610Y-8666174D01*
X16691610Y-8666174D02*
X16701134Y-8685222D01*
X16701134Y-8685222D02*
X16701134Y-8789984D01*
X16701134Y-8685222D02*
X16710658Y-8666174D01*
X16710658Y-8666174D02*
X16729705Y-8656650D01*
X16729705Y-8656650D02*
X16758277Y-8656650D01*
X16758277Y-8656650D02*
X16777325Y-8666174D01*
X16777325Y-8666174D02*
X16786848Y-8685222D01*
X16786848Y-8685222D02*
X16786848Y-8789984D01*
X16882086Y-8789984D02*
X16882086Y-8656650D01*
X16882086Y-8675698D02*
X16891610Y-8666174D01*
X16891610Y-8666174D02*
X16910658Y-8656650D01*
X16910658Y-8656650D02*
X16939229Y-8656650D01*
X16939229Y-8656650D02*
X16958277Y-8666174D01*
X16958277Y-8666174D02*
X16967801Y-8685222D01*
X16967801Y-8685222D02*
X16967801Y-8789984D01*
X16967801Y-8685222D02*
X16977325Y-8666174D01*
X16977325Y-8666174D02*
X16996372Y-8656650D01*
X16996372Y-8656650D02*
X17024944Y-8656650D01*
X17024944Y-8656650D02*
X17043991Y-8666174D01*
X17043991Y-8666174D02*
X17053515Y-8685222D01*
X17053515Y-8685222D02*
X17053515Y-8789984D01*
X17443991Y-8580460D02*
X17272563Y-8837603D01*
X17701134Y-8589984D02*
X17720182Y-8589984D01*
X17720182Y-8589984D02*
X17739229Y-8599508D01*
X17739229Y-8599508D02*
X17748753Y-8609031D01*
X17748753Y-8609031D02*
X17758277Y-8628079D01*
X17758277Y-8628079D02*
X17767801Y-8666174D01*
X17767801Y-8666174D02*
X17767801Y-8713793D01*
X17767801Y-8713793D02*
X17758277Y-8751889D01*
X17758277Y-8751889D02*
X17748753Y-8770936D01*
X17748753Y-8770936D02*
X17739229Y-8780460D01*
X17739229Y-8780460D02*
X17720182Y-8789984D01*
X17720182Y-8789984D02*
X17701134Y-8789984D01*
X17701134Y-8789984D02*
X17682087Y-8780460D01*
X17682087Y-8780460D02*
X17672563Y-8770936D01*
X17672563Y-8770936D02*
X17663039Y-8751889D01*
X17663039Y-8751889D02*
X17653515Y-8713793D01*
X17653515Y-8713793D02*
X17653515Y-8666174D01*
X17653515Y-8666174D02*
X17663039Y-8628079D01*
X17663039Y-8628079D02*
X17672563Y-8609031D01*
X17672563Y-8609031D02*
X17682087Y-8599508D01*
X17682087Y-8599508D02*
X17701134Y-8589984D01*
X17853515Y-8770936D02*
X17863039Y-8780460D01*
X17863039Y-8780460D02*
X17853515Y-8789984D01*
X17853515Y-8789984D02*
X17843991Y-8780460D01*
X17843991Y-8780460D02*
X17853515Y-8770936D01*
X17853515Y-8770936D02*
X17853515Y-8789984D01*
X17986848Y-8589984D02*
X18005896Y-8589984D01*
X18005896Y-8589984D02*
X18024944Y-8599508D01*
X18024944Y-8599508D02*
X18034468Y-8609031D01*
X18034468Y-8609031D02*
X18043991Y-8628079D01*
X18043991Y-8628079D02*
X18053515Y-8666174D01*
X18053515Y-8666174D02*
X18053515Y-8713793D01*
X18053515Y-8713793D02*
X18043991Y-8751889D01*
X18043991Y-8751889D02*
X18034468Y-8770936D01*
X18034468Y-8770936D02*
X18024944Y-8780460D01*
X18024944Y-8780460D02*
X18005896Y-8789984D01*
X18005896Y-8789984D02*
X17986848Y-8789984D01*
X17986848Y-8789984D02*
X17967801Y-8780460D01*
X17967801Y-8780460D02*
X17958277Y-8770936D01*
X17958277Y-8770936D02*
X17948753Y-8751889D01*
X17948753Y-8751889D02*
X17939229Y-8713793D01*
X17939229Y-8713793D02*
X17939229Y-8666174D01*
X17939229Y-8666174D02*
X17948753Y-8628079D01*
X17948753Y-8628079D02*
X17958277Y-8609031D01*
X17958277Y-8609031D02*
X17967801Y-8599508D01*
X17967801Y-8599508D02*
X17986848Y-8589984D01*
X18120182Y-8589984D02*
X18243991Y-8589984D01*
X18243991Y-8589984D02*
X18177325Y-8666174D01*
X18177325Y-8666174D02*
X18205896Y-8666174D01*
X18205896Y-8666174D02*
X18224944Y-8675698D01*
X18224944Y-8675698D02*
X18234468Y-8685222D01*
X18234468Y-8685222D02*
X18243991Y-8704270D01*
X18243991Y-8704270D02*
X18243991Y-8751889D01*
X18243991Y-8751889D02*
X18234468Y-8770936D01*
X18234468Y-8770936D02*
X18224944Y-8780460D01*
X18224944Y-8780460D02*
X18205896Y-8789984D01*
X18205896Y-8789984D02*
X18148753Y-8789984D01*
X18148753Y-8789984D02*
X18129706Y-8780460D01*
X18129706Y-8780460D02*
X18120182Y-8770936D01*
X18339229Y-8789984D02*
X18377325Y-8789984D01*
X18377325Y-8789984D02*
X18396372Y-8780460D01*
X18396372Y-8780460D02*
X18405896Y-8770936D01*
X18405896Y-8770936D02*
X18424944Y-8742365D01*
X18424944Y-8742365D02*
X18434468Y-8704270D01*
X18434468Y-8704270D02*
X18434468Y-8628079D01*
X18434468Y-8628079D02*
X18424944Y-8609031D01*
X18424944Y-8609031D02*
X18415420Y-8599508D01*
X18415420Y-8599508D02*
X18396372Y-8589984D01*
X18396372Y-8589984D02*
X18358277Y-8589984D01*
X18358277Y-8589984D02*
X18339229Y-8599508D01*
X18339229Y-8599508D02*
X18329706Y-8609031D01*
X18329706Y-8609031D02*
X18320182Y-8628079D01*
X18320182Y-8628079D02*
X18320182Y-8675698D01*
X18320182Y-8675698D02*
X18329706Y-8694746D01*
X18329706Y-8694746D02*
X18339229Y-8704270D01*
X18339229Y-8704270D02*
X18358277Y-8713793D01*
X18358277Y-8713793D02*
X18396372Y-8713793D01*
X18396372Y-8713793D02*
X18415420Y-8704270D01*
X18415420Y-8704270D02*
X18424944Y-8694746D01*
X18424944Y-8694746D02*
X18434468Y-8675698D01*
X18605896Y-8656650D02*
X18605896Y-8789984D01*
X18558277Y-8580460D02*
X18510658Y-8723317D01*
X18510658Y-8723317D02*
X18634468Y-8723317D01*
X18701134Y-8589984D02*
X18701134Y-8628079D01*
X18777325Y-8589984D02*
X18777325Y-8628079D01*
X19072563Y-8866174D02*
X19063039Y-8856650D01*
X19063039Y-8856650D02*
X19043991Y-8828079D01*
X19043991Y-8828079D02*
X19034468Y-8809031D01*
X19034468Y-8809031D02*
X19024944Y-8780460D01*
X19024944Y-8780460D02*
X19015420Y-8732841D01*
X19015420Y-8732841D02*
X19015420Y-8694746D01*
X19015420Y-8694746D02*
X19024944Y-8647127D01*
X19024944Y-8647127D02*
X19034468Y-8618555D01*
X19034468Y-8618555D02*
X19043991Y-8599508D01*
X19043991Y-8599508D02*
X19063039Y-8570936D01*
X19063039Y-8570936D02*
X19072563Y-8561412D01*
X19129706Y-8589984D02*
X19253515Y-8589984D01*
X19253515Y-8589984D02*
X19186849Y-8666174D01*
X19186849Y-8666174D02*
X19215420Y-8666174D01*
X19215420Y-8666174D02*
X19234468Y-8675698D01*
X19234468Y-8675698D02*
X19243991Y-8685222D01*
X19243991Y-8685222D02*
X19253515Y-8704270D01*
X19253515Y-8704270D02*
X19253515Y-8751889D01*
X19253515Y-8751889D02*
X19243991Y-8770936D01*
X19243991Y-8770936D02*
X19234468Y-8780460D01*
X19234468Y-8780460D02*
X19215420Y-8789984D01*
X19215420Y-8789984D02*
X19158277Y-8789984D01*
X19158277Y-8789984D02*
X19139230Y-8780460D01*
X19139230Y-8780460D02*
X19129706Y-8770936D01*
X19491611Y-8789984D02*
X19491611Y-8589984D01*
X19577325Y-8789984D02*
X19577325Y-8685222D01*
X19577325Y-8685222D02*
X19567801Y-8666174D01*
X19567801Y-8666174D02*
X19548753Y-8656650D01*
X19548753Y-8656650D02*
X19520182Y-8656650D01*
X19520182Y-8656650D02*
X19501134Y-8666174D01*
X19501134Y-8666174D02*
X19491611Y-8675698D01*
X19701134Y-8789984D02*
X19682087Y-8780460D01*
X19682087Y-8780460D02*
X19672563Y-8770936D01*
X19672563Y-8770936D02*
X19663039Y-8751889D01*
X19663039Y-8751889D02*
X19663039Y-8694746D01*
X19663039Y-8694746D02*
X19672563Y-8675698D01*
X19672563Y-8675698D02*
X19682087Y-8666174D01*
X19682087Y-8666174D02*
X19701134Y-8656650D01*
X19701134Y-8656650D02*
X19729706Y-8656650D01*
X19729706Y-8656650D02*
X19748753Y-8666174D01*
X19748753Y-8666174D02*
X19758277Y-8675698D01*
X19758277Y-8675698D02*
X19767801Y-8694746D01*
X19767801Y-8694746D02*
X19767801Y-8751889D01*
X19767801Y-8751889D02*
X19758277Y-8770936D01*
X19758277Y-8770936D02*
X19748753Y-8780460D01*
X19748753Y-8780460D02*
X19729706Y-8789984D01*
X19729706Y-8789984D02*
X19701134Y-8789984D01*
X19882087Y-8789984D02*
X19863039Y-8780460D01*
X19863039Y-8780460D02*
X19853515Y-8761412D01*
X19853515Y-8761412D02*
X19853515Y-8589984D01*
X20034468Y-8780460D02*
X20015420Y-8789984D01*
X20015420Y-8789984D02*
X19977325Y-8789984D01*
X19977325Y-8789984D02*
X19958277Y-8780460D01*
X19958277Y-8780460D02*
X19948753Y-8761412D01*
X19948753Y-8761412D02*
X19948753Y-8685222D01*
X19948753Y-8685222D02*
X19958277Y-8666174D01*
X19958277Y-8666174D02*
X19977325Y-8656650D01*
X19977325Y-8656650D02*
X20015420Y-8656650D01*
X20015420Y-8656650D02*
X20034468Y-8666174D01*
X20034468Y-8666174D02*
X20043992Y-8685222D01*
X20043992Y-8685222D02*
X20043992Y-8704270D01*
X20043992Y-8704270D02*
X19948753Y-8723317D01*
X20120182Y-8780460D02*
X20139230Y-8789984D01*
X20139230Y-8789984D02*
X20177325Y-8789984D01*
X20177325Y-8789984D02*
X20196373Y-8780460D01*
X20196373Y-8780460D02*
X20205896Y-8761412D01*
X20205896Y-8761412D02*
X20205896Y-8751889D01*
X20205896Y-8751889D02*
X20196373Y-8732841D01*
X20196373Y-8732841D02*
X20177325Y-8723317D01*
X20177325Y-8723317D02*
X20148753Y-8723317D01*
X20148753Y-8723317D02*
X20129706Y-8713793D01*
X20129706Y-8713793D02*
X20120182Y-8694746D01*
X20120182Y-8694746D02*
X20120182Y-8685222D01*
X20120182Y-8685222D02*
X20129706Y-8666174D01*
X20129706Y-8666174D02*
X20148753Y-8656650D01*
X20148753Y-8656650D02*
X20177325Y-8656650D01*
X20177325Y-8656650D02*
X20196373Y-8666174D01*
X20272563Y-8866174D02*
X20282087Y-8856650D01*
X20282087Y-8856650D02*
X20301134Y-8828079D01*
X20301134Y-8828079D02*
X20310658Y-8809031D01*
X20310658Y-8809031D02*
X20320182Y-8780460D01*
X20320182Y-8780460D02*
X20329706Y-8732841D01*
X20329706Y-8732841D02*
X20329706Y-8694746D01*
X20329706Y-8694746D02*
X20320182Y-8647127D01*
X20320182Y-8647127D02*
X20310658Y-8618555D01*
X20310658Y-8618555D02*
X20301134Y-8599508D01*
X20301134Y-8599508D02*
X20282087Y-8570936D01*
X20282087Y-8570936D02*
X20272563Y-8561412D01*
D13*
X15387500Y-8907500D02*
X15497500Y-9017500D01*
X15497500Y-8907500D02*
X15387500Y-9017500D01*
X15497500Y-8962500D02*
G75*
G02*
X15387500Y-8962500I-55000J0D01*
G01*
X15387500Y-8962500D02*
G75*
G02*
X15497500Y-8962500I55000J0D01*
G01*
D11*
X15863039Y-9053984D02*
X15748753Y-9053984D01*
X15805896Y-9053984D02*
X15805896Y-8853984D01*
X15805896Y-8853984D02*
X15786848Y-8882555D01*
X15786848Y-8882555D02*
X15767801Y-8901603D01*
X15767801Y-8901603D02*
X15748753Y-8911127D01*
X15948753Y-9034936D02*
X15958277Y-9044460D01*
X15958277Y-9044460D02*
X15948753Y-9053984D01*
X15948753Y-9053984D02*
X15939229Y-9044460D01*
X15939229Y-9044460D02*
X15948753Y-9034936D01*
X15948753Y-9034936D02*
X15948753Y-9053984D01*
X16148753Y-9053984D02*
X16034467Y-9053984D01*
X16091610Y-9053984D02*
X16091610Y-8853984D01*
X16091610Y-8853984D02*
X16072562Y-8882555D01*
X16072562Y-8882555D02*
X16053515Y-8901603D01*
X16053515Y-8901603D02*
X16034467Y-8911127D01*
X16272562Y-8853984D02*
X16291610Y-8853984D01*
X16291610Y-8853984D02*
X16310658Y-8863508D01*
X16310658Y-8863508D02*
X16320182Y-8873031D01*
X16320182Y-8873031D02*
X16329705Y-8892079D01*
X16329705Y-8892079D02*
X16339229Y-8930174D01*
X16339229Y-8930174D02*
X16339229Y-8977793D01*
X16339229Y-8977793D02*
X16329705Y-9015889D01*
X16329705Y-9015889D02*
X16320182Y-9034936D01*
X16320182Y-9034936D02*
X16310658Y-9044460D01*
X16310658Y-9044460D02*
X16291610Y-9053984D01*
X16291610Y-9053984D02*
X16272562Y-9053984D01*
X16272562Y-9053984D02*
X16253515Y-9044460D01*
X16253515Y-9044460D02*
X16243991Y-9034936D01*
X16243991Y-9034936D02*
X16234467Y-9015889D01*
X16234467Y-9015889D02*
X16224943Y-8977793D01*
X16224943Y-8977793D02*
X16224943Y-8930174D01*
X16224943Y-8930174D02*
X16234467Y-8892079D01*
X16234467Y-8892079D02*
X16243991Y-8873031D01*
X16243991Y-8873031D02*
X16253515Y-8863508D01*
X16253515Y-8863508D02*
X16272562Y-8853984D01*
X16463039Y-8853984D02*
X16482086Y-8853984D01*
X16482086Y-8853984D02*
X16501134Y-8863508D01*
X16501134Y-8863508D02*
X16510658Y-8873031D01*
X16510658Y-8873031D02*
X16520182Y-8892079D01*
X16520182Y-8892079D02*
X16529705Y-8930174D01*
X16529705Y-8930174D02*
X16529705Y-8977793D01*
X16529705Y-8977793D02*
X16520182Y-9015889D01*
X16520182Y-9015889D02*
X16510658Y-9034936D01*
X16510658Y-9034936D02*
X16501134Y-9044460D01*
X16501134Y-9044460D02*
X16482086Y-9053984D01*
X16482086Y-9053984D02*
X16463039Y-9053984D01*
X16463039Y-9053984D02*
X16443991Y-9044460D01*
X16443991Y-9044460D02*
X16434467Y-9034936D01*
X16434467Y-9034936D02*
X16424943Y-9015889D01*
X16424943Y-9015889D02*
X16415420Y-8977793D01*
X16415420Y-8977793D02*
X16415420Y-8930174D01*
X16415420Y-8930174D02*
X16424943Y-8892079D01*
X16424943Y-8892079D02*
X16434467Y-8873031D01*
X16434467Y-8873031D02*
X16443991Y-8863508D01*
X16443991Y-8863508D02*
X16463039Y-8853984D01*
X16615420Y-9053984D02*
X16615420Y-8920650D01*
X16615420Y-8939698D02*
X16624943Y-8930174D01*
X16624943Y-8930174D02*
X16643991Y-8920650D01*
X16643991Y-8920650D02*
X16672563Y-8920650D01*
X16672563Y-8920650D02*
X16691610Y-8930174D01*
X16691610Y-8930174D02*
X16701134Y-8949222D01*
X16701134Y-8949222D02*
X16701134Y-9053984D01*
X16701134Y-8949222D02*
X16710658Y-8930174D01*
X16710658Y-8930174D02*
X16729705Y-8920650D01*
X16729705Y-8920650D02*
X16758277Y-8920650D01*
X16758277Y-8920650D02*
X16777325Y-8930174D01*
X16777325Y-8930174D02*
X16786848Y-8949222D01*
X16786848Y-8949222D02*
X16786848Y-9053984D01*
X16882086Y-9053984D02*
X16882086Y-8920650D01*
X16882086Y-8939698D02*
X16891610Y-8930174D01*
X16891610Y-8930174D02*
X16910658Y-8920650D01*
X16910658Y-8920650D02*
X16939229Y-8920650D01*
X16939229Y-8920650D02*
X16958277Y-8930174D01*
X16958277Y-8930174D02*
X16967801Y-8949222D01*
X16967801Y-8949222D02*
X16967801Y-9053984D01*
X16967801Y-8949222D02*
X16977325Y-8930174D01*
X16977325Y-8930174D02*
X16996372Y-8920650D01*
X16996372Y-8920650D02*
X17024944Y-8920650D01*
X17024944Y-8920650D02*
X17043991Y-8930174D01*
X17043991Y-8930174D02*
X17053515Y-8949222D01*
X17053515Y-8949222D02*
X17053515Y-9053984D01*
X17443991Y-8844460D02*
X17272563Y-9101603D01*
X17701134Y-8853984D02*
X17720182Y-8853984D01*
X17720182Y-8853984D02*
X17739229Y-8863508D01*
X17739229Y-8863508D02*
X17748753Y-8873031D01*
X17748753Y-8873031D02*
X17758277Y-8892079D01*
X17758277Y-8892079D02*
X17767801Y-8930174D01*
X17767801Y-8930174D02*
X17767801Y-8977793D01*
X17767801Y-8977793D02*
X17758277Y-9015889D01*
X17758277Y-9015889D02*
X17748753Y-9034936D01*
X17748753Y-9034936D02*
X17739229Y-9044460D01*
X17739229Y-9044460D02*
X17720182Y-9053984D01*
X17720182Y-9053984D02*
X17701134Y-9053984D01*
X17701134Y-9053984D02*
X17682087Y-9044460D01*
X17682087Y-9044460D02*
X17672563Y-9034936D01*
X17672563Y-9034936D02*
X17663039Y-9015889D01*
X17663039Y-9015889D02*
X17653515Y-8977793D01*
X17653515Y-8977793D02*
X17653515Y-8930174D01*
X17653515Y-8930174D02*
X17663039Y-8892079D01*
X17663039Y-8892079D02*
X17672563Y-8873031D01*
X17672563Y-8873031D02*
X17682087Y-8863508D01*
X17682087Y-8863508D02*
X17701134Y-8853984D01*
X17853515Y-9034936D02*
X17863039Y-9044460D01*
X17863039Y-9044460D02*
X17853515Y-9053984D01*
X17853515Y-9053984D02*
X17843991Y-9044460D01*
X17843991Y-9044460D02*
X17853515Y-9034936D01*
X17853515Y-9034936D02*
X17853515Y-9053984D01*
X17986848Y-8853984D02*
X18005896Y-8853984D01*
X18005896Y-8853984D02*
X18024944Y-8863508D01*
X18024944Y-8863508D02*
X18034468Y-8873031D01*
X18034468Y-8873031D02*
X18043991Y-8892079D01*
X18043991Y-8892079D02*
X18053515Y-8930174D01*
X18053515Y-8930174D02*
X18053515Y-8977793D01*
X18053515Y-8977793D02*
X18043991Y-9015889D01*
X18043991Y-9015889D02*
X18034468Y-9034936D01*
X18034468Y-9034936D02*
X18024944Y-9044460D01*
X18024944Y-9044460D02*
X18005896Y-9053984D01*
X18005896Y-9053984D02*
X17986848Y-9053984D01*
X17986848Y-9053984D02*
X17967801Y-9044460D01*
X17967801Y-9044460D02*
X17958277Y-9034936D01*
X17958277Y-9034936D02*
X17948753Y-9015889D01*
X17948753Y-9015889D02*
X17939229Y-8977793D01*
X17939229Y-8977793D02*
X17939229Y-8930174D01*
X17939229Y-8930174D02*
X17948753Y-8892079D01*
X17948753Y-8892079D02*
X17958277Y-8873031D01*
X17958277Y-8873031D02*
X17967801Y-8863508D01*
X17967801Y-8863508D02*
X17986848Y-8853984D01*
X18224944Y-8920650D02*
X18224944Y-9053984D01*
X18177325Y-8844460D02*
X18129706Y-8987317D01*
X18129706Y-8987317D02*
X18253515Y-8987317D01*
X18310658Y-8853984D02*
X18434468Y-8853984D01*
X18434468Y-8853984D02*
X18367801Y-8930174D01*
X18367801Y-8930174D02*
X18396372Y-8930174D01*
X18396372Y-8930174D02*
X18415420Y-8939698D01*
X18415420Y-8939698D02*
X18424944Y-8949222D01*
X18424944Y-8949222D02*
X18434468Y-8968270D01*
X18434468Y-8968270D02*
X18434468Y-9015889D01*
X18434468Y-9015889D02*
X18424944Y-9034936D01*
X18424944Y-9034936D02*
X18415420Y-9044460D01*
X18415420Y-9044460D02*
X18396372Y-9053984D01*
X18396372Y-9053984D02*
X18339229Y-9053984D01*
X18339229Y-9053984D02*
X18320182Y-9044460D01*
X18320182Y-9044460D02*
X18310658Y-9034936D01*
X18501134Y-8853984D02*
X18624944Y-8853984D01*
X18624944Y-8853984D02*
X18558277Y-8930174D01*
X18558277Y-8930174D02*
X18586849Y-8930174D01*
X18586849Y-8930174D02*
X18605896Y-8939698D01*
X18605896Y-8939698D02*
X18615420Y-8949222D01*
X18615420Y-8949222D02*
X18624944Y-8968270D01*
X18624944Y-8968270D02*
X18624944Y-9015889D01*
X18624944Y-9015889D02*
X18615420Y-9034936D01*
X18615420Y-9034936D02*
X18605896Y-9044460D01*
X18605896Y-9044460D02*
X18586849Y-9053984D01*
X18586849Y-9053984D02*
X18529706Y-9053984D01*
X18529706Y-9053984D02*
X18510658Y-9044460D01*
X18510658Y-9044460D02*
X18501134Y-9034936D01*
X18701134Y-8853984D02*
X18701134Y-8892079D01*
X18777325Y-8853984D02*
X18777325Y-8892079D01*
X19072563Y-9130174D02*
X19063039Y-9120650D01*
X19063039Y-9120650D02*
X19043991Y-9092079D01*
X19043991Y-9092079D02*
X19034468Y-9073031D01*
X19034468Y-9073031D02*
X19024944Y-9044460D01*
X19024944Y-9044460D02*
X19015420Y-8996841D01*
X19015420Y-8996841D02*
X19015420Y-8958746D01*
X19015420Y-8958746D02*
X19024944Y-8911127D01*
X19024944Y-8911127D02*
X19034468Y-8882555D01*
X19034468Y-8882555D02*
X19043991Y-8863508D01*
X19043991Y-8863508D02*
X19063039Y-8834936D01*
X19063039Y-8834936D02*
X19072563Y-8825412D01*
X19186849Y-8853984D02*
X19205896Y-8853984D01*
X19205896Y-8853984D02*
X19224944Y-8863508D01*
X19224944Y-8863508D02*
X19234468Y-8873031D01*
X19234468Y-8873031D02*
X19243991Y-8892079D01*
X19243991Y-8892079D02*
X19253515Y-8930174D01*
X19253515Y-8930174D02*
X19253515Y-8977793D01*
X19253515Y-8977793D02*
X19243991Y-9015889D01*
X19243991Y-9015889D02*
X19234468Y-9034936D01*
X19234468Y-9034936D02*
X19224944Y-9044460D01*
X19224944Y-9044460D02*
X19205896Y-9053984D01*
X19205896Y-9053984D02*
X19186849Y-9053984D01*
X19186849Y-9053984D02*
X19167801Y-9044460D01*
X19167801Y-9044460D02*
X19158277Y-9034936D01*
X19158277Y-9034936D02*
X19148753Y-9015889D01*
X19148753Y-9015889D02*
X19139230Y-8977793D01*
X19139230Y-8977793D02*
X19139230Y-8930174D01*
X19139230Y-8930174D02*
X19148753Y-8892079D01*
X19148753Y-8892079D02*
X19158277Y-8873031D01*
X19158277Y-8873031D02*
X19167801Y-8863508D01*
X19167801Y-8863508D02*
X19186849Y-8853984D01*
X19491611Y-9053984D02*
X19491611Y-8853984D01*
X19577325Y-9053984D02*
X19577325Y-8949222D01*
X19577325Y-8949222D02*
X19567801Y-8930174D01*
X19567801Y-8930174D02*
X19548753Y-8920650D01*
X19548753Y-8920650D02*
X19520182Y-8920650D01*
X19520182Y-8920650D02*
X19501134Y-8930174D01*
X19501134Y-8930174D02*
X19491611Y-8939698D01*
X19701134Y-9053984D02*
X19682087Y-9044460D01*
X19682087Y-9044460D02*
X19672563Y-9034936D01*
X19672563Y-9034936D02*
X19663039Y-9015889D01*
X19663039Y-9015889D02*
X19663039Y-8958746D01*
X19663039Y-8958746D02*
X19672563Y-8939698D01*
X19672563Y-8939698D02*
X19682087Y-8930174D01*
X19682087Y-8930174D02*
X19701134Y-8920650D01*
X19701134Y-8920650D02*
X19729706Y-8920650D01*
X19729706Y-8920650D02*
X19748753Y-8930174D01*
X19748753Y-8930174D02*
X19758277Y-8939698D01*
X19758277Y-8939698D02*
X19767801Y-8958746D01*
X19767801Y-8958746D02*
X19767801Y-9015889D01*
X19767801Y-9015889D02*
X19758277Y-9034936D01*
X19758277Y-9034936D02*
X19748753Y-9044460D01*
X19748753Y-9044460D02*
X19729706Y-9053984D01*
X19729706Y-9053984D02*
X19701134Y-9053984D01*
X19882087Y-9053984D02*
X19863039Y-9044460D01*
X19863039Y-9044460D02*
X19853515Y-9025412D01*
X19853515Y-9025412D02*
X19853515Y-8853984D01*
X20034468Y-9044460D02*
X20015420Y-9053984D01*
X20015420Y-9053984D02*
X19977325Y-9053984D01*
X19977325Y-9053984D02*
X19958277Y-9044460D01*
X19958277Y-9044460D02*
X19948753Y-9025412D01*
X19948753Y-9025412D02*
X19948753Y-8949222D01*
X19948753Y-8949222D02*
X19958277Y-8930174D01*
X19958277Y-8930174D02*
X19977325Y-8920650D01*
X19977325Y-8920650D02*
X20015420Y-8920650D01*
X20015420Y-8920650D02*
X20034468Y-8930174D01*
X20034468Y-8930174D02*
X20043992Y-8949222D01*
X20043992Y-8949222D02*
X20043992Y-8968270D01*
X20043992Y-8968270D02*
X19948753Y-8987317D01*
X20120182Y-9044460D02*
X20139230Y-9053984D01*
X20139230Y-9053984D02*
X20177325Y-9053984D01*
X20177325Y-9053984D02*
X20196373Y-9044460D01*
X20196373Y-9044460D02*
X20205896Y-9025412D01*
X20205896Y-9025412D02*
X20205896Y-9015889D01*
X20205896Y-9015889D02*
X20196373Y-8996841D01*
X20196373Y-8996841D02*
X20177325Y-8987317D01*
X20177325Y-8987317D02*
X20148753Y-8987317D01*
X20148753Y-8987317D02*
X20129706Y-8977793D01*
X20129706Y-8977793D02*
X20120182Y-8958746D01*
X20120182Y-8958746D02*
X20120182Y-8949222D01*
X20120182Y-8949222D02*
X20129706Y-8930174D01*
X20129706Y-8930174D02*
X20148753Y-8920650D01*
X20148753Y-8920650D02*
X20177325Y-8920650D01*
X20177325Y-8920650D02*
X20196373Y-8930174D01*
X20443992Y-8977793D02*
X20596373Y-8977793D01*
X20520182Y-9053984D02*
X20520182Y-8901603D01*
X20834468Y-8873031D02*
X20843992Y-8863508D01*
X20843992Y-8863508D02*
X20863039Y-8853984D01*
X20863039Y-8853984D02*
X20910658Y-8853984D01*
X20910658Y-8853984D02*
X20929706Y-8863508D01*
X20929706Y-8863508D02*
X20939230Y-8873031D01*
X20939230Y-8873031D02*
X20948754Y-8892079D01*
X20948754Y-8892079D02*
X20948754Y-8911127D01*
X20948754Y-8911127D02*
X20939230Y-8939698D01*
X20939230Y-8939698D02*
X20824944Y-9053984D01*
X20824944Y-9053984D02*
X20948754Y-9053984D01*
X21177325Y-9044460D02*
X21196373Y-9053984D01*
X21196373Y-9053984D02*
X21234468Y-9053984D01*
X21234468Y-9053984D02*
X21253516Y-9044460D01*
X21253516Y-9044460D02*
X21263039Y-9025412D01*
X21263039Y-9025412D02*
X21263039Y-9015889D01*
X21263039Y-9015889D02*
X21253516Y-8996841D01*
X21253516Y-8996841D02*
X21234468Y-8987317D01*
X21234468Y-8987317D02*
X21205896Y-8987317D01*
X21205896Y-8987317D02*
X21186849Y-8977793D01*
X21186849Y-8977793D02*
X21177325Y-8958746D01*
X21177325Y-8958746D02*
X21177325Y-8949222D01*
X21177325Y-8949222D02*
X21186849Y-8930174D01*
X21186849Y-8930174D02*
X21205896Y-8920650D01*
X21205896Y-8920650D02*
X21234468Y-8920650D01*
X21234468Y-8920650D02*
X21253516Y-8930174D01*
X21377325Y-9053984D02*
X21358277Y-9044460D01*
X21358277Y-9044460D02*
X21348754Y-9025412D01*
X21348754Y-9025412D02*
X21348754Y-8853984D01*
X21482087Y-9053984D02*
X21463039Y-9044460D01*
X21463039Y-9044460D02*
X21453516Y-9034936D01*
X21453516Y-9034936D02*
X21443992Y-9015889D01*
X21443992Y-9015889D02*
X21443992Y-8958746D01*
X21443992Y-8958746D02*
X21453516Y-8939698D01*
X21453516Y-8939698D02*
X21463039Y-8930174D01*
X21463039Y-8930174D02*
X21482087Y-8920650D01*
X21482087Y-8920650D02*
X21510658Y-8920650D01*
X21510658Y-8920650D02*
X21529706Y-8930174D01*
X21529706Y-8930174D02*
X21539230Y-8939698D01*
X21539230Y-8939698D02*
X21548754Y-8958746D01*
X21548754Y-8958746D02*
X21548754Y-9015889D01*
X21548754Y-9015889D02*
X21539230Y-9034936D01*
X21539230Y-9034936D02*
X21529706Y-9044460D01*
X21529706Y-9044460D02*
X21510658Y-9053984D01*
X21510658Y-9053984D02*
X21482087Y-9053984D01*
X21605897Y-8920650D02*
X21682087Y-8920650D01*
X21634468Y-8853984D02*
X21634468Y-9025412D01*
X21634468Y-9025412D02*
X21643992Y-9044460D01*
X21643992Y-9044460D02*
X21663039Y-9053984D01*
X21663039Y-9053984D02*
X21682087Y-9053984D01*
X21739230Y-9044460D02*
X21758277Y-9053984D01*
X21758277Y-9053984D02*
X21796373Y-9053984D01*
X21796373Y-9053984D02*
X21815420Y-9044460D01*
X21815420Y-9044460D02*
X21824944Y-9025412D01*
X21824944Y-9025412D02*
X21824944Y-9015889D01*
X21824944Y-9015889D02*
X21815420Y-8996841D01*
X21815420Y-8996841D02*
X21796373Y-8987317D01*
X21796373Y-8987317D02*
X21767801Y-8987317D01*
X21767801Y-8987317D02*
X21748754Y-8977793D01*
X21748754Y-8977793D02*
X21739230Y-8958746D01*
X21739230Y-8958746D02*
X21739230Y-8949222D01*
X21739230Y-8949222D02*
X21748754Y-8930174D01*
X21748754Y-8930174D02*
X21767801Y-8920650D01*
X21767801Y-8920650D02*
X21796373Y-8920650D01*
X21796373Y-8920650D02*
X21815420Y-8930174D01*
X21891611Y-9130174D02*
X21901135Y-9120650D01*
X21901135Y-9120650D02*
X21920182Y-9092079D01*
X21920182Y-9092079D02*
X21929706Y-9073031D01*
X21929706Y-9073031D02*
X21939230Y-9044460D01*
X21939230Y-9044460D02*
X21948754Y-8996841D01*
X21948754Y-8996841D02*
X21948754Y-8958746D01*
X21948754Y-8958746D02*
X21939230Y-8911127D01*
X21939230Y-8911127D02*
X21929706Y-8882555D01*
X21929706Y-8882555D02*
X21920182Y-8863508D01*
X21920182Y-8863508D02*
X21901135Y-8834936D01*
X21901135Y-8834936D02*
X21891611Y-8825412D01*
D14*
X15367500Y-9161500D02*
X15497500Y-9291500D01*
X15497500Y-9161500D02*
X15367500Y-9291500D01*
X15432500Y-9161500D02*
X15432500Y-9291500D01*
X15367500Y-9226500D02*
X15497500Y-9226500D01*
D11*
X15863039Y-9317984D02*
X15748753Y-9317984D01*
X15805896Y-9317984D02*
X15805896Y-9117984D01*
X15805896Y-9117984D02*
X15786848Y-9146555D01*
X15786848Y-9146555D02*
X15767801Y-9165603D01*
X15767801Y-9165603D02*
X15748753Y-9175127D01*
X15948753Y-9298936D02*
X15958277Y-9308460D01*
X15958277Y-9308460D02*
X15948753Y-9317984D01*
X15948753Y-9317984D02*
X15939229Y-9308460D01*
X15939229Y-9308460D02*
X15948753Y-9298936D01*
X15948753Y-9298936D02*
X15948753Y-9317984D01*
X16024943Y-9117984D02*
X16148753Y-9117984D01*
X16148753Y-9117984D02*
X16082086Y-9194174D01*
X16082086Y-9194174D02*
X16110658Y-9194174D01*
X16110658Y-9194174D02*
X16129705Y-9203698D01*
X16129705Y-9203698D02*
X16139229Y-9213222D01*
X16139229Y-9213222D02*
X16148753Y-9232270D01*
X16148753Y-9232270D02*
X16148753Y-9279889D01*
X16148753Y-9279889D02*
X16139229Y-9298936D01*
X16139229Y-9298936D02*
X16129705Y-9308460D01*
X16129705Y-9308460D02*
X16110658Y-9317984D01*
X16110658Y-9317984D02*
X16053515Y-9317984D01*
X16053515Y-9317984D02*
X16034467Y-9308460D01*
X16034467Y-9308460D02*
X16024943Y-9298936D01*
X16272562Y-9117984D02*
X16291610Y-9117984D01*
X16291610Y-9117984D02*
X16310658Y-9127508D01*
X16310658Y-9127508D02*
X16320182Y-9137031D01*
X16320182Y-9137031D02*
X16329705Y-9156079D01*
X16329705Y-9156079D02*
X16339229Y-9194174D01*
X16339229Y-9194174D02*
X16339229Y-9241793D01*
X16339229Y-9241793D02*
X16329705Y-9279889D01*
X16329705Y-9279889D02*
X16320182Y-9298936D01*
X16320182Y-9298936D02*
X16310658Y-9308460D01*
X16310658Y-9308460D02*
X16291610Y-9317984D01*
X16291610Y-9317984D02*
X16272562Y-9317984D01*
X16272562Y-9317984D02*
X16253515Y-9308460D01*
X16253515Y-9308460D02*
X16243991Y-9298936D01*
X16243991Y-9298936D02*
X16234467Y-9279889D01*
X16234467Y-9279889D02*
X16224943Y-9241793D01*
X16224943Y-9241793D02*
X16224943Y-9194174D01*
X16224943Y-9194174D02*
X16234467Y-9156079D01*
X16234467Y-9156079D02*
X16243991Y-9137031D01*
X16243991Y-9137031D02*
X16253515Y-9127508D01*
X16253515Y-9127508D02*
X16272562Y-9117984D01*
X16463039Y-9117984D02*
X16482086Y-9117984D01*
X16482086Y-9117984D02*
X16501134Y-9127508D01*
X16501134Y-9127508D02*
X16510658Y-9137031D01*
X16510658Y-9137031D02*
X16520182Y-9156079D01*
X16520182Y-9156079D02*
X16529705Y-9194174D01*
X16529705Y-9194174D02*
X16529705Y-9241793D01*
X16529705Y-9241793D02*
X16520182Y-9279889D01*
X16520182Y-9279889D02*
X16510658Y-9298936D01*
X16510658Y-9298936D02*
X16501134Y-9308460D01*
X16501134Y-9308460D02*
X16482086Y-9317984D01*
X16482086Y-9317984D02*
X16463039Y-9317984D01*
X16463039Y-9317984D02*
X16443991Y-9308460D01*
X16443991Y-9308460D02*
X16434467Y-9298936D01*
X16434467Y-9298936D02*
X16424943Y-9279889D01*
X16424943Y-9279889D02*
X16415420Y-9241793D01*
X16415420Y-9241793D02*
X16415420Y-9194174D01*
X16415420Y-9194174D02*
X16424943Y-9156079D01*
X16424943Y-9156079D02*
X16434467Y-9137031D01*
X16434467Y-9137031D02*
X16443991Y-9127508D01*
X16443991Y-9127508D02*
X16463039Y-9117984D01*
X16615420Y-9317984D02*
X16615420Y-9184650D01*
X16615420Y-9203698D02*
X16624943Y-9194174D01*
X16624943Y-9194174D02*
X16643991Y-9184650D01*
X16643991Y-9184650D02*
X16672563Y-9184650D01*
X16672563Y-9184650D02*
X16691610Y-9194174D01*
X16691610Y-9194174D02*
X16701134Y-9213222D01*
X16701134Y-9213222D02*
X16701134Y-9317984D01*
X16701134Y-9213222D02*
X16710658Y-9194174D01*
X16710658Y-9194174D02*
X16729705Y-9184650D01*
X16729705Y-9184650D02*
X16758277Y-9184650D01*
X16758277Y-9184650D02*
X16777325Y-9194174D01*
X16777325Y-9194174D02*
X16786848Y-9213222D01*
X16786848Y-9213222D02*
X16786848Y-9317984D01*
X16882086Y-9317984D02*
X16882086Y-9184650D01*
X16882086Y-9203698D02*
X16891610Y-9194174D01*
X16891610Y-9194174D02*
X16910658Y-9184650D01*
X16910658Y-9184650D02*
X16939229Y-9184650D01*
X16939229Y-9184650D02*
X16958277Y-9194174D01*
X16958277Y-9194174D02*
X16967801Y-9213222D01*
X16967801Y-9213222D02*
X16967801Y-9317984D01*
X16967801Y-9213222D02*
X16977325Y-9194174D01*
X16977325Y-9194174D02*
X16996372Y-9184650D01*
X16996372Y-9184650D02*
X17024944Y-9184650D01*
X17024944Y-9184650D02*
X17043991Y-9194174D01*
X17043991Y-9194174D02*
X17053515Y-9213222D01*
X17053515Y-9213222D02*
X17053515Y-9317984D01*
X17443991Y-9108460D02*
X17272563Y-9365603D01*
X17701134Y-9117984D02*
X17720182Y-9117984D01*
X17720182Y-9117984D02*
X17739229Y-9127508D01*
X17739229Y-9127508D02*
X17748753Y-9137031D01*
X17748753Y-9137031D02*
X17758277Y-9156079D01*
X17758277Y-9156079D02*
X17767801Y-9194174D01*
X17767801Y-9194174D02*
X17767801Y-9241793D01*
X17767801Y-9241793D02*
X17758277Y-9279889D01*
X17758277Y-9279889D02*
X17748753Y-9298936D01*
X17748753Y-9298936D02*
X17739229Y-9308460D01*
X17739229Y-9308460D02*
X17720182Y-9317984D01*
X17720182Y-9317984D02*
X17701134Y-9317984D01*
X17701134Y-9317984D02*
X17682087Y-9308460D01*
X17682087Y-9308460D02*
X17672563Y-9298936D01*
X17672563Y-9298936D02*
X17663039Y-9279889D01*
X17663039Y-9279889D02*
X17653515Y-9241793D01*
X17653515Y-9241793D02*
X17653515Y-9194174D01*
X17653515Y-9194174D02*
X17663039Y-9156079D01*
X17663039Y-9156079D02*
X17672563Y-9137031D01*
X17672563Y-9137031D02*
X17682087Y-9127508D01*
X17682087Y-9127508D02*
X17701134Y-9117984D01*
X17853515Y-9298936D02*
X17863039Y-9308460D01*
X17863039Y-9308460D02*
X17853515Y-9317984D01*
X17853515Y-9317984D02*
X17843991Y-9308460D01*
X17843991Y-9308460D02*
X17853515Y-9298936D01*
X17853515Y-9298936D02*
X17853515Y-9317984D01*
X17986848Y-9117984D02*
X18005896Y-9117984D01*
X18005896Y-9117984D02*
X18024944Y-9127508D01*
X18024944Y-9127508D02*
X18034468Y-9137031D01*
X18034468Y-9137031D02*
X18043991Y-9156079D01*
X18043991Y-9156079D02*
X18053515Y-9194174D01*
X18053515Y-9194174D02*
X18053515Y-9241793D01*
X18053515Y-9241793D02*
X18043991Y-9279889D01*
X18043991Y-9279889D02*
X18034468Y-9298936D01*
X18034468Y-9298936D02*
X18024944Y-9308460D01*
X18024944Y-9308460D02*
X18005896Y-9317984D01*
X18005896Y-9317984D02*
X17986848Y-9317984D01*
X17986848Y-9317984D02*
X17967801Y-9308460D01*
X17967801Y-9308460D02*
X17958277Y-9298936D01*
X17958277Y-9298936D02*
X17948753Y-9279889D01*
X17948753Y-9279889D02*
X17939229Y-9241793D01*
X17939229Y-9241793D02*
X17939229Y-9194174D01*
X17939229Y-9194174D02*
X17948753Y-9156079D01*
X17948753Y-9156079D02*
X17958277Y-9137031D01*
X17958277Y-9137031D02*
X17967801Y-9127508D01*
X17967801Y-9127508D02*
X17986848Y-9117984D01*
X18234468Y-9117984D02*
X18139229Y-9117984D01*
X18139229Y-9117984D02*
X18129706Y-9213222D01*
X18129706Y-9213222D02*
X18139229Y-9203698D01*
X18139229Y-9203698D02*
X18158277Y-9194174D01*
X18158277Y-9194174D02*
X18205896Y-9194174D01*
X18205896Y-9194174D02*
X18224944Y-9203698D01*
X18224944Y-9203698D02*
X18234468Y-9213222D01*
X18234468Y-9213222D02*
X18243991Y-9232270D01*
X18243991Y-9232270D02*
X18243991Y-9279889D01*
X18243991Y-9279889D02*
X18234468Y-9298936D01*
X18234468Y-9298936D02*
X18224944Y-9308460D01*
X18224944Y-9308460D02*
X18205896Y-9317984D01*
X18205896Y-9317984D02*
X18158277Y-9317984D01*
X18158277Y-9317984D02*
X18139229Y-9308460D01*
X18139229Y-9308460D02*
X18129706Y-9298936D01*
X18434468Y-9317984D02*
X18320182Y-9317984D01*
X18377325Y-9317984D02*
X18377325Y-9117984D01*
X18377325Y-9117984D02*
X18358277Y-9146555D01*
X18358277Y-9146555D02*
X18339229Y-9165603D01*
X18339229Y-9165603D02*
X18320182Y-9175127D01*
X18510658Y-9137031D02*
X18520182Y-9127508D01*
X18520182Y-9127508D02*
X18539229Y-9117984D01*
X18539229Y-9117984D02*
X18586849Y-9117984D01*
X18586849Y-9117984D02*
X18605896Y-9127508D01*
X18605896Y-9127508D02*
X18615420Y-9137031D01*
X18615420Y-9137031D02*
X18624944Y-9156079D01*
X18624944Y-9156079D02*
X18624944Y-9175127D01*
X18624944Y-9175127D02*
X18615420Y-9203698D01*
X18615420Y-9203698D02*
X18501134Y-9317984D01*
X18501134Y-9317984D02*
X18624944Y-9317984D01*
X18701134Y-9117984D02*
X18701134Y-9156079D01*
X18777325Y-9117984D02*
X18777325Y-9156079D01*
X19072563Y-9394174D02*
X19063039Y-9384650D01*
X19063039Y-9384650D02*
X19043991Y-9356079D01*
X19043991Y-9356079D02*
X19034468Y-9337031D01*
X19034468Y-9337031D02*
X19024944Y-9308460D01*
X19024944Y-9308460D02*
X19015420Y-9260841D01*
X19015420Y-9260841D02*
X19015420Y-9222746D01*
X19015420Y-9222746D02*
X19024944Y-9175127D01*
X19024944Y-9175127D02*
X19034468Y-9146555D01*
X19034468Y-9146555D02*
X19043991Y-9127508D01*
X19043991Y-9127508D02*
X19063039Y-9098936D01*
X19063039Y-9098936D02*
X19072563Y-9089412D01*
X19139230Y-9137031D02*
X19148753Y-9127508D01*
X19148753Y-9127508D02*
X19167801Y-9117984D01*
X19167801Y-9117984D02*
X19215420Y-9117984D01*
X19215420Y-9117984D02*
X19234468Y-9127508D01*
X19234468Y-9127508D02*
X19243991Y-9137031D01*
X19243991Y-9137031D02*
X19253515Y-9156079D01*
X19253515Y-9156079D02*
X19253515Y-9175127D01*
X19253515Y-9175127D02*
X19243991Y-9203698D01*
X19243991Y-9203698D02*
X19129706Y-9317984D01*
X19129706Y-9317984D02*
X19253515Y-9317984D01*
X19491611Y-9317984D02*
X19491611Y-9117984D01*
X19577325Y-9317984D02*
X19577325Y-9213222D01*
X19577325Y-9213222D02*
X19567801Y-9194174D01*
X19567801Y-9194174D02*
X19548753Y-9184650D01*
X19548753Y-9184650D02*
X19520182Y-9184650D01*
X19520182Y-9184650D02*
X19501134Y-9194174D01*
X19501134Y-9194174D02*
X19491611Y-9203698D01*
X19701134Y-9317984D02*
X19682087Y-9308460D01*
X19682087Y-9308460D02*
X19672563Y-9298936D01*
X19672563Y-9298936D02*
X19663039Y-9279889D01*
X19663039Y-9279889D02*
X19663039Y-9222746D01*
X19663039Y-9222746D02*
X19672563Y-9203698D01*
X19672563Y-9203698D02*
X19682087Y-9194174D01*
X19682087Y-9194174D02*
X19701134Y-9184650D01*
X19701134Y-9184650D02*
X19729706Y-9184650D01*
X19729706Y-9184650D02*
X19748753Y-9194174D01*
X19748753Y-9194174D02*
X19758277Y-9203698D01*
X19758277Y-9203698D02*
X19767801Y-9222746D01*
X19767801Y-9222746D02*
X19767801Y-9279889D01*
X19767801Y-9279889D02*
X19758277Y-9298936D01*
X19758277Y-9298936D02*
X19748753Y-9308460D01*
X19748753Y-9308460D02*
X19729706Y-9317984D01*
X19729706Y-9317984D02*
X19701134Y-9317984D01*
X19882087Y-9317984D02*
X19863039Y-9308460D01*
X19863039Y-9308460D02*
X19853515Y-9289412D01*
X19853515Y-9289412D02*
X19853515Y-9117984D01*
X20034468Y-9308460D02*
X20015420Y-9317984D01*
X20015420Y-9317984D02*
X19977325Y-9317984D01*
X19977325Y-9317984D02*
X19958277Y-9308460D01*
X19958277Y-9308460D02*
X19948753Y-9289412D01*
X19948753Y-9289412D02*
X19948753Y-9213222D01*
X19948753Y-9213222D02*
X19958277Y-9194174D01*
X19958277Y-9194174D02*
X19977325Y-9184650D01*
X19977325Y-9184650D02*
X20015420Y-9184650D01*
X20015420Y-9184650D02*
X20034468Y-9194174D01*
X20034468Y-9194174D02*
X20043992Y-9213222D01*
X20043992Y-9213222D02*
X20043992Y-9232270D01*
X20043992Y-9232270D02*
X19948753Y-9251317D01*
X20120182Y-9308460D02*
X20139230Y-9317984D01*
X20139230Y-9317984D02*
X20177325Y-9317984D01*
X20177325Y-9317984D02*
X20196373Y-9308460D01*
X20196373Y-9308460D02*
X20205896Y-9289412D01*
X20205896Y-9289412D02*
X20205896Y-9279889D01*
X20205896Y-9279889D02*
X20196373Y-9260841D01*
X20196373Y-9260841D02*
X20177325Y-9251317D01*
X20177325Y-9251317D02*
X20148753Y-9251317D01*
X20148753Y-9251317D02*
X20129706Y-9241793D01*
X20129706Y-9241793D02*
X20120182Y-9222746D01*
X20120182Y-9222746D02*
X20120182Y-9213222D01*
X20120182Y-9213222D02*
X20129706Y-9194174D01*
X20129706Y-9194174D02*
X20148753Y-9184650D01*
X20148753Y-9184650D02*
X20177325Y-9184650D01*
X20177325Y-9184650D02*
X20196373Y-9194174D01*
X20272563Y-9394174D02*
X20282087Y-9384650D01*
X20282087Y-9384650D02*
X20301134Y-9356079D01*
X20301134Y-9356079D02*
X20310658Y-9337031D01*
X20310658Y-9337031D02*
X20320182Y-9308460D01*
X20320182Y-9308460D02*
X20329706Y-9260841D01*
X20329706Y-9260841D02*
X20329706Y-9222746D01*
X20329706Y-9222746D02*
X20320182Y-9175127D01*
X20320182Y-9175127D02*
X20310658Y-9146555D01*
X20310658Y-9146555D02*
X20301134Y-9127508D01*
X20301134Y-9127508D02*
X20282087Y-9098936D01*
X20282087Y-9098936D02*
X20272563Y-9089412D01*
M02*
