%TF.GenerationSoftware,KiCad,Pcbnew,8.0.2*%
%TF.CreationDate,2024-05-25T18:25:16-04:00*%
%TF.ProjectId,8bc_clock,3862635f-636c-46f6-936b-2e6b69636164,3.0*%
%TF.SameCoordinates,Original*%
%TF.FileFunction,Drillmap*%
%TF.FilePolarity,Positive*%
%FSLAX45Y45*%
G04 Gerber Fmt 4.5, Leading zero omitted, Abs format (unit mm)*
G04 Created by KiCad (PCBNEW 8.0.2) date 2024-05-25 18:25:16*
%MOMM*%
%LPD*%
G01*
G04 APERTURE LIST*
%ADD10C,0.050000*%
%ADD11C,0.200000*%
G04 APERTURE END LIST*
D10*
X15500000Y-2550000D02*
X26700000Y-2550000D01*
X26700000Y-7000000D01*
X15500000Y-7000000D01*
X15500000Y-2550000D01*
D11*
X15758277Y-7313984D02*
X15758277Y-7113984D01*
X15758277Y-7113984D02*
X15805896Y-7113984D01*
X15805896Y-7113984D02*
X15834467Y-7123508D01*
X15834467Y-7123508D02*
X15853515Y-7142555D01*
X15853515Y-7142555D02*
X15863039Y-7161603D01*
X15863039Y-7161603D02*
X15872562Y-7199698D01*
X15872562Y-7199698D02*
X15872562Y-7228269D01*
X15872562Y-7228269D02*
X15863039Y-7266365D01*
X15863039Y-7266365D02*
X15853515Y-7285412D01*
X15853515Y-7285412D02*
X15834467Y-7304460D01*
X15834467Y-7304460D02*
X15805896Y-7313984D01*
X15805896Y-7313984D02*
X15758277Y-7313984D01*
X15958277Y-7313984D02*
X15958277Y-7180650D01*
X15958277Y-7218746D02*
X15967801Y-7199698D01*
X15967801Y-7199698D02*
X15977324Y-7190174D01*
X15977324Y-7190174D02*
X15996372Y-7180650D01*
X15996372Y-7180650D02*
X16015420Y-7180650D01*
X16082086Y-7313984D02*
X16082086Y-7180650D01*
X16082086Y-7113984D02*
X16072562Y-7123508D01*
X16072562Y-7123508D02*
X16082086Y-7133031D01*
X16082086Y-7133031D02*
X16091610Y-7123508D01*
X16091610Y-7123508D02*
X16082086Y-7113984D01*
X16082086Y-7113984D02*
X16082086Y-7133031D01*
X16205896Y-7313984D02*
X16186848Y-7304460D01*
X16186848Y-7304460D02*
X16177324Y-7285412D01*
X16177324Y-7285412D02*
X16177324Y-7113984D01*
X16310658Y-7313984D02*
X16291610Y-7304460D01*
X16291610Y-7304460D02*
X16282086Y-7285412D01*
X16282086Y-7285412D02*
X16282086Y-7113984D01*
X16539229Y-7313984D02*
X16539229Y-7113984D01*
X16539229Y-7113984D02*
X16605896Y-7256841D01*
X16605896Y-7256841D02*
X16672562Y-7113984D01*
X16672562Y-7113984D02*
X16672562Y-7313984D01*
X16853515Y-7313984D02*
X16853515Y-7209222D01*
X16853515Y-7209222D02*
X16843991Y-7190174D01*
X16843991Y-7190174D02*
X16824944Y-7180650D01*
X16824944Y-7180650D02*
X16786848Y-7180650D01*
X16786848Y-7180650D02*
X16767801Y-7190174D01*
X16853515Y-7304460D02*
X16834467Y-7313984D01*
X16834467Y-7313984D02*
X16786848Y-7313984D01*
X16786848Y-7313984D02*
X16767801Y-7304460D01*
X16767801Y-7304460D02*
X16758277Y-7285412D01*
X16758277Y-7285412D02*
X16758277Y-7266365D01*
X16758277Y-7266365D02*
X16767801Y-7247317D01*
X16767801Y-7247317D02*
X16786848Y-7237793D01*
X16786848Y-7237793D02*
X16834467Y-7237793D01*
X16834467Y-7237793D02*
X16853515Y-7228269D01*
X16948753Y-7180650D02*
X16948753Y-7380650D01*
X16948753Y-7190174D02*
X16967801Y-7180650D01*
X16967801Y-7180650D02*
X17005896Y-7180650D01*
X17005896Y-7180650D02*
X17024944Y-7190174D01*
X17024944Y-7190174D02*
X17034467Y-7199698D01*
X17034467Y-7199698D02*
X17043991Y-7218746D01*
X17043991Y-7218746D02*
X17043991Y-7275888D01*
X17043991Y-7275888D02*
X17034467Y-7294936D01*
X17034467Y-7294936D02*
X17024944Y-7304460D01*
X17024944Y-7304460D02*
X17005896Y-7313984D01*
X17005896Y-7313984D02*
X16967801Y-7313984D01*
X16967801Y-7313984D02*
X16948753Y-7304460D01*
X17129705Y-7294936D02*
X17139229Y-7304460D01*
X17139229Y-7304460D02*
X17129705Y-7313984D01*
X17129705Y-7313984D02*
X17120182Y-7304460D01*
X17120182Y-7304460D02*
X17129705Y-7294936D01*
X17129705Y-7294936D02*
X17129705Y-7313984D01*
X17129705Y-7190174D02*
X17139229Y-7199698D01*
X17139229Y-7199698D02*
X17129705Y-7209222D01*
X17129705Y-7209222D02*
X17120182Y-7199698D01*
X17120182Y-7199698D02*
X17129705Y-7190174D01*
X17129705Y-7190174D02*
X17129705Y-7209222D01*
M02*
