%TF.GenerationSoftware,KiCad,Pcbnew,8.0.2*%
%TF.CreationDate,2024-05-25T18:25:13-04:00*%
%TF.ProjectId,8bc_clock,3862635f-636c-46f6-936b-2e6b69636164,3.0*%
%TF.SameCoordinates,Original*%
%TF.FileFunction,Copper,L2,Inr*%
%TF.FilePolarity,Positive*%
%FSLAX46Y46*%
G04 Gerber Fmt 4.6, Leading zero omitted, Abs format (unit mm)*
G04 Created by KiCad (PCBNEW 8.0.2) date 2024-05-25 18:25:13*
%MOMM*%
%LPD*%
G01*
G04 APERTURE LIST*
%TA.AperFunction,ComponentPad*%
%ADD10C,1.400000*%
%TD*%
%TA.AperFunction,ComponentPad*%
%ADD11O,1.400000X1.400000*%
%TD*%
%TA.AperFunction,ComponentPad*%
%ADD12R,1.600000X1.600000*%
%TD*%
%TA.AperFunction,ComponentPad*%
%ADD13O,1.600000X1.600000*%
%TD*%
%TA.AperFunction,ComponentPad*%
%ADD14O,3.240000X2.720000*%
%TD*%
%TA.AperFunction,ComponentPad*%
%ADD15R,1.800000X1.800000*%
%TD*%
%TA.AperFunction,ComponentPad*%
%ADD16C,1.800000*%
%TD*%
%TA.AperFunction,ComponentPad*%
%ADD17C,1.600000*%
%TD*%
%TA.AperFunction,ComponentPad*%
%ADD18R,1.350000X1.350000*%
%TD*%
%TA.AperFunction,ComponentPad*%
%ADD19O,1.350000X1.350000*%
%TD*%
%TA.AperFunction,ComponentPad*%
%ADD20R,2.250000X2.250000*%
%TD*%
%TA.AperFunction,ComponentPad*%
%ADD21C,2.250000*%
%TD*%
%TA.AperFunction,ComponentPad*%
%ADD22R,1.500000X1.500000*%
%TD*%
%TA.AperFunction,ViaPad*%
%ADD23C,0.600000*%
%TD*%
G04 APERTURE END LIST*
D10*
%TO.N,VCC*%
%TO.C,R6*%
X247720000Y-46500000D03*
D11*
%TO.N,Net-(SW2-A)*%
X245180000Y-46500000D03*
%TD*%
D12*
%TO.N,Net-(U4A-1Y)*%
%TO.C,U6*%
X210960000Y-65120000D03*
D13*
%TO.N,Net-(U4B-2Y)*%
X213500000Y-65120000D03*
%TO.N,Net-(U4C-3A)*%
X216040000Y-65120000D03*
%TO.N,unconnected-(U6B-2A-Pad4)*%
X218580000Y-65120000D03*
%TO.N,unconnected-(U6B-2B-Pad5)*%
X221120000Y-65120000D03*
%TO.N,unconnected-(U6B-2Y-Pad6)*%
X223660000Y-65120000D03*
%TO.N,GND*%
X226200000Y-65120000D03*
%TO.N,unconnected-(U6C-3Y-Pad8)*%
X226200000Y-57500000D03*
%TO.N,unconnected-(U6C-3A-Pad9)*%
X223660000Y-57500000D03*
%TO.N,unconnected-(U6C-3B-Pad10)*%
X221120000Y-57500000D03*
%TO.N,unconnected-(U6D-4Y-Pad11)*%
X218580000Y-57500000D03*
%TO.N,unconnected-(U6D-4A-Pad12)*%
X216040000Y-57500000D03*
%TO.N,unconnected-(U6D-4B-Pad13)*%
X213500000Y-57500000D03*
%TO.N,VCC*%
X210960000Y-57500000D03*
%TD*%
D14*
%TO.N,*%
%TO.C,RV1*%
X259775000Y-29700000D03*
X259775000Y-39300000D03*
D15*
%TO.N,Net-(U1-THR)*%
X252275000Y-32000000D03*
D16*
%TO.N,Net-(R2-Pad2)*%
X252275000Y-34500000D03*
%TO.N,unconnected-(RV1-Pad3)*%
X252275000Y-37000000D03*
%TD*%
D15*
%TO.N,Net-(D1-K)*%
%TO.C,D1*%
X262225000Y-46500000D03*
D16*
%TO.N,/CLK*%
X264765000Y-46500000D03*
%TD*%
D12*
%TO.N,GND*%
%TO.C,U3*%
X224700000Y-42800000D03*
D13*
%TO.N,Net-(SW2-A)*%
X227240000Y-42800000D03*
%TO.N,Net-(U3-Q)*%
X229780000Y-42800000D03*
%TO.N,Net-(SW2-C)*%
X232320000Y-42800000D03*
%TO.N,Net-(U3-CV)*%
X232320000Y-35180000D03*
%TO.N,GND*%
X229780000Y-35180000D03*
%TO.N,unconnected-(U3-DIS-Pad7)*%
X227240000Y-35180000D03*
%TO.N,VCC*%
X224700000Y-35180000D03*
%TD*%
D17*
%TO.N,GND*%
%TO.C,C1*%
X159070000Y-32500000D03*
%TO.N,VCC*%
X161570000Y-32500000D03*
%TD*%
%TO.N,GND*%
%TO.C,C6*%
X208210000Y-54320000D03*
%TO.N,VCC*%
X210710000Y-54320000D03*
%TD*%
D10*
%TO.N,VCC*%
%TO.C,R5*%
X235220000Y-46000000D03*
D11*
%TO.N,Net-(SW2-C)*%
X232680000Y-46000000D03*
%TD*%
D10*
%TO.N,VCC*%
%TO.C,R1*%
X175000000Y-39720000D03*
D11*
%TO.N,Net-(U1-DIS)*%
X175000000Y-37180000D03*
%TD*%
D10*
%TO.N,VCC*%
%TO.C,R3*%
X189420000Y-37780000D03*
D11*
%TO.N,Net-(U2-TR)*%
X189420000Y-40320000D03*
%TD*%
D17*
%TO.N,GND*%
%TO.C,C2*%
X192750000Y-32500000D03*
%TO.N,VCC*%
X195250000Y-32500000D03*
%TD*%
%TO.N,Net-(U1-CV)*%
%TO.C,C7*%
X169500000Y-32500000D03*
%TO.N,GND*%
X172000000Y-32500000D03*
%TD*%
%TO.N,GND*%
%TO.C,C4*%
X158210000Y-54320000D03*
%TO.N,VCC*%
X160710000Y-54320000D03*
%TD*%
%TO.N,Net-(U2-DIS)*%
%TO.C,C10*%
X200420000Y-32500000D03*
%TO.N,GND*%
X197920000Y-32500000D03*
%TD*%
D10*
%TO.N,VCC*%
%TO.C,R4*%
X202900000Y-27700000D03*
D11*
%TO.N,Net-(U2-DIS)*%
X200360000Y-27700000D03*
%TD*%
D18*
%TO.N,VCC*%
%TO.C,J1*%
X264500000Y-57500000D03*
D19*
%TO.N,GND*%
X264500000Y-59500000D03*
%TO.N,/CLK*%
X264500000Y-61500000D03*
%TO.N,/~{CLK}*%
X264500000Y-63500000D03*
%TO.N,/HLT*%
X264500000Y-65500000D03*
%TD*%
D20*
%TO.N,GND*%
%TO.C,SW1*%
X245290000Y-65500000D03*
D21*
%TO.N,Net-(U2-TR)*%
X251790000Y-65500000D03*
%TD*%
D17*
%TO.N,GND*%
%TO.C,C3*%
X222250000Y-32500000D03*
%TO.N,VCC*%
X224750000Y-32500000D03*
%TD*%
D12*
%TO.N,Net-(U3-Q)*%
%TO.C,U5*%
X186335000Y-65120000D03*
D13*
%TO.N,Net-(U4B-2A)*%
X188875000Y-65120000D03*
%TO.N,unconnected-(U5B-2A-Pad3)*%
X191415000Y-65120000D03*
%TO.N,unconnected-(U5B-2Y-Pad4)*%
X193955000Y-65120000D03*
%TO.N,unconnected-(U5C-3A-Pad5)*%
X196495000Y-65120000D03*
%TO.N,unconnected-(U5C-3Y-Pad6)*%
X199035000Y-65120000D03*
%TO.N,GND*%
X201575000Y-65120000D03*
%TO.N,Net-(U4C-3B)*%
X201575000Y-57500000D03*
%TO.N,/HLT*%
X199035000Y-57500000D03*
%TO.N,unconnected-(U5E-5Y-Pad10)*%
X196495000Y-57500000D03*
%TO.N,unconnected-(U5E-5A-Pad11)*%
X193955000Y-57500000D03*
%TO.N,/~{CLK}*%
X191415000Y-57500000D03*
%TO.N,/CLK*%
X188875000Y-57500000D03*
%TO.N,VCC*%
X186335000Y-57500000D03*
%TD*%
D10*
%TO.N,Net-(U1-DIS)*%
%TO.C,R2*%
X180500000Y-37280000D03*
D11*
%TO.N,Net-(R2-Pad2)*%
X180500000Y-39820000D03*
%TD*%
D17*
%TO.N,GND*%
%TO.C,C5*%
X183960000Y-54320000D03*
%TO.N,VCC*%
X186460000Y-54320000D03*
%TD*%
D12*
%TO.N,GND*%
%TO.C,U1*%
X161700000Y-42800000D03*
D13*
%TO.N,Net-(U1-THR)*%
X164240000Y-42800000D03*
%TO.N,Net-(U1-Q)*%
X166780000Y-42800000D03*
%TO.N,VCC*%
X169320000Y-42800000D03*
%TO.N,Net-(U1-CV)*%
X169320000Y-35180000D03*
%TO.N,Net-(U1-THR)*%
X166780000Y-35180000D03*
%TO.N,Net-(U1-DIS)*%
X164240000Y-35180000D03*
%TO.N,VCC*%
X161700000Y-35180000D03*
%TD*%
D17*
%TO.N,Net-(U1-THR)*%
%TO.C,C8*%
X164250000Y-46000000D03*
%TO.N,GND*%
X161750000Y-46000000D03*
%TD*%
%TO.N,Net-(U2-CV)*%
%TO.C,C9*%
X203170000Y-32500000D03*
%TO.N,GND*%
X205670000Y-32500000D03*
%TD*%
%TO.N,Net-(U3-CV)*%
%TO.C,C11*%
X232250000Y-32500000D03*
%TO.N,GND*%
X234750000Y-32500000D03*
%TD*%
D22*
%TO.N,Net-(SW2-A)*%
%TO.C,SW2*%
X248500000Y-56500000D03*
D17*
%TO.N,GND*%
X245960000Y-56500000D03*
%TO.N,Net-(SW2-C)*%
X251040000Y-56500000D03*
%TD*%
D12*
%TO.N,GND*%
%TO.C,U2*%
X195380000Y-43000000D03*
D13*
%TO.N,Net-(U2-TR)*%
X197920000Y-43000000D03*
%TO.N,Net-(U2-Q)*%
X200460000Y-43000000D03*
%TO.N,VCC*%
X203000000Y-43000000D03*
%TO.N,Net-(U2-CV)*%
X203000000Y-35380000D03*
%TO.N,Net-(U2-DIS)*%
X200460000Y-35380000D03*
X197920000Y-35380000D03*
%TO.N,VCC*%
X195380000Y-35380000D03*
%TD*%
D10*
%TO.N,GND*%
%TO.C,R7*%
X254280000Y-46500000D03*
D11*
%TO.N,Net-(D1-K)*%
X256820000Y-46500000D03*
%TD*%
D12*
%TO.N,Net-(U1-Q)*%
%TO.C,U4*%
X160835000Y-65120000D03*
D13*
%TO.N,Net-(U3-Q)*%
X163375000Y-65120000D03*
%TO.N,Net-(U4A-1Y)*%
X165915000Y-65120000D03*
%TO.N,Net-(U4B-2A)*%
X168455000Y-65120000D03*
%TO.N,Net-(U2-Q)*%
X170995000Y-65120000D03*
%TO.N,Net-(U4B-2Y)*%
X173535000Y-65120000D03*
%TO.N,GND*%
X176075000Y-65120000D03*
%TO.N,/CLK*%
X176075000Y-57500000D03*
%TO.N,Net-(U4C-3A)*%
X173535000Y-57500000D03*
%TO.N,Net-(U4C-3B)*%
X170995000Y-57500000D03*
%TO.N,unconnected-(U4D-4Y-Pad11)*%
X168455000Y-57500000D03*
%TO.N,unconnected-(U4D-4A-Pad12)*%
X165915000Y-57500000D03*
%TO.N,unconnected-(U4D-4B-Pad13)*%
X163375000Y-57500000D03*
%TO.N,VCC*%
X160835000Y-57500000D03*
%TD*%
D23*
%TO.N,Net-(U1-THR)*%
X166733316Y-36580000D03*
%TO.N,/CLK*%
X218214265Y-55214265D03*
%TO.N,/~{CLK}*%
X200239583Y-61239581D03*
%TO.N,Net-(U4B-2Y)*%
X174000000Y-67000000D03*
%TO.N,Net-(U4C-3B)*%
X201000000Y-55800000D03*
%TD*%
%TA.AperFunction,Conductor*%
%TO.N,VCC*%
G36*
X266442539Y-26020185D02*
G01*
X266488294Y-26072989D01*
X266499500Y-26124500D01*
X266499500Y-69375500D01*
X266479815Y-69442539D01*
X266427011Y-69488294D01*
X266375500Y-69499500D01*
X155624500Y-69499500D01*
X155557461Y-69479815D01*
X155511706Y-69427011D01*
X155500500Y-69375500D01*
X155500500Y-64272135D01*
X159534500Y-64272135D01*
X159534500Y-65967870D01*
X159534501Y-65967876D01*
X159540908Y-66027483D01*
X159591202Y-66162328D01*
X159591206Y-66162335D01*
X159677452Y-66277544D01*
X159677455Y-66277547D01*
X159792664Y-66363793D01*
X159792671Y-66363797D01*
X159927517Y-66414091D01*
X159927516Y-66414091D01*
X159934444Y-66414835D01*
X159987127Y-66420500D01*
X161682872Y-66420499D01*
X161742483Y-66414091D01*
X161877331Y-66363796D01*
X161992546Y-66277546D01*
X162078796Y-66162331D01*
X162129091Y-66027483D01*
X162132862Y-65992401D01*
X162159599Y-65927855D01*
X162216990Y-65888006D01*
X162286816Y-65885511D01*
X162346905Y-65921163D01*
X162357726Y-65934536D01*
X162374956Y-65959143D01*
X162535858Y-66120045D01*
X162535861Y-66120047D01*
X162722266Y-66250568D01*
X162928504Y-66346739D01*
X163148308Y-66405635D01*
X163310230Y-66419801D01*
X163374998Y-66425468D01*
X163375000Y-66425468D01*
X163375002Y-66425468D01*
X163431807Y-66420498D01*
X163601692Y-66405635D01*
X163821496Y-66346739D01*
X164027734Y-66250568D01*
X164214139Y-66120047D01*
X164375047Y-65959139D01*
X164505568Y-65772734D01*
X164532618Y-65714724D01*
X164578790Y-65662285D01*
X164645983Y-65643133D01*
X164712865Y-65663348D01*
X164757381Y-65714724D01*
X164758407Y-65716923D01*
X164784429Y-65772728D01*
X164784432Y-65772734D01*
X164914954Y-65959141D01*
X165075858Y-66120045D01*
X165075861Y-66120047D01*
X165262266Y-66250568D01*
X165468504Y-66346739D01*
X165688308Y-66405635D01*
X165850230Y-66419801D01*
X165914998Y-66425468D01*
X165915000Y-66425468D01*
X165915002Y-66425468D01*
X165971807Y-66420498D01*
X166141692Y-66405635D01*
X166361496Y-66346739D01*
X166567734Y-66250568D01*
X166754139Y-66120047D01*
X166915047Y-65959139D01*
X167045568Y-65772734D01*
X167072618Y-65714724D01*
X167118790Y-65662285D01*
X167185983Y-65643133D01*
X167252865Y-65663348D01*
X167297381Y-65714724D01*
X167298407Y-65716923D01*
X167324429Y-65772728D01*
X167324432Y-65772734D01*
X167454954Y-65959141D01*
X167615858Y-66120045D01*
X167615861Y-66120047D01*
X167802266Y-66250568D01*
X168008504Y-66346739D01*
X168228308Y-66405635D01*
X168390230Y-66419801D01*
X168454998Y-66425468D01*
X168455000Y-66425468D01*
X168455002Y-66425468D01*
X168511807Y-66420498D01*
X168681692Y-66405635D01*
X168901496Y-66346739D01*
X169107734Y-66250568D01*
X169294139Y-66120047D01*
X169455047Y-65959139D01*
X169585568Y-65772734D01*
X169612618Y-65714724D01*
X169658790Y-65662285D01*
X169725983Y-65643133D01*
X169792865Y-65663348D01*
X169837381Y-65714724D01*
X169838407Y-65716923D01*
X169864429Y-65772728D01*
X169864432Y-65772734D01*
X169994954Y-65959141D01*
X170155858Y-66120045D01*
X170155861Y-66120047D01*
X170342266Y-66250568D01*
X170548504Y-66346739D01*
X170768308Y-66405635D01*
X170930230Y-66419801D01*
X170994998Y-66425468D01*
X170995000Y-66425468D01*
X170995002Y-66425468D01*
X171051807Y-66420498D01*
X171221692Y-66405635D01*
X171441496Y-66346739D01*
X171647734Y-66250568D01*
X171834139Y-66120047D01*
X171995047Y-65959139D01*
X172125568Y-65772734D01*
X172152618Y-65714724D01*
X172198790Y-65662285D01*
X172265983Y-65643133D01*
X172332865Y-65663348D01*
X172377381Y-65714724D01*
X172378407Y-65716923D01*
X172404429Y-65772728D01*
X172404432Y-65772734D01*
X172534954Y-65959141D01*
X172695858Y-66120045D01*
X172695861Y-66120047D01*
X172882266Y-66250568D01*
X173088504Y-66346739D01*
X173248510Y-66389612D01*
X173308171Y-66425977D01*
X173338700Y-66488823D01*
X173330406Y-66558199D01*
X173321411Y-66575359D01*
X173274211Y-66650476D01*
X173214631Y-66820745D01*
X173214630Y-66820750D01*
X173194435Y-66999996D01*
X173194435Y-67000003D01*
X173214630Y-67179249D01*
X173214631Y-67179254D01*
X173274211Y-67349523D01*
X173370184Y-67502262D01*
X173497738Y-67629816D01*
X173650478Y-67725789D01*
X173820745Y-67785368D01*
X173820750Y-67785369D01*
X173999996Y-67805565D01*
X174000000Y-67805565D01*
X174000004Y-67805565D01*
X174179249Y-67785369D01*
X174179252Y-67785368D01*
X174179255Y-67785368D01*
X174349522Y-67725789D01*
X174502262Y-67629816D01*
X174629816Y-67502262D01*
X174725789Y-67349522D01*
X174785368Y-67179255D01*
X174785369Y-67179249D01*
X174805565Y-67000003D01*
X174805565Y-66999996D01*
X174785369Y-66820750D01*
X174785368Y-66820745D01*
X174754483Y-66732482D01*
X174725789Y-66650478D01*
X174629816Y-66497738D01*
X174502262Y-66370184D01*
X174401621Y-66306947D01*
X174355331Y-66254613D01*
X174344683Y-66185560D01*
X174373058Y-66121711D01*
X174379901Y-66114284D01*
X174535047Y-65959139D01*
X174665568Y-65772734D01*
X174692618Y-65714724D01*
X174738790Y-65662285D01*
X174805983Y-65643133D01*
X174872865Y-65663348D01*
X174917381Y-65714724D01*
X174918407Y-65716923D01*
X174944429Y-65772728D01*
X174944432Y-65772734D01*
X175074954Y-65959141D01*
X175235858Y-66120045D01*
X175235861Y-66120047D01*
X175422266Y-66250568D01*
X175628504Y-66346739D01*
X175848308Y-66405635D01*
X176010230Y-66419801D01*
X176074998Y-66425468D01*
X176075000Y-66425468D01*
X176075002Y-66425468D01*
X176131807Y-66420498D01*
X176301692Y-66405635D01*
X176521496Y-66346739D01*
X176727734Y-66250568D01*
X176914139Y-66120047D01*
X177075047Y-65959139D01*
X177205568Y-65772734D01*
X177301739Y-65566496D01*
X177360635Y-65346692D01*
X177380468Y-65120000D01*
X177360635Y-64893308D01*
X177301739Y-64673504D01*
X177205568Y-64467266D01*
X177075047Y-64280861D01*
X177075045Y-64280858D01*
X177066322Y-64272135D01*
X185034500Y-64272135D01*
X185034500Y-65967870D01*
X185034501Y-65967876D01*
X185040908Y-66027483D01*
X185091202Y-66162328D01*
X185091206Y-66162335D01*
X185177452Y-66277544D01*
X185177455Y-66277547D01*
X185292664Y-66363793D01*
X185292671Y-66363797D01*
X185427517Y-66414091D01*
X185427516Y-66414091D01*
X185434444Y-66414835D01*
X185487127Y-66420500D01*
X187182872Y-66420499D01*
X187242483Y-66414091D01*
X187377331Y-66363796D01*
X187492546Y-66277546D01*
X187578796Y-66162331D01*
X187629091Y-66027483D01*
X187632862Y-65992401D01*
X187659599Y-65927855D01*
X187716990Y-65888006D01*
X187786816Y-65885511D01*
X187846905Y-65921163D01*
X187857726Y-65934536D01*
X187874956Y-65959143D01*
X188035858Y-66120045D01*
X188035861Y-66120047D01*
X188222266Y-66250568D01*
X188428504Y-66346739D01*
X188648308Y-66405635D01*
X188810230Y-66419801D01*
X188874998Y-66425468D01*
X188875000Y-66425468D01*
X188875002Y-66425468D01*
X188931807Y-66420498D01*
X189101692Y-66405635D01*
X189321496Y-66346739D01*
X189527734Y-66250568D01*
X189714139Y-66120047D01*
X189875047Y-65959139D01*
X190005568Y-65772734D01*
X190032618Y-65714724D01*
X190078790Y-65662285D01*
X190145983Y-65643133D01*
X190212865Y-65663348D01*
X190257381Y-65714724D01*
X190258407Y-65716923D01*
X190284429Y-65772728D01*
X190284432Y-65772734D01*
X190414954Y-65959141D01*
X190575858Y-66120045D01*
X190575861Y-66120047D01*
X190762266Y-66250568D01*
X190968504Y-66346739D01*
X191188308Y-66405635D01*
X191350230Y-66419801D01*
X191414998Y-66425468D01*
X191415000Y-66425468D01*
X191415002Y-66425468D01*
X191471807Y-66420498D01*
X191641692Y-66405635D01*
X191861496Y-66346739D01*
X192067734Y-66250568D01*
X192254139Y-66120047D01*
X192415047Y-65959139D01*
X192545568Y-65772734D01*
X192572618Y-65714724D01*
X192618790Y-65662285D01*
X192685983Y-65643133D01*
X192752865Y-65663348D01*
X192797381Y-65714724D01*
X192798407Y-65716923D01*
X192824429Y-65772728D01*
X192824432Y-65772734D01*
X192954954Y-65959141D01*
X193115858Y-66120045D01*
X193115861Y-66120047D01*
X193302266Y-66250568D01*
X193508504Y-66346739D01*
X193728308Y-66405635D01*
X193890230Y-66419801D01*
X193954998Y-66425468D01*
X193955000Y-66425468D01*
X193955002Y-66425468D01*
X194011807Y-66420498D01*
X194181692Y-66405635D01*
X194401496Y-66346739D01*
X194607734Y-66250568D01*
X194794139Y-66120047D01*
X194955047Y-65959139D01*
X195085568Y-65772734D01*
X195112618Y-65714724D01*
X195158790Y-65662285D01*
X195225983Y-65643133D01*
X195292865Y-65663348D01*
X195337381Y-65714724D01*
X195338407Y-65716923D01*
X195364429Y-65772728D01*
X195364432Y-65772734D01*
X195494954Y-65959141D01*
X195655858Y-66120045D01*
X195655861Y-66120047D01*
X195842266Y-66250568D01*
X196048504Y-66346739D01*
X196268308Y-66405635D01*
X196430230Y-66419801D01*
X196494998Y-66425468D01*
X196495000Y-66425468D01*
X196495002Y-66425468D01*
X196551807Y-66420498D01*
X196721692Y-66405635D01*
X196941496Y-66346739D01*
X197147734Y-66250568D01*
X197334139Y-66120047D01*
X197495047Y-65959139D01*
X197625568Y-65772734D01*
X197652618Y-65714724D01*
X197698790Y-65662285D01*
X197765983Y-65643133D01*
X197832865Y-65663348D01*
X197877381Y-65714724D01*
X197878407Y-65716923D01*
X197904429Y-65772728D01*
X197904432Y-65772734D01*
X198034954Y-65959141D01*
X198195858Y-66120045D01*
X198195861Y-66120047D01*
X198382266Y-66250568D01*
X198588504Y-66346739D01*
X198808308Y-66405635D01*
X198970230Y-66419801D01*
X199034998Y-66425468D01*
X199035000Y-66425468D01*
X199035002Y-66425468D01*
X199091807Y-66420498D01*
X199261692Y-66405635D01*
X199481496Y-66346739D01*
X199687734Y-66250568D01*
X199874139Y-66120047D01*
X200035047Y-65959139D01*
X200165568Y-65772734D01*
X200192618Y-65714724D01*
X200238790Y-65662285D01*
X200305983Y-65643133D01*
X200372865Y-65663348D01*
X200417381Y-65714724D01*
X200418407Y-65716923D01*
X200444429Y-65772728D01*
X200444432Y-65772734D01*
X200574954Y-65959141D01*
X200735858Y-66120045D01*
X200735861Y-66120047D01*
X200922266Y-66250568D01*
X201128504Y-66346739D01*
X201348308Y-66405635D01*
X201510230Y-66419801D01*
X201574998Y-66425468D01*
X201575000Y-66425468D01*
X201575002Y-66425468D01*
X201631807Y-66420498D01*
X201801692Y-66405635D01*
X202021496Y-66346739D01*
X202227734Y-66250568D01*
X202414139Y-66120047D01*
X202575047Y-65959139D01*
X202705568Y-65772734D01*
X202801739Y-65566496D01*
X202860635Y-65346692D01*
X202880468Y-65120000D01*
X202860635Y-64893308D01*
X202801739Y-64673504D01*
X202705568Y-64467266D01*
X202575047Y-64280861D01*
X202575045Y-64280858D01*
X202566322Y-64272135D01*
X209659500Y-64272135D01*
X209659500Y-65967870D01*
X209659501Y-65967876D01*
X209665908Y-66027483D01*
X209716202Y-66162328D01*
X209716206Y-66162335D01*
X209802452Y-66277544D01*
X209802455Y-66277547D01*
X209917664Y-66363793D01*
X209917671Y-66363797D01*
X210052517Y-66414091D01*
X210052516Y-66414091D01*
X210059444Y-66414835D01*
X210112127Y-66420500D01*
X211807872Y-66420499D01*
X211867483Y-66414091D01*
X212002331Y-66363796D01*
X212117546Y-66277546D01*
X212203796Y-66162331D01*
X212254091Y-66027483D01*
X212257862Y-65992401D01*
X212284599Y-65927855D01*
X212341990Y-65888006D01*
X212411816Y-65885511D01*
X212471905Y-65921163D01*
X212482726Y-65934536D01*
X212499956Y-65959143D01*
X212660858Y-66120045D01*
X212660861Y-66120047D01*
X212847266Y-66250568D01*
X213053504Y-66346739D01*
X213273308Y-66405635D01*
X213435230Y-66419801D01*
X213499998Y-66425468D01*
X213500000Y-66425468D01*
X213500002Y-66425468D01*
X213556807Y-66420498D01*
X213726692Y-66405635D01*
X213946496Y-66346739D01*
X214152734Y-66250568D01*
X214339139Y-66120047D01*
X214500047Y-65959139D01*
X214630568Y-65772734D01*
X214657618Y-65714724D01*
X214703790Y-65662285D01*
X214770983Y-65643133D01*
X214837865Y-65663348D01*
X214882381Y-65714724D01*
X214883407Y-65716923D01*
X214909429Y-65772728D01*
X214909432Y-65772734D01*
X215039954Y-65959141D01*
X215200858Y-66120045D01*
X215200861Y-66120047D01*
X215387266Y-66250568D01*
X215593504Y-66346739D01*
X215813308Y-66405635D01*
X215975230Y-66419801D01*
X216039998Y-66425468D01*
X216040000Y-66425468D01*
X216040002Y-66425468D01*
X216096807Y-66420498D01*
X216266692Y-66405635D01*
X216486496Y-66346739D01*
X216692734Y-66250568D01*
X216879139Y-66120047D01*
X217040047Y-65959139D01*
X217170568Y-65772734D01*
X217197618Y-65714724D01*
X217243790Y-65662285D01*
X217310983Y-65643133D01*
X217377865Y-65663348D01*
X217422381Y-65714724D01*
X217423407Y-65716923D01*
X217449429Y-65772728D01*
X217449432Y-65772734D01*
X217579954Y-65959141D01*
X217740858Y-66120045D01*
X217740861Y-66120047D01*
X217927266Y-66250568D01*
X218133504Y-66346739D01*
X218353308Y-66405635D01*
X218515230Y-66419801D01*
X218579998Y-66425468D01*
X218580000Y-66425468D01*
X218580002Y-66425468D01*
X218636807Y-66420498D01*
X218806692Y-66405635D01*
X219026496Y-66346739D01*
X219232734Y-66250568D01*
X219419139Y-66120047D01*
X219580047Y-65959139D01*
X219710568Y-65772734D01*
X219737618Y-65714724D01*
X219783790Y-65662285D01*
X219850983Y-65643133D01*
X219917865Y-65663348D01*
X219962381Y-65714724D01*
X219963407Y-65716923D01*
X219989429Y-65772728D01*
X219989432Y-65772734D01*
X220119954Y-65959141D01*
X220280858Y-66120045D01*
X220280861Y-66120047D01*
X220467266Y-66250568D01*
X220673504Y-66346739D01*
X220893308Y-66405635D01*
X221055230Y-66419801D01*
X221119998Y-66425468D01*
X221120000Y-66425468D01*
X221120002Y-66425468D01*
X221176807Y-66420498D01*
X221346692Y-66405635D01*
X221566496Y-66346739D01*
X221772734Y-66250568D01*
X221959139Y-66120047D01*
X222120047Y-65959139D01*
X222250568Y-65772734D01*
X222277618Y-65714724D01*
X222323790Y-65662285D01*
X222390983Y-65643133D01*
X222457865Y-65663348D01*
X222502381Y-65714724D01*
X222503407Y-65716923D01*
X222529429Y-65772728D01*
X222529432Y-65772734D01*
X222659954Y-65959141D01*
X222820858Y-66120045D01*
X222820861Y-66120047D01*
X223007266Y-66250568D01*
X223213504Y-66346739D01*
X223433308Y-66405635D01*
X223595230Y-66419801D01*
X223659998Y-66425468D01*
X223660000Y-66425468D01*
X223660002Y-66425468D01*
X223716807Y-66420498D01*
X223886692Y-66405635D01*
X224106496Y-66346739D01*
X224312734Y-66250568D01*
X224499139Y-66120047D01*
X224660047Y-65959139D01*
X224790568Y-65772734D01*
X224817618Y-65714724D01*
X224863790Y-65662285D01*
X224930983Y-65643133D01*
X224997865Y-65663348D01*
X225042381Y-65714724D01*
X225043407Y-65716923D01*
X225069429Y-65772728D01*
X225069432Y-65772734D01*
X225199954Y-65959141D01*
X225360858Y-66120045D01*
X225360861Y-66120047D01*
X225547266Y-66250568D01*
X225753504Y-66346739D01*
X225973308Y-66405635D01*
X226135230Y-66419801D01*
X226199998Y-66425468D01*
X226200000Y-66425468D01*
X226200002Y-66425468D01*
X226256807Y-66420498D01*
X226426692Y-66405635D01*
X226646496Y-66346739D01*
X226852734Y-66250568D01*
X227039139Y-66120047D01*
X227200047Y-65959139D01*
X227330568Y-65772734D01*
X227426739Y-65566496D01*
X227485635Y-65346692D01*
X227505468Y-65120000D01*
X227485635Y-64893308D01*
X227426739Y-64673504D01*
X227330568Y-64467266D01*
X227232448Y-64327135D01*
X243664500Y-64327135D01*
X243664500Y-66672870D01*
X243664501Y-66672876D01*
X243670908Y-66732483D01*
X243721202Y-66867328D01*
X243721206Y-66867335D01*
X243807452Y-66982544D01*
X243807455Y-66982547D01*
X243922664Y-67068793D01*
X243922671Y-67068797D01*
X244057517Y-67119091D01*
X244057516Y-67119091D01*
X244064444Y-67119835D01*
X244117127Y-67125500D01*
X246462872Y-67125499D01*
X246522483Y-67119091D01*
X246657331Y-67068796D01*
X246772546Y-66982546D01*
X246858796Y-66867331D01*
X246909091Y-66732483D01*
X246915500Y-66672873D01*
X246915499Y-65500000D01*
X250159474Y-65500000D01*
X250179547Y-65755064D01*
X250179547Y-65755067D01*
X250179548Y-65755070D01*
X250230638Y-65967872D01*
X250239279Y-66003864D01*
X250337188Y-66240239D01*
X250337190Y-66240242D01*
X250470875Y-66458396D01*
X250470878Y-66458401D01*
X250546200Y-66546591D01*
X250637044Y-66652956D01*
X250761579Y-66759319D01*
X250831598Y-66819121D01*
X250831600Y-66819122D01*
X250831601Y-66819123D01*
X250910276Y-66867335D01*
X251049757Y-66952809D01*
X251049760Y-66952811D01*
X251286135Y-67050720D01*
X251286140Y-67050722D01*
X251534930Y-67110452D01*
X251790000Y-67130526D01*
X252045070Y-67110452D01*
X252293860Y-67050722D01*
X252458449Y-66982547D01*
X252530239Y-66952811D01*
X252530240Y-66952810D01*
X252530243Y-66952809D01*
X252748399Y-66819123D01*
X252942956Y-66652956D01*
X253109123Y-66458399D01*
X253242809Y-66240243D01*
X253247639Y-66228584D01*
X253340720Y-66003864D01*
X253340722Y-66003860D01*
X253400452Y-65755070D01*
X253420526Y-65500000D01*
X253400452Y-65244930D01*
X253340722Y-64996140D01*
X253292006Y-64878528D01*
X253242811Y-64759760D01*
X253242809Y-64759757D01*
X253109124Y-64541603D01*
X253109121Y-64541598D01*
X252995326Y-64408362D01*
X252942956Y-64347044D01*
X252785444Y-64212516D01*
X252748401Y-64180878D01*
X252748396Y-64180875D01*
X252530242Y-64047190D01*
X252530239Y-64047188D01*
X252293864Y-63949279D01*
X252293860Y-63949278D01*
X252045070Y-63889548D01*
X252045067Y-63889547D01*
X252045064Y-63889547D01*
X251790000Y-63869474D01*
X251534935Y-63889547D01*
X251534931Y-63889547D01*
X251534930Y-63889548D01*
X251410535Y-63919413D01*
X251286135Y-63949279D01*
X251049760Y-64047188D01*
X251049757Y-64047190D01*
X250831603Y-64180875D01*
X250831598Y-64180878D01*
X250637044Y-64347044D01*
X250470878Y-64541598D01*
X250470875Y-64541603D01*
X250337190Y-64759757D01*
X250337188Y-64759760D01*
X250239279Y-64996135D01*
X250179547Y-65244935D01*
X250159474Y-65500000D01*
X246915499Y-65500000D01*
X246915499Y-64327128D01*
X246909091Y-64267517D01*
X246907975Y-64264526D01*
X246858797Y-64132671D01*
X246858793Y-64132664D01*
X246772547Y-64017455D01*
X246772544Y-64017452D01*
X246657335Y-63931206D01*
X246657328Y-63931202D01*
X246522482Y-63880908D01*
X246522483Y-63880908D01*
X246462883Y-63874501D01*
X246462881Y-63874500D01*
X246462873Y-63874500D01*
X246462864Y-63874500D01*
X244117129Y-63874500D01*
X244117123Y-63874501D01*
X244057516Y-63880908D01*
X243922671Y-63931202D01*
X243922664Y-63931206D01*
X243807455Y-64017452D01*
X243807452Y-64017455D01*
X243721206Y-64132664D01*
X243721202Y-64132671D01*
X243670908Y-64267517D01*
X243667919Y-64295324D01*
X243664501Y-64327123D01*
X243664500Y-64327135D01*
X227232448Y-64327135D01*
X227200047Y-64280861D01*
X227200045Y-64280858D01*
X227039141Y-64119954D01*
X226852734Y-63989432D01*
X226852732Y-63989431D01*
X226646497Y-63893261D01*
X226646488Y-63893258D01*
X226426697Y-63834366D01*
X226426693Y-63834365D01*
X226426692Y-63834365D01*
X226426691Y-63834364D01*
X226426686Y-63834364D01*
X226200002Y-63814532D01*
X226199998Y-63814532D01*
X225973313Y-63834364D01*
X225973302Y-63834366D01*
X225753511Y-63893258D01*
X225753502Y-63893261D01*
X225547267Y-63989431D01*
X225547265Y-63989432D01*
X225360858Y-64119954D01*
X225199954Y-64280858D01*
X225069432Y-64467265D01*
X225069431Y-64467267D01*
X225042382Y-64525275D01*
X224996209Y-64577714D01*
X224929016Y-64596866D01*
X224862135Y-64576650D01*
X224817618Y-64525275D01*
X224805832Y-64500000D01*
X224790568Y-64467266D01*
X224660047Y-64280861D01*
X224660045Y-64280858D01*
X224499141Y-64119954D01*
X224312734Y-63989432D01*
X224312732Y-63989431D01*
X224106497Y-63893261D01*
X224106488Y-63893258D01*
X223886697Y-63834366D01*
X223886693Y-63834365D01*
X223886692Y-63834365D01*
X223886691Y-63834364D01*
X223886686Y-63834364D01*
X223660002Y-63814532D01*
X223659998Y-63814532D01*
X223433313Y-63834364D01*
X223433302Y-63834366D01*
X223213511Y-63893258D01*
X223213502Y-63893261D01*
X223007267Y-63989431D01*
X223007265Y-63989432D01*
X222820858Y-64119954D01*
X222659954Y-64280858D01*
X222529432Y-64467265D01*
X222529431Y-64467267D01*
X222502382Y-64525275D01*
X222456209Y-64577714D01*
X222389016Y-64596866D01*
X222322135Y-64576650D01*
X222277618Y-64525275D01*
X222265832Y-64500000D01*
X222250568Y-64467266D01*
X222120047Y-64280861D01*
X222120045Y-64280858D01*
X221959141Y-64119954D01*
X221772734Y-63989432D01*
X221772732Y-63989431D01*
X221566497Y-63893261D01*
X221566488Y-63893258D01*
X221346697Y-63834366D01*
X221346693Y-63834365D01*
X221346692Y-63834365D01*
X221346691Y-63834364D01*
X221346686Y-63834364D01*
X221120002Y-63814532D01*
X221119998Y-63814532D01*
X220893313Y-63834364D01*
X220893302Y-63834366D01*
X220673511Y-63893258D01*
X220673502Y-63893261D01*
X220467267Y-63989431D01*
X220467265Y-63989432D01*
X220280858Y-64119954D01*
X220119954Y-64280858D01*
X219989432Y-64467265D01*
X219989431Y-64467267D01*
X219962382Y-64525275D01*
X219916209Y-64577714D01*
X219849016Y-64596866D01*
X219782135Y-64576650D01*
X219737618Y-64525275D01*
X219725832Y-64500000D01*
X219710568Y-64467266D01*
X219580047Y-64280861D01*
X219580045Y-64280858D01*
X219419141Y-64119954D01*
X219232734Y-63989432D01*
X219232732Y-63989431D01*
X219026497Y-63893261D01*
X219026488Y-63893258D01*
X218806697Y-63834366D01*
X218806693Y-63834365D01*
X218806692Y-63834365D01*
X218806691Y-63834364D01*
X218806686Y-63834364D01*
X218580002Y-63814532D01*
X218579998Y-63814532D01*
X218353313Y-63834364D01*
X218353302Y-63834366D01*
X218133511Y-63893258D01*
X218133502Y-63893261D01*
X217927267Y-63989431D01*
X217927265Y-63989432D01*
X217740858Y-64119954D01*
X217579954Y-64280858D01*
X217449432Y-64467265D01*
X217449431Y-64467267D01*
X217422382Y-64525275D01*
X217376209Y-64577714D01*
X217309016Y-64596866D01*
X217242135Y-64576650D01*
X217197618Y-64525275D01*
X217185832Y-64500000D01*
X217170568Y-64467266D01*
X217040047Y-64280861D01*
X217040045Y-64280858D01*
X216879141Y-64119954D01*
X216692734Y-63989432D01*
X216692732Y-63989431D01*
X216486497Y-63893261D01*
X216486488Y-63893258D01*
X216266697Y-63834366D01*
X216266693Y-63834365D01*
X216266692Y-63834365D01*
X216266691Y-63834364D01*
X216266686Y-63834364D01*
X216040002Y-63814532D01*
X216039998Y-63814532D01*
X215813313Y-63834364D01*
X215813302Y-63834366D01*
X215593511Y-63893258D01*
X215593502Y-63893261D01*
X215387267Y-63989431D01*
X215387265Y-63989432D01*
X215200858Y-64119954D01*
X215039954Y-64280858D01*
X214909432Y-64467265D01*
X214909431Y-64467267D01*
X214882382Y-64525275D01*
X214836209Y-64577714D01*
X214769016Y-64596866D01*
X214702135Y-64576650D01*
X214657618Y-64525275D01*
X214645832Y-64500000D01*
X214630568Y-64467266D01*
X214500047Y-64280861D01*
X214500045Y-64280858D01*
X214339141Y-64119954D01*
X214152734Y-63989432D01*
X214152732Y-63989431D01*
X213946497Y-63893261D01*
X213946488Y-63893258D01*
X213726697Y-63834366D01*
X213726693Y-63834365D01*
X213726692Y-63834365D01*
X213726691Y-63834364D01*
X213726686Y-63834364D01*
X213500002Y-63814532D01*
X213499998Y-63814532D01*
X213273313Y-63834364D01*
X213273302Y-63834366D01*
X213053511Y-63893258D01*
X213053502Y-63893261D01*
X212847267Y-63989431D01*
X212847265Y-63989432D01*
X212660858Y-64119954D01*
X212499954Y-64280858D01*
X212482725Y-64305464D01*
X212428147Y-64349088D01*
X212358648Y-64356280D01*
X212296294Y-64324757D01*
X212260882Y-64264526D01*
X212257861Y-64247591D01*
X212254091Y-64212516D01*
X212203797Y-64077671D01*
X212203793Y-64077664D01*
X212117547Y-63962455D01*
X212117544Y-63962452D01*
X212002335Y-63876206D01*
X212002328Y-63876202D01*
X211867482Y-63825908D01*
X211867483Y-63825908D01*
X211807883Y-63819501D01*
X211807881Y-63819500D01*
X211807873Y-63819500D01*
X211807864Y-63819500D01*
X210112129Y-63819500D01*
X210112123Y-63819501D01*
X210052516Y-63825908D01*
X209917671Y-63876202D01*
X209917664Y-63876206D01*
X209802455Y-63962452D01*
X209802452Y-63962455D01*
X209716206Y-64077664D01*
X209716202Y-64077671D01*
X209665908Y-64212517D01*
X209659501Y-64272116D01*
X209659500Y-64272135D01*
X202566322Y-64272135D01*
X202414141Y-64119954D01*
X202227734Y-63989432D01*
X202227732Y-63989431D01*
X202021497Y-63893261D01*
X202021488Y-63893258D01*
X201801697Y-63834366D01*
X201801693Y-63834365D01*
X201801692Y-63834365D01*
X201801691Y-63834364D01*
X201801686Y-63834364D01*
X201575002Y-63814532D01*
X201574998Y-63814532D01*
X201348313Y-63834364D01*
X201348302Y-63834366D01*
X201128511Y-63893258D01*
X201128502Y-63893261D01*
X200922267Y-63989431D01*
X200922265Y-63989432D01*
X200735858Y-64119954D01*
X200574954Y-64280858D01*
X200444432Y-64467265D01*
X200444431Y-64467267D01*
X200417382Y-64525275D01*
X200371209Y-64577714D01*
X200304016Y-64596866D01*
X200237135Y-64576650D01*
X200192618Y-64525275D01*
X200180832Y-64500000D01*
X200165568Y-64467266D01*
X200035047Y-64280861D01*
X200035045Y-64280858D01*
X199874141Y-64119954D01*
X199687734Y-63989432D01*
X199687732Y-63989431D01*
X199481497Y-63893261D01*
X199481488Y-63893258D01*
X199261697Y-63834366D01*
X199261693Y-63834365D01*
X199261692Y-63834365D01*
X199261691Y-63834364D01*
X199261686Y-63834364D01*
X199035002Y-63814532D01*
X199034998Y-63814532D01*
X198808313Y-63834364D01*
X198808302Y-63834366D01*
X198588511Y-63893258D01*
X198588502Y-63893261D01*
X198382267Y-63989431D01*
X198382265Y-63989432D01*
X198195858Y-64119954D01*
X198034954Y-64280858D01*
X197904432Y-64467265D01*
X197904431Y-64467267D01*
X197877382Y-64525275D01*
X197831209Y-64577714D01*
X197764016Y-64596866D01*
X197697135Y-64576650D01*
X197652618Y-64525275D01*
X197640832Y-64500000D01*
X197625568Y-64467266D01*
X197495047Y-64280861D01*
X197495045Y-64280858D01*
X197334141Y-64119954D01*
X197147734Y-63989432D01*
X197147732Y-63989431D01*
X196941497Y-63893261D01*
X196941488Y-63893258D01*
X196721697Y-63834366D01*
X196721693Y-63834365D01*
X196721692Y-63834365D01*
X196721691Y-63834364D01*
X196721686Y-63834364D01*
X196495002Y-63814532D01*
X196494998Y-63814532D01*
X196268313Y-63834364D01*
X196268302Y-63834366D01*
X196048511Y-63893258D01*
X196048502Y-63893261D01*
X195842267Y-63989431D01*
X195842265Y-63989432D01*
X195655858Y-64119954D01*
X195494954Y-64280858D01*
X195364432Y-64467265D01*
X195364431Y-64467267D01*
X195337382Y-64525275D01*
X195291209Y-64577714D01*
X195224016Y-64596866D01*
X195157135Y-64576650D01*
X195112618Y-64525275D01*
X195100832Y-64500000D01*
X195085568Y-64467266D01*
X194955047Y-64280861D01*
X194955045Y-64280858D01*
X194794141Y-64119954D01*
X194607734Y-63989432D01*
X194607732Y-63989431D01*
X194401497Y-63893261D01*
X194401488Y-63893258D01*
X194181697Y-63834366D01*
X194181693Y-63834365D01*
X194181692Y-63834365D01*
X194181691Y-63834364D01*
X194181686Y-63834364D01*
X193955002Y-63814532D01*
X193954998Y-63814532D01*
X193728313Y-63834364D01*
X193728302Y-63834366D01*
X193508511Y-63893258D01*
X193508502Y-63893261D01*
X193302267Y-63989431D01*
X193302265Y-63989432D01*
X193115858Y-64119954D01*
X192954954Y-64280858D01*
X192824432Y-64467265D01*
X192824431Y-64467267D01*
X192797382Y-64525275D01*
X192751209Y-64577714D01*
X192684016Y-64596866D01*
X192617135Y-64576650D01*
X192572618Y-64525275D01*
X192560832Y-64500000D01*
X192545568Y-64467266D01*
X192415047Y-64280861D01*
X192415045Y-64280858D01*
X192254141Y-64119954D01*
X192067734Y-63989432D01*
X192067732Y-63989431D01*
X191861497Y-63893261D01*
X191861488Y-63893258D01*
X191641697Y-63834366D01*
X191641693Y-63834365D01*
X191641692Y-63834365D01*
X191641691Y-63834364D01*
X191641686Y-63834364D01*
X191415002Y-63814532D01*
X191414998Y-63814532D01*
X191188313Y-63834364D01*
X191188302Y-63834366D01*
X190968511Y-63893258D01*
X190968502Y-63893261D01*
X190762267Y-63989431D01*
X190762265Y-63989432D01*
X190575858Y-64119954D01*
X190414954Y-64280858D01*
X190284432Y-64467265D01*
X190284431Y-64467267D01*
X190257382Y-64525275D01*
X190211209Y-64577714D01*
X190144016Y-64596866D01*
X190077135Y-64576650D01*
X190032618Y-64525275D01*
X190020832Y-64500000D01*
X190005568Y-64467266D01*
X189875047Y-64280861D01*
X189875045Y-64280858D01*
X189714141Y-64119954D01*
X189527734Y-63989432D01*
X189527732Y-63989431D01*
X189321497Y-63893261D01*
X189321488Y-63893258D01*
X189101697Y-63834366D01*
X189101693Y-63834365D01*
X189101692Y-63834365D01*
X189101691Y-63834364D01*
X189101686Y-63834364D01*
X188875002Y-63814532D01*
X188874998Y-63814532D01*
X188648313Y-63834364D01*
X188648302Y-63834366D01*
X188428511Y-63893258D01*
X188428502Y-63893261D01*
X188222267Y-63989431D01*
X188222265Y-63989432D01*
X188035858Y-64119954D01*
X187874954Y-64280858D01*
X187857725Y-64305464D01*
X187803147Y-64349088D01*
X187733648Y-64356280D01*
X187671294Y-64324757D01*
X187635882Y-64264526D01*
X187632861Y-64247591D01*
X187629091Y-64212516D01*
X187578797Y-64077671D01*
X187578793Y-64077664D01*
X187492547Y-63962455D01*
X187492544Y-63962452D01*
X187377335Y-63876206D01*
X187377328Y-63876202D01*
X187242482Y-63825908D01*
X187242483Y-63825908D01*
X187182883Y-63819501D01*
X187182881Y-63819500D01*
X187182873Y-63819500D01*
X187182864Y-63819500D01*
X185487129Y-63819500D01*
X185487123Y-63819501D01*
X185427516Y-63825908D01*
X185292671Y-63876202D01*
X185292664Y-63876206D01*
X185177455Y-63962452D01*
X185177452Y-63962455D01*
X185091206Y-64077664D01*
X185091202Y-64077671D01*
X185040908Y-64212517D01*
X185034501Y-64272116D01*
X185034500Y-64272135D01*
X177066322Y-64272135D01*
X176914141Y-64119954D01*
X176727734Y-63989432D01*
X176727732Y-63989431D01*
X176521497Y-63893261D01*
X176521488Y-63893258D01*
X176301697Y-63834366D01*
X176301693Y-63834365D01*
X176301692Y-63834365D01*
X176301691Y-63834364D01*
X176301686Y-63834364D01*
X176075002Y-63814532D01*
X176074998Y-63814532D01*
X175848313Y-63834364D01*
X175848302Y-63834366D01*
X175628511Y-63893258D01*
X175628502Y-63893261D01*
X175422267Y-63989431D01*
X175422265Y-63989432D01*
X175235858Y-64119954D01*
X175074954Y-64280858D01*
X174944432Y-64467265D01*
X174944431Y-64467267D01*
X174917382Y-64525275D01*
X174871209Y-64577714D01*
X174804016Y-64596866D01*
X174737135Y-64576650D01*
X174692618Y-64525275D01*
X174680832Y-64500000D01*
X174665568Y-64467266D01*
X174535047Y-64280861D01*
X174535045Y-64280858D01*
X174374141Y-64119954D01*
X174187734Y-63989432D01*
X174187732Y-63989431D01*
X173981497Y-63893261D01*
X173981488Y-63893258D01*
X173761697Y-63834366D01*
X173761693Y-63834365D01*
X173761692Y-63834365D01*
X173761691Y-63834364D01*
X173761686Y-63834364D01*
X173535002Y-63814532D01*
X173534998Y-63814532D01*
X173308313Y-63834364D01*
X173308302Y-63834366D01*
X173088511Y-63893258D01*
X173088502Y-63893261D01*
X172882267Y-63989431D01*
X172882265Y-63989432D01*
X172695858Y-64119954D01*
X172534954Y-64280858D01*
X172404432Y-64467265D01*
X172404431Y-64467267D01*
X172377382Y-64525275D01*
X172331209Y-64577714D01*
X172264016Y-64596866D01*
X172197135Y-64576650D01*
X172152618Y-64525275D01*
X172140832Y-64500000D01*
X172125568Y-64467266D01*
X171995047Y-64280861D01*
X171995045Y-64280858D01*
X171834141Y-64119954D01*
X171647734Y-63989432D01*
X171647732Y-63989431D01*
X171441497Y-63893261D01*
X171441488Y-63893258D01*
X171221697Y-63834366D01*
X171221693Y-63834365D01*
X171221692Y-63834365D01*
X171221691Y-63834364D01*
X171221686Y-63834364D01*
X170995002Y-63814532D01*
X170994998Y-63814532D01*
X170768313Y-63834364D01*
X170768302Y-63834366D01*
X170548511Y-63893258D01*
X170548502Y-63893261D01*
X170342267Y-63989431D01*
X170342265Y-63989432D01*
X170155858Y-64119954D01*
X169994954Y-64280858D01*
X169864432Y-64467265D01*
X169864431Y-64467267D01*
X169837382Y-64525275D01*
X169791209Y-64577714D01*
X169724016Y-64596866D01*
X169657135Y-64576650D01*
X169612618Y-64525275D01*
X169600832Y-64500000D01*
X169585568Y-64467266D01*
X169455047Y-64280861D01*
X169455045Y-64280858D01*
X169294141Y-64119954D01*
X169107734Y-63989432D01*
X169107732Y-63989431D01*
X168901497Y-63893261D01*
X168901488Y-63893258D01*
X168681697Y-63834366D01*
X168681693Y-63834365D01*
X168681692Y-63834365D01*
X168681691Y-63834364D01*
X168681686Y-63834364D01*
X168455002Y-63814532D01*
X168454998Y-63814532D01*
X168228313Y-63834364D01*
X168228302Y-63834366D01*
X168008511Y-63893258D01*
X168008502Y-63893261D01*
X167802267Y-63989431D01*
X167802265Y-63989432D01*
X167615858Y-64119954D01*
X167454954Y-64280858D01*
X167324432Y-64467265D01*
X167324431Y-64467267D01*
X167297382Y-64525275D01*
X167251209Y-64577714D01*
X167184016Y-64596866D01*
X167117135Y-64576650D01*
X167072618Y-64525275D01*
X167060832Y-64500000D01*
X167045568Y-64467266D01*
X166915047Y-64280861D01*
X166915045Y-64280858D01*
X166754141Y-64119954D01*
X166567734Y-63989432D01*
X166567732Y-63989431D01*
X166361497Y-63893261D01*
X166361488Y-63893258D01*
X166141697Y-63834366D01*
X166141693Y-63834365D01*
X166141692Y-63834365D01*
X166141691Y-63834364D01*
X166141686Y-63834364D01*
X165915002Y-63814532D01*
X165914998Y-63814532D01*
X165688313Y-63834364D01*
X165688302Y-63834366D01*
X165468511Y-63893258D01*
X165468502Y-63893261D01*
X165262267Y-63989431D01*
X165262265Y-63989432D01*
X165075858Y-64119954D01*
X164914954Y-64280858D01*
X164784432Y-64467265D01*
X164784431Y-64467267D01*
X164757382Y-64525275D01*
X164711209Y-64577714D01*
X164644016Y-64596866D01*
X164577135Y-64576650D01*
X164532618Y-64525275D01*
X164520832Y-64500000D01*
X164505568Y-64467266D01*
X164375047Y-64280861D01*
X164375045Y-64280858D01*
X164214141Y-64119954D01*
X164027734Y-63989432D01*
X164027732Y-63989431D01*
X163821497Y-63893261D01*
X163821488Y-63893258D01*
X163601697Y-63834366D01*
X163601693Y-63834365D01*
X163601692Y-63834365D01*
X163601691Y-63834364D01*
X163601686Y-63834364D01*
X163375002Y-63814532D01*
X163374998Y-63814532D01*
X163148313Y-63834364D01*
X163148302Y-63834366D01*
X162928511Y-63893258D01*
X162928502Y-63893261D01*
X162722267Y-63989431D01*
X162722265Y-63989432D01*
X162535858Y-64119954D01*
X162374954Y-64280858D01*
X162357725Y-64305464D01*
X162303147Y-64349088D01*
X162233648Y-64356280D01*
X162171294Y-64324757D01*
X162135882Y-64264526D01*
X162132861Y-64247591D01*
X162129091Y-64212516D01*
X162078797Y-64077671D01*
X162078793Y-64077664D01*
X161992547Y-63962455D01*
X161992544Y-63962452D01*
X161877335Y-63876206D01*
X161877328Y-63876202D01*
X161742482Y-63825908D01*
X161742483Y-63825908D01*
X161682883Y-63819501D01*
X161682881Y-63819500D01*
X161682873Y-63819500D01*
X161682864Y-63819500D01*
X159987129Y-63819500D01*
X159987123Y-63819501D01*
X159927516Y-63825908D01*
X159792671Y-63876202D01*
X159792664Y-63876206D01*
X159677455Y-63962452D01*
X159677452Y-63962455D01*
X159591206Y-64077664D01*
X159591202Y-64077671D01*
X159540908Y-64212517D01*
X159534501Y-64272116D01*
X159534500Y-64272135D01*
X155500500Y-64272135D01*
X155500500Y-61239577D01*
X199434018Y-61239577D01*
X199434018Y-61239584D01*
X199454213Y-61418830D01*
X199454214Y-61418835D01*
X199513794Y-61589104D01*
X199594109Y-61716923D01*
X199609767Y-61741843D01*
X199737321Y-61869397D01*
X199890061Y-61965370D01*
X200060328Y-62024949D01*
X200060333Y-62024950D01*
X200239579Y-62045146D01*
X200239583Y-62045146D01*
X200239587Y-62045146D01*
X200418832Y-62024950D01*
X200418835Y-62024949D01*
X200418838Y-62024949D01*
X200589105Y-61965370D01*
X200741845Y-61869397D01*
X200869399Y-61741843D01*
X200965372Y-61589103D01*
X201024951Y-61418836D01*
X201040247Y-61283081D01*
X201045148Y-61239584D01*
X201045148Y-61239577D01*
X201024952Y-61060331D01*
X201024951Y-61060326D01*
X200965371Y-60890057D01*
X200869398Y-60737318D01*
X200741845Y-60609765D01*
X200589106Y-60513792D01*
X200418837Y-60454212D01*
X200418832Y-60454211D01*
X200239587Y-60434016D01*
X200239579Y-60434016D01*
X200060333Y-60454211D01*
X200060328Y-60454212D01*
X199890059Y-60513792D01*
X199737320Y-60609765D01*
X199609767Y-60737318D01*
X199513794Y-60890057D01*
X199454214Y-61060326D01*
X199454213Y-61060331D01*
X199434018Y-61239577D01*
X155500500Y-61239577D01*
X155500500Y-59499999D01*
X263319464Y-59499999D01*
X263319464Y-59500000D01*
X263339564Y-59716918D01*
X263399184Y-59926462D01*
X263496288Y-60121472D01*
X263627574Y-60295324D01*
X263751572Y-60408363D01*
X263787854Y-60468074D01*
X263786093Y-60537922D01*
X263751572Y-60591637D01*
X263627574Y-60704675D01*
X263496288Y-60878527D01*
X263399184Y-61073537D01*
X263339564Y-61283081D01*
X263319464Y-61499999D01*
X263319464Y-61500000D01*
X263339564Y-61716918D01*
X263339564Y-61716920D01*
X263339565Y-61716923D01*
X263399183Y-61926459D01*
X263399184Y-61926462D01*
X263496288Y-62121472D01*
X263627574Y-62295324D01*
X263751572Y-62408363D01*
X263787854Y-62468074D01*
X263786093Y-62537922D01*
X263751572Y-62591637D01*
X263627574Y-62704675D01*
X263496288Y-62878527D01*
X263399184Y-63073537D01*
X263339564Y-63283081D01*
X263319464Y-63499999D01*
X263319464Y-63500000D01*
X263339564Y-63716918D01*
X263339564Y-63716920D01*
X263339565Y-63716923D01*
X263399183Y-63926459D01*
X263399184Y-63926462D01*
X263496288Y-64121472D01*
X263627574Y-64295324D01*
X263751572Y-64408363D01*
X263787854Y-64468074D01*
X263786093Y-64537922D01*
X263751572Y-64591637D01*
X263627574Y-64704675D01*
X263496288Y-64878527D01*
X263399184Y-65073537D01*
X263339564Y-65283081D01*
X263319464Y-65499999D01*
X263319464Y-65500000D01*
X263339564Y-65716918D01*
X263339564Y-65716920D01*
X263339565Y-65716923D01*
X263388242Y-65888006D01*
X263399184Y-65926462D01*
X263492703Y-66114272D01*
X263496288Y-66121472D01*
X263627573Y-66295322D01*
X263788568Y-66442088D01*
X263788575Y-66442092D01*
X263788576Y-66442093D01*
X263973786Y-66556770D01*
X263973792Y-66556773D01*
X263977473Y-66558199D01*
X264176931Y-66635470D01*
X264391074Y-66675500D01*
X264391076Y-66675500D01*
X264608924Y-66675500D01*
X264608926Y-66675500D01*
X264823069Y-66635470D01*
X265026210Y-66556772D01*
X265211432Y-66442088D01*
X265372427Y-66295322D01*
X265503712Y-66121472D01*
X265600817Y-65926459D01*
X265660435Y-65716923D01*
X265680536Y-65500000D01*
X265660435Y-65283077D01*
X265600817Y-65073541D01*
X265503712Y-64878528D01*
X265372427Y-64704678D01*
X265248423Y-64591634D01*
X265212145Y-64531927D01*
X265213905Y-64462079D01*
X265248423Y-64408365D01*
X265372427Y-64295322D01*
X265503712Y-64121472D01*
X265600817Y-63926459D01*
X265660435Y-63716923D01*
X265680536Y-63500000D01*
X265660435Y-63283077D01*
X265600817Y-63073541D01*
X265503712Y-62878528D01*
X265372427Y-62704678D01*
X265248423Y-62591634D01*
X265212145Y-62531927D01*
X265213905Y-62462079D01*
X265248423Y-62408365D01*
X265372427Y-62295322D01*
X265503712Y-62121472D01*
X265600817Y-61926459D01*
X265660435Y-61716923D01*
X265680536Y-61500000D01*
X265660435Y-61283077D01*
X265600817Y-61073541D01*
X265503712Y-60878528D01*
X265372427Y-60704678D01*
X265248423Y-60591634D01*
X265212145Y-60531927D01*
X265213905Y-60462079D01*
X265248423Y-60408365D01*
X265372427Y-60295322D01*
X265503712Y-60121472D01*
X265600817Y-59926459D01*
X265660435Y-59716923D01*
X265680536Y-59500000D01*
X265660435Y-59283077D01*
X265600817Y-59073541D01*
X265503712Y-58878528D01*
X265421950Y-58770257D01*
X265397259Y-58704898D01*
X265411824Y-58636563D01*
X265446594Y-58596265D01*
X265532190Y-58532186D01*
X265618350Y-58417093D01*
X265618354Y-58417086D01*
X265668596Y-58282379D01*
X265668598Y-58282372D01*
X265674999Y-58222844D01*
X265675000Y-58222827D01*
X265675000Y-57750000D01*
X264815686Y-57750000D01*
X264820080Y-57745606D01*
X264872741Y-57654394D01*
X264900000Y-57552661D01*
X264900000Y-57447339D01*
X264872741Y-57345606D01*
X264820080Y-57254394D01*
X264815686Y-57250000D01*
X265675000Y-57250000D01*
X265675000Y-56777172D01*
X265674999Y-56777155D01*
X265668598Y-56717627D01*
X265668596Y-56717620D01*
X265618354Y-56582913D01*
X265618350Y-56582906D01*
X265532190Y-56467812D01*
X265532187Y-56467809D01*
X265417093Y-56381649D01*
X265417086Y-56381645D01*
X265282379Y-56331403D01*
X265282372Y-56331401D01*
X265222844Y-56325000D01*
X264750000Y-56325000D01*
X264750000Y-57184314D01*
X264745606Y-57179920D01*
X264654394Y-57127259D01*
X264552661Y-57100000D01*
X264447339Y-57100000D01*
X264345606Y-57127259D01*
X264254394Y-57179920D01*
X264250000Y-57184314D01*
X264250000Y-56325000D01*
X263777155Y-56325000D01*
X263717627Y-56331401D01*
X263717620Y-56331403D01*
X263582913Y-56381645D01*
X263582906Y-56381649D01*
X263467812Y-56467809D01*
X263467809Y-56467812D01*
X263381649Y-56582906D01*
X263381645Y-56582913D01*
X263331403Y-56717620D01*
X263331401Y-56717627D01*
X263325000Y-56777155D01*
X263325000Y-57250000D01*
X264184314Y-57250000D01*
X264179920Y-57254394D01*
X264127259Y-57345606D01*
X264100000Y-57447339D01*
X264100000Y-57552661D01*
X264127259Y-57654394D01*
X264179920Y-57745606D01*
X264184314Y-57750000D01*
X263325000Y-57750000D01*
X263325000Y-58222844D01*
X263331401Y-58282372D01*
X263331403Y-58282379D01*
X263381645Y-58417086D01*
X263381649Y-58417093D01*
X263467809Y-58532186D01*
X263553405Y-58596264D01*
X263595276Y-58652198D01*
X263600260Y-58721890D01*
X263578049Y-58770257D01*
X263496288Y-58878528D01*
X263399184Y-59073537D01*
X263339564Y-59283081D01*
X263319464Y-59499999D01*
X155500500Y-59499999D01*
X155500500Y-57249999D01*
X159556127Y-57249999D01*
X159556128Y-57250000D01*
X160519314Y-57250000D01*
X160514920Y-57254394D01*
X160462259Y-57345606D01*
X160435000Y-57447339D01*
X160435000Y-57552661D01*
X160462259Y-57654394D01*
X160514920Y-57745606D01*
X160519314Y-57750000D01*
X159556128Y-57750000D01*
X159608730Y-57946317D01*
X159608734Y-57946326D01*
X159704865Y-58152482D01*
X159835342Y-58338820D01*
X159996179Y-58499657D01*
X160182517Y-58630134D01*
X160388673Y-58726265D01*
X160388682Y-58726269D01*
X160584999Y-58778872D01*
X160585000Y-58778871D01*
X160585000Y-57815686D01*
X160589394Y-57820080D01*
X160680606Y-57872741D01*
X160782339Y-57900000D01*
X160887661Y-57900000D01*
X160989394Y-57872741D01*
X161080606Y-57820080D01*
X161085000Y-57815686D01*
X161085000Y-58778872D01*
X161281317Y-58726269D01*
X161281326Y-58726265D01*
X161487482Y-58630134D01*
X161673820Y-58499657D01*
X161834657Y-58338820D01*
X161965132Y-58152484D01*
X161992341Y-58094134D01*
X162038513Y-58041695D01*
X162105707Y-58022542D01*
X162172588Y-58042757D01*
X162217106Y-58094133D01*
X162244431Y-58152732D01*
X162244432Y-58152734D01*
X162374954Y-58339141D01*
X162535858Y-58500045D01*
X162535861Y-58500047D01*
X162722266Y-58630568D01*
X162928504Y-58726739D01*
X163148308Y-58785635D01*
X163310230Y-58799801D01*
X163374998Y-58805468D01*
X163375000Y-58805468D01*
X163375002Y-58805468D01*
X163431673Y-58800509D01*
X163601692Y-58785635D01*
X163821496Y-58726739D01*
X164027734Y-58630568D01*
X164214139Y-58500047D01*
X164375047Y-58339139D01*
X164505568Y-58152734D01*
X164532618Y-58094724D01*
X164578790Y-58042285D01*
X164645983Y-58023133D01*
X164712865Y-58043348D01*
X164757382Y-58094725D01*
X164784429Y-58152728D01*
X164784432Y-58152734D01*
X164914954Y-58339141D01*
X165075858Y-58500045D01*
X165075861Y-58500047D01*
X165262266Y-58630568D01*
X165468504Y-58726739D01*
X165688308Y-58785635D01*
X165850230Y-58799801D01*
X165914998Y-58805468D01*
X165915000Y-58805468D01*
X165915002Y-58805468D01*
X165971673Y-58800509D01*
X166141692Y-58785635D01*
X166361496Y-58726739D01*
X166567734Y-58630568D01*
X166754139Y-58500047D01*
X166915047Y-58339139D01*
X167045568Y-58152734D01*
X167072618Y-58094724D01*
X167118790Y-58042285D01*
X167185983Y-58023133D01*
X167252865Y-58043348D01*
X167297382Y-58094725D01*
X167324429Y-58152728D01*
X167324432Y-58152734D01*
X167454954Y-58339141D01*
X167615858Y-58500045D01*
X167615861Y-58500047D01*
X167802266Y-58630568D01*
X168008504Y-58726739D01*
X168228308Y-58785635D01*
X168390230Y-58799801D01*
X168454998Y-58805468D01*
X168455000Y-58805468D01*
X168455002Y-58805468D01*
X168511673Y-58800509D01*
X168681692Y-58785635D01*
X168901496Y-58726739D01*
X169107734Y-58630568D01*
X169294139Y-58500047D01*
X169455047Y-58339139D01*
X169585568Y-58152734D01*
X169612618Y-58094724D01*
X169658790Y-58042285D01*
X169725983Y-58023133D01*
X169792865Y-58043348D01*
X169837382Y-58094725D01*
X169864429Y-58152728D01*
X169864432Y-58152734D01*
X169994954Y-58339141D01*
X170155858Y-58500045D01*
X170155861Y-58500047D01*
X170342266Y-58630568D01*
X170548504Y-58726739D01*
X170768308Y-58785635D01*
X170930230Y-58799801D01*
X170994998Y-58805468D01*
X170995000Y-58805468D01*
X170995002Y-58805468D01*
X171051673Y-58800509D01*
X171221692Y-58785635D01*
X171441496Y-58726739D01*
X171647734Y-58630568D01*
X171834139Y-58500047D01*
X171995047Y-58339139D01*
X172125568Y-58152734D01*
X172152618Y-58094724D01*
X172198790Y-58042285D01*
X172265983Y-58023133D01*
X172332865Y-58043348D01*
X172377382Y-58094725D01*
X172404429Y-58152728D01*
X172404432Y-58152734D01*
X172534954Y-58339141D01*
X172695858Y-58500045D01*
X172695861Y-58500047D01*
X172882266Y-58630568D01*
X173088504Y-58726739D01*
X173308308Y-58785635D01*
X173470230Y-58799801D01*
X173534998Y-58805468D01*
X173535000Y-58805468D01*
X173535002Y-58805468D01*
X173591673Y-58800509D01*
X173761692Y-58785635D01*
X173981496Y-58726739D01*
X174187734Y-58630568D01*
X174374139Y-58500047D01*
X174535047Y-58339139D01*
X174665568Y-58152734D01*
X174692618Y-58094724D01*
X174738790Y-58042285D01*
X174805983Y-58023133D01*
X174872865Y-58043348D01*
X174917382Y-58094725D01*
X174944429Y-58152728D01*
X174944432Y-58152734D01*
X175074954Y-58339141D01*
X175235858Y-58500045D01*
X175235861Y-58500047D01*
X175422266Y-58630568D01*
X175628504Y-58726739D01*
X175848308Y-58785635D01*
X176010230Y-58799801D01*
X176074998Y-58805468D01*
X176075000Y-58805468D01*
X176075002Y-58805468D01*
X176131673Y-58800509D01*
X176301692Y-58785635D01*
X176521496Y-58726739D01*
X176727734Y-58630568D01*
X176914139Y-58500047D01*
X177075047Y-58339139D01*
X177205568Y-58152734D01*
X177301739Y-57946496D01*
X177360635Y-57726692D01*
X177380468Y-57500000D01*
X177379797Y-57492335D01*
X177374801Y-57435230D01*
X177360635Y-57273308D01*
X177354389Y-57249999D01*
X185056127Y-57249999D01*
X185056128Y-57250000D01*
X186019314Y-57250000D01*
X186014920Y-57254394D01*
X185962259Y-57345606D01*
X185935000Y-57447339D01*
X185935000Y-57552661D01*
X185962259Y-57654394D01*
X186014920Y-57745606D01*
X186019314Y-57750000D01*
X185056128Y-57750000D01*
X185108730Y-57946317D01*
X185108734Y-57946326D01*
X185204865Y-58152482D01*
X185335342Y-58338820D01*
X185496179Y-58499657D01*
X185682517Y-58630134D01*
X185888673Y-58726265D01*
X185888682Y-58726269D01*
X186084999Y-58778872D01*
X186085000Y-58778871D01*
X186085000Y-57815686D01*
X186089394Y-57820080D01*
X186180606Y-57872741D01*
X186282339Y-57900000D01*
X186387661Y-57900000D01*
X186489394Y-57872741D01*
X186580606Y-57820080D01*
X186585000Y-57815686D01*
X186585000Y-58778872D01*
X186781317Y-58726269D01*
X186781326Y-58726265D01*
X186987482Y-58630134D01*
X187173820Y-58499657D01*
X187334657Y-58338820D01*
X187465132Y-58152484D01*
X187492341Y-58094134D01*
X187538513Y-58041695D01*
X187605707Y-58022542D01*
X187672588Y-58042757D01*
X187717106Y-58094133D01*
X187744431Y-58152732D01*
X187744432Y-58152734D01*
X187874954Y-58339141D01*
X188035858Y-58500045D01*
X188035861Y-58500047D01*
X188222266Y-58630568D01*
X188428504Y-58726739D01*
X188648308Y-58785635D01*
X188810230Y-58799801D01*
X188874998Y-58805468D01*
X188875000Y-58805468D01*
X188875002Y-58805468D01*
X188931673Y-58800509D01*
X189101692Y-58785635D01*
X189321496Y-58726739D01*
X189527734Y-58630568D01*
X189714139Y-58500047D01*
X189875047Y-58339139D01*
X190005568Y-58152734D01*
X190032618Y-58094724D01*
X190078790Y-58042285D01*
X190145983Y-58023133D01*
X190212865Y-58043348D01*
X190257382Y-58094725D01*
X190284429Y-58152728D01*
X190284432Y-58152734D01*
X190414954Y-58339141D01*
X190575858Y-58500045D01*
X190575861Y-58500047D01*
X190762266Y-58630568D01*
X190968504Y-58726739D01*
X191188308Y-58785635D01*
X191350230Y-58799801D01*
X191414998Y-58805468D01*
X191415000Y-58805468D01*
X191415002Y-58805468D01*
X191471673Y-58800509D01*
X191641692Y-58785635D01*
X191861496Y-58726739D01*
X192067734Y-58630568D01*
X192254139Y-58500047D01*
X192415047Y-58339139D01*
X192545568Y-58152734D01*
X192572618Y-58094724D01*
X192618790Y-58042285D01*
X192685983Y-58023133D01*
X192752865Y-58043348D01*
X192797382Y-58094725D01*
X192824429Y-58152728D01*
X192824432Y-58152734D01*
X192954954Y-58339141D01*
X193115858Y-58500045D01*
X193115861Y-58500047D01*
X193302266Y-58630568D01*
X193508504Y-58726739D01*
X193728308Y-58785635D01*
X193890230Y-58799801D01*
X193954998Y-58805468D01*
X193955000Y-58805468D01*
X193955002Y-58805468D01*
X194011673Y-58800509D01*
X194181692Y-58785635D01*
X194401496Y-58726739D01*
X194607734Y-58630568D01*
X194794139Y-58500047D01*
X194955047Y-58339139D01*
X195085568Y-58152734D01*
X195112618Y-58094724D01*
X195158790Y-58042285D01*
X195225983Y-58023133D01*
X195292865Y-58043348D01*
X195337382Y-58094725D01*
X195364429Y-58152728D01*
X195364432Y-58152734D01*
X195494954Y-58339141D01*
X195655858Y-58500045D01*
X195655861Y-58500047D01*
X195842266Y-58630568D01*
X196048504Y-58726739D01*
X196268308Y-58785635D01*
X196430230Y-58799801D01*
X196494998Y-58805468D01*
X196495000Y-58805468D01*
X196495002Y-58805468D01*
X196551673Y-58800509D01*
X196721692Y-58785635D01*
X196941496Y-58726739D01*
X197147734Y-58630568D01*
X197334139Y-58500047D01*
X197495047Y-58339139D01*
X197625568Y-58152734D01*
X197652618Y-58094724D01*
X197698790Y-58042285D01*
X197765983Y-58023133D01*
X197832865Y-58043348D01*
X197877382Y-58094725D01*
X197904429Y-58152728D01*
X197904432Y-58152734D01*
X198034954Y-58339141D01*
X198195858Y-58500045D01*
X198195861Y-58500047D01*
X198382266Y-58630568D01*
X198588504Y-58726739D01*
X198808308Y-58785635D01*
X198970230Y-58799801D01*
X199034998Y-58805468D01*
X199035000Y-58805468D01*
X199035002Y-58805468D01*
X199091673Y-58800509D01*
X199261692Y-58785635D01*
X199481496Y-58726739D01*
X199687734Y-58630568D01*
X199874139Y-58500047D01*
X200035047Y-58339139D01*
X200165568Y-58152734D01*
X200192618Y-58094724D01*
X200238790Y-58042285D01*
X200305983Y-58023133D01*
X200372865Y-58043348D01*
X200417382Y-58094725D01*
X200444429Y-58152728D01*
X200444432Y-58152734D01*
X200574954Y-58339141D01*
X200735858Y-58500045D01*
X200735861Y-58500047D01*
X200922266Y-58630568D01*
X201128504Y-58726739D01*
X201348308Y-58785635D01*
X201510230Y-58799801D01*
X201574998Y-58805468D01*
X201575000Y-58805468D01*
X201575002Y-58805468D01*
X201631673Y-58800509D01*
X201801692Y-58785635D01*
X202021496Y-58726739D01*
X202227734Y-58630568D01*
X202414139Y-58500047D01*
X202575047Y-58339139D01*
X202705568Y-58152734D01*
X202801739Y-57946496D01*
X202860635Y-57726692D01*
X202880468Y-57500000D01*
X202879797Y-57492335D01*
X202874801Y-57435230D01*
X202860635Y-57273308D01*
X202854389Y-57249999D01*
X209681127Y-57249999D01*
X209681128Y-57250000D01*
X210644314Y-57250000D01*
X210639920Y-57254394D01*
X210587259Y-57345606D01*
X210560000Y-57447339D01*
X210560000Y-57552661D01*
X210587259Y-57654394D01*
X210639920Y-57745606D01*
X210644314Y-57750000D01*
X209681128Y-57750000D01*
X209733730Y-57946317D01*
X209733734Y-57946326D01*
X209829865Y-58152482D01*
X209960342Y-58338820D01*
X210121179Y-58499657D01*
X210307517Y-58630134D01*
X210513673Y-58726265D01*
X210513682Y-58726269D01*
X210709999Y-58778872D01*
X210710000Y-58778871D01*
X210710000Y-57815686D01*
X210714394Y-57820080D01*
X210805606Y-57872741D01*
X210907339Y-57900000D01*
X211012661Y-57900000D01*
X211114394Y-57872741D01*
X211205606Y-57820080D01*
X211210000Y-57815686D01*
X211210000Y-58778872D01*
X211406317Y-58726269D01*
X211406326Y-58726265D01*
X211612482Y-58630134D01*
X211798820Y-58499657D01*
X211959657Y-58338820D01*
X212090132Y-58152484D01*
X212117341Y-58094134D01*
X212163513Y-58041695D01*
X212230707Y-58022542D01*
X212297588Y-58042757D01*
X212342106Y-58094133D01*
X212369431Y-58152732D01*
X212369432Y-58152734D01*
X212499954Y-58339141D01*
X212660858Y-58500045D01*
X212660861Y-58500047D01*
X212847266Y-58630568D01*
X213053504Y-58726739D01*
X213273308Y-58785635D01*
X213435230Y-58799801D01*
X213499998Y-58805468D01*
X213500000Y-58805468D01*
X213500002Y-58805468D01*
X213556673Y-58800509D01*
X213726692Y-58785635D01*
X213946496Y-58726739D01*
X214152734Y-58630568D01*
X214339139Y-58500047D01*
X214500047Y-58339139D01*
X214630568Y-58152734D01*
X214657618Y-58094724D01*
X214703790Y-58042285D01*
X214770983Y-58023133D01*
X214837865Y-58043348D01*
X214882382Y-58094725D01*
X214909429Y-58152728D01*
X214909432Y-58152734D01*
X215039954Y-58339141D01*
X215200858Y-58500045D01*
X215200861Y-58500047D01*
X215387266Y-58630568D01*
X215593504Y-58726739D01*
X215813308Y-58785635D01*
X215975230Y-58799801D01*
X216039998Y-58805468D01*
X216040000Y-58805468D01*
X216040002Y-58805468D01*
X216096673Y-58800509D01*
X216266692Y-58785635D01*
X216486496Y-58726739D01*
X216692734Y-58630568D01*
X216879139Y-58500047D01*
X217040047Y-58339139D01*
X217170568Y-58152734D01*
X217197618Y-58094724D01*
X217243790Y-58042285D01*
X217310983Y-58023133D01*
X217377865Y-58043348D01*
X217422382Y-58094725D01*
X217449429Y-58152728D01*
X217449432Y-58152734D01*
X217579954Y-58339141D01*
X217740858Y-58500045D01*
X217740861Y-58500047D01*
X217927266Y-58630568D01*
X218133504Y-58726739D01*
X218353308Y-58785635D01*
X218515230Y-58799801D01*
X218579998Y-58805468D01*
X218580000Y-58805468D01*
X218580002Y-58805468D01*
X218636673Y-58800509D01*
X218806692Y-58785635D01*
X219026496Y-58726739D01*
X219232734Y-58630568D01*
X219419139Y-58500047D01*
X219580047Y-58339139D01*
X219710568Y-58152734D01*
X219737618Y-58094724D01*
X219783790Y-58042285D01*
X219850983Y-58023133D01*
X219917865Y-58043348D01*
X219962382Y-58094725D01*
X219989429Y-58152728D01*
X219989432Y-58152734D01*
X220119954Y-58339141D01*
X220280858Y-58500045D01*
X220280861Y-58500047D01*
X220467266Y-58630568D01*
X220673504Y-58726739D01*
X220893308Y-58785635D01*
X221055230Y-58799801D01*
X221119998Y-58805468D01*
X221120000Y-58805468D01*
X221120002Y-58805468D01*
X221176673Y-58800509D01*
X221346692Y-58785635D01*
X221566496Y-58726739D01*
X221772734Y-58630568D01*
X221959139Y-58500047D01*
X222120047Y-58339139D01*
X222250568Y-58152734D01*
X222277618Y-58094724D01*
X222323790Y-58042285D01*
X222390983Y-58023133D01*
X222457865Y-58043348D01*
X222502382Y-58094725D01*
X222529429Y-58152728D01*
X222529432Y-58152734D01*
X222659954Y-58339141D01*
X222820858Y-58500045D01*
X222820861Y-58500047D01*
X223007266Y-58630568D01*
X223213504Y-58726739D01*
X223433308Y-58785635D01*
X223595230Y-58799801D01*
X223659998Y-58805468D01*
X223660000Y-58805468D01*
X223660002Y-58805468D01*
X223716673Y-58800509D01*
X223886692Y-58785635D01*
X224106496Y-58726739D01*
X224312734Y-58630568D01*
X224499139Y-58500047D01*
X224660047Y-58339139D01*
X224790568Y-58152734D01*
X224817618Y-58094724D01*
X224863790Y-58042285D01*
X224930983Y-58023133D01*
X224997865Y-58043348D01*
X225042382Y-58094725D01*
X225069429Y-58152728D01*
X225069432Y-58152734D01*
X225199954Y-58339141D01*
X225360858Y-58500045D01*
X225360861Y-58500047D01*
X225547266Y-58630568D01*
X225753504Y-58726739D01*
X225973308Y-58785635D01*
X226135230Y-58799801D01*
X226199998Y-58805468D01*
X226200000Y-58805468D01*
X226200002Y-58805468D01*
X226256673Y-58800509D01*
X226426692Y-58785635D01*
X226646496Y-58726739D01*
X226852734Y-58630568D01*
X227039139Y-58500047D01*
X227200047Y-58339139D01*
X227330568Y-58152734D01*
X227426739Y-57946496D01*
X227485635Y-57726692D01*
X227505468Y-57500000D01*
X227504797Y-57492335D01*
X227499801Y-57435230D01*
X227485635Y-57273308D01*
X227426739Y-57053504D01*
X227330568Y-56847266D01*
X227200047Y-56660861D01*
X227200046Y-56660860D01*
X227200045Y-56660858D01*
X227039185Y-56499998D01*
X244654532Y-56499998D01*
X244654532Y-56500001D01*
X244674364Y-56726686D01*
X244674366Y-56726697D01*
X244733258Y-56946488D01*
X244733261Y-56946497D01*
X244829431Y-57152732D01*
X244829432Y-57152734D01*
X244959954Y-57339141D01*
X245120858Y-57500045D01*
X245120861Y-57500047D01*
X245307266Y-57630568D01*
X245513504Y-57726739D01*
X245733308Y-57785635D01*
X245895230Y-57799801D01*
X245959998Y-57805468D01*
X245960000Y-57805468D01*
X245960002Y-57805468D01*
X246016673Y-57800509D01*
X246186692Y-57785635D01*
X246406496Y-57726739D01*
X246612734Y-57630568D01*
X246799139Y-57500047D01*
X246960047Y-57339139D01*
X247025278Y-57245977D01*
X247079854Y-57202353D01*
X247149352Y-57195159D01*
X247211707Y-57226681D01*
X247247122Y-57286911D01*
X247250143Y-57303847D01*
X247255909Y-57357483D01*
X247306202Y-57492328D01*
X247306206Y-57492335D01*
X247392452Y-57607544D01*
X247392455Y-57607547D01*
X247507664Y-57693793D01*
X247507671Y-57693797D01*
X247642517Y-57744091D01*
X247642516Y-57744091D01*
X247649444Y-57744835D01*
X247702127Y-57750500D01*
X249297872Y-57750499D01*
X249357483Y-57744091D01*
X249492331Y-57693796D01*
X249607546Y-57607546D01*
X249693796Y-57492331D01*
X249744091Y-57357483D01*
X249749858Y-57303842D01*
X249776593Y-57239296D01*
X249833985Y-57199447D01*
X249903810Y-57196952D01*
X249963900Y-57232604D01*
X249974721Y-57245978D01*
X250039954Y-57339141D01*
X250200858Y-57500045D01*
X250200861Y-57500047D01*
X250387266Y-57630568D01*
X250593504Y-57726739D01*
X250813308Y-57785635D01*
X250975230Y-57799801D01*
X251039998Y-57805468D01*
X251040000Y-57805468D01*
X251040002Y-57805468D01*
X251096673Y-57800509D01*
X251266692Y-57785635D01*
X251486496Y-57726739D01*
X251692734Y-57630568D01*
X251879139Y-57500047D01*
X252040047Y-57339139D01*
X252170568Y-57152734D01*
X252266739Y-56946496D01*
X252325635Y-56726692D01*
X252345468Y-56500000D01*
X252325635Y-56273308D01*
X252279125Y-56099730D01*
X252266741Y-56053511D01*
X252266738Y-56053502D01*
X252170568Y-55847266D01*
X252040047Y-55660861D01*
X252040045Y-55660858D01*
X251879141Y-55499954D01*
X251692734Y-55369432D01*
X251692732Y-55369431D01*
X251486497Y-55273261D01*
X251486488Y-55273258D01*
X251266697Y-55214366D01*
X251266693Y-55214365D01*
X251266692Y-55214365D01*
X251266691Y-55214364D01*
X251266686Y-55214364D01*
X251040002Y-55194532D01*
X251039998Y-55194532D01*
X250813313Y-55214364D01*
X250813302Y-55214366D01*
X250593511Y-55273258D01*
X250593502Y-55273261D01*
X250387267Y-55369431D01*
X250387265Y-55369432D01*
X250200858Y-55499954D01*
X250039956Y-55660856D01*
X249974721Y-55754022D01*
X249920144Y-55797646D01*
X249850645Y-55804839D01*
X249788291Y-55773317D01*
X249752877Y-55713087D01*
X249749856Y-55696150D01*
X249744091Y-55642516D01*
X249693797Y-55507671D01*
X249693793Y-55507664D01*
X249607547Y-55392455D01*
X249607544Y-55392452D01*
X249492335Y-55306206D01*
X249492328Y-55306202D01*
X249357482Y-55255908D01*
X249357483Y-55255908D01*
X249297883Y-55249501D01*
X249297881Y-55249500D01*
X249297873Y-55249500D01*
X249297864Y-55249500D01*
X247702129Y-55249500D01*
X247702123Y-55249501D01*
X247642516Y-55255908D01*
X247507671Y-55306202D01*
X247507664Y-55306206D01*
X247392455Y-55392452D01*
X247392452Y-55392455D01*
X247306206Y-55507664D01*
X247306202Y-55507671D01*
X247255908Y-55642516D01*
X247250142Y-55696154D01*
X247223404Y-55760705D01*
X247166012Y-55800553D01*
X247096186Y-55803046D01*
X247036098Y-55767393D01*
X247025278Y-55754021D01*
X246960045Y-55660858D01*
X246799141Y-55499954D01*
X246612734Y-55369432D01*
X246612732Y-55369431D01*
X246406497Y-55273261D01*
X246406488Y-55273258D01*
X246186697Y-55214366D01*
X246186693Y-55214365D01*
X246186692Y-55214365D01*
X246186691Y-55214364D01*
X246186686Y-55214364D01*
X245960002Y-55194532D01*
X245959998Y-55194532D01*
X245733313Y-55214364D01*
X245733302Y-55214366D01*
X245513511Y-55273258D01*
X245513502Y-55273261D01*
X245307267Y-55369431D01*
X245307265Y-55369432D01*
X245120858Y-55499954D01*
X244959954Y-55660858D01*
X244829432Y-55847265D01*
X244829431Y-55847267D01*
X244733261Y-56053502D01*
X244733258Y-56053511D01*
X244674366Y-56273302D01*
X244674364Y-56273313D01*
X244654532Y-56499998D01*
X227039185Y-56499998D01*
X227039141Y-56499954D01*
X226852734Y-56369432D01*
X226852732Y-56369431D01*
X226646497Y-56273261D01*
X226646488Y-56273258D01*
X226426697Y-56214366D01*
X226426693Y-56214365D01*
X226426692Y-56214365D01*
X226426691Y-56214364D01*
X226426686Y-56214364D01*
X226200002Y-56194532D01*
X226199998Y-56194532D01*
X225973313Y-56214364D01*
X225973302Y-56214366D01*
X225753511Y-56273258D01*
X225753502Y-56273261D01*
X225547267Y-56369431D01*
X225547265Y-56369432D01*
X225360858Y-56499954D01*
X225199954Y-56660858D01*
X225069432Y-56847265D01*
X225069431Y-56847267D01*
X225042382Y-56905275D01*
X224996209Y-56957714D01*
X224929016Y-56976866D01*
X224862135Y-56956650D01*
X224817618Y-56905275D01*
X224790686Y-56847520D01*
X224790568Y-56847266D01*
X224660047Y-56660861D01*
X224660046Y-56660860D01*
X224660045Y-56660858D01*
X224499141Y-56499954D01*
X224312734Y-56369432D01*
X224312732Y-56369431D01*
X224106497Y-56273261D01*
X224106488Y-56273258D01*
X223886697Y-56214366D01*
X223886693Y-56214365D01*
X223886692Y-56214365D01*
X223886691Y-56214364D01*
X223886686Y-56214364D01*
X223660002Y-56194532D01*
X223659998Y-56194532D01*
X223433313Y-56214364D01*
X223433302Y-56214366D01*
X223213511Y-56273258D01*
X223213502Y-56273261D01*
X223007267Y-56369431D01*
X223007265Y-56369432D01*
X222820858Y-56499954D01*
X222659954Y-56660858D01*
X222529432Y-56847265D01*
X222529431Y-56847267D01*
X222502382Y-56905275D01*
X222456209Y-56957714D01*
X222389016Y-56976866D01*
X222322135Y-56956650D01*
X222277618Y-56905275D01*
X222250686Y-56847520D01*
X222250568Y-56847266D01*
X222120047Y-56660861D01*
X222120046Y-56660860D01*
X222120045Y-56660858D01*
X221959141Y-56499954D01*
X221772734Y-56369432D01*
X221772732Y-56369431D01*
X221566497Y-56273261D01*
X221566488Y-56273258D01*
X221346697Y-56214366D01*
X221346693Y-56214365D01*
X221346692Y-56214365D01*
X221346691Y-56214364D01*
X221346686Y-56214364D01*
X221120002Y-56194532D01*
X221119998Y-56194532D01*
X220893313Y-56214364D01*
X220893302Y-56214366D01*
X220673511Y-56273258D01*
X220673502Y-56273261D01*
X220467267Y-56369431D01*
X220467265Y-56369432D01*
X220280858Y-56499954D01*
X220119954Y-56660858D01*
X219989432Y-56847265D01*
X219989431Y-56847267D01*
X219962382Y-56905275D01*
X219916209Y-56957714D01*
X219849016Y-56976866D01*
X219782135Y-56956650D01*
X219737618Y-56905275D01*
X219710686Y-56847520D01*
X219710568Y-56847266D01*
X219580047Y-56660861D01*
X219580046Y-56660860D01*
X219580045Y-56660858D01*
X219419141Y-56499954D01*
X219232734Y-56369432D01*
X219232732Y-56369431D01*
X219026497Y-56273261D01*
X219026488Y-56273258D01*
X218806697Y-56214366D01*
X218806693Y-56214365D01*
X218806692Y-56214365D01*
X218806691Y-56214364D01*
X218806686Y-56214364D01*
X218580002Y-56194532D01*
X218580000Y-56194532D01*
X218576584Y-56194830D01*
X218574398Y-56195022D01*
X218505898Y-56181252D01*
X218455718Y-56132634D01*
X218439787Y-56064605D01*
X218463166Y-55998762D01*
X218518430Y-55956011D01*
X218522643Y-55954451D01*
X218563785Y-55940055D01*
X218563787Y-55940054D01*
X218716527Y-55844081D01*
X218844081Y-55716527D01*
X218940054Y-55563787D01*
X218999633Y-55393520D01*
X218999753Y-55392454D01*
X219019830Y-55214268D01*
X219019830Y-55214261D01*
X218999634Y-55035015D01*
X218999633Y-55035010D01*
X218972345Y-54957026D01*
X218940054Y-54864743D01*
X218844081Y-54712003D01*
X218716527Y-54584449D01*
X218656445Y-54546697D01*
X218563788Y-54488476D01*
X218393519Y-54428896D01*
X218393514Y-54428895D01*
X218214269Y-54408700D01*
X218214261Y-54408700D01*
X218035015Y-54428895D01*
X218035010Y-54428896D01*
X217864741Y-54488476D01*
X217712002Y-54584449D01*
X217584449Y-54712002D01*
X217488476Y-54864741D01*
X217428896Y-55035010D01*
X217428895Y-55035015D01*
X217408700Y-55214261D01*
X217408700Y-55214268D01*
X217428895Y-55393514D01*
X217428896Y-55393519D01*
X217488476Y-55563788D01*
X217584449Y-55716527D01*
X217712003Y-55844081D01*
X217864743Y-55940054D01*
X218032521Y-55998762D01*
X218035010Y-55999633D01*
X218035015Y-55999634D01*
X218172008Y-56015069D01*
X218236422Y-56042135D01*
X218275977Y-56099730D01*
X218278115Y-56169567D01*
X218242157Y-56229473D01*
X218190219Y-56258064D01*
X218133509Y-56273259D01*
X218133502Y-56273261D01*
X217927267Y-56369431D01*
X217927265Y-56369432D01*
X217740858Y-56499954D01*
X217579954Y-56660858D01*
X217449432Y-56847265D01*
X217449431Y-56847267D01*
X217422382Y-56905275D01*
X217376209Y-56957714D01*
X217309016Y-56976866D01*
X217242135Y-56956650D01*
X217197618Y-56905275D01*
X217170686Y-56847520D01*
X217170568Y-56847266D01*
X217040047Y-56660861D01*
X217040046Y-56660860D01*
X217040045Y-56660858D01*
X216879141Y-56499954D01*
X216692734Y-56369432D01*
X216692732Y-56369431D01*
X216486497Y-56273261D01*
X216486488Y-56273258D01*
X216266697Y-56214366D01*
X216266693Y-56214365D01*
X216266692Y-56214365D01*
X216266691Y-56214364D01*
X216266686Y-56214364D01*
X216040002Y-56194532D01*
X216039998Y-56194532D01*
X215813313Y-56214364D01*
X215813302Y-56214366D01*
X215593511Y-56273258D01*
X215593502Y-56273261D01*
X215387267Y-56369431D01*
X215387265Y-56369432D01*
X215200858Y-56499954D01*
X215039954Y-56660858D01*
X214909432Y-56847265D01*
X214909431Y-56847267D01*
X214882382Y-56905275D01*
X214836209Y-56957714D01*
X214769016Y-56976866D01*
X214702135Y-56956650D01*
X214657618Y-56905275D01*
X214630686Y-56847520D01*
X214630568Y-56847266D01*
X214500047Y-56660861D01*
X214500046Y-56660860D01*
X214500045Y-56660858D01*
X214339141Y-56499954D01*
X214152734Y-56369432D01*
X214152732Y-56369431D01*
X213946497Y-56273261D01*
X213946488Y-56273258D01*
X213726697Y-56214366D01*
X213726693Y-56214365D01*
X213726692Y-56214365D01*
X213726691Y-56214364D01*
X213726686Y-56214364D01*
X213500002Y-56194532D01*
X213499998Y-56194532D01*
X213273313Y-56214364D01*
X213273302Y-56214366D01*
X213053511Y-56273258D01*
X213053502Y-56273261D01*
X212847267Y-56369431D01*
X212847265Y-56369432D01*
X212660858Y-56499954D01*
X212499954Y-56660858D01*
X212369433Y-56847264D01*
X212369432Y-56847266D01*
X212369315Y-56847518D01*
X212342106Y-56905867D01*
X212295933Y-56958306D01*
X212228739Y-56977457D01*
X212161858Y-56957241D01*
X212117342Y-56905865D01*
X212090135Y-56847520D01*
X212090134Y-56847518D01*
X211959657Y-56661179D01*
X211798820Y-56500342D01*
X211612482Y-56369865D01*
X211406328Y-56273734D01*
X211210000Y-56221127D01*
X211210000Y-57184314D01*
X211205606Y-57179920D01*
X211114394Y-57127259D01*
X211012661Y-57100000D01*
X210907339Y-57100000D01*
X210805606Y-57127259D01*
X210714394Y-57179920D01*
X210710000Y-57184314D01*
X210710000Y-56221127D01*
X210513671Y-56273734D01*
X210307517Y-56369865D01*
X210121179Y-56500342D01*
X209960342Y-56661179D01*
X209829865Y-56847517D01*
X209733734Y-57053673D01*
X209733730Y-57053682D01*
X209681127Y-57249999D01*
X202854389Y-57249999D01*
X202801739Y-57053504D01*
X202705568Y-56847266D01*
X202575047Y-56660861D01*
X202575046Y-56660860D01*
X202575045Y-56660858D01*
X202414141Y-56499954D01*
X202227734Y-56369432D01*
X202227732Y-56369431D01*
X202021497Y-56273261D01*
X202021488Y-56273258D01*
X201840638Y-56224800D01*
X201780977Y-56188435D01*
X201750448Y-56125588D01*
X201755690Y-56064069D01*
X201759385Y-56053511D01*
X201778237Y-55999634D01*
X201785367Y-55979259D01*
X201785369Y-55979249D01*
X201805565Y-55800003D01*
X201805565Y-55799996D01*
X201785369Y-55620750D01*
X201785368Y-55620745D01*
X201765438Y-55563788D01*
X201725789Y-55450478D01*
X201629816Y-55297738D01*
X201502262Y-55170184D01*
X201484684Y-55159139D01*
X201349523Y-55074211D01*
X201179254Y-55014631D01*
X201179249Y-55014630D01*
X201000004Y-54994435D01*
X200999996Y-54994435D01*
X200820750Y-55014630D01*
X200820745Y-55014631D01*
X200650476Y-55074211D01*
X200497737Y-55170184D01*
X200370184Y-55297737D01*
X200274211Y-55450476D01*
X200214631Y-55620745D01*
X200214630Y-55620750D01*
X200194435Y-55799996D01*
X200194435Y-55800003D01*
X200214630Y-55979249D01*
X200214631Y-55979254D01*
X200274211Y-56149523D01*
X200351960Y-56273259D01*
X200370184Y-56302262D01*
X200497738Y-56429816D01*
X200546526Y-56460472D01*
X200555388Y-56466040D01*
X200601679Y-56518375D01*
X200612327Y-56587429D01*
X200583952Y-56651277D01*
X200577105Y-56658708D01*
X200574953Y-56660860D01*
X200444432Y-56847265D01*
X200444431Y-56847267D01*
X200417382Y-56905275D01*
X200371209Y-56957714D01*
X200304016Y-56976866D01*
X200237135Y-56956650D01*
X200192618Y-56905275D01*
X200165686Y-56847520D01*
X200165568Y-56847266D01*
X200035047Y-56660861D01*
X200035046Y-56660860D01*
X200035045Y-56660858D01*
X199874141Y-56499954D01*
X199687734Y-56369432D01*
X199687732Y-56369431D01*
X199481497Y-56273261D01*
X199481488Y-56273258D01*
X199261697Y-56214366D01*
X199261693Y-56214365D01*
X199261692Y-56214365D01*
X199261691Y-56214364D01*
X199261686Y-56214364D01*
X199035002Y-56194532D01*
X199034998Y-56194532D01*
X198808313Y-56214364D01*
X198808302Y-56214366D01*
X198588511Y-56273258D01*
X198588502Y-56273261D01*
X198382267Y-56369431D01*
X198382265Y-56369432D01*
X198195858Y-56499954D01*
X198034954Y-56660858D01*
X197904432Y-56847265D01*
X197904431Y-56847267D01*
X197877382Y-56905275D01*
X197831209Y-56957714D01*
X197764016Y-56976866D01*
X197697135Y-56956650D01*
X197652618Y-56905275D01*
X197625686Y-56847520D01*
X197625568Y-56847266D01*
X197495047Y-56660861D01*
X197495046Y-56660860D01*
X197495045Y-56660858D01*
X197334141Y-56499954D01*
X197147734Y-56369432D01*
X197147732Y-56369431D01*
X196941497Y-56273261D01*
X196941488Y-56273258D01*
X196721697Y-56214366D01*
X196721693Y-56214365D01*
X196721692Y-56214365D01*
X196721691Y-56214364D01*
X196721686Y-56214364D01*
X196495002Y-56194532D01*
X196494998Y-56194532D01*
X196268313Y-56214364D01*
X196268302Y-56214366D01*
X196048511Y-56273258D01*
X196048502Y-56273261D01*
X195842267Y-56369431D01*
X195842265Y-56369432D01*
X195655858Y-56499954D01*
X195494954Y-56660858D01*
X195364432Y-56847265D01*
X195364431Y-56847267D01*
X195337382Y-56905275D01*
X195291209Y-56957714D01*
X195224016Y-56976866D01*
X195157135Y-56956650D01*
X195112618Y-56905275D01*
X195085686Y-56847520D01*
X195085568Y-56847266D01*
X194955047Y-56660861D01*
X194955046Y-56660860D01*
X194955045Y-56660858D01*
X194794141Y-56499954D01*
X194607734Y-56369432D01*
X194607732Y-56369431D01*
X194401497Y-56273261D01*
X194401488Y-56273258D01*
X194181697Y-56214366D01*
X194181693Y-56214365D01*
X194181692Y-56214365D01*
X194181691Y-56214364D01*
X194181686Y-56214364D01*
X193955002Y-56194532D01*
X193954998Y-56194532D01*
X193728313Y-56214364D01*
X193728302Y-56214366D01*
X193508511Y-56273258D01*
X193508502Y-56273261D01*
X193302267Y-56369431D01*
X193302265Y-56369432D01*
X193115858Y-56499954D01*
X192954954Y-56660858D01*
X192824432Y-56847265D01*
X192824431Y-56847267D01*
X192797382Y-56905275D01*
X192751209Y-56957714D01*
X192684016Y-56976866D01*
X192617135Y-56956650D01*
X192572618Y-56905275D01*
X192545686Y-56847520D01*
X192545568Y-56847266D01*
X192415047Y-56660861D01*
X192415046Y-56660860D01*
X192415045Y-56660858D01*
X192254141Y-56499954D01*
X192067734Y-56369432D01*
X192067732Y-56369431D01*
X191861497Y-56273261D01*
X191861488Y-56273258D01*
X191641697Y-56214366D01*
X191641693Y-56214365D01*
X191641692Y-56214365D01*
X191641691Y-56214364D01*
X191641686Y-56214364D01*
X191415002Y-56194532D01*
X191414998Y-56194532D01*
X191188313Y-56214364D01*
X191188302Y-56214366D01*
X190968511Y-56273258D01*
X190968502Y-56273261D01*
X190762267Y-56369431D01*
X190762265Y-56369432D01*
X190575858Y-56499954D01*
X190414954Y-56660858D01*
X190284432Y-56847265D01*
X190284431Y-56847267D01*
X190257382Y-56905275D01*
X190211209Y-56957714D01*
X190144016Y-56976866D01*
X190077135Y-56956650D01*
X190032618Y-56905275D01*
X190005686Y-56847520D01*
X190005568Y-56847266D01*
X189875047Y-56660861D01*
X189875046Y-56660860D01*
X189875045Y-56660858D01*
X189714141Y-56499954D01*
X189527734Y-56369432D01*
X189527732Y-56369431D01*
X189321497Y-56273261D01*
X189321488Y-56273258D01*
X189101697Y-56214366D01*
X189101693Y-56214365D01*
X189101692Y-56214365D01*
X189101691Y-56214364D01*
X189101686Y-56214364D01*
X188875002Y-56194532D01*
X188874998Y-56194532D01*
X188648313Y-56214364D01*
X188648302Y-56214366D01*
X188428511Y-56273258D01*
X188428502Y-56273261D01*
X188222267Y-56369431D01*
X188222265Y-56369432D01*
X188035858Y-56499954D01*
X187874954Y-56660858D01*
X187744433Y-56847264D01*
X187744432Y-56847266D01*
X187744315Y-56847518D01*
X187717106Y-56905867D01*
X187670933Y-56958306D01*
X187603739Y-56977457D01*
X187536858Y-56957241D01*
X187492342Y-56905865D01*
X187465135Y-56847520D01*
X187465134Y-56847518D01*
X187334657Y-56661179D01*
X187173820Y-56500342D01*
X186987482Y-56369865D01*
X186781328Y-56273734D01*
X186585000Y-56221127D01*
X186585000Y-57184314D01*
X186580606Y-57179920D01*
X186489394Y-57127259D01*
X186387661Y-57100000D01*
X186282339Y-57100000D01*
X186180606Y-57127259D01*
X186089394Y-57179920D01*
X186085000Y-57184314D01*
X186085000Y-56221127D01*
X185888671Y-56273734D01*
X185682517Y-56369865D01*
X185496179Y-56500342D01*
X185335342Y-56661179D01*
X185204865Y-56847517D01*
X185108734Y-57053673D01*
X185108730Y-57053682D01*
X185056127Y-57249999D01*
X177354389Y-57249999D01*
X177301739Y-57053504D01*
X177205568Y-56847266D01*
X177075047Y-56660861D01*
X177075046Y-56660860D01*
X177075045Y-56660858D01*
X176914141Y-56499954D01*
X176727734Y-56369432D01*
X176727732Y-56369431D01*
X176521497Y-56273261D01*
X176521488Y-56273258D01*
X176301697Y-56214366D01*
X176301693Y-56214365D01*
X176301692Y-56214365D01*
X176301691Y-56214364D01*
X176301686Y-56214364D01*
X176075002Y-56194532D01*
X176074998Y-56194532D01*
X175848313Y-56214364D01*
X175848302Y-56214366D01*
X175628511Y-56273258D01*
X175628502Y-56273261D01*
X175422267Y-56369431D01*
X175422265Y-56369432D01*
X175235858Y-56499954D01*
X175074954Y-56660858D01*
X174944432Y-56847265D01*
X174944431Y-56847267D01*
X174917382Y-56905275D01*
X174871209Y-56957714D01*
X174804016Y-56976866D01*
X174737135Y-56956650D01*
X174692618Y-56905275D01*
X174665686Y-56847520D01*
X174665568Y-56847266D01*
X174535047Y-56660861D01*
X174535046Y-56660860D01*
X174535045Y-56660858D01*
X174374141Y-56499954D01*
X174187734Y-56369432D01*
X174187732Y-56369431D01*
X173981497Y-56273261D01*
X173981488Y-56273258D01*
X173761697Y-56214366D01*
X173761693Y-56214365D01*
X173761692Y-56214365D01*
X173761691Y-56214364D01*
X173761686Y-56214364D01*
X173535002Y-56194532D01*
X173534998Y-56194532D01*
X173308313Y-56214364D01*
X173308302Y-56214366D01*
X173088511Y-56273258D01*
X173088502Y-56273261D01*
X172882267Y-56369431D01*
X172882265Y-56369432D01*
X172695858Y-56499954D01*
X172534954Y-56660858D01*
X172404432Y-56847265D01*
X172404431Y-56847267D01*
X172377382Y-56905275D01*
X172331209Y-56957714D01*
X172264016Y-56976866D01*
X172197135Y-56956650D01*
X172152618Y-56905275D01*
X172125686Y-56847520D01*
X172125568Y-56847266D01*
X171995047Y-56660861D01*
X171995046Y-56660860D01*
X171995045Y-56660858D01*
X171834141Y-56499954D01*
X171647734Y-56369432D01*
X171647732Y-56369431D01*
X171441497Y-56273261D01*
X171441488Y-56273258D01*
X171221697Y-56214366D01*
X171221693Y-56214365D01*
X171221692Y-56214365D01*
X171221691Y-56214364D01*
X171221686Y-56214364D01*
X170995002Y-56194532D01*
X170994998Y-56194532D01*
X170768313Y-56214364D01*
X170768302Y-56214366D01*
X170548511Y-56273258D01*
X170548502Y-56273261D01*
X170342267Y-56369431D01*
X170342265Y-56369432D01*
X170155858Y-56499954D01*
X169994954Y-56660858D01*
X169864432Y-56847265D01*
X169864431Y-56847267D01*
X169837382Y-56905275D01*
X169791209Y-56957714D01*
X169724016Y-56976866D01*
X169657135Y-56956650D01*
X169612618Y-56905275D01*
X169585686Y-56847520D01*
X169585568Y-56847266D01*
X169455047Y-56660861D01*
X169455046Y-56660860D01*
X169455045Y-56660858D01*
X169294141Y-56499954D01*
X169107734Y-56369432D01*
X169107732Y-56369431D01*
X168901497Y-56273261D01*
X168901488Y-56273258D01*
X168681697Y-56214366D01*
X168681693Y-56214365D01*
X168681692Y-56214365D01*
X168681691Y-56214364D01*
X168681686Y-56214364D01*
X168455002Y-56194532D01*
X168454998Y-56194532D01*
X168228313Y-56214364D01*
X168228302Y-56214366D01*
X168008511Y-56273258D01*
X168008502Y-56273261D01*
X167802267Y-56369431D01*
X167802265Y-56369432D01*
X167615858Y-56499954D01*
X167454954Y-56660858D01*
X167324432Y-56847265D01*
X167324431Y-56847267D01*
X167297382Y-56905275D01*
X167251209Y-56957714D01*
X167184016Y-56976866D01*
X167117135Y-56956650D01*
X167072618Y-56905275D01*
X167045686Y-56847520D01*
X167045568Y-56847266D01*
X166915047Y-56660861D01*
X166915046Y-56660860D01*
X166915045Y-56660858D01*
X166754141Y-56499954D01*
X166567734Y-56369432D01*
X166567732Y-56369431D01*
X166361497Y-56273261D01*
X166361488Y-56273258D01*
X166141697Y-56214366D01*
X166141693Y-56214365D01*
X166141692Y-56214365D01*
X166141691Y-56214364D01*
X166141686Y-56214364D01*
X165915002Y-56194532D01*
X165914998Y-56194532D01*
X165688313Y-56214364D01*
X165688302Y-56214366D01*
X165468511Y-56273258D01*
X165468502Y-56273261D01*
X165262267Y-56369431D01*
X165262265Y-56369432D01*
X165075858Y-56499954D01*
X164914954Y-56660858D01*
X164784432Y-56847265D01*
X164784431Y-56847267D01*
X164757382Y-56905275D01*
X164711209Y-56957714D01*
X164644016Y-56976866D01*
X164577135Y-56956650D01*
X164532618Y-56905275D01*
X164505686Y-56847520D01*
X164505568Y-56847266D01*
X164375047Y-56660861D01*
X164375046Y-56660860D01*
X164375045Y-56660858D01*
X164214141Y-56499954D01*
X164027734Y-56369432D01*
X164027732Y-56369431D01*
X163821497Y-56273261D01*
X163821488Y-56273258D01*
X163601697Y-56214366D01*
X163601693Y-56214365D01*
X163601692Y-56214365D01*
X163601691Y-56214364D01*
X163601686Y-56214364D01*
X163375002Y-56194532D01*
X163374998Y-56194532D01*
X163148313Y-56214364D01*
X163148302Y-56214366D01*
X162928511Y-56273258D01*
X162928502Y-56273261D01*
X162722267Y-56369431D01*
X162722265Y-56369432D01*
X162535858Y-56499954D01*
X162374954Y-56660858D01*
X162244433Y-56847264D01*
X162244432Y-56847266D01*
X162244315Y-56847518D01*
X162217106Y-56905867D01*
X162170933Y-56958306D01*
X162103739Y-56977457D01*
X162036858Y-56957241D01*
X161992342Y-56905865D01*
X161965135Y-56847520D01*
X161965134Y-56847518D01*
X161834657Y-56661179D01*
X161673820Y-56500342D01*
X161487482Y-56369865D01*
X161281328Y-56273734D01*
X161085000Y-56221127D01*
X161085000Y-57184314D01*
X161080606Y-57179920D01*
X160989394Y-57127259D01*
X160887661Y-57100000D01*
X160782339Y-57100000D01*
X160680606Y-57127259D01*
X160589394Y-57179920D01*
X160585000Y-57184314D01*
X160585000Y-56221127D01*
X160388671Y-56273734D01*
X160182517Y-56369865D01*
X159996179Y-56500342D01*
X159835342Y-56661179D01*
X159704865Y-56847517D01*
X159608734Y-57053673D01*
X159608730Y-57053682D01*
X159556127Y-57249999D01*
X155500500Y-57249999D01*
X155500500Y-54319998D01*
X156904532Y-54319998D01*
X156904532Y-54320001D01*
X156924364Y-54546686D01*
X156924366Y-54546697D01*
X156983258Y-54766488D01*
X156983261Y-54766497D01*
X157079431Y-54972732D01*
X157079432Y-54972734D01*
X157209954Y-55159141D01*
X157370858Y-55320045D01*
X157370861Y-55320047D01*
X157557266Y-55450568D01*
X157763504Y-55546739D01*
X157983308Y-55605635D01*
X158145230Y-55619801D01*
X158209998Y-55625468D01*
X158210000Y-55625468D01*
X158210002Y-55625468D01*
X158266673Y-55620509D01*
X158436692Y-55605635D01*
X158656496Y-55546739D01*
X158862734Y-55450568D01*
X159049139Y-55320047D01*
X159210047Y-55159139D01*
X159340568Y-54972734D01*
X159347893Y-54957024D01*
X159394064Y-54904586D01*
X159461257Y-54885433D01*
X159528138Y-54905648D01*
X159572657Y-54957024D01*
X159579864Y-54972480D01*
X159630974Y-55045472D01*
X160310000Y-54366446D01*
X160310000Y-54372661D01*
X160337259Y-54474394D01*
X160389920Y-54565606D01*
X160464394Y-54640080D01*
X160555606Y-54692741D01*
X160657339Y-54720000D01*
X160663553Y-54720000D01*
X159984526Y-55399025D01*
X160057513Y-55450132D01*
X160057521Y-55450136D01*
X160263668Y-55546264D01*
X160263682Y-55546269D01*
X160483389Y-55605139D01*
X160483400Y-55605141D01*
X160709998Y-55624966D01*
X160710002Y-55624966D01*
X160936599Y-55605141D01*
X160936610Y-55605139D01*
X161156317Y-55546269D01*
X161156331Y-55546264D01*
X161362478Y-55450136D01*
X161435471Y-55399024D01*
X160756447Y-54720000D01*
X160762661Y-54720000D01*
X160864394Y-54692741D01*
X160955606Y-54640080D01*
X161030080Y-54565606D01*
X161082741Y-54474394D01*
X161110000Y-54372661D01*
X161110000Y-54366447D01*
X161789024Y-55045471D01*
X161840136Y-54972478D01*
X161936264Y-54766331D01*
X161936269Y-54766317D01*
X161995139Y-54546610D01*
X161995141Y-54546599D01*
X162014966Y-54320002D01*
X162014966Y-54319998D01*
X182654532Y-54319998D01*
X182654532Y-54320001D01*
X182674364Y-54546686D01*
X182674366Y-54546697D01*
X182733258Y-54766488D01*
X182733261Y-54766497D01*
X182829431Y-54972732D01*
X182829432Y-54972734D01*
X182959954Y-55159141D01*
X183120858Y-55320045D01*
X183120861Y-55320047D01*
X183307266Y-55450568D01*
X183513504Y-55546739D01*
X183733308Y-55605635D01*
X183895230Y-55619801D01*
X183959998Y-55625468D01*
X183960000Y-55625468D01*
X183960002Y-55625468D01*
X184016673Y-55620509D01*
X184186692Y-55605635D01*
X184406496Y-55546739D01*
X184612734Y-55450568D01*
X184799139Y-55320047D01*
X184960047Y-55159139D01*
X185090568Y-54972734D01*
X185097893Y-54957024D01*
X185144064Y-54904586D01*
X185211257Y-54885433D01*
X185278138Y-54905648D01*
X185322657Y-54957024D01*
X185329864Y-54972480D01*
X185380974Y-55045472D01*
X186060000Y-54366446D01*
X186060000Y-54372661D01*
X186087259Y-54474394D01*
X186139920Y-54565606D01*
X186214394Y-54640080D01*
X186305606Y-54692741D01*
X186407339Y-54720000D01*
X186413553Y-54720000D01*
X185734526Y-55399025D01*
X185807513Y-55450132D01*
X185807521Y-55450136D01*
X186013668Y-55546264D01*
X186013682Y-55546269D01*
X186233389Y-55605139D01*
X186233400Y-55605141D01*
X186459998Y-55624966D01*
X186460002Y-55624966D01*
X186686599Y-55605141D01*
X186686610Y-55605139D01*
X186906317Y-55546269D01*
X186906331Y-55546264D01*
X187112478Y-55450136D01*
X187185471Y-55399024D01*
X186506447Y-54720000D01*
X186512661Y-54720000D01*
X186614394Y-54692741D01*
X186705606Y-54640080D01*
X186780080Y-54565606D01*
X186832741Y-54474394D01*
X186860000Y-54372661D01*
X186860000Y-54366447D01*
X187539024Y-55045471D01*
X187590136Y-54972478D01*
X187686264Y-54766331D01*
X187686269Y-54766317D01*
X187745139Y-54546610D01*
X187745141Y-54546599D01*
X187764966Y-54320002D01*
X187764966Y-54319998D01*
X206904532Y-54319998D01*
X206904532Y-54320001D01*
X206924364Y-54546686D01*
X206924366Y-54546697D01*
X206983258Y-54766488D01*
X206983261Y-54766497D01*
X207079431Y-54972732D01*
X207079432Y-54972734D01*
X207209954Y-55159141D01*
X207370858Y-55320045D01*
X207370861Y-55320047D01*
X207557266Y-55450568D01*
X207763504Y-55546739D01*
X207983308Y-55605635D01*
X208145230Y-55619801D01*
X208209998Y-55625468D01*
X208210000Y-55625468D01*
X208210002Y-55625468D01*
X208266673Y-55620509D01*
X208436692Y-55605635D01*
X208656496Y-55546739D01*
X208862734Y-55450568D01*
X209049139Y-55320047D01*
X209210047Y-55159139D01*
X209340568Y-54972734D01*
X209347893Y-54957024D01*
X209394064Y-54904586D01*
X209461257Y-54885433D01*
X209528138Y-54905648D01*
X209572657Y-54957024D01*
X209579864Y-54972480D01*
X209630974Y-55045472D01*
X210310000Y-54366446D01*
X210310000Y-54372661D01*
X210337259Y-54474394D01*
X210389920Y-54565606D01*
X210464394Y-54640080D01*
X210555606Y-54692741D01*
X210657339Y-54720000D01*
X210663553Y-54720000D01*
X209984526Y-55399025D01*
X210057513Y-55450132D01*
X210057521Y-55450136D01*
X210263668Y-55546264D01*
X210263682Y-55546269D01*
X210483389Y-55605139D01*
X210483400Y-55605141D01*
X210709998Y-55624966D01*
X210710002Y-55624966D01*
X210936599Y-55605141D01*
X210936610Y-55605139D01*
X211156317Y-55546269D01*
X211156331Y-55546264D01*
X211362478Y-55450136D01*
X211435471Y-55399024D01*
X210756447Y-54720000D01*
X210762661Y-54720000D01*
X210864394Y-54692741D01*
X210955606Y-54640080D01*
X211030080Y-54565606D01*
X211082741Y-54474394D01*
X211110000Y-54372661D01*
X211110000Y-54366447D01*
X211789024Y-55045471D01*
X211840136Y-54972478D01*
X211936264Y-54766331D01*
X211936269Y-54766317D01*
X211995139Y-54546610D01*
X211995141Y-54546599D01*
X212014966Y-54320002D01*
X212014966Y-54319997D01*
X211995141Y-54093400D01*
X211995139Y-54093389D01*
X211936269Y-53873682D01*
X211936264Y-53873668D01*
X211840136Y-53667521D01*
X211840132Y-53667513D01*
X211789025Y-53594526D01*
X211110000Y-54273551D01*
X211110000Y-54267339D01*
X211082741Y-54165606D01*
X211030080Y-54074394D01*
X210955606Y-53999920D01*
X210864394Y-53947259D01*
X210762661Y-53920000D01*
X210756448Y-53920000D01*
X211435472Y-53240974D01*
X211362478Y-53189863D01*
X211156331Y-53093735D01*
X211156317Y-53093730D01*
X210936610Y-53034860D01*
X210936599Y-53034858D01*
X210710002Y-53015034D01*
X210709998Y-53015034D01*
X210483400Y-53034858D01*
X210483389Y-53034860D01*
X210263682Y-53093730D01*
X210263673Y-53093734D01*
X210057516Y-53189866D01*
X210057512Y-53189868D01*
X209984526Y-53240973D01*
X209984526Y-53240974D01*
X210663553Y-53920000D01*
X210657339Y-53920000D01*
X210555606Y-53947259D01*
X210464394Y-53999920D01*
X210389920Y-54074394D01*
X210337259Y-54165606D01*
X210310000Y-54267339D01*
X210310000Y-54273552D01*
X209630974Y-53594526D01*
X209630973Y-53594526D01*
X209579868Y-53667512D01*
X209579867Y-53667514D01*
X209572656Y-53682979D01*
X209526482Y-53735417D01*
X209459288Y-53754567D01*
X209392407Y-53734350D01*
X209347893Y-53682976D01*
X209340568Y-53667266D01*
X209210047Y-53480861D01*
X209210045Y-53480858D01*
X209049141Y-53319954D01*
X208862734Y-53189432D01*
X208862732Y-53189431D01*
X208656497Y-53093261D01*
X208656488Y-53093258D01*
X208436697Y-53034366D01*
X208436693Y-53034365D01*
X208436692Y-53034365D01*
X208436691Y-53034364D01*
X208436686Y-53034364D01*
X208210002Y-53014532D01*
X208209998Y-53014532D01*
X207983313Y-53034364D01*
X207983302Y-53034366D01*
X207763511Y-53093258D01*
X207763502Y-53093261D01*
X207557267Y-53189431D01*
X207557265Y-53189432D01*
X207370858Y-53319954D01*
X207209954Y-53480858D01*
X207079432Y-53667265D01*
X207079431Y-53667267D01*
X206983261Y-53873502D01*
X206983258Y-53873511D01*
X206924366Y-54093302D01*
X206924364Y-54093313D01*
X206904532Y-54319998D01*
X187764966Y-54319998D01*
X187764966Y-54319997D01*
X187745141Y-54093400D01*
X187745139Y-54093389D01*
X187686269Y-53873682D01*
X187686264Y-53873668D01*
X187590136Y-53667521D01*
X187590132Y-53667513D01*
X187539025Y-53594526D01*
X186860000Y-54273551D01*
X186860000Y-54267339D01*
X186832741Y-54165606D01*
X186780080Y-54074394D01*
X186705606Y-53999920D01*
X186614394Y-53947259D01*
X186512661Y-53920000D01*
X186506448Y-53920000D01*
X187185472Y-53240974D01*
X187112478Y-53189863D01*
X186906331Y-53093735D01*
X186906317Y-53093730D01*
X186686610Y-53034860D01*
X186686599Y-53034858D01*
X186460002Y-53015034D01*
X186459998Y-53015034D01*
X186233400Y-53034858D01*
X186233389Y-53034860D01*
X186013682Y-53093730D01*
X186013673Y-53093734D01*
X185807516Y-53189866D01*
X185807512Y-53189868D01*
X185734526Y-53240973D01*
X185734526Y-53240974D01*
X186413553Y-53920000D01*
X186407339Y-53920000D01*
X186305606Y-53947259D01*
X186214394Y-53999920D01*
X186139920Y-54074394D01*
X186087259Y-54165606D01*
X186060000Y-54267339D01*
X186060000Y-54273552D01*
X185380974Y-53594526D01*
X185380973Y-53594526D01*
X185329868Y-53667512D01*
X185329867Y-53667514D01*
X185322656Y-53682979D01*
X185276482Y-53735417D01*
X185209288Y-53754567D01*
X185142407Y-53734350D01*
X185097893Y-53682976D01*
X185090568Y-53667266D01*
X184960047Y-53480861D01*
X184960045Y-53480858D01*
X184799141Y-53319954D01*
X184612734Y-53189432D01*
X184612732Y-53189431D01*
X184406497Y-53093261D01*
X184406488Y-53093258D01*
X184186697Y-53034366D01*
X184186693Y-53034365D01*
X184186692Y-53034365D01*
X184186691Y-53034364D01*
X184186686Y-53034364D01*
X183960002Y-53014532D01*
X183959998Y-53014532D01*
X183733313Y-53034364D01*
X183733302Y-53034366D01*
X183513511Y-53093258D01*
X183513502Y-53093261D01*
X183307267Y-53189431D01*
X183307265Y-53189432D01*
X183120858Y-53319954D01*
X182959954Y-53480858D01*
X182829432Y-53667265D01*
X182829431Y-53667267D01*
X182733261Y-53873502D01*
X182733258Y-53873511D01*
X182674366Y-54093302D01*
X182674364Y-54093313D01*
X182654532Y-54319998D01*
X162014966Y-54319998D01*
X162014966Y-54319997D01*
X161995141Y-54093400D01*
X161995139Y-54093389D01*
X161936269Y-53873682D01*
X161936264Y-53873668D01*
X161840136Y-53667521D01*
X161840132Y-53667513D01*
X161789025Y-53594526D01*
X161110000Y-54273551D01*
X161110000Y-54267339D01*
X161082741Y-54165606D01*
X161030080Y-54074394D01*
X160955606Y-53999920D01*
X160864394Y-53947259D01*
X160762661Y-53920000D01*
X160756448Y-53920000D01*
X161435472Y-53240974D01*
X161362478Y-53189863D01*
X161156331Y-53093735D01*
X161156317Y-53093730D01*
X160936610Y-53034860D01*
X160936599Y-53034858D01*
X160710002Y-53015034D01*
X160709998Y-53015034D01*
X160483400Y-53034858D01*
X160483389Y-53034860D01*
X160263682Y-53093730D01*
X160263673Y-53093734D01*
X160057516Y-53189866D01*
X160057512Y-53189868D01*
X159984526Y-53240973D01*
X159984526Y-53240974D01*
X160663553Y-53920000D01*
X160657339Y-53920000D01*
X160555606Y-53947259D01*
X160464394Y-53999920D01*
X160389920Y-54074394D01*
X160337259Y-54165606D01*
X160310000Y-54267339D01*
X160310000Y-54273552D01*
X159630974Y-53594526D01*
X159630973Y-53594526D01*
X159579868Y-53667512D01*
X159579867Y-53667514D01*
X159572656Y-53682979D01*
X159526482Y-53735417D01*
X159459288Y-53754567D01*
X159392407Y-53734350D01*
X159347893Y-53682976D01*
X159340568Y-53667266D01*
X159210047Y-53480861D01*
X159210045Y-53480858D01*
X159049141Y-53319954D01*
X158862734Y-53189432D01*
X158862732Y-53189431D01*
X158656497Y-53093261D01*
X158656488Y-53093258D01*
X158436697Y-53034366D01*
X158436693Y-53034365D01*
X158436692Y-53034365D01*
X158436691Y-53034364D01*
X158436686Y-53034364D01*
X158210002Y-53014532D01*
X158209998Y-53014532D01*
X157983313Y-53034364D01*
X157983302Y-53034366D01*
X157763511Y-53093258D01*
X157763502Y-53093261D01*
X157557267Y-53189431D01*
X157557265Y-53189432D01*
X157370858Y-53319954D01*
X157209954Y-53480858D01*
X157079432Y-53667265D01*
X157079431Y-53667267D01*
X156983261Y-53873502D01*
X156983258Y-53873511D01*
X156924366Y-54093302D01*
X156924364Y-54093313D01*
X156904532Y-54319998D01*
X155500500Y-54319998D01*
X155500500Y-45999998D01*
X160444532Y-45999998D01*
X160444532Y-46000001D01*
X160464364Y-46226686D01*
X160464366Y-46226697D01*
X160523258Y-46446488D01*
X160523261Y-46446497D01*
X160619431Y-46652732D01*
X160619432Y-46652734D01*
X160749954Y-46839141D01*
X160910858Y-47000045D01*
X160910861Y-47000047D01*
X161097266Y-47130568D01*
X161303504Y-47226739D01*
X161523308Y-47285635D01*
X161685230Y-47299801D01*
X161749998Y-47305468D01*
X161750000Y-47305468D01*
X161750002Y-47305468D01*
X161806673Y-47300509D01*
X161976692Y-47285635D01*
X162196496Y-47226739D01*
X162402734Y-47130568D01*
X162589139Y-47000047D01*
X162750047Y-46839139D01*
X162880568Y-46652734D01*
X162887618Y-46637614D01*
X162933789Y-46585176D01*
X163000982Y-46566023D01*
X163067864Y-46586238D01*
X163112381Y-46637614D01*
X163119432Y-46652733D01*
X163119432Y-46652734D01*
X163249954Y-46839141D01*
X163410858Y-47000045D01*
X163410861Y-47000047D01*
X163597266Y-47130568D01*
X163803504Y-47226739D01*
X164023308Y-47285635D01*
X164185230Y-47299801D01*
X164249998Y-47305468D01*
X164250000Y-47305468D01*
X164250002Y-47305468D01*
X164306673Y-47300509D01*
X164476692Y-47285635D01*
X164696496Y-47226739D01*
X164902734Y-47130568D01*
X165089139Y-47000047D01*
X165250047Y-46839139D01*
X165380568Y-46652734D01*
X165476739Y-46446496D01*
X165535635Y-46226692D01*
X165555468Y-46000000D01*
X165555468Y-45999999D01*
X231474357Y-45999999D01*
X231474357Y-46000000D01*
X231494884Y-46221535D01*
X231494885Y-46221537D01*
X231555769Y-46435523D01*
X231555775Y-46435538D01*
X231654938Y-46634683D01*
X231654943Y-46634691D01*
X231789020Y-46812238D01*
X231953437Y-46962123D01*
X231953439Y-46962125D01*
X232142595Y-47079245D01*
X232142596Y-47079245D01*
X232142599Y-47079247D01*
X232350060Y-47159618D01*
X232568757Y-47200500D01*
X232568759Y-47200500D01*
X232791241Y-47200500D01*
X232791243Y-47200500D01*
X233009940Y-47159618D01*
X233217401Y-47079247D01*
X233334280Y-47006879D01*
X234566672Y-47006879D01*
X234566672Y-47006880D01*
X234682821Y-47078797D01*
X234682822Y-47078798D01*
X234890195Y-47159134D01*
X235108807Y-47200000D01*
X235331193Y-47200000D01*
X235549809Y-47159133D01*
X235757168Y-47078801D01*
X235757181Y-47078795D01*
X235873326Y-47006879D01*
X235220001Y-46353553D01*
X235220000Y-46353553D01*
X234566672Y-47006879D01*
X233334280Y-47006879D01*
X233406562Y-46962124D01*
X233570981Y-46812236D01*
X233705058Y-46634689D01*
X233804229Y-46435528D01*
X233830995Y-46341455D01*
X233868272Y-46282367D01*
X233931581Y-46252809D01*
X234000821Y-46262171D01*
X234054007Y-46307480D01*
X234069525Y-46341460D01*
X234096236Y-46435342D01*
X234096239Y-46435348D01*
X234195369Y-46634428D01*
X234211137Y-46655308D01*
X234211138Y-46655308D01*
X234866447Y-46000000D01*
X234866447Y-45999999D01*
X234820370Y-45953922D01*
X234870000Y-45953922D01*
X234870000Y-46046078D01*
X234893852Y-46135095D01*
X234939930Y-46214905D01*
X235005095Y-46280070D01*
X235084905Y-46326148D01*
X235173922Y-46350000D01*
X235266078Y-46350000D01*
X235355095Y-46326148D01*
X235434905Y-46280070D01*
X235500070Y-46214905D01*
X235546148Y-46135095D01*
X235570000Y-46046078D01*
X235570000Y-45999999D01*
X235573553Y-45999999D01*
X235573553Y-46000000D01*
X236228861Y-46655308D01*
X236244631Y-46634425D01*
X236244633Y-46634422D01*
X236311568Y-46499999D01*
X243974357Y-46499999D01*
X243974357Y-46500000D01*
X243994884Y-46721535D01*
X243994885Y-46721537D01*
X244055769Y-46935523D01*
X244055775Y-46935538D01*
X244154938Y-47134683D01*
X244154943Y-47134691D01*
X244289020Y-47312238D01*
X244453437Y-47462123D01*
X244453439Y-47462125D01*
X244642595Y-47579245D01*
X244642596Y-47579245D01*
X244642599Y-47579247D01*
X244850060Y-47659618D01*
X245068757Y-47700500D01*
X245068759Y-47700500D01*
X245291241Y-47700500D01*
X245291243Y-47700500D01*
X245509940Y-47659618D01*
X245717401Y-47579247D01*
X245834280Y-47506879D01*
X247066672Y-47506879D01*
X247066672Y-47506880D01*
X247182821Y-47578797D01*
X247182822Y-47578798D01*
X247390195Y-47659134D01*
X247608807Y-47700000D01*
X247831193Y-47700000D01*
X248049809Y-47659133D01*
X248257168Y-47578801D01*
X248257181Y-47578795D01*
X248373326Y-47506879D01*
X247720001Y-46853553D01*
X247720000Y-46853553D01*
X247066672Y-47506879D01*
X245834280Y-47506879D01*
X245906562Y-47462124D01*
X246070981Y-47312236D01*
X246205058Y-47134689D01*
X246304229Y-46935528D01*
X246330995Y-46841455D01*
X246368272Y-46782367D01*
X246431581Y-46752809D01*
X246500821Y-46762171D01*
X246554007Y-46807480D01*
X246569525Y-46841460D01*
X246596236Y-46935342D01*
X246596239Y-46935348D01*
X246695369Y-47134428D01*
X246711137Y-47155308D01*
X246711138Y-47155308D01*
X247366447Y-46500000D01*
X247320369Y-46453922D01*
X247370000Y-46453922D01*
X247370000Y-46546078D01*
X247393852Y-46635095D01*
X247439930Y-46714905D01*
X247505095Y-46780070D01*
X247584905Y-46826148D01*
X247673922Y-46850000D01*
X247766078Y-46850000D01*
X247855095Y-46826148D01*
X247934905Y-46780070D01*
X248000070Y-46714905D01*
X248046148Y-46635095D01*
X248070000Y-46546078D01*
X248070000Y-46499999D01*
X248073553Y-46499999D01*
X248073553Y-46500000D01*
X248728861Y-47155308D01*
X248744631Y-47134425D01*
X248744633Y-47134422D01*
X248843759Y-46935350D01*
X248904621Y-46721439D01*
X248925141Y-46500000D01*
X248925141Y-46499999D01*
X253074357Y-46499999D01*
X253074357Y-46500000D01*
X253094884Y-46721535D01*
X253094885Y-46721537D01*
X253155769Y-46935523D01*
X253155775Y-46935538D01*
X253254938Y-47134683D01*
X253254943Y-47134691D01*
X253389020Y-47312238D01*
X253553437Y-47462123D01*
X253553439Y-47462125D01*
X253742595Y-47579245D01*
X253742596Y-47579245D01*
X253742599Y-47579247D01*
X253950060Y-47659618D01*
X254168757Y-47700500D01*
X254168759Y-47700500D01*
X254391241Y-47700500D01*
X254391243Y-47700500D01*
X254609940Y-47659618D01*
X254817401Y-47579247D01*
X255006562Y-47462124D01*
X255170981Y-47312236D01*
X255305058Y-47134689D01*
X255404229Y-46935528D01*
X255430734Y-46842371D01*
X255468013Y-46783278D01*
X255531323Y-46753721D01*
X255600562Y-46763083D01*
X255653749Y-46808393D01*
X255669266Y-46842372D01*
X255695769Y-46935523D01*
X255695775Y-46935538D01*
X255794938Y-47134683D01*
X255794943Y-47134691D01*
X255929020Y-47312238D01*
X256093437Y-47462123D01*
X256093439Y-47462125D01*
X256282595Y-47579245D01*
X256282596Y-47579245D01*
X256282599Y-47579247D01*
X256490060Y-47659618D01*
X256708757Y-47700500D01*
X256708759Y-47700500D01*
X256931241Y-47700500D01*
X256931243Y-47700500D01*
X257149940Y-47659618D01*
X257357401Y-47579247D01*
X257546562Y-47462124D01*
X257710981Y-47312236D01*
X257845058Y-47134689D01*
X257944229Y-46935528D01*
X258005115Y-46721536D01*
X258025643Y-46500000D01*
X258020684Y-46446488D01*
X258005115Y-46278464D01*
X258005114Y-46278462D01*
X257997815Y-46252809D01*
X257944229Y-46064472D01*
X257933886Y-46043700D01*
X257845061Y-45865316D01*
X257845056Y-45865308D01*
X257710979Y-45687761D01*
X257562203Y-45552135D01*
X260824500Y-45552135D01*
X260824500Y-47447870D01*
X260824501Y-47447876D01*
X260830908Y-47507483D01*
X260881202Y-47642328D01*
X260881206Y-47642335D01*
X260967452Y-47757544D01*
X260967455Y-47757547D01*
X261082664Y-47843793D01*
X261082671Y-47843797D01*
X261217517Y-47894091D01*
X261217516Y-47894091D01*
X261224444Y-47894835D01*
X261277127Y-47900500D01*
X263172872Y-47900499D01*
X263232483Y-47894091D01*
X263367331Y-47843796D01*
X263482546Y-47757546D01*
X263568796Y-47642331D01*
X263592491Y-47578801D01*
X263597455Y-47565493D01*
X263639326Y-47509559D01*
X263704790Y-47485141D01*
X263773063Y-47499992D01*
X263804866Y-47524843D01*
X263812302Y-47532920D01*
X263813215Y-47533912D01*
X263813222Y-47533918D01*
X263996365Y-47676464D01*
X263996371Y-47676468D01*
X263996374Y-47676470D01*
X264200497Y-47786936D01*
X264314487Y-47826068D01*
X264420015Y-47862297D01*
X264420017Y-47862297D01*
X264420019Y-47862298D01*
X264648951Y-47900500D01*
X264648952Y-47900500D01*
X264881048Y-47900500D01*
X264881049Y-47900500D01*
X265109981Y-47862298D01*
X265329503Y-47786936D01*
X265533626Y-47676470D01*
X265555900Y-47659134D01*
X265595129Y-47628600D01*
X265716784Y-47533913D01*
X265873979Y-47363153D01*
X266000924Y-47168849D01*
X266094157Y-46956300D01*
X266151134Y-46731305D01*
X266151135Y-46731297D01*
X266170300Y-46500006D01*
X266170300Y-46499993D01*
X266151135Y-46268702D01*
X266151133Y-46268691D01*
X266094157Y-46043699D01*
X266000924Y-45831151D01*
X265873983Y-45636852D01*
X265873980Y-45636849D01*
X265873979Y-45636847D01*
X265716784Y-45466087D01*
X265716779Y-45466083D01*
X265716777Y-45466081D01*
X265533634Y-45323535D01*
X265533628Y-45323531D01*
X265329504Y-45213064D01*
X265329495Y-45213061D01*
X265109984Y-45137702D01*
X264919450Y-45105908D01*
X264881049Y-45099500D01*
X264648951Y-45099500D01*
X264610550Y-45105908D01*
X264420015Y-45137702D01*
X264200504Y-45213061D01*
X264200495Y-45213064D01*
X263996371Y-45323531D01*
X263996365Y-45323535D01*
X263813222Y-45466081D01*
X263813218Y-45466085D01*
X263804866Y-45475158D01*
X263744979Y-45511148D01*
X263675141Y-45509047D01*
X263617525Y-45469522D01*
X263597455Y-45434507D01*
X263568797Y-45357671D01*
X263568793Y-45357664D01*
X263482547Y-45242455D01*
X263482544Y-45242452D01*
X263367335Y-45156206D01*
X263367328Y-45156202D01*
X263232482Y-45105908D01*
X263232483Y-45105908D01*
X263172883Y-45099501D01*
X263172881Y-45099500D01*
X263172873Y-45099500D01*
X263172864Y-45099500D01*
X261277129Y-45099500D01*
X261277123Y-45099501D01*
X261217516Y-45105908D01*
X261082671Y-45156202D01*
X261082664Y-45156206D01*
X260967455Y-45242452D01*
X260967452Y-45242455D01*
X260881206Y-45357664D01*
X260881202Y-45357671D01*
X260830908Y-45492517D01*
X260824501Y-45552116D01*
X260824500Y-45552135D01*
X257562203Y-45552135D01*
X257546562Y-45537876D01*
X257546560Y-45537874D01*
X257357404Y-45420754D01*
X257357398Y-45420752D01*
X257149940Y-45340382D01*
X256931243Y-45299500D01*
X256708757Y-45299500D01*
X256490060Y-45340382D01*
X256425017Y-45365580D01*
X256282601Y-45420752D01*
X256282595Y-45420754D01*
X256093439Y-45537874D01*
X256093437Y-45537876D01*
X255929020Y-45687761D01*
X255794943Y-45865308D01*
X255794938Y-45865316D01*
X255695775Y-46064461D01*
X255695769Y-46064476D01*
X255669266Y-46157627D01*
X255631987Y-46216721D01*
X255568677Y-46246278D01*
X255499438Y-46236916D01*
X255446251Y-46191606D01*
X255430734Y-46157627D01*
X255404230Y-46064476D01*
X255404229Y-46064472D01*
X255393886Y-46043700D01*
X255305061Y-45865316D01*
X255305056Y-45865308D01*
X255170979Y-45687761D01*
X255006562Y-45537876D01*
X255006560Y-45537874D01*
X254817404Y-45420754D01*
X254817398Y-45420752D01*
X254609940Y-45340382D01*
X254391243Y-45299500D01*
X254168757Y-45299500D01*
X253950060Y-45340382D01*
X253885017Y-45365580D01*
X253742601Y-45420752D01*
X253742595Y-45420754D01*
X253553439Y-45537874D01*
X253553437Y-45537876D01*
X253389020Y-45687761D01*
X253254943Y-45865308D01*
X253254938Y-45865316D01*
X253155775Y-46064461D01*
X253155769Y-46064476D01*
X253094885Y-46278462D01*
X253094884Y-46278464D01*
X253074357Y-46499999D01*
X248925141Y-46499999D01*
X248904621Y-46278560D01*
X248843759Y-46064649D01*
X248744635Y-45865580D01*
X248744630Y-45865572D01*
X248728860Y-45844690D01*
X248073553Y-46499999D01*
X248070000Y-46499999D01*
X248070000Y-46453922D01*
X248046148Y-46364905D01*
X248000070Y-46285095D01*
X247934905Y-46219930D01*
X247855095Y-46173852D01*
X247766078Y-46150000D01*
X247673922Y-46150000D01*
X247584905Y-46173852D01*
X247505095Y-46219930D01*
X247439930Y-46285095D01*
X247393852Y-46364905D01*
X247370000Y-46453922D01*
X247320369Y-46453922D01*
X246711138Y-45844691D01*
X246711137Y-45844691D01*
X246695368Y-45865574D01*
X246596239Y-46064651D01*
X246596237Y-46064655D01*
X246569525Y-46158540D01*
X246532246Y-46217633D01*
X246468936Y-46247190D01*
X246399697Y-46237828D01*
X246346510Y-46192518D01*
X246330994Y-46158541D01*
X246304229Y-46064472D01*
X246293886Y-46043700D01*
X246205061Y-45865316D01*
X246205056Y-45865308D01*
X246070979Y-45687761D01*
X245906562Y-45537876D01*
X245906560Y-45537874D01*
X245834278Y-45493119D01*
X247066671Y-45493119D01*
X247720000Y-46146447D01*
X247720001Y-46146447D01*
X248373327Y-45493119D01*
X248257178Y-45421202D01*
X248257177Y-45421201D01*
X248049804Y-45340865D01*
X247831193Y-45300000D01*
X247608807Y-45300000D01*
X247390195Y-45340865D01*
X247182824Y-45421200D01*
X247182823Y-45421201D01*
X247066671Y-45493119D01*
X245834278Y-45493119D01*
X245717404Y-45420754D01*
X245717398Y-45420752D01*
X245509940Y-45340382D01*
X245291243Y-45299500D01*
X245068757Y-45299500D01*
X244850060Y-45340382D01*
X244785017Y-45365580D01*
X244642601Y-45420752D01*
X244642595Y-45420754D01*
X244453439Y-45537874D01*
X244453437Y-45537876D01*
X244289020Y-45687761D01*
X244154943Y-45865308D01*
X244154938Y-45865316D01*
X244055775Y-46064461D01*
X244055769Y-46064476D01*
X243994885Y-46278462D01*
X243994884Y-46278464D01*
X243974357Y-46499999D01*
X236311568Y-46499999D01*
X236343759Y-46435350D01*
X236404621Y-46221439D01*
X236425141Y-46000000D01*
X236425141Y-45999999D01*
X236404621Y-45778560D01*
X236343759Y-45564649D01*
X236244635Y-45365580D01*
X236244630Y-45365572D01*
X236228860Y-45344690D01*
X235573553Y-45999999D01*
X235570000Y-45999999D01*
X235570000Y-45953922D01*
X235546148Y-45864905D01*
X235500070Y-45785095D01*
X235434905Y-45719930D01*
X235355095Y-45673852D01*
X235266078Y-45650000D01*
X235173922Y-45650000D01*
X235084905Y-45673852D01*
X235005095Y-45719930D01*
X234939930Y-45785095D01*
X234893852Y-45864905D01*
X234870000Y-45953922D01*
X234820370Y-45953922D01*
X234211138Y-45344690D01*
X234211137Y-45344691D01*
X234195368Y-45365574D01*
X234096239Y-45564651D01*
X234096237Y-45564655D01*
X234069525Y-45658540D01*
X234032246Y-45717633D01*
X233968936Y-45747190D01*
X233899697Y-45737828D01*
X233846510Y-45692518D01*
X233830994Y-45658541D01*
X233804229Y-45564472D01*
X233804224Y-45564461D01*
X233705061Y-45365316D01*
X233705056Y-45365308D01*
X233570979Y-45187761D01*
X233406562Y-45037876D01*
X233406560Y-45037874D01*
X233334278Y-44993119D01*
X234566671Y-44993119D01*
X235220000Y-45646447D01*
X235220001Y-45646447D01*
X235873327Y-44993119D01*
X235757178Y-44921202D01*
X235757177Y-44921201D01*
X235549804Y-44840865D01*
X235331193Y-44800000D01*
X235108807Y-44800000D01*
X234890195Y-44840865D01*
X234682824Y-44921200D01*
X234682823Y-44921201D01*
X234566671Y-44993119D01*
X233334278Y-44993119D01*
X233217404Y-44920754D01*
X233217398Y-44920752D01*
X233009940Y-44840382D01*
X232791243Y-44799500D01*
X232568757Y-44799500D01*
X232350060Y-44840382D01*
X232218864Y-44891207D01*
X232142601Y-44920752D01*
X232142595Y-44920754D01*
X231953439Y-45037874D01*
X231953437Y-45037876D01*
X231789020Y-45187761D01*
X231654943Y-45365308D01*
X231654938Y-45365316D01*
X231555775Y-45564461D01*
X231555769Y-45564476D01*
X231494885Y-45778462D01*
X231494884Y-45778464D01*
X231474357Y-45999999D01*
X165555468Y-45999999D01*
X165535635Y-45773308D01*
X165476739Y-45553504D01*
X165380568Y-45347266D01*
X165250047Y-45160861D01*
X165250045Y-45160858D01*
X165089141Y-44999954D01*
X164902734Y-44869432D01*
X164902732Y-44869431D01*
X164696497Y-44773261D01*
X164696488Y-44773258D01*
X164476697Y-44714366D01*
X164476693Y-44714365D01*
X164476692Y-44714365D01*
X164476691Y-44714364D01*
X164476686Y-44714364D01*
X164250002Y-44694532D01*
X164249998Y-44694532D01*
X164023313Y-44714364D01*
X164023302Y-44714366D01*
X163803511Y-44773258D01*
X163803502Y-44773261D01*
X163597267Y-44869431D01*
X163597265Y-44869432D01*
X163410858Y-44999954D01*
X163249954Y-45160858D01*
X163121235Y-45344691D01*
X163119432Y-45347266D01*
X163112380Y-45362387D01*
X163066209Y-45414825D01*
X162999015Y-45433976D01*
X162932134Y-45413760D01*
X162887619Y-45362387D01*
X162880568Y-45347266D01*
X162750047Y-45160861D01*
X162750045Y-45160858D01*
X162589141Y-44999954D01*
X162402734Y-44869432D01*
X162402732Y-44869431D01*
X162196497Y-44773261D01*
X162196488Y-44773258D01*
X161976697Y-44714366D01*
X161976693Y-44714365D01*
X161976692Y-44714365D01*
X161976691Y-44714364D01*
X161976686Y-44714364D01*
X161750002Y-44694532D01*
X161749998Y-44694532D01*
X161523313Y-44714364D01*
X161523302Y-44714366D01*
X161303511Y-44773258D01*
X161303502Y-44773261D01*
X161097267Y-44869431D01*
X161097265Y-44869432D01*
X160910858Y-44999954D01*
X160749954Y-45160858D01*
X160619432Y-45347265D01*
X160619431Y-45347267D01*
X160523261Y-45553502D01*
X160523258Y-45553511D01*
X160464366Y-45773302D01*
X160464364Y-45773313D01*
X160444532Y-45999998D01*
X155500500Y-45999998D01*
X155500500Y-41952135D01*
X160399500Y-41952135D01*
X160399500Y-43647870D01*
X160399501Y-43647876D01*
X160405908Y-43707483D01*
X160456202Y-43842328D01*
X160456206Y-43842335D01*
X160542452Y-43957544D01*
X160542455Y-43957547D01*
X160657664Y-44043793D01*
X160657671Y-44043797D01*
X160792517Y-44094091D01*
X160792516Y-44094091D01*
X160799444Y-44094835D01*
X160852127Y-44100500D01*
X162547872Y-44100499D01*
X162607483Y-44094091D01*
X162742331Y-44043796D01*
X162857546Y-43957546D01*
X162943796Y-43842331D01*
X162994091Y-43707483D01*
X162997862Y-43672401D01*
X163024599Y-43607855D01*
X163081990Y-43568006D01*
X163151816Y-43565511D01*
X163211905Y-43601163D01*
X163222726Y-43614536D01*
X163239956Y-43639143D01*
X163400858Y-43800045D01*
X163400861Y-43800047D01*
X163587266Y-43930568D01*
X163793504Y-44026739D01*
X164013308Y-44085635D01*
X164175230Y-44099801D01*
X164239998Y-44105468D01*
X164240000Y-44105468D01*
X164240002Y-44105468D01*
X164296807Y-44100498D01*
X164466692Y-44085635D01*
X164686496Y-44026739D01*
X164892734Y-43930568D01*
X165079139Y-43800047D01*
X165240047Y-43639139D01*
X165370568Y-43452734D01*
X165397618Y-43394724D01*
X165443790Y-43342285D01*
X165510983Y-43323133D01*
X165577865Y-43343348D01*
X165622382Y-43394725D01*
X165649429Y-43452728D01*
X165649432Y-43452734D01*
X165779954Y-43639141D01*
X165940858Y-43800045D01*
X165940861Y-43800047D01*
X166127266Y-43930568D01*
X166333504Y-44026739D01*
X166553308Y-44085635D01*
X166715230Y-44099801D01*
X166779998Y-44105468D01*
X166780000Y-44105468D01*
X166780002Y-44105468D01*
X166836807Y-44100498D01*
X167006692Y-44085635D01*
X167226496Y-44026739D01*
X167432734Y-43930568D01*
X167619139Y-43800047D01*
X167780047Y-43639139D01*
X167910568Y-43452734D01*
X167937895Y-43394129D01*
X167984064Y-43341695D01*
X168051257Y-43322542D01*
X168118139Y-43342757D01*
X168162657Y-43394133D01*
X168189865Y-43452482D01*
X168320342Y-43638820D01*
X168481179Y-43799657D01*
X168667517Y-43930134D01*
X168873673Y-44026265D01*
X168873682Y-44026269D01*
X169069999Y-44078872D01*
X169070000Y-44078871D01*
X169070000Y-43115686D01*
X169074394Y-43120080D01*
X169165606Y-43172741D01*
X169267339Y-43200000D01*
X169372661Y-43200000D01*
X169474394Y-43172741D01*
X169565606Y-43120080D01*
X169570000Y-43115686D01*
X169570000Y-44078872D01*
X169766317Y-44026269D01*
X169766326Y-44026265D01*
X169972482Y-43930134D01*
X170158820Y-43799657D01*
X170319657Y-43638820D01*
X170450134Y-43452482D01*
X170546265Y-43246326D01*
X170546269Y-43246317D01*
X170598872Y-43050000D01*
X169635686Y-43050000D01*
X169640080Y-43045606D01*
X169692741Y-42954394D01*
X169720000Y-42852661D01*
X169720000Y-42747339D01*
X169692741Y-42645606D01*
X169640080Y-42554394D01*
X169635686Y-42550000D01*
X170598872Y-42550000D01*
X170598872Y-42549999D01*
X170546269Y-42353682D01*
X170546265Y-42353673D01*
X170452287Y-42152135D01*
X194079500Y-42152135D01*
X194079500Y-43847870D01*
X194079501Y-43847876D01*
X194085908Y-43907483D01*
X194136202Y-44042328D01*
X194136206Y-44042335D01*
X194222452Y-44157544D01*
X194222455Y-44157547D01*
X194337664Y-44243793D01*
X194337671Y-44243797D01*
X194472517Y-44294091D01*
X194472516Y-44294091D01*
X194479444Y-44294835D01*
X194532127Y-44300500D01*
X196227872Y-44300499D01*
X196287483Y-44294091D01*
X196422331Y-44243796D01*
X196537546Y-44157546D01*
X196623796Y-44042331D01*
X196674091Y-43907483D01*
X196677862Y-43872401D01*
X196704599Y-43807855D01*
X196761990Y-43768006D01*
X196831816Y-43765511D01*
X196891905Y-43801163D01*
X196902726Y-43814536D01*
X196919956Y-43839143D01*
X197080858Y-44000045D01*
X197118310Y-44026269D01*
X197267266Y-44130568D01*
X197473504Y-44226739D01*
X197693308Y-44285635D01*
X197855230Y-44299801D01*
X197919998Y-44305468D01*
X197920000Y-44305468D01*
X197920002Y-44305468D01*
X197976807Y-44300498D01*
X198146692Y-44285635D01*
X198366496Y-44226739D01*
X198572734Y-44130568D01*
X198759139Y-44000047D01*
X198920047Y-43839139D01*
X199050568Y-43652734D01*
X199077618Y-43594724D01*
X199123790Y-43542285D01*
X199190983Y-43523133D01*
X199257865Y-43543348D01*
X199302381Y-43594724D01*
X199311620Y-43614536D01*
X199329429Y-43652728D01*
X199329432Y-43652734D01*
X199459954Y-43839141D01*
X199620858Y-44000045D01*
X199658310Y-44026269D01*
X199807266Y-44130568D01*
X200013504Y-44226739D01*
X200233308Y-44285635D01*
X200395230Y-44299801D01*
X200459998Y-44305468D01*
X200460000Y-44305468D01*
X200460002Y-44305468D01*
X200516807Y-44300498D01*
X200686692Y-44285635D01*
X200906496Y-44226739D01*
X201112734Y-44130568D01*
X201299139Y-44000047D01*
X201460047Y-43839139D01*
X201590568Y-43652734D01*
X201617895Y-43594129D01*
X201664064Y-43541695D01*
X201731257Y-43522542D01*
X201798139Y-43542757D01*
X201842657Y-43594133D01*
X201869865Y-43652482D01*
X202000342Y-43838820D01*
X202161179Y-43999657D01*
X202347517Y-44130134D01*
X202553673Y-44226265D01*
X202553682Y-44226269D01*
X202749999Y-44278872D01*
X202750000Y-44278871D01*
X202750000Y-43315686D01*
X202754394Y-43320080D01*
X202845606Y-43372741D01*
X202947339Y-43400000D01*
X203052661Y-43400000D01*
X203154394Y-43372741D01*
X203245606Y-43320080D01*
X203250000Y-43315686D01*
X203250000Y-44278872D01*
X203446317Y-44226269D01*
X203446326Y-44226265D01*
X203652482Y-44130134D01*
X203838820Y-43999657D01*
X203999657Y-43838820D01*
X204130134Y-43652482D01*
X204226265Y-43446326D01*
X204226269Y-43446317D01*
X204278872Y-43250000D01*
X203315686Y-43250000D01*
X203320080Y-43245606D01*
X203372741Y-43154394D01*
X203400000Y-43052661D01*
X203400000Y-42947339D01*
X203372741Y-42845606D01*
X203320080Y-42754394D01*
X203315686Y-42750000D01*
X204278872Y-42750000D01*
X204278872Y-42749999D01*
X204226269Y-42553682D01*
X204226265Y-42553673D01*
X204130134Y-42347517D01*
X203999657Y-42161179D01*
X203838820Y-42000342D01*
X203769974Y-41952135D01*
X223399500Y-41952135D01*
X223399500Y-43647870D01*
X223399501Y-43647876D01*
X223405908Y-43707483D01*
X223456202Y-43842328D01*
X223456206Y-43842335D01*
X223542452Y-43957544D01*
X223542455Y-43957547D01*
X223657664Y-44043793D01*
X223657671Y-44043797D01*
X223792517Y-44094091D01*
X223792516Y-44094091D01*
X223799444Y-44094835D01*
X223852127Y-44100500D01*
X225547872Y-44100499D01*
X225607483Y-44094091D01*
X225742331Y-44043796D01*
X225857546Y-43957546D01*
X225943796Y-43842331D01*
X225994091Y-43707483D01*
X225997862Y-43672401D01*
X226024599Y-43607855D01*
X226081990Y-43568006D01*
X226151816Y-43565511D01*
X226211905Y-43601163D01*
X226222726Y-43614536D01*
X226239956Y-43639143D01*
X226400858Y-43800045D01*
X226400861Y-43800047D01*
X226587266Y-43930568D01*
X226793504Y-44026739D01*
X227013308Y-44085635D01*
X227175230Y-44099801D01*
X227239998Y-44105468D01*
X227240000Y-44105468D01*
X227240002Y-44105468D01*
X227296807Y-44100498D01*
X227466692Y-44085635D01*
X227686496Y-44026739D01*
X227892734Y-43930568D01*
X228079139Y-43800047D01*
X228240047Y-43639139D01*
X228370568Y-43452734D01*
X228397618Y-43394724D01*
X228443790Y-43342285D01*
X228510983Y-43323133D01*
X228577865Y-43343348D01*
X228622382Y-43394725D01*
X228649429Y-43452728D01*
X228649432Y-43452734D01*
X228779954Y-43639141D01*
X228940858Y-43800045D01*
X228940861Y-43800047D01*
X229127266Y-43930568D01*
X229333504Y-44026739D01*
X229553308Y-44085635D01*
X229715230Y-44099801D01*
X229779998Y-44105468D01*
X229780000Y-44105468D01*
X229780002Y-44105468D01*
X229836807Y-44100498D01*
X230006692Y-44085635D01*
X230226496Y-44026739D01*
X230432734Y-43930568D01*
X230619139Y-43800047D01*
X230780047Y-43639139D01*
X230910568Y-43452734D01*
X230937618Y-43394724D01*
X230983790Y-43342285D01*
X231050983Y-43323133D01*
X231117865Y-43343348D01*
X231162382Y-43394725D01*
X231189429Y-43452728D01*
X231189432Y-43452734D01*
X231319954Y-43639141D01*
X231480858Y-43800045D01*
X231480861Y-43800047D01*
X231667266Y-43930568D01*
X231873504Y-44026739D01*
X232093308Y-44085635D01*
X232255230Y-44099801D01*
X232319998Y-44105468D01*
X232320000Y-44105468D01*
X232320002Y-44105468D01*
X232376807Y-44100498D01*
X232546692Y-44085635D01*
X232766496Y-44026739D01*
X232972734Y-43930568D01*
X233159139Y-43800047D01*
X233320047Y-43639139D01*
X233450568Y-43452734D01*
X233546739Y-43246496D01*
X233605635Y-43026692D01*
X233625468Y-42800000D01*
X233621093Y-42749999D01*
X233605635Y-42573313D01*
X233605635Y-42573308D01*
X233546739Y-42353504D01*
X233450568Y-42147266D01*
X233320047Y-41960861D01*
X233320045Y-41960858D01*
X233159141Y-41799954D01*
X232972734Y-41669432D01*
X232972732Y-41669431D01*
X232766497Y-41573261D01*
X232766488Y-41573258D01*
X232546697Y-41514366D01*
X232546693Y-41514365D01*
X232546692Y-41514365D01*
X232546691Y-41514364D01*
X232546686Y-41514364D01*
X232320002Y-41494532D01*
X232319998Y-41494532D01*
X232093313Y-41514364D01*
X232093302Y-41514366D01*
X231873511Y-41573258D01*
X231873502Y-41573261D01*
X231667267Y-41669431D01*
X231667265Y-41669432D01*
X231480858Y-41799954D01*
X231319954Y-41960858D01*
X231189432Y-42147265D01*
X231189431Y-42147267D01*
X231182944Y-42161179D01*
X231162624Y-42204757D01*
X231162382Y-42205275D01*
X231116209Y-42257714D01*
X231049016Y-42276866D01*
X230982135Y-42256650D01*
X230937618Y-42205275D01*
X230910568Y-42147266D01*
X230780047Y-41960861D01*
X230780045Y-41960858D01*
X230619141Y-41799954D01*
X230432734Y-41669432D01*
X230432732Y-41669431D01*
X230226497Y-41573261D01*
X230226488Y-41573258D01*
X230006697Y-41514366D01*
X230006693Y-41514365D01*
X230006692Y-41514365D01*
X230006691Y-41514364D01*
X230006686Y-41514364D01*
X229780002Y-41494532D01*
X229779998Y-41494532D01*
X229553313Y-41514364D01*
X229553302Y-41514366D01*
X229333511Y-41573258D01*
X229333502Y-41573261D01*
X229127267Y-41669431D01*
X229127265Y-41669432D01*
X228940858Y-41799954D01*
X228779954Y-41960858D01*
X228649432Y-42147265D01*
X228649431Y-42147267D01*
X228642944Y-42161179D01*
X228622624Y-42204757D01*
X228622382Y-42205275D01*
X228576209Y-42257714D01*
X228509016Y-42276866D01*
X228442135Y-42256650D01*
X228397618Y-42205275D01*
X228370568Y-42147266D01*
X228240047Y-41960861D01*
X228240045Y-41960858D01*
X228079141Y-41799954D01*
X227892734Y-41669432D01*
X227892732Y-41669431D01*
X227686497Y-41573261D01*
X227686488Y-41573258D01*
X227466697Y-41514366D01*
X227466693Y-41514365D01*
X227466692Y-41514365D01*
X227466691Y-41514364D01*
X227466686Y-41514364D01*
X227240002Y-41494532D01*
X227239998Y-41494532D01*
X227013313Y-41514364D01*
X227013302Y-41514366D01*
X226793511Y-41573258D01*
X226793502Y-41573261D01*
X226587267Y-41669431D01*
X226587265Y-41669432D01*
X226400858Y-41799954D01*
X226239954Y-41960858D01*
X226222725Y-41985464D01*
X226168147Y-42029088D01*
X226098648Y-42036280D01*
X226036294Y-42004757D01*
X226000882Y-41944526D01*
X225997861Y-41927591D01*
X225994091Y-41892516D01*
X225943797Y-41757671D01*
X225943793Y-41757664D01*
X225857547Y-41642455D01*
X225857544Y-41642452D01*
X225742335Y-41556206D01*
X225742328Y-41556202D01*
X225607482Y-41505908D01*
X225607483Y-41505908D01*
X225547883Y-41499501D01*
X225547881Y-41499500D01*
X225547873Y-41499500D01*
X225547864Y-41499500D01*
X223852129Y-41499500D01*
X223852123Y-41499501D01*
X223792516Y-41505908D01*
X223657671Y-41556202D01*
X223657664Y-41556206D01*
X223542455Y-41642452D01*
X223542452Y-41642455D01*
X223456206Y-41757664D01*
X223456202Y-41757671D01*
X223405908Y-41892517D01*
X223399501Y-41952116D01*
X223399500Y-41952135D01*
X203769974Y-41952135D01*
X203652482Y-41869865D01*
X203446328Y-41773734D01*
X203250000Y-41721127D01*
X203250000Y-42684314D01*
X203245606Y-42679920D01*
X203154394Y-42627259D01*
X203052661Y-42600000D01*
X202947339Y-42600000D01*
X202845606Y-42627259D01*
X202754394Y-42679920D01*
X202750000Y-42684314D01*
X202750000Y-41721127D01*
X202553671Y-41773734D01*
X202347517Y-41869865D01*
X202161179Y-42000342D01*
X202000342Y-42161179D01*
X201869867Y-42347515D01*
X201842657Y-42405867D01*
X201796484Y-42458306D01*
X201729290Y-42477457D01*
X201662409Y-42457241D01*
X201617893Y-42405865D01*
X201615685Y-42401131D01*
X201590568Y-42347266D01*
X201460047Y-42160861D01*
X201460045Y-42160858D01*
X201299141Y-41999954D01*
X201112734Y-41869432D01*
X201112732Y-41869431D01*
X200906497Y-41773261D01*
X200906488Y-41773258D01*
X200686697Y-41714366D01*
X200686693Y-41714365D01*
X200686692Y-41714365D01*
X200686691Y-41714364D01*
X200686686Y-41714364D01*
X200460002Y-41694532D01*
X200459998Y-41694532D01*
X200233313Y-41714364D01*
X200233302Y-41714366D01*
X200013511Y-41773258D01*
X200013502Y-41773261D01*
X199807267Y-41869431D01*
X199807265Y-41869432D01*
X199620858Y-41999954D01*
X199459954Y-42160858D01*
X199329432Y-42347265D01*
X199329431Y-42347267D01*
X199302382Y-42405275D01*
X199256209Y-42457714D01*
X199189016Y-42476866D01*
X199122135Y-42456650D01*
X199077618Y-42405275D01*
X199075158Y-42400000D01*
X199050568Y-42347266D01*
X198920047Y-42160861D01*
X198920045Y-42160858D01*
X198759141Y-41999954D01*
X198572734Y-41869432D01*
X198572732Y-41869431D01*
X198366497Y-41773261D01*
X198366488Y-41773258D01*
X198146697Y-41714366D01*
X198146693Y-41714365D01*
X198146692Y-41714365D01*
X198146691Y-41714364D01*
X198146686Y-41714364D01*
X197920002Y-41694532D01*
X197919998Y-41694532D01*
X197693313Y-41714364D01*
X197693302Y-41714366D01*
X197473511Y-41773258D01*
X197473502Y-41773261D01*
X197267267Y-41869431D01*
X197267265Y-41869432D01*
X197080858Y-41999954D01*
X196919954Y-42160858D01*
X196902725Y-42185464D01*
X196848147Y-42229088D01*
X196778648Y-42236280D01*
X196716294Y-42204757D01*
X196680882Y-42144526D01*
X196677861Y-42127591D01*
X196674091Y-42092516D01*
X196623797Y-41957671D01*
X196623793Y-41957664D01*
X196537547Y-41842455D01*
X196537544Y-41842452D01*
X196422335Y-41756206D01*
X196422328Y-41756202D01*
X196287482Y-41705908D01*
X196287483Y-41705908D01*
X196227883Y-41699501D01*
X196227881Y-41699500D01*
X196227873Y-41699500D01*
X196227864Y-41699500D01*
X194532129Y-41699500D01*
X194532123Y-41699501D01*
X194472516Y-41705908D01*
X194337671Y-41756202D01*
X194337664Y-41756206D01*
X194222455Y-41842452D01*
X194222452Y-41842455D01*
X194136206Y-41957664D01*
X194136202Y-41957671D01*
X194085908Y-42092517D01*
X194079501Y-42152116D01*
X194079500Y-42152135D01*
X170452287Y-42152135D01*
X170450134Y-42147517D01*
X170319657Y-41961179D01*
X170158820Y-41800342D01*
X169972482Y-41669865D01*
X169766328Y-41573734D01*
X169570000Y-41521127D01*
X169570000Y-42484314D01*
X169565606Y-42479920D01*
X169474394Y-42427259D01*
X169372661Y-42400000D01*
X169267339Y-42400000D01*
X169165606Y-42427259D01*
X169074394Y-42479920D01*
X169070000Y-42484314D01*
X169070000Y-41521127D01*
X168873671Y-41573734D01*
X168667517Y-41669865D01*
X168481179Y-41800342D01*
X168320342Y-41961179D01*
X168189867Y-42147515D01*
X168162657Y-42205867D01*
X168116484Y-42258306D01*
X168049290Y-42277457D01*
X167982409Y-42257241D01*
X167937893Y-42205865D01*
X167937376Y-42204757D01*
X167910568Y-42147266D01*
X167780047Y-41960861D01*
X167780045Y-41960858D01*
X167619141Y-41799954D01*
X167432734Y-41669432D01*
X167432732Y-41669431D01*
X167226497Y-41573261D01*
X167226488Y-41573258D01*
X167006697Y-41514366D01*
X167006693Y-41514365D01*
X167006692Y-41514365D01*
X167006691Y-41514364D01*
X167006686Y-41514364D01*
X166780002Y-41494532D01*
X166779998Y-41494532D01*
X166553313Y-41514364D01*
X166553302Y-41514366D01*
X166333511Y-41573258D01*
X166333502Y-41573261D01*
X166127267Y-41669431D01*
X166127265Y-41669432D01*
X165940858Y-41799954D01*
X165779954Y-41960858D01*
X165649432Y-42147265D01*
X165649431Y-42147267D01*
X165642944Y-42161179D01*
X165622624Y-42204757D01*
X165622382Y-42205275D01*
X165576209Y-42257714D01*
X165509016Y-42276866D01*
X165442135Y-42256650D01*
X165397618Y-42205275D01*
X165370568Y-42147266D01*
X165240047Y-41960861D01*
X165240045Y-41960858D01*
X165079141Y-41799954D01*
X164892734Y-41669432D01*
X164892732Y-41669431D01*
X164686497Y-41573261D01*
X164686488Y-41573258D01*
X164466697Y-41514366D01*
X164466693Y-41514365D01*
X164466692Y-41514365D01*
X164466691Y-41514364D01*
X164466686Y-41514364D01*
X164240002Y-41494532D01*
X164239998Y-41494532D01*
X164013313Y-41514364D01*
X164013302Y-41514366D01*
X163793511Y-41573258D01*
X163793502Y-41573261D01*
X163587267Y-41669431D01*
X163587265Y-41669432D01*
X163400858Y-41799954D01*
X163239954Y-41960858D01*
X163222725Y-41985464D01*
X163168147Y-42029088D01*
X163098648Y-42036280D01*
X163036294Y-42004757D01*
X163000882Y-41944526D01*
X162997861Y-41927591D01*
X162994091Y-41892516D01*
X162943797Y-41757671D01*
X162943793Y-41757664D01*
X162857547Y-41642455D01*
X162857544Y-41642452D01*
X162742335Y-41556206D01*
X162742328Y-41556202D01*
X162607482Y-41505908D01*
X162607483Y-41505908D01*
X162547883Y-41499501D01*
X162547881Y-41499500D01*
X162547873Y-41499500D01*
X162547864Y-41499500D01*
X160852129Y-41499500D01*
X160852123Y-41499501D01*
X160792516Y-41505908D01*
X160657671Y-41556202D01*
X160657664Y-41556206D01*
X160542455Y-41642452D01*
X160542452Y-41642455D01*
X160456206Y-41757664D01*
X160456202Y-41757671D01*
X160405908Y-41892517D01*
X160399501Y-41952116D01*
X160399500Y-41952135D01*
X155500500Y-41952135D01*
X155500500Y-40726879D01*
X174346672Y-40726879D01*
X174346672Y-40726880D01*
X174462821Y-40798797D01*
X174462822Y-40798798D01*
X174670195Y-40879134D01*
X174888807Y-40920000D01*
X175111193Y-40920000D01*
X175329809Y-40879133D01*
X175537168Y-40798801D01*
X175537181Y-40798795D01*
X175653326Y-40726879D01*
X175000001Y-40073553D01*
X175000000Y-40073553D01*
X174346672Y-40726879D01*
X155500500Y-40726879D01*
X155500500Y-39719999D01*
X173794859Y-39719999D01*
X173794859Y-39720000D01*
X173815378Y-39941439D01*
X173876240Y-40155350D01*
X173975369Y-40354428D01*
X173991137Y-40375308D01*
X173991138Y-40375308D01*
X174646447Y-39720000D01*
X174600369Y-39673922D01*
X174650000Y-39673922D01*
X174650000Y-39766078D01*
X174673852Y-39855095D01*
X174719930Y-39934905D01*
X174785095Y-40000070D01*
X174864905Y-40046148D01*
X174953922Y-40070000D01*
X175046078Y-40070000D01*
X175135095Y-40046148D01*
X175214905Y-40000070D01*
X175280070Y-39934905D01*
X175326148Y-39855095D01*
X175350000Y-39766078D01*
X175350000Y-39719999D01*
X175353553Y-39719999D01*
X175353553Y-39720000D01*
X176008861Y-40375308D01*
X176024631Y-40354425D01*
X176024633Y-40354422D01*
X176123759Y-40155350D01*
X176184621Y-39941439D01*
X176205141Y-39720000D01*
X176205141Y-39719999D01*
X176184621Y-39498560D01*
X176123759Y-39284649D01*
X176024635Y-39085580D01*
X176024630Y-39085572D01*
X176008860Y-39064690D01*
X175353553Y-39719999D01*
X175350000Y-39719999D01*
X175350000Y-39673922D01*
X175326148Y-39584905D01*
X175280070Y-39505095D01*
X175214905Y-39439930D01*
X175135095Y-39393852D01*
X175046078Y-39370000D01*
X174953922Y-39370000D01*
X174864905Y-39393852D01*
X174785095Y-39439930D01*
X174719930Y-39505095D01*
X174673852Y-39584905D01*
X174650000Y-39673922D01*
X174600369Y-39673922D01*
X173991138Y-39064691D01*
X173991137Y-39064691D01*
X173975368Y-39085574D01*
X173876240Y-39284649D01*
X173815378Y-39498560D01*
X173794859Y-39719999D01*
X155500500Y-39719999D01*
X155500500Y-32499998D01*
X157764532Y-32499998D01*
X157764532Y-32500001D01*
X157784364Y-32726686D01*
X157784366Y-32726697D01*
X157843258Y-32946488D01*
X157843261Y-32946497D01*
X157939431Y-33152732D01*
X157939432Y-33152734D01*
X158069954Y-33339141D01*
X158230858Y-33500045D01*
X158230861Y-33500047D01*
X158417266Y-33630568D01*
X158623504Y-33726739D01*
X158623509Y-33726740D01*
X158623511Y-33726741D01*
X158658750Y-33736183D01*
X158843308Y-33785635D01*
X159005230Y-33799801D01*
X159069998Y-33805468D01*
X159070000Y-33805468D01*
X159070002Y-33805468D01*
X159126673Y-33800509D01*
X159296692Y-33785635D01*
X159516496Y-33726739D01*
X159722734Y-33630568D01*
X159909139Y-33500047D01*
X160070047Y-33339139D01*
X160200568Y-33152734D01*
X160207893Y-33137024D01*
X160254064Y-33084586D01*
X160321257Y-33065433D01*
X160388138Y-33085648D01*
X160432657Y-33137024D01*
X160439864Y-33152480D01*
X160490974Y-33225472D01*
X161170000Y-32546446D01*
X161170000Y-32552661D01*
X161197259Y-32654394D01*
X161249920Y-32745606D01*
X161324394Y-32820080D01*
X161415606Y-32872741D01*
X161517339Y-32900000D01*
X161523553Y-32900000D01*
X160844526Y-33579025D01*
X160917513Y-33630132D01*
X160917521Y-33630136D01*
X161123668Y-33726264D01*
X161123684Y-33726270D01*
X161186945Y-33743220D01*
X161246606Y-33779584D01*
X161277136Y-33842431D01*
X161268842Y-33911806D01*
X161224357Y-33965685D01*
X161207258Y-33975377D01*
X161047517Y-34049865D01*
X160861179Y-34180342D01*
X160700342Y-34341179D01*
X160569865Y-34527517D01*
X160473734Y-34733673D01*
X160473730Y-34733682D01*
X160421127Y-34929999D01*
X160421128Y-34930000D01*
X161384314Y-34930000D01*
X161379920Y-34934394D01*
X161327259Y-35025606D01*
X161300000Y-35127339D01*
X161300000Y-35232661D01*
X161327259Y-35334394D01*
X161379920Y-35425606D01*
X161384314Y-35430000D01*
X160421128Y-35430000D01*
X160473730Y-35626317D01*
X160473734Y-35626326D01*
X160569865Y-35832482D01*
X160700342Y-36018820D01*
X160861179Y-36179657D01*
X161047517Y-36310134D01*
X161253673Y-36406265D01*
X161253682Y-36406269D01*
X161449999Y-36458872D01*
X161450000Y-36458871D01*
X161450000Y-35495686D01*
X161454394Y-35500080D01*
X161545606Y-35552741D01*
X161647339Y-35580000D01*
X161752661Y-35580000D01*
X161854394Y-35552741D01*
X161945606Y-35500080D01*
X161950000Y-35495686D01*
X161950000Y-36458872D01*
X162146317Y-36406269D01*
X162146326Y-36406265D01*
X162352482Y-36310134D01*
X162538820Y-36179657D01*
X162699657Y-36018820D01*
X162830132Y-35832484D01*
X162857341Y-35774134D01*
X162903513Y-35721695D01*
X162970707Y-35702542D01*
X163037588Y-35722757D01*
X163082106Y-35774133D01*
X163109431Y-35832732D01*
X163109432Y-35832734D01*
X163239954Y-36019141D01*
X163400858Y-36180045D01*
X163430434Y-36200754D01*
X163587266Y-36310568D01*
X163793504Y-36406739D01*
X164013308Y-36465635D01*
X164175230Y-36479801D01*
X164239998Y-36485468D01*
X164240000Y-36485468D01*
X164240002Y-36485468D01*
X164296673Y-36480509D01*
X164466692Y-36465635D01*
X164686496Y-36406739D01*
X164892734Y-36310568D01*
X165079139Y-36180047D01*
X165240047Y-36019139D01*
X165370568Y-35832734D01*
X165397618Y-35774724D01*
X165443790Y-35722285D01*
X165510983Y-35703133D01*
X165577865Y-35723348D01*
X165622382Y-35774725D01*
X165649429Y-35832728D01*
X165649432Y-35832734D01*
X165779954Y-36019141D01*
X165944689Y-36183876D01*
X165943796Y-36184768D01*
X165979102Y-36237826D01*
X165980216Y-36307686D01*
X165977739Y-36315607D01*
X165947947Y-36400745D01*
X165947946Y-36400750D01*
X165927751Y-36579996D01*
X165927751Y-36580000D01*
X165947946Y-36759249D01*
X165947947Y-36759254D01*
X166007527Y-36929523D01*
X166025711Y-36958462D01*
X166103500Y-37082262D01*
X166231054Y-37209816D01*
X166383794Y-37305789D01*
X166554061Y-37365368D01*
X166554066Y-37365369D01*
X166733312Y-37385565D01*
X166733316Y-37385565D01*
X166733320Y-37385565D01*
X166912565Y-37365369D01*
X166912568Y-37365368D01*
X166912571Y-37365368D01*
X167082838Y-37305789D01*
X167235578Y-37209816D01*
X167265395Y-37179999D01*
X173794357Y-37179999D01*
X173794357Y-37180000D01*
X173814884Y-37401535D01*
X173814885Y-37401537D01*
X173875769Y-37615523D01*
X173875775Y-37615538D01*
X173974938Y-37814683D01*
X173974943Y-37814691D01*
X174109020Y-37992238D01*
X174273437Y-38142123D01*
X174273439Y-38142125D01*
X174462595Y-38259245D01*
X174462596Y-38259245D01*
X174462599Y-38259247D01*
X174657215Y-38334642D01*
X174712614Y-38377213D01*
X174736205Y-38442980D01*
X174720494Y-38511060D01*
X174670470Y-38559839D01*
X174657213Y-38565893D01*
X174462833Y-38641196D01*
X174462823Y-38641201D01*
X174346671Y-38713119D01*
X175000000Y-39366447D01*
X175000001Y-39366447D01*
X175653327Y-38713119D01*
X175537178Y-38641202D01*
X175537177Y-38641201D01*
X175342786Y-38565894D01*
X175287384Y-38523321D01*
X175263794Y-38457554D01*
X175279505Y-38389474D01*
X175329529Y-38340695D01*
X175342772Y-38334646D01*
X175537401Y-38259247D01*
X175726562Y-38142124D01*
X175890981Y-37992236D01*
X176025058Y-37814689D01*
X176124229Y-37615528D01*
X176185115Y-37401536D01*
X176196377Y-37279999D01*
X179294357Y-37279999D01*
X179294357Y-37280000D01*
X179314884Y-37501535D01*
X179314885Y-37501537D01*
X179375769Y-37715523D01*
X179375775Y-37715538D01*
X179474938Y-37914683D01*
X179474943Y-37914691D01*
X179609020Y-38092238D01*
X179773437Y-38242123D01*
X179773439Y-38242125D01*
X179962595Y-38359245D01*
X179962596Y-38359245D01*
X179962599Y-38359247D01*
X180156524Y-38434374D01*
X180211924Y-38476946D01*
X180235515Y-38542713D01*
X180219804Y-38610793D01*
X180169780Y-38659572D01*
X180156533Y-38665622D01*
X180008488Y-38722975D01*
X179962601Y-38740752D01*
X179962595Y-38740754D01*
X179773439Y-38857874D01*
X179773437Y-38857876D01*
X179609020Y-39007761D01*
X179474943Y-39185308D01*
X179474938Y-39185316D01*
X179375775Y-39384461D01*
X179375769Y-39384476D01*
X179314885Y-39598462D01*
X179314884Y-39598464D01*
X179294357Y-39819999D01*
X179294357Y-39820000D01*
X179314884Y-40041535D01*
X179314885Y-40041537D01*
X179375769Y-40255523D01*
X179375775Y-40255538D01*
X179474938Y-40454683D01*
X179474943Y-40454691D01*
X179609020Y-40632238D01*
X179773437Y-40782123D01*
X179773439Y-40782125D01*
X179962595Y-40899245D01*
X179962596Y-40899245D01*
X179962599Y-40899247D01*
X180170060Y-40979618D01*
X180388757Y-41020500D01*
X180388759Y-41020500D01*
X180611241Y-41020500D01*
X180611243Y-41020500D01*
X180829940Y-40979618D01*
X181037401Y-40899247D01*
X181226562Y-40782124D01*
X181390981Y-40632236D01*
X181525058Y-40454689D01*
X181592126Y-40319999D01*
X188214357Y-40319999D01*
X188214357Y-40320000D01*
X188234884Y-40541535D01*
X188234885Y-40541537D01*
X188295769Y-40755523D01*
X188295775Y-40755538D01*
X188394938Y-40954683D01*
X188394943Y-40954691D01*
X188529020Y-41132238D01*
X188693437Y-41282123D01*
X188693439Y-41282125D01*
X188882595Y-41399245D01*
X188882596Y-41399245D01*
X188882599Y-41399247D01*
X189090060Y-41479618D01*
X189308757Y-41520500D01*
X189308759Y-41520500D01*
X189531241Y-41520500D01*
X189531243Y-41520500D01*
X189749940Y-41479618D01*
X189957401Y-41399247D01*
X190146562Y-41282124D01*
X190310981Y-41132236D01*
X190445058Y-40954689D01*
X190544229Y-40755528D01*
X190605115Y-40541536D01*
X190625643Y-40320000D01*
X190605115Y-40098464D01*
X190544229Y-39884472D01*
X190512126Y-39820000D01*
X190445061Y-39685316D01*
X190445056Y-39685308D01*
X190310979Y-39507761D01*
X190146562Y-39357876D01*
X190146560Y-39357874D01*
X189957404Y-39240754D01*
X189957398Y-39240751D01*
X189795577Y-39178062D01*
X189795541Y-39178048D01*
X257654500Y-39178048D01*
X257654500Y-39421951D01*
X257681013Y-39623333D01*
X257686334Y-39663744D01*
X257749456Y-39899320D01*
X257749459Y-39899330D01*
X257842786Y-40124640D01*
X257842791Y-40124651D01*
X257964727Y-40335848D01*
X257964738Y-40335864D01*
X258113199Y-40529343D01*
X258113205Y-40529350D01*
X258285649Y-40701794D01*
X258285656Y-40701800D01*
X258390337Y-40782124D01*
X258479144Y-40850268D01*
X258479151Y-40850272D01*
X258690348Y-40972208D01*
X258690353Y-40972210D01*
X258690356Y-40972212D01*
X258915679Y-41065544D01*
X259151256Y-41128666D01*
X259393056Y-41160500D01*
X259393063Y-41160500D01*
X260156937Y-41160500D01*
X260156944Y-41160500D01*
X260398744Y-41128666D01*
X260634321Y-41065544D01*
X260859644Y-40972212D01*
X261070856Y-40850268D01*
X261264345Y-40701799D01*
X261436799Y-40529345D01*
X261585268Y-40335856D01*
X261707212Y-40124644D01*
X261800544Y-39899321D01*
X261863666Y-39663744D01*
X261895500Y-39421944D01*
X261895500Y-39178056D01*
X261863666Y-38936256D01*
X261800544Y-38700679D01*
X261707212Y-38475356D01*
X261707210Y-38475353D01*
X261707208Y-38475348D01*
X261585272Y-38264151D01*
X261585268Y-38264144D01*
X261436799Y-38070655D01*
X261436794Y-38070649D01*
X261264350Y-37898205D01*
X261264343Y-37898199D01*
X261070864Y-37749738D01*
X261070862Y-37749736D01*
X261070856Y-37749732D01*
X261070851Y-37749729D01*
X261070848Y-37749727D01*
X260859651Y-37627791D01*
X260859640Y-37627786D01*
X260634330Y-37534459D01*
X260634323Y-37534457D01*
X260634321Y-37534456D01*
X260398744Y-37471334D01*
X260358333Y-37466013D01*
X260156951Y-37439500D01*
X260156944Y-37439500D01*
X259393056Y-37439500D01*
X259393048Y-37439500D01*
X259162896Y-37469801D01*
X259151256Y-37471334D01*
X259038536Y-37501537D01*
X258915679Y-37534456D01*
X258915669Y-37534459D01*
X258690359Y-37627786D01*
X258690348Y-37627791D01*
X258479151Y-37749727D01*
X258479135Y-37749738D01*
X258285656Y-37898199D01*
X258285649Y-37898205D01*
X258113205Y-38070649D01*
X258113199Y-38070656D01*
X257964738Y-38264135D01*
X257964727Y-38264151D01*
X257842791Y-38475348D01*
X257842786Y-38475359D01*
X257749459Y-38700669D01*
X257749456Y-38700679D01*
X257686911Y-38934105D01*
X257686335Y-38936253D01*
X257686333Y-38936264D01*
X257654500Y-39178048D01*
X189795541Y-39178048D01*
X189762784Y-39165358D01*
X189707385Y-39122786D01*
X189683794Y-39057019D01*
X189699505Y-38988939D01*
X189749529Y-38940160D01*
X189762786Y-38934105D01*
X189957177Y-38858797D01*
X189957181Y-38858795D01*
X190073326Y-38786879D01*
X189420001Y-38133553D01*
X189420000Y-38133553D01*
X188766672Y-38786879D01*
X188766672Y-38786880D01*
X188882821Y-38858797D01*
X188882822Y-38858798D01*
X189077213Y-38934105D01*
X189132614Y-38976678D01*
X189156205Y-39042445D01*
X189140494Y-39110525D01*
X189090470Y-39159304D01*
X189077213Y-39165359D01*
X188882601Y-39240751D01*
X188882595Y-39240754D01*
X188693439Y-39357874D01*
X188693437Y-39357876D01*
X188529020Y-39507761D01*
X188394943Y-39685308D01*
X188394938Y-39685316D01*
X188295775Y-39884461D01*
X188295769Y-39884476D01*
X188234885Y-40098462D01*
X188234884Y-40098464D01*
X188214357Y-40319999D01*
X181592126Y-40319999D01*
X181624229Y-40255528D01*
X181685115Y-40041536D01*
X181705643Y-39820000D01*
X181700646Y-39766078D01*
X181685115Y-39598464D01*
X181685114Y-39598462D01*
X181659308Y-39507764D01*
X181624229Y-39384472D01*
X181552666Y-39240754D01*
X181525061Y-39185316D01*
X181525056Y-39185308D01*
X181390979Y-39007761D01*
X181226562Y-38857876D01*
X181226560Y-38857874D01*
X181037404Y-38740754D01*
X181037395Y-38740750D01*
X180933958Y-38700679D01*
X180843475Y-38665625D01*
X180788075Y-38623054D01*
X180764484Y-38557288D01*
X180780195Y-38489207D01*
X180830219Y-38440428D01*
X180843466Y-38434377D01*
X181037401Y-38359247D01*
X181226562Y-38242124D01*
X181390981Y-38092236D01*
X181525058Y-37914689D01*
X181592126Y-37779999D01*
X188214859Y-37779999D01*
X188214859Y-37780000D01*
X188235378Y-38001439D01*
X188296240Y-38215350D01*
X188395369Y-38414428D01*
X188411137Y-38435308D01*
X188411138Y-38435308D01*
X189066447Y-37780000D01*
X189020369Y-37733922D01*
X189070000Y-37733922D01*
X189070000Y-37826078D01*
X189093852Y-37915095D01*
X189139930Y-37994905D01*
X189205095Y-38060070D01*
X189284905Y-38106148D01*
X189373922Y-38130000D01*
X189466078Y-38130000D01*
X189555095Y-38106148D01*
X189634905Y-38060070D01*
X189700070Y-37994905D01*
X189746148Y-37915095D01*
X189770000Y-37826078D01*
X189770000Y-37779999D01*
X189773553Y-37779999D01*
X189773553Y-37780000D01*
X190428861Y-38435308D01*
X190444631Y-38414425D01*
X190444633Y-38414422D01*
X190543759Y-38215350D01*
X190604621Y-38001439D01*
X190625141Y-37780000D01*
X190625141Y-37779999D01*
X190604621Y-37558560D01*
X190543759Y-37344649D01*
X190444635Y-37145580D01*
X190444630Y-37145572D01*
X190428860Y-37124690D01*
X189773553Y-37779999D01*
X189770000Y-37779999D01*
X189770000Y-37733922D01*
X189746148Y-37644905D01*
X189700070Y-37565095D01*
X189634905Y-37499930D01*
X189555095Y-37453852D01*
X189466078Y-37430000D01*
X189373922Y-37430000D01*
X189284905Y-37453852D01*
X189205095Y-37499930D01*
X189139930Y-37565095D01*
X189093852Y-37644905D01*
X189070000Y-37733922D01*
X189020369Y-37733922D01*
X188411138Y-37124691D01*
X188411137Y-37124691D01*
X188395368Y-37145574D01*
X188296240Y-37344649D01*
X188235378Y-37558560D01*
X188214859Y-37779999D01*
X181592126Y-37779999D01*
X181624229Y-37715528D01*
X181685115Y-37501536D01*
X181705643Y-37280000D01*
X181685115Y-37058464D01*
X181624229Y-36844472D01*
X181624224Y-36844461D01*
X181588700Y-36773119D01*
X188766671Y-36773119D01*
X189420000Y-37426447D01*
X189420001Y-37426447D01*
X190073327Y-36773119D01*
X189957178Y-36701202D01*
X189957177Y-36701201D01*
X189749804Y-36620865D01*
X189531193Y-36580000D01*
X189308807Y-36580000D01*
X189090195Y-36620865D01*
X188882824Y-36701200D01*
X188882823Y-36701201D01*
X188766671Y-36773119D01*
X181588700Y-36773119D01*
X181525061Y-36645316D01*
X181525056Y-36645308D01*
X181390979Y-36467761D01*
X181226562Y-36317876D01*
X181226560Y-36317874D01*
X181037404Y-36200754D01*
X181037398Y-36200752D01*
X180829940Y-36120382D01*
X180611243Y-36079500D01*
X180388757Y-36079500D01*
X180170060Y-36120382D01*
X180038864Y-36171207D01*
X179962601Y-36200752D01*
X179962595Y-36200754D01*
X179773439Y-36317874D01*
X179773437Y-36317876D01*
X179609020Y-36467761D01*
X179474943Y-36645308D01*
X179474938Y-36645316D01*
X179375775Y-36844461D01*
X179375769Y-36844476D01*
X179314885Y-37058462D01*
X179314884Y-37058464D01*
X179294357Y-37279999D01*
X176196377Y-37279999D01*
X176205643Y-37180000D01*
X176185115Y-36958464D01*
X176124229Y-36744472D01*
X176102683Y-36701202D01*
X176025061Y-36545316D01*
X176025056Y-36545308D01*
X175890979Y-36367761D01*
X175726562Y-36217876D01*
X175726560Y-36217874D01*
X175537404Y-36100754D01*
X175537398Y-36100752D01*
X175329940Y-36020382D01*
X175111243Y-35979500D01*
X174888757Y-35979500D01*
X174670060Y-36020382D01*
X174538864Y-36071207D01*
X174462601Y-36100752D01*
X174462595Y-36100754D01*
X174273439Y-36217874D01*
X174273437Y-36217876D01*
X174109020Y-36367761D01*
X173974943Y-36545308D01*
X173974938Y-36545316D01*
X173875775Y-36744461D01*
X173875769Y-36744476D01*
X173814885Y-36958462D01*
X173814884Y-36958464D01*
X173794357Y-37179999D01*
X167265395Y-37179999D01*
X167363132Y-37082262D01*
X167459105Y-36929522D01*
X167518684Y-36759255D01*
X167529995Y-36658871D01*
X167538881Y-36580000D01*
X167538881Y-36579996D01*
X167518685Y-36400751D01*
X167518684Y-36400749D01*
X167518684Y-36400745D01*
X167507445Y-36368628D01*
X167503883Y-36298854D01*
X167538611Y-36238226D01*
X167553351Y-36226110D01*
X167619139Y-36180047D01*
X167780047Y-36019139D01*
X167910568Y-35832734D01*
X167937618Y-35774724D01*
X167983790Y-35722285D01*
X168050983Y-35703133D01*
X168117865Y-35723348D01*
X168162382Y-35774725D01*
X168189429Y-35832728D01*
X168189432Y-35832734D01*
X168319954Y-36019141D01*
X168480858Y-36180045D01*
X168510434Y-36200754D01*
X168667266Y-36310568D01*
X168873504Y-36406739D01*
X169093308Y-36465635D01*
X169255230Y-36479801D01*
X169319998Y-36485468D01*
X169320000Y-36485468D01*
X169320002Y-36485468D01*
X169376673Y-36480509D01*
X169546692Y-36465635D01*
X169766496Y-36406739D01*
X169972734Y-36310568D01*
X170159139Y-36180047D01*
X170320047Y-36019139D01*
X170450568Y-35832734D01*
X170546739Y-35626496D01*
X170605635Y-35406692D01*
X170625468Y-35180000D01*
X170624492Y-35168849D01*
X170621093Y-35129999D01*
X194101127Y-35129999D01*
X194101128Y-35130000D01*
X195064314Y-35130000D01*
X195059920Y-35134394D01*
X195007259Y-35225606D01*
X194980000Y-35327339D01*
X194980000Y-35432661D01*
X195007259Y-35534394D01*
X195059920Y-35625606D01*
X195064314Y-35630000D01*
X194101128Y-35630000D01*
X194153730Y-35826317D01*
X194153734Y-35826326D01*
X194249865Y-36032482D01*
X194380342Y-36218820D01*
X194541179Y-36379657D01*
X194727517Y-36510134D01*
X194933673Y-36606265D01*
X194933682Y-36606269D01*
X195129999Y-36658872D01*
X195130000Y-36658871D01*
X195130000Y-35695686D01*
X195134394Y-35700080D01*
X195225606Y-35752741D01*
X195327339Y-35780000D01*
X195432661Y-35780000D01*
X195534394Y-35752741D01*
X195625606Y-35700080D01*
X195630000Y-35695686D01*
X195630000Y-36658872D01*
X195826317Y-36606269D01*
X195826326Y-36606265D01*
X196032482Y-36510134D01*
X196218820Y-36379657D01*
X196379657Y-36218820D01*
X196510132Y-36032484D01*
X196537341Y-35974134D01*
X196583513Y-35921695D01*
X196650707Y-35902542D01*
X196717588Y-35922757D01*
X196762105Y-35974132D01*
X196782944Y-36018820D01*
X196789431Y-36032732D01*
X196789432Y-36032734D01*
X196919954Y-36219141D01*
X197080858Y-36380045D01*
X197118310Y-36406269D01*
X197267266Y-36510568D01*
X197473504Y-36606739D01*
X197693308Y-36665635D01*
X197855230Y-36679801D01*
X197919998Y-36685468D01*
X197920000Y-36685468D01*
X197920002Y-36685468D01*
X197976673Y-36680509D01*
X198146692Y-36665635D01*
X198366496Y-36606739D01*
X198572734Y-36510568D01*
X198759139Y-36380047D01*
X198920047Y-36219139D01*
X199050568Y-36032734D01*
X199077618Y-35974724D01*
X199123790Y-35922285D01*
X199190983Y-35903133D01*
X199257865Y-35923348D01*
X199302381Y-35974724D01*
X199316517Y-36005038D01*
X199329429Y-36032728D01*
X199329432Y-36032734D01*
X199459954Y-36219141D01*
X199620858Y-36380045D01*
X199658310Y-36406269D01*
X199807266Y-36510568D01*
X200013504Y-36606739D01*
X200233308Y-36665635D01*
X200395230Y-36679801D01*
X200459998Y-36685468D01*
X200460000Y-36685468D01*
X200460002Y-36685468D01*
X200516673Y-36680509D01*
X200686692Y-36665635D01*
X200906496Y-36606739D01*
X201112734Y-36510568D01*
X201299139Y-36380047D01*
X201460047Y-36219139D01*
X201590568Y-36032734D01*
X201617618Y-35974724D01*
X201663790Y-35922285D01*
X201730983Y-35903133D01*
X201797865Y-35923348D01*
X201842381Y-35974724D01*
X201856517Y-36005038D01*
X201869429Y-36032728D01*
X201869432Y-36032734D01*
X201999954Y-36219141D01*
X202160858Y-36380045D01*
X202198310Y-36406269D01*
X202347266Y-36510568D01*
X202553504Y-36606739D01*
X202773308Y-36665635D01*
X202935230Y-36679801D01*
X202999998Y-36685468D01*
X203000000Y-36685468D01*
X203000002Y-36685468D01*
X203056673Y-36680509D01*
X203226692Y-36665635D01*
X203446496Y-36606739D01*
X203652734Y-36510568D01*
X203839139Y-36380047D01*
X204000047Y-36219139D01*
X204130568Y-36032734D01*
X204226739Y-35826496D01*
X204285635Y-35606692D01*
X204305468Y-35380000D01*
X204285635Y-35153308D01*
X204232047Y-34953313D01*
X204226741Y-34933511D01*
X204226738Y-34933502D01*
X204182071Y-34837714D01*
X204130568Y-34727266D01*
X204000047Y-34540861D01*
X204000045Y-34540858D01*
X203839141Y-34379954D01*
X203652734Y-34249432D01*
X203652732Y-34249431D01*
X203446497Y-34153261D01*
X203446488Y-34153258D01*
X203226697Y-34094366D01*
X203226693Y-34094365D01*
X203226692Y-34094365D01*
X203226691Y-34094364D01*
X203226686Y-34094364D01*
X203000002Y-34074532D01*
X202999998Y-34074532D01*
X202773313Y-34094364D01*
X202773302Y-34094366D01*
X202553511Y-34153258D01*
X202553502Y-34153261D01*
X202347267Y-34249431D01*
X202347265Y-34249432D01*
X202160858Y-34379954D01*
X201999954Y-34540858D01*
X201869432Y-34727265D01*
X201869431Y-34727267D01*
X201842382Y-34785275D01*
X201796209Y-34837714D01*
X201729016Y-34856866D01*
X201662135Y-34836650D01*
X201617618Y-34785275D01*
X201615158Y-34780000D01*
X201590568Y-34727266D01*
X201460047Y-34540861D01*
X201460045Y-34540858D01*
X201299141Y-34379954D01*
X201112734Y-34249432D01*
X201112732Y-34249431D01*
X200906497Y-34153261D01*
X200906488Y-34153258D01*
X200686697Y-34094366D01*
X200686693Y-34094365D01*
X200686692Y-34094365D01*
X200686691Y-34094364D01*
X200686686Y-34094364D01*
X200460002Y-34074532D01*
X200459998Y-34074532D01*
X200233313Y-34094364D01*
X200233302Y-34094366D01*
X200013511Y-34153258D01*
X200013502Y-34153261D01*
X199807267Y-34249431D01*
X199807265Y-34249432D01*
X199620858Y-34379954D01*
X199459954Y-34540858D01*
X199329432Y-34727265D01*
X199329431Y-34727267D01*
X199302382Y-34785275D01*
X199256209Y-34837714D01*
X199189016Y-34856866D01*
X199122135Y-34836650D01*
X199077618Y-34785275D01*
X199075158Y-34780000D01*
X199050568Y-34727266D01*
X198920047Y-34540861D01*
X198920045Y-34540858D01*
X198759141Y-34379954D01*
X198572734Y-34249432D01*
X198572732Y-34249431D01*
X198366497Y-34153261D01*
X198366488Y-34153258D01*
X198146697Y-34094366D01*
X198146693Y-34094365D01*
X198146692Y-34094365D01*
X198146691Y-34094364D01*
X198146686Y-34094364D01*
X197920002Y-34074532D01*
X197919998Y-34074532D01*
X197693313Y-34094364D01*
X197693302Y-34094366D01*
X197473511Y-34153258D01*
X197473502Y-34153261D01*
X197267267Y-34249431D01*
X197267265Y-34249432D01*
X197080858Y-34379954D01*
X196919954Y-34540858D01*
X196838312Y-34657457D01*
X196789432Y-34727266D01*
X196789315Y-34727518D01*
X196762106Y-34785867D01*
X196715933Y-34838306D01*
X196648739Y-34857457D01*
X196581858Y-34837241D01*
X196537342Y-34785865D01*
X196510135Y-34727520D01*
X196510134Y-34727518D01*
X196379657Y-34541179D01*
X196218820Y-34380342D01*
X196032482Y-34249865D01*
X195826328Y-34153734D01*
X195630000Y-34101127D01*
X195630000Y-35064314D01*
X195625606Y-35059920D01*
X195534394Y-35007259D01*
X195432661Y-34980000D01*
X195327339Y-34980000D01*
X195225606Y-35007259D01*
X195134394Y-35059920D01*
X195130000Y-35064314D01*
X195130000Y-34101127D01*
X194933671Y-34153734D01*
X194727517Y-34249865D01*
X194541179Y-34380342D01*
X194380342Y-34541179D01*
X194249865Y-34727517D01*
X194153734Y-34933673D01*
X194153730Y-34933682D01*
X194101127Y-35129999D01*
X170621093Y-35129999D01*
X170610355Y-35007259D01*
X170605635Y-34953308D01*
X170546739Y-34733504D01*
X170450568Y-34527266D01*
X170320047Y-34340861D01*
X170320045Y-34340858D01*
X170159141Y-34179954D01*
X169972734Y-34049432D01*
X169972732Y-34049431D01*
X169832444Y-33984013D01*
X169780005Y-33937840D01*
X169760853Y-33870647D01*
X169781069Y-33803766D01*
X169834235Y-33758431D01*
X169852751Y-33751857D01*
X169946496Y-33726739D01*
X170152734Y-33630568D01*
X170339139Y-33500047D01*
X170500047Y-33339139D01*
X170630568Y-33152734D01*
X170637618Y-33137614D01*
X170683789Y-33085176D01*
X170750982Y-33066023D01*
X170817864Y-33086238D01*
X170862381Y-33137614D01*
X170869432Y-33152733D01*
X170869432Y-33152734D01*
X170999954Y-33339141D01*
X171160858Y-33500045D01*
X171160861Y-33500047D01*
X171347266Y-33630568D01*
X171553504Y-33726739D01*
X171553509Y-33726740D01*
X171553511Y-33726741D01*
X171588750Y-33736183D01*
X171773308Y-33785635D01*
X171935230Y-33799801D01*
X171999998Y-33805468D01*
X172000000Y-33805468D01*
X172000002Y-33805468D01*
X172056673Y-33800509D01*
X172226692Y-33785635D01*
X172446496Y-33726739D01*
X172652734Y-33630568D01*
X172839139Y-33500047D01*
X173000047Y-33339139D01*
X173130568Y-33152734D01*
X173226739Y-32946496D01*
X173285635Y-32726692D01*
X173305468Y-32500000D01*
X173305468Y-32499998D01*
X191444532Y-32499998D01*
X191444532Y-32500001D01*
X191464364Y-32726686D01*
X191464366Y-32726697D01*
X191523258Y-32946488D01*
X191523261Y-32946497D01*
X191619431Y-33152732D01*
X191619432Y-33152734D01*
X191749954Y-33339141D01*
X191910858Y-33500045D01*
X191910861Y-33500047D01*
X192097266Y-33630568D01*
X192303504Y-33726739D01*
X192303509Y-33726740D01*
X192303511Y-33726741D01*
X192338750Y-33736183D01*
X192523308Y-33785635D01*
X192685230Y-33799801D01*
X192749998Y-33805468D01*
X192750000Y-33805468D01*
X192750002Y-33805468D01*
X192806673Y-33800509D01*
X192976692Y-33785635D01*
X193196496Y-33726739D01*
X193402734Y-33630568D01*
X193589139Y-33500047D01*
X193750047Y-33339139D01*
X193880568Y-33152734D01*
X193887893Y-33137024D01*
X193934064Y-33084586D01*
X194001257Y-33065433D01*
X194068138Y-33085648D01*
X194112657Y-33137024D01*
X194119864Y-33152480D01*
X194170974Y-33225472D01*
X194850000Y-32546446D01*
X194850000Y-32552661D01*
X194877259Y-32654394D01*
X194929920Y-32745606D01*
X195004394Y-32820080D01*
X195095606Y-32872741D01*
X195197339Y-32900000D01*
X195203553Y-32900000D01*
X194524526Y-33579025D01*
X194597513Y-33630132D01*
X194597521Y-33630136D01*
X194803668Y-33726264D01*
X194803682Y-33726269D01*
X195023389Y-33785139D01*
X195023400Y-33785141D01*
X195249998Y-33804966D01*
X195250002Y-33804966D01*
X195476599Y-33785141D01*
X195476610Y-33785139D01*
X195696317Y-33726269D01*
X195696331Y-33726264D01*
X195902478Y-33630136D01*
X195975471Y-33579024D01*
X195296447Y-32900000D01*
X195302661Y-32900000D01*
X195404394Y-32872741D01*
X195495606Y-32820080D01*
X195570080Y-32745606D01*
X195622741Y-32654394D01*
X195650000Y-32552661D01*
X195650000Y-32546447D01*
X196329024Y-33225471D01*
X196380136Y-33152478D01*
X196472342Y-32954742D01*
X196518514Y-32902302D01*
X196585707Y-32883150D01*
X196652589Y-32903365D01*
X196697105Y-32954740D01*
X196721700Y-33007483D01*
X196789431Y-33152732D01*
X196789432Y-33152734D01*
X196919954Y-33339141D01*
X197080858Y-33500045D01*
X197080861Y-33500047D01*
X197267266Y-33630568D01*
X197473504Y-33726739D01*
X197473509Y-33726740D01*
X197473511Y-33726741D01*
X197508750Y-33736183D01*
X197693308Y-33785635D01*
X197855230Y-33799801D01*
X197919998Y-33805468D01*
X197920000Y-33805468D01*
X197920002Y-33805468D01*
X197976673Y-33800509D01*
X198146692Y-33785635D01*
X198366496Y-33726739D01*
X198572734Y-33630568D01*
X198759139Y-33500047D01*
X198920047Y-33339139D01*
X199050568Y-33152734D01*
X199057618Y-33137614D01*
X199103789Y-33085176D01*
X199170982Y-33066023D01*
X199237864Y-33086238D01*
X199282381Y-33137614D01*
X199289432Y-33152733D01*
X199289432Y-33152734D01*
X199419954Y-33339141D01*
X199580858Y-33500045D01*
X199580861Y-33500047D01*
X199767266Y-33630568D01*
X199973504Y-33726739D01*
X199973509Y-33726740D01*
X199973511Y-33726741D01*
X200008750Y-33736183D01*
X200193308Y-33785635D01*
X200355230Y-33799801D01*
X200419998Y-33805468D01*
X200420000Y-33805468D01*
X200420002Y-33805468D01*
X200476673Y-33800509D01*
X200646692Y-33785635D01*
X200866496Y-33726739D01*
X201072734Y-33630568D01*
X201259139Y-33500047D01*
X201420047Y-33339139D01*
X201550568Y-33152734D01*
X201646739Y-32946496D01*
X201675225Y-32840183D01*
X201711590Y-32780523D01*
X201774436Y-32749994D01*
X201843812Y-32758288D01*
X201897690Y-32802774D01*
X201914775Y-32840184D01*
X201943258Y-32946488D01*
X201943261Y-32946497D01*
X202039431Y-33152732D01*
X202039432Y-33152734D01*
X202169954Y-33339141D01*
X202330858Y-33500045D01*
X202330861Y-33500047D01*
X202517266Y-33630568D01*
X202723504Y-33726739D01*
X202723509Y-33726740D01*
X202723511Y-33726741D01*
X202758750Y-33736183D01*
X202943308Y-33785635D01*
X203105230Y-33799801D01*
X203169998Y-33805468D01*
X203170000Y-33805468D01*
X203170002Y-33805468D01*
X203226673Y-33800509D01*
X203396692Y-33785635D01*
X203616496Y-33726739D01*
X203822734Y-33630568D01*
X204009139Y-33500047D01*
X204170047Y-33339139D01*
X204300568Y-33152734D01*
X204307618Y-33137614D01*
X204353789Y-33085176D01*
X204420982Y-33066023D01*
X204487864Y-33086238D01*
X204532381Y-33137614D01*
X204539432Y-33152733D01*
X204539432Y-33152734D01*
X204669954Y-33339141D01*
X204830858Y-33500045D01*
X204830861Y-33500047D01*
X205017266Y-33630568D01*
X205223504Y-33726739D01*
X205223509Y-33726740D01*
X205223511Y-33726741D01*
X205258750Y-33736183D01*
X205443308Y-33785635D01*
X205605230Y-33799801D01*
X205669998Y-33805468D01*
X205670000Y-33805468D01*
X205670002Y-33805468D01*
X205726673Y-33800509D01*
X205896692Y-33785635D01*
X206116496Y-33726739D01*
X206322734Y-33630568D01*
X206509139Y-33500047D01*
X206670047Y-33339139D01*
X206800568Y-33152734D01*
X206896739Y-32946496D01*
X206955635Y-32726692D01*
X206975468Y-32500000D01*
X206975468Y-32499998D01*
X220944532Y-32499998D01*
X220944532Y-32500001D01*
X220964364Y-32726686D01*
X220964366Y-32726697D01*
X221023258Y-32946488D01*
X221023261Y-32946497D01*
X221119431Y-33152732D01*
X221119432Y-33152734D01*
X221249954Y-33339141D01*
X221410858Y-33500045D01*
X221410861Y-33500047D01*
X221597266Y-33630568D01*
X221803504Y-33726739D01*
X221803509Y-33726740D01*
X221803511Y-33726741D01*
X221838750Y-33736183D01*
X222023308Y-33785635D01*
X222185230Y-33799801D01*
X222249998Y-33805468D01*
X222250000Y-33805468D01*
X222250002Y-33805468D01*
X222306673Y-33800509D01*
X222476692Y-33785635D01*
X222696496Y-33726739D01*
X222902734Y-33630568D01*
X223089139Y-33500047D01*
X223250047Y-33339139D01*
X223380568Y-33152734D01*
X223387893Y-33137024D01*
X223434064Y-33084586D01*
X223501257Y-33065433D01*
X223568138Y-33085648D01*
X223612657Y-33137024D01*
X223619864Y-33152480D01*
X223670974Y-33225472D01*
X224350000Y-32546446D01*
X224350000Y-32552661D01*
X224377259Y-32654394D01*
X224429920Y-32745606D01*
X224504394Y-32820080D01*
X224595606Y-32872741D01*
X224697339Y-32900000D01*
X224703553Y-32900000D01*
X224024526Y-33579025D01*
X224097513Y-33630132D01*
X224097521Y-33630136D01*
X224286451Y-33718235D01*
X224338891Y-33764407D01*
X224358043Y-33831600D01*
X224337828Y-33898481D01*
X224284663Y-33943816D01*
X224266145Y-33950391D01*
X224253681Y-33953731D01*
X224253673Y-33953734D01*
X224047517Y-34049865D01*
X223861179Y-34180342D01*
X223700342Y-34341179D01*
X223569865Y-34527517D01*
X223473734Y-34733673D01*
X223473730Y-34733682D01*
X223421127Y-34929999D01*
X223421128Y-34930000D01*
X224384314Y-34930000D01*
X224379920Y-34934394D01*
X224327259Y-35025606D01*
X224300000Y-35127339D01*
X224300000Y-35232661D01*
X224327259Y-35334394D01*
X224379920Y-35425606D01*
X224384314Y-35430000D01*
X223421128Y-35430000D01*
X223473730Y-35626317D01*
X223473734Y-35626326D01*
X223569865Y-35832482D01*
X223700342Y-36018820D01*
X223861179Y-36179657D01*
X224047517Y-36310134D01*
X224253673Y-36406265D01*
X224253682Y-36406269D01*
X224449999Y-36458872D01*
X224450000Y-36458871D01*
X224450000Y-35495686D01*
X224454394Y-35500080D01*
X224545606Y-35552741D01*
X224647339Y-35580000D01*
X224752661Y-35580000D01*
X224854394Y-35552741D01*
X224945606Y-35500080D01*
X224950000Y-35495686D01*
X224950000Y-36458872D01*
X225146317Y-36406269D01*
X225146326Y-36406265D01*
X225352482Y-36310134D01*
X225538820Y-36179657D01*
X225699657Y-36018820D01*
X225830132Y-35832484D01*
X225857341Y-35774134D01*
X225903513Y-35721695D01*
X225970707Y-35702542D01*
X226037588Y-35722757D01*
X226082106Y-35774133D01*
X226109431Y-35832732D01*
X226109432Y-35832734D01*
X226239954Y-36019141D01*
X226400858Y-36180045D01*
X226430434Y-36200754D01*
X226587266Y-36310568D01*
X226793504Y-36406739D01*
X227013308Y-36465635D01*
X227175230Y-36479801D01*
X227239998Y-36485468D01*
X227240000Y-36485468D01*
X227240002Y-36485468D01*
X227296673Y-36480509D01*
X227466692Y-36465635D01*
X227686496Y-36406739D01*
X227892734Y-36310568D01*
X228079139Y-36180047D01*
X228240047Y-36019139D01*
X228370568Y-35832734D01*
X228397618Y-35774724D01*
X228443790Y-35722285D01*
X228510983Y-35703133D01*
X228577865Y-35723348D01*
X228622382Y-35774725D01*
X228649429Y-35832728D01*
X228649432Y-35832734D01*
X228779954Y-36019141D01*
X228940858Y-36180045D01*
X228970434Y-36200754D01*
X229127266Y-36310568D01*
X229333504Y-36406739D01*
X229553308Y-36465635D01*
X229715230Y-36479801D01*
X229779998Y-36485468D01*
X229780000Y-36485468D01*
X229780002Y-36485468D01*
X229836673Y-36480509D01*
X230006692Y-36465635D01*
X230226496Y-36406739D01*
X230432734Y-36310568D01*
X230619139Y-36180047D01*
X230780047Y-36019139D01*
X230910568Y-35832734D01*
X230937618Y-35774724D01*
X230983790Y-35722285D01*
X231050983Y-35703133D01*
X231117865Y-35723348D01*
X231162382Y-35774725D01*
X231189429Y-35832728D01*
X231189432Y-35832734D01*
X231319954Y-36019141D01*
X231480858Y-36180045D01*
X231510434Y-36200754D01*
X231667266Y-36310568D01*
X231873504Y-36406739D01*
X232093308Y-36465635D01*
X232255230Y-36479801D01*
X232319998Y-36485468D01*
X232320000Y-36485468D01*
X232320002Y-36485468D01*
X232376673Y-36480509D01*
X232546692Y-36465635D01*
X232766496Y-36406739D01*
X232972734Y-36310568D01*
X233159139Y-36180047D01*
X233320047Y-36019139D01*
X233450568Y-35832734D01*
X233546739Y-35626496D01*
X233605635Y-35406692D01*
X233625468Y-35180000D01*
X233624492Y-35168849D01*
X233610355Y-35007259D01*
X233605635Y-34953308D01*
X233546739Y-34733504D01*
X233450568Y-34527266D01*
X233431471Y-34499993D01*
X250869700Y-34499993D01*
X250869700Y-34500006D01*
X250888864Y-34731297D01*
X250888866Y-34731308D01*
X250945842Y-34956300D01*
X251039075Y-35168848D01*
X251166016Y-35363147D01*
X251166019Y-35363151D01*
X251166021Y-35363153D01*
X251323216Y-35533913D01*
X251323219Y-35533915D01*
X251323222Y-35533918D01*
X251475122Y-35652147D01*
X251515935Y-35708857D01*
X251519610Y-35778630D01*
X251484978Y-35839313D01*
X251475122Y-35847853D01*
X251323222Y-35966081D01*
X251323219Y-35966084D01*
X251166016Y-36136852D01*
X251039075Y-36331151D01*
X250945842Y-36543699D01*
X250888866Y-36768691D01*
X250888864Y-36768702D01*
X250869700Y-36999993D01*
X250869700Y-37000006D01*
X250888864Y-37231297D01*
X250888866Y-37231308D01*
X250945842Y-37456300D01*
X251039075Y-37668848D01*
X251166016Y-37863147D01*
X251166019Y-37863151D01*
X251166021Y-37863153D01*
X251323216Y-38033913D01*
X251323219Y-38033915D01*
X251323222Y-38033918D01*
X251506365Y-38176464D01*
X251506371Y-38176468D01*
X251506374Y-38176470D01*
X251710497Y-38286936D01*
X251824487Y-38326068D01*
X251930015Y-38362297D01*
X251930017Y-38362297D01*
X251930019Y-38362298D01*
X252158951Y-38400500D01*
X252158952Y-38400500D01*
X252391048Y-38400500D01*
X252391049Y-38400500D01*
X252619981Y-38362298D01*
X252839503Y-38286936D01*
X253043626Y-38176470D01*
X253226784Y-38033913D01*
X253383979Y-37863153D01*
X253510924Y-37668849D01*
X253604157Y-37456300D01*
X253661134Y-37231305D01*
X253662915Y-37209815D01*
X253680300Y-37000006D01*
X253680300Y-36999993D01*
X253661135Y-36768702D01*
X253661133Y-36768691D01*
X253604157Y-36543699D01*
X253510924Y-36331151D01*
X253383983Y-36136852D01*
X253383980Y-36136849D01*
X253383979Y-36136847D01*
X253226784Y-35966087D01*
X253074876Y-35847852D01*
X253034064Y-35791143D01*
X253030389Y-35721370D01*
X253065020Y-35660687D01*
X253074876Y-35652147D01*
X253226784Y-35533913D01*
X253383979Y-35363153D01*
X253510924Y-35168849D01*
X253604157Y-34956300D01*
X253661134Y-34731305D01*
X253668889Y-34637714D01*
X253680300Y-34500006D01*
X253680300Y-34499993D01*
X253661135Y-34268702D01*
X253661133Y-34268691D01*
X253604157Y-34043699D01*
X253510924Y-33831151D01*
X253383981Y-33636849D01*
X253316608Y-33563662D01*
X253285686Y-33501008D01*
X253293547Y-33431582D01*
X253337694Y-33377426D01*
X253364499Y-33363500D01*
X253417331Y-33343796D01*
X253532546Y-33257546D01*
X253618796Y-33142331D01*
X253669091Y-33007483D01*
X253675500Y-32947873D01*
X253675499Y-31052128D01*
X253669091Y-30992517D01*
X253645531Y-30929350D01*
X253618797Y-30857671D01*
X253618793Y-30857664D01*
X253532547Y-30742455D01*
X253532544Y-30742452D01*
X253417335Y-30656206D01*
X253417328Y-30656202D01*
X253282482Y-30605908D01*
X253282483Y-30605908D01*
X253222883Y-30599501D01*
X253222881Y-30599500D01*
X253222873Y-30599500D01*
X253222864Y-30599500D01*
X251327129Y-30599500D01*
X251327123Y-30599501D01*
X251267516Y-30605908D01*
X251132671Y-30656202D01*
X251132664Y-30656206D01*
X251017455Y-30742452D01*
X251017452Y-30742455D01*
X250931206Y-30857664D01*
X250931202Y-30857671D01*
X250880908Y-30992517D01*
X250874501Y-31052116D01*
X250874501Y-31052123D01*
X250874500Y-31052135D01*
X250874500Y-32947870D01*
X250874501Y-32947876D01*
X250880908Y-33007483D01*
X250931202Y-33142328D01*
X250931206Y-33142335D01*
X251017452Y-33257544D01*
X251017455Y-33257547D01*
X251132664Y-33343793D01*
X251132673Y-33343798D01*
X251185493Y-33363498D01*
X251241427Y-33405368D01*
X251265845Y-33470832D01*
X251250994Y-33539105D01*
X251233392Y-33563662D01*
X251166021Y-33636847D01*
X251166019Y-33636848D01*
X251166016Y-33636853D01*
X251039075Y-33831151D01*
X250945842Y-34043699D01*
X250888866Y-34268691D01*
X250888864Y-34268702D01*
X250869700Y-34499993D01*
X233431471Y-34499993D01*
X233320047Y-34340861D01*
X233320045Y-34340858D01*
X233159141Y-34179954D01*
X232972734Y-34049432D01*
X232972732Y-34049431D01*
X232766497Y-33953261D01*
X232766482Y-33953256D01*
X232742612Y-33946860D01*
X232682952Y-33910495D01*
X232652424Y-33847647D01*
X232660719Y-33778272D01*
X232705206Y-33724394D01*
X232722293Y-33714709D01*
X232902734Y-33630568D01*
X233089139Y-33500047D01*
X233250047Y-33339139D01*
X233380568Y-33152734D01*
X233387618Y-33137614D01*
X233433789Y-33085176D01*
X233500982Y-33066023D01*
X233567864Y-33086238D01*
X233612381Y-33137614D01*
X233619432Y-33152733D01*
X233619432Y-33152734D01*
X233749954Y-33339141D01*
X233910858Y-33500045D01*
X233910861Y-33500047D01*
X234097266Y-33630568D01*
X234303504Y-33726739D01*
X234303509Y-33726740D01*
X234303511Y-33726741D01*
X234338750Y-33736183D01*
X234523308Y-33785635D01*
X234685230Y-33799801D01*
X234749998Y-33805468D01*
X234750000Y-33805468D01*
X234750002Y-33805468D01*
X234806673Y-33800509D01*
X234976692Y-33785635D01*
X235196496Y-33726739D01*
X235402734Y-33630568D01*
X235589139Y-33500047D01*
X235750047Y-33339139D01*
X235880568Y-33152734D01*
X235976739Y-32946496D01*
X236035635Y-32726692D01*
X236055468Y-32500000D01*
X236035635Y-32273308D01*
X235976739Y-32053504D01*
X235880568Y-31847266D01*
X235750047Y-31660861D01*
X235750045Y-31660858D01*
X235589141Y-31499954D01*
X235402734Y-31369432D01*
X235402732Y-31369431D01*
X235196497Y-31273261D01*
X235196488Y-31273258D01*
X234976697Y-31214366D01*
X234976693Y-31214365D01*
X234976692Y-31214365D01*
X234976691Y-31214364D01*
X234976686Y-31214364D01*
X234750002Y-31194532D01*
X234749998Y-31194532D01*
X234523313Y-31214364D01*
X234523302Y-31214366D01*
X234303511Y-31273258D01*
X234303502Y-31273261D01*
X234097267Y-31369431D01*
X234097265Y-31369432D01*
X233910858Y-31499954D01*
X233749954Y-31660858D01*
X233619433Y-31847264D01*
X233619432Y-31847266D01*
X233612380Y-31862387D01*
X233566209Y-31914825D01*
X233499015Y-31933976D01*
X233432134Y-31913760D01*
X233387619Y-31862387D01*
X233380568Y-31847266D01*
X233250047Y-31660861D01*
X233250045Y-31660858D01*
X233089141Y-31499954D01*
X232902734Y-31369432D01*
X232902732Y-31369431D01*
X232696497Y-31273261D01*
X232696488Y-31273258D01*
X232476697Y-31214366D01*
X232476693Y-31214365D01*
X232476692Y-31214365D01*
X232476691Y-31214364D01*
X232476686Y-31214364D01*
X232250002Y-31194532D01*
X232249998Y-31194532D01*
X232023313Y-31214364D01*
X232023302Y-31214366D01*
X231803511Y-31273258D01*
X231803502Y-31273261D01*
X231597267Y-31369431D01*
X231597265Y-31369432D01*
X231410858Y-31499954D01*
X231249954Y-31660858D01*
X231119432Y-31847265D01*
X231119431Y-31847267D01*
X231023261Y-32053502D01*
X231023258Y-32053511D01*
X230964366Y-32273302D01*
X230964364Y-32273313D01*
X230944532Y-32499998D01*
X230944532Y-32500001D01*
X230964364Y-32726686D01*
X230964366Y-32726697D01*
X231023258Y-32946488D01*
X231023261Y-32946497D01*
X231119431Y-33152732D01*
X231119432Y-33152734D01*
X231249954Y-33339141D01*
X231410858Y-33500045D01*
X231410861Y-33500047D01*
X231597266Y-33630568D01*
X231803504Y-33726739D01*
X231803509Y-33726740D01*
X231803511Y-33726741D01*
X231827385Y-33733138D01*
X231887045Y-33769502D01*
X231917575Y-33832349D01*
X231909281Y-33901725D01*
X231864796Y-33955603D01*
X231847697Y-33965295D01*
X231667267Y-34049431D01*
X231667265Y-34049432D01*
X231480858Y-34179954D01*
X231319954Y-34340858D01*
X231189432Y-34527265D01*
X231189431Y-34527267D01*
X231162382Y-34585275D01*
X231116209Y-34637714D01*
X231049016Y-34656866D01*
X230982135Y-34636650D01*
X230937618Y-34585275D01*
X230910568Y-34527266D01*
X230780047Y-34340861D01*
X230780045Y-34340858D01*
X230619141Y-34179954D01*
X230432734Y-34049432D01*
X230432732Y-34049431D01*
X230226497Y-33953261D01*
X230226488Y-33953258D01*
X230006697Y-33894366D01*
X230006693Y-33894365D01*
X230006692Y-33894365D01*
X230006691Y-33894364D01*
X230006686Y-33894364D01*
X229780002Y-33874532D01*
X229779998Y-33874532D01*
X229553313Y-33894364D01*
X229553302Y-33894366D01*
X229333511Y-33953258D01*
X229333502Y-33953261D01*
X229127267Y-34049431D01*
X229127265Y-34049432D01*
X228940858Y-34179954D01*
X228779954Y-34340858D01*
X228649432Y-34527265D01*
X228649431Y-34527267D01*
X228622382Y-34585275D01*
X228576209Y-34637714D01*
X228509016Y-34656866D01*
X228442135Y-34636650D01*
X228397618Y-34585275D01*
X228370568Y-34527266D01*
X228240047Y-34340861D01*
X228240045Y-34340858D01*
X228079141Y-34179954D01*
X227892734Y-34049432D01*
X227892732Y-34049431D01*
X227686497Y-33953261D01*
X227686488Y-33953258D01*
X227466697Y-33894366D01*
X227466693Y-33894365D01*
X227466692Y-33894365D01*
X227466691Y-33894364D01*
X227466686Y-33894364D01*
X227240002Y-33874532D01*
X227239998Y-33874532D01*
X227013313Y-33894364D01*
X227013302Y-33894366D01*
X226793511Y-33953258D01*
X226793502Y-33953261D01*
X226587267Y-34049431D01*
X226587265Y-34049432D01*
X226400858Y-34179954D01*
X226239954Y-34340858D01*
X226128519Y-34500006D01*
X226109432Y-34527266D01*
X226109315Y-34527518D01*
X226082106Y-34585867D01*
X226035933Y-34638306D01*
X225968739Y-34657457D01*
X225901858Y-34637241D01*
X225857342Y-34585865D01*
X225830135Y-34527520D01*
X225830134Y-34527518D01*
X225699657Y-34341179D01*
X225538820Y-34180342D01*
X225352482Y-34049865D01*
X225163547Y-33961764D01*
X225111108Y-33915592D01*
X225091956Y-33848398D01*
X225112172Y-33781517D01*
X225165337Y-33736183D01*
X225183862Y-33729606D01*
X225196321Y-33726267D01*
X225196331Y-33726264D01*
X225402478Y-33630136D01*
X225475471Y-33579024D01*
X224796447Y-32900000D01*
X224802661Y-32900000D01*
X224904394Y-32872741D01*
X224995606Y-32820080D01*
X225070080Y-32745606D01*
X225122741Y-32654394D01*
X225150000Y-32552661D01*
X225150000Y-32546447D01*
X225829024Y-33225471D01*
X225880136Y-33152478D01*
X225976264Y-32946331D01*
X225976269Y-32946317D01*
X226035139Y-32726610D01*
X226035141Y-32726599D01*
X226054966Y-32500002D01*
X226054966Y-32499997D01*
X226035141Y-32273400D01*
X226035139Y-32273389D01*
X225976269Y-32053682D01*
X225976264Y-32053668D01*
X225880136Y-31847521D01*
X225880132Y-31847513D01*
X225829025Y-31774526D01*
X225150000Y-32453551D01*
X225150000Y-32447339D01*
X225122741Y-32345606D01*
X225070080Y-32254394D01*
X224995606Y-32179920D01*
X224904394Y-32127259D01*
X224802661Y-32100000D01*
X224796448Y-32100000D01*
X225475472Y-31420974D01*
X225402478Y-31369863D01*
X225196331Y-31273735D01*
X225196317Y-31273730D01*
X224976610Y-31214860D01*
X224976599Y-31214858D01*
X224750002Y-31195034D01*
X224749998Y-31195034D01*
X224523400Y-31214858D01*
X224523389Y-31214860D01*
X224303682Y-31273730D01*
X224303673Y-31273734D01*
X224097516Y-31369866D01*
X224097512Y-31369868D01*
X224024526Y-31420973D01*
X224024526Y-31420974D01*
X224703553Y-32100000D01*
X224697339Y-32100000D01*
X224595606Y-32127259D01*
X224504394Y-32179920D01*
X224429920Y-32254394D01*
X224377259Y-32345606D01*
X224350000Y-32447339D01*
X224350000Y-32453552D01*
X223670974Y-31774526D01*
X223670973Y-31774526D01*
X223619868Y-31847512D01*
X223619867Y-31847514D01*
X223612656Y-31862979D01*
X223566482Y-31915417D01*
X223499288Y-31934567D01*
X223432407Y-31914350D01*
X223387893Y-31862976D01*
X223380568Y-31847266D01*
X223250047Y-31660861D01*
X223250045Y-31660858D01*
X223089141Y-31499954D01*
X222902734Y-31369432D01*
X222902732Y-31369431D01*
X222696497Y-31273261D01*
X222696488Y-31273258D01*
X222476697Y-31214366D01*
X222476693Y-31214365D01*
X222476692Y-31214365D01*
X222476691Y-31214364D01*
X222476686Y-31214364D01*
X222250002Y-31194532D01*
X222249998Y-31194532D01*
X222023313Y-31214364D01*
X222023302Y-31214366D01*
X221803511Y-31273258D01*
X221803502Y-31273261D01*
X221597267Y-31369431D01*
X221597265Y-31369432D01*
X221410858Y-31499954D01*
X221249954Y-31660858D01*
X221119432Y-31847265D01*
X221119431Y-31847267D01*
X221023261Y-32053502D01*
X221023258Y-32053511D01*
X220964366Y-32273302D01*
X220964364Y-32273313D01*
X220944532Y-32499998D01*
X206975468Y-32499998D01*
X206955635Y-32273308D01*
X206896739Y-32053504D01*
X206800568Y-31847266D01*
X206670047Y-31660861D01*
X206670045Y-31660858D01*
X206509141Y-31499954D01*
X206322734Y-31369432D01*
X206322732Y-31369431D01*
X206116497Y-31273261D01*
X206116488Y-31273258D01*
X205896697Y-31214366D01*
X205896693Y-31214365D01*
X205896692Y-31214365D01*
X205896691Y-31214364D01*
X205896686Y-31214364D01*
X205670002Y-31194532D01*
X205669998Y-31194532D01*
X205443313Y-31214364D01*
X205443302Y-31214366D01*
X205223511Y-31273258D01*
X205223502Y-31273261D01*
X205017267Y-31369431D01*
X205017265Y-31369432D01*
X204830858Y-31499954D01*
X204669954Y-31660858D01*
X204539433Y-31847264D01*
X204539432Y-31847266D01*
X204532380Y-31862387D01*
X204486209Y-31914825D01*
X204419015Y-31933976D01*
X204352134Y-31913760D01*
X204307619Y-31862387D01*
X204300568Y-31847266D01*
X204170047Y-31660861D01*
X204170045Y-31660858D01*
X204009141Y-31499954D01*
X203822734Y-31369432D01*
X203822732Y-31369431D01*
X203616497Y-31273261D01*
X203616488Y-31273258D01*
X203396697Y-31214366D01*
X203396693Y-31214365D01*
X203396692Y-31214365D01*
X203396691Y-31214364D01*
X203396686Y-31214364D01*
X203170002Y-31194532D01*
X203169998Y-31194532D01*
X202943313Y-31214364D01*
X202943302Y-31214366D01*
X202723511Y-31273258D01*
X202723502Y-31273261D01*
X202517267Y-31369431D01*
X202517265Y-31369432D01*
X202330858Y-31499954D01*
X202169954Y-31660858D01*
X202039432Y-31847265D01*
X202039431Y-31847267D01*
X201943261Y-32053502D01*
X201943258Y-32053511D01*
X201914775Y-32159815D01*
X201878410Y-32219476D01*
X201815563Y-32250005D01*
X201746188Y-32241710D01*
X201692310Y-32197225D01*
X201675225Y-32159815D01*
X201646741Y-32053511D01*
X201646738Y-32053502D01*
X201591002Y-31933976D01*
X201550568Y-31847266D01*
X201420047Y-31660861D01*
X201420045Y-31660858D01*
X201259141Y-31499954D01*
X201072734Y-31369432D01*
X201072732Y-31369431D01*
X200866497Y-31273261D01*
X200866488Y-31273258D01*
X200646697Y-31214366D01*
X200646693Y-31214365D01*
X200646692Y-31214365D01*
X200646691Y-31214364D01*
X200646686Y-31214364D01*
X200420002Y-31194532D01*
X200419998Y-31194532D01*
X200193313Y-31214364D01*
X200193302Y-31214366D01*
X199973511Y-31273258D01*
X199973502Y-31273261D01*
X199767267Y-31369431D01*
X199767265Y-31369432D01*
X199580858Y-31499954D01*
X199419954Y-31660858D01*
X199289433Y-31847264D01*
X199289432Y-31847266D01*
X199282380Y-31862387D01*
X199236209Y-31914825D01*
X199169015Y-31933976D01*
X199102134Y-31913760D01*
X199057619Y-31862387D01*
X199050568Y-31847266D01*
X198920047Y-31660861D01*
X198920045Y-31660858D01*
X198759141Y-31499954D01*
X198572734Y-31369432D01*
X198572732Y-31369431D01*
X198366497Y-31273261D01*
X198366488Y-31273258D01*
X198146697Y-31214366D01*
X198146693Y-31214365D01*
X198146692Y-31214365D01*
X198146691Y-31214364D01*
X198146686Y-31214364D01*
X197920002Y-31194532D01*
X197919998Y-31194532D01*
X197693313Y-31214364D01*
X197693302Y-31214366D01*
X197473511Y-31273258D01*
X197473502Y-31273261D01*
X197267267Y-31369431D01*
X197267265Y-31369432D01*
X197080858Y-31499954D01*
X196919954Y-31660858D01*
X196789432Y-31847265D01*
X196789431Y-31847267D01*
X196697106Y-32045258D01*
X196650933Y-32097697D01*
X196583740Y-32116849D01*
X196516859Y-32096633D01*
X196472342Y-32045258D01*
X196380134Y-31847517D01*
X196380132Y-31847513D01*
X196329025Y-31774526D01*
X195650000Y-32453551D01*
X195650000Y-32447339D01*
X195622741Y-32345606D01*
X195570080Y-32254394D01*
X195495606Y-32179920D01*
X195404394Y-32127259D01*
X195302661Y-32100000D01*
X195296448Y-32100000D01*
X195975472Y-31420974D01*
X195902478Y-31369863D01*
X195696331Y-31273735D01*
X195696317Y-31273730D01*
X195476610Y-31214860D01*
X195476599Y-31214858D01*
X195250002Y-31195034D01*
X195249998Y-31195034D01*
X195023400Y-31214858D01*
X195023389Y-31214860D01*
X194803682Y-31273730D01*
X194803673Y-31273734D01*
X194597516Y-31369866D01*
X194597512Y-31369868D01*
X194524526Y-31420973D01*
X194524526Y-31420974D01*
X195203553Y-32100000D01*
X195197339Y-32100000D01*
X195095606Y-32127259D01*
X195004394Y-32179920D01*
X194929920Y-32254394D01*
X194877259Y-32345606D01*
X194850000Y-32447339D01*
X194850000Y-32453552D01*
X194170974Y-31774526D01*
X194170973Y-31774526D01*
X194119868Y-31847512D01*
X194119867Y-31847514D01*
X194112656Y-31862979D01*
X194066482Y-31915417D01*
X193999288Y-31934567D01*
X193932407Y-31914350D01*
X193887893Y-31862976D01*
X193880568Y-31847266D01*
X193750047Y-31660861D01*
X193750045Y-31660858D01*
X193589141Y-31499954D01*
X193402734Y-31369432D01*
X193402732Y-31369431D01*
X193196497Y-31273261D01*
X193196488Y-31273258D01*
X192976697Y-31214366D01*
X192976693Y-31214365D01*
X192976692Y-31214365D01*
X192976691Y-31214364D01*
X192976686Y-31214364D01*
X192750002Y-31194532D01*
X192749998Y-31194532D01*
X192523313Y-31214364D01*
X192523302Y-31214366D01*
X192303511Y-31273258D01*
X192303502Y-31273261D01*
X192097267Y-31369431D01*
X192097265Y-31369432D01*
X191910858Y-31499954D01*
X191749954Y-31660858D01*
X191619432Y-31847265D01*
X191619431Y-31847267D01*
X191523261Y-32053502D01*
X191523258Y-32053511D01*
X191464366Y-32273302D01*
X191464364Y-32273313D01*
X191444532Y-32499998D01*
X173305468Y-32499998D01*
X173285635Y-32273308D01*
X173226739Y-32053504D01*
X173130568Y-31847266D01*
X173000047Y-31660861D01*
X173000045Y-31660858D01*
X172839141Y-31499954D01*
X172652734Y-31369432D01*
X172652732Y-31369431D01*
X172446497Y-31273261D01*
X172446488Y-31273258D01*
X172226697Y-31214366D01*
X172226693Y-31214365D01*
X172226692Y-31214365D01*
X172226691Y-31214364D01*
X172226686Y-31214364D01*
X172000002Y-31194532D01*
X171999998Y-31194532D01*
X171773313Y-31214364D01*
X171773302Y-31214366D01*
X171553511Y-31273258D01*
X171553502Y-31273261D01*
X171347267Y-31369431D01*
X171347265Y-31369432D01*
X171160858Y-31499954D01*
X170999954Y-31660858D01*
X170869433Y-31847264D01*
X170869432Y-31847266D01*
X170862380Y-31862387D01*
X170816209Y-31914825D01*
X170749015Y-31933976D01*
X170682134Y-31913760D01*
X170637619Y-31862387D01*
X170630568Y-31847266D01*
X170500047Y-31660861D01*
X170500045Y-31660858D01*
X170339141Y-31499954D01*
X170152734Y-31369432D01*
X170152732Y-31369431D01*
X169946497Y-31273261D01*
X169946488Y-31273258D01*
X169726697Y-31214366D01*
X169726693Y-31214365D01*
X169726692Y-31214365D01*
X169726691Y-31214364D01*
X169726686Y-31214364D01*
X169500002Y-31194532D01*
X169499998Y-31194532D01*
X169273313Y-31214364D01*
X169273302Y-31214366D01*
X169053511Y-31273258D01*
X169053502Y-31273261D01*
X168847267Y-31369431D01*
X168847265Y-31369432D01*
X168660858Y-31499954D01*
X168499954Y-31660858D01*
X168369432Y-31847265D01*
X168369431Y-31847267D01*
X168273261Y-32053502D01*
X168273258Y-32053511D01*
X168214366Y-32273302D01*
X168214364Y-32273313D01*
X168194532Y-32499998D01*
X168194532Y-32500001D01*
X168214364Y-32726686D01*
X168214366Y-32726697D01*
X168273258Y-32946488D01*
X168273261Y-32946497D01*
X168369431Y-33152732D01*
X168369432Y-33152734D01*
X168499954Y-33339141D01*
X168660858Y-33500045D01*
X168660861Y-33500047D01*
X168847266Y-33630568D01*
X168987555Y-33695986D01*
X169039994Y-33742158D01*
X169059146Y-33809352D01*
X169038930Y-33876233D01*
X168985765Y-33921568D01*
X168967244Y-33928143D01*
X168873509Y-33953259D01*
X168873502Y-33953261D01*
X168667267Y-34049431D01*
X168667265Y-34049432D01*
X168480858Y-34179954D01*
X168319954Y-34340858D01*
X168189432Y-34527265D01*
X168189431Y-34527267D01*
X168162382Y-34585275D01*
X168116209Y-34637714D01*
X168049016Y-34656866D01*
X167982135Y-34636650D01*
X167937618Y-34585275D01*
X167910568Y-34527266D01*
X167780047Y-34340861D01*
X167780045Y-34340858D01*
X167619141Y-34179954D01*
X167432734Y-34049432D01*
X167432732Y-34049431D01*
X167226497Y-33953261D01*
X167226488Y-33953258D01*
X167006697Y-33894366D01*
X167006693Y-33894365D01*
X167006692Y-33894365D01*
X167006691Y-33894364D01*
X167006686Y-33894364D01*
X166780002Y-33874532D01*
X166779998Y-33874532D01*
X166553313Y-33894364D01*
X166553302Y-33894366D01*
X166333511Y-33953258D01*
X166333502Y-33953261D01*
X166127267Y-34049431D01*
X166127265Y-34049432D01*
X165940858Y-34179954D01*
X165779954Y-34340858D01*
X165649432Y-34527265D01*
X165649431Y-34527267D01*
X165622382Y-34585275D01*
X165576209Y-34637714D01*
X165509016Y-34656866D01*
X165442135Y-34636650D01*
X165397618Y-34585275D01*
X165370568Y-34527266D01*
X165240047Y-34340861D01*
X165240045Y-34340858D01*
X165079141Y-34179954D01*
X164892734Y-34049432D01*
X164892732Y-34049431D01*
X164686497Y-33953261D01*
X164686488Y-33953258D01*
X164466697Y-33894366D01*
X164466693Y-33894365D01*
X164466692Y-33894365D01*
X164466691Y-33894364D01*
X164466686Y-33894364D01*
X164240002Y-33874532D01*
X164239998Y-33874532D01*
X164013313Y-33894364D01*
X164013302Y-33894366D01*
X163793511Y-33953258D01*
X163793502Y-33953261D01*
X163587267Y-34049431D01*
X163587265Y-34049432D01*
X163400858Y-34179954D01*
X163239954Y-34340858D01*
X163128519Y-34500006D01*
X163109432Y-34527266D01*
X163109315Y-34527518D01*
X163082106Y-34585867D01*
X163035933Y-34638306D01*
X162968739Y-34657457D01*
X162901858Y-34637241D01*
X162857342Y-34585865D01*
X162830135Y-34527520D01*
X162830134Y-34527518D01*
X162699657Y-34341179D01*
X162538820Y-34180342D01*
X162352482Y-34049865D01*
X162146326Y-33953734D01*
X162146319Y-33953731D01*
X162083053Y-33936779D01*
X162023393Y-33900414D01*
X161992864Y-33837567D01*
X162001159Y-33768191D01*
X162045644Y-33714313D01*
X162062743Y-33704622D01*
X162222478Y-33630136D01*
X162295471Y-33579024D01*
X161616447Y-32900000D01*
X161622661Y-32900000D01*
X161724394Y-32872741D01*
X161815606Y-32820080D01*
X161890080Y-32745606D01*
X161942741Y-32654394D01*
X161970000Y-32552661D01*
X161970000Y-32546447D01*
X162649024Y-33225471D01*
X162700136Y-33152478D01*
X162796264Y-32946331D01*
X162796269Y-32946317D01*
X162855139Y-32726610D01*
X162855141Y-32726599D01*
X162874966Y-32500002D01*
X162874966Y-32499997D01*
X162855141Y-32273400D01*
X162855139Y-32273389D01*
X162796269Y-32053682D01*
X162796264Y-32053668D01*
X162700136Y-31847521D01*
X162700132Y-31847513D01*
X162649025Y-31774526D01*
X161970000Y-32453551D01*
X161970000Y-32447339D01*
X161942741Y-32345606D01*
X161890080Y-32254394D01*
X161815606Y-32179920D01*
X161724394Y-32127259D01*
X161622661Y-32100000D01*
X161616448Y-32100000D01*
X162295472Y-31420974D01*
X162222478Y-31369863D01*
X162016331Y-31273735D01*
X162016317Y-31273730D01*
X161796610Y-31214860D01*
X161796599Y-31214858D01*
X161570002Y-31195034D01*
X161569998Y-31195034D01*
X161343400Y-31214858D01*
X161343389Y-31214860D01*
X161123682Y-31273730D01*
X161123673Y-31273734D01*
X160917516Y-31369866D01*
X160917512Y-31369868D01*
X160844526Y-31420973D01*
X160844526Y-31420974D01*
X161523553Y-32100000D01*
X161517339Y-32100000D01*
X161415606Y-32127259D01*
X161324394Y-32179920D01*
X161249920Y-32254394D01*
X161197259Y-32345606D01*
X161170000Y-32447339D01*
X161170000Y-32453552D01*
X160490974Y-31774526D01*
X160490973Y-31774526D01*
X160439868Y-31847512D01*
X160439867Y-31847514D01*
X160432656Y-31862979D01*
X160386482Y-31915417D01*
X160319288Y-31934567D01*
X160252407Y-31914350D01*
X160207893Y-31862976D01*
X160200568Y-31847266D01*
X160070047Y-31660861D01*
X160070045Y-31660858D01*
X159909141Y-31499954D01*
X159722734Y-31369432D01*
X159722732Y-31369431D01*
X159516497Y-31273261D01*
X159516488Y-31273258D01*
X159296697Y-31214366D01*
X159296693Y-31214365D01*
X159296692Y-31214365D01*
X159296691Y-31214364D01*
X159296686Y-31214364D01*
X159070002Y-31194532D01*
X159069998Y-31194532D01*
X158843313Y-31214364D01*
X158843302Y-31214366D01*
X158623511Y-31273258D01*
X158623502Y-31273261D01*
X158417267Y-31369431D01*
X158417265Y-31369432D01*
X158230858Y-31499954D01*
X158069954Y-31660858D01*
X157939432Y-31847265D01*
X157939431Y-31847267D01*
X157843261Y-32053502D01*
X157843258Y-32053511D01*
X157784366Y-32273302D01*
X157784364Y-32273313D01*
X157764532Y-32499998D01*
X155500500Y-32499998D01*
X155500500Y-29578048D01*
X257654500Y-29578048D01*
X257654500Y-29821951D01*
X257681013Y-30023333D01*
X257686334Y-30063744D01*
X257686335Y-30063746D01*
X257749456Y-30299320D01*
X257749459Y-30299330D01*
X257842786Y-30524640D01*
X257842791Y-30524651D01*
X257964727Y-30735848D01*
X257964738Y-30735864D01*
X258113199Y-30929343D01*
X258113205Y-30929350D01*
X258285649Y-31101794D01*
X258285655Y-31101799D01*
X258479144Y-31250268D01*
X258479151Y-31250272D01*
X258690348Y-31372208D01*
X258690353Y-31372210D01*
X258690356Y-31372212D01*
X258915679Y-31465544D01*
X259151256Y-31528666D01*
X259393056Y-31560500D01*
X259393063Y-31560500D01*
X260156937Y-31560500D01*
X260156944Y-31560500D01*
X260398744Y-31528666D01*
X260634321Y-31465544D01*
X260859644Y-31372212D01*
X261070856Y-31250268D01*
X261264345Y-31101799D01*
X261436799Y-30929345D01*
X261585268Y-30735856D01*
X261707212Y-30524644D01*
X261800544Y-30299321D01*
X261863666Y-30063744D01*
X261895500Y-29821944D01*
X261895500Y-29578056D01*
X261863666Y-29336256D01*
X261800544Y-29100679D01*
X261707212Y-28875356D01*
X261707210Y-28875353D01*
X261707208Y-28875348D01*
X261585272Y-28664151D01*
X261585268Y-28664144D01*
X261436799Y-28470655D01*
X261436794Y-28470649D01*
X261264350Y-28298205D01*
X261264343Y-28298199D01*
X261070864Y-28149738D01*
X261070862Y-28149736D01*
X261070856Y-28149732D01*
X261070851Y-28149729D01*
X261070848Y-28149727D01*
X260859651Y-28027791D01*
X260859640Y-28027786D01*
X260634330Y-27934459D01*
X260634323Y-27934457D01*
X260634321Y-27934456D01*
X260398744Y-27871334D01*
X260358333Y-27866013D01*
X260156951Y-27839500D01*
X260156944Y-27839500D01*
X259393056Y-27839500D01*
X259393048Y-27839500D01*
X259162896Y-27869801D01*
X259151256Y-27871334D01*
X258988645Y-27914905D01*
X258915679Y-27934456D01*
X258915669Y-27934459D01*
X258690359Y-28027786D01*
X258690348Y-28027791D01*
X258479151Y-28149727D01*
X258479135Y-28149738D01*
X258285656Y-28298199D01*
X258285649Y-28298205D01*
X258113205Y-28470649D01*
X258113199Y-28470656D01*
X257964738Y-28664135D01*
X257964727Y-28664151D01*
X257842791Y-28875348D01*
X257842786Y-28875359D01*
X257749459Y-29100669D01*
X257749456Y-29100679D01*
X257686335Y-29336253D01*
X257686333Y-29336264D01*
X257654500Y-29578048D01*
X155500500Y-29578048D01*
X155500500Y-27699999D01*
X199154357Y-27699999D01*
X199154357Y-27700000D01*
X199174884Y-27921535D01*
X199174885Y-27921537D01*
X199235769Y-28135523D01*
X199235775Y-28135538D01*
X199334938Y-28334683D01*
X199334943Y-28334691D01*
X199469020Y-28512238D01*
X199633437Y-28662123D01*
X199633439Y-28662125D01*
X199822595Y-28779245D01*
X199822596Y-28779245D01*
X199822599Y-28779247D01*
X200030060Y-28859618D01*
X200248757Y-28900500D01*
X200248759Y-28900500D01*
X200471241Y-28900500D01*
X200471243Y-28900500D01*
X200689940Y-28859618D01*
X200897401Y-28779247D01*
X201014280Y-28706879D01*
X202246672Y-28706879D01*
X202246672Y-28706880D01*
X202362821Y-28778797D01*
X202362822Y-28778798D01*
X202570195Y-28859134D01*
X202788807Y-28900000D01*
X203011193Y-28900000D01*
X203229809Y-28859133D01*
X203437168Y-28778801D01*
X203437181Y-28778795D01*
X203553326Y-28706879D01*
X202900001Y-28053553D01*
X202900000Y-28053553D01*
X202246672Y-28706879D01*
X201014280Y-28706879D01*
X201086562Y-28662124D01*
X201250981Y-28512236D01*
X201385058Y-28334689D01*
X201484229Y-28135528D01*
X201510995Y-28041455D01*
X201548272Y-27982367D01*
X201611581Y-27952809D01*
X201680821Y-27962171D01*
X201734007Y-28007480D01*
X201749525Y-28041460D01*
X201776236Y-28135342D01*
X201776239Y-28135348D01*
X201875369Y-28334428D01*
X201891137Y-28355308D01*
X201891138Y-28355308D01*
X202546447Y-27700000D01*
X202500369Y-27653922D01*
X202550000Y-27653922D01*
X202550000Y-27746078D01*
X202573852Y-27835095D01*
X202619930Y-27914905D01*
X202685095Y-27980070D01*
X202764905Y-28026148D01*
X202853922Y-28050000D01*
X202946078Y-28050000D01*
X203035095Y-28026148D01*
X203114905Y-27980070D01*
X203180070Y-27914905D01*
X203226148Y-27835095D01*
X203250000Y-27746078D01*
X203250000Y-27699999D01*
X203253553Y-27699999D01*
X203253553Y-27700000D01*
X203908861Y-28355308D01*
X203924631Y-28334425D01*
X203924633Y-28334422D01*
X204023759Y-28135350D01*
X204084621Y-27921439D01*
X204105141Y-27700000D01*
X204105141Y-27699999D01*
X204084621Y-27478560D01*
X204023759Y-27264649D01*
X203924635Y-27065580D01*
X203924630Y-27065572D01*
X203908860Y-27044690D01*
X203253553Y-27699999D01*
X203250000Y-27699999D01*
X203250000Y-27653922D01*
X203226148Y-27564905D01*
X203180070Y-27485095D01*
X203114905Y-27419930D01*
X203035095Y-27373852D01*
X202946078Y-27350000D01*
X202853922Y-27350000D01*
X202764905Y-27373852D01*
X202685095Y-27419930D01*
X202619930Y-27485095D01*
X202573852Y-27564905D01*
X202550000Y-27653922D01*
X202500369Y-27653922D01*
X201891138Y-27044691D01*
X201891137Y-27044691D01*
X201875368Y-27065574D01*
X201776239Y-27264651D01*
X201776237Y-27264655D01*
X201749525Y-27358540D01*
X201712246Y-27417633D01*
X201648936Y-27447190D01*
X201579697Y-27437828D01*
X201526510Y-27392518D01*
X201510994Y-27358541D01*
X201484229Y-27264472D01*
X201385188Y-27065572D01*
X201385061Y-27065316D01*
X201385056Y-27065308D01*
X201250979Y-26887761D01*
X201086562Y-26737876D01*
X201086560Y-26737874D01*
X201014278Y-26693119D01*
X202246671Y-26693119D01*
X202900000Y-27346447D01*
X202900001Y-27346447D01*
X203553327Y-26693119D01*
X203437178Y-26621202D01*
X203437177Y-26621201D01*
X203229804Y-26540865D01*
X203011193Y-26500000D01*
X202788807Y-26500000D01*
X202570195Y-26540865D01*
X202362824Y-26621200D01*
X202362823Y-26621201D01*
X202246671Y-26693119D01*
X201014278Y-26693119D01*
X200897404Y-26620754D01*
X200897398Y-26620752D01*
X200689940Y-26540382D01*
X200471243Y-26499500D01*
X200248757Y-26499500D01*
X200030060Y-26540382D01*
X199898864Y-26591207D01*
X199822601Y-26620752D01*
X199822595Y-26620754D01*
X199633439Y-26737874D01*
X199633437Y-26737876D01*
X199469020Y-26887761D01*
X199334943Y-27065308D01*
X199334938Y-27065316D01*
X199235775Y-27264461D01*
X199235769Y-27264476D01*
X199174885Y-27478462D01*
X199174884Y-27478464D01*
X199154357Y-27699999D01*
X155500500Y-27699999D01*
X155500500Y-26124500D01*
X155520185Y-26057461D01*
X155572989Y-26011706D01*
X155624500Y-26000500D01*
X266375500Y-26000500D01*
X266442539Y-26020185D01*
G37*
%TD.AperFunction*%
%TD*%
M02*
