%TF.GenerationSoftware,KiCad,Pcbnew,(7.0.0)*%
%TF.CreationDate,2023-02-28T14:37:41-05:00*%
%TF.ProjectId,8bc_clock_4,3862635f-636c-46f6-936b-5f342e6b6963,rev?*%
%TF.SameCoordinates,Original*%
%TF.FileFunction,Drillmap*%
%TF.FilePolarity,Positive*%
%FSLAX45Y45*%
G04 Gerber Fmt 4.5, Leading zero omitted, Abs format (unit mm)*
G04 Created by KiCad (PCBNEW (7.0.0)) date 2023-02-28 14:37:41*
%MOMM*%
%LPD*%
G01*
G04 APERTURE LIST*
%ADD10C,0.100000*%
%ADD11C,0.200000*%
%ADD12C,0.040000*%
%ADD13C,0.070000*%
%ADD14C,0.080000*%
%ADD15C,0.090000*%
%ADD16C,0.110000*%
%ADD17C,0.140000*%
%ADD18C,0.150000*%
G04 APERTURE END LIST*
D10*
X10414000Y-5080000D02*
X16510000Y-5080000D01*
X16510000Y-5080000D02*
X16510000Y-11430000D01*
X16510000Y-11430000D02*
X10414000Y-11430000D01*
X10414000Y-11430000D02*
X10414000Y-5080000D01*
D11*
D12*
X12535050Y-7345897D02*
X12575050Y-7385897D01*
X12575050Y-7345897D02*
X12535050Y-7385897D01*
X12823987Y-7273447D02*
X12863987Y-7313447D01*
X12863987Y-7273447D02*
X12823987Y-7313447D01*
X12853486Y-10245188D02*
X12893486Y-10285188D01*
X12893486Y-10245188D02*
X12853486Y-10285188D01*
X12906592Y-6844286D02*
X12946592Y-6884286D01*
X12946592Y-6844286D02*
X12906592Y-6884286D01*
X12934000Y-7854000D02*
X12974000Y-7894000D01*
X12974000Y-7854000D02*
X12934000Y-7894000D01*
X13620050Y-7808450D02*
X13660050Y-7848450D01*
X13660050Y-7808450D02*
X13620050Y-7848450D01*
X13668592Y-6336286D02*
X13708592Y-6376286D01*
X13708592Y-6336286D02*
X13668592Y-6376286D01*
X13696000Y-9124000D02*
X13736000Y-9164000D01*
X13736000Y-9124000D02*
X13696000Y-9164000D01*
X13764950Y-7345903D02*
X13804950Y-7385903D01*
X13804950Y-7345903D02*
X13764950Y-7385903D01*
X14262097Y-6599050D02*
X14302097Y-6639050D01*
X14302097Y-6599050D02*
X14262097Y-6639050D01*
X14435851Y-9906311D02*
X14475851Y-9946311D01*
X14475851Y-9906311D02*
X14435851Y-9946311D01*
X14533770Y-8794230D02*
X14573770Y-8834230D01*
X14573770Y-8794230D02*
X14533770Y-8834230D01*
X14731410Y-8786950D02*
X14771410Y-8826950D01*
X14771410Y-8786950D02*
X14731410Y-8826950D01*
X15074950Y-8108000D02*
X15114950Y-8148000D01*
X15114950Y-8108000D02*
X15074950Y-8148000D01*
X15137550Y-9886000D02*
X15177550Y-9926000D01*
X15177550Y-9886000D02*
X15137550Y-9926000D01*
D13*
X15253000Y-7450000D02*
G75*
G03*
X15253000Y-7450000I-35000J0D01*
G01*
X15253000Y-7765000D02*
G75*
G03*
X15253000Y-7765000I-35000J0D01*
G01*
X16015000Y-7450000D02*
G75*
G03*
X16015000Y-7450000I-35000J0D01*
G01*
X16015000Y-7765000D02*
G75*
G03*
X16015000Y-7765000I-35000J0D01*
G01*
D14*
X11163000Y-6555000D02*
X11163000Y-6635000D01*
X11123000Y-6595000D02*
X11203000Y-6595000D01*
X11163000Y-7510000D02*
X11163000Y-7590000D01*
X11123000Y-7550000D02*
X11203000Y-7550000D01*
X11163000Y-8465000D02*
X11163000Y-8545000D01*
X11123000Y-8505000D02*
X11203000Y-8505000D01*
X11163000Y-9420000D02*
X11163000Y-9500000D01*
X11123000Y-9460000D02*
X11203000Y-9460000D01*
X11163000Y-10375000D02*
X11163000Y-10455000D01*
X11123000Y-10415000D02*
X11203000Y-10415000D01*
X11513000Y-6555000D02*
X11513000Y-6635000D01*
X11473000Y-6595000D02*
X11553000Y-6595000D01*
X11513000Y-7510000D02*
X11513000Y-7590000D01*
X11473000Y-7550000D02*
X11553000Y-7550000D01*
X11513000Y-8465000D02*
X11513000Y-8545000D01*
X11473000Y-8505000D02*
X11553000Y-8505000D01*
X11513000Y-9420000D02*
X11513000Y-9500000D01*
X11473000Y-9460000D02*
X11553000Y-9460000D01*
X11513000Y-10375000D02*
X11513000Y-10455000D01*
X11473000Y-10415000D02*
X11553000Y-10415000D01*
X11973000Y-9395000D02*
X11973000Y-9475000D01*
X11933000Y-9435000D02*
X12013000Y-9435000D01*
X11973000Y-9800000D02*
X11973000Y-9880000D01*
X11933000Y-9840000D02*
X12013000Y-9840000D01*
X11973000Y-10205000D02*
X11973000Y-10285000D01*
X11933000Y-10245000D02*
X12013000Y-10245000D01*
X11973000Y-10610000D02*
X11973000Y-10690000D01*
X11933000Y-10650000D02*
X12013000Y-10650000D01*
X11978000Y-6285000D02*
X11978000Y-6365000D01*
X11938000Y-6325000D02*
X12018000Y-6325000D01*
X11978000Y-6539000D02*
X11978000Y-6619000D01*
X11938000Y-6579000D02*
X12018000Y-6579000D01*
X11978000Y-6793000D02*
X11978000Y-6873000D01*
X11938000Y-6833000D02*
X12018000Y-6833000D01*
X11978000Y-7047000D02*
X11978000Y-7127000D01*
X11938000Y-7087000D02*
X12018000Y-7087000D01*
X11978000Y-7460000D02*
X11978000Y-7540000D01*
X11938000Y-7500000D02*
X12018000Y-7500000D01*
X11978000Y-7714000D02*
X11978000Y-7794000D01*
X11938000Y-7754000D02*
X12018000Y-7754000D01*
X11978000Y-7968000D02*
X11978000Y-8048000D01*
X11938000Y-8008000D02*
X12018000Y-8008000D01*
X11978000Y-8222000D02*
X11978000Y-8302000D01*
X11938000Y-8262000D02*
X12018000Y-8262000D01*
X11978000Y-8476000D02*
X11978000Y-8556000D01*
X11938000Y-8516000D02*
X12018000Y-8516000D01*
X11978000Y-8730000D02*
X11978000Y-8810000D01*
X11938000Y-8770000D02*
X12018000Y-8770000D01*
X11978000Y-8984000D02*
X11978000Y-9064000D01*
X11938000Y-9024000D02*
X12018000Y-9024000D01*
X12735000Y-9395000D02*
X12735000Y-9475000D01*
X12695000Y-9435000D02*
X12775000Y-9435000D01*
X12735000Y-9800000D02*
X12735000Y-9880000D01*
X12695000Y-9840000D02*
X12775000Y-9840000D01*
X12735000Y-10205000D02*
X12735000Y-10285000D01*
X12695000Y-10245000D02*
X12775000Y-10245000D01*
X12735000Y-10610000D02*
X12735000Y-10690000D01*
X12695000Y-10650000D02*
X12775000Y-10650000D01*
X12740000Y-6285000D02*
X12740000Y-6365000D01*
X12700000Y-6325000D02*
X12780000Y-6325000D01*
X12740000Y-6539000D02*
X12740000Y-6619000D01*
X12700000Y-6579000D02*
X12780000Y-6579000D01*
X12740000Y-6793000D02*
X12740000Y-6873000D01*
X12700000Y-6833000D02*
X12780000Y-6833000D01*
X12740000Y-7047000D02*
X12740000Y-7127000D01*
X12700000Y-7087000D02*
X12780000Y-7087000D01*
X12740000Y-7460000D02*
X12740000Y-7540000D01*
X12700000Y-7500000D02*
X12780000Y-7500000D01*
X12740000Y-7714000D02*
X12740000Y-7794000D01*
X12700000Y-7754000D02*
X12780000Y-7754000D01*
X12740000Y-7968000D02*
X12740000Y-8048000D01*
X12700000Y-8008000D02*
X12780000Y-8008000D01*
X12740000Y-8222000D02*
X12740000Y-8302000D01*
X12700000Y-8262000D02*
X12780000Y-8262000D01*
X12740000Y-8476000D02*
X12740000Y-8556000D01*
X12700000Y-8516000D02*
X12780000Y-8516000D01*
X12740000Y-8730000D02*
X12740000Y-8810000D01*
X12700000Y-8770000D02*
X12780000Y-8770000D01*
X12740000Y-8984000D02*
X12740000Y-9064000D01*
X12700000Y-9024000D02*
X12780000Y-9024000D01*
X13050000Y-10782000D02*
X13050000Y-10862000D01*
X13010000Y-10822000D02*
X13090000Y-10822000D01*
X13063000Y-6285000D02*
X13063000Y-6365000D01*
X13023000Y-6325000D02*
X13103000Y-6325000D01*
X13063000Y-6539000D02*
X13063000Y-6619000D01*
X13023000Y-6579000D02*
X13103000Y-6579000D01*
X13063000Y-6793000D02*
X13063000Y-6873000D01*
X13023000Y-6833000D02*
X13103000Y-6833000D01*
X13063000Y-7047000D02*
X13063000Y-7127000D01*
X13023000Y-7087000D02*
X13103000Y-7087000D01*
X13063000Y-7460000D02*
X13063000Y-7540000D01*
X13023000Y-7500000D02*
X13103000Y-7500000D01*
X13063000Y-7714000D02*
X13063000Y-7794000D01*
X13023000Y-7754000D02*
X13103000Y-7754000D01*
X13063000Y-7968000D02*
X13063000Y-8048000D01*
X13023000Y-8008000D02*
X13103000Y-8008000D01*
X13063000Y-8222000D02*
X13063000Y-8302000D01*
X13023000Y-8262000D02*
X13103000Y-8262000D01*
X13063000Y-8476000D02*
X13063000Y-8556000D01*
X13023000Y-8516000D02*
X13103000Y-8516000D01*
X13063000Y-8730000D02*
X13063000Y-8810000D01*
X13023000Y-8770000D02*
X13103000Y-8770000D01*
X13063000Y-8984000D02*
X13063000Y-9064000D01*
X13023000Y-9024000D02*
X13103000Y-9024000D01*
X13825000Y-6285000D02*
X13825000Y-6365000D01*
X13785000Y-6325000D02*
X13865000Y-6325000D01*
X13825000Y-6539000D02*
X13825000Y-6619000D01*
X13785000Y-6579000D02*
X13865000Y-6579000D01*
X13825000Y-6793000D02*
X13825000Y-6873000D01*
X13785000Y-6833000D02*
X13865000Y-6833000D01*
X13825000Y-7047000D02*
X13825000Y-7127000D01*
X13785000Y-7087000D02*
X13865000Y-7087000D01*
X13825000Y-7460000D02*
X13825000Y-7540000D01*
X13785000Y-7500000D02*
X13865000Y-7500000D01*
X13825000Y-7714000D02*
X13825000Y-7794000D01*
X13785000Y-7754000D02*
X13865000Y-7754000D01*
X13825000Y-7968000D02*
X13825000Y-8048000D01*
X13785000Y-8008000D02*
X13865000Y-8008000D01*
X13825000Y-8222000D02*
X13825000Y-8302000D01*
X13785000Y-8262000D02*
X13865000Y-8262000D01*
X13825000Y-8476000D02*
X13825000Y-8556000D01*
X13785000Y-8516000D02*
X13865000Y-8516000D01*
X13825000Y-8730000D02*
X13825000Y-8810000D01*
X13785000Y-8770000D02*
X13865000Y-8770000D01*
X13825000Y-8984000D02*
X13825000Y-9064000D01*
X13785000Y-9024000D02*
X13865000Y-9024000D01*
X14066000Y-10782000D02*
X14066000Y-10862000D01*
X14026000Y-10822000D02*
X14106000Y-10822000D01*
X14148000Y-6285000D02*
X14148000Y-6365000D01*
X14108000Y-6325000D02*
X14188000Y-6325000D01*
X14148000Y-6539000D02*
X14148000Y-6619000D01*
X14108000Y-6579000D02*
X14188000Y-6579000D01*
X14148000Y-6793000D02*
X14148000Y-6873000D01*
X14108000Y-6833000D02*
X14188000Y-6833000D01*
X14148000Y-7047000D02*
X14148000Y-7127000D01*
X14108000Y-7087000D02*
X14188000Y-7087000D01*
X14148000Y-7460000D02*
X14148000Y-7540000D01*
X14108000Y-7500000D02*
X14188000Y-7500000D01*
X14148000Y-7714000D02*
X14148000Y-7794000D01*
X14108000Y-7754000D02*
X14188000Y-7754000D01*
X14148000Y-7968000D02*
X14148000Y-8048000D01*
X14108000Y-8008000D02*
X14188000Y-8008000D01*
X14148000Y-8222000D02*
X14148000Y-8302000D01*
X14108000Y-8262000D02*
X14188000Y-8262000D01*
X14148000Y-8476000D02*
X14148000Y-8556000D01*
X14108000Y-8516000D02*
X14188000Y-8516000D01*
X14148000Y-8730000D02*
X14148000Y-8810000D01*
X14108000Y-8770000D02*
X14188000Y-8770000D01*
X14148000Y-8984000D02*
X14148000Y-9064000D01*
X14108000Y-9024000D02*
X14188000Y-9024000D01*
X14910000Y-6285000D02*
X14910000Y-6365000D01*
X14870000Y-6325000D02*
X14950000Y-6325000D01*
X14910000Y-6539000D02*
X14910000Y-6619000D01*
X14870000Y-6579000D02*
X14950000Y-6579000D01*
X14910000Y-6793000D02*
X14910000Y-6873000D01*
X14870000Y-6833000D02*
X14950000Y-6833000D01*
X14910000Y-7047000D02*
X14910000Y-7127000D01*
X14870000Y-7087000D02*
X14950000Y-7087000D01*
X14910000Y-7460000D02*
X14910000Y-7540000D01*
X14870000Y-7500000D02*
X14950000Y-7500000D01*
X14910000Y-7714000D02*
X14910000Y-7794000D01*
X14870000Y-7754000D02*
X14950000Y-7754000D01*
X14910000Y-7968000D02*
X14910000Y-8048000D01*
X14870000Y-8008000D02*
X14950000Y-8008000D01*
X14910000Y-8222000D02*
X14910000Y-8302000D01*
X14870000Y-8262000D02*
X14950000Y-8262000D01*
X14910000Y-8476000D02*
X14910000Y-8556000D01*
X14870000Y-8516000D02*
X14950000Y-8516000D01*
X14910000Y-8730000D02*
X14910000Y-8810000D01*
X14870000Y-8770000D02*
X14950000Y-8770000D01*
X14910000Y-8984000D02*
X14910000Y-9064000D01*
X14870000Y-9024000D02*
X14950000Y-9024000D01*
X15228000Y-8940000D02*
X15228000Y-9020000D01*
X15188000Y-8980000D02*
X15268000Y-8980000D01*
X15230000Y-9544500D02*
X15230000Y-9624500D01*
X15190000Y-9584500D02*
X15270000Y-9584500D01*
X15317470Y-6555000D02*
X15317470Y-6635000D01*
X15277470Y-6595000D02*
X15357470Y-6595000D01*
X15430000Y-9544500D02*
X15430000Y-9624500D01*
X15390000Y-9584500D02*
X15470000Y-9584500D01*
X15630000Y-9544500D02*
X15630000Y-9624500D01*
X15590000Y-9584500D02*
X15670000Y-9584500D01*
X15728000Y-8940000D02*
X15728000Y-9020000D01*
X15688000Y-8980000D02*
X15768000Y-8980000D01*
X15817470Y-6555000D02*
X15817470Y-6635000D01*
X15777470Y-6595000D02*
X15857470Y-6595000D01*
D15*
X15271820Y-10445820D02*
X15271820Y-10382180D01*
X15208180Y-10382180D01*
X15208180Y-10445820D01*
X15271820Y-10445820D01*
X15525820Y-10445820D02*
X15525820Y-10382180D01*
X15462180Y-10382180D01*
X15462180Y-10445820D01*
X15525820Y-10445820D01*
D10*
X13060000Y-9726000D02*
X13110000Y-9676000D01*
X13060000Y-9626000D01*
X13010000Y-9676000D01*
X13060000Y-9726000D01*
X13060000Y-9976000D02*
X13110000Y-9926000D01*
X13060000Y-9876000D01*
X13010000Y-9926000D01*
X13060000Y-9976000D01*
X13060000Y-10226000D02*
X13110000Y-10176000D01*
X13060000Y-10126000D01*
X13010000Y-10176000D01*
X13060000Y-10226000D01*
X14605000Y-9515000D02*
X14655000Y-9465000D01*
X14605000Y-9415000D01*
X14555000Y-9465000D01*
X14605000Y-9515000D01*
X14605000Y-9769000D02*
X14655000Y-9719000D01*
X14605000Y-9669000D01*
X14555000Y-9719000D01*
X14605000Y-9769000D01*
X14605000Y-10023000D02*
X14655000Y-9973000D01*
X14605000Y-9923000D01*
X14555000Y-9973000D01*
X14605000Y-10023000D01*
X14605000Y-10277000D02*
X14655000Y-10227000D01*
X14605000Y-10177000D01*
X14555000Y-10227000D01*
X14605000Y-10277000D01*
X14605000Y-10531000D02*
X14655000Y-10481000D01*
X14605000Y-10431000D01*
X14555000Y-10481000D01*
X14605000Y-10531000D01*
D16*
X13755000Y-9391000D02*
X13865000Y-9501000D01*
X13865000Y-9391000D02*
X13755000Y-9501000D01*
X13865000Y-9446000D02*
G75*
G03*
X13865000Y-9446000I-55000J0D01*
G01*
D11*
X13775000Y-9501000D02*
X13845000Y-9501000D01*
X13845000Y-9501000D02*
G75*
G03*
X13845000Y-9391000I0J55000D01*
G01*
X13845000Y-9391000D02*
X13775000Y-9391000D01*
X13775000Y-9391000D02*
G75*
G03*
X13775000Y-9501000I0J-55000D01*
G01*
D16*
X13755000Y-10351000D02*
X13865000Y-10461000D01*
X13865000Y-10351000D02*
X13755000Y-10461000D01*
X13865000Y-10406000D02*
G75*
G03*
X13865000Y-10406000I-55000J0D01*
G01*
D11*
X13775000Y-10461000D02*
X13845000Y-10461000D01*
X13845000Y-10461000D02*
G75*
G03*
X13845000Y-10351000I0J55000D01*
G01*
X13845000Y-10351000D02*
X13775000Y-10351000D01*
X13775000Y-10351000D02*
G75*
G03*
X13775000Y-10461000I0J-55000D01*
G01*
D16*
X15218000Y-8070000D02*
X15328000Y-8180000D01*
X15328000Y-8070000D02*
X15218000Y-8180000D01*
X15328000Y-8125000D02*
G75*
G03*
X15328000Y-8125000I-55000J0D01*
G01*
X15218000Y-8520000D02*
X15328000Y-8630000D01*
X15328000Y-8520000D02*
X15218000Y-8630000D01*
X15328000Y-8575000D02*
G75*
G03*
X15328000Y-8575000I-55000J0D01*
G01*
X15868000Y-8070000D02*
X15978000Y-8180000D01*
X15978000Y-8070000D02*
X15868000Y-8180000D01*
X15978000Y-8125000D02*
G75*
G03*
X15978000Y-8125000I-55000J0D01*
G01*
X15868000Y-8520000D02*
X15978000Y-8630000D01*
X15978000Y-8520000D02*
X15868000Y-8630000D01*
X15978000Y-8575000D02*
G75*
G03*
X15978000Y-8575000I-55000J0D01*
G01*
D17*
X10598000Y-5264000D02*
X10738000Y-5404000D01*
X10738000Y-5264000D02*
X10598000Y-5404000D01*
X10668000Y-5264000D02*
X10668000Y-5404000D01*
X10598000Y-5334000D02*
X10738000Y-5334000D01*
X10598000Y-11106000D02*
X10738000Y-11246000D01*
X10738000Y-11106000D02*
X10598000Y-11246000D01*
X10668000Y-11106000D02*
X10668000Y-11246000D01*
X10598000Y-11176000D02*
X10738000Y-11176000D01*
D18*
X14945000Y-9509500D02*
X15095000Y-9659500D01*
X15095000Y-9509500D02*
X14945000Y-9659500D01*
X15073033Y-9637534D02*
X15073033Y-9531467D01*
X14966966Y-9531467D01*
X14966966Y-9637534D01*
X15073033Y-9637534D01*
X15765000Y-9509500D02*
X15915000Y-9659500D01*
X15915000Y-9509500D02*
X15765000Y-9659500D01*
X15893033Y-9637534D02*
X15893033Y-9531467D01*
X15786966Y-9531467D01*
X15786966Y-9637534D01*
X15893033Y-9637534D01*
D11*
X10656619Y-11728476D02*
X10656619Y-11528476D01*
X10656619Y-11528476D02*
X10704238Y-11528476D01*
X10704238Y-11528476D02*
X10732810Y-11538000D01*
X10732810Y-11538000D02*
X10751857Y-11557048D01*
X10751857Y-11557048D02*
X10761381Y-11576095D01*
X10761381Y-11576095D02*
X10770905Y-11614190D01*
X10770905Y-11614190D02*
X10770905Y-11642762D01*
X10770905Y-11642762D02*
X10761381Y-11680857D01*
X10761381Y-11680857D02*
X10751857Y-11699905D01*
X10751857Y-11699905D02*
X10732810Y-11718952D01*
X10732810Y-11718952D02*
X10704238Y-11728476D01*
X10704238Y-11728476D02*
X10656619Y-11728476D01*
X10856619Y-11728476D02*
X10856619Y-11595143D01*
X10856619Y-11633238D02*
X10866143Y-11614190D01*
X10866143Y-11614190D02*
X10875667Y-11604667D01*
X10875667Y-11604667D02*
X10894714Y-11595143D01*
X10894714Y-11595143D02*
X10913762Y-11595143D01*
X10980429Y-11728476D02*
X10980429Y-11595143D01*
X10980429Y-11528476D02*
X10970905Y-11538000D01*
X10970905Y-11538000D02*
X10980429Y-11547524D01*
X10980429Y-11547524D02*
X10989952Y-11538000D01*
X10989952Y-11538000D02*
X10980429Y-11528476D01*
X10980429Y-11528476D02*
X10980429Y-11547524D01*
X11104238Y-11728476D02*
X11085190Y-11718952D01*
X11085190Y-11718952D02*
X11075667Y-11699905D01*
X11075667Y-11699905D02*
X11075667Y-11528476D01*
X11209000Y-11728476D02*
X11189952Y-11718952D01*
X11189952Y-11718952D02*
X11180429Y-11699905D01*
X11180429Y-11699905D02*
X11180429Y-11528476D01*
X11405190Y-11728476D02*
X11405190Y-11528476D01*
X11405190Y-11528476D02*
X11471857Y-11671333D01*
X11471857Y-11671333D02*
X11538524Y-11528476D01*
X11538524Y-11528476D02*
X11538524Y-11728476D01*
X11719476Y-11728476D02*
X11719476Y-11623714D01*
X11719476Y-11623714D02*
X11709952Y-11604667D01*
X11709952Y-11604667D02*
X11690905Y-11595143D01*
X11690905Y-11595143D02*
X11652809Y-11595143D01*
X11652809Y-11595143D02*
X11633762Y-11604667D01*
X11719476Y-11718952D02*
X11700428Y-11728476D01*
X11700428Y-11728476D02*
X11652809Y-11728476D01*
X11652809Y-11728476D02*
X11633762Y-11718952D01*
X11633762Y-11718952D02*
X11624238Y-11699905D01*
X11624238Y-11699905D02*
X11624238Y-11680857D01*
X11624238Y-11680857D02*
X11633762Y-11661809D01*
X11633762Y-11661809D02*
X11652809Y-11652286D01*
X11652809Y-11652286D02*
X11700428Y-11652286D01*
X11700428Y-11652286D02*
X11719476Y-11642762D01*
X11814714Y-11595143D02*
X11814714Y-11795143D01*
X11814714Y-11604667D02*
X11833762Y-11595143D01*
X11833762Y-11595143D02*
X11871857Y-11595143D01*
X11871857Y-11595143D02*
X11890905Y-11604667D01*
X11890905Y-11604667D02*
X11900428Y-11614190D01*
X11900428Y-11614190D02*
X11909952Y-11633238D01*
X11909952Y-11633238D02*
X11909952Y-11690381D01*
X11909952Y-11690381D02*
X11900428Y-11709428D01*
X11900428Y-11709428D02*
X11890905Y-11718952D01*
X11890905Y-11718952D02*
X11871857Y-11728476D01*
X11871857Y-11728476D02*
X11833762Y-11728476D01*
X11833762Y-11728476D02*
X11814714Y-11718952D01*
X11995667Y-11709428D02*
X12005190Y-11718952D01*
X12005190Y-11718952D02*
X11995667Y-11728476D01*
X11995667Y-11728476D02*
X11986143Y-11718952D01*
X11986143Y-11718952D02*
X11995667Y-11709428D01*
X11995667Y-11709428D02*
X11995667Y-11728476D01*
X11995667Y-11604667D02*
X12005190Y-11614190D01*
X12005190Y-11614190D02*
X11995667Y-11623714D01*
X11995667Y-11623714D02*
X11986143Y-11614190D01*
X11986143Y-11614190D02*
X11995667Y-11604667D01*
X11995667Y-11604667D02*
X11995667Y-11623714D01*
D12*
X10369000Y-12055000D02*
X10409000Y-12095000D01*
X10409000Y-12055000D02*
X10369000Y-12095000D01*
D11*
X10694714Y-11948476D02*
X10713762Y-11948476D01*
X10713762Y-11948476D02*
X10732810Y-11958000D01*
X10732810Y-11958000D02*
X10742333Y-11967524D01*
X10742333Y-11967524D02*
X10751857Y-11986571D01*
X10751857Y-11986571D02*
X10761381Y-12024667D01*
X10761381Y-12024667D02*
X10761381Y-12072286D01*
X10761381Y-12072286D02*
X10751857Y-12110381D01*
X10751857Y-12110381D02*
X10742333Y-12129428D01*
X10742333Y-12129428D02*
X10732810Y-12138952D01*
X10732810Y-12138952D02*
X10713762Y-12148476D01*
X10713762Y-12148476D02*
X10694714Y-12148476D01*
X10694714Y-12148476D02*
X10675667Y-12138952D01*
X10675667Y-12138952D02*
X10666143Y-12129428D01*
X10666143Y-12129428D02*
X10656619Y-12110381D01*
X10656619Y-12110381D02*
X10647095Y-12072286D01*
X10647095Y-12072286D02*
X10647095Y-12024667D01*
X10647095Y-12024667D02*
X10656619Y-11986571D01*
X10656619Y-11986571D02*
X10666143Y-11967524D01*
X10666143Y-11967524D02*
X10675667Y-11958000D01*
X10675667Y-11958000D02*
X10694714Y-11948476D01*
X10847095Y-12129428D02*
X10856619Y-12138952D01*
X10856619Y-12138952D02*
X10847095Y-12148476D01*
X10847095Y-12148476D02*
X10837571Y-12138952D01*
X10837571Y-12138952D02*
X10847095Y-12129428D01*
X10847095Y-12129428D02*
X10847095Y-12148476D01*
X11028048Y-12015143D02*
X11028048Y-12148476D01*
X10980429Y-11938952D02*
X10932810Y-12081809D01*
X10932810Y-12081809D02*
X11056619Y-12081809D01*
X11170905Y-11948476D02*
X11189952Y-11948476D01*
X11189952Y-11948476D02*
X11209000Y-11958000D01*
X11209000Y-11958000D02*
X11218524Y-11967524D01*
X11218524Y-11967524D02*
X11228048Y-11986571D01*
X11228048Y-11986571D02*
X11237571Y-12024667D01*
X11237571Y-12024667D02*
X11237571Y-12072286D01*
X11237571Y-12072286D02*
X11228048Y-12110381D01*
X11228048Y-12110381D02*
X11218524Y-12129428D01*
X11218524Y-12129428D02*
X11209000Y-12138952D01*
X11209000Y-12138952D02*
X11189952Y-12148476D01*
X11189952Y-12148476D02*
X11170905Y-12148476D01*
X11170905Y-12148476D02*
X11151857Y-12138952D01*
X11151857Y-12138952D02*
X11142333Y-12129428D01*
X11142333Y-12129428D02*
X11132810Y-12110381D01*
X11132810Y-12110381D02*
X11123286Y-12072286D01*
X11123286Y-12072286D02*
X11123286Y-12024667D01*
X11123286Y-12024667D02*
X11132810Y-11986571D01*
X11132810Y-11986571D02*
X11142333Y-11967524D01*
X11142333Y-11967524D02*
X11151857Y-11958000D01*
X11151857Y-11958000D02*
X11170905Y-11948476D01*
X11361381Y-11948476D02*
X11380429Y-11948476D01*
X11380429Y-11948476D02*
X11399476Y-11958000D01*
X11399476Y-11958000D02*
X11409000Y-11967524D01*
X11409000Y-11967524D02*
X11418524Y-11986571D01*
X11418524Y-11986571D02*
X11428048Y-12024667D01*
X11428048Y-12024667D02*
X11428048Y-12072286D01*
X11428048Y-12072286D02*
X11418524Y-12110381D01*
X11418524Y-12110381D02*
X11409000Y-12129428D01*
X11409000Y-12129428D02*
X11399476Y-12138952D01*
X11399476Y-12138952D02*
X11380429Y-12148476D01*
X11380429Y-12148476D02*
X11361381Y-12148476D01*
X11361381Y-12148476D02*
X11342333Y-12138952D01*
X11342333Y-12138952D02*
X11332809Y-12129428D01*
X11332809Y-12129428D02*
X11323286Y-12110381D01*
X11323286Y-12110381D02*
X11313762Y-12072286D01*
X11313762Y-12072286D02*
X11313762Y-12024667D01*
X11313762Y-12024667D02*
X11323286Y-11986571D01*
X11323286Y-11986571D02*
X11332809Y-11967524D01*
X11332809Y-11967524D02*
X11342333Y-11958000D01*
X11342333Y-11958000D02*
X11361381Y-11948476D01*
X11513762Y-12148476D02*
X11513762Y-12015143D01*
X11513762Y-12034190D02*
X11523286Y-12024667D01*
X11523286Y-12024667D02*
X11542333Y-12015143D01*
X11542333Y-12015143D02*
X11570905Y-12015143D01*
X11570905Y-12015143D02*
X11589952Y-12024667D01*
X11589952Y-12024667D02*
X11599476Y-12043714D01*
X11599476Y-12043714D02*
X11599476Y-12148476D01*
X11599476Y-12043714D02*
X11609000Y-12024667D01*
X11609000Y-12024667D02*
X11628048Y-12015143D01*
X11628048Y-12015143D02*
X11656619Y-12015143D01*
X11656619Y-12015143D02*
X11675667Y-12024667D01*
X11675667Y-12024667D02*
X11685190Y-12043714D01*
X11685190Y-12043714D02*
X11685190Y-12148476D01*
X11780429Y-12148476D02*
X11780429Y-12015143D01*
X11780429Y-12034190D02*
X11789952Y-12024667D01*
X11789952Y-12024667D02*
X11809000Y-12015143D01*
X11809000Y-12015143D02*
X11837571Y-12015143D01*
X11837571Y-12015143D02*
X11856619Y-12024667D01*
X11856619Y-12024667D02*
X11866143Y-12043714D01*
X11866143Y-12043714D02*
X11866143Y-12148476D01*
X11866143Y-12043714D02*
X11875667Y-12024667D01*
X11875667Y-12024667D02*
X11894714Y-12015143D01*
X11894714Y-12015143D02*
X11923286Y-12015143D01*
X11923286Y-12015143D02*
X11942333Y-12024667D01*
X11942333Y-12024667D02*
X11951857Y-12043714D01*
X11951857Y-12043714D02*
X11951857Y-12148476D01*
X12309952Y-11938952D02*
X12138524Y-12196095D01*
X12534714Y-11948476D02*
X12553762Y-11948476D01*
X12553762Y-11948476D02*
X12572810Y-11958000D01*
X12572810Y-11958000D02*
X12582333Y-11967524D01*
X12582333Y-11967524D02*
X12591857Y-11986571D01*
X12591857Y-11986571D02*
X12601381Y-12024667D01*
X12601381Y-12024667D02*
X12601381Y-12072286D01*
X12601381Y-12072286D02*
X12591857Y-12110381D01*
X12591857Y-12110381D02*
X12582333Y-12129428D01*
X12582333Y-12129428D02*
X12572810Y-12138952D01*
X12572810Y-12138952D02*
X12553762Y-12148476D01*
X12553762Y-12148476D02*
X12534714Y-12148476D01*
X12534714Y-12148476D02*
X12515667Y-12138952D01*
X12515667Y-12138952D02*
X12506143Y-12129428D01*
X12506143Y-12129428D02*
X12496619Y-12110381D01*
X12496619Y-12110381D02*
X12487095Y-12072286D01*
X12487095Y-12072286D02*
X12487095Y-12024667D01*
X12487095Y-12024667D02*
X12496619Y-11986571D01*
X12496619Y-11986571D02*
X12506143Y-11967524D01*
X12506143Y-11967524D02*
X12515667Y-11958000D01*
X12515667Y-11958000D02*
X12534714Y-11948476D01*
X12687095Y-12129428D02*
X12696619Y-12138952D01*
X12696619Y-12138952D02*
X12687095Y-12148476D01*
X12687095Y-12148476D02*
X12677571Y-12138952D01*
X12677571Y-12138952D02*
X12687095Y-12129428D01*
X12687095Y-12129428D02*
X12687095Y-12148476D01*
X12820429Y-11948476D02*
X12839476Y-11948476D01*
X12839476Y-11948476D02*
X12858524Y-11958000D01*
X12858524Y-11958000D02*
X12868048Y-11967524D01*
X12868048Y-11967524D02*
X12877571Y-11986571D01*
X12877571Y-11986571D02*
X12887095Y-12024667D01*
X12887095Y-12024667D02*
X12887095Y-12072286D01*
X12887095Y-12072286D02*
X12877571Y-12110381D01*
X12877571Y-12110381D02*
X12868048Y-12129428D01*
X12868048Y-12129428D02*
X12858524Y-12138952D01*
X12858524Y-12138952D02*
X12839476Y-12148476D01*
X12839476Y-12148476D02*
X12820429Y-12148476D01*
X12820429Y-12148476D02*
X12801381Y-12138952D01*
X12801381Y-12138952D02*
X12791857Y-12129428D01*
X12791857Y-12129428D02*
X12782333Y-12110381D01*
X12782333Y-12110381D02*
X12772810Y-12072286D01*
X12772810Y-12072286D02*
X12772810Y-12024667D01*
X12772810Y-12024667D02*
X12782333Y-11986571D01*
X12782333Y-11986571D02*
X12791857Y-11967524D01*
X12791857Y-11967524D02*
X12801381Y-11958000D01*
X12801381Y-11958000D02*
X12820429Y-11948476D01*
X13077571Y-12148476D02*
X12963286Y-12148476D01*
X13020429Y-12148476D02*
X13020429Y-11948476D01*
X13020429Y-11948476D02*
X13001381Y-11977048D01*
X13001381Y-11977048D02*
X12982333Y-11996095D01*
X12982333Y-11996095D02*
X12963286Y-12005619D01*
X13258524Y-11948476D02*
X13163286Y-11948476D01*
X13163286Y-11948476D02*
X13153762Y-12043714D01*
X13153762Y-12043714D02*
X13163286Y-12034190D01*
X13163286Y-12034190D02*
X13182333Y-12024667D01*
X13182333Y-12024667D02*
X13229952Y-12024667D01*
X13229952Y-12024667D02*
X13249000Y-12034190D01*
X13249000Y-12034190D02*
X13258524Y-12043714D01*
X13258524Y-12043714D02*
X13268048Y-12062762D01*
X13268048Y-12062762D02*
X13268048Y-12110381D01*
X13268048Y-12110381D02*
X13258524Y-12129428D01*
X13258524Y-12129428D02*
X13249000Y-12138952D01*
X13249000Y-12138952D02*
X13229952Y-12148476D01*
X13229952Y-12148476D02*
X13182333Y-12148476D01*
X13182333Y-12148476D02*
X13163286Y-12138952D01*
X13163286Y-12138952D02*
X13153762Y-12129428D01*
X13334714Y-11948476D02*
X13468048Y-11948476D01*
X13468048Y-11948476D02*
X13382333Y-12148476D01*
X13534714Y-11948476D02*
X13534714Y-11986571D01*
X13610905Y-11948476D02*
X13610905Y-11986571D01*
X13873762Y-12224667D02*
X13864238Y-12215143D01*
X13864238Y-12215143D02*
X13845191Y-12186571D01*
X13845191Y-12186571D02*
X13835667Y-12167524D01*
X13835667Y-12167524D02*
X13826143Y-12138952D01*
X13826143Y-12138952D02*
X13816619Y-12091333D01*
X13816619Y-12091333D02*
X13816619Y-12053238D01*
X13816619Y-12053238D02*
X13826143Y-12005619D01*
X13826143Y-12005619D02*
X13835667Y-11977048D01*
X13835667Y-11977048D02*
X13845191Y-11958000D01*
X13845191Y-11958000D02*
X13864238Y-11929428D01*
X13864238Y-11929428D02*
X13873762Y-11919905D01*
X14054714Y-12148476D02*
X13940429Y-12148476D01*
X13997571Y-12148476D02*
X13997571Y-11948476D01*
X13997571Y-11948476D02*
X13978524Y-11977048D01*
X13978524Y-11977048D02*
X13959476Y-11996095D01*
X13959476Y-11996095D02*
X13940429Y-12005619D01*
X14235667Y-11948476D02*
X14140429Y-11948476D01*
X14140429Y-11948476D02*
X14130905Y-12043714D01*
X14130905Y-12043714D02*
X14140429Y-12034190D01*
X14140429Y-12034190D02*
X14159476Y-12024667D01*
X14159476Y-12024667D02*
X14207095Y-12024667D01*
X14207095Y-12024667D02*
X14226143Y-12034190D01*
X14226143Y-12034190D02*
X14235667Y-12043714D01*
X14235667Y-12043714D02*
X14245191Y-12062762D01*
X14245191Y-12062762D02*
X14245191Y-12110381D01*
X14245191Y-12110381D02*
X14235667Y-12129428D01*
X14235667Y-12129428D02*
X14226143Y-12138952D01*
X14226143Y-12138952D02*
X14207095Y-12148476D01*
X14207095Y-12148476D02*
X14159476Y-12148476D01*
X14159476Y-12148476D02*
X14140429Y-12138952D01*
X14140429Y-12138952D02*
X14130905Y-12129428D01*
X14450905Y-12148476D02*
X14450905Y-11948476D01*
X14536619Y-12148476D02*
X14536619Y-12043714D01*
X14536619Y-12043714D02*
X14527095Y-12024667D01*
X14527095Y-12024667D02*
X14508048Y-12015143D01*
X14508048Y-12015143D02*
X14479476Y-12015143D01*
X14479476Y-12015143D02*
X14460429Y-12024667D01*
X14460429Y-12024667D02*
X14450905Y-12034190D01*
X14660429Y-12148476D02*
X14641381Y-12138952D01*
X14641381Y-12138952D02*
X14631857Y-12129428D01*
X14631857Y-12129428D02*
X14622333Y-12110381D01*
X14622333Y-12110381D02*
X14622333Y-12053238D01*
X14622333Y-12053238D02*
X14631857Y-12034190D01*
X14631857Y-12034190D02*
X14641381Y-12024667D01*
X14641381Y-12024667D02*
X14660429Y-12015143D01*
X14660429Y-12015143D02*
X14689000Y-12015143D01*
X14689000Y-12015143D02*
X14708048Y-12024667D01*
X14708048Y-12024667D02*
X14717572Y-12034190D01*
X14717572Y-12034190D02*
X14727095Y-12053238D01*
X14727095Y-12053238D02*
X14727095Y-12110381D01*
X14727095Y-12110381D02*
X14717572Y-12129428D01*
X14717572Y-12129428D02*
X14708048Y-12138952D01*
X14708048Y-12138952D02*
X14689000Y-12148476D01*
X14689000Y-12148476D02*
X14660429Y-12148476D01*
X14841381Y-12148476D02*
X14822333Y-12138952D01*
X14822333Y-12138952D02*
X14812810Y-12119905D01*
X14812810Y-12119905D02*
X14812810Y-11948476D01*
X14993762Y-12138952D02*
X14974714Y-12148476D01*
X14974714Y-12148476D02*
X14936619Y-12148476D01*
X14936619Y-12148476D02*
X14917572Y-12138952D01*
X14917572Y-12138952D02*
X14908048Y-12119905D01*
X14908048Y-12119905D02*
X14908048Y-12043714D01*
X14908048Y-12043714D02*
X14917572Y-12024667D01*
X14917572Y-12024667D02*
X14936619Y-12015143D01*
X14936619Y-12015143D02*
X14974714Y-12015143D01*
X14974714Y-12015143D02*
X14993762Y-12024667D01*
X14993762Y-12024667D02*
X15003286Y-12043714D01*
X15003286Y-12043714D02*
X15003286Y-12062762D01*
X15003286Y-12062762D02*
X14908048Y-12081809D01*
X15079476Y-12138952D02*
X15098524Y-12148476D01*
X15098524Y-12148476D02*
X15136619Y-12148476D01*
X15136619Y-12148476D02*
X15155667Y-12138952D01*
X15155667Y-12138952D02*
X15165191Y-12119905D01*
X15165191Y-12119905D02*
X15165191Y-12110381D01*
X15165191Y-12110381D02*
X15155667Y-12091333D01*
X15155667Y-12091333D02*
X15136619Y-12081809D01*
X15136619Y-12081809D02*
X15108048Y-12081809D01*
X15108048Y-12081809D02*
X15089000Y-12072286D01*
X15089000Y-12072286D02*
X15079476Y-12053238D01*
X15079476Y-12053238D02*
X15079476Y-12043714D01*
X15079476Y-12043714D02*
X15089000Y-12024667D01*
X15089000Y-12024667D02*
X15108048Y-12015143D01*
X15108048Y-12015143D02*
X15136619Y-12015143D01*
X15136619Y-12015143D02*
X15155667Y-12024667D01*
X15231857Y-12224667D02*
X15241381Y-12215143D01*
X15241381Y-12215143D02*
X15260429Y-12186571D01*
X15260429Y-12186571D02*
X15269953Y-12167524D01*
X15269953Y-12167524D02*
X15279476Y-12138952D01*
X15279476Y-12138952D02*
X15289000Y-12091333D01*
X15289000Y-12091333D02*
X15289000Y-12053238D01*
X15289000Y-12053238D02*
X15279476Y-12005619D01*
X15279476Y-12005619D02*
X15269953Y-11977048D01*
X15269953Y-11977048D02*
X15260429Y-11958000D01*
X15260429Y-11958000D02*
X15241381Y-11929428D01*
X15241381Y-11929428D02*
X15231857Y-11919905D01*
D13*
X10409000Y-12339000D02*
G75*
G03*
X10409000Y-12339000I-35000J0D01*
G01*
D11*
X10694714Y-12212476D02*
X10713762Y-12212476D01*
X10713762Y-12212476D02*
X10732810Y-12222000D01*
X10732810Y-12222000D02*
X10742333Y-12231524D01*
X10742333Y-12231524D02*
X10751857Y-12250571D01*
X10751857Y-12250571D02*
X10761381Y-12288667D01*
X10761381Y-12288667D02*
X10761381Y-12336286D01*
X10761381Y-12336286D02*
X10751857Y-12374381D01*
X10751857Y-12374381D02*
X10742333Y-12393428D01*
X10742333Y-12393428D02*
X10732810Y-12402952D01*
X10732810Y-12402952D02*
X10713762Y-12412476D01*
X10713762Y-12412476D02*
X10694714Y-12412476D01*
X10694714Y-12412476D02*
X10675667Y-12402952D01*
X10675667Y-12402952D02*
X10666143Y-12393428D01*
X10666143Y-12393428D02*
X10656619Y-12374381D01*
X10656619Y-12374381D02*
X10647095Y-12336286D01*
X10647095Y-12336286D02*
X10647095Y-12288667D01*
X10647095Y-12288667D02*
X10656619Y-12250571D01*
X10656619Y-12250571D02*
X10666143Y-12231524D01*
X10666143Y-12231524D02*
X10675667Y-12222000D01*
X10675667Y-12222000D02*
X10694714Y-12212476D01*
X10847095Y-12393428D02*
X10856619Y-12402952D01*
X10856619Y-12402952D02*
X10847095Y-12412476D01*
X10847095Y-12412476D02*
X10837571Y-12402952D01*
X10837571Y-12402952D02*
X10847095Y-12393428D01*
X10847095Y-12393428D02*
X10847095Y-12412476D01*
X10923286Y-12212476D02*
X11056619Y-12212476D01*
X11056619Y-12212476D02*
X10970905Y-12412476D01*
X11170905Y-12212476D02*
X11189952Y-12212476D01*
X11189952Y-12212476D02*
X11209000Y-12222000D01*
X11209000Y-12222000D02*
X11218524Y-12231524D01*
X11218524Y-12231524D02*
X11228048Y-12250571D01*
X11228048Y-12250571D02*
X11237571Y-12288667D01*
X11237571Y-12288667D02*
X11237571Y-12336286D01*
X11237571Y-12336286D02*
X11228048Y-12374381D01*
X11228048Y-12374381D02*
X11218524Y-12393428D01*
X11218524Y-12393428D02*
X11209000Y-12402952D01*
X11209000Y-12402952D02*
X11189952Y-12412476D01*
X11189952Y-12412476D02*
X11170905Y-12412476D01*
X11170905Y-12412476D02*
X11151857Y-12402952D01*
X11151857Y-12402952D02*
X11142333Y-12393428D01*
X11142333Y-12393428D02*
X11132810Y-12374381D01*
X11132810Y-12374381D02*
X11123286Y-12336286D01*
X11123286Y-12336286D02*
X11123286Y-12288667D01*
X11123286Y-12288667D02*
X11132810Y-12250571D01*
X11132810Y-12250571D02*
X11142333Y-12231524D01*
X11142333Y-12231524D02*
X11151857Y-12222000D01*
X11151857Y-12222000D02*
X11170905Y-12212476D01*
X11361381Y-12212476D02*
X11380429Y-12212476D01*
X11380429Y-12212476D02*
X11399476Y-12222000D01*
X11399476Y-12222000D02*
X11409000Y-12231524D01*
X11409000Y-12231524D02*
X11418524Y-12250571D01*
X11418524Y-12250571D02*
X11428048Y-12288667D01*
X11428048Y-12288667D02*
X11428048Y-12336286D01*
X11428048Y-12336286D02*
X11418524Y-12374381D01*
X11418524Y-12374381D02*
X11409000Y-12393428D01*
X11409000Y-12393428D02*
X11399476Y-12402952D01*
X11399476Y-12402952D02*
X11380429Y-12412476D01*
X11380429Y-12412476D02*
X11361381Y-12412476D01*
X11361381Y-12412476D02*
X11342333Y-12402952D01*
X11342333Y-12402952D02*
X11332809Y-12393428D01*
X11332809Y-12393428D02*
X11323286Y-12374381D01*
X11323286Y-12374381D02*
X11313762Y-12336286D01*
X11313762Y-12336286D02*
X11313762Y-12288667D01*
X11313762Y-12288667D02*
X11323286Y-12250571D01*
X11323286Y-12250571D02*
X11332809Y-12231524D01*
X11332809Y-12231524D02*
X11342333Y-12222000D01*
X11342333Y-12222000D02*
X11361381Y-12212476D01*
X11513762Y-12412476D02*
X11513762Y-12279143D01*
X11513762Y-12298190D02*
X11523286Y-12288667D01*
X11523286Y-12288667D02*
X11542333Y-12279143D01*
X11542333Y-12279143D02*
X11570905Y-12279143D01*
X11570905Y-12279143D02*
X11589952Y-12288667D01*
X11589952Y-12288667D02*
X11599476Y-12307714D01*
X11599476Y-12307714D02*
X11599476Y-12412476D01*
X11599476Y-12307714D02*
X11609000Y-12288667D01*
X11609000Y-12288667D02*
X11628048Y-12279143D01*
X11628048Y-12279143D02*
X11656619Y-12279143D01*
X11656619Y-12279143D02*
X11675667Y-12288667D01*
X11675667Y-12288667D02*
X11685190Y-12307714D01*
X11685190Y-12307714D02*
X11685190Y-12412476D01*
X11780429Y-12412476D02*
X11780429Y-12279143D01*
X11780429Y-12298190D02*
X11789952Y-12288667D01*
X11789952Y-12288667D02*
X11809000Y-12279143D01*
X11809000Y-12279143D02*
X11837571Y-12279143D01*
X11837571Y-12279143D02*
X11856619Y-12288667D01*
X11856619Y-12288667D02*
X11866143Y-12307714D01*
X11866143Y-12307714D02*
X11866143Y-12412476D01*
X11866143Y-12307714D02*
X11875667Y-12288667D01*
X11875667Y-12288667D02*
X11894714Y-12279143D01*
X11894714Y-12279143D02*
X11923286Y-12279143D01*
X11923286Y-12279143D02*
X11942333Y-12288667D01*
X11942333Y-12288667D02*
X11951857Y-12307714D01*
X11951857Y-12307714D02*
X11951857Y-12412476D01*
X12309952Y-12202952D02*
X12138524Y-12460095D01*
X12534714Y-12212476D02*
X12553762Y-12212476D01*
X12553762Y-12212476D02*
X12572810Y-12222000D01*
X12572810Y-12222000D02*
X12582333Y-12231524D01*
X12582333Y-12231524D02*
X12591857Y-12250571D01*
X12591857Y-12250571D02*
X12601381Y-12288667D01*
X12601381Y-12288667D02*
X12601381Y-12336286D01*
X12601381Y-12336286D02*
X12591857Y-12374381D01*
X12591857Y-12374381D02*
X12582333Y-12393428D01*
X12582333Y-12393428D02*
X12572810Y-12402952D01*
X12572810Y-12402952D02*
X12553762Y-12412476D01*
X12553762Y-12412476D02*
X12534714Y-12412476D01*
X12534714Y-12412476D02*
X12515667Y-12402952D01*
X12515667Y-12402952D02*
X12506143Y-12393428D01*
X12506143Y-12393428D02*
X12496619Y-12374381D01*
X12496619Y-12374381D02*
X12487095Y-12336286D01*
X12487095Y-12336286D02*
X12487095Y-12288667D01*
X12487095Y-12288667D02*
X12496619Y-12250571D01*
X12496619Y-12250571D02*
X12506143Y-12231524D01*
X12506143Y-12231524D02*
X12515667Y-12222000D01*
X12515667Y-12222000D02*
X12534714Y-12212476D01*
X12687095Y-12393428D02*
X12696619Y-12402952D01*
X12696619Y-12402952D02*
X12687095Y-12412476D01*
X12687095Y-12412476D02*
X12677571Y-12402952D01*
X12677571Y-12402952D02*
X12687095Y-12393428D01*
X12687095Y-12393428D02*
X12687095Y-12412476D01*
X12820429Y-12212476D02*
X12839476Y-12212476D01*
X12839476Y-12212476D02*
X12858524Y-12222000D01*
X12858524Y-12222000D02*
X12868048Y-12231524D01*
X12868048Y-12231524D02*
X12877571Y-12250571D01*
X12877571Y-12250571D02*
X12887095Y-12288667D01*
X12887095Y-12288667D02*
X12887095Y-12336286D01*
X12887095Y-12336286D02*
X12877571Y-12374381D01*
X12877571Y-12374381D02*
X12868048Y-12393428D01*
X12868048Y-12393428D02*
X12858524Y-12402952D01*
X12858524Y-12402952D02*
X12839476Y-12412476D01*
X12839476Y-12412476D02*
X12820429Y-12412476D01*
X12820429Y-12412476D02*
X12801381Y-12402952D01*
X12801381Y-12402952D02*
X12791857Y-12393428D01*
X12791857Y-12393428D02*
X12782333Y-12374381D01*
X12782333Y-12374381D02*
X12772810Y-12336286D01*
X12772810Y-12336286D02*
X12772810Y-12288667D01*
X12772810Y-12288667D02*
X12782333Y-12250571D01*
X12782333Y-12250571D02*
X12791857Y-12231524D01*
X12791857Y-12231524D02*
X12801381Y-12222000D01*
X12801381Y-12222000D02*
X12820429Y-12212476D01*
X12963286Y-12231524D02*
X12972810Y-12222000D01*
X12972810Y-12222000D02*
X12991857Y-12212476D01*
X12991857Y-12212476D02*
X13039476Y-12212476D01*
X13039476Y-12212476D02*
X13058524Y-12222000D01*
X13058524Y-12222000D02*
X13068048Y-12231524D01*
X13068048Y-12231524D02*
X13077571Y-12250571D01*
X13077571Y-12250571D02*
X13077571Y-12269619D01*
X13077571Y-12269619D02*
X13068048Y-12298190D01*
X13068048Y-12298190D02*
X12953762Y-12412476D01*
X12953762Y-12412476D02*
X13077571Y-12412476D01*
X13144238Y-12212476D02*
X13277571Y-12212476D01*
X13277571Y-12212476D02*
X13191857Y-12412476D01*
X13439476Y-12212476D02*
X13401381Y-12212476D01*
X13401381Y-12212476D02*
X13382333Y-12222000D01*
X13382333Y-12222000D02*
X13372810Y-12231524D01*
X13372810Y-12231524D02*
X13353762Y-12260095D01*
X13353762Y-12260095D02*
X13344238Y-12298190D01*
X13344238Y-12298190D02*
X13344238Y-12374381D01*
X13344238Y-12374381D02*
X13353762Y-12393428D01*
X13353762Y-12393428D02*
X13363286Y-12402952D01*
X13363286Y-12402952D02*
X13382333Y-12412476D01*
X13382333Y-12412476D02*
X13420429Y-12412476D01*
X13420429Y-12412476D02*
X13439476Y-12402952D01*
X13439476Y-12402952D02*
X13449000Y-12393428D01*
X13449000Y-12393428D02*
X13458524Y-12374381D01*
X13458524Y-12374381D02*
X13458524Y-12326762D01*
X13458524Y-12326762D02*
X13449000Y-12307714D01*
X13449000Y-12307714D02*
X13439476Y-12298190D01*
X13439476Y-12298190D02*
X13420429Y-12288667D01*
X13420429Y-12288667D02*
X13382333Y-12288667D01*
X13382333Y-12288667D02*
X13363286Y-12298190D01*
X13363286Y-12298190D02*
X13353762Y-12307714D01*
X13353762Y-12307714D02*
X13344238Y-12326762D01*
X13534714Y-12212476D02*
X13534714Y-12250571D01*
X13610905Y-12212476D02*
X13610905Y-12250571D01*
X13873762Y-12488667D02*
X13864238Y-12479143D01*
X13864238Y-12479143D02*
X13845191Y-12450571D01*
X13845191Y-12450571D02*
X13835667Y-12431524D01*
X13835667Y-12431524D02*
X13826143Y-12402952D01*
X13826143Y-12402952D02*
X13816619Y-12355333D01*
X13816619Y-12355333D02*
X13816619Y-12317238D01*
X13816619Y-12317238D02*
X13826143Y-12269619D01*
X13826143Y-12269619D02*
X13835667Y-12241048D01*
X13835667Y-12241048D02*
X13845191Y-12222000D01*
X13845191Y-12222000D02*
X13864238Y-12193428D01*
X13864238Y-12193428D02*
X13873762Y-12183905D01*
X14035667Y-12279143D02*
X14035667Y-12412476D01*
X13988048Y-12202952D02*
X13940429Y-12345809D01*
X13940429Y-12345809D02*
X14064238Y-12345809D01*
X14260429Y-12412476D02*
X14260429Y-12212476D01*
X14346143Y-12412476D02*
X14346143Y-12307714D01*
X14346143Y-12307714D02*
X14336619Y-12288667D01*
X14336619Y-12288667D02*
X14317572Y-12279143D01*
X14317572Y-12279143D02*
X14289000Y-12279143D01*
X14289000Y-12279143D02*
X14269952Y-12288667D01*
X14269952Y-12288667D02*
X14260429Y-12298190D01*
X14469952Y-12412476D02*
X14450905Y-12402952D01*
X14450905Y-12402952D02*
X14441381Y-12393428D01*
X14441381Y-12393428D02*
X14431857Y-12374381D01*
X14431857Y-12374381D02*
X14431857Y-12317238D01*
X14431857Y-12317238D02*
X14441381Y-12298190D01*
X14441381Y-12298190D02*
X14450905Y-12288667D01*
X14450905Y-12288667D02*
X14469952Y-12279143D01*
X14469952Y-12279143D02*
X14498524Y-12279143D01*
X14498524Y-12279143D02*
X14517572Y-12288667D01*
X14517572Y-12288667D02*
X14527095Y-12298190D01*
X14527095Y-12298190D02*
X14536619Y-12317238D01*
X14536619Y-12317238D02*
X14536619Y-12374381D01*
X14536619Y-12374381D02*
X14527095Y-12393428D01*
X14527095Y-12393428D02*
X14517572Y-12402952D01*
X14517572Y-12402952D02*
X14498524Y-12412476D01*
X14498524Y-12412476D02*
X14469952Y-12412476D01*
X14650905Y-12412476D02*
X14631857Y-12402952D01*
X14631857Y-12402952D02*
X14622333Y-12383905D01*
X14622333Y-12383905D02*
X14622333Y-12212476D01*
X14803286Y-12402952D02*
X14784238Y-12412476D01*
X14784238Y-12412476D02*
X14746143Y-12412476D01*
X14746143Y-12412476D02*
X14727095Y-12402952D01*
X14727095Y-12402952D02*
X14717572Y-12383905D01*
X14717572Y-12383905D02*
X14717572Y-12307714D01*
X14717572Y-12307714D02*
X14727095Y-12288667D01*
X14727095Y-12288667D02*
X14746143Y-12279143D01*
X14746143Y-12279143D02*
X14784238Y-12279143D01*
X14784238Y-12279143D02*
X14803286Y-12288667D01*
X14803286Y-12288667D02*
X14812810Y-12307714D01*
X14812810Y-12307714D02*
X14812810Y-12326762D01*
X14812810Y-12326762D02*
X14717572Y-12345809D01*
X14889000Y-12402952D02*
X14908048Y-12412476D01*
X14908048Y-12412476D02*
X14946143Y-12412476D01*
X14946143Y-12412476D02*
X14965191Y-12402952D01*
X14965191Y-12402952D02*
X14974714Y-12383905D01*
X14974714Y-12383905D02*
X14974714Y-12374381D01*
X14974714Y-12374381D02*
X14965191Y-12355333D01*
X14965191Y-12355333D02*
X14946143Y-12345809D01*
X14946143Y-12345809D02*
X14917572Y-12345809D01*
X14917572Y-12345809D02*
X14898524Y-12336286D01*
X14898524Y-12336286D02*
X14889000Y-12317238D01*
X14889000Y-12317238D02*
X14889000Y-12307714D01*
X14889000Y-12307714D02*
X14898524Y-12288667D01*
X14898524Y-12288667D02*
X14917572Y-12279143D01*
X14917572Y-12279143D02*
X14946143Y-12279143D01*
X14946143Y-12279143D02*
X14965191Y-12288667D01*
X15041381Y-12488667D02*
X15050905Y-12479143D01*
X15050905Y-12479143D02*
X15069953Y-12450571D01*
X15069953Y-12450571D02*
X15079476Y-12431524D01*
X15079476Y-12431524D02*
X15089000Y-12402952D01*
X15089000Y-12402952D02*
X15098524Y-12355333D01*
X15098524Y-12355333D02*
X15098524Y-12317238D01*
X15098524Y-12317238D02*
X15089000Y-12269619D01*
X15089000Y-12269619D02*
X15079476Y-12241048D01*
X15079476Y-12241048D02*
X15069953Y-12222000D01*
X15069953Y-12222000D02*
X15050905Y-12193428D01*
X15050905Y-12193428D02*
X15041381Y-12183905D01*
D14*
X10369000Y-12563000D02*
X10369000Y-12643000D01*
X10329000Y-12603000D02*
X10409000Y-12603000D01*
D11*
X10694714Y-12476476D02*
X10713762Y-12476476D01*
X10713762Y-12476476D02*
X10732810Y-12486000D01*
X10732810Y-12486000D02*
X10742333Y-12495524D01*
X10742333Y-12495524D02*
X10751857Y-12514571D01*
X10751857Y-12514571D02*
X10761381Y-12552667D01*
X10761381Y-12552667D02*
X10761381Y-12600286D01*
X10761381Y-12600286D02*
X10751857Y-12638381D01*
X10751857Y-12638381D02*
X10742333Y-12657428D01*
X10742333Y-12657428D02*
X10732810Y-12666952D01*
X10732810Y-12666952D02*
X10713762Y-12676476D01*
X10713762Y-12676476D02*
X10694714Y-12676476D01*
X10694714Y-12676476D02*
X10675667Y-12666952D01*
X10675667Y-12666952D02*
X10666143Y-12657428D01*
X10666143Y-12657428D02*
X10656619Y-12638381D01*
X10656619Y-12638381D02*
X10647095Y-12600286D01*
X10647095Y-12600286D02*
X10647095Y-12552667D01*
X10647095Y-12552667D02*
X10656619Y-12514571D01*
X10656619Y-12514571D02*
X10666143Y-12495524D01*
X10666143Y-12495524D02*
X10675667Y-12486000D01*
X10675667Y-12486000D02*
X10694714Y-12476476D01*
X10847095Y-12657428D02*
X10856619Y-12666952D01*
X10856619Y-12666952D02*
X10847095Y-12676476D01*
X10847095Y-12676476D02*
X10837571Y-12666952D01*
X10837571Y-12666952D02*
X10847095Y-12657428D01*
X10847095Y-12657428D02*
X10847095Y-12676476D01*
X10970905Y-12562190D02*
X10951857Y-12552667D01*
X10951857Y-12552667D02*
X10942333Y-12543143D01*
X10942333Y-12543143D02*
X10932810Y-12524095D01*
X10932810Y-12524095D02*
X10932810Y-12514571D01*
X10932810Y-12514571D02*
X10942333Y-12495524D01*
X10942333Y-12495524D02*
X10951857Y-12486000D01*
X10951857Y-12486000D02*
X10970905Y-12476476D01*
X10970905Y-12476476D02*
X11009000Y-12476476D01*
X11009000Y-12476476D02*
X11028048Y-12486000D01*
X11028048Y-12486000D02*
X11037571Y-12495524D01*
X11037571Y-12495524D02*
X11047095Y-12514571D01*
X11047095Y-12514571D02*
X11047095Y-12524095D01*
X11047095Y-12524095D02*
X11037571Y-12543143D01*
X11037571Y-12543143D02*
X11028048Y-12552667D01*
X11028048Y-12552667D02*
X11009000Y-12562190D01*
X11009000Y-12562190D02*
X10970905Y-12562190D01*
X10970905Y-12562190D02*
X10951857Y-12571714D01*
X10951857Y-12571714D02*
X10942333Y-12581238D01*
X10942333Y-12581238D02*
X10932810Y-12600286D01*
X10932810Y-12600286D02*
X10932810Y-12638381D01*
X10932810Y-12638381D02*
X10942333Y-12657428D01*
X10942333Y-12657428D02*
X10951857Y-12666952D01*
X10951857Y-12666952D02*
X10970905Y-12676476D01*
X10970905Y-12676476D02*
X11009000Y-12676476D01*
X11009000Y-12676476D02*
X11028048Y-12666952D01*
X11028048Y-12666952D02*
X11037571Y-12657428D01*
X11037571Y-12657428D02*
X11047095Y-12638381D01*
X11047095Y-12638381D02*
X11047095Y-12600286D01*
X11047095Y-12600286D02*
X11037571Y-12581238D01*
X11037571Y-12581238D02*
X11028048Y-12571714D01*
X11028048Y-12571714D02*
X11009000Y-12562190D01*
X11170905Y-12476476D02*
X11189952Y-12476476D01*
X11189952Y-12476476D02*
X11209000Y-12486000D01*
X11209000Y-12486000D02*
X11218524Y-12495524D01*
X11218524Y-12495524D02*
X11228048Y-12514571D01*
X11228048Y-12514571D02*
X11237571Y-12552667D01*
X11237571Y-12552667D02*
X11237571Y-12600286D01*
X11237571Y-12600286D02*
X11228048Y-12638381D01*
X11228048Y-12638381D02*
X11218524Y-12657428D01*
X11218524Y-12657428D02*
X11209000Y-12666952D01*
X11209000Y-12666952D02*
X11189952Y-12676476D01*
X11189952Y-12676476D02*
X11170905Y-12676476D01*
X11170905Y-12676476D02*
X11151857Y-12666952D01*
X11151857Y-12666952D02*
X11142333Y-12657428D01*
X11142333Y-12657428D02*
X11132810Y-12638381D01*
X11132810Y-12638381D02*
X11123286Y-12600286D01*
X11123286Y-12600286D02*
X11123286Y-12552667D01*
X11123286Y-12552667D02*
X11132810Y-12514571D01*
X11132810Y-12514571D02*
X11142333Y-12495524D01*
X11142333Y-12495524D02*
X11151857Y-12486000D01*
X11151857Y-12486000D02*
X11170905Y-12476476D01*
X11361381Y-12476476D02*
X11380429Y-12476476D01*
X11380429Y-12476476D02*
X11399476Y-12486000D01*
X11399476Y-12486000D02*
X11409000Y-12495524D01*
X11409000Y-12495524D02*
X11418524Y-12514571D01*
X11418524Y-12514571D02*
X11428048Y-12552667D01*
X11428048Y-12552667D02*
X11428048Y-12600286D01*
X11428048Y-12600286D02*
X11418524Y-12638381D01*
X11418524Y-12638381D02*
X11409000Y-12657428D01*
X11409000Y-12657428D02*
X11399476Y-12666952D01*
X11399476Y-12666952D02*
X11380429Y-12676476D01*
X11380429Y-12676476D02*
X11361381Y-12676476D01*
X11361381Y-12676476D02*
X11342333Y-12666952D01*
X11342333Y-12666952D02*
X11332809Y-12657428D01*
X11332809Y-12657428D02*
X11323286Y-12638381D01*
X11323286Y-12638381D02*
X11313762Y-12600286D01*
X11313762Y-12600286D02*
X11313762Y-12552667D01*
X11313762Y-12552667D02*
X11323286Y-12514571D01*
X11323286Y-12514571D02*
X11332809Y-12495524D01*
X11332809Y-12495524D02*
X11342333Y-12486000D01*
X11342333Y-12486000D02*
X11361381Y-12476476D01*
X11513762Y-12676476D02*
X11513762Y-12543143D01*
X11513762Y-12562190D02*
X11523286Y-12552667D01*
X11523286Y-12552667D02*
X11542333Y-12543143D01*
X11542333Y-12543143D02*
X11570905Y-12543143D01*
X11570905Y-12543143D02*
X11589952Y-12552667D01*
X11589952Y-12552667D02*
X11599476Y-12571714D01*
X11599476Y-12571714D02*
X11599476Y-12676476D01*
X11599476Y-12571714D02*
X11609000Y-12552667D01*
X11609000Y-12552667D02*
X11628048Y-12543143D01*
X11628048Y-12543143D02*
X11656619Y-12543143D01*
X11656619Y-12543143D02*
X11675667Y-12552667D01*
X11675667Y-12552667D02*
X11685190Y-12571714D01*
X11685190Y-12571714D02*
X11685190Y-12676476D01*
X11780429Y-12676476D02*
X11780429Y-12543143D01*
X11780429Y-12562190D02*
X11789952Y-12552667D01*
X11789952Y-12552667D02*
X11809000Y-12543143D01*
X11809000Y-12543143D02*
X11837571Y-12543143D01*
X11837571Y-12543143D02*
X11856619Y-12552667D01*
X11856619Y-12552667D02*
X11866143Y-12571714D01*
X11866143Y-12571714D02*
X11866143Y-12676476D01*
X11866143Y-12571714D02*
X11875667Y-12552667D01*
X11875667Y-12552667D02*
X11894714Y-12543143D01*
X11894714Y-12543143D02*
X11923286Y-12543143D01*
X11923286Y-12543143D02*
X11942333Y-12552667D01*
X11942333Y-12552667D02*
X11951857Y-12571714D01*
X11951857Y-12571714D02*
X11951857Y-12676476D01*
X12309952Y-12466952D02*
X12138524Y-12724095D01*
X12534714Y-12476476D02*
X12553762Y-12476476D01*
X12553762Y-12476476D02*
X12572810Y-12486000D01*
X12572810Y-12486000D02*
X12582333Y-12495524D01*
X12582333Y-12495524D02*
X12591857Y-12514571D01*
X12591857Y-12514571D02*
X12601381Y-12552667D01*
X12601381Y-12552667D02*
X12601381Y-12600286D01*
X12601381Y-12600286D02*
X12591857Y-12638381D01*
X12591857Y-12638381D02*
X12582333Y-12657428D01*
X12582333Y-12657428D02*
X12572810Y-12666952D01*
X12572810Y-12666952D02*
X12553762Y-12676476D01*
X12553762Y-12676476D02*
X12534714Y-12676476D01*
X12534714Y-12676476D02*
X12515667Y-12666952D01*
X12515667Y-12666952D02*
X12506143Y-12657428D01*
X12506143Y-12657428D02*
X12496619Y-12638381D01*
X12496619Y-12638381D02*
X12487095Y-12600286D01*
X12487095Y-12600286D02*
X12487095Y-12552667D01*
X12487095Y-12552667D02*
X12496619Y-12514571D01*
X12496619Y-12514571D02*
X12506143Y-12495524D01*
X12506143Y-12495524D02*
X12515667Y-12486000D01*
X12515667Y-12486000D02*
X12534714Y-12476476D01*
X12687095Y-12657428D02*
X12696619Y-12666952D01*
X12696619Y-12666952D02*
X12687095Y-12676476D01*
X12687095Y-12676476D02*
X12677571Y-12666952D01*
X12677571Y-12666952D02*
X12687095Y-12657428D01*
X12687095Y-12657428D02*
X12687095Y-12676476D01*
X12820429Y-12476476D02*
X12839476Y-12476476D01*
X12839476Y-12476476D02*
X12858524Y-12486000D01*
X12858524Y-12486000D02*
X12868048Y-12495524D01*
X12868048Y-12495524D02*
X12877571Y-12514571D01*
X12877571Y-12514571D02*
X12887095Y-12552667D01*
X12887095Y-12552667D02*
X12887095Y-12600286D01*
X12887095Y-12600286D02*
X12877571Y-12638381D01*
X12877571Y-12638381D02*
X12868048Y-12657428D01*
X12868048Y-12657428D02*
X12858524Y-12666952D01*
X12858524Y-12666952D02*
X12839476Y-12676476D01*
X12839476Y-12676476D02*
X12820429Y-12676476D01*
X12820429Y-12676476D02*
X12801381Y-12666952D01*
X12801381Y-12666952D02*
X12791857Y-12657428D01*
X12791857Y-12657428D02*
X12782333Y-12638381D01*
X12782333Y-12638381D02*
X12772810Y-12600286D01*
X12772810Y-12600286D02*
X12772810Y-12552667D01*
X12772810Y-12552667D02*
X12782333Y-12514571D01*
X12782333Y-12514571D02*
X12791857Y-12495524D01*
X12791857Y-12495524D02*
X12801381Y-12486000D01*
X12801381Y-12486000D02*
X12820429Y-12476476D01*
X12953762Y-12476476D02*
X13077571Y-12476476D01*
X13077571Y-12476476D02*
X13010905Y-12552667D01*
X13010905Y-12552667D02*
X13039476Y-12552667D01*
X13039476Y-12552667D02*
X13058524Y-12562190D01*
X13058524Y-12562190D02*
X13068048Y-12571714D01*
X13068048Y-12571714D02*
X13077571Y-12590762D01*
X13077571Y-12590762D02*
X13077571Y-12638381D01*
X13077571Y-12638381D02*
X13068048Y-12657428D01*
X13068048Y-12657428D02*
X13058524Y-12666952D01*
X13058524Y-12666952D02*
X13039476Y-12676476D01*
X13039476Y-12676476D02*
X12982333Y-12676476D01*
X12982333Y-12676476D02*
X12963286Y-12666952D01*
X12963286Y-12666952D02*
X12953762Y-12657428D01*
X13268048Y-12676476D02*
X13153762Y-12676476D01*
X13210905Y-12676476D02*
X13210905Y-12476476D01*
X13210905Y-12476476D02*
X13191857Y-12505048D01*
X13191857Y-12505048D02*
X13172810Y-12524095D01*
X13172810Y-12524095D02*
X13153762Y-12533619D01*
X13449000Y-12476476D02*
X13353762Y-12476476D01*
X13353762Y-12476476D02*
X13344238Y-12571714D01*
X13344238Y-12571714D02*
X13353762Y-12562190D01*
X13353762Y-12562190D02*
X13372810Y-12552667D01*
X13372810Y-12552667D02*
X13420429Y-12552667D01*
X13420429Y-12552667D02*
X13439476Y-12562190D01*
X13439476Y-12562190D02*
X13449000Y-12571714D01*
X13449000Y-12571714D02*
X13458524Y-12590762D01*
X13458524Y-12590762D02*
X13458524Y-12638381D01*
X13458524Y-12638381D02*
X13449000Y-12657428D01*
X13449000Y-12657428D02*
X13439476Y-12666952D01*
X13439476Y-12666952D02*
X13420429Y-12676476D01*
X13420429Y-12676476D02*
X13372810Y-12676476D01*
X13372810Y-12676476D02*
X13353762Y-12666952D01*
X13353762Y-12666952D02*
X13344238Y-12657428D01*
X13534714Y-12476476D02*
X13534714Y-12514571D01*
X13610905Y-12476476D02*
X13610905Y-12514571D01*
X13873762Y-12752667D02*
X13864238Y-12743143D01*
X13864238Y-12743143D02*
X13845191Y-12714571D01*
X13845191Y-12714571D02*
X13835667Y-12695524D01*
X13835667Y-12695524D02*
X13826143Y-12666952D01*
X13826143Y-12666952D02*
X13816619Y-12619333D01*
X13816619Y-12619333D02*
X13816619Y-12581238D01*
X13816619Y-12581238D02*
X13826143Y-12533619D01*
X13826143Y-12533619D02*
X13835667Y-12505048D01*
X13835667Y-12505048D02*
X13845191Y-12486000D01*
X13845191Y-12486000D02*
X13864238Y-12457428D01*
X13864238Y-12457428D02*
X13873762Y-12447905D01*
X13959476Y-12676476D02*
X13997571Y-12676476D01*
X13997571Y-12676476D02*
X14016619Y-12666952D01*
X14016619Y-12666952D02*
X14026143Y-12657428D01*
X14026143Y-12657428D02*
X14045191Y-12628857D01*
X14045191Y-12628857D02*
X14054714Y-12590762D01*
X14054714Y-12590762D02*
X14054714Y-12514571D01*
X14054714Y-12514571D02*
X14045191Y-12495524D01*
X14045191Y-12495524D02*
X14035667Y-12486000D01*
X14035667Y-12486000D02*
X14016619Y-12476476D01*
X14016619Y-12476476D02*
X13978524Y-12476476D01*
X13978524Y-12476476D02*
X13959476Y-12486000D01*
X13959476Y-12486000D02*
X13949952Y-12495524D01*
X13949952Y-12495524D02*
X13940429Y-12514571D01*
X13940429Y-12514571D02*
X13940429Y-12562190D01*
X13940429Y-12562190D02*
X13949952Y-12581238D01*
X13949952Y-12581238D02*
X13959476Y-12590762D01*
X13959476Y-12590762D02*
X13978524Y-12600286D01*
X13978524Y-12600286D02*
X14016619Y-12600286D01*
X14016619Y-12600286D02*
X14035667Y-12590762D01*
X14035667Y-12590762D02*
X14045191Y-12581238D01*
X14045191Y-12581238D02*
X14054714Y-12562190D01*
X14121381Y-12476476D02*
X14245191Y-12476476D01*
X14245191Y-12476476D02*
X14178524Y-12552667D01*
X14178524Y-12552667D02*
X14207095Y-12552667D01*
X14207095Y-12552667D02*
X14226143Y-12562190D01*
X14226143Y-12562190D02*
X14235667Y-12571714D01*
X14235667Y-12571714D02*
X14245191Y-12590762D01*
X14245191Y-12590762D02*
X14245191Y-12638381D01*
X14245191Y-12638381D02*
X14235667Y-12657428D01*
X14235667Y-12657428D02*
X14226143Y-12666952D01*
X14226143Y-12666952D02*
X14207095Y-12676476D01*
X14207095Y-12676476D02*
X14149952Y-12676476D01*
X14149952Y-12676476D02*
X14130905Y-12666952D01*
X14130905Y-12666952D02*
X14121381Y-12657428D01*
X14450905Y-12676476D02*
X14450905Y-12476476D01*
X14536619Y-12676476D02*
X14536619Y-12571714D01*
X14536619Y-12571714D02*
X14527095Y-12552667D01*
X14527095Y-12552667D02*
X14508048Y-12543143D01*
X14508048Y-12543143D02*
X14479476Y-12543143D01*
X14479476Y-12543143D02*
X14460429Y-12552667D01*
X14460429Y-12552667D02*
X14450905Y-12562190D01*
X14660429Y-12676476D02*
X14641381Y-12666952D01*
X14641381Y-12666952D02*
X14631857Y-12657428D01*
X14631857Y-12657428D02*
X14622333Y-12638381D01*
X14622333Y-12638381D02*
X14622333Y-12581238D01*
X14622333Y-12581238D02*
X14631857Y-12562190D01*
X14631857Y-12562190D02*
X14641381Y-12552667D01*
X14641381Y-12552667D02*
X14660429Y-12543143D01*
X14660429Y-12543143D02*
X14689000Y-12543143D01*
X14689000Y-12543143D02*
X14708048Y-12552667D01*
X14708048Y-12552667D02*
X14717572Y-12562190D01*
X14717572Y-12562190D02*
X14727095Y-12581238D01*
X14727095Y-12581238D02*
X14727095Y-12638381D01*
X14727095Y-12638381D02*
X14717572Y-12657428D01*
X14717572Y-12657428D02*
X14708048Y-12666952D01*
X14708048Y-12666952D02*
X14689000Y-12676476D01*
X14689000Y-12676476D02*
X14660429Y-12676476D01*
X14841381Y-12676476D02*
X14822333Y-12666952D01*
X14822333Y-12666952D02*
X14812810Y-12647905D01*
X14812810Y-12647905D02*
X14812810Y-12476476D01*
X14993762Y-12666952D02*
X14974714Y-12676476D01*
X14974714Y-12676476D02*
X14936619Y-12676476D01*
X14936619Y-12676476D02*
X14917572Y-12666952D01*
X14917572Y-12666952D02*
X14908048Y-12647905D01*
X14908048Y-12647905D02*
X14908048Y-12571714D01*
X14908048Y-12571714D02*
X14917572Y-12552667D01*
X14917572Y-12552667D02*
X14936619Y-12543143D01*
X14936619Y-12543143D02*
X14974714Y-12543143D01*
X14974714Y-12543143D02*
X14993762Y-12552667D01*
X14993762Y-12552667D02*
X15003286Y-12571714D01*
X15003286Y-12571714D02*
X15003286Y-12590762D01*
X15003286Y-12590762D02*
X14908048Y-12609809D01*
X15079476Y-12666952D02*
X15098524Y-12676476D01*
X15098524Y-12676476D02*
X15136619Y-12676476D01*
X15136619Y-12676476D02*
X15155667Y-12666952D01*
X15155667Y-12666952D02*
X15165191Y-12647905D01*
X15165191Y-12647905D02*
X15165191Y-12638381D01*
X15165191Y-12638381D02*
X15155667Y-12619333D01*
X15155667Y-12619333D02*
X15136619Y-12609809D01*
X15136619Y-12609809D02*
X15108048Y-12609809D01*
X15108048Y-12609809D02*
X15089000Y-12600286D01*
X15089000Y-12600286D02*
X15079476Y-12581238D01*
X15079476Y-12581238D02*
X15079476Y-12571714D01*
X15079476Y-12571714D02*
X15089000Y-12552667D01*
X15089000Y-12552667D02*
X15108048Y-12543143D01*
X15108048Y-12543143D02*
X15136619Y-12543143D01*
X15136619Y-12543143D02*
X15155667Y-12552667D01*
X15231857Y-12752667D02*
X15241381Y-12743143D01*
X15241381Y-12743143D02*
X15260429Y-12714571D01*
X15260429Y-12714571D02*
X15269953Y-12695524D01*
X15269953Y-12695524D02*
X15279476Y-12666952D01*
X15279476Y-12666952D02*
X15289000Y-12619333D01*
X15289000Y-12619333D02*
X15289000Y-12581238D01*
X15289000Y-12581238D02*
X15279476Y-12533619D01*
X15279476Y-12533619D02*
X15269953Y-12505048D01*
X15269953Y-12505048D02*
X15260429Y-12486000D01*
X15260429Y-12486000D02*
X15241381Y-12457428D01*
X15241381Y-12457428D02*
X15231857Y-12447905D01*
D15*
X10395820Y-12898820D02*
X10395820Y-12835180D01*
X10332180Y-12835180D01*
X10332180Y-12898820D01*
X10395820Y-12898820D01*
D11*
X10694714Y-12740476D02*
X10713762Y-12740476D01*
X10713762Y-12740476D02*
X10732810Y-12750000D01*
X10732810Y-12750000D02*
X10742333Y-12759524D01*
X10742333Y-12759524D02*
X10751857Y-12778571D01*
X10751857Y-12778571D02*
X10761381Y-12816667D01*
X10761381Y-12816667D02*
X10761381Y-12864286D01*
X10761381Y-12864286D02*
X10751857Y-12902381D01*
X10751857Y-12902381D02*
X10742333Y-12921428D01*
X10742333Y-12921428D02*
X10732810Y-12930952D01*
X10732810Y-12930952D02*
X10713762Y-12940476D01*
X10713762Y-12940476D02*
X10694714Y-12940476D01*
X10694714Y-12940476D02*
X10675667Y-12930952D01*
X10675667Y-12930952D02*
X10666143Y-12921428D01*
X10666143Y-12921428D02*
X10656619Y-12902381D01*
X10656619Y-12902381D02*
X10647095Y-12864286D01*
X10647095Y-12864286D02*
X10647095Y-12816667D01*
X10647095Y-12816667D02*
X10656619Y-12778571D01*
X10656619Y-12778571D02*
X10666143Y-12759524D01*
X10666143Y-12759524D02*
X10675667Y-12750000D01*
X10675667Y-12750000D02*
X10694714Y-12740476D01*
X10847095Y-12921428D02*
X10856619Y-12930952D01*
X10856619Y-12930952D02*
X10847095Y-12940476D01*
X10847095Y-12940476D02*
X10837571Y-12930952D01*
X10837571Y-12930952D02*
X10847095Y-12921428D01*
X10847095Y-12921428D02*
X10847095Y-12940476D01*
X10951857Y-12940476D02*
X10989952Y-12940476D01*
X10989952Y-12940476D02*
X11009000Y-12930952D01*
X11009000Y-12930952D02*
X11018524Y-12921428D01*
X11018524Y-12921428D02*
X11037571Y-12892857D01*
X11037571Y-12892857D02*
X11047095Y-12854762D01*
X11047095Y-12854762D02*
X11047095Y-12778571D01*
X11047095Y-12778571D02*
X11037571Y-12759524D01*
X11037571Y-12759524D02*
X11028048Y-12750000D01*
X11028048Y-12750000D02*
X11009000Y-12740476D01*
X11009000Y-12740476D02*
X10970905Y-12740476D01*
X10970905Y-12740476D02*
X10951857Y-12750000D01*
X10951857Y-12750000D02*
X10942333Y-12759524D01*
X10942333Y-12759524D02*
X10932810Y-12778571D01*
X10932810Y-12778571D02*
X10932810Y-12826190D01*
X10932810Y-12826190D02*
X10942333Y-12845238D01*
X10942333Y-12845238D02*
X10951857Y-12854762D01*
X10951857Y-12854762D02*
X10970905Y-12864286D01*
X10970905Y-12864286D02*
X11009000Y-12864286D01*
X11009000Y-12864286D02*
X11028048Y-12854762D01*
X11028048Y-12854762D02*
X11037571Y-12845238D01*
X11037571Y-12845238D02*
X11047095Y-12826190D01*
X11170905Y-12740476D02*
X11189952Y-12740476D01*
X11189952Y-12740476D02*
X11209000Y-12750000D01*
X11209000Y-12750000D02*
X11218524Y-12759524D01*
X11218524Y-12759524D02*
X11228048Y-12778571D01*
X11228048Y-12778571D02*
X11237571Y-12816667D01*
X11237571Y-12816667D02*
X11237571Y-12864286D01*
X11237571Y-12864286D02*
X11228048Y-12902381D01*
X11228048Y-12902381D02*
X11218524Y-12921428D01*
X11218524Y-12921428D02*
X11209000Y-12930952D01*
X11209000Y-12930952D02*
X11189952Y-12940476D01*
X11189952Y-12940476D02*
X11170905Y-12940476D01*
X11170905Y-12940476D02*
X11151857Y-12930952D01*
X11151857Y-12930952D02*
X11142333Y-12921428D01*
X11142333Y-12921428D02*
X11132810Y-12902381D01*
X11132810Y-12902381D02*
X11123286Y-12864286D01*
X11123286Y-12864286D02*
X11123286Y-12816667D01*
X11123286Y-12816667D02*
X11132810Y-12778571D01*
X11132810Y-12778571D02*
X11142333Y-12759524D01*
X11142333Y-12759524D02*
X11151857Y-12750000D01*
X11151857Y-12750000D02*
X11170905Y-12740476D01*
X11361381Y-12740476D02*
X11380429Y-12740476D01*
X11380429Y-12740476D02*
X11399476Y-12750000D01*
X11399476Y-12750000D02*
X11409000Y-12759524D01*
X11409000Y-12759524D02*
X11418524Y-12778571D01*
X11418524Y-12778571D02*
X11428048Y-12816667D01*
X11428048Y-12816667D02*
X11428048Y-12864286D01*
X11428048Y-12864286D02*
X11418524Y-12902381D01*
X11418524Y-12902381D02*
X11409000Y-12921428D01*
X11409000Y-12921428D02*
X11399476Y-12930952D01*
X11399476Y-12930952D02*
X11380429Y-12940476D01*
X11380429Y-12940476D02*
X11361381Y-12940476D01*
X11361381Y-12940476D02*
X11342333Y-12930952D01*
X11342333Y-12930952D02*
X11332809Y-12921428D01*
X11332809Y-12921428D02*
X11323286Y-12902381D01*
X11323286Y-12902381D02*
X11313762Y-12864286D01*
X11313762Y-12864286D02*
X11313762Y-12816667D01*
X11313762Y-12816667D02*
X11323286Y-12778571D01*
X11323286Y-12778571D02*
X11332809Y-12759524D01*
X11332809Y-12759524D02*
X11342333Y-12750000D01*
X11342333Y-12750000D02*
X11361381Y-12740476D01*
X11513762Y-12940476D02*
X11513762Y-12807143D01*
X11513762Y-12826190D02*
X11523286Y-12816667D01*
X11523286Y-12816667D02*
X11542333Y-12807143D01*
X11542333Y-12807143D02*
X11570905Y-12807143D01*
X11570905Y-12807143D02*
X11589952Y-12816667D01*
X11589952Y-12816667D02*
X11599476Y-12835714D01*
X11599476Y-12835714D02*
X11599476Y-12940476D01*
X11599476Y-12835714D02*
X11609000Y-12816667D01*
X11609000Y-12816667D02*
X11628048Y-12807143D01*
X11628048Y-12807143D02*
X11656619Y-12807143D01*
X11656619Y-12807143D02*
X11675667Y-12816667D01*
X11675667Y-12816667D02*
X11685190Y-12835714D01*
X11685190Y-12835714D02*
X11685190Y-12940476D01*
X11780429Y-12940476D02*
X11780429Y-12807143D01*
X11780429Y-12826190D02*
X11789952Y-12816667D01*
X11789952Y-12816667D02*
X11809000Y-12807143D01*
X11809000Y-12807143D02*
X11837571Y-12807143D01*
X11837571Y-12807143D02*
X11856619Y-12816667D01*
X11856619Y-12816667D02*
X11866143Y-12835714D01*
X11866143Y-12835714D02*
X11866143Y-12940476D01*
X11866143Y-12835714D02*
X11875667Y-12816667D01*
X11875667Y-12816667D02*
X11894714Y-12807143D01*
X11894714Y-12807143D02*
X11923286Y-12807143D01*
X11923286Y-12807143D02*
X11942333Y-12816667D01*
X11942333Y-12816667D02*
X11951857Y-12835714D01*
X11951857Y-12835714D02*
X11951857Y-12940476D01*
X12309952Y-12730952D02*
X12138524Y-12988095D01*
X12534714Y-12740476D02*
X12553762Y-12740476D01*
X12553762Y-12740476D02*
X12572810Y-12750000D01*
X12572810Y-12750000D02*
X12582333Y-12759524D01*
X12582333Y-12759524D02*
X12591857Y-12778571D01*
X12591857Y-12778571D02*
X12601381Y-12816667D01*
X12601381Y-12816667D02*
X12601381Y-12864286D01*
X12601381Y-12864286D02*
X12591857Y-12902381D01*
X12591857Y-12902381D02*
X12582333Y-12921428D01*
X12582333Y-12921428D02*
X12572810Y-12930952D01*
X12572810Y-12930952D02*
X12553762Y-12940476D01*
X12553762Y-12940476D02*
X12534714Y-12940476D01*
X12534714Y-12940476D02*
X12515667Y-12930952D01*
X12515667Y-12930952D02*
X12506143Y-12921428D01*
X12506143Y-12921428D02*
X12496619Y-12902381D01*
X12496619Y-12902381D02*
X12487095Y-12864286D01*
X12487095Y-12864286D02*
X12487095Y-12816667D01*
X12487095Y-12816667D02*
X12496619Y-12778571D01*
X12496619Y-12778571D02*
X12506143Y-12759524D01*
X12506143Y-12759524D02*
X12515667Y-12750000D01*
X12515667Y-12750000D02*
X12534714Y-12740476D01*
X12687095Y-12921428D02*
X12696619Y-12930952D01*
X12696619Y-12930952D02*
X12687095Y-12940476D01*
X12687095Y-12940476D02*
X12677571Y-12930952D01*
X12677571Y-12930952D02*
X12687095Y-12921428D01*
X12687095Y-12921428D02*
X12687095Y-12940476D01*
X12820429Y-12740476D02*
X12839476Y-12740476D01*
X12839476Y-12740476D02*
X12858524Y-12750000D01*
X12858524Y-12750000D02*
X12868048Y-12759524D01*
X12868048Y-12759524D02*
X12877571Y-12778571D01*
X12877571Y-12778571D02*
X12887095Y-12816667D01*
X12887095Y-12816667D02*
X12887095Y-12864286D01*
X12887095Y-12864286D02*
X12877571Y-12902381D01*
X12877571Y-12902381D02*
X12868048Y-12921428D01*
X12868048Y-12921428D02*
X12858524Y-12930952D01*
X12858524Y-12930952D02*
X12839476Y-12940476D01*
X12839476Y-12940476D02*
X12820429Y-12940476D01*
X12820429Y-12940476D02*
X12801381Y-12930952D01*
X12801381Y-12930952D02*
X12791857Y-12921428D01*
X12791857Y-12921428D02*
X12782333Y-12902381D01*
X12782333Y-12902381D02*
X12772810Y-12864286D01*
X12772810Y-12864286D02*
X12772810Y-12816667D01*
X12772810Y-12816667D02*
X12782333Y-12778571D01*
X12782333Y-12778571D02*
X12791857Y-12759524D01*
X12791857Y-12759524D02*
X12801381Y-12750000D01*
X12801381Y-12750000D02*
X12820429Y-12740476D01*
X12953762Y-12740476D02*
X13077571Y-12740476D01*
X13077571Y-12740476D02*
X13010905Y-12816667D01*
X13010905Y-12816667D02*
X13039476Y-12816667D01*
X13039476Y-12816667D02*
X13058524Y-12826190D01*
X13058524Y-12826190D02*
X13068048Y-12835714D01*
X13068048Y-12835714D02*
X13077571Y-12854762D01*
X13077571Y-12854762D02*
X13077571Y-12902381D01*
X13077571Y-12902381D02*
X13068048Y-12921428D01*
X13068048Y-12921428D02*
X13058524Y-12930952D01*
X13058524Y-12930952D02*
X13039476Y-12940476D01*
X13039476Y-12940476D02*
X12982333Y-12940476D01*
X12982333Y-12940476D02*
X12963286Y-12930952D01*
X12963286Y-12930952D02*
X12953762Y-12921428D01*
X13258524Y-12740476D02*
X13163286Y-12740476D01*
X13163286Y-12740476D02*
X13153762Y-12835714D01*
X13153762Y-12835714D02*
X13163286Y-12826190D01*
X13163286Y-12826190D02*
X13182333Y-12816667D01*
X13182333Y-12816667D02*
X13229952Y-12816667D01*
X13229952Y-12816667D02*
X13249000Y-12826190D01*
X13249000Y-12826190D02*
X13258524Y-12835714D01*
X13258524Y-12835714D02*
X13268048Y-12854762D01*
X13268048Y-12854762D02*
X13268048Y-12902381D01*
X13268048Y-12902381D02*
X13258524Y-12921428D01*
X13258524Y-12921428D02*
X13249000Y-12930952D01*
X13249000Y-12930952D02*
X13229952Y-12940476D01*
X13229952Y-12940476D02*
X13182333Y-12940476D01*
X13182333Y-12940476D02*
X13163286Y-12930952D01*
X13163286Y-12930952D02*
X13153762Y-12921428D01*
X13439476Y-12807143D02*
X13439476Y-12940476D01*
X13391857Y-12730952D02*
X13344238Y-12873809D01*
X13344238Y-12873809D02*
X13468048Y-12873809D01*
X13534714Y-12740476D02*
X13534714Y-12778571D01*
X13610905Y-12740476D02*
X13610905Y-12778571D01*
X13873762Y-13016667D02*
X13864238Y-13007143D01*
X13864238Y-13007143D02*
X13845191Y-12978571D01*
X13845191Y-12978571D02*
X13835667Y-12959524D01*
X13835667Y-12959524D02*
X13826143Y-12930952D01*
X13826143Y-12930952D02*
X13816619Y-12883333D01*
X13816619Y-12883333D02*
X13816619Y-12845238D01*
X13816619Y-12845238D02*
X13826143Y-12797619D01*
X13826143Y-12797619D02*
X13835667Y-12769048D01*
X13835667Y-12769048D02*
X13845191Y-12750000D01*
X13845191Y-12750000D02*
X13864238Y-12721428D01*
X13864238Y-12721428D02*
X13873762Y-12711905D01*
X13940429Y-12759524D02*
X13949952Y-12750000D01*
X13949952Y-12750000D02*
X13969000Y-12740476D01*
X13969000Y-12740476D02*
X14016619Y-12740476D01*
X14016619Y-12740476D02*
X14035667Y-12750000D01*
X14035667Y-12750000D02*
X14045191Y-12759524D01*
X14045191Y-12759524D02*
X14054714Y-12778571D01*
X14054714Y-12778571D02*
X14054714Y-12797619D01*
X14054714Y-12797619D02*
X14045191Y-12826190D01*
X14045191Y-12826190D02*
X13930905Y-12940476D01*
X13930905Y-12940476D02*
X14054714Y-12940476D01*
X14260429Y-12940476D02*
X14260429Y-12740476D01*
X14346143Y-12940476D02*
X14346143Y-12835714D01*
X14346143Y-12835714D02*
X14336619Y-12816667D01*
X14336619Y-12816667D02*
X14317572Y-12807143D01*
X14317572Y-12807143D02*
X14289000Y-12807143D01*
X14289000Y-12807143D02*
X14269952Y-12816667D01*
X14269952Y-12816667D02*
X14260429Y-12826190D01*
X14469952Y-12940476D02*
X14450905Y-12930952D01*
X14450905Y-12930952D02*
X14441381Y-12921428D01*
X14441381Y-12921428D02*
X14431857Y-12902381D01*
X14431857Y-12902381D02*
X14431857Y-12845238D01*
X14431857Y-12845238D02*
X14441381Y-12826190D01*
X14441381Y-12826190D02*
X14450905Y-12816667D01*
X14450905Y-12816667D02*
X14469952Y-12807143D01*
X14469952Y-12807143D02*
X14498524Y-12807143D01*
X14498524Y-12807143D02*
X14517572Y-12816667D01*
X14517572Y-12816667D02*
X14527095Y-12826190D01*
X14527095Y-12826190D02*
X14536619Y-12845238D01*
X14536619Y-12845238D02*
X14536619Y-12902381D01*
X14536619Y-12902381D02*
X14527095Y-12921428D01*
X14527095Y-12921428D02*
X14517572Y-12930952D01*
X14517572Y-12930952D02*
X14498524Y-12940476D01*
X14498524Y-12940476D02*
X14469952Y-12940476D01*
X14650905Y-12940476D02*
X14631857Y-12930952D01*
X14631857Y-12930952D02*
X14622333Y-12911905D01*
X14622333Y-12911905D02*
X14622333Y-12740476D01*
X14803286Y-12930952D02*
X14784238Y-12940476D01*
X14784238Y-12940476D02*
X14746143Y-12940476D01*
X14746143Y-12940476D02*
X14727095Y-12930952D01*
X14727095Y-12930952D02*
X14717572Y-12911905D01*
X14717572Y-12911905D02*
X14717572Y-12835714D01*
X14717572Y-12835714D02*
X14727095Y-12816667D01*
X14727095Y-12816667D02*
X14746143Y-12807143D01*
X14746143Y-12807143D02*
X14784238Y-12807143D01*
X14784238Y-12807143D02*
X14803286Y-12816667D01*
X14803286Y-12816667D02*
X14812810Y-12835714D01*
X14812810Y-12835714D02*
X14812810Y-12854762D01*
X14812810Y-12854762D02*
X14717572Y-12873809D01*
X14889000Y-12930952D02*
X14908048Y-12940476D01*
X14908048Y-12940476D02*
X14946143Y-12940476D01*
X14946143Y-12940476D02*
X14965191Y-12930952D01*
X14965191Y-12930952D02*
X14974714Y-12911905D01*
X14974714Y-12911905D02*
X14974714Y-12902381D01*
X14974714Y-12902381D02*
X14965191Y-12883333D01*
X14965191Y-12883333D02*
X14946143Y-12873809D01*
X14946143Y-12873809D02*
X14917572Y-12873809D01*
X14917572Y-12873809D02*
X14898524Y-12864286D01*
X14898524Y-12864286D02*
X14889000Y-12845238D01*
X14889000Y-12845238D02*
X14889000Y-12835714D01*
X14889000Y-12835714D02*
X14898524Y-12816667D01*
X14898524Y-12816667D02*
X14917572Y-12807143D01*
X14917572Y-12807143D02*
X14946143Y-12807143D01*
X14946143Y-12807143D02*
X14965191Y-12816667D01*
X15041381Y-13016667D02*
X15050905Y-13007143D01*
X15050905Y-13007143D02*
X15069953Y-12978571D01*
X15069953Y-12978571D02*
X15079476Y-12959524D01*
X15079476Y-12959524D02*
X15089000Y-12930952D01*
X15089000Y-12930952D02*
X15098524Y-12883333D01*
X15098524Y-12883333D02*
X15098524Y-12845238D01*
X15098524Y-12845238D02*
X15089000Y-12797619D01*
X15089000Y-12797619D02*
X15079476Y-12769048D01*
X15079476Y-12769048D02*
X15069953Y-12750000D01*
X15069953Y-12750000D02*
X15050905Y-12721428D01*
X15050905Y-12721428D02*
X15041381Y-12711905D01*
D10*
X10359000Y-13181000D02*
X10409000Y-13131000D01*
X10359000Y-13081000D01*
X10309000Y-13131000D01*
X10359000Y-13181000D01*
D11*
X10761381Y-13204476D02*
X10647095Y-13204476D01*
X10704238Y-13204476D02*
X10704238Y-13004476D01*
X10704238Y-13004476D02*
X10685190Y-13033048D01*
X10685190Y-13033048D02*
X10666143Y-13052095D01*
X10666143Y-13052095D02*
X10647095Y-13061619D01*
X10847095Y-13185428D02*
X10856619Y-13194952D01*
X10856619Y-13194952D02*
X10847095Y-13204476D01*
X10847095Y-13204476D02*
X10837571Y-13194952D01*
X10837571Y-13194952D02*
X10847095Y-13185428D01*
X10847095Y-13185428D02*
X10847095Y-13204476D01*
X10980429Y-13004476D02*
X10999476Y-13004476D01*
X10999476Y-13004476D02*
X11018524Y-13014000D01*
X11018524Y-13014000D02*
X11028048Y-13023524D01*
X11028048Y-13023524D02*
X11037571Y-13042571D01*
X11037571Y-13042571D02*
X11047095Y-13080667D01*
X11047095Y-13080667D02*
X11047095Y-13128286D01*
X11047095Y-13128286D02*
X11037571Y-13166381D01*
X11037571Y-13166381D02*
X11028048Y-13185428D01*
X11028048Y-13185428D02*
X11018524Y-13194952D01*
X11018524Y-13194952D02*
X10999476Y-13204476D01*
X10999476Y-13204476D02*
X10980429Y-13204476D01*
X10980429Y-13204476D02*
X10961381Y-13194952D01*
X10961381Y-13194952D02*
X10951857Y-13185428D01*
X10951857Y-13185428D02*
X10942333Y-13166381D01*
X10942333Y-13166381D02*
X10932810Y-13128286D01*
X10932810Y-13128286D02*
X10932810Y-13080667D01*
X10932810Y-13080667D02*
X10942333Y-13042571D01*
X10942333Y-13042571D02*
X10951857Y-13023524D01*
X10951857Y-13023524D02*
X10961381Y-13014000D01*
X10961381Y-13014000D02*
X10980429Y-13004476D01*
X11170905Y-13004476D02*
X11189952Y-13004476D01*
X11189952Y-13004476D02*
X11209000Y-13014000D01*
X11209000Y-13014000D02*
X11218524Y-13023524D01*
X11218524Y-13023524D02*
X11228048Y-13042571D01*
X11228048Y-13042571D02*
X11237571Y-13080667D01*
X11237571Y-13080667D02*
X11237571Y-13128286D01*
X11237571Y-13128286D02*
X11228048Y-13166381D01*
X11228048Y-13166381D02*
X11218524Y-13185428D01*
X11218524Y-13185428D02*
X11209000Y-13194952D01*
X11209000Y-13194952D02*
X11189952Y-13204476D01*
X11189952Y-13204476D02*
X11170905Y-13204476D01*
X11170905Y-13204476D02*
X11151857Y-13194952D01*
X11151857Y-13194952D02*
X11142333Y-13185428D01*
X11142333Y-13185428D02*
X11132810Y-13166381D01*
X11132810Y-13166381D02*
X11123286Y-13128286D01*
X11123286Y-13128286D02*
X11123286Y-13080667D01*
X11123286Y-13080667D02*
X11132810Y-13042571D01*
X11132810Y-13042571D02*
X11142333Y-13023524D01*
X11142333Y-13023524D02*
X11151857Y-13014000D01*
X11151857Y-13014000D02*
X11170905Y-13004476D01*
X11361381Y-13004476D02*
X11380429Y-13004476D01*
X11380429Y-13004476D02*
X11399476Y-13014000D01*
X11399476Y-13014000D02*
X11409000Y-13023524D01*
X11409000Y-13023524D02*
X11418524Y-13042571D01*
X11418524Y-13042571D02*
X11428048Y-13080667D01*
X11428048Y-13080667D02*
X11428048Y-13128286D01*
X11428048Y-13128286D02*
X11418524Y-13166381D01*
X11418524Y-13166381D02*
X11409000Y-13185428D01*
X11409000Y-13185428D02*
X11399476Y-13194952D01*
X11399476Y-13194952D02*
X11380429Y-13204476D01*
X11380429Y-13204476D02*
X11361381Y-13204476D01*
X11361381Y-13204476D02*
X11342333Y-13194952D01*
X11342333Y-13194952D02*
X11332809Y-13185428D01*
X11332809Y-13185428D02*
X11323286Y-13166381D01*
X11323286Y-13166381D02*
X11313762Y-13128286D01*
X11313762Y-13128286D02*
X11313762Y-13080667D01*
X11313762Y-13080667D02*
X11323286Y-13042571D01*
X11323286Y-13042571D02*
X11332809Y-13023524D01*
X11332809Y-13023524D02*
X11342333Y-13014000D01*
X11342333Y-13014000D02*
X11361381Y-13004476D01*
X11513762Y-13204476D02*
X11513762Y-13071143D01*
X11513762Y-13090190D02*
X11523286Y-13080667D01*
X11523286Y-13080667D02*
X11542333Y-13071143D01*
X11542333Y-13071143D02*
X11570905Y-13071143D01*
X11570905Y-13071143D02*
X11589952Y-13080667D01*
X11589952Y-13080667D02*
X11599476Y-13099714D01*
X11599476Y-13099714D02*
X11599476Y-13204476D01*
X11599476Y-13099714D02*
X11609000Y-13080667D01*
X11609000Y-13080667D02*
X11628048Y-13071143D01*
X11628048Y-13071143D02*
X11656619Y-13071143D01*
X11656619Y-13071143D02*
X11675667Y-13080667D01*
X11675667Y-13080667D02*
X11685190Y-13099714D01*
X11685190Y-13099714D02*
X11685190Y-13204476D01*
X11780429Y-13204476D02*
X11780429Y-13071143D01*
X11780429Y-13090190D02*
X11789952Y-13080667D01*
X11789952Y-13080667D02*
X11809000Y-13071143D01*
X11809000Y-13071143D02*
X11837571Y-13071143D01*
X11837571Y-13071143D02*
X11856619Y-13080667D01*
X11856619Y-13080667D02*
X11866143Y-13099714D01*
X11866143Y-13099714D02*
X11866143Y-13204476D01*
X11866143Y-13099714D02*
X11875667Y-13080667D01*
X11875667Y-13080667D02*
X11894714Y-13071143D01*
X11894714Y-13071143D02*
X11923286Y-13071143D01*
X11923286Y-13071143D02*
X11942333Y-13080667D01*
X11942333Y-13080667D02*
X11951857Y-13099714D01*
X11951857Y-13099714D02*
X11951857Y-13204476D01*
X12309952Y-12994952D02*
X12138524Y-13252095D01*
X12534714Y-13004476D02*
X12553762Y-13004476D01*
X12553762Y-13004476D02*
X12572810Y-13014000D01*
X12572810Y-13014000D02*
X12582333Y-13023524D01*
X12582333Y-13023524D02*
X12591857Y-13042571D01*
X12591857Y-13042571D02*
X12601381Y-13080667D01*
X12601381Y-13080667D02*
X12601381Y-13128286D01*
X12601381Y-13128286D02*
X12591857Y-13166381D01*
X12591857Y-13166381D02*
X12582333Y-13185428D01*
X12582333Y-13185428D02*
X12572810Y-13194952D01*
X12572810Y-13194952D02*
X12553762Y-13204476D01*
X12553762Y-13204476D02*
X12534714Y-13204476D01*
X12534714Y-13204476D02*
X12515667Y-13194952D01*
X12515667Y-13194952D02*
X12506143Y-13185428D01*
X12506143Y-13185428D02*
X12496619Y-13166381D01*
X12496619Y-13166381D02*
X12487095Y-13128286D01*
X12487095Y-13128286D02*
X12487095Y-13080667D01*
X12487095Y-13080667D02*
X12496619Y-13042571D01*
X12496619Y-13042571D02*
X12506143Y-13023524D01*
X12506143Y-13023524D02*
X12515667Y-13014000D01*
X12515667Y-13014000D02*
X12534714Y-13004476D01*
X12687095Y-13185428D02*
X12696619Y-13194952D01*
X12696619Y-13194952D02*
X12687095Y-13204476D01*
X12687095Y-13204476D02*
X12677571Y-13194952D01*
X12677571Y-13194952D02*
X12687095Y-13185428D01*
X12687095Y-13185428D02*
X12687095Y-13204476D01*
X12820429Y-13004476D02*
X12839476Y-13004476D01*
X12839476Y-13004476D02*
X12858524Y-13014000D01*
X12858524Y-13014000D02*
X12868048Y-13023524D01*
X12868048Y-13023524D02*
X12877571Y-13042571D01*
X12877571Y-13042571D02*
X12887095Y-13080667D01*
X12887095Y-13080667D02*
X12887095Y-13128286D01*
X12887095Y-13128286D02*
X12877571Y-13166381D01*
X12877571Y-13166381D02*
X12868048Y-13185428D01*
X12868048Y-13185428D02*
X12858524Y-13194952D01*
X12858524Y-13194952D02*
X12839476Y-13204476D01*
X12839476Y-13204476D02*
X12820429Y-13204476D01*
X12820429Y-13204476D02*
X12801381Y-13194952D01*
X12801381Y-13194952D02*
X12791857Y-13185428D01*
X12791857Y-13185428D02*
X12782333Y-13166381D01*
X12782333Y-13166381D02*
X12772810Y-13128286D01*
X12772810Y-13128286D02*
X12772810Y-13080667D01*
X12772810Y-13080667D02*
X12782333Y-13042571D01*
X12782333Y-13042571D02*
X12791857Y-13023524D01*
X12791857Y-13023524D02*
X12801381Y-13014000D01*
X12801381Y-13014000D02*
X12820429Y-13004476D01*
X12953762Y-13004476D02*
X13077571Y-13004476D01*
X13077571Y-13004476D02*
X13010905Y-13080667D01*
X13010905Y-13080667D02*
X13039476Y-13080667D01*
X13039476Y-13080667D02*
X13058524Y-13090190D01*
X13058524Y-13090190D02*
X13068048Y-13099714D01*
X13068048Y-13099714D02*
X13077571Y-13118762D01*
X13077571Y-13118762D02*
X13077571Y-13166381D01*
X13077571Y-13166381D02*
X13068048Y-13185428D01*
X13068048Y-13185428D02*
X13058524Y-13194952D01*
X13058524Y-13194952D02*
X13039476Y-13204476D01*
X13039476Y-13204476D02*
X12982333Y-13204476D01*
X12982333Y-13204476D02*
X12963286Y-13194952D01*
X12963286Y-13194952D02*
X12953762Y-13185428D01*
X13172810Y-13204476D02*
X13210905Y-13204476D01*
X13210905Y-13204476D02*
X13229952Y-13194952D01*
X13229952Y-13194952D02*
X13239476Y-13185428D01*
X13239476Y-13185428D02*
X13258524Y-13156857D01*
X13258524Y-13156857D02*
X13268048Y-13118762D01*
X13268048Y-13118762D02*
X13268048Y-13042571D01*
X13268048Y-13042571D02*
X13258524Y-13023524D01*
X13258524Y-13023524D02*
X13249000Y-13014000D01*
X13249000Y-13014000D02*
X13229952Y-13004476D01*
X13229952Y-13004476D02*
X13191857Y-13004476D01*
X13191857Y-13004476D02*
X13172810Y-13014000D01*
X13172810Y-13014000D02*
X13163286Y-13023524D01*
X13163286Y-13023524D02*
X13153762Y-13042571D01*
X13153762Y-13042571D02*
X13153762Y-13090190D01*
X13153762Y-13090190D02*
X13163286Y-13109238D01*
X13163286Y-13109238D02*
X13172810Y-13118762D01*
X13172810Y-13118762D02*
X13191857Y-13128286D01*
X13191857Y-13128286D02*
X13229952Y-13128286D01*
X13229952Y-13128286D02*
X13249000Y-13118762D01*
X13249000Y-13118762D02*
X13258524Y-13109238D01*
X13258524Y-13109238D02*
X13268048Y-13090190D01*
X13439476Y-13071143D02*
X13439476Y-13204476D01*
X13391857Y-12994952D02*
X13344238Y-13137809D01*
X13344238Y-13137809D02*
X13468048Y-13137809D01*
X13534714Y-13004476D02*
X13534714Y-13042571D01*
X13610905Y-13004476D02*
X13610905Y-13042571D01*
X13873762Y-13280667D02*
X13864238Y-13271143D01*
X13864238Y-13271143D02*
X13845191Y-13242571D01*
X13845191Y-13242571D02*
X13835667Y-13223524D01*
X13835667Y-13223524D02*
X13826143Y-13194952D01*
X13826143Y-13194952D02*
X13816619Y-13147333D01*
X13816619Y-13147333D02*
X13816619Y-13109238D01*
X13816619Y-13109238D02*
X13826143Y-13061619D01*
X13826143Y-13061619D02*
X13835667Y-13033048D01*
X13835667Y-13033048D02*
X13845191Y-13014000D01*
X13845191Y-13014000D02*
X13864238Y-12985428D01*
X13864238Y-12985428D02*
X13873762Y-12975905D01*
X13978524Y-13090190D02*
X13959476Y-13080667D01*
X13959476Y-13080667D02*
X13949952Y-13071143D01*
X13949952Y-13071143D02*
X13940429Y-13052095D01*
X13940429Y-13052095D02*
X13940429Y-13042571D01*
X13940429Y-13042571D02*
X13949952Y-13023524D01*
X13949952Y-13023524D02*
X13959476Y-13014000D01*
X13959476Y-13014000D02*
X13978524Y-13004476D01*
X13978524Y-13004476D02*
X14016619Y-13004476D01*
X14016619Y-13004476D02*
X14035667Y-13014000D01*
X14035667Y-13014000D02*
X14045191Y-13023524D01*
X14045191Y-13023524D02*
X14054714Y-13042571D01*
X14054714Y-13042571D02*
X14054714Y-13052095D01*
X14054714Y-13052095D02*
X14045191Y-13071143D01*
X14045191Y-13071143D02*
X14035667Y-13080667D01*
X14035667Y-13080667D02*
X14016619Y-13090190D01*
X14016619Y-13090190D02*
X13978524Y-13090190D01*
X13978524Y-13090190D02*
X13959476Y-13099714D01*
X13959476Y-13099714D02*
X13949952Y-13109238D01*
X13949952Y-13109238D02*
X13940429Y-13128286D01*
X13940429Y-13128286D02*
X13940429Y-13166381D01*
X13940429Y-13166381D02*
X13949952Y-13185428D01*
X13949952Y-13185428D02*
X13959476Y-13194952D01*
X13959476Y-13194952D02*
X13978524Y-13204476D01*
X13978524Y-13204476D02*
X14016619Y-13204476D01*
X14016619Y-13204476D02*
X14035667Y-13194952D01*
X14035667Y-13194952D02*
X14045191Y-13185428D01*
X14045191Y-13185428D02*
X14054714Y-13166381D01*
X14054714Y-13166381D02*
X14054714Y-13128286D01*
X14054714Y-13128286D02*
X14045191Y-13109238D01*
X14045191Y-13109238D02*
X14035667Y-13099714D01*
X14035667Y-13099714D02*
X14016619Y-13090190D01*
X14260429Y-13204476D02*
X14260429Y-13004476D01*
X14346143Y-13204476D02*
X14346143Y-13099714D01*
X14346143Y-13099714D02*
X14336619Y-13080667D01*
X14336619Y-13080667D02*
X14317572Y-13071143D01*
X14317572Y-13071143D02*
X14289000Y-13071143D01*
X14289000Y-13071143D02*
X14269952Y-13080667D01*
X14269952Y-13080667D02*
X14260429Y-13090190D01*
X14469952Y-13204476D02*
X14450905Y-13194952D01*
X14450905Y-13194952D02*
X14441381Y-13185428D01*
X14441381Y-13185428D02*
X14431857Y-13166381D01*
X14431857Y-13166381D02*
X14431857Y-13109238D01*
X14431857Y-13109238D02*
X14441381Y-13090190D01*
X14441381Y-13090190D02*
X14450905Y-13080667D01*
X14450905Y-13080667D02*
X14469952Y-13071143D01*
X14469952Y-13071143D02*
X14498524Y-13071143D01*
X14498524Y-13071143D02*
X14517572Y-13080667D01*
X14517572Y-13080667D02*
X14527095Y-13090190D01*
X14527095Y-13090190D02*
X14536619Y-13109238D01*
X14536619Y-13109238D02*
X14536619Y-13166381D01*
X14536619Y-13166381D02*
X14527095Y-13185428D01*
X14527095Y-13185428D02*
X14517572Y-13194952D01*
X14517572Y-13194952D02*
X14498524Y-13204476D01*
X14498524Y-13204476D02*
X14469952Y-13204476D01*
X14650905Y-13204476D02*
X14631857Y-13194952D01*
X14631857Y-13194952D02*
X14622333Y-13175905D01*
X14622333Y-13175905D02*
X14622333Y-13004476D01*
X14803286Y-13194952D02*
X14784238Y-13204476D01*
X14784238Y-13204476D02*
X14746143Y-13204476D01*
X14746143Y-13204476D02*
X14727095Y-13194952D01*
X14727095Y-13194952D02*
X14717572Y-13175905D01*
X14717572Y-13175905D02*
X14717572Y-13099714D01*
X14717572Y-13099714D02*
X14727095Y-13080667D01*
X14727095Y-13080667D02*
X14746143Y-13071143D01*
X14746143Y-13071143D02*
X14784238Y-13071143D01*
X14784238Y-13071143D02*
X14803286Y-13080667D01*
X14803286Y-13080667D02*
X14812810Y-13099714D01*
X14812810Y-13099714D02*
X14812810Y-13118762D01*
X14812810Y-13118762D02*
X14717572Y-13137809D01*
X14889000Y-13194952D02*
X14908048Y-13204476D01*
X14908048Y-13204476D02*
X14946143Y-13204476D01*
X14946143Y-13204476D02*
X14965191Y-13194952D01*
X14965191Y-13194952D02*
X14974714Y-13175905D01*
X14974714Y-13175905D02*
X14974714Y-13166381D01*
X14974714Y-13166381D02*
X14965191Y-13147333D01*
X14965191Y-13147333D02*
X14946143Y-13137809D01*
X14946143Y-13137809D02*
X14917572Y-13137809D01*
X14917572Y-13137809D02*
X14898524Y-13128286D01*
X14898524Y-13128286D02*
X14889000Y-13109238D01*
X14889000Y-13109238D02*
X14889000Y-13099714D01*
X14889000Y-13099714D02*
X14898524Y-13080667D01*
X14898524Y-13080667D02*
X14917572Y-13071143D01*
X14917572Y-13071143D02*
X14946143Y-13071143D01*
X14946143Y-13071143D02*
X14965191Y-13080667D01*
X15041381Y-13280667D02*
X15050905Y-13271143D01*
X15050905Y-13271143D02*
X15069953Y-13242571D01*
X15069953Y-13242571D02*
X15079476Y-13223524D01*
X15079476Y-13223524D02*
X15089000Y-13194952D01*
X15089000Y-13194952D02*
X15098524Y-13147333D01*
X15098524Y-13147333D02*
X15098524Y-13109238D01*
X15098524Y-13109238D02*
X15089000Y-13061619D01*
X15089000Y-13061619D02*
X15079476Y-13033048D01*
X15079476Y-13033048D02*
X15069953Y-13014000D01*
X15069953Y-13014000D02*
X15050905Y-12985428D01*
X15050905Y-12985428D02*
X15041381Y-12975905D01*
D16*
X10299000Y-13340000D02*
X10409000Y-13450000D01*
X10409000Y-13340000D02*
X10299000Y-13450000D01*
X10409000Y-13395000D02*
G75*
G03*
X10409000Y-13395000I-55000J0D01*
G01*
D11*
X10761381Y-13468476D02*
X10647095Y-13468476D01*
X10704238Y-13468476D02*
X10704238Y-13268476D01*
X10704238Y-13268476D02*
X10685190Y-13297048D01*
X10685190Y-13297048D02*
X10666143Y-13316095D01*
X10666143Y-13316095D02*
X10647095Y-13325619D01*
X10847095Y-13449428D02*
X10856619Y-13458952D01*
X10856619Y-13458952D02*
X10847095Y-13468476D01*
X10847095Y-13468476D02*
X10837571Y-13458952D01*
X10837571Y-13458952D02*
X10847095Y-13449428D01*
X10847095Y-13449428D02*
X10847095Y-13468476D01*
X11047095Y-13468476D02*
X10932810Y-13468476D01*
X10989952Y-13468476D02*
X10989952Y-13268476D01*
X10989952Y-13268476D02*
X10970905Y-13297048D01*
X10970905Y-13297048D02*
X10951857Y-13316095D01*
X10951857Y-13316095D02*
X10932810Y-13325619D01*
X11170905Y-13268476D02*
X11189952Y-13268476D01*
X11189952Y-13268476D02*
X11209000Y-13278000D01*
X11209000Y-13278000D02*
X11218524Y-13287524D01*
X11218524Y-13287524D02*
X11228048Y-13306571D01*
X11228048Y-13306571D02*
X11237571Y-13344667D01*
X11237571Y-13344667D02*
X11237571Y-13392286D01*
X11237571Y-13392286D02*
X11228048Y-13430381D01*
X11228048Y-13430381D02*
X11218524Y-13449428D01*
X11218524Y-13449428D02*
X11209000Y-13458952D01*
X11209000Y-13458952D02*
X11189952Y-13468476D01*
X11189952Y-13468476D02*
X11170905Y-13468476D01*
X11170905Y-13468476D02*
X11151857Y-13458952D01*
X11151857Y-13458952D02*
X11142333Y-13449428D01*
X11142333Y-13449428D02*
X11132810Y-13430381D01*
X11132810Y-13430381D02*
X11123286Y-13392286D01*
X11123286Y-13392286D02*
X11123286Y-13344667D01*
X11123286Y-13344667D02*
X11132810Y-13306571D01*
X11132810Y-13306571D02*
X11142333Y-13287524D01*
X11142333Y-13287524D02*
X11151857Y-13278000D01*
X11151857Y-13278000D02*
X11170905Y-13268476D01*
X11361381Y-13268476D02*
X11380429Y-13268476D01*
X11380429Y-13268476D02*
X11399476Y-13278000D01*
X11399476Y-13278000D02*
X11409000Y-13287524D01*
X11409000Y-13287524D02*
X11418524Y-13306571D01*
X11418524Y-13306571D02*
X11428048Y-13344667D01*
X11428048Y-13344667D02*
X11428048Y-13392286D01*
X11428048Y-13392286D02*
X11418524Y-13430381D01*
X11418524Y-13430381D02*
X11409000Y-13449428D01*
X11409000Y-13449428D02*
X11399476Y-13458952D01*
X11399476Y-13458952D02*
X11380429Y-13468476D01*
X11380429Y-13468476D02*
X11361381Y-13468476D01*
X11361381Y-13468476D02*
X11342333Y-13458952D01*
X11342333Y-13458952D02*
X11332809Y-13449428D01*
X11332809Y-13449428D02*
X11323286Y-13430381D01*
X11323286Y-13430381D02*
X11313762Y-13392286D01*
X11313762Y-13392286D02*
X11313762Y-13344667D01*
X11313762Y-13344667D02*
X11323286Y-13306571D01*
X11323286Y-13306571D02*
X11332809Y-13287524D01*
X11332809Y-13287524D02*
X11342333Y-13278000D01*
X11342333Y-13278000D02*
X11361381Y-13268476D01*
X11513762Y-13468476D02*
X11513762Y-13335143D01*
X11513762Y-13354190D02*
X11523286Y-13344667D01*
X11523286Y-13344667D02*
X11542333Y-13335143D01*
X11542333Y-13335143D02*
X11570905Y-13335143D01*
X11570905Y-13335143D02*
X11589952Y-13344667D01*
X11589952Y-13344667D02*
X11599476Y-13363714D01*
X11599476Y-13363714D02*
X11599476Y-13468476D01*
X11599476Y-13363714D02*
X11609000Y-13344667D01*
X11609000Y-13344667D02*
X11628048Y-13335143D01*
X11628048Y-13335143D02*
X11656619Y-13335143D01*
X11656619Y-13335143D02*
X11675667Y-13344667D01*
X11675667Y-13344667D02*
X11685190Y-13363714D01*
X11685190Y-13363714D02*
X11685190Y-13468476D01*
X11780429Y-13468476D02*
X11780429Y-13335143D01*
X11780429Y-13354190D02*
X11789952Y-13344667D01*
X11789952Y-13344667D02*
X11809000Y-13335143D01*
X11809000Y-13335143D02*
X11837571Y-13335143D01*
X11837571Y-13335143D02*
X11856619Y-13344667D01*
X11856619Y-13344667D02*
X11866143Y-13363714D01*
X11866143Y-13363714D02*
X11866143Y-13468476D01*
X11866143Y-13363714D02*
X11875667Y-13344667D01*
X11875667Y-13344667D02*
X11894714Y-13335143D01*
X11894714Y-13335143D02*
X11923286Y-13335143D01*
X11923286Y-13335143D02*
X11942333Y-13344667D01*
X11942333Y-13344667D02*
X11951857Y-13363714D01*
X11951857Y-13363714D02*
X11951857Y-13468476D01*
X12309952Y-13258952D02*
X12138524Y-13516095D01*
X12534714Y-13268476D02*
X12553762Y-13268476D01*
X12553762Y-13268476D02*
X12572810Y-13278000D01*
X12572810Y-13278000D02*
X12582333Y-13287524D01*
X12582333Y-13287524D02*
X12591857Y-13306571D01*
X12591857Y-13306571D02*
X12601381Y-13344667D01*
X12601381Y-13344667D02*
X12601381Y-13392286D01*
X12601381Y-13392286D02*
X12591857Y-13430381D01*
X12591857Y-13430381D02*
X12582333Y-13449428D01*
X12582333Y-13449428D02*
X12572810Y-13458952D01*
X12572810Y-13458952D02*
X12553762Y-13468476D01*
X12553762Y-13468476D02*
X12534714Y-13468476D01*
X12534714Y-13468476D02*
X12515667Y-13458952D01*
X12515667Y-13458952D02*
X12506143Y-13449428D01*
X12506143Y-13449428D02*
X12496619Y-13430381D01*
X12496619Y-13430381D02*
X12487095Y-13392286D01*
X12487095Y-13392286D02*
X12487095Y-13344667D01*
X12487095Y-13344667D02*
X12496619Y-13306571D01*
X12496619Y-13306571D02*
X12506143Y-13287524D01*
X12506143Y-13287524D02*
X12515667Y-13278000D01*
X12515667Y-13278000D02*
X12534714Y-13268476D01*
X12687095Y-13449428D02*
X12696619Y-13458952D01*
X12696619Y-13458952D02*
X12687095Y-13468476D01*
X12687095Y-13468476D02*
X12677571Y-13458952D01*
X12677571Y-13458952D02*
X12687095Y-13449428D01*
X12687095Y-13449428D02*
X12687095Y-13468476D01*
X12820429Y-13268476D02*
X12839476Y-13268476D01*
X12839476Y-13268476D02*
X12858524Y-13278000D01*
X12858524Y-13278000D02*
X12868048Y-13287524D01*
X12868048Y-13287524D02*
X12877571Y-13306571D01*
X12877571Y-13306571D02*
X12887095Y-13344667D01*
X12887095Y-13344667D02*
X12887095Y-13392286D01*
X12887095Y-13392286D02*
X12877571Y-13430381D01*
X12877571Y-13430381D02*
X12868048Y-13449428D01*
X12868048Y-13449428D02*
X12858524Y-13458952D01*
X12858524Y-13458952D02*
X12839476Y-13468476D01*
X12839476Y-13468476D02*
X12820429Y-13468476D01*
X12820429Y-13468476D02*
X12801381Y-13458952D01*
X12801381Y-13458952D02*
X12791857Y-13449428D01*
X12791857Y-13449428D02*
X12782333Y-13430381D01*
X12782333Y-13430381D02*
X12772810Y-13392286D01*
X12772810Y-13392286D02*
X12772810Y-13344667D01*
X12772810Y-13344667D02*
X12782333Y-13306571D01*
X12782333Y-13306571D02*
X12791857Y-13287524D01*
X12791857Y-13287524D02*
X12801381Y-13278000D01*
X12801381Y-13278000D02*
X12820429Y-13268476D01*
X13058524Y-13335143D02*
X13058524Y-13468476D01*
X13010905Y-13258952D02*
X12963286Y-13401809D01*
X12963286Y-13401809D02*
X13087095Y-13401809D01*
X13144238Y-13268476D02*
X13268048Y-13268476D01*
X13268048Y-13268476D02*
X13201381Y-13344667D01*
X13201381Y-13344667D02*
X13229952Y-13344667D01*
X13229952Y-13344667D02*
X13249000Y-13354190D01*
X13249000Y-13354190D02*
X13258524Y-13363714D01*
X13258524Y-13363714D02*
X13268048Y-13382762D01*
X13268048Y-13382762D02*
X13268048Y-13430381D01*
X13268048Y-13430381D02*
X13258524Y-13449428D01*
X13258524Y-13449428D02*
X13249000Y-13458952D01*
X13249000Y-13458952D02*
X13229952Y-13468476D01*
X13229952Y-13468476D02*
X13172810Y-13468476D01*
X13172810Y-13468476D02*
X13153762Y-13458952D01*
X13153762Y-13458952D02*
X13144238Y-13449428D01*
X13334714Y-13268476D02*
X13458524Y-13268476D01*
X13458524Y-13268476D02*
X13391857Y-13344667D01*
X13391857Y-13344667D02*
X13420429Y-13344667D01*
X13420429Y-13344667D02*
X13439476Y-13354190D01*
X13439476Y-13354190D02*
X13449000Y-13363714D01*
X13449000Y-13363714D02*
X13458524Y-13382762D01*
X13458524Y-13382762D02*
X13458524Y-13430381D01*
X13458524Y-13430381D02*
X13449000Y-13449428D01*
X13449000Y-13449428D02*
X13439476Y-13458952D01*
X13439476Y-13458952D02*
X13420429Y-13468476D01*
X13420429Y-13468476D02*
X13363286Y-13468476D01*
X13363286Y-13468476D02*
X13344238Y-13458952D01*
X13344238Y-13458952D02*
X13334714Y-13449428D01*
X13534714Y-13268476D02*
X13534714Y-13306571D01*
X13610905Y-13268476D02*
X13610905Y-13306571D01*
X13873762Y-13544667D02*
X13864238Y-13535143D01*
X13864238Y-13535143D02*
X13845191Y-13506571D01*
X13845191Y-13506571D02*
X13835667Y-13487524D01*
X13835667Y-13487524D02*
X13826143Y-13458952D01*
X13826143Y-13458952D02*
X13816619Y-13411333D01*
X13816619Y-13411333D02*
X13816619Y-13373238D01*
X13816619Y-13373238D02*
X13826143Y-13325619D01*
X13826143Y-13325619D02*
X13835667Y-13297048D01*
X13835667Y-13297048D02*
X13845191Y-13278000D01*
X13845191Y-13278000D02*
X13864238Y-13249428D01*
X13864238Y-13249428D02*
X13873762Y-13239905D01*
X14035667Y-13335143D02*
X14035667Y-13468476D01*
X13988048Y-13258952D02*
X13940429Y-13401809D01*
X13940429Y-13401809D02*
X14064238Y-13401809D01*
X14260429Y-13468476D02*
X14260429Y-13268476D01*
X14346143Y-13468476D02*
X14346143Y-13363714D01*
X14346143Y-13363714D02*
X14336619Y-13344667D01*
X14336619Y-13344667D02*
X14317572Y-13335143D01*
X14317572Y-13335143D02*
X14289000Y-13335143D01*
X14289000Y-13335143D02*
X14269952Y-13344667D01*
X14269952Y-13344667D02*
X14260429Y-13354190D01*
X14469952Y-13468476D02*
X14450905Y-13458952D01*
X14450905Y-13458952D02*
X14441381Y-13449428D01*
X14441381Y-13449428D02*
X14431857Y-13430381D01*
X14431857Y-13430381D02*
X14431857Y-13373238D01*
X14431857Y-13373238D02*
X14441381Y-13354190D01*
X14441381Y-13354190D02*
X14450905Y-13344667D01*
X14450905Y-13344667D02*
X14469952Y-13335143D01*
X14469952Y-13335143D02*
X14498524Y-13335143D01*
X14498524Y-13335143D02*
X14517572Y-13344667D01*
X14517572Y-13344667D02*
X14527095Y-13354190D01*
X14527095Y-13354190D02*
X14536619Y-13373238D01*
X14536619Y-13373238D02*
X14536619Y-13430381D01*
X14536619Y-13430381D02*
X14527095Y-13449428D01*
X14527095Y-13449428D02*
X14517572Y-13458952D01*
X14517572Y-13458952D02*
X14498524Y-13468476D01*
X14498524Y-13468476D02*
X14469952Y-13468476D01*
X14650905Y-13468476D02*
X14631857Y-13458952D01*
X14631857Y-13458952D02*
X14622333Y-13439905D01*
X14622333Y-13439905D02*
X14622333Y-13268476D01*
X14803286Y-13458952D02*
X14784238Y-13468476D01*
X14784238Y-13468476D02*
X14746143Y-13468476D01*
X14746143Y-13468476D02*
X14727095Y-13458952D01*
X14727095Y-13458952D02*
X14717572Y-13439905D01*
X14717572Y-13439905D02*
X14717572Y-13363714D01*
X14717572Y-13363714D02*
X14727095Y-13344667D01*
X14727095Y-13344667D02*
X14746143Y-13335143D01*
X14746143Y-13335143D02*
X14784238Y-13335143D01*
X14784238Y-13335143D02*
X14803286Y-13344667D01*
X14803286Y-13344667D02*
X14812810Y-13363714D01*
X14812810Y-13363714D02*
X14812810Y-13382762D01*
X14812810Y-13382762D02*
X14717572Y-13401809D01*
X14889000Y-13458952D02*
X14908048Y-13468476D01*
X14908048Y-13468476D02*
X14946143Y-13468476D01*
X14946143Y-13468476D02*
X14965191Y-13458952D01*
X14965191Y-13458952D02*
X14974714Y-13439905D01*
X14974714Y-13439905D02*
X14974714Y-13430381D01*
X14974714Y-13430381D02*
X14965191Y-13411333D01*
X14965191Y-13411333D02*
X14946143Y-13401809D01*
X14946143Y-13401809D02*
X14917572Y-13401809D01*
X14917572Y-13401809D02*
X14898524Y-13392286D01*
X14898524Y-13392286D02*
X14889000Y-13373238D01*
X14889000Y-13373238D02*
X14889000Y-13363714D01*
X14889000Y-13363714D02*
X14898524Y-13344667D01*
X14898524Y-13344667D02*
X14917572Y-13335143D01*
X14917572Y-13335143D02*
X14946143Y-13335143D01*
X14946143Y-13335143D02*
X14965191Y-13344667D01*
X15180429Y-13392286D02*
X15332810Y-13392286D01*
X15256619Y-13468476D02*
X15256619Y-13316095D01*
X15538524Y-13287524D02*
X15548048Y-13278000D01*
X15548048Y-13278000D02*
X15567095Y-13268476D01*
X15567095Y-13268476D02*
X15614714Y-13268476D01*
X15614714Y-13268476D02*
X15633762Y-13278000D01*
X15633762Y-13278000D02*
X15643286Y-13287524D01*
X15643286Y-13287524D02*
X15652810Y-13306571D01*
X15652810Y-13306571D02*
X15652810Y-13325619D01*
X15652810Y-13325619D02*
X15643286Y-13354190D01*
X15643286Y-13354190D02*
X15529000Y-13468476D01*
X15529000Y-13468476D02*
X15652810Y-13468476D01*
X15849000Y-13458952D02*
X15868048Y-13468476D01*
X15868048Y-13468476D02*
X15906143Y-13468476D01*
X15906143Y-13468476D02*
X15925191Y-13458952D01*
X15925191Y-13458952D02*
X15934714Y-13439905D01*
X15934714Y-13439905D02*
X15934714Y-13430381D01*
X15934714Y-13430381D02*
X15925191Y-13411333D01*
X15925191Y-13411333D02*
X15906143Y-13401809D01*
X15906143Y-13401809D02*
X15877572Y-13401809D01*
X15877572Y-13401809D02*
X15858524Y-13392286D01*
X15858524Y-13392286D02*
X15849000Y-13373238D01*
X15849000Y-13373238D02*
X15849000Y-13363714D01*
X15849000Y-13363714D02*
X15858524Y-13344667D01*
X15858524Y-13344667D02*
X15877572Y-13335143D01*
X15877572Y-13335143D02*
X15906143Y-13335143D01*
X15906143Y-13335143D02*
X15925191Y-13344667D01*
X16049000Y-13468476D02*
X16029953Y-13458952D01*
X16029953Y-13458952D02*
X16020429Y-13439905D01*
X16020429Y-13439905D02*
X16020429Y-13268476D01*
X16153762Y-13468476D02*
X16134714Y-13458952D01*
X16134714Y-13458952D02*
X16125191Y-13449428D01*
X16125191Y-13449428D02*
X16115667Y-13430381D01*
X16115667Y-13430381D02*
X16115667Y-13373238D01*
X16115667Y-13373238D02*
X16125191Y-13354190D01*
X16125191Y-13354190D02*
X16134714Y-13344667D01*
X16134714Y-13344667D02*
X16153762Y-13335143D01*
X16153762Y-13335143D02*
X16182334Y-13335143D01*
X16182334Y-13335143D02*
X16201381Y-13344667D01*
X16201381Y-13344667D02*
X16210905Y-13354190D01*
X16210905Y-13354190D02*
X16220429Y-13373238D01*
X16220429Y-13373238D02*
X16220429Y-13430381D01*
X16220429Y-13430381D02*
X16210905Y-13449428D01*
X16210905Y-13449428D02*
X16201381Y-13458952D01*
X16201381Y-13458952D02*
X16182334Y-13468476D01*
X16182334Y-13468476D02*
X16153762Y-13468476D01*
X16277572Y-13335143D02*
X16353762Y-13335143D01*
X16306143Y-13268476D02*
X16306143Y-13439905D01*
X16306143Y-13439905D02*
X16315667Y-13458952D01*
X16315667Y-13458952D02*
X16334714Y-13468476D01*
X16334714Y-13468476D02*
X16353762Y-13468476D01*
X16410905Y-13458952D02*
X16429953Y-13468476D01*
X16429953Y-13468476D02*
X16468048Y-13468476D01*
X16468048Y-13468476D02*
X16487095Y-13458952D01*
X16487095Y-13458952D02*
X16496619Y-13439905D01*
X16496619Y-13439905D02*
X16496619Y-13430381D01*
X16496619Y-13430381D02*
X16487095Y-13411333D01*
X16487095Y-13411333D02*
X16468048Y-13401809D01*
X16468048Y-13401809D02*
X16439476Y-13401809D01*
X16439476Y-13401809D02*
X16420429Y-13392286D01*
X16420429Y-13392286D02*
X16410905Y-13373238D01*
X16410905Y-13373238D02*
X16410905Y-13363714D01*
X16410905Y-13363714D02*
X16420429Y-13344667D01*
X16420429Y-13344667D02*
X16439476Y-13335143D01*
X16439476Y-13335143D02*
X16468048Y-13335143D01*
X16468048Y-13335143D02*
X16487095Y-13344667D01*
X16563286Y-13544667D02*
X16572810Y-13535143D01*
X16572810Y-13535143D02*
X16591857Y-13506571D01*
X16591857Y-13506571D02*
X16601381Y-13487524D01*
X16601381Y-13487524D02*
X16610905Y-13458952D01*
X16610905Y-13458952D02*
X16620429Y-13411333D01*
X16620429Y-13411333D02*
X16620429Y-13373238D01*
X16620429Y-13373238D02*
X16610905Y-13325619D01*
X16610905Y-13325619D02*
X16601381Y-13297048D01*
X16601381Y-13297048D02*
X16591857Y-13278000D01*
X16591857Y-13278000D02*
X16572810Y-13249428D01*
X16572810Y-13249428D02*
X16563286Y-13239905D01*
D17*
X10269000Y-13589000D02*
X10409000Y-13729000D01*
X10409000Y-13589000D02*
X10269000Y-13729000D01*
X10339000Y-13589000D02*
X10339000Y-13729000D01*
X10269000Y-13659000D02*
X10409000Y-13659000D01*
D11*
X10761381Y-13732476D02*
X10647095Y-13732476D01*
X10704238Y-13732476D02*
X10704238Y-13532476D01*
X10704238Y-13532476D02*
X10685190Y-13561048D01*
X10685190Y-13561048D02*
X10666143Y-13580095D01*
X10666143Y-13580095D02*
X10647095Y-13589619D01*
X10847095Y-13713428D02*
X10856619Y-13722952D01*
X10856619Y-13722952D02*
X10847095Y-13732476D01*
X10847095Y-13732476D02*
X10837571Y-13722952D01*
X10837571Y-13722952D02*
X10847095Y-13713428D01*
X10847095Y-13713428D02*
X10847095Y-13732476D01*
X11028048Y-13599143D02*
X11028048Y-13732476D01*
X10980429Y-13522952D02*
X10932810Y-13665809D01*
X10932810Y-13665809D02*
X11056619Y-13665809D01*
X11170905Y-13532476D02*
X11189952Y-13532476D01*
X11189952Y-13532476D02*
X11209000Y-13542000D01*
X11209000Y-13542000D02*
X11218524Y-13551524D01*
X11218524Y-13551524D02*
X11228048Y-13570571D01*
X11228048Y-13570571D02*
X11237571Y-13608667D01*
X11237571Y-13608667D02*
X11237571Y-13656286D01*
X11237571Y-13656286D02*
X11228048Y-13694381D01*
X11228048Y-13694381D02*
X11218524Y-13713428D01*
X11218524Y-13713428D02*
X11209000Y-13722952D01*
X11209000Y-13722952D02*
X11189952Y-13732476D01*
X11189952Y-13732476D02*
X11170905Y-13732476D01*
X11170905Y-13732476D02*
X11151857Y-13722952D01*
X11151857Y-13722952D02*
X11142333Y-13713428D01*
X11142333Y-13713428D02*
X11132810Y-13694381D01*
X11132810Y-13694381D02*
X11123286Y-13656286D01*
X11123286Y-13656286D02*
X11123286Y-13608667D01*
X11123286Y-13608667D02*
X11132810Y-13570571D01*
X11132810Y-13570571D02*
X11142333Y-13551524D01*
X11142333Y-13551524D02*
X11151857Y-13542000D01*
X11151857Y-13542000D02*
X11170905Y-13532476D01*
X11361381Y-13532476D02*
X11380429Y-13532476D01*
X11380429Y-13532476D02*
X11399476Y-13542000D01*
X11399476Y-13542000D02*
X11409000Y-13551524D01*
X11409000Y-13551524D02*
X11418524Y-13570571D01*
X11418524Y-13570571D02*
X11428048Y-13608667D01*
X11428048Y-13608667D02*
X11428048Y-13656286D01*
X11428048Y-13656286D02*
X11418524Y-13694381D01*
X11418524Y-13694381D02*
X11409000Y-13713428D01*
X11409000Y-13713428D02*
X11399476Y-13722952D01*
X11399476Y-13722952D02*
X11380429Y-13732476D01*
X11380429Y-13732476D02*
X11361381Y-13732476D01*
X11361381Y-13732476D02*
X11342333Y-13722952D01*
X11342333Y-13722952D02*
X11332809Y-13713428D01*
X11332809Y-13713428D02*
X11323286Y-13694381D01*
X11323286Y-13694381D02*
X11313762Y-13656286D01*
X11313762Y-13656286D02*
X11313762Y-13608667D01*
X11313762Y-13608667D02*
X11323286Y-13570571D01*
X11323286Y-13570571D02*
X11332809Y-13551524D01*
X11332809Y-13551524D02*
X11342333Y-13542000D01*
X11342333Y-13542000D02*
X11361381Y-13532476D01*
X11513762Y-13732476D02*
X11513762Y-13599143D01*
X11513762Y-13618190D02*
X11523286Y-13608667D01*
X11523286Y-13608667D02*
X11542333Y-13599143D01*
X11542333Y-13599143D02*
X11570905Y-13599143D01*
X11570905Y-13599143D02*
X11589952Y-13608667D01*
X11589952Y-13608667D02*
X11599476Y-13627714D01*
X11599476Y-13627714D02*
X11599476Y-13732476D01*
X11599476Y-13627714D02*
X11609000Y-13608667D01*
X11609000Y-13608667D02*
X11628048Y-13599143D01*
X11628048Y-13599143D02*
X11656619Y-13599143D01*
X11656619Y-13599143D02*
X11675667Y-13608667D01*
X11675667Y-13608667D02*
X11685190Y-13627714D01*
X11685190Y-13627714D02*
X11685190Y-13732476D01*
X11780429Y-13732476D02*
X11780429Y-13599143D01*
X11780429Y-13618190D02*
X11789952Y-13608667D01*
X11789952Y-13608667D02*
X11809000Y-13599143D01*
X11809000Y-13599143D02*
X11837571Y-13599143D01*
X11837571Y-13599143D02*
X11856619Y-13608667D01*
X11856619Y-13608667D02*
X11866143Y-13627714D01*
X11866143Y-13627714D02*
X11866143Y-13732476D01*
X11866143Y-13627714D02*
X11875667Y-13608667D01*
X11875667Y-13608667D02*
X11894714Y-13599143D01*
X11894714Y-13599143D02*
X11923286Y-13599143D01*
X11923286Y-13599143D02*
X11942333Y-13608667D01*
X11942333Y-13608667D02*
X11951857Y-13627714D01*
X11951857Y-13627714D02*
X11951857Y-13732476D01*
X12309952Y-13522952D02*
X12138524Y-13780095D01*
X12534714Y-13532476D02*
X12553762Y-13532476D01*
X12553762Y-13532476D02*
X12572810Y-13542000D01*
X12572810Y-13542000D02*
X12582333Y-13551524D01*
X12582333Y-13551524D02*
X12591857Y-13570571D01*
X12591857Y-13570571D02*
X12601381Y-13608667D01*
X12601381Y-13608667D02*
X12601381Y-13656286D01*
X12601381Y-13656286D02*
X12591857Y-13694381D01*
X12591857Y-13694381D02*
X12582333Y-13713428D01*
X12582333Y-13713428D02*
X12572810Y-13722952D01*
X12572810Y-13722952D02*
X12553762Y-13732476D01*
X12553762Y-13732476D02*
X12534714Y-13732476D01*
X12534714Y-13732476D02*
X12515667Y-13722952D01*
X12515667Y-13722952D02*
X12506143Y-13713428D01*
X12506143Y-13713428D02*
X12496619Y-13694381D01*
X12496619Y-13694381D02*
X12487095Y-13656286D01*
X12487095Y-13656286D02*
X12487095Y-13608667D01*
X12487095Y-13608667D02*
X12496619Y-13570571D01*
X12496619Y-13570571D02*
X12506143Y-13551524D01*
X12506143Y-13551524D02*
X12515667Y-13542000D01*
X12515667Y-13542000D02*
X12534714Y-13532476D01*
X12687095Y-13713428D02*
X12696619Y-13722952D01*
X12696619Y-13722952D02*
X12687095Y-13732476D01*
X12687095Y-13732476D02*
X12677571Y-13722952D01*
X12677571Y-13722952D02*
X12687095Y-13713428D01*
X12687095Y-13713428D02*
X12687095Y-13732476D01*
X12820429Y-13532476D02*
X12839476Y-13532476D01*
X12839476Y-13532476D02*
X12858524Y-13542000D01*
X12858524Y-13542000D02*
X12868048Y-13551524D01*
X12868048Y-13551524D02*
X12877571Y-13570571D01*
X12877571Y-13570571D02*
X12887095Y-13608667D01*
X12887095Y-13608667D02*
X12887095Y-13656286D01*
X12887095Y-13656286D02*
X12877571Y-13694381D01*
X12877571Y-13694381D02*
X12868048Y-13713428D01*
X12868048Y-13713428D02*
X12858524Y-13722952D01*
X12858524Y-13722952D02*
X12839476Y-13732476D01*
X12839476Y-13732476D02*
X12820429Y-13732476D01*
X12820429Y-13732476D02*
X12801381Y-13722952D01*
X12801381Y-13722952D02*
X12791857Y-13713428D01*
X12791857Y-13713428D02*
X12782333Y-13694381D01*
X12782333Y-13694381D02*
X12772810Y-13656286D01*
X12772810Y-13656286D02*
X12772810Y-13608667D01*
X12772810Y-13608667D02*
X12782333Y-13570571D01*
X12782333Y-13570571D02*
X12791857Y-13551524D01*
X12791857Y-13551524D02*
X12801381Y-13542000D01*
X12801381Y-13542000D02*
X12820429Y-13532476D01*
X13068048Y-13532476D02*
X12972810Y-13532476D01*
X12972810Y-13532476D02*
X12963286Y-13627714D01*
X12963286Y-13627714D02*
X12972810Y-13618190D01*
X12972810Y-13618190D02*
X12991857Y-13608667D01*
X12991857Y-13608667D02*
X13039476Y-13608667D01*
X13039476Y-13608667D02*
X13058524Y-13618190D01*
X13058524Y-13618190D02*
X13068048Y-13627714D01*
X13068048Y-13627714D02*
X13077571Y-13646762D01*
X13077571Y-13646762D02*
X13077571Y-13694381D01*
X13077571Y-13694381D02*
X13068048Y-13713428D01*
X13068048Y-13713428D02*
X13058524Y-13722952D01*
X13058524Y-13722952D02*
X13039476Y-13732476D01*
X13039476Y-13732476D02*
X12991857Y-13732476D01*
X12991857Y-13732476D02*
X12972810Y-13722952D01*
X12972810Y-13722952D02*
X12963286Y-13713428D01*
X13258524Y-13532476D02*
X13163286Y-13532476D01*
X13163286Y-13532476D02*
X13153762Y-13627714D01*
X13153762Y-13627714D02*
X13163286Y-13618190D01*
X13163286Y-13618190D02*
X13182333Y-13608667D01*
X13182333Y-13608667D02*
X13229952Y-13608667D01*
X13229952Y-13608667D02*
X13249000Y-13618190D01*
X13249000Y-13618190D02*
X13258524Y-13627714D01*
X13258524Y-13627714D02*
X13268048Y-13646762D01*
X13268048Y-13646762D02*
X13268048Y-13694381D01*
X13268048Y-13694381D02*
X13258524Y-13713428D01*
X13258524Y-13713428D02*
X13249000Y-13722952D01*
X13249000Y-13722952D02*
X13229952Y-13732476D01*
X13229952Y-13732476D02*
X13182333Y-13732476D01*
X13182333Y-13732476D02*
X13163286Y-13722952D01*
X13163286Y-13722952D02*
X13153762Y-13713428D01*
X13458524Y-13732476D02*
X13344238Y-13732476D01*
X13401381Y-13732476D02*
X13401381Y-13532476D01*
X13401381Y-13532476D02*
X13382333Y-13561048D01*
X13382333Y-13561048D02*
X13363286Y-13580095D01*
X13363286Y-13580095D02*
X13344238Y-13589619D01*
X13534714Y-13532476D02*
X13534714Y-13570571D01*
X13610905Y-13532476D02*
X13610905Y-13570571D01*
X13873762Y-13808667D02*
X13864238Y-13799143D01*
X13864238Y-13799143D02*
X13845191Y-13770571D01*
X13845191Y-13770571D02*
X13835667Y-13751524D01*
X13835667Y-13751524D02*
X13826143Y-13722952D01*
X13826143Y-13722952D02*
X13816619Y-13675333D01*
X13816619Y-13675333D02*
X13816619Y-13637238D01*
X13816619Y-13637238D02*
X13826143Y-13589619D01*
X13826143Y-13589619D02*
X13835667Y-13561048D01*
X13835667Y-13561048D02*
X13845191Y-13542000D01*
X13845191Y-13542000D02*
X13864238Y-13513428D01*
X13864238Y-13513428D02*
X13873762Y-13503905D01*
X13940429Y-13551524D02*
X13949952Y-13542000D01*
X13949952Y-13542000D02*
X13969000Y-13532476D01*
X13969000Y-13532476D02*
X14016619Y-13532476D01*
X14016619Y-13532476D02*
X14035667Y-13542000D01*
X14035667Y-13542000D02*
X14045191Y-13551524D01*
X14045191Y-13551524D02*
X14054714Y-13570571D01*
X14054714Y-13570571D02*
X14054714Y-13589619D01*
X14054714Y-13589619D02*
X14045191Y-13618190D01*
X14045191Y-13618190D02*
X13930905Y-13732476D01*
X13930905Y-13732476D02*
X14054714Y-13732476D01*
X14260429Y-13732476D02*
X14260429Y-13532476D01*
X14346143Y-13732476D02*
X14346143Y-13627714D01*
X14346143Y-13627714D02*
X14336619Y-13608667D01*
X14336619Y-13608667D02*
X14317572Y-13599143D01*
X14317572Y-13599143D02*
X14289000Y-13599143D01*
X14289000Y-13599143D02*
X14269952Y-13608667D01*
X14269952Y-13608667D02*
X14260429Y-13618190D01*
X14469952Y-13732476D02*
X14450905Y-13722952D01*
X14450905Y-13722952D02*
X14441381Y-13713428D01*
X14441381Y-13713428D02*
X14431857Y-13694381D01*
X14431857Y-13694381D02*
X14431857Y-13637238D01*
X14431857Y-13637238D02*
X14441381Y-13618190D01*
X14441381Y-13618190D02*
X14450905Y-13608667D01*
X14450905Y-13608667D02*
X14469952Y-13599143D01*
X14469952Y-13599143D02*
X14498524Y-13599143D01*
X14498524Y-13599143D02*
X14517572Y-13608667D01*
X14517572Y-13608667D02*
X14527095Y-13618190D01*
X14527095Y-13618190D02*
X14536619Y-13637238D01*
X14536619Y-13637238D02*
X14536619Y-13694381D01*
X14536619Y-13694381D02*
X14527095Y-13713428D01*
X14527095Y-13713428D02*
X14517572Y-13722952D01*
X14517572Y-13722952D02*
X14498524Y-13732476D01*
X14498524Y-13732476D02*
X14469952Y-13732476D01*
X14650905Y-13732476D02*
X14631857Y-13722952D01*
X14631857Y-13722952D02*
X14622333Y-13703905D01*
X14622333Y-13703905D02*
X14622333Y-13532476D01*
X14803286Y-13722952D02*
X14784238Y-13732476D01*
X14784238Y-13732476D02*
X14746143Y-13732476D01*
X14746143Y-13732476D02*
X14727095Y-13722952D01*
X14727095Y-13722952D02*
X14717572Y-13703905D01*
X14717572Y-13703905D02*
X14717572Y-13627714D01*
X14717572Y-13627714D02*
X14727095Y-13608667D01*
X14727095Y-13608667D02*
X14746143Y-13599143D01*
X14746143Y-13599143D02*
X14784238Y-13599143D01*
X14784238Y-13599143D02*
X14803286Y-13608667D01*
X14803286Y-13608667D02*
X14812810Y-13627714D01*
X14812810Y-13627714D02*
X14812810Y-13646762D01*
X14812810Y-13646762D02*
X14717572Y-13665809D01*
X14889000Y-13722952D02*
X14908048Y-13732476D01*
X14908048Y-13732476D02*
X14946143Y-13732476D01*
X14946143Y-13732476D02*
X14965191Y-13722952D01*
X14965191Y-13722952D02*
X14974714Y-13703905D01*
X14974714Y-13703905D02*
X14974714Y-13694381D01*
X14974714Y-13694381D02*
X14965191Y-13675333D01*
X14965191Y-13675333D02*
X14946143Y-13665809D01*
X14946143Y-13665809D02*
X14917572Y-13665809D01*
X14917572Y-13665809D02*
X14898524Y-13656286D01*
X14898524Y-13656286D02*
X14889000Y-13637238D01*
X14889000Y-13637238D02*
X14889000Y-13627714D01*
X14889000Y-13627714D02*
X14898524Y-13608667D01*
X14898524Y-13608667D02*
X14917572Y-13599143D01*
X14917572Y-13599143D02*
X14946143Y-13599143D01*
X14946143Y-13599143D02*
X14965191Y-13608667D01*
X15041381Y-13808667D02*
X15050905Y-13799143D01*
X15050905Y-13799143D02*
X15069953Y-13770571D01*
X15069953Y-13770571D02*
X15079476Y-13751524D01*
X15079476Y-13751524D02*
X15089000Y-13722952D01*
X15089000Y-13722952D02*
X15098524Y-13675333D01*
X15098524Y-13675333D02*
X15098524Y-13637238D01*
X15098524Y-13637238D02*
X15089000Y-13589619D01*
X15089000Y-13589619D02*
X15079476Y-13561048D01*
X15079476Y-13561048D02*
X15069953Y-13542000D01*
X15069953Y-13542000D02*
X15050905Y-13513428D01*
X15050905Y-13513428D02*
X15041381Y-13503905D01*
D18*
X10259000Y-13848000D02*
X10409000Y-13998000D01*
X10409000Y-13848000D02*
X10259000Y-13998000D01*
X10387034Y-13976033D02*
X10387034Y-13869966D01*
X10280967Y-13869966D01*
X10280967Y-13976033D01*
X10387034Y-13976033D01*
D11*
X10761381Y-13996476D02*
X10647095Y-13996476D01*
X10704238Y-13996476D02*
X10704238Y-13796476D01*
X10704238Y-13796476D02*
X10685190Y-13825048D01*
X10685190Y-13825048D02*
X10666143Y-13844095D01*
X10666143Y-13844095D02*
X10647095Y-13853619D01*
X10847095Y-13977428D02*
X10856619Y-13986952D01*
X10856619Y-13986952D02*
X10847095Y-13996476D01*
X10847095Y-13996476D02*
X10837571Y-13986952D01*
X10837571Y-13986952D02*
X10847095Y-13977428D01*
X10847095Y-13977428D02*
X10847095Y-13996476D01*
X11037571Y-13796476D02*
X10942333Y-13796476D01*
X10942333Y-13796476D02*
X10932810Y-13891714D01*
X10932810Y-13891714D02*
X10942333Y-13882190D01*
X10942333Y-13882190D02*
X10961381Y-13872667D01*
X10961381Y-13872667D02*
X11009000Y-13872667D01*
X11009000Y-13872667D02*
X11028048Y-13882190D01*
X11028048Y-13882190D02*
X11037571Y-13891714D01*
X11037571Y-13891714D02*
X11047095Y-13910762D01*
X11047095Y-13910762D02*
X11047095Y-13958381D01*
X11047095Y-13958381D02*
X11037571Y-13977428D01*
X11037571Y-13977428D02*
X11028048Y-13986952D01*
X11028048Y-13986952D02*
X11009000Y-13996476D01*
X11009000Y-13996476D02*
X10961381Y-13996476D01*
X10961381Y-13996476D02*
X10942333Y-13986952D01*
X10942333Y-13986952D02*
X10932810Y-13977428D01*
X11170905Y-13796476D02*
X11189952Y-13796476D01*
X11189952Y-13796476D02*
X11209000Y-13806000D01*
X11209000Y-13806000D02*
X11218524Y-13815524D01*
X11218524Y-13815524D02*
X11228048Y-13834571D01*
X11228048Y-13834571D02*
X11237571Y-13872667D01*
X11237571Y-13872667D02*
X11237571Y-13920286D01*
X11237571Y-13920286D02*
X11228048Y-13958381D01*
X11228048Y-13958381D02*
X11218524Y-13977428D01*
X11218524Y-13977428D02*
X11209000Y-13986952D01*
X11209000Y-13986952D02*
X11189952Y-13996476D01*
X11189952Y-13996476D02*
X11170905Y-13996476D01*
X11170905Y-13996476D02*
X11151857Y-13986952D01*
X11151857Y-13986952D02*
X11142333Y-13977428D01*
X11142333Y-13977428D02*
X11132810Y-13958381D01*
X11132810Y-13958381D02*
X11123286Y-13920286D01*
X11123286Y-13920286D02*
X11123286Y-13872667D01*
X11123286Y-13872667D02*
X11132810Y-13834571D01*
X11132810Y-13834571D02*
X11142333Y-13815524D01*
X11142333Y-13815524D02*
X11151857Y-13806000D01*
X11151857Y-13806000D02*
X11170905Y-13796476D01*
X11361381Y-13796476D02*
X11380429Y-13796476D01*
X11380429Y-13796476D02*
X11399476Y-13806000D01*
X11399476Y-13806000D02*
X11409000Y-13815524D01*
X11409000Y-13815524D02*
X11418524Y-13834571D01*
X11418524Y-13834571D02*
X11428048Y-13872667D01*
X11428048Y-13872667D02*
X11428048Y-13920286D01*
X11428048Y-13920286D02*
X11418524Y-13958381D01*
X11418524Y-13958381D02*
X11409000Y-13977428D01*
X11409000Y-13977428D02*
X11399476Y-13986952D01*
X11399476Y-13986952D02*
X11380429Y-13996476D01*
X11380429Y-13996476D02*
X11361381Y-13996476D01*
X11361381Y-13996476D02*
X11342333Y-13986952D01*
X11342333Y-13986952D02*
X11332809Y-13977428D01*
X11332809Y-13977428D02*
X11323286Y-13958381D01*
X11323286Y-13958381D02*
X11313762Y-13920286D01*
X11313762Y-13920286D02*
X11313762Y-13872667D01*
X11313762Y-13872667D02*
X11323286Y-13834571D01*
X11323286Y-13834571D02*
X11332809Y-13815524D01*
X11332809Y-13815524D02*
X11342333Y-13806000D01*
X11342333Y-13806000D02*
X11361381Y-13796476D01*
X11513762Y-13996476D02*
X11513762Y-13863143D01*
X11513762Y-13882190D02*
X11523286Y-13872667D01*
X11523286Y-13872667D02*
X11542333Y-13863143D01*
X11542333Y-13863143D02*
X11570905Y-13863143D01*
X11570905Y-13863143D02*
X11589952Y-13872667D01*
X11589952Y-13872667D02*
X11599476Y-13891714D01*
X11599476Y-13891714D02*
X11599476Y-13996476D01*
X11599476Y-13891714D02*
X11609000Y-13872667D01*
X11609000Y-13872667D02*
X11628048Y-13863143D01*
X11628048Y-13863143D02*
X11656619Y-13863143D01*
X11656619Y-13863143D02*
X11675667Y-13872667D01*
X11675667Y-13872667D02*
X11685190Y-13891714D01*
X11685190Y-13891714D02*
X11685190Y-13996476D01*
X11780429Y-13996476D02*
X11780429Y-13863143D01*
X11780429Y-13882190D02*
X11789952Y-13872667D01*
X11789952Y-13872667D02*
X11809000Y-13863143D01*
X11809000Y-13863143D02*
X11837571Y-13863143D01*
X11837571Y-13863143D02*
X11856619Y-13872667D01*
X11856619Y-13872667D02*
X11866143Y-13891714D01*
X11866143Y-13891714D02*
X11866143Y-13996476D01*
X11866143Y-13891714D02*
X11875667Y-13872667D01*
X11875667Y-13872667D02*
X11894714Y-13863143D01*
X11894714Y-13863143D02*
X11923286Y-13863143D01*
X11923286Y-13863143D02*
X11942333Y-13872667D01*
X11942333Y-13872667D02*
X11951857Y-13891714D01*
X11951857Y-13891714D02*
X11951857Y-13996476D01*
X12309952Y-13786952D02*
X12138524Y-14044095D01*
X12534714Y-13796476D02*
X12553762Y-13796476D01*
X12553762Y-13796476D02*
X12572810Y-13806000D01*
X12572810Y-13806000D02*
X12582333Y-13815524D01*
X12582333Y-13815524D02*
X12591857Y-13834571D01*
X12591857Y-13834571D02*
X12601381Y-13872667D01*
X12601381Y-13872667D02*
X12601381Y-13920286D01*
X12601381Y-13920286D02*
X12591857Y-13958381D01*
X12591857Y-13958381D02*
X12582333Y-13977428D01*
X12582333Y-13977428D02*
X12572810Y-13986952D01*
X12572810Y-13986952D02*
X12553762Y-13996476D01*
X12553762Y-13996476D02*
X12534714Y-13996476D01*
X12534714Y-13996476D02*
X12515667Y-13986952D01*
X12515667Y-13986952D02*
X12506143Y-13977428D01*
X12506143Y-13977428D02*
X12496619Y-13958381D01*
X12496619Y-13958381D02*
X12487095Y-13920286D01*
X12487095Y-13920286D02*
X12487095Y-13872667D01*
X12487095Y-13872667D02*
X12496619Y-13834571D01*
X12496619Y-13834571D02*
X12506143Y-13815524D01*
X12506143Y-13815524D02*
X12515667Y-13806000D01*
X12515667Y-13806000D02*
X12534714Y-13796476D01*
X12687095Y-13977428D02*
X12696619Y-13986952D01*
X12696619Y-13986952D02*
X12687095Y-13996476D01*
X12687095Y-13996476D02*
X12677571Y-13986952D01*
X12677571Y-13986952D02*
X12687095Y-13977428D01*
X12687095Y-13977428D02*
X12687095Y-13996476D01*
X12820429Y-13796476D02*
X12839476Y-13796476D01*
X12839476Y-13796476D02*
X12858524Y-13806000D01*
X12858524Y-13806000D02*
X12868048Y-13815524D01*
X12868048Y-13815524D02*
X12877571Y-13834571D01*
X12877571Y-13834571D02*
X12887095Y-13872667D01*
X12887095Y-13872667D02*
X12887095Y-13920286D01*
X12887095Y-13920286D02*
X12877571Y-13958381D01*
X12877571Y-13958381D02*
X12868048Y-13977428D01*
X12868048Y-13977428D02*
X12858524Y-13986952D01*
X12858524Y-13986952D02*
X12839476Y-13996476D01*
X12839476Y-13996476D02*
X12820429Y-13996476D01*
X12820429Y-13996476D02*
X12801381Y-13986952D01*
X12801381Y-13986952D02*
X12791857Y-13977428D01*
X12791857Y-13977428D02*
X12782333Y-13958381D01*
X12782333Y-13958381D02*
X12772810Y-13920286D01*
X12772810Y-13920286D02*
X12772810Y-13872667D01*
X12772810Y-13872667D02*
X12782333Y-13834571D01*
X12782333Y-13834571D02*
X12791857Y-13815524D01*
X12791857Y-13815524D02*
X12801381Y-13806000D01*
X12801381Y-13806000D02*
X12820429Y-13796476D01*
X13068048Y-13796476D02*
X12972810Y-13796476D01*
X12972810Y-13796476D02*
X12963286Y-13891714D01*
X12963286Y-13891714D02*
X12972810Y-13882190D01*
X12972810Y-13882190D02*
X12991857Y-13872667D01*
X12991857Y-13872667D02*
X13039476Y-13872667D01*
X13039476Y-13872667D02*
X13058524Y-13882190D01*
X13058524Y-13882190D02*
X13068048Y-13891714D01*
X13068048Y-13891714D02*
X13077571Y-13910762D01*
X13077571Y-13910762D02*
X13077571Y-13958381D01*
X13077571Y-13958381D02*
X13068048Y-13977428D01*
X13068048Y-13977428D02*
X13058524Y-13986952D01*
X13058524Y-13986952D02*
X13039476Y-13996476D01*
X13039476Y-13996476D02*
X12991857Y-13996476D01*
X12991857Y-13996476D02*
X12972810Y-13986952D01*
X12972810Y-13986952D02*
X12963286Y-13977428D01*
X13172810Y-13996476D02*
X13210905Y-13996476D01*
X13210905Y-13996476D02*
X13229952Y-13986952D01*
X13229952Y-13986952D02*
X13239476Y-13977428D01*
X13239476Y-13977428D02*
X13258524Y-13948857D01*
X13258524Y-13948857D02*
X13268048Y-13910762D01*
X13268048Y-13910762D02*
X13268048Y-13834571D01*
X13268048Y-13834571D02*
X13258524Y-13815524D01*
X13258524Y-13815524D02*
X13249000Y-13806000D01*
X13249000Y-13806000D02*
X13229952Y-13796476D01*
X13229952Y-13796476D02*
X13191857Y-13796476D01*
X13191857Y-13796476D02*
X13172810Y-13806000D01*
X13172810Y-13806000D02*
X13163286Y-13815524D01*
X13163286Y-13815524D02*
X13153762Y-13834571D01*
X13153762Y-13834571D02*
X13153762Y-13882190D01*
X13153762Y-13882190D02*
X13163286Y-13901238D01*
X13163286Y-13901238D02*
X13172810Y-13910762D01*
X13172810Y-13910762D02*
X13191857Y-13920286D01*
X13191857Y-13920286D02*
X13229952Y-13920286D01*
X13229952Y-13920286D02*
X13249000Y-13910762D01*
X13249000Y-13910762D02*
X13258524Y-13901238D01*
X13258524Y-13901238D02*
X13268048Y-13882190D01*
X13458524Y-13996476D02*
X13344238Y-13996476D01*
X13401381Y-13996476D02*
X13401381Y-13796476D01*
X13401381Y-13796476D02*
X13382333Y-13825048D01*
X13382333Y-13825048D02*
X13363286Y-13844095D01*
X13363286Y-13844095D02*
X13344238Y-13853619D01*
X13534714Y-13796476D02*
X13534714Y-13834571D01*
X13610905Y-13796476D02*
X13610905Y-13834571D01*
X13873762Y-14072667D02*
X13864238Y-14063143D01*
X13864238Y-14063143D02*
X13845191Y-14034571D01*
X13845191Y-14034571D02*
X13835667Y-14015524D01*
X13835667Y-14015524D02*
X13826143Y-13986952D01*
X13826143Y-13986952D02*
X13816619Y-13939333D01*
X13816619Y-13939333D02*
X13816619Y-13901238D01*
X13816619Y-13901238D02*
X13826143Y-13853619D01*
X13826143Y-13853619D02*
X13835667Y-13825048D01*
X13835667Y-13825048D02*
X13845191Y-13806000D01*
X13845191Y-13806000D02*
X13864238Y-13777428D01*
X13864238Y-13777428D02*
X13873762Y-13767905D01*
X13940429Y-13815524D02*
X13949952Y-13806000D01*
X13949952Y-13806000D02*
X13969000Y-13796476D01*
X13969000Y-13796476D02*
X14016619Y-13796476D01*
X14016619Y-13796476D02*
X14035667Y-13806000D01*
X14035667Y-13806000D02*
X14045191Y-13815524D01*
X14045191Y-13815524D02*
X14054714Y-13834571D01*
X14054714Y-13834571D02*
X14054714Y-13853619D01*
X14054714Y-13853619D02*
X14045191Y-13882190D01*
X14045191Y-13882190D02*
X13930905Y-13996476D01*
X13930905Y-13996476D02*
X14054714Y-13996476D01*
X14260429Y-13996476D02*
X14260429Y-13796476D01*
X14346143Y-13996476D02*
X14346143Y-13891714D01*
X14346143Y-13891714D02*
X14336619Y-13872667D01*
X14336619Y-13872667D02*
X14317572Y-13863143D01*
X14317572Y-13863143D02*
X14289000Y-13863143D01*
X14289000Y-13863143D02*
X14269952Y-13872667D01*
X14269952Y-13872667D02*
X14260429Y-13882190D01*
X14469952Y-13996476D02*
X14450905Y-13986952D01*
X14450905Y-13986952D02*
X14441381Y-13977428D01*
X14441381Y-13977428D02*
X14431857Y-13958381D01*
X14431857Y-13958381D02*
X14431857Y-13901238D01*
X14431857Y-13901238D02*
X14441381Y-13882190D01*
X14441381Y-13882190D02*
X14450905Y-13872667D01*
X14450905Y-13872667D02*
X14469952Y-13863143D01*
X14469952Y-13863143D02*
X14498524Y-13863143D01*
X14498524Y-13863143D02*
X14517572Y-13872667D01*
X14517572Y-13872667D02*
X14527095Y-13882190D01*
X14527095Y-13882190D02*
X14536619Y-13901238D01*
X14536619Y-13901238D02*
X14536619Y-13958381D01*
X14536619Y-13958381D02*
X14527095Y-13977428D01*
X14527095Y-13977428D02*
X14517572Y-13986952D01*
X14517572Y-13986952D02*
X14498524Y-13996476D01*
X14498524Y-13996476D02*
X14469952Y-13996476D01*
X14650905Y-13996476D02*
X14631857Y-13986952D01*
X14631857Y-13986952D02*
X14622333Y-13967905D01*
X14622333Y-13967905D02*
X14622333Y-13796476D01*
X14803286Y-13986952D02*
X14784238Y-13996476D01*
X14784238Y-13996476D02*
X14746143Y-13996476D01*
X14746143Y-13996476D02*
X14727095Y-13986952D01*
X14727095Y-13986952D02*
X14717572Y-13967905D01*
X14717572Y-13967905D02*
X14717572Y-13891714D01*
X14717572Y-13891714D02*
X14727095Y-13872667D01*
X14727095Y-13872667D02*
X14746143Y-13863143D01*
X14746143Y-13863143D02*
X14784238Y-13863143D01*
X14784238Y-13863143D02*
X14803286Y-13872667D01*
X14803286Y-13872667D02*
X14812810Y-13891714D01*
X14812810Y-13891714D02*
X14812810Y-13910762D01*
X14812810Y-13910762D02*
X14717572Y-13929809D01*
X14889000Y-13986952D02*
X14908048Y-13996476D01*
X14908048Y-13996476D02*
X14946143Y-13996476D01*
X14946143Y-13996476D02*
X14965191Y-13986952D01*
X14965191Y-13986952D02*
X14974714Y-13967905D01*
X14974714Y-13967905D02*
X14974714Y-13958381D01*
X14974714Y-13958381D02*
X14965191Y-13939333D01*
X14965191Y-13939333D02*
X14946143Y-13929809D01*
X14946143Y-13929809D02*
X14917572Y-13929809D01*
X14917572Y-13929809D02*
X14898524Y-13920286D01*
X14898524Y-13920286D02*
X14889000Y-13901238D01*
X14889000Y-13901238D02*
X14889000Y-13891714D01*
X14889000Y-13891714D02*
X14898524Y-13872667D01*
X14898524Y-13872667D02*
X14917572Y-13863143D01*
X14917572Y-13863143D02*
X14946143Y-13863143D01*
X14946143Y-13863143D02*
X14965191Y-13872667D01*
X15041381Y-14072667D02*
X15050905Y-14063143D01*
X15050905Y-14063143D02*
X15069953Y-14034571D01*
X15069953Y-14034571D02*
X15079476Y-14015524D01*
X15079476Y-14015524D02*
X15089000Y-13986952D01*
X15089000Y-13986952D02*
X15098524Y-13939333D01*
X15098524Y-13939333D02*
X15098524Y-13901238D01*
X15098524Y-13901238D02*
X15089000Y-13853619D01*
X15089000Y-13853619D02*
X15079476Y-13825048D01*
X15079476Y-13825048D02*
X15069953Y-13806000D01*
X15069953Y-13806000D02*
X15050905Y-13777428D01*
X15050905Y-13777428D02*
X15041381Y-13767905D01*
M02*
