%TF.GenerationSoftware,KiCad,Pcbnew,(7.0.0)*%
%TF.CreationDate,2023-02-28T14:37:34-05:00*%
%TF.ProjectId,8bc_clock_4,3862635f-636c-46f6-936b-5f342e6b6963,rev?*%
%TF.SameCoordinates,Original*%
%TF.FileFunction,Legend,Top*%
%TF.FilePolarity,Positive*%
%FSLAX46Y46*%
G04 Gerber Fmt 4.6, Leading zero omitted, Abs format (unit mm)*
G04 Created by KiCad (PCBNEW (7.0.0)) date 2023-02-28 14:37:34*
%MOMM*%
%LPD*%
G01*
G04 APERTURE LIST*
%ADD10C,0.150000*%
%ADD11C,0.120000*%
G04 APERTURE END LIST*
D10*
%TO.C,R1*%
X155768052Y-74944885D02*
X155434719Y-74468695D01*
X155196624Y-74944885D02*
X155196624Y-73944885D01*
X155196624Y-73944885D02*
X155577576Y-73944885D01*
X155577576Y-73944885D02*
X155672814Y-73992505D01*
X155672814Y-73992505D02*
X155720433Y-74040124D01*
X155720433Y-74040124D02*
X155768052Y-74135362D01*
X155768052Y-74135362D02*
X155768052Y-74278219D01*
X155768052Y-74278219D02*
X155720433Y-74373457D01*
X155720433Y-74373457D02*
X155672814Y-74421076D01*
X155672814Y-74421076D02*
X155577576Y-74468695D01*
X155577576Y-74468695D02*
X155196624Y-74468695D01*
X156720433Y-74944885D02*
X156149005Y-74944885D01*
X156434719Y-74944885D02*
X156434719Y-73944885D01*
X156434719Y-73944885D02*
X156339481Y-74087743D01*
X156339481Y-74087743D02*
X156244243Y-74182981D01*
X156244243Y-74182981D02*
X156149005Y-74230600D01*
%TO.C,C7*%
X113213333Y-104422142D02*
X113165714Y-104469761D01*
X113165714Y-104469761D02*
X113022857Y-104517380D01*
X113022857Y-104517380D02*
X112927619Y-104517380D01*
X112927619Y-104517380D02*
X112784762Y-104469761D01*
X112784762Y-104469761D02*
X112689524Y-104374523D01*
X112689524Y-104374523D02*
X112641905Y-104279285D01*
X112641905Y-104279285D02*
X112594286Y-104088809D01*
X112594286Y-104088809D02*
X112594286Y-103945952D01*
X112594286Y-103945952D02*
X112641905Y-103755476D01*
X112641905Y-103755476D02*
X112689524Y-103660238D01*
X112689524Y-103660238D02*
X112784762Y-103565000D01*
X112784762Y-103565000D02*
X112927619Y-103517380D01*
X112927619Y-103517380D02*
X113022857Y-103517380D01*
X113022857Y-103517380D02*
X113165714Y-103565000D01*
X113165714Y-103565000D02*
X113213333Y-103612619D01*
X113546667Y-103517380D02*
X114213333Y-103517380D01*
X114213333Y-103517380D02*
X113784762Y-104517380D01*
%TO.C,U3*%
X144528095Y-65407380D02*
X144528095Y-66216904D01*
X144528095Y-66216904D02*
X144575714Y-66312142D01*
X144575714Y-66312142D02*
X144623333Y-66359761D01*
X144623333Y-66359761D02*
X144718571Y-66407380D01*
X144718571Y-66407380D02*
X144909047Y-66407380D01*
X144909047Y-66407380D02*
X145004285Y-66359761D01*
X145004285Y-66359761D02*
X145051904Y-66312142D01*
X145051904Y-66312142D02*
X145099523Y-66216904D01*
X145099523Y-66216904D02*
X145099523Y-65407380D01*
X145480476Y-65407380D02*
X146099523Y-65407380D01*
X146099523Y-65407380D02*
X145766190Y-65788333D01*
X145766190Y-65788333D02*
X145909047Y-65788333D01*
X145909047Y-65788333D02*
X146004285Y-65835952D01*
X146004285Y-65835952D02*
X146051904Y-65883571D01*
X146051904Y-65883571D02*
X146099523Y-65978809D01*
X146099523Y-65978809D02*
X146099523Y-66216904D01*
X146099523Y-66216904D02*
X146051904Y-66312142D01*
X146051904Y-66312142D02*
X146004285Y-66359761D01*
X146004285Y-66359761D02*
X145909047Y-66407380D01*
X145909047Y-66407380D02*
X145623333Y-66407380D01*
X145623333Y-66407380D02*
X145528095Y-66359761D01*
X145528095Y-66359761D02*
X145480476Y-66312142D01*
%TO.C,C2*%
X154104890Y-64091914D02*
X154057271Y-64139533D01*
X154057271Y-64139533D02*
X153914414Y-64187152D01*
X153914414Y-64187152D02*
X153819176Y-64187152D01*
X153819176Y-64187152D02*
X153676319Y-64139533D01*
X153676319Y-64139533D02*
X153581081Y-64044295D01*
X153581081Y-64044295D02*
X153533462Y-63949057D01*
X153533462Y-63949057D02*
X153485843Y-63758581D01*
X153485843Y-63758581D02*
X153485843Y-63615724D01*
X153485843Y-63615724D02*
X153533462Y-63425248D01*
X153533462Y-63425248D02*
X153581081Y-63330010D01*
X153581081Y-63330010D02*
X153676319Y-63234772D01*
X153676319Y-63234772D02*
X153819176Y-63187152D01*
X153819176Y-63187152D02*
X153914414Y-63187152D01*
X153914414Y-63187152D02*
X154057271Y-63234772D01*
X154057271Y-63234772D02*
X154104890Y-63282391D01*
X154485843Y-63282391D02*
X154533462Y-63234772D01*
X154533462Y-63234772D02*
X154628700Y-63187152D01*
X154628700Y-63187152D02*
X154866795Y-63187152D01*
X154866795Y-63187152D02*
X154962033Y-63234772D01*
X154962033Y-63234772D02*
X155009652Y-63282391D01*
X155009652Y-63282391D02*
X155057271Y-63377629D01*
X155057271Y-63377629D02*
X155057271Y-63472867D01*
X155057271Y-63472867D02*
X155009652Y-63615724D01*
X155009652Y-63615724D02*
X154438224Y-64187152D01*
X154438224Y-64187152D02*
X155057271Y-64187152D01*
%TO.C,R5*%
X123405366Y-102853510D02*
X123072033Y-102377320D01*
X122833938Y-102853510D02*
X122833938Y-101853510D01*
X122833938Y-101853510D02*
X123214890Y-101853510D01*
X123214890Y-101853510D02*
X123310128Y-101901130D01*
X123310128Y-101901130D02*
X123357747Y-101948749D01*
X123357747Y-101948749D02*
X123405366Y-102043987D01*
X123405366Y-102043987D02*
X123405366Y-102186844D01*
X123405366Y-102186844D02*
X123357747Y-102282082D01*
X123357747Y-102282082D02*
X123310128Y-102329701D01*
X123310128Y-102329701D02*
X123214890Y-102377320D01*
X123214890Y-102377320D02*
X122833938Y-102377320D01*
X124310128Y-101853510D02*
X123833938Y-101853510D01*
X123833938Y-101853510D02*
X123786319Y-102329701D01*
X123786319Y-102329701D02*
X123833938Y-102282082D01*
X123833938Y-102282082D02*
X123929176Y-102234463D01*
X123929176Y-102234463D02*
X124167271Y-102234463D01*
X124167271Y-102234463D02*
X124262509Y-102282082D01*
X124262509Y-102282082D02*
X124310128Y-102329701D01*
X124310128Y-102329701D02*
X124357747Y-102424939D01*
X124357747Y-102424939D02*
X124357747Y-102663034D01*
X124357747Y-102663034D02*
X124310128Y-102758272D01*
X124310128Y-102758272D02*
X124262509Y-102805891D01*
X124262509Y-102805891D02*
X124167271Y-102853510D01*
X124167271Y-102853510D02*
X123929176Y-102853510D01*
X123929176Y-102853510D02*
X123833938Y-102805891D01*
X123833938Y-102805891D02*
X123786319Y-102758272D01*
%TO.C,U5*%
X133738795Y-82101754D02*
X133738795Y-82911278D01*
X133738795Y-82911278D02*
X133786414Y-83006516D01*
X133786414Y-83006516D02*
X133834033Y-83054135D01*
X133834033Y-83054135D02*
X133929271Y-83101754D01*
X133929271Y-83101754D02*
X134119747Y-83101754D01*
X134119747Y-83101754D02*
X134214985Y-83054135D01*
X134214985Y-83054135D02*
X134262604Y-83006516D01*
X134262604Y-83006516D02*
X134310223Y-82911278D01*
X134310223Y-82911278D02*
X134310223Y-82101754D01*
X135262604Y-82101754D02*
X134786414Y-82101754D01*
X134786414Y-82101754D02*
X134738795Y-82577945D01*
X134738795Y-82577945D02*
X134786414Y-82530326D01*
X134786414Y-82530326D02*
X134881652Y-82482707D01*
X134881652Y-82482707D02*
X135119747Y-82482707D01*
X135119747Y-82482707D02*
X135214985Y-82530326D01*
X135214985Y-82530326D02*
X135262604Y-82577945D01*
X135262604Y-82577945D02*
X135310223Y-82673183D01*
X135310223Y-82673183D02*
X135310223Y-82911278D01*
X135310223Y-82911278D02*
X135262604Y-83006516D01*
X135262604Y-83006516D02*
X135214985Y-83054135D01*
X135214985Y-83054135D02*
X135119747Y-83101754D01*
X135119747Y-83101754D02*
X134881652Y-83101754D01*
X134881652Y-83101754D02*
X134786414Y-83054135D01*
X134786414Y-83054135D02*
X134738795Y-83006516D01*
%TO.C,U2*%
X133678095Y-65407380D02*
X133678095Y-66216904D01*
X133678095Y-66216904D02*
X133725714Y-66312142D01*
X133725714Y-66312142D02*
X133773333Y-66359761D01*
X133773333Y-66359761D02*
X133868571Y-66407380D01*
X133868571Y-66407380D02*
X134059047Y-66407380D01*
X134059047Y-66407380D02*
X134154285Y-66359761D01*
X134154285Y-66359761D02*
X134201904Y-66312142D01*
X134201904Y-66312142D02*
X134249523Y-66216904D01*
X134249523Y-66216904D02*
X134249523Y-65407380D01*
X134678095Y-65502619D02*
X134725714Y-65455000D01*
X134725714Y-65455000D02*
X134820952Y-65407380D01*
X134820952Y-65407380D02*
X135059047Y-65407380D01*
X135059047Y-65407380D02*
X135154285Y-65455000D01*
X135154285Y-65455000D02*
X135201904Y-65502619D01*
X135201904Y-65502619D02*
X135249523Y-65597857D01*
X135249523Y-65597857D02*
X135249523Y-65693095D01*
X135249523Y-65693095D02*
X135201904Y-65835952D01*
X135201904Y-65835952D02*
X134630476Y-66407380D01*
X134630476Y-66407380D02*
X135249523Y-66407380D01*
%TO.C,C6*%
X113213333Y-94872142D02*
X113165714Y-94919761D01*
X113165714Y-94919761D02*
X113022857Y-94967380D01*
X113022857Y-94967380D02*
X112927619Y-94967380D01*
X112927619Y-94967380D02*
X112784762Y-94919761D01*
X112784762Y-94919761D02*
X112689524Y-94824523D01*
X112689524Y-94824523D02*
X112641905Y-94729285D01*
X112641905Y-94729285D02*
X112594286Y-94538809D01*
X112594286Y-94538809D02*
X112594286Y-94395952D01*
X112594286Y-94395952D02*
X112641905Y-94205476D01*
X112641905Y-94205476D02*
X112689524Y-94110238D01*
X112689524Y-94110238D02*
X112784762Y-94015000D01*
X112784762Y-94015000D02*
X112927619Y-93967380D01*
X112927619Y-93967380D02*
X113022857Y-93967380D01*
X113022857Y-93967380D02*
X113165714Y-94015000D01*
X113165714Y-94015000D02*
X113213333Y-94062619D01*
X114070476Y-93967380D02*
X113880000Y-93967380D01*
X113880000Y-93967380D02*
X113784762Y-94015000D01*
X113784762Y-94015000D02*
X113737143Y-94062619D01*
X113737143Y-94062619D02*
X113641905Y-94205476D01*
X113641905Y-94205476D02*
X113594286Y-94395952D01*
X113594286Y-94395952D02*
X113594286Y-94776904D01*
X113594286Y-94776904D02*
X113641905Y-94872142D01*
X113641905Y-94872142D02*
X113689524Y-94919761D01*
X113689524Y-94919761D02*
X113784762Y-94967380D01*
X113784762Y-94967380D02*
X113975238Y-94967380D01*
X113975238Y-94967380D02*
X114070476Y-94919761D01*
X114070476Y-94919761D02*
X114118095Y-94872142D01*
X114118095Y-94872142D02*
X114165714Y-94776904D01*
X114165714Y-94776904D02*
X114165714Y-94538809D01*
X114165714Y-94538809D02*
X114118095Y-94443571D01*
X114118095Y-94443571D02*
X114070476Y-94395952D01*
X114070476Y-94395952D02*
X113975238Y-94348333D01*
X113975238Y-94348333D02*
X113784762Y-94348333D01*
X113784762Y-94348333D02*
X113689524Y-94395952D01*
X113689524Y-94395952D02*
X113641905Y-94443571D01*
X113641905Y-94443571D02*
X113594286Y-94538809D01*
%TO.C,R3*%
X123362921Y-94689402D02*
X123029588Y-94213212D01*
X122791493Y-94689402D02*
X122791493Y-93689402D01*
X122791493Y-93689402D02*
X123172445Y-93689402D01*
X123172445Y-93689402D02*
X123267683Y-93737022D01*
X123267683Y-93737022D02*
X123315302Y-93784641D01*
X123315302Y-93784641D02*
X123362921Y-93879879D01*
X123362921Y-93879879D02*
X123362921Y-94022736D01*
X123362921Y-94022736D02*
X123315302Y-94117974D01*
X123315302Y-94117974D02*
X123267683Y-94165593D01*
X123267683Y-94165593D02*
X123172445Y-94213212D01*
X123172445Y-94213212D02*
X122791493Y-94213212D01*
X123696255Y-93689402D02*
X124315302Y-93689402D01*
X124315302Y-93689402D02*
X123981969Y-94070355D01*
X123981969Y-94070355D02*
X124124826Y-94070355D01*
X124124826Y-94070355D02*
X124220064Y-94117974D01*
X124220064Y-94117974D02*
X124267683Y-94165593D01*
X124267683Y-94165593D02*
X124315302Y-94260831D01*
X124315302Y-94260831D02*
X124315302Y-94498926D01*
X124315302Y-94498926D02*
X124267683Y-94594164D01*
X124267683Y-94594164D02*
X124220064Y-94641783D01*
X124220064Y-94641783D02*
X124124826Y-94689402D01*
X124124826Y-94689402D02*
X123839112Y-94689402D01*
X123839112Y-94689402D02*
X123743874Y-94641783D01*
X123743874Y-94641783D02*
X123696255Y-94594164D01*
%TO.C,U6*%
X144585540Y-81984492D02*
X144585540Y-82794016D01*
X144585540Y-82794016D02*
X144633159Y-82889254D01*
X144633159Y-82889254D02*
X144680778Y-82936873D01*
X144680778Y-82936873D02*
X144776016Y-82984492D01*
X144776016Y-82984492D02*
X144966492Y-82984492D01*
X144966492Y-82984492D02*
X145061730Y-82936873D01*
X145061730Y-82936873D02*
X145109349Y-82889254D01*
X145109349Y-82889254D02*
X145156968Y-82794016D01*
X145156968Y-82794016D02*
X145156968Y-81984492D01*
X146061730Y-81984492D02*
X145871254Y-81984492D01*
X145871254Y-81984492D02*
X145776016Y-82032112D01*
X145776016Y-82032112D02*
X145728397Y-82079731D01*
X145728397Y-82079731D02*
X145633159Y-82222588D01*
X145633159Y-82222588D02*
X145585540Y-82413064D01*
X145585540Y-82413064D02*
X145585540Y-82794016D01*
X145585540Y-82794016D02*
X145633159Y-82889254D01*
X145633159Y-82889254D02*
X145680778Y-82936873D01*
X145680778Y-82936873D02*
X145776016Y-82984492D01*
X145776016Y-82984492D02*
X145966492Y-82984492D01*
X145966492Y-82984492D02*
X146061730Y-82936873D01*
X146061730Y-82936873D02*
X146109349Y-82889254D01*
X146109349Y-82889254D02*
X146156968Y-82794016D01*
X146156968Y-82794016D02*
X146156968Y-82555921D01*
X146156968Y-82555921D02*
X146109349Y-82460683D01*
X146109349Y-82460683D02*
X146061730Y-82413064D01*
X146061730Y-82413064D02*
X145966492Y-82365445D01*
X145966492Y-82365445D02*
X145776016Y-82365445D01*
X145776016Y-82365445D02*
X145680778Y-82413064D01*
X145680778Y-82413064D02*
X145633159Y-82460683D01*
X145633159Y-82460683D02*
X145585540Y-82555921D01*
%TO.C,C4*%
X113213333Y-75772142D02*
X113165714Y-75819761D01*
X113165714Y-75819761D02*
X113022857Y-75867380D01*
X113022857Y-75867380D02*
X112927619Y-75867380D01*
X112927619Y-75867380D02*
X112784762Y-75819761D01*
X112784762Y-75819761D02*
X112689524Y-75724523D01*
X112689524Y-75724523D02*
X112641905Y-75629285D01*
X112641905Y-75629285D02*
X112594286Y-75438809D01*
X112594286Y-75438809D02*
X112594286Y-75295952D01*
X112594286Y-75295952D02*
X112641905Y-75105476D01*
X112641905Y-75105476D02*
X112689524Y-75010238D01*
X112689524Y-75010238D02*
X112784762Y-74915000D01*
X112784762Y-74915000D02*
X112927619Y-74867380D01*
X112927619Y-74867380D02*
X113022857Y-74867380D01*
X113022857Y-74867380D02*
X113165714Y-74915000D01*
X113165714Y-74915000D02*
X113213333Y-74962619D01*
X114070476Y-75200714D02*
X114070476Y-75867380D01*
X113832381Y-74819761D02*
X113594286Y-75534047D01*
X113594286Y-75534047D02*
X114213333Y-75534047D01*
%TO.C,R4*%
X123392942Y-98742246D02*
X123059609Y-98266056D01*
X122821514Y-98742246D02*
X122821514Y-97742246D01*
X122821514Y-97742246D02*
X123202466Y-97742246D01*
X123202466Y-97742246D02*
X123297704Y-97789866D01*
X123297704Y-97789866D02*
X123345323Y-97837485D01*
X123345323Y-97837485D02*
X123392942Y-97932723D01*
X123392942Y-97932723D02*
X123392942Y-98075580D01*
X123392942Y-98075580D02*
X123345323Y-98170818D01*
X123345323Y-98170818D02*
X123297704Y-98218437D01*
X123297704Y-98218437D02*
X123202466Y-98266056D01*
X123202466Y-98266056D02*
X122821514Y-98266056D01*
X124250085Y-98075580D02*
X124250085Y-98742246D01*
X124011990Y-97694627D02*
X123773895Y-98408913D01*
X123773895Y-98408913D02*
X124392942Y-98408913D01*
%TO.C,SW2*%
X154684517Y-83709123D02*
X154827374Y-83756742D01*
X154827374Y-83756742D02*
X155065469Y-83756742D01*
X155065469Y-83756742D02*
X155160707Y-83709123D01*
X155160707Y-83709123D02*
X155208326Y-83661504D01*
X155208326Y-83661504D02*
X155255945Y-83566266D01*
X155255945Y-83566266D02*
X155255945Y-83471028D01*
X155255945Y-83471028D02*
X155208326Y-83375790D01*
X155208326Y-83375790D02*
X155160707Y-83328171D01*
X155160707Y-83328171D02*
X155065469Y-83280552D01*
X155065469Y-83280552D02*
X154874993Y-83232933D01*
X154874993Y-83232933D02*
X154779755Y-83185314D01*
X154779755Y-83185314D02*
X154732136Y-83137695D01*
X154732136Y-83137695D02*
X154684517Y-83042457D01*
X154684517Y-83042457D02*
X154684517Y-82947219D01*
X154684517Y-82947219D02*
X154732136Y-82851981D01*
X154732136Y-82851981D02*
X154779755Y-82804362D01*
X154779755Y-82804362D02*
X154874993Y-82756742D01*
X154874993Y-82756742D02*
X155113088Y-82756742D01*
X155113088Y-82756742D02*
X155255945Y-82804362D01*
X155589279Y-82756742D02*
X155827374Y-83756742D01*
X155827374Y-83756742D02*
X156017850Y-83042457D01*
X156017850Y-83042457D02*
X156208326Y-83756742D01*
X156208326Y-83756742D02*
X156446422Y-82756742D01*
X156779755Y-82851981D02*
X156827374Y-82804362D01*
X156827374Y-82804362D02*
X156922612Y-82756742D01*
X156922612Y-82756742D02*
X157160707Y-82756742D01*
X157160707Y-82756742D02*
X157255945Y-82804362D01*
X157255945Y-82804362D02*
X157303564Y-82851981D01*
X157303564Y-82851981D02*
X157351183Y-82947219D01*
X157351183Y-82947219D02*
X157351183Y-83042457D01*
X157351183Y-83042457D02*
X157303564Y-83185314D01*
X157303564Y-83185314D02*
X156732136Y-83756742D01*
X156732136Y-83756742D02*
X157351183Y-83756742D01*
%TO.C,RV1*%
X137090073Y-99824419D02*
X136756740Y-99348229D01*
X136518645Y-99824419D02*
X136518645Y-98824419D01*
X136518645Y-98824419D02*
X136899597Y-98824419D01*
X136899597Y-98824419D02*
X136994835Y-98872039D01*
X136994835Y-98872039D02*
X137042454Y-98919658D01*
X137042454Y-98919658D02*
X137090073Y-99014896D01*
X137090073Y-99014896D02*
X137090073Y-99157753D01*
X137090073Y-99157753D02*
X137042454Y-99252991D01*
X137042454Y-99252991D02*
X136994835Y-99300610D01*
X136994835Y-99300610D02*
X136899597Y-99348229D01*
X136899597Y-99348229D02*
X136518645Y-99348229D01*
X137375788Y-98824419D02*
X137709121Y-99824419D01*
X137709121Y-99824419D02*
X138042454Y-98824419D01*
X138899597Y-99824419D02*
X138328169Y-99824419D01*
X138613883Y-99824419D02*
X138613883Y-98824419D01*
X138613883Y-98824419D02*
X138518645Y-98967277D01*
X138518645Y-98967277D02*
X138423407Y-99062515D01*
X138423407Y-99062515D02*
X138328169Y-99110134D01*
%TO.C,D1*%
X154034950Y-102436557D02*
X154034950Y-101436557D01*
X154034950Y-101436557D02*
X154273045Y-101436557D01*
X154273045Y-101436557D02*
X154415902Y-101484177D01*
X154415902Y-101484177D02*
X154511140Y-101579415D01*
X154511140Y-101579415D02*
X154558759Y-101674653D01*
X154558759Y-101674653D02*
X154606378Y-101865129D01*
X154606378Y-101865129D02*
X154606378Y-102007986D01*
X154606378Y-102007986D02*
X154558759Y-102198462D01*
X154558759Y-102198462D02*
X154511140Y-102293700D01*
X154511140Y-102293700D02*
X154415902Y-102388938D01*
X154415902Y-102388938D02*
X154273045Y-102436557D01*
X154273045Y-102436557D02*
X154034950Y-102436557D01*
X155558759Y-102436557D02*
X154987331Y-102436557D01*
X155273045Y-102436557D02*
X155273045Y-101436557D01*
X155273045Y-101436557D02*
X155177807Y-101579415D01*
X155177807Y-101579415D02*
X155082569Y-101674653D01*
X155082569Y-101674653D02*
X154987331Y-101722272D01*
%TO.C,C3*%
X113213333Y-66222142D02*
X113165714Y-66269761D01*
X113165714Y-66269761D02*
X113022857Y-66317380D01*
X113022857Y-66317380D02*
X112927619Y-66317380D01*
X112927619Y-66317380D02*
X112784762Y-66269761D01*
X112784762Y-66269761D02*
X112689524Y-66174523D01*
X112689524Y-66174523D02*
X112641905Y-66079285D01*
X112641905Y-66079285D02*
X112594286Y-65888809D01*
X112594286Y-65888809D02*
X112594286Y-65745952D01*
X112594286Y-65745952D02*
X112641905Y-65555476D01*
X112641905Y-65555476D02*
X112689524Y-65460238D01*
X112689524Y-65460238D02*
X112784762Y-65365000D01*
X112784762Y-65365000D02*
X112927619Y-65317380D01*
X112927619Y-65317380D02*
X113022857Y-65317380D01*
X113022857Y-65317380D02*
X113165714Y-65365000D01*
X113165714Y-65365000D02*
X113213333Y-65412619D01*
X113546667Y-65317380D02*
X114165714Y-65317380D01*
X114165714Y-65317380D02*
X113832381Y-65698333D01*
X113832381Y-65698333D02*
X113975238Y-65698333D01*
X113975238Y-65698333D02*
X114070476Y-65745952D01*
X114070476Y-65745952D02*
X114118095Y-65793571D01*
X114118095Y-65793571D02*
X114165714Y-65888809D01*
X114165714Y-65888809D02*
X114165714Y-66126904D01*
X114165714Y-66126904D02*
X114118095Y-66222142D01*
X114118095Y-66222142D02*
X114070476Y-66269761D01*
X114070476Y-66269761D02*
X113975238Y-66317380D01*
X113975238Y-66317380D02*
X113689524Y-66317380D01*
X113689524Y-66317380D02*
X113594286Y-66269761D01*
X113594286Y-66269761D02*
X113546667Y-66222142D01*
%TO.C,J1*%
X145841425Y-106878510D02*
X145841425Y-107592796D01*
X145841425Y-107592796D02*
X145793806Y-107735653D01*
X145793806Y-107735653D02*
X145698568Y-107830891D01*
X145698568Y-107830891D02*
X145555711Y-107878510D01*
X145555711Y-107878510D02*
X145460473Y-107878510D01*
X146841425Y-107878510D02*
X146269997Y-107878510D01*
X146555711Y-107878510D02*
X146555711Y-106878510D01*
X146555711Y-106878510D02*
X146460473Y-107021368D01*
X146460473Y-107021368D02*
X146365235Y-107116606D01*
X146365235Y-107116606D02*
X146269997Y-107164225D01*
%TO.C,R6*%
X123373333Y-107047380D02*
X123040000Y-106571190D01*
X122801905Y-107047380D02*
X122801905Y-106047380D01*
X122801905Y-106047380D02*
X123182857Y-106047380D01*
X123182857Y-106047380D02*
X123278095Y-106095000D01*
X123278095Y-106095000D02*
X123325714Y-106142619D01*
X123325714Y-106142619D02*
X123373333Y-106237857D01*
X123373333Y-106237857D02*
X123373333Y-106380714D01*
X123373333Y-106380714D02*
X123325714Y-106475952D01*
X123325714Y-106475952D02*
X123278095Y-106523571D01*
X123278095Y-106523571D02*
X123182857Y-106571190D01*
X123182857Y-106571190D02*
X122801905Y-106571190D01*
X124230476Y-106047380D02*
X124040000Y-106047380D01*
X124040000Y-106047380D02*
X123944762Y-106095000D01*
X123944762Y-106095000D02*
X123897143Y-106142619D01*
X123897143Y-106142619D02*
X123801905Y-106285476D01*
X123801905Y-106285476D02*
X123754286Y-106475952D01*
X123754286Y-106475952D02*
X123754286Y-106856904D01*
X123754286Y-106856904D02*
X123801905Y-106952142D01*
X123801905Y-106952142D02*
X123849524Y-106999761D01*
X123849524Y-106999761D02*
X123944762Y-107047380D01*
X123944762Y-107047380D02*
X124135238Y-107047380D01*
X124135238Y-107047380D02*
X124230476Y-106999761D01*
X124230476Y-106999761D02*
X124278095Y-106952142D01*
X124278095Y-106952142D02*
X124325714Y-106856904D01*
X124325714Y-106856904D02*
X124325714Y-106618809D01*
X124325714Y-106618809D02*
X124278095Y-106523571D01*
X124278095Y-106523571D02*
X124230476Y-106475952D01*
X124230476Y-106475952D02*
X124135238Y-106428333D01*
X124135238Y-106428333D02*
X123944762Y-106428333D01*
X123944762Y-106428333D02*
X123849524Y-106475952D01*
X123849524Y-106475952D02*
X123801905Y-106523571D01*
X123801905Y-106523571D02*
X123754286Y-106618809D01*
%TO.C,R7*%
X135469029Y-108598186D02*
X135135696Y-108121996D01*
X134897601Y-108598186D02*
X134897601Y-107598186D01*
X134897601Y-107598186D02*
X135278553Y-107598186D01*
X135278553Y-107598186D02*
X135373791Y-107645806D01*
X135373791Y-107645806D02*
X135421410Y-107693425D01*
X135421410Y-107693425D02*
X135469029Y-107788663D01*
X135469029Y-107788663D02*
X135469029Y-107931520D01*
X135469029Y-107931520D02*
X135421410Y-108026758D01*
X135421410Y-108026758D02*
X135373791Y-108074377D01*
X135373791Y-108074377D02*
X135278553Y-108121996D01*
X135278553Y-108121996D02*
X134897601Y-108121996D01*
X135802363Y-107598186D02*
X136469029Y-107598186D01*
X136469029Y-107598186D02*
X136040458Y-108598186D01*
%TO.C,SW1*%
X154956667Y-93174761D02*
X155099524Y-93222380D01*
X155099524Y-93222380D02*
X155337619Y-93222380D01*
X155337619Y-93222380D02*
X155432857Y-93174761D01*
X155432857Y-93174761D02*
X155480476Y-93127142D01*
X155480476Y-93127142D02*
X155528095Y-93031904D01*
X155528095Y-93031904D02*
X155528095Y-92936666D01*
X155528095Y-92936666D02*
X155480476Y-92841428D01*
X155480476Y-92841428D02*
X155432857Y-92793809D01*
X155432857Y-92793809D02*
X155337619Y-92746190D01*
X155337619Y-92746190D02*
X155147143Y-92698571D01*
X155147143Y-92698571D02*
X155051905Y-92650952D01*
X155051905Y-92650952D02*
X155004286Y-92603333D01*
X155004286Y-92603333D02*
X154956667Y-92508095D01*
X154956667Y-92508095D02*
X154956667Y-92412857D01*
X154956667Y-92412857D02*
X155004286Y-92317619D01*
X155004286Y-92317619D02*
X155051905Y-92270000D01*
X155051905Y-92270000D02*
X155147143Y-92222380D01*
X155147143Y-92222380D02*
X155385238Y-92222380D01*
X155385238Y-92222380D02*
X155528095Y-92270000D01*
X155861429Y-92222380D02*
X156099524Y-93222380D01*
X156099524Y-93222380D02*
X156290000Y-92508095D01*
X156290000Y-92508095D02*
X156480476Y-93222380D01*
X156480476Y-93222380D02*
X156718572Y-92222380D01*
X157623333Y-93222380D02*
X157051905Y-93222380D01*
X157337619Y-93222380D02*
X157337619Y-92222380D01*
X157337619Y-92222380D02*
X157242381Y-92365238D01*
X157242381Y-92365238D02*
X157147143Y-92460476D01*
X157147143Y-92460476D02*
X157051905Y-92508095D01*
%TO.C,U1*%
X122828095Y-65407380D02*
X122828095Y-66216904D01*
X122828095Y-66216904D02*
X122875714Y-66312142D01*
X122875714Y-66312142D02*
X122923333Y-66359761D01*
X122923333Y-66359761D02*
X123018571Y-66407380D01*
X123018571Y-66407380D02*
X123209047Y-66407380D01*
X123209047Y-66407380D02*
X123304285Y-66359761D01*
X123304285Y-66359761D02*
X123351904Y-66312142D01*
X123351904Y-66312142D02*
X123399523Y-66216904D01*
X123399523Y-66216904D02*
X123399523Y-65407380D01*
X124399523Y-66407380D02*
X123828095Y-66407380D01*
X124113809Y-66407380D02*
X124113809Y-65407380D01*
X124113809Y-65407380D02*
X124018571Y-65550238D01*
X124018571Y-65550238D02*
X123923333Y-65645476D01*
X123923333Y-65645476D02*
X123828095Y-65693095D01*
%TO.C,R2*%
X156017444Y-78062287D02*
X155684111Y-77586097D01*
X155446016Y-78062287D02*
X155446016Y-77062287D01*
X155446016Y-77062287D02*
X155826968Y-77062287D01*
X155826968Y-77062287D02*
X155922206Y-77109907D01*
X155922206Y-77109907D02*
X155969825Y-77157526D01*
X155969825Y-77157526D02*
X156017444Y-77252764D01*
X156017444Y-77252764D02*
X156017444Y-77395621D01*
X156017444Y-77395621D02*
X155969825Y-77490859D01*
X155969825Y-77490859D02*
X155922206Y-77538478D01*
X155922206Y-77538478D02*
X155826968Y-77586097D01*
X155826968Y-77586097D02*
X155446016Y-77586097D01*
X156398397Y-77157526D02*
X156446016Y-77109907D01*
X156446016Y-77109907D02*
X156541254Y-77062287D01*
X156541254Y-77062287D02*
X156779349Y-77062287D01*
X156779349Y-77062287D02*
X156874587Y-77109907D01*
X156874587Y-77109907D02*
X156922206Y-77157526D01*
X156922206Y-77157526D02*
X156969825Y-77252764D01*
X156969825Y-77252764D02*
X156969825Y-77348002D01*
X156969825Y-77348002D02*
X156922206Y-77490859D01*
X156922206Y-77490859D02*
X156350778Y-78062287D01*
X156350778Y-78062287D02*
X156969825Y-78062287D01*
%TO.C,U4*%
X122950682Y-81984492D02*
X122950682Y-82794016D01*
X122950682Y-82794016D02*
X122998301Y-82889254D01*
X122998301Y-82889254D02*
X123045920Y-82936873D01*
X123045920Y-82936873D02*
X123141158Y-82984492D01*
X123141158Y-82984492D02*
X123331634Y-82984492D01*
X123331634Y-82984492D02*
X123426872Y-82936873D01*
X123426872Y-82936873D02*
X123474491Y-82889254D01*
X123474491Y-82889254D02*
X123522110Y-82794016D01*
X123522110Y-82794016D02*
X123522110Y-81984492D01*
X124426872Y-82317826D02*
X124426872Y-82984492D01*
X124188777Y-81936873D02*
X123950682Y-82651159D01*
X123950682Y-82651159D02*
X124569729Y-82651159D01*
%TO.C,C5*%
X113213333Y-85322142D02*
X113165714Y-85369761D01*
X113165714Y-85369761D02*
X113022857Y-85417380D01*
X113022857Y-85417380D02*
X112927619Y-85417380D01*
X112927619Y-85417380D02*
X112784762Y-85369761D01*
X112784762Y-85369761D02*
X112689524Y-85274523D01*
X112689524Y-85274523D02*
X112641905Y-85179285D01*
X112641905Y-85179285D02*
X112594286Y-84988809D01*
X112594286Y-84988809D02*
X112594286Y-84845952D01*
X112594286Y-84845952D02*
X112641905Y-84655476D01*
X112641905Y-84655476D02*
X112689524Y-84560238D01*
X112689524Y-84560238D02*
X112784762Y-84465000D01*
X112784762Y-84465000D02*
X112927619Y-84417380D01*
X112927619Y-84417380D02*
X113022857Y-84417380D01*
X113022857Y-84417380D02*
X113165714Y-84465000D01*
X113165714Y-84465000D02*
X113213333Y-84512619D01*
X114118095Y-84417380D02*
X113641905Y-84417380D01*
X113641905Y-84417380D02*
X113594286Y-84893571D01*
X113594286Y-84893571D02*
X113641905Y-84845952D01*
X113641905Y-84845952D02*
X113737143Y-84798333D01*
X113737143Y-84798333D02*
X113975238Y-84798333D01*
X113975238Y-84798333D02*
X114070476Y-84845952D01*
X114070476Y-84845952D02*
X114118095Y-84893571D01*
X114118095Y-84893571D02*
X114165714Y-84988809D01*
X114165714Y-84988809D02*
X114165714Y-85226904D01*
X114165714Y-85226904D02*
X114118095Y-85322142D01*
X114118095Y-85322142D02*
X114070476Y-85369761D01*
X114070476Y-85369761D02*
X113975238Y-85417380D01*
X113975238Y-85417380D02*
X113737143Y-85417380D01*
X113737143Y-85417380D02*
X113641905Y-85369761D01*
X113641905Y-85369761D02*
X113594286Y-85322142D01*
%TO.C,C1*%
X154660798Y-90151344D02*
X154613179Y-90198963D01*
X154613179Y-90198963D02*
X154470322Y-90246582D01*
X154470322Y-90246582D02*
X154375084Y-90246582D01*
X154375084Y-90246582D02*
X154232227Y-90198963D01*
X154232227Y-90198963D02*
X154136989Y-90103725D01*
X154136989Y-90103725D02*
X154089370Y-90008487D01*
X154089370Y-90008487D02*
X154041751Y-89818011D01*
X154041751Y-89818011D02*
X154041751Y-89675154D01*
X154041751Y-89675154D02*
X154089370Y-89484678D01*
X154089370Y-89484678D02*
X154136989Y-89389440D01*
X154136989Y-89389440D02*
X154232227Y-89294202D01*
X154232227Y-89294202D02*
X154375084Y-89246582D01*
X154375084Y-89246582D02*
X154470322Y-89246582D01*
X154470322Y-89246582D02*
X154613179Y-89294202D01*
X154613179Y-89294202D02*
X154660798Y-89341821D01*
X155613179Y-90246582D02*
X155041751Y-90246582D01*
X155327465Y-90246582D02*
X155327465Y-89246582D01*
X155327465Y-89246582D02*
X155232227Y-89389440D01*
X155232227Y-89389440D02*
X155136989Y-89484678D01*
X155136989Y-89484678D02*
X155041751Y-89532297D01*
D11*
%TO.C,R1*%
X153120000Y-74500000D02*
X154070000Y-74500000D01*
X154070000Y-73580000D02*
X154070000Y-75420000D01*
X154070000Y-75420000D02*
X157910000Y-75420000D01*
X157910000Y-73580000D02*
X154070000Y-73580000D01*
X157910000Y-75420000D02*
X157910000Y-73580000D01*
X158860000Y-74500000D02*
X157910000Y-74500000D01*
%TO.C,C7*%
X117500000Y-104150000D02*
G75*
G03*
X117500000Y-104150000I-4120000J0D01*
G01*
%TO.C,REF\u002A\u002A\u002A*%
X105180000Y-110360000D02*
X105180000Y-113210000D01*
X105180000Y-110360000D02*
X108180000Y-110360000D01*
X105180000Y-113210000D02*
X108180000Y-113210000D01*
X108180000Y-110360000D02*
X108180000Y-113210000D01*
%TO.C,U3*%
X142640000Y-61920000D02*
X142640000Y-72200000D01*
X142640000Y-72200000D02*
X147940000Y-72200000D01*
X144290000Y-61920000D02*
X142640000Y-61920000D01*
X147940000Y-61920000D02*
X146290000Y-61920000D01*
X147940000Y-72200000D02*
X147940000Y-61920000D01*
X144290000Y-61920000D02*
G75*
G03*
X146290000Y-61920000I1000000J0D01*
G01*
%TO.C,C2*%
X151265000Y-63635000D02*
X152065000Y-63635000D01*
X151665000Y-63235000D02*
X151665000Y-64035000D01*
X155674698Y-61870000D02*
X155674698Y-70030000D01*
X155714698Y-61870000D02*
X155714698Y-70030000D01*
X155754698Y-61870000D02*
X155754698Y-70030000D01*
X155794698Y-61871000D02*
X155794698Y-70029000D01*
X155834698Y-61873000D02*
X155834698Y-70027000D01*
X155874698Y-61874000D02*
X155874698Y-70026000D01*
X155914698Y-61876000D02*
X155914698Y-70024000D01*
X155954698Y-61879000D02*
X155954698Y-70021000D01*
X155994698Y-61882000D02*
X155994698Y-70018000D01*
X156034698Y-61885000D02*
X156034698Y-70015000D01*
X156074698Y-61889000D02*
X156074698Y-70011000D01*
X156114698Y-61893000D02*
X156114698Y-70007000D01*
X156154698Y-61898000D02*
X156154698Y-70002000D01*
X156194698Y-61902000D02*
X156194698Y-69998000D01*
X156234698Y-61908000D02*
X156234698Y-69992000D01*
X156274698Y-61913000D02*
X156274698Y-69987000D01*
X156314698Y-61920000D02*
X156314698Y-69980000D01*
X156354698Y-61926000D02*
X156354698Y-69974000D01*
X156395698Y-61933000D02*
X156395698Y-69967000D01*
X156435698Y-61940000D02*
X156435698Y-69960000D01*
X156475698Y-61948000D02*
X156475698Y-69952000D01*
X156515698Y-61956000D02*
X156515698Y-69944000D01*
X156555698Y-61965000D02*
X156555698Y-69935000D01*
X156595698Y-61974000D02*
X156595698Y-69926000D01*
X156635698Y-61983000D02*
X156635698Y-69917000D01*
X156675698Y-61993000D02*
X156675698Y-69907000D01*
X156715698Y-62003000D02*
X156715698Y-69897000D01*
X156755698Y-62014000D02*
X156755698Y-69886000D01*
X156795698Y-62025000D02*
X156795698Y-69875000D01*
X156835698Y-62036000D02*
X156835698Y-69864000D01*
X156875698Y-62048000D02*
X156875698Y-69852000D01*
X156915698Y-62061000D02*
X156915698Y-69839000D01*
X156955698Y-62073000D02*
X156955698Y-69827000D01*
X156995698Y-62087000D02*
X156995698Y-69813000D01*
X157035698Y-62100000D02*
X157035698Y-69800000D01*
X157075698Y-62115000D02*
X157075698Y-69785000D01*
X157115698Y-62129000D02*
X157115698Y-69771000D01*
X157155698Y-62145000D02*
X157155698Y-64910000D01*
X157155698Y-66990000D02*
X157155698Y-69755000D01*
X157195698Y-62160000D02*
X157195698Y-64910000D01*
X157195698Y-66990000D02*
X157195698Y-69740000D01*
X157235698Y-62176000D02*
X157235698Y-64910000D01*
X157235698Y-66990000D02*
X157235698Y-69724000D01*
X157275698Y-62193000D02*
X157275698Y-64910000D01*
X157275698Y-66990000D02*
X157275698Y-69707000D01*
X157315698Y-62210000D02*
X157315698Y-64910000D01*
X157315698Y-66990000D02*
X157315698Y-69690000D01*
X157355698Y-62228000D02*
X157355698Y-64910000D01*
X157355698Y-66990000D02*
X157355698Y-69672000D01*
X157395698Y-62246000D02*
X157395698Y-64910000D01*
X157395698Y-66990000D02*
X157395698Y-69654000D01*
X157435698Y-62264000D02*
X157435698Y-64910000D01*
X157435698Y-66990000D02*
X157435698Y-69636000D01*
X157475698Y-62284000D02*
X157475698Y-64910000D01*
X157475698Y-66990000D02*
X157475698Y-69616000D01*
X157515698Y-62303000D02*
X157515698Y-64910000D01*
X157515698Y-66990000D02*
X157515698Y-69597000D01*
X157555698Y-62323000D02*
X157555698Y-64910000D01*
X157555698Y-66990000D02*
X157555698Y-69577000D01*
X157595698Y-62344000D02*
X157595698Y-64910000D01*
X157595698Y-66990000D02*
X157595698Y-69556000D01*
X157635698Y-62366000D02*
X157635698Y-64910000D01*
X157635698Y-66990000D02*
X157635698Y-69534000D01*
X157675698Y-62388000D02*
X157675698Y-64910000D01*
X157675698Y-66990000D02*
X157675698Y-69512000D01*
X157715698Y-62410000D02*
X157715698Y-64910000D01*
X157715698Y-66990000D02*
X157715698Y-69490000D01*
X157755698Y-62433000D02*
X157755698Y-64910000D01*
X157755698Y-66990000D02*
X157755698Y-69467000D01*
X157795698Y-62457000D02*
X157795698Y-64910000D01*
X157795698Y-66990000D02*
X157795698Y-69443000D01*
X157835698Y-62481000D02*
X157835698Y-64910000D01*
X157835698Y-66990000D02*
X157835698Y-69419000D01*
X157875698Y-62506000D02*
X157875698Y-64910000D01*
X157875698Y-66990000D02*
X157875698Y-69394000D01*
X157915698Y-62532000D02*
X157915698Y-64910000D01*
X157915698Y-66990000D02*
X157915698Y-69368000D01*
X157955698Y-62558000D02*
X157955698Y-64910000D01*
X157955698Y-66990000D02*
X157955698Y-69342000D01*
X157995698Y-62585000D02*
X157995698Y-64910000D01*
X157995698Y-66990000D02*
X157995698Y-69315000D01*
X158035698Y-62612000D02*
X158035698Y-64910000D01*
X158035698Y-66990000D02*
X158035698Y-69288000D01*
X158075698Y-62641000D02*
X158075698Y-64910000D01*
X158075698Y-66990000D02*
X158075698Y-69259000D01*
X158115698Y-62670000D02*
X158115698Y-64910000D01*
X158115698Y-66990000D02*
X158115698Y-69230000D01*
X158155698Y-62700000D02*
X158155698Y-64910000D01*
X158155698Y-66990000D02*
X158155698Y-69200000D01*
X158195698Y-62730000D02*
X158195698Y-64910000D01*
X158195698Y-66990000D02*
X158195698Y-69170000D01*
X158235698Y-62761000D02*
X158235698Y-64910000D01*
X158235698Y-66990000D02*
X158235698Y-69139000D01*
X158275698Y-62794000D02*
X158275698Y-64910000D01*
X158275698Y-66990000D02*
X158275698Y-69106000D01*
X158315698Y-62826000D02*
X158315698Y-64910000D01*
X158315698Y-66990000D02*
X158315698Y-69074000D01*
X158355698Y-62860000D02*
X158355698Y-64910000D01*
X158355698Y-66990000D02*
X158355698Y-69040000D01*
X158395698Y-62895000D02*
X158395698Y-64910000D01*
X158395698Y-66990000D02*
X158395698Y-69005000D01*
X158435698Y-62931000D02*
X158435698Y-64910000D01*
X158435698Y-66990000D02*
X158435698Y-68969000D01*
X158475698Y-62967000D02*
X158475698Y-64910000D01*
X158475698Y-66990000D02*
X158475698Y-68933000D01*
X158515698Y-63005000D02*
X158515698Y-64910000D01*
X158515698Y-66990000D02*
X158515698Y-68895000D01*
X158555698Y-63043000D02*
X158555698Y-64910000D01*
X158555698Y-66990000D02*
X158555698Y-68857000D01*
X158595698Y-63083000D02*
X158595698Y-64910000D01*
X158595698Y-66990000D02*
X158595698Y-68817000D01*
X158635698Y-63124000D02*
X158635698Y-64910000D01*
X158635698Y-66990000D02*
X158635698Y-68776000D01*
X158675698Y-63166000D02*
X158675698Y-64910000D01*
X158675698Y-66990000D02*
X158675698Y-68734000D01*
X158715698Y-63209000D02*
X158715698Y-64910000D01*
X158715698Y-66990000D02*
X158715698Y-68691000D01*
X158755698Y-63253000D02*
X158755698Y-64910000D01*
X158755698Y-66990000D02*
X158755698Y-68647000D01*
X158795698Y-63299000D02*
X158795698Y-64910000D01*
X158795698Y-66990000D02*
X158795698Y-68601000D01*
X158835698Y-63346000D02*
X158835698Y-64910000D01*
X158835698Y-66990000D02*
X158835698Y-68554000D01*
X158875698Y-63394000D02*
X158875698Y-64910000D01*
X158875698Y-66990000D02*
X158875698Y-68506000D01*
X158915698Y-63445000D02*
X158915698Y-64910000D01*
X158915698Y-66990000D02*
X158915698Y-68455000D01*
X158955698Y-63496000D02*
X158955698Y-64910000D01*
X158955698Y-66990000D02*
X158955698Y-68404000D01*
X158995698Y-63550000D02*
X158995698Y-64910000D01*
X158995698Y-66990000D02*
X158995698Y-68350000D01*
X159035698Y-63605000D02*
X159035698Y-64910000D01*
X159035698Y-66990000D02*
X159035698Y-68295000D01*
X159075698Y-63663000D02*
X159075698Y-64910000D01*
X159075698Y-66990000D02*
X159075698Y-68237000D01*
X159115698Y-63722000D02*
X159115698Y-64910000D01*
X159115698Y-66990000D02*
X159115698Y-68178000D01*
X159155698Y-63784000D02*
X159155698Y-64910000D01*
X159155698Y-66990000D02*
X159155698Y-68116000D01*
X159195698Y-63848000D02*
X159195698Y-64910000D01*
X159195698Y-66990000D02*
X159195698Y-68052000D01*
X159235698Y-63916000D02*
X159235698Y-67984000D01*
X159275698Y-63986000D02*
X159275698Y-67914000D01*
X159315698Y-64060000D02*
X159315698Y-67840000D01*
X159355698Y-64137000D02*
X159355698Y-67763000D01*
X159395698Y-64219000D02*
X159395698Y-67681000D01*
X159435698Y-64305000D02*
X159435698Y-67595000D01*
X159475698Y-64398000D02*
X159475698Y-67502000D01*
X159515698Y-64497000D02*
X159515698Y-67403000D01*
X159555698Y-64604000D02*
X159555698Y-67296000D01*
X159595698Y-64721000D02*
X159595698Y-67179000D01*
X159635698Y-64852000D02*
X159635698Y-67048000D01*
X159675698Y-65002000D02*
X159675698Y-66898000D01*
X159715698Y-65182000D02*
X159715698Y-66718000D01*
X159755698Y-65417000D02*
X159755698Y-66483000D01*
X159794698Y-65950000D02*
G75*
G03*
X159794698Y-65950000I-4120000J0D01*
G01*
%TO.C,R5*%
X120270000Y-101080000D02*
X126810000Y-101080000D01*
X120270000Y-101410000D02*
X120270000Y-101080000D01*
X120270000Y-103490000D02*
X120270000Y-103820000D01*
X120270000Y-103820000D02*
X126810000Y-103820000D01*
X126810000Y-101080000D02*
X126810000Y-101410000D01*
X126810000Y-103820000D02*
X126810000Y-103490000D01*
%TO.C,U5*%
X131790000Y-73670000D02*
X131790000Y-91570000D01*
X131790000Y-91570000D02*
X137090000Y-91570000D01*
X133440000Y-73670000D02*
X131790000Y-73670000D01*
X137090000Y-73670000D02*
X135440000Y-73670000D01*
X137090000Y-91570000D02*
X137090000Y-73670000D01*
X133440000Y-73670000D02*
G75*
G03*
X135440000Y-73670000I1000000J0D01*
G01*
%TO.C,U2*%
X131790000Y-61920000D02*
X131790000Y-72200000D01*
X131790000Y-72200000D02*
X137090000Y-72200000D01*
X133440000Y-61920000D02*
X131790000Y-61920000D01*
X137090000Y-61920000D02*
X135440000Y-61920000D01*
X137090000Y-72200000D02*
X137090000Y-61920000D01*
X133440000Y-61920000D02*
G75*
G03*
X135440000Y-61920000I1000000J0D01*
G01*
%TO.C,C6*%
X117500000Y-94600000D02*
G75*
G03*
X117500000Y-94600000I-4120000J0D01*
G01*
%TO.C,R3*%
X120270000Y-92980000D02*
X126810000Y-92980000D01*
X120270000Y-93310000D02*
X120270000Y-92980000D01*
X120270000Y-95390000D02*
X120270000Y-95720000D01*
X120270000Y-95720000D02*
X126810000Y-95720000D01*
X126810000Y-92980000D02*
X126810000Y-93310000D01*
X126810000Y-95720000D02*
X126810000Y-95390000D01*
%TO.C,U6*%
X142640000Y-73670000D02*
X142640000Y-91570000D01*
X142640000Y-91570000D02*
X147940000Y-91570000D01*
X144290000Y-73670000D02*
X142640000Y-73670000D01*
X147940000Y-73670000D02*
X146290000Y-73670000D01*
X147940000Y-91570000D02*
X147940000Y-73670000D01*
X144290000Y-73670000D02*
G75*
G03*
X146290000Y-73670000I1000000J0D01*
G01*
%TO.C,C4*%
X117500000Y-75500000D02*
G75*
G03*
X117500000Y-75500000I-4120000J0D01*
G01*
%TO.C,R4*%
X120270000Y-97030000D02*
X126810000Y-97030000D01*
X120270000Y-97360000D02*
X120270000Y-97030000D01*
X120270000Y-99440000D02*
X120270000Y-99770000D01*
X120270000Y-99770000D02*
X126810000Y-99770000D01*
X126810000Y-97030000D02*
X126810000Y-97360000D01*
X126810000Y-99770000D02*
X126810000Y-99440000D01*
%TO.C,SW2*%
X152480000Y-82750000D02*
X152480000Y-84250000D01*
X153730000Y-86750000D02*
X158230000Y-86750000D01*
X158230000Y-80250000D02*
X153730000Y-80250000D01*
X159480000Y-84250000D02*
X159480000Y-82750000D01*
%TO.C,RV1*%
X131480000Y-94380000D02*
X136200000Y-94380000D01*
X131480000Y-95570000D02*
X131480000Y-94390000D01*
X131480000Y-98470000D02*
X131480000Y-97940000D01*
X131480000Y-100920000D02*
X131480000Y-100090000D01*
X131480000Y-104130000D02*
X131480000Y-102640000D01*
X131480000Y-104130000D02*
X136200000Y-104130000D01*
X140010000Y-94390000D02*
X143070000Y-94390000D01*
X140010000Y-104130000D02*
X143070000Y-104130000D01*
X143070000Y-104130000D02*
X143070000Y-94390000D01*
%TO.C,REF\u002A\u002A*%
X105180000Y-51940000D02*
X105180000Y-54790000D01*
X105180000Y-51940000D02*
X108180000Y-51940000D01*
X105180000Y-54790000D02*
X108180000Y-54790000D01*
X108180000Y-51940000D02*
X108180000Y-54790000D01*
%TO.C,D1*%
X149610000Y-101998000D02*
X149610000Y-106282000D01*
X158260000Y-104140486D02*
G75*
G03*
X149610000Y-101998855I-4590000J486D01*
G01*
X149610000Y-106281145D02*
G75*
G03*
X158260000Y-104139514I4060000J2141145D01*
G01*
X157670000Y-104140000D02*
G75*
G03*
X157670000Y-104140000I-4000000J0D01*
G01*
%TO.C,C3*%
X117500000Y-65950000D02*
G75*
G03*
X117500000Y-65950000I-4120000J0D01*
G01*
%TO.C,J1*%
X144720000Y-95920000D02*
X144720000Y-106140000D01*
X144720000Y-95920000D02*
X147380000Y-95920000D01*
X144720000Y-106140000D02*
X147380000Y-106140000D01*
X146050000Y-93320000D02*
X147380000Y-93320000D01*
X147380000Y-93320000D02*
X147380000Y-94650000D01*
X147380000Y-95920000D02*
X147380000Y-106140000D01*
%TO.C,R6*%
X120270000Y-105130000D02*
X126810000Y-105130000D01*
X120270000Y-105460000D02*
X120270000Y-105130000D01*
X120270000Y-107540000D02*
X120270000Y-107870000D01*
X120270000Y-107870000D02*
X126810000Y-107870000D01*
X126810000Y-105130000D02*
X126810000Y-105460000D01*
X126810000Y-107870000D02*
X126810000Y-107540000D01*
%TO.C,R7*%
X131540000Y-108220000D02*
X132310000Y-108220000D01*
X132310000Y-106850000D02*
X132310000Y-109590000D01*
X132310000Y-109590000D02*
X138850000Y-109590000D01*
X138850000Y-106850000D02*
X132310000Y-106850000D01*
X138850000Y-109590000D02*
X138850000Y-106850000D01*
X139620000Y-108220000D02*
X138850000Y-108220000D01*
%TO.C,SW1*%
X149890000Y-93585000D02*
X158710000Y-93585000D01*
X149890000Y-93895000D02*
X149890000Y-93585000D01*
X149890000Y-98105000D02*
X149890000Y-97795000D01*
X151800000Y-92885000D02*
X152300000Y-93385000D01*
X152300000Y-93385000D02*
X152800000Y-92885000D01*
X152800000Y-92885000D02*
X151800000Y-92885000D01*
X158710000Y-93585000D02*
X158710000Y-93895000D01*
X158710000Y-98105000D02*
X149890000Y-98105000D01*
X158710000Y-98105000D02*
X158710000Y-97795000D01*
%TO.C,U1*%
X120940000Y-61920000D02*
X120940000Y-72200000D01*
X120940000Y-72200000D02*
X126240000Y-72200000D01*
X122590000Y-61920000D02*
X120940000Y-61920000D01*
X126240000Y-61920000D02*
X124590000Y-61920000D01*
X126240000Y-72200000D02*
X126240000Y-61920000D01*
X122590000Y-61920000D02*
G75*
G03*
X124590000Y-61920000I1000000J0D01*
G01*
%TO.C,R2*%
X153120000Y-77650000D02*
X154070000Y-77650000D01*
X154070000Y-76730000D02*
X154070000Y-78570000D01*
X154070000Y-78570000D02*
X157910000Y-78570000D01*
X157910000Y-76730000D02*
X154070000Y-76730000D01*
X157910000Y-78570000D02*
X157910000Y-76730000D01*
X158860000Y-77650000D02*
X157910000Y-77650000D01*
%TO.C,U4*%
X120940000Y-73670000D02*
X120940000Y-91570000D01*
X120940000Y-91570000D02*
X126240000Y-91570000D01*
X122590000Y-73670000D02*
X120940000Y-73670000D01*
X126240000Y-73670000D02*
X124590000Y-73670000D01*
X126240000Y-91570000D02*
X126240000Y-73670000D01*
X122590000Y-73670000D02*
G75*
G03*
X124590000Y-73670000I1000000J0D01*
G01*
%TO.C,C5*%
X117500000Y-85050000D02*
G75*
G03*
X117500000Y-85050000I-4120000J0D01*
G01*
%TO.C,C1*%
X152310000Y-88430000D02*
X152310000Y-88745000D01*
X152310000Y-88430000D02*
X157250000Y-88430000D01*
X152310000Y-90855000D02*
X152310000Y-91170000D01*
X152310000Y-91170000D02*
X157250000Y-91170000D01*
X157250000Y-88430000D02*
X157250000Y-88745000D01*
X157250000Y-90855000D02*
X157250000Y-91170000D01*
%TD*%
M02*
