M48
; DRILL file {KiCad (7.0.0)} date Tue Feb 28 14:37:40 2023
; FORMAT={-:-/ absolute / inch / decimal}
; #@! TF.CreationDate,2023-02-28T14:37:40-05:00
; #@! TF.GenerationSoftware,Kicad,Pcbnew,(7.0.0)
; #@! TF.FileFunction,Plated,1,4,PTH
FMAT,2
INCH
; #@! TA.AperFunction,Plated,PTH,ViaDrill
T1C0.0157
; #@! TA.AperFunction,Plated,PTH,ComponentDrill
T2C0.0276
; #@! TA.AperFunction,Plated,PTH,ComponentDrill
T3C0.0315
; #@! TA.AperFunction,Plated,PTH,ComponentDrill
T4C0.0354
; #@! TA.AperFunction,Plated,PTH,ComponentDrill
T5C0.0394
; #@! TA.AperFunction,Plated,PTH,ComponentDrill
T6C0.0433
; #@! TA.AperFunction,Plated,PTH,ComponentDrill
T7C0.0551
; #@! TA.AperFunction,Plated,PTH,ComponentDrill
T8C0.0591
%
G90
G05
T1
X4.9429Y-2.9
X5.0567Y-2.8714
X5.0683Y-4.0414
X5.0892Y-2.7025
X5.1Y-3.1
X5.3701Y-3.0821
X5.3892Y-2.5025
X5.4Y-3.6
X5.4271Y-2.9
X5.6229Y-2.6059
X5.6913Y-3.908
X5.7298Y-3.4702
X5.8076Y-3.4673
X5.9429Y-3.2
X5.9675Y-3.9
T2
X5.9913Y-2.9331
X5.9913Y-3.0571
X6.2913Y-2.9331
X6.2913Y-3.0571
T3
X4.3949Y-2.5965
X4.3949Y-2.9724
X4.3949Y-3.3484
X4.3949Y-3.7244
X4.3949Y-4.1004
X4.5327Y-2.5965
X4.5327Y-2.9724
X4.5327Y-3.3484
X4.5327Y-3.7244
X4.5327Y-4.1004
X4.7138Y-3.7146
X4.7138Y-3.874
X4.7138Y-4.0335
X4.7138Y-4.1929
X4.7157Y-2.4902
X4.7157Y-2.5902
X4.7157Y-2.6902
X4.7157Y-2.7902
X4.7157Y-2.9528
X4.7157Y-3.0528
X4.7157Y-3.1528
X4.7157Y-3.2528
X4.7157Y-3.3528
X4.7157Y-3.4528
X4.7157Y-3.5528
X5.0138Y-3.7146
X5.0138Y-3.874
X5.0138Y-4.0335
X5.0138Y-4.1929
X5.0157Y-2.4902
X5.0157Y-2.5902
X5.0157Y-2.6902
X5.0157Y-2.7902
X5.0157Y-2.9528
X5.0157Y-3.0528
X5.0157Y-3.1528
X5.0157Y-3.2528
X5.0157Y-3.3528
X5.0157Y-3.4528
X5.0157Y-3.5528
X5.1378Y-4.2606
X5.1429Y-2.4902
X5.1429Y-2.5902
X5.1429Y-2.6902
X5.1429Y-2.7902
X5.1429Y-2.9528
X5.1429Y-3.0528
X5.1429Y-3.1528
X5.1429Y-3.2528
X5.1429Y-3.3528
X5.1429Y-3.4528
X5.1429Y-3.5528
X5.4429Y-2.4902
X5.4429Y-2.5902
X5.4429Y-2.6902
X5.4429Y-2.7902
X5.4429Y-2.9528
X5.4429Y-3.0528
X5.4429Y-3.1528
X5.4429Y-3.2528
X5.4429Y-3.3528
X5.4429Y-3.4528
X5.4429Y-3.5528
X5.5378Y-4.2606
X5.5701Y-2.4902
X5.5701Y-2.5902
X5.5701Y-2.6902
X5.5701Y-2.7902
X5.5701Y-2.9528
X5.5701Y-3.0528
X5.5701Y-3.1528
X5.5701Y-3.2528
X5.5701Y-3.3528
X5.5701Y-3.4528
X5.5701Y-3.5528
X5.8701Y-2.4902
X5.8701Y-2.5902
X5.8701Y-2.6902
X5.8701Y-2.7902
X5.8701Y-2.9528
X5.8701Y-3.0528
X5.8701Y-3.1528
X5.8701Y-3.2528
X5.8701Y-3.3528
X5.8701Y-3.4528
X5.8701Y-3.5528
X5.9953Y-3.5354
X5.9961Y-3.7734
X6.0305Y-2.5965
X6.0748Y-3.7734
X6.1535Y-3.7734
X6.1921Y-3.5354
X6.2274Y-2.5965
T4
X6.0Y-4.1
X6.1Y-4.1
T5
X5.1417Y-3.8094
X5.1417Y-3.9079
X5.1417Y-4.0063
X5.75Y-3.7264
X5.75Y-3.8264
X5.75Y-3.9264
X5.75Y-4.0264
X5.75Y-4.1264
T6
X6.013Y-3.1988
X6.013Y-3.376
X6.2689Y-3.1988
X6.2689Y-3.376
T7
X4.2Y-2.1
X4.2Y-4.4
T8
X5.9134Y-3.7734
X6.2362Y-3.7734
T6
G00X5.4232Y-3.7189
M15
G01X5.4508Y-3.7189
M16
G05
G00X5.4232Y-4.0969
M15
G01X5.4508Y-4.0969
M16
G05
T0
M30
