%TF.GenerationSoftware,KiCad,Pcbnew,(7.0.0)*%
%TF.CreationDate,2023-02-28T14:37:34-05:00*%
%TF.ProjectId,8bc_clock_4,3862635f-636c-46f6-936b-5f342e6b6963,rev?*%
%TF.SameCoordinates,Original*%
%TF.FileFunction,Soldermask,Bot*%
%TF.FilePolarity,Negative*%
%FSLAX46Y46*%
G04 Gerber Fmt 4.6, Leading zero omitted, Abs format (unit mm)*
G04 Created by KiCad (PCBNEW (7.0.0)) date 2023-02-28 14:37:34*
%MOMM*%
%LPD*%
G01*
G04 APERTURE LIST*
%ADD10C,1.400000*%
%ADD11O,1.400000X1.400000*%
%ADD12C,1.600000*%
%ADD13C,2.600000*%
%ADD14R,1.600000X1.600000*%
%ADD15O,1.600000X1.600000*%
%ADD16C,2.000000*%
%ADD17O,3.240000X2.720000*%
%ADD18R,1.800000X1.800000*%
%ADD19C,1.800000*%
%ADD20R,1.700000X1.700000*%
%ADD21O,1.700000X1.700000*%
%ADD22O,2.200000X3.500000*%
%ADD23R,1.500000X2.500000*%
%ADD24O,1.500000X2.500000*%
G04 APERTURE END LIST*
D10*
%TO.C,R1*%
X152180000Y-74500000D03*
D11*
X159799999Y-74499999D03*
%TD*%
D12*
%TO.C,C7*%
X111630000Y-104150000D03*
X115130000Y-104150000D03*
%TD*%
D13*
%TO.C,REF\u002A\u002A\u002A*%
X106680000Y-111760000D03*
%TD*%
D14*
%TO.C,U3*%
X141479999Y-63249999D03*
D15*
X141479999Y-65789999D03*
X141479999Y-68329999D03*
X141479999Y-70869999D03*
X149099999Y-70869999D03*
X149099999Y-68329999D03*
X149099999Y-65789999D03*
X149099999Y-63249999D03*
%TD*%
D14*
%TO.C,C2*%
X153174697Y-65949999D03*
D12*
X158174698Y-65950000D03*
%TD*%
%TO.C,R5*%
X119730000Y-102450000D03*
D15*
X127349999Y-102449999D03*
%TD*%
D14*
%TO.C,U5*%
X130629999Y-74999999D03*
D15*
X130629999Y-77539999D03*
X130629999Y-80079999D03*
X130629999Y-82619999D03*
X130629999Y-85159999D03*
X130629999Y-87699999D03*
X130629999Y-90239999D03*
X138249999Y-90239999D03*
X138249999Y-87699999D03*
X138249999Y-85159999D03*
X138249999Y-82619999D03*
X138249999Y-80079999D03*
X138249999Y-77539999D03*
X138249999Y-74999999D03*
%TD*%
D14*
%TO.C,U2*%
X130629999Y-63249999D03*
D15*
X130629999Y-65789999D03*
X130629999Y-68329999D03*
X130629999Y-70869999D03*
X138249999Y-70869999D03*
X138249999Y-68329999D03*
X138249999Y-65789999D03*
X138249999Y-63249999D03*
%TD*%
D12*
%TO.C,C6*%
X111630000Y-94600000D03*
X115130000Y-94600000D03*
%TD*%
%TO.C,R3*%
X119730000Y-94350000D03*
D15*
X127349999Y-94349999D03*
%TD*%
D14*
%TO.C,U6*%
X141479999Y-74999999D03*
D15*
X141479999Y-77539999D03*
X141479999Y-80079999D03*
X141479999Y-82619999D03*
X141479999Y-85159999D03*
X141479999Y-87699999D03*
X141479999Y-90239999D03*
X149099999Y-90239999D03*
X149099999Y-87699999D03*
X149099999Y-85159999D03*
X149099999Y-82619999D03*
X149099999Y-80079999D03*
X149099999Y-77539999D03*
X149099999Y-74999999D03*
%TD*%
D12*
%TO.C,C4*%
X111630000Y-75500000D03*
X115130000Y-75500000D03*
%TD*%
%TO.C,R4*%
X119730000Y-98400000D03*
D15*
X127349999Y-98399999D03*
%TD*%
D16*
%TO.C,SW2*%
X152730000Y-81250000D03*
X159230000Y-81250000D03*
X152730000Y-85750000D03*
X159230000Y-85750000D03*
%TD*%
D17*
%TO.C,RV1*%
X138099999Y-94459999D03*
X138099999Y-104059999D03*
D18*
X130599999Y-96759999D03*
D19*
X130600000Y-99260000D03*
X130600000Y-101760000D03*
%TD*%
D13*
%TO.C,REF\u002A\u002A*%
X106680000Y-53340000D03*
%TD*%
D18*
%TO.C,D1*%
X152399999Y-104139999D03*
D19*
X154940000Y-104140000D03*
%TD*%
D12*
%TO.C,C3*%
X111630000Y-65950000D03*
X115130000Y-65950000D03*
%TD*%
D20*
%TO.C,J1*%
X146049999Y-94649999D03*
D21*
X146049999Y-97189999D03*
X146049999Y-99729999D03*
X146049999Y-102269999D03*
X146049999Y-104809999D03*
%TD*%
D12*
%TO.C,R6*%
X119730000Y-106500000D03*
D15*
X127349999Y-106499999D03*
%TD*%
D12*
%TO.C,R7*%
X130500000Y-108220000D03*
D15*
X140659999Y-108219999D03*
%TD*%
D22*
%TO.C,SW1*%
X150199999Y-95844999D03*
X158399999Y-95844999D03*
D23*
X152299999Y-95844999D03*
D24*
X154299999Y-95844999D03*
X156299999Y-95844999D03*
%TD*%
D14*
%TO.C,U1*%
X119779999Y-63249999D03*
D15*
X119779999Y-65789999D03*
X119779999Y-68329999D03*
X119779999Y-70869999D03*
X127399999Y-70869999D03*
X127399999Y-68329999D03*
X127399999Y-65789999D03*
X127399999Y-63249999D03*
%TD*%
D10*
%TO.C,R2*%
X152180000Y-77650000D03*
D11*
X159799999Y-77649999D03*
%TD*%
D14*
%TO.C,U4*%
X119779999Y-74999999D03*
D15*
X119779999Y-77539999D03*
X119779999Y-80079999D03*
X119779999Y-82619999D03*
X119779999Y-85159999D03*
X119779999Y-87699999D03*
X119779999Y-90239999D03*
X127399999Y-90239999D03*
X127399999Y-87699999D03*
X127399999Y-85159999D03*
X127399999Y-82619999D03*
X127399999Y-80079999D03*
X127399999Y-77539999D03*
X127399999Y-74999999D03*
%TD*%
D12*
%TO.C,C5*%
X111630000Y-85050000D03*
X115130000Y-85050000D03*
%TD*%
%TO.C,C1*%
X152280000Y-89800000D03*
X157280000Y-89800000D03*
%TD*%
M02*
