%TF.GenerationSoftware,KiCad,Pcbnew,(7.0.0)*%
%TF.CreationDate,2023-02-28T14:37:34-05:00*%
%TF.ProjectId,8bc_clock_4,3862635f-636c-46f6-936b-5f342e6b6963,rev?*%
%TF.SameCoordinates,Original*%
%TF.FileFunction,Copper,L1,Top*%
%TF.FilePolarity,Positive*%
%FSLAX46Y46*%
G04 Gerber Fmt 4.6, Leading zero omitted, Abs format (unit mm)*
G04 Created by KiCad (PCBNEW (7.0.0)) date 2023-02-28 14:37:34*
%MOMM*%
%LPD*%
G01*
G04 APERTURE LIST*
%TA.AperFunction,ComponentPad*%
%ADD10C,1.400000*%
%TD*%
%TA.AperFunction,ComponentPad*%
%ADD11O,1.400000X1.400000*%
%TD*%
%TA.AperFunction,ComponentPad*%
%ADD12C,1.600000*%
%TD*%
%TA.AperFunction,ComponentPad*%
%ADD13C,2.600000*%
%TD*%
%TA.AperFunction,ComponentPad*%
%ADD14R,1.600000X1.600000*%
%TD*%
%TA.AperFunction,ComponentPad*%
%ADD15O,1.600000X1.600000*%
%TD*%
%TA.AperFunction,ComponentPad*%
%ADD16C,2.000000*%
%TD*%
%TA.AperFunction,ComponentPad*%
%ADD17O,3.240000X2.720000*%
%TD*%
%TA.AperFunction,ComponentPad*%
%ADD18R,1.800000X1.800000*%
%TD*%
%TA.AperFunction,ComponentPad*%
%ADD19C,1.800000*%
%TD*%
%TA.AperFunction,ComponentPad*%
%ADD20R,1.700000X1.700000*%
%TD*%
%TA.AperFunction,ComponentPad*%
%ADD21O,1.700000X1.700000*%
%TD*%
%TA.AperFunction,ComponentPad*%
%ADD22O,2.200000X3.500000*%
%TD*%
%TA.AperFunction,ComponentPad*%
%ADD23R,1.500000X2.500000*%
%TD*%
%TA.AperFunction,ComponentPad*%
%ADD24O,1.500000X2.500000*%
%TD*%
%TA.AperFunction,ViaPad*%
%ADD25C,0.800000*%
%TD*%
%TA.AperFunction,Conductor*%
%ADD26C,0.250000*%
%TD*%
G04 APERTURE END LIST*
D10*
%TO.P,R1,1*%
%TO.N,+5V*%
X152180000Y-74500000D03*
D11*
%TO.P,R1,2*%
%TO.N,Net-(U1-DIS)*%
X159799999Y-74499999D03*
%TD*%
D12*
%TO.P,C7,1*%
%TO.N,GND*%
X111630000Y-104150000D03*
%TO.P,C7,2*%
%TO.N,+5V*%
X115130000Y-104150000D03*
%TD*%
D13*
%TO.P,REF\u002A\u002A\u002A,1*%
%TO.N,N/C*%
X106680000Y-111760000D03*
%TD*%
D14*
%TO.P,U3,1,GND*%
%TO.N,GND*%
X141479999Y-63249999D03*
D15*
%TO.P,U3,2,TR*%
%TO.N,Net-(SW1-A)*%
X141479999Y-65789999D03*
%TO.P,U3,3,Q*%
%TO.N,Net-(U3-Q)*%
X141479999Y-68329999D03*
%TO.P,U3,4,R*%
%TO.N,Net-(SW1-C)*%
X141479999Y-70869999D03*
%TO.P,U3,5,CV*%
%TO.N,Net-(U3-CV)*%
X149099999Y-70869999D03*
%TO.P,U3,6,THR*%
%TO.N,GND*%
X149099999Y-68329999D03*
%TO.P,U3,7,DIS*%
%TO.N,unconnected-(U3-DIS-Pad7)*%
X149099999Y-65789999D03*
%TO.P,U3,8,VCC*%
%TO.N,+5V*%
X149099999Y-63249999D03*
%TD*%
D14*
%TO.P,C2,1*%
%TO.N,Net-(U1-THR)*%
X153174697Y-65949999D03*
D12*
%TO.P,C2,2*%
%TO.N,GND*%
X158174698Y-65950000D03*
%TD*%
%TO.P,R5,1*%
%TO.N,+5V*%
X119730000Y-102450000D03*
D15*
%TO.P,R5,2*%
%TO.N,Net-(SW1-A)*%
X127349999Y-102449999D03*
%TD*%
D14*
%TO.P,U5,1*%
%TO.N,Net-(U1-Q)*%
X130629999Y-74999999D03*
D15*
%TO.P,U5,2*%
%TO.N,Net-(U3-Q)*%
X130629999Y-77539999D03*
%TO.P,U5,3*%
%TO.N,Net-(U5-Pad3)*%
X130629999Y-80079999D03*
%TO.P,U5,4*%
%TO.N,Net-(U4-Pad2)*%
X130629999Y-82619999D03*
%TO.P,U5,5*%
%TO.N,Net-(U2-DIS)*%
X130629999Y-85159999D03*
%TO.P,U5,6*%
%TO.N,Net-(U5-Pad6)*%
X130629999Y-87699999D03*
%TO.P,U5,7,GND*%
%TO.N,GND*%
X130629999Y-90239999D03*
%TO.P,U5,8*%
%TO.N,CLK*%
X138249999Y-90239999D03*
%TO.P,U5,9*%
%TO.N,Net-(U5-Pad9)*%
X138249999Y-87699999D03*
%TO.P,U5,10*%
%TO.N,Net-(U4-Pad6)*%
X138249999Y-85159999D03*
%TO.P,U5,11*%
%TO.N,unconnected-(U5-Pad11)*%
X138249999Y-82619999D03*
%TO.P,U5,12*%
%TO.N,unconnected-(U5-Pad12)*%
X138249999Y-80079999D03*
%TO.P,U5,13*%
%TO.N,unconnected-(U5-Pad13)*%
X138249999Y-77539999D03*
%TO.P,U5,14,VCC*%
%TO.N,+5V*%
X138249999Y-74999999D03*
%TD*%
D14*
%TO.P,U2,1,GND*%
%TO.N,GND*%
X130629999Y-63249999D03*
D15*
%TO.P,U2,2,TR*%
%TO.N,Net-(U2-TR)*%
X130629999Y-65789999D03*
%TO.P,U2,3,Q*%
%TO.N,Net-(U2-DIS)*%
X130629999Y-68329999D03*
%TO.P,U2,4,R*%
%TO.N,+5V*%
X130629999Y-70869999D03*
%TO.P,U2,5,CV*%
%TO.N,Net-(U2-CV)*%
X138249999Y-70869999D03*
%TO.P,U2,6,THR*%
%TO.N,Net-(U2-DIS)*%
X138249999Y-68329999D03*
%TO.P,U2,7,DIS*%
X138249999Y-65789999D03*
%TO.P,U2,8,VCC*%
%TO.N,+5V*%
X138249999Y-63249999D03*
%TD*%
D12*
%TO.P,C6,1*%
%TO.N,+5V*%
X111630000Y-94600000D03*
%TO.P,C6,2*%
%TO.N,GND*%
X115130000Y-94600000D03*
%TD*%
%TO.P,R3,1*%
%TO.N,+5V*%
X119730000Y-94350000D03*
D15*
%TO.P,R3,2*%
%TO.N,Net-(U2-DIS)*%
X127349999Y-94349999D03*
%TD*%
D14*
%TO.P,U6,1*%
%TO.N,Net-(U5-Pad3)*%
X141479999Y-74999999D03*
D15*
%TO.P,U6,2*%
%TO.N,Net-(U5-Pad6)*%
X141479999Y-77539999D03*
%TO.P,U6,3*%
%TO.N,Net-(U5-Pad9)*%
X141479999Y-80079999D03*
%TO.P,U6,4*%
%TO.N,unconnected-(U6-Pad4)*%
X141479999Y-82619999D03*
%TO.P,U6,5*%
%TO.N,unconnected-(U6-Pad5)*%
X141479999Y-85159999D03*
%TO.P,U6,6*%
%TO.N,unconnected-(U6-Pad6)*%
X141479999Y-87699999D03*
%TO.P,U6,7,GND*%
%TO.N,GND*%
X141479999Y-90239999D03*
%TO.P,U6,8*%
%TO.N,unconnected-(U6-Pad8)*%
X149099999Y-90239999D03*
%TO.P,U6,9*%
%TO.N,unconnected-(U6-Pad9)*%
X149099999Y-87699999D03*
%TO.P,U6,10*%
%TO.N,unconnected-(U6-Pad10)*%
X149099999Y-85159999D03*
%TO.P,U6,11*%
%TO.N,unconnected-(U6-Pad11)*%
X149099999Y-82619999D03*
%TO.P,U6,12*%
%TO.N,unconnected-(U6-Pad12)*%
X149099999Y-80079999D03*
%TO.P,U6,13*%
%TO.N,unconnected-(U6-Pad13)*%
X149099999Y-77539999D03*
%TO.P,U6,14,VCC*%
%TO.N,+5V*%
X149099999Y-74999999D03*
%TD*%
D12*
%TO.P,C4,1*%
%TO.N,Net-(U2-DIS)*%
X111630000Y-75500000D03*
%TO.P,C4,2*%
%TO.N,GND*%
X115130000Y-75500000D03*
%TD*%
%TO.P,R4,1*%
%TO.N,+5V*%
X119730000Y-98400000D03*
D15*
%TO.P,R4,2*%
%TO.N,Net-(U2-TR)*%
X127349999Y-98399999D03*
%TD*%
D16*
%TO.P,SW2,1*%
%TO.N,GND*%
X152730000Y-81250000D03*
X159230000Y-81250000D03*
%TO.P,SW2,2*%
%TO.N,Net-(U2-TR)*%
X152730000Y-85750000D03*
X159230000Y-85750000D03*
%TD*%
D17*
%TO.P,RV1,*%
%TO.N,*%
X138099999Y-94459999D03*
X138099999Y-104059999D03*
D18*
%TO.P,RV1,1,1*%
%TO.N,unconnected-(RV1-Pad1)*%
X130599999Y-96759999D03*
D19*
%TO.P,RV1,2,2*%
%TO.N,Net-(R2-Pad2)*%
X130600000Y-99260000D03*
%TO.P,RV1,3,3*%
%TO.N,Net-(U1-THR)*%
X130600000Y-101760000D03*
%TD*%
D13*
%TO.P,REF\u002A\u002A,1*%
%TO.N,N/C*%
X106680000Y-53340000D03*
%TD*%
D18*
%TO.P,D1,1,K*%
%TO.N,Net-(D1-K)*%
X152399999Y-104139999D03*
D19*
%TO.P,D1,2,A*%
%TO.N,CLK*%
X154940000Y-104140000D03*
%TD*%
D12*
%TO.P,C3,1*%
%TO.N,Net-(U2-CV)*%
X111630000Y-65950000D03*
%TO.P,C3,2*%
%TO.N,GND*%
X115130000Y-65950000D03*
%TD*%
D20*
%TO.P,J1,1,Pin_1*%
%TO.N,+5V*%
X146049999Y-94649999D03*
D21*
%TO.P,J1,2,Pin_2*%
%TO.N,GND*%
X146049999Y-97189999D03*
%TO.P,J1,3,Pin_3*%
%TO.N,CLK*%
X146049999Y-99729999D03*
%TO.P,J1,4,Pin_4*%
%TO.N,!CLK*%
X146049999Y-102269999D03*
%TO.P,J1,5,Pin_5*%
%TO.N,HLT*%
X146049999Y-104809999D03*
%TD*%
D12*
%TO.P,R6,1*%
%TO.N,+5V*%
X119730000Y-106500000D03*
D15*
%TO.P,R6,2*%
%TO.N,Net-(SW1-C)*%
X127349999Y-106499999D03*
%TD*%
D12*
%TO.P,R7,1*%
%TO.N,GND*%
X130500000Y-108220000D03*
D15*
%TO.P,R7,2*%
%TO.N,Net-(D1-K)*%
X140659999Y-108219999D03*
%TD*%
D22*
%TO.P,SW1,*%
%TO.N,*%
X150199999Y-95844999D03*
X158399999Y-95844999D03*
D23*
%TO.P,SW1,1,A*%
%TO.N,Net-(SW1-A)*%
X152299999Y-95844999D03*
D24*
%TO.P,SW1,2,B*%
%TO.N,GND*%
X154299999Y-95844999D03*
%TO.P,SW1,3,C*%
%TO.N,Net-(SW1-C)*%
X156299999Y-95844999D03*
%TD*%
D14*
%TO.P,U1,1,GND*%
%TO.N,GND*%
X119779999Y-63249999D03*
D15*
%TO.P,U1,2,TR*%
%TO.N,Net-(U1-THR)*%
X119779999Y-65789999D03*
%TO.P,U1,3,Q*%
%TO.N,Net-(U1-Q)*%
X119779999Y-68329999D03*
%TO.P,U1,4,R*%
%TO.N,+5V*%
X119779999Y-70869999D03*
%TO.P,U1,5,CV*%
%TO.N,Net-(U1-CV)*%
X127399999Y-70869999D03*
%TO.P,U1,6,THR*%
%TO.N,Net-(U1-THR)*%
X127399999Y-68329999D03*
%TO.P,U1,7,DIS*%
%TO.N,Net-(U1-DIS)*%
X127399999Y-65789999D03*
%TO.P,U1,8,VCC*%
%TO.N,+5V*%
X127399999Y-63249999D03*
%TD*%
D10*
%TO.P,R2,1*%
%TO.N,Net-(U1-DIS)*%
X152180000Y-77650000D03*
D11*
%TO.P,R2,2*%
%TO.N,Net-(R2-Pad2)*%
X159799999Y-77649999D03*
%TD*%
D14*
%TO.P,U4,1*%
%TO.N,Net-(U3-Q)*%
X119779999Y-74999999D03*
D15*
%TO.P,U4,2*%
%TO.N,Net-(U4-Pad2)*%
X119779999Y-77539999D03*
%TO.P,U4,3*%
%TO.N,CLK*%
X119779999Y-80079999D03*
%TO.P,U4,4*%
%TO.N,!CLK*%
X119779999Y-82619999D03*
%TO.P,U4,5*%
%TO.N,HLT*%
X119779999Y-85159999D03*
%TO.P,U4,6*%
%TO.N,Net-(U4-Pad6)*%
X119779999Y-87699999D03*
%TO.P,U4,7,GND*%
%TO.N,GND*%
X119779999Y-90239999D03*
%TO.P,U4,8*%
%TO.N,unconnected-(U4-Pad8)*%
X127399999Y-90239999D03*
%TO.P,U4,9*%
%TO.N,unconnected-(U4-Pad9)*%
X127399999Y-87699999D03*
%TO.P,U4,10*%
%TO.N,unconnected-(U4-Pad10)*%
X127399999Y-85159999D03*
%TO.P,U4,11*%
%TO.N,unconnected-(U4-Pad11)*%
X127399999Y-82619999D03*
%TO.P,U4,12*%
%TO.N,unconnected-(U4-Pad12)*%
X127399999Y-80079999D03*
%TO.P,U4,13*%
%TO.N,unconnected-(U4-Pad13)*%
X127399999Y-77539999D03*
%TO.P,U4,14,VCC*%
%TO.N,+5V*%
X127399999Y-74999999D03*
%TD*%
D12*
%TO.P,C5,1*%
%TO.N,Net-(U3-CV)*%
X111630000Y-85050000D03*
%TO.P,C5,2*%
%TO.N,GND*%
X115130000Y-85050000D03*
%TD*%
%TO.P,C1,1*%
%TO.N,Net-(U1-CV)*%
X152280000Y-89800000D03*
%TO.P,C1,2*%
%TO.N,GND*%
X157280000Y-89800000D03*
%TD*%
D25*
%TO.N,Net-(U2-TR)*%
X145537700Y-88142300D03*
X137160000Y-91440000D03*
%TO.N,Net-(U3-Q)*%
X128439872Y-72934470D03*
%TO.N,HLT*%
X128734864Y-102651875D03*
%TO.N,Net-(SW1-C)*%
X144558509Y-99263108D03*
X151575500Y-99060000D03*
X147514102Y-88069502D03*
%TO.N,Net-(SW1-A)*%
X150949500Y-81280000D03*
%TO.N,Net-(U2-TR)*%
X129265917Y-68642863D03*
X137849500Y-73659028D03*
%TO.N,Net-(U1-CV)*%
X136400500Y-78284502D03*
%TO.N,Net-(U1-Q)*%
X125550500Y-73658970D03*
%TO.N,CLK*%
X129540000Y-78740000D03*
%TO.N,Net-(U1-DIS)*%
X142820972Y-66190500D03*
X136885917Y-63562863D03*
%TD*%
D26*
%TO.N,Net-(U2-TR)*%
X149650000Y-83820000D02*
X150225000Y-83245000D01*
X148849009Y-83820000D02*
X149650000Y-83820000D01*
X145537700Y-87131309D02*
X148849009Y-83820000D01*
X145537700Y-88142300D02*
X145537700Y-87131309D01*
X133470000Y-91440000D02*
X137160000Y-91440000D01*
X127350000Y-97560000D02*
X133470000Y-91440000D01*
X127350000Y-98400000D02*
X127350000Y-97560000D01*
%TO.N,Net-(U5-Pad9)*%
X139375000Y-82185000D02*
X139375000Y-86575000D01*
X139375000Y-86575000D02*
X138250000Y-87700000D01*
X141480000Y-80080000D02*
X139375000Y-82185000D01*
%TO.N,Net-(U5-Pad6)*%
X140280000Y-78740000D02*
X141480000Y-77540000D01*
X131755000Y-84671396D02*
X137686396Y-78740000D01*
X131755000Y-86575000D02*
X131755000Y-84671396D01*
X130630000Y-87700000D02*
X131755000Y-86575000D01*
X137686396Y-78740000D02*
X140280000Y-78740000D01*
%TO.N,Net-(U3-Q)*%
X128439372Y-72933970D02*
X128439872Y-72934470D01*
X121846030Y-72933970D02*
X128439372Y-72933970D01*
X119780000Y-75000000D02*
X121846030Y-72933970D01*
%TO.N,Net-(U4-Pad2)*%
X132080000Y-81170000D02*
X130630000Y-82620000D01*
X130880991Y-76200000D02*
X132080000Y-77399009D01*
X121120000Y-76200000D02*
X130880991Y-76200000D01*
X132080000Y-77399009D02*
X132080000Y-81170000D01*
X119780000Y-77540000D02*
X121120000Y-76200000D01*
%TO.N,Net-(U4-Pad6)*%
X127935000Y-95475000D02*
X138250000Y-85160000D01*
X126884009Y-95475000D02*
X127935000Y-95475000D01*
X119780000Y-88370991D02*
X126884009Y-95475000D01*
X119780000Y-87700000D02*
X119780000Y-88370991D01*
%TO.N,HLT*%
X118655000Y-86285000D02*
X119780000Y-85160000D01*
X118655000Y-90705991D02*
X118655000Y-86285000D01*
X120855000Y-92905991D02*
X118655000Y-90705991D01*
X120855000Y-94364009D02*
X120855000Y-92905991D01*
X128734864Y-102243873D02*
X120855000Y-94364009D01*
X128734864Y-102651875D02*
X128734864Y-102243873D01*
%TO.N,Net-(SW1-C)*%
X153105280Y-99060000D02*
X156300000Y-95865280D01*
X156300000Y-95865280D02*
X156300000Y-95845000D01*
X151575500Y-99060000D02*
X153105280Y-99060000D01*
X143330401Y-98035000D02*
X144558509Y-99263108D01*
X130092588Y-98035000D02*
X143330401Y-98035000D01*
X129375000Y-98752588D02*
X130092588Y-98035000D01*
X131107412Y-100485000D02*
X130092588Y-100485000D01*
X132080000Y-101457588D02*
X131107412Y-100485000D01*
X132080000Y-102901370D02*
X132080000Y-101457588D01*
X128481370Y-106500000D02*
X132080000Y-102901370D01*
X127350000Y-106500000D02*
X128481370Y-106500000D01*
X130092588Y-100485000D02*
X129375000Y-99767412D01*
X129375000Y-99767412D02*
X129375000Y-98752588D01*
X152594102Y-91634102D02*
X156300000Y-95340000D01*
X147514102Y-91634102D02*
X152594102Y-91634102D01*
X147514102Y-88069502D02*
X147514102Y-91634102D01*
X156300000Y-95340000D02*
X156300000Y-95845000D01*
%TO.N,Net-(SW1-A)*%
X148845000Y-76415000D02*
X149565991Y-76415000D01*
X150949500Y-77798509D02*
X150949500Y-81280000D01*
X149565991Y-76415000D02*
X150949500Y-77798509D01*
X147975000Y-75545000D02*
X148845000Y-76415000D01*
X147975000Y-73234009D02*
X147975000Y-75545000D01*
X141480000Y-66739009D02*
X147975000Y-73234009D01*
X141480000Y-65790000D02*
X141480000Y-66739009D01*
%TO.N,Net-(U2-TR)*%
X129265917Y-67154083D02*
X130630000Y-65790000D01*
X142239028Y-73659028D02*
X137849500Y-73659028D01*
X150225000Y-79324009D02*
X149565991Y-78665000D01*
X147245000Y-78665000D02*
X142239028Y-73659028D01*
X150225000Y-83245000D02*
X150225000Y-79324009D01*
X149565991Y-78665000D02*
X147245000Y-78665000D01*
X152730000Y-85750000D02*
X150225000Y-83245000D01*
X129265917Y-68642863D02*
X129265917Y-67154083D01*
X159230000Y-85750000D02*
X152730000Y-85750000D01*
%TO.N,Net-(U1-CV)*%
X136400500Y-78204104D02*
X136400500Y-78284502D01*
X132071396Y-73875000D02*
X136400500Y-78204104D01*
X130405000Y-73875000D02*
X132071396Y-73875000D01*
X127400000Y-70870000D02*
X130405000Y-73875000D01*
%TO.N,Net-(U1-Q)*%
X129288970Y-73658970D02*
X130630000Y-75000000D01*
X125550500Y-73658970D02*
X129288970Y-73658970D01*
%TO.N,CLK*%
X121120000Y-78740000D02*
X119780000Y-80080000D01*
X129540000Y-78740000D02*
X121120000Y-78740000D01*
X138250000Y-91930000D02*
X138250000Y-90240000D01*
X146050000Y-99730000D02*
X138250000Y-91930000D01*
X150530000Y-99730000D02*
X146050000Y-99730000D01*
X154940000Y-104140000D02*
X150530000Y-99730000D01*
%TO.N,Net-(R2-Pad2)*%
X160555000Y-100257412D02*
X154827412Y-105985000D01*
X154827412Y-105985000D02*
X137325000Y-105985000D01*
X137325000Y-105985000D02*
X130600000Y-99260000D01*
X160555000Y-78405000D02*
X160555000Y-100257412D01*
X159800000Y-77650000D02*
X160555000Y-78405000D01*
%TO.N,Net-(U1-DIS)*%
X155330000Y-74500000D02*
X159800000Y-74500000D01*
X152180000Y-77650000D02*
X155330000Y-74500000D01*
X150225000Y-73594528D02*
X150225000Y-75695000D01*
X142820972Y-66190500D02*
X150225000Y-73594528D01*
X150225000Y-75695000D02*
X152180000Y-77650000D01*
X135783780Y-64665000D02*
X136885917Y-63562863D01*
X128525000Y-64665000D02*
X135783780Y-64665000D01*
X127400000Y-65790000D02*
X128525000Y-64665000D01*
%TO.N,Net-(U3-CV)*%
X149410000Y-60510000D02*
X150225000Y-61325000D01*
X114750000Y-60510000D02*
X149410000Y-60510000D01*
X150225000Y-61325000D02*
X150225000Y-69745000D01*
X110505000Y-64755000D02*
X114750000Y-60510000D01*
X150225000Y-69745000D02*
X149100000Y-70870000D01*
X110505000Y-83925000D02*
X110505000Y-64755000D01*
X111630000Y-85050000D02*
X110505000Y-83925000D01*
%TO.N,Net-(U2-DIS)*%
X129505000Y-86285000D02*
X129505000Y-92195000D01*
X132025000Y-83765000D02*
X129505000Y-86285000D01*
X132025000Y-83765000D02*
X130630000Y-85160000D01*
X137125000Y-78665000D02*
X132025000Y-83765000D01*
X129505000Y-92195000D02*
X127350000Y-94350000D01*
X138250000Y-68330000D02*
X137125000Y-69455000D01*
X137125000Y-69455000D02*
X137125000Y-78665000D01*
X138250000Y-68330000D02*
X138250000Y-65790000D01*
X130630000Y-68330000D02*
X135710000Y-68330000D01*
X135710000Y-68330000D02*
X138250000Y-65790000D01*
%TO.N,Net-(U2-CV)*%
X139700000Y-60960000D02*
X139700000Y-69420000D01*
X139700000Y-69420000D02*
X138250000Y-70870000D01*
X116620000Y-60960000D02*
X139700000Y-60960000D01*
X111630000Y-65950000D02*
X116620000Y-60960000D01*
%TO.N,Net-(U2-DIS)*%
X129505000Y-69455000D02*
X130630000Y-68330000D01*
X111630000Y-75500000D02*
X117675000Y-69455000D01*
X117675000Y-69455000D02*
X129505000Y-69455000D01*
%TD*%
M02*
