%TF.GenerationSoftware,KiCad,Pcbnew,(7.0.0)*%
%TF.CreationDate,2023-02-25T19:51:30-05:00*%
%TF.ProjectId,8bc_clock,3862635f-636c-46f6-936b-2e6b69636164,rev?*%
%TF.SameCoordinates,Original*%
%TF.FileFunction,Copper,L1,Top*%
%TF.FilePolarity,Positive*%
%FSLAX46Y46*%
G04 Gerber Fmt 4.6, Leading zero omitted, Abs format (unit mm)*
G04 Created by KiCad (PCBNEW (7.0.0)) date 2023-02-25 19:51:30*
%MOMM*%
%LPD*%
G01*
G04 APERTURE LIST*
%TA.AperFunction,ComponentPad*%
%ADD10C,2.600000*%
%TD*%
%TA.AperFunction,ComponentPad*%
%ADD11R,1.600000X1.600000*%
%TD*%
%TA.AperFunction,ComponentPad*%
%ADD12O,1.600000X1.600000*%
%TD*%
%TA.AperFunction,ComponentPad*%
%ADD13C,2.000000*%
%TD*%
%TA.AperFunction,ComponentPad*%
%ADD14O,2.200000X3.500000*%
%TD*%
%TA.AperFunction,ComponentPad*%
%ADD15R,1.500000X2.500000*%
%TD*%
%TA.AperFunction,ComponentPad*%
%ADD16O,1.500000X2.500000*%
%TD*%
%TA.AperFunction,ComponentPad*%
%ADD17O,3.240000X2.720000*%
%TD*%
%TA.AperFunction,ComponentPad*%
%ADD18R,1.800000X1.800000*%
%TD*%
%TA.AperFunction,ComponentPad*%
%ADD19C,1.800000*%
%TD*%
%TA.AperFunction,ComponentPad*%
%ADD20C,1.600000*%
%TD*%
%TA.AperFunction,ComponentPad*%
%ADD21C,1.400000*%
%TD*%
%TA.AperFunction,ComponentPad*%
%ADD22O,1.400000X1.400000*%
%TD*%
%TA.AperFunction,ComponentPad*%
%ADD23R,1.700000X1.700000*%
%TD*%
%TA.AperFunction,ComponentPad*%
%ADD24O,1.700000X1.700000*%
%TD*%
%TA.AperFunction,ViaPad*%
%ADD25C,0.800000*%
%TD*%
%TA.AperFunction,Conductor*%
%ADD26C,0.250000*%
%TD*%
G04 APERTURE END LIST*
D10*
%TO.P,REF\u002A\u002A\u002A,1*%
%TO.N,N/C*%
X106680000Y-111760000D03*
%TD*%
%TO.P,REF\u002A\u002A,1*%
%TO.N,N/C*%
X106680000Y-53340000D03*
%TD*%
D11*
%TO.P,U6,1*%
%TO.N,Net-(U5-Pad3)*%
X141479999Y-74999999D03*
D12*
%TO.P,U6,2*%
%TO.N,Net-(U5-Pad6)*%
X141479999Y-77539999D03*
%TO.P,U6,3*%
%TO.N,Net-(U5-Pad9)*%
X141479999Y-80079999D03*
%TO.P,U6,4*%
%TO.N,unconnected-(U6-Pad4)*%
X141479999Y-82619999D03*
%TO.P,U6,5*%
%TO.N,unconnected-(U6-Pad5)*%
X141479999Y-85159999D03*
%TO.P,U6,6*%
%TO.N,unconnected-(U6-Pad6)*%
X141479999Y-87699999D03*
%TO.P,U6,7,GND*%
%TO.N,GND*%
X141479999Y-90239999D03*
%TO.P,U6,8*%
%TO.N,unconnected-(U6-Pad8)*%
X149099999Y-90239999D03*
%TO.P,U6,9*%
%TO.N,unconnected-(U6-Pad9)*%
X149099999Y-87699999D03*
%TO.P,U6,10*%
%TO.N,unconnected-(U6-Pad10)*%
X149099999Y-85159999D03*
%TO.P,U6,11*%
%TO.N,unconnected-(U6-Pad11)*%
X149099999Y-82619999D03*
%TO.P,U6,12*%
%TO.N,unconnected-(U6-Pad12)*%
X149099999Y-80079999D03*
%TO.P,U6,13*%
%TO.N,unconnected-(U6-Pad13)*%
X149099999Y-77539999D03*
%TO.P,U6,14,VCC*%
%TO.N,+5V*%
X149099999Y-74999999D03*
%TD*%
%TO.P,U5,14,VCC*%
%TO.N,+5V*%
X138249999Y-74999999D03*
%TO.P,U5,13*%
%TO.N,unconnected-(U5-Pad13)*%
X138249999Y-77539999D03*
%TO.P,U5,12*%
%TO.N,unconnected-(U5-Pad12)*%
X138249999Y-80079999D03*
%TO.P,U5,11*%
%TO.N,unconnected-(U5-Pad11)*%
X138249999Y-82619999D03*
%TO.P,U5,10*%
%TO.N,Net-(U4-Pad6)*%
X138249999Y-85159999D03*
%TO.P,U5,9*%
%TO.N,Net-(U5-Pad9)*%
X138249999Y-87699999D03*
%TO.P,U5,8*%
%TO.N,CLK*%
X138249999Y-90239999D03*
%TO.P,U5,7,GND*%
%TO.N,GND*%
X130629999Y-90239999D03*
%TO.P,U5,6*%
%TO.N,Net-(U5-Pad6)*%
X130629999Y-87699999D03*
%TO.P,U5,5*%
%TO.N,Net-(U2-DIS)*%
X130629999Y-85159999D03*
%TO.P,U5,4*%
%TO.N,Net-(U4-Pad2)*%
X130629999Y-82619999D03*
%TO.P,U5,3*%
%TO.N,Net-(U5-Pad3)*%
X130629999Y-80079999D03*
%TO.P,U5,2*%
%TO.N,Net-(U3-Q)*%
X130629999Y-77539999D03*
D11*
%TO.P,U5,1*%
%TO.N,Net-(U1-Q)*%
X130629999Y-74999999D03*
%TD*%
%TO.P,U4,1*%
%TO.N,Net-(U3-Q)*%
X119779999Y-74999999D03*
D12*
%TO.P,U4,2*%
%TO.N,Net-(U4-Pad2)*%
X119779999Y-77539999D03*
%TO.P,U4,3*%
%TO.N,CLK*%
X119779999Y-80079999D03*
%TO.P,U4,4*%
%TO.N,!CLK*%
X119779999Y-82619999D03*
%TO.P,U4,5*%
%TO.N,HLT*%
X119779999Y-85159999D03*
%TO.P,U4,6*%
%TO.N,Net-(U4-Pad6)*%
X119779999Y-87699999D03*
%TO.P,U4,7,GND*%
%TO.N,GND*%
X119779999Y-90239999D03*
%TO.P,U4,8*%
%TO.N,unconnected-(U4-Pad8)*%
X127399999Y-90239999D03*
%TO.P,U4,9*%
%TO.N,unconnected-(U4-Pad9)*%
X127399999Y-87699999D03*
%TO.P,U4,10*%
%TO.N,unconnected-(U4-Pad10)*%
X127399999Y-85159999D03*
%TO.P,U4,11*%
%TO.N,unconnected-(U4-Pad11)*%
X127399999Y-82619999D03*
%TO.P,U4,12*%
%TO.N,unconnected-(U4-Pad12)*%
X127399999Y-80079999D03*
%TO.P,U4,13*%
%TO.N,unconnected-(U4-Pad13)*%
X127399999Y-77539999D03*
%TO.P,U4,14,VCC*%
%TO.N,+5V*%
X127399999Y-74999999D03*
%TD*%
%TO.P,U3,8,VCC*%
%TO.N,+5V*%
X149099999Y-63249999D03*
%TO.P,U3,7,DIS*%
%TO.N,unconnected-(U3-DIS-Pad7)*%
X149099999Y-65789999D03*
%TO.P,U3,6,THR*%
%TO.N,GND*%
X149099999Y-68329999D03*
%TO.P,U3,5,CV*%
%TO.N,Net-(U3-CV)*%
X149099999Y-70869999D03*
%TO.P,U3,4,R*%
%TO.N,Net-(SW1-C)*%
X141479999Y-70869999D03*
%TO.P,U3,3,Q*%
%TO.N,Net-(U3-Q)*%
X141479999Y-68329999D03*
%TO.P,U3,2,TR*%
%TO.N,Net-(SW1-A)*%
X141479999Y-65789999D03*
D11*
%TO.P,U3,1,GND*%
%TO.N,GND*%
X141479999Y-63249999D03*
%TD*%
D12*
%TO.P,U2,8,VCC*%
%TO.N,+5V*%
X138249999Y-63249999D03*
%TO.P,U2,7,DIS*%
%TO.N,Net-(U2-DIS)*%
X138249999Y-65789999D03*
%TO.P,U2,6,THR*%
X138249999Y-68329999D03*
%TO.P,U2,5,CV*%
%TO.N,Net-(U2-CV)*%
X138249999Y-70869999D03*
%TO.P,U2,4,R*%
%TO.N,+5V*%
X130629999Y-70869999D03*
%TO.P,U2,3,Q*%
%TO.N,Net-(U2-DIS)*%
X130629999Y-68329999D03*
%TO.P,U2,2,TR*%
%TO.N,Net-(U2-TR)*%
X130629999Y-65789999D03*
D11*
%TO.P,U2,1,GND*%
%TO.N,GND*%
X130629999Y-63249999D03*
%TD*%
D12*
%TO.P,U1,8,VCC*%
%TO.N,+5V*%
X127399999Y-63249999D03*
%TO.P,U1,7,DIS*%
%TO.N,Net-(U1-DIS)*%
X127399999Y-65789999D03*
%TO.P,U1,6,THR*%
%TO.N,Net-(U1-THR)*%
X127399999Y-68329999D03*
%TO.P,U1,5,CV*%
%TO.N,Net-(U1-CV)*%
X127399999Y-70869999D03*
%TO.P,U1,4,R*%
%TO.N,+5V*%
X119779999Y-70869999D03*
%TO.P,U1,3,Q*%
%TO.N,Net-(U1-Q)*%
X119779999Y-68329999D03*
%TO.P,U1,2,TR*%
%TO.N,Net-(U1-THR)*%
X119779999Y-65789999D03*
D11*
%TO.P,U1,1,GND*%
%TO.N,GND*%
X119779999Y-63249999D03*
%TD*%
D13*
%TO.P,SW2,1*%
%TO.N,GND*%
X159230000Y-81250000D03*
X152730000Y-81250000D03*
%TO.P,SW2,2*%
%TO.N,Net-(U2-TR)*%
X152730000Y-85750000D03*
X159230000Y-85750000D03*
%TD*%
D14*
%TO.P,SW1,*%
%TO.N,*%
X150199999Y-95844999D03*
X158399999Y-95844999D03*
D15*
%TO.P,SW1,1,A*%
%TO.N,Net-(SW1-A)*%
X152299999Y-95844999D03*
D16*
%TO.P,SW1,2,B*%
%TO.N,GND*%
X154299999Y-95844999D03*
%TO.P,SW1,3,C*%
%TO.N,Net-(SW1-C)*%
X156299999Y-95844999D03*
%TD*%
D17*
%TO.P,RV1,*%
%TO.N,*%
X138099999Y-94459999D03*
X138099999Y-104059999D03*
D18*
%TO.P,RV1,1,1*%
%TO.N,unconnected-(RV1-Pad1)*%
X130599999Y-96759999D03*
D19*
%TO.P,RV1,2,2*%
%TO.N,Net-(R2-Pad2)*%
X130600000Y-99260000D03*
%TO.P,RV1,3,3*%
%TO.N,Net-(U1-THR)*%
X130600000Y-101760000D03*
%TD*%
D20*
%TO.P,R7,1*%
%TO.N,GND*%
X130500000Y-108220000D03*
D12*
%TO.P,R7,2*%
%TO.N,Net-(D1-K)*%
X140659999Y-108219999D03*
%TD*%
%TO.P,R6,2*%
%TO.N,Net-(SW1-C)*%
X127349999Y-106499999D03*
D20*
%TO.P,R6,1*%
%TO.N,+5V*%
X119730000Y-106500000D03*
%TD*%
D12*
%TO.P,R5,2*%
%TO.N,Net-(SW1-A)*%
X127349999Y-102449999D03*
D20*
%TO.P,R5,1*%
%TO.N,+5V*%
X119730000Y-102450000D03*
%TD*%
D12*
%TO.P,R4,2*%
%TO.N,Net-(U2-TR)*%
X127349999Y-98399999D03*
D20*
%TO.P,R4,1*%
%TO.N,+5V*%
X119730000Y-98400000D03*
%TD*%
D12*
%TO.P,R3,2*%
%TO.N,Net-(U2-DIS)*%
X127349999Y-94349999D03*
D20*
%TO.P,R3,1*%
%TO.N,+5V*%
X119730000Y-94350000D03*
%TD*%
D21*
%TO.P,R2,1*%
%TO.N,Net-(U1-DIS)*%
X152180000Y-77650000D03*
D22*
%TO.P,R2,2*%
%TO.N,Net-(R2-Pad2)*%
X159799999Y-77649999D03*
%TD*%
D21*
%TO.P,R1,1*%
%TO.N,+5V*%
X152180000Y-74500000D03*
D22*
%TO.P,R1,2*%
%TO.N,Net-(U1-DIS)*%
X159799999Y-74499999D03*
%TD*%
D23*
%TO.P,J1,1,Pin_1*%
%TO.N,+5V*%
X146049999Y-94649999D03*
D24*
%TO.P,J1,2,Pin_2*%
%TO.N,GND*%
X146049999Y-97189999D03*
%TO.P,J1,3,Pin_3*%
%TO.N,CLK*%
X146049999Y-99729999D03*
%TO.P,J1,4,Pin_4*%
%TO.N,!CLK*%
X146049999Y-102269999D03*
%TO.P,J1,5,Pin_5*%
%TO.N,HLT*%
X146049999Y-104809999D03*
%TD*%
D18*
%TO.P,D1,1,K*%
%TO.N,Net-(D1-K)*%
X152399999Y-104139999D03*
D19*
%TO.P,D1,2,A*%
%TO.N,CLK*%
X154940000Y-104140000D03*
%TD*%
D20*
%TO.P,C7,2*%
%TO.N,+5V*%
X115130000Y-104150000D03*
%TO.P,C7,1*%
%TO.N,GND*%
X111630000Y-104150000D03*
%TD*%
%TO.P,C6,2*%
%TO.N,GND*%
X115130000Y-94600000D03*
%TO.P,C6,1*%
%TO.N,+5V*%
X111630000Y-94600000D03*
%TD*%
%TO.P,C5,2*%
%TO.N,GND*%
X115130000Y-85050000D03*
%TO.P,C5,1*%
%TO.N,Net-(U3-CV)*%
X111630000Y-85050000D03*
%TD*%
%TO.P,C4,2*%
%TO.N,GND*%
X115130000Y-75500000D03*
%TO.P,C4,1*%
%TO.N,Net-(U2-DIS)*%
X111630000Y-75500000D03*
%TD*%
%TO.P,C3,2*%
%TO.N,GND*%
X115130000Y-65950000D03*
%TO.P,C3,1*%
%TO.N,Net-(U2-CV)*%
X111630000Y-65950000D03*
%TD*%
D11*
%TO.P,C2,1*%
%TO.N,Net-(U1-THR)*%
X153174697Y-65949999D03*
D20*
%TO.P,C2,2*%
%TO.N,GND*%
X158174698Y-65950000D03*
%TD*%
%TO.P,C1,1*%
%TO.N,Net-(U1-CV)*%
X152280000Y-89800000D03*
%TO.P,C1,2*%
%TO.N,GND*%
X157280000Y-89800000D03*
%TD*%
D25*
%TO.N,Net-(U2-DIS)*%
X135132300Y-76712300D03*
X139145519Y-69639882D03*
X139979247Y-73150500D03*
X132080000Y-76200000D03*
X121920000Y-72719500D03*
X124460000Y-87299500D03*
X121920000Y-88390500D03*
%TO.N,GND*%
X146553986Y-61684500D03*
%TO.N,Net-(U1-Q)*%
X116840000Y-73660000D03*
X116840000Y-68580000D03*
%TO.N,CLK*%
X134620000Y-88390500D03*
X136933753Y-83095500D03*
X134620000Y-81280000D03*
X137160000Y-76200000D03*
X124460000Y-78740000D03*
%TO.N,Net-(U2-TR)*%
X119005500Y-101155910D03*
X111760000Y-106680000D03*
%TO.N,Net-(R2-Pad2)*%
X132080000Y-107224500D03*
X137160000Y-109220000D03*
X132080000Y-104864500D03*
%TO.N,Net-(U1-CV)*%
X154940000Y-83820000D03*
X147320000Y-63500000D03*
X132024246Y-65911155D03*
X123083604Y-70145500D03*
%TO.N,Net-(U2-TR)*%
X128650500Y-91440000D03*
X126059028Y-71270500D03*
%TO.N,Net-(U2-DIS)*%
X134620000Y-63500000D03*
%TO.N,!CLK*%
X142240000Y-100875500D03*
X139700000Y-99279500D03*
X144780000Y-91440000D03*
X124460000Y-81280000D03*
%TO.N,HLT*%
X134620000Y-104140000D03*
%TO.N,CLK*%
X134620000Y-101600000D03*
%TD*%
D26*
%TO.N,Net-(U2-DIS)*%
X134620000Y-76200000D02*
X132080000Y-76200000D01*
X135132300Y-76712300D02*
X134620000Y-76200000D01*
X139979247Y-71008256D02*
X139979247Y-73150500D01*
X138610873Y-69639882D02*
X139979247Y-71008256D01*
X139145519Y-69639882D02*
X138610873Y-69639882D01*
X132080000Y-83710000D02*
X130630000Y-85160000D01*
X132080000Y-76200000D02*
X132080000Y-83710000D01*
X126275000Y-77074500D02*
X121920000Y-72719500D01*
X126275000Y-85484500D02*
X126275000Y-77074500D01*
X124460000Y-87299500D02*
X126275000Y-85484500D01*
X127350000Y-94350000D02*
X121920000Y-88920000D01*
X121920000Y-88920000D02*
X121920000Y-88390500D01*
%TO.N,Net-(U1-THR)*%
X129375000Y-100535000D02*
X130600000Y-101760000D01*
X129375000Y-91440000D02*
X129375000Y-100535000D01*
X127400000Y-68330000D02*
X129375000Y-70305000D01*
X129375000Y-70305000D02*
X129375000Y-91440000D01*
%TO.N,GND*%
X149322802Y-61684500D02*
X146553986Y-61684500D01*
X150225000Y-62586698D02*
X149322802Y-61684500D01*
X150225000Y-67205000D02*
X150225000Y-62586698D01*
X149100000Y-68330000D02*
X150225000Y-67205000D01*
%TO.N,Net-(U1-Q)*%
X116840000Y-68580000D02*
X116840000Y-73660000D01*
%TO.N,CLK*%
X136933753Y-86076747D02*
X134620000Y-88390500D01*
X134620000Y-78740000D02*
X134620000Y-81280000D01*
X137160000Y-76200000D02*
X134620000Y-78740000D01*
X136933753Y-83095500D02*
X136933753Y-86076747D01*
X123120000Y-80080000D02*
X124460000Y-78740000D01*
X119780000Y-80080000D02*
X123120000Y-80080000D01*
%TO.N,Net-(U5-Pad9)*%
X140355000Y-81205000D02*
X140355000Y-85595000D01*
X141480000Y-80080000D02*
X140355000Y-81205000D01*
X140355000Y-85595000D02*
X138250000Y-87700000D01*
%TO.N,Net-(U5-Pad6)*%
X137050000Y-81280000D02*
X130630000Y-87700000D01*
X138640991Y-81280000D02*
X137050000Y-81280000D01*
X141480000Y-78440991D02*
X138640991Y-81280000D01*
X141480000Y-77540000D02*
X141480000Y-78440991D01*
%TO.N,Net-(U2-TR)*%
X116533099Y-101155910D02*
X119005500Y-101155910D01*
X111760000Y-106680000D02*
X111760000Y-105929009D01*
X111760000Y-105929009D02*
X116533099Y-101155910D01*
%TO.N,Net-(R2-Pad2)*%
X132080000Y-107224500D02*
X132080000Y-104864500D01*
X138009500Y-110069500D02*
X137160000Y-109220000D01*
X151550500Y-110069500D02*
X138009500Y-110069500D01*
X160555000Y-101065000D02*
X151550500Y-110069500D01*
X160555000Y-78405000D02*
X160555000Y-101065000D01*
X159800000Y-77650000D02*
X160555000Y-78405000D01*
%TO.N,Net-(U1-CV)*%
X154940000Y-87140000D02*
X152280000Y-89800000D01*
X154940000Y-83820000D02*
X154940000Y-87140000D01*
X145945000Y-62125000D02*
X147320000Y-63500000D01*
X134969695Y-62125000D02*
X145945000Y-62125000D01*
X132024246Y-65911155D02*
X132024246Y-65070449D01*
X132024246Y-65070449D02*
X134969695Y-62125000D01*
X125509999Y-70070001D02*
X125434500Y-70145500D01*
X125434500Y-70145500D02*
X123083604Y-70145500D01*
X126600001Y-70070001D02*
X125509999Y-70070001D01*
X127400000Y-70870000D02*
X126600001Y-70070001D01*
%TO.N,Net-(U2-TR)*%
X128650500Y-73861972D02*
X128650500Y-91440000D01*
X126059028Y-71270500D02*
X128650500Y-73861972D01*
%TO.N,Net-(U2-DIS)*%
X134620000Y-63500000D02*
X134620000Y-64340000D01*
X134620000Y-64340000D02*
X130630000Y-68330000D01*
%TO.N,!CLK*%
X143634500Y-102270000D02*
X146050000Y-102270000D01*
X142240000Y-100875500D02*
X143634500Y-102270000D01*
X139700000Y-96520000D02*
X139700000Y-99279500D01*
X144780000Y-91440000D02*
X139700000Y-96520000D01*
X123120000Y-82620000D02*
X124460000Y-81280000D01*
X119780000Y-82620000D02*
X123120000Y-82620000D01*
%TO.N,HLT*%
X129540000Y-104140000D02*
X134620000Y-104140000D01*
X128600000Y-103200000D02*
X129540000Y-104140000D01*
X128600000Y-93980000D02*
X128600000Y-103200000D01*
X119780000Y-85160000D02*
X128600000Y-93980000D01*
%TO.N,CLK*%
X134620000Y-93870000D02*
X138250000Y-90240000D01*
X134620000Y-101600000D02*
X134620000Y-93870000D01*
X150530000Y-99730000D02*
X146050000Y-99730000D01*
X154940000Y-104140000D02*
X150530000Y-99730000D01*
%TO.N,GND*%
X159230000Y-81250000D02*
X152730000Y-81250000D01*
X157280000Y-83200000D02*
X159230000Y-81250000D01*
X157280000Y-89800000D02*
X157280000Y-83200000D01*
X154300000Y-92780000D02*
X157280000Y-89800000D01*
X154300000Y-95845000D02*
X154300000Y-92780000D01*
X154300000Y-96345000D02*
X154300000Y-95845000D01*
X146900000Y-98040000D02*
X152605000Y-98040000D01*
X146050000Y-97190000D02*
X146900000Y-98040000D01*
X152605000Y-98040000D02*
X154300000Y-96345000D01*
X140355000Y-89115000D02*
X141480000Y-90240000D01*
X131755000Y-89115000D02*
X140355000Y-89115000D01*
X130630000Y-90240000D02*
X131755000Y-89115000D01*
X115130000Y-85050000D02*
X115130000Y-94600000D01*
X115130000Y-75500000D02*
X115130000Y-85050000D01*
X115130000Y-65950000D02*
X115130000Y-75500000D01*
X115130000Y-65950000D02*
X117080000Y-65950000D01*
X117080000Y-65950000D02*
X119780000Y-63250000D01*
%TO.N,+5V*%
X125985000Y-64665000D02*
X127400000Y-63250000D01*
X119314009Y-64665000D02*
X125985000Y-64665000D01*
X118655000Y-65324009D02*
X119314009Y-64665000D01*
X119780000Y-70870000D02*
X118655000Y-69745000D01*
X118655000Y-69745000D02*
X118655000Y-65324009D01*
X123270000Y-70870000D02*
X127400000Y-75000000D01*
X119780000Y-70870000D02*
X123270000Y-70870000D01*
X118655000Y-71995000D02*
X119780000Y-70870000D01*
X118655000Y-93275000D02*
X118655000Y-71995000D01*
X119730000Y-94350000D02*
X118655000Y-93275000D01*
X112755000Y-95725000D02*
X111630000Y-94600000D01*
X119730000Y-94350000D02*
X118355000Y-95725000D01*
X118355000Y-95725000D02*
X112755000Y-95725000D01*
X119730000Y-98400000D02*
X119730000Y-94350000D01*
X119730000Y-102450000D02*
X119730000Y-98400000D01*
X119730000Y-106500000D02*
X119730000Y-102450000D01*
X117480000Y-106500000D02*
X115130000Y-104150000D01*
X119730000Y-106500000D02*
X117480000Y-106500000D01*
X135457950Y-109345000D02*
X122575000Y-109345000D01*
X140045000Y-104757950D02*
X135457950Y-109345000D01*
X122575000Y-109345000D02*
X119730000Y-106500000D01*
X140045000Y-100655000D02*
X140045000Y-104757950D01*
X146050000Y-94650000D02*
X140045000Y-100655000D01*
X147150000Y-94650000D02*
X146050000Y-94650000D01*
X150225000Y-91575000D02*
X147150000Y-94650000D01*
X150225000Y-76125000D02*
X150225000Y-91575000D01*
X149100000Y-75000000D02*
X150225000Y-76125000D01*
X151680000Y-75000000D02*
X152180000Y-74500000D01*
X149100000Y-75000000D02*
X151680000Y-75000000D01*
X147975000Y-73875000D02*
X149100000Y-75000000D01*
X139375000Y-73875000D02*
X147975000Y-73875000D01*
X138250000Y-75000000D02*
X139375000Y-73875000D01*
X134120000Y-70870000D02*
X138250000Y-75000000D01*
X130630000Y-70870000D02*
X134120000Y-70870000D01*
X138250000Y-63250000D02*
X130630000Y-70870000D01*
X139375000Y-64375000D02*
X138250000Y-63250000D01*
X147975000Y-64375000D02*
X139375000Y-64375000D01*
X149100000Y-63250000D02*
X147975000Y-64375000D01*
X152180000Y-70900000D02*
X152180000Y-74500000D01*
X147975000Y-68795991D02*
X148634009Y-69455000D01*
X147975000Y-64375000D02*
X147975000Y-68795991D01*
X150735000Y-69455000D02*
X152180000Y-70900000D01*
X148634009Y-69455000D02*
X150735000Y-69455000D01*
%TO.N,Net-(U1-DIS)*%
X154490000Y-60510000D02*
X159800000Y-65820000D01*
X129353604Y-60510000D02*
X154490000Y-60510000D01*
X159800000Y-65820000D02*
X159800000Y-74500000D01*
X129055000Y-64135000D02*
X129055000Y-60808604D01*
X129055000Y-60808604D02*
X129353604Y-60510000D01*
X127400000Y-65790000D02*
X129055000Y-64135000D01*
X155330000Y-74500000D02*
X152180000Y-77650000D01*
X159800000Y-74500000D02*
X155330000Y-74500000D01*
%TO.N,Net-(U1-THR)*%
X122320000Y-68330000D02*
X119780000Y-65790000D01*
X127400000Y-68330000D02*
X122320000Y-68330000D01*
X129505000Y-66225000D02*
X127400000Y-68330000D01*
X129505000Y-60995000D02*
X129505000Y-66225000D01*
X129540000Y-60960000D02*
X129505000Y-60995000D01*
X153174698Y-64900000D02*
X149234698Y-60960000D01*
X149234698Y-60960000D02*
X129540000Y-60960000D01*
X153174698Y-65950000D02*
X153174698Y-64900000D01*
%TO.N,GND*%
X155794698Y-68330000D02*
X149100000Y-68330000D01*
X158174698Y-65950000D02*
X155794698Y-68330000D01*
%TD*%
M02*
