M48
; DRILL file {KiCad (7.0.0)} date Sun May 14 14:46:32 2023
; FORMAT={-:-/ absolute / inch / decimal}
; #@! TF.CreationDate,2023-05-14T14:46:32-04:00
; #@! TF.GenerationSoftware,Kicad,Pcbnew,(7.0.0)
; #@! TF.FileFunction,Plated,1,4,PTH
FMAT,2
INCH
; #@! TA.AperFunction,Plated,PTH,ViaDrill
T1C0.0157
; #@! TA.AperFunction,Plated,PTH,ComponentDrill
T2C0.0315
; #@! TA.AperFunction,Plated,PTH,ComponentDrill
T3C0.0354
; #@! TA.AperFunction,Plated,PTH,ComponentDrill
T4C0.0394
; #@! TA.AperFunction,Plated,PTH,ComponentDrill
T5C0.0433
; #@! TA.AperFunction,Plated,PTH,ComponentDrill
T6C0.0591
%
G90
G05
T1
X4.4Y-3.6
X4.8Y-3.3538
X5.4Y-3.3
X5.9Y-3.4285
T2
X3.4Y-3.5
X3.4Y-3.8
X3.5Y-3.5
X3.5Y-3.8
X3.6Y-3.0
X3.6Y-3.5
X3.6Y-3.8
X3.6Y-4.1
X3.7Y-3.5
X3.7Y-3.8
X3.7378Y-4.1
X3.7969Y-3.0
X3.8Y-3.5
X3.8Y-3.8
X3.9Y-2.5
X3.9Y-3.5
X3.9Y-3.8
X4.0Y-3.5
X4.0Y-3.8
X4.2Y-2.5
X4.2622Y-4.1
X4.3Y-2.6496
X4.3Y-2.9496
X4.3Y-3.1622
X4.3Y-3.3
X4.3Y-3.5
X4.3Y-3.8
X4.35Y-2.5
X4.4Y-2.6496
X4.4Y-2.9496
X4.4Y-3.5
X4.4Y-3.8
X4.4Y-4.1
X4.5Y-2.6496
X4.5Y-2.9496
X4.5Y-3.5
X4.5Y-3.8
X4.6Y-2.6496
X4.6Y-2.9496
X4.6Y-3.5
X4.6Y-3.8
X4.65Y-2.5
X4.7Y-3.1
X4.7Y-3.2969
X4.7Y-3.5
X4.7Y-3.8
X4.8Y-2.5
X4.8Y-3.5
X4.8Y-3.8
X4.9Y-3.5
X4.9Y-3.8
X4.9008Y-2.6496
X4.9008Y-2.9496
X5.0008Y-2.6496
X5.0008Y-2.9496
X5.0622Y-4.1
X5.1Y-2.5
X5.1Y-3.1622
X5.1Y-3.3
X5.1008Y-2.6496
X5.1008Y-2.9496
X5.2Y-3.5
X5.2Y-3.8
X5.2Y-4.1
X5.2008Y-2.6496
X5.2008Y-2.9496
X5.25Y-2.5
X5.3Y-3.5
X5.3Y-3.8
X5.4Y-3.5
X5.4Y-3.8
X5.5Y-3.5
X5.5Y-3.8
X5.55Y-2.5
X5.5504Y-2.6496
X5.5504Y-2.9496
X5.6Y-3.5
X5.6Y-3.8
X5.6504Y-2.6496
X5.6504Y-2.9496
X5.6504Y-3.1622
X5.6504Y-3.3
X5.7Y-2.5
X5.7Y-3.5
X5.7Y-3.8
X5.7504Y-2.6496
X5.7504Y-2.9496
X5.7622Y-4.1
X5.8Y-3.5
X5.8Y-3.8
X5.8504Y-2.6496
X5.8504Y-2.9496
X5.9Y-4.1
X6.0Y-2.5
X6.15Y-2.5
X6.2Y-2.8
X6.2622Y-3.3
X6.3378Y-2.8
X6.4Y-3.3
X6.45Y-2.5
X6.6Y-3.95
X6.6Y-4.25
X6.8411Y-3.4224
X6.8411Y-3.5012
X6.8411Y-3.5799
T3
X6.9Y-4.1
X7.0Y-4.1
T4
X6.6618Y-2.6016
X6.6618Y-2.7
X6.6618Y-2.7984
X7.101Y-3.3012
X7.101Y-3.4012
X7.101Y-3.5012
X7.101Y-3.6012
X7.101Y-3.7012
T5
X6.0441Y-3.6228
X6.0441Y-3.8
X6.3Y-3.6228
X6.3Y-3.8
T6
X6.8411Y-3.3398
X6.8411Y-3.6626
T0
M30
