%TF.GenerationSoftware,KiCad,Pcbnew,(7.0.0)*%
%TF.CreationDate,2023-05-14T14:46:31-04:00*%
%TF.ProjectId,8bc_clock,3862635f-636c-46f6-936b-2e6b69636164,rev?*%
%TF.SameCoordinates,Original*%
%TF.FileFunction,Drillmap*%
%TF.FilePolarity,Positive*%
%FSLAX45Y45*%
G04 Gerber Fmt 4.5, Leading zero omitted, Abs format (unit mm)*
G04 Created by KiCad (PCBNEW (7.0.0)) date 2023-05-14 14:46:31*
%MOMM*%
%LPD*%
G01*
G04 APERTURE LIST*
%ADD10C,0.100000*%
%ADD11C,0.200000*%
%ADD12C,0.220000*%
G04 APERTURE END LIST*
D10*
X7620000Y-5080000D02*
X19558000Y-5080000D01*
X19558000Y-5080000D02*
X19558000Y-11938000D01*
X19558000Y-11938000D02*
X7620000Y-11938000D01*
X7620000Y-11938000D02*
X7620000Y-5080000D01*
D11*
X8028000Y-5488000D02*
X8228000Y-5688000D01*
X8228000Y-5488000D02*
X8028000Y-5688000D01*
X8028000Y-11330000D02*
X8228000Y-11530000D01*
X8228000Y-11330000D02*
X8028000Y-11530000D01*
X18950000Y-5488000D02*
X19150000Y-5688000D01*
X19150000Y-5488000D02*
X18950000Y-5688000D01*
X18950000Y-11330000D02*
X19150000Y-11530000D01*
X19150000Y-11330000D02*
X18950000Y-11530000D01*
D12*
X17731000Y-6418000D02*
G75*
G03*
X17731000Y-6418000I-110000J0D01*
G01*
X17731000Y-7298000D02*
G75*
G03*
X17731000Y-7298000I-110000J0D01*
G01*
D11*
X7862619Y-12236476D02*
X7862619Y-12036476D01*
X7862619Y-12036476D02*
X7910238Y-12036476D01*
X7910238Y-12036476D02*
X7938809Y-12046000D01*
X7938809Y-12046000D02*
X7957857Y-12065048D01*
X7957857Y-12065048D02*
X7967381Y-12084095D01*
X7967381Y-12084095D02*
X7976905Y-12122190D01*
X7976905Y-12122190D02*
X7976905Y-12150762D01*
X7976905Y-12150762D02*
X7967381Y-12188857D01*
X7967381Y-12188857D02*
X7957857Y-12207905D01*
X7957857Y-12207905D02*
X7938809Y-12226952D01*
X7938809Y-12226952D02*
X7910238Y-12236476D01*
X7910238Y-12236476D02*
X7862619Y-12236476D01*
X8062619Y-12236476D02*
X8062619Y-12103143D01*
X8062619Y-12141238D02*
X8072143Y-12122190D01*
X8072143Y-12122190D02*
X8081667Y-12112667D01*
X8081667Y-12112667D02*
X8100714Y-12103143D01*
X8100714Y-12103143D02*
X8119762Y-12103143D01*
X8186428Y-12236476D02*
X8186428Y-12103143D01*
X8186428Y-12036476D02*
X8176905Y-12046000D01*
X8176905Y-12046000D02*
X8186428Y-12055524D01*
X8186428Y-12055524D02*
X8195952Y-12046000D01*
X8195952Y-12046000D02*
X8186428Y-12036476D01*
X8186428Y-12036476D02*
X8186428Y-12055524D01*
X8310238Y-12236476D02*
X8291190Y-12226952D01*
X8291190Y-12226952D02*
X8281667Y-12207905D01*
X8281667Y-12207905D02*
X8281667Y-12036476D01*
X8415000Y-12236476D02*
X8395952Y-12226952D01*
X8395952Y-12226952D02*
X8386428Y-12207905D01*
X8386428Y-12207905D02*
X8386428Y-12036476D01*
X8611190Y-12236476D02*
X8611190Y-12036476D01*
X8611190Y-12036476D02*
X8677857Y-12179333D01*
X8677857Y-12179333D02*
X8744524Y-12036476D01*
X8744524Y-12036476D02*
X8744524Y-12236476D01*
X8925476Y-12236476D02*
X8925476Y-12131714D01*
X8925476Y-12131714D02*
X8915952Y-12112667D01*
X8915952Y-12112667D02*
X8896905Y-12103143D01*
X8896905Y-12103143D02*
X8858809Y-12103143D01*
X8858809Y-12103143D02*
X8839762Y-12112667D01*
X8925476Y-12226952D02*
X8906429Y-12236476D01*
X8906429Y-12236476D02*
X8858809Y-12236476D01*
X8858809Y-12236476D02*
X8839762Y-12226952D01*
X8839762Y-12226952D02*
X8830238Y-12207905D01*
X8830238Y-12207905D02*
X8830238Y-12188857D01*
X8830238Y-12188857D02*
X8839762Y-12169809D01*
X8839762Y-12169809D02*
X8858809Y-12160286D01*
X8858809Y-12160286D02*
X8906429Y-12160286D01*
X8906429Y-12160286D02*
X8925476Y-12150762D01*
X9020714Y-12103143D02*
X9020714Y-12303143D01*
X9020714Y-12112667D02*
X9039762Y-12103143D01*
X9039762Y-12103143D02*
X9077857Y-12103143D01*
X9077857Y-12103143D02*
X9096905Y-12112667D01*
X9096905Y-12112667D02*
X9106429Y-12122190D01*
X9106429Y-12122190D02*
X9115952Y-12141238D01*
X9115952Y-12141238D02*
X9115952Y-12198381D01*
X9115952Y-12198381D02*
X9106429Y-12217428D01*
X9106429Y-12217428D02*
X9096905Y-12226952D01*
X9096905Y-12226952D02*
X9077857Y-12236476D01*
X9077857Y-12236476D02*
X9039762Y-12236476D01*
X9039762Y-12236476D02*
X9020714Y-12226952D01*
X9201667Y-12217428D02*
X9211190Y-12226952D01*
X9211190Y-12226952D02*
X9201667Y-12236476D01*
X9201667Y-12236476D02*
X9192143Y-12226952D01*
X9192143Y-12226952D02*
X9201667Y-12217428D01*
X9201667Y-12217428D02*
X9201667Y-12236476D01*
X9201667Y-12112667D02*
X9211190Y-12122190D01*
X9211190Y-12122190D02*
X9201667Y-12131714D01*
X9201667Y-12131714D02*
X9192143Y-12122190D01*
X9192143Y-12122190D02*
X9201667Y-12112667D01*
X9201667Y-12112667D02*
X9201667Y-12131714D01*
X7415000Y-12483000D02*
X7615000Y-12683000D01*
X7615000Y-12483000D02*
X7415000Y-12683000D01*
X7853095Y-12475524D02*
X7862619Y-12466000D01*
X7862619Y-12466000D02*
X7881667Y-12456476D01*
X7881667Y-12456476D02*
X7929286Y-12456476D01*
X7929286Y-12456476D02*
X7948333Y-12466000D01*
X7948333Y-12466000D02*
X7957857Y-12475524D01*
X7957857Y-12475524D02*
X7967381Y-12494571D01*
X7967381Y-12494571D02*
X7967381Y-12513619D01*
X7967381Y-12513619D02*
X7957857Y-12542190D01*
X7957857Y-12542190D02*
X7843571Y-12656476D01*
X7843571Y-12656476D02*
X7967381Y-12656476D01*
X8053095Y-12637428D02*
X8062619Y-12646952D01*
X8062619Y-12646952D02*
X8053095Y-12656476D01*
X8053095Y-12656476D02*
X8043571Y-12646952D01*
X8043571Y-12646952D02*
X8053095Y-12637428D01*
X8053095Y-12637428D02*
X8053095Y-12656476D01*
X8186428Y-12456476D02*
X8205476Y-12456476D01*
X8205476Y-12456476D02*
X8224524Y-12466000D01*
X8224524Y-12466000D02*
X8234048Y-12475524D01*
X8234048Y-12475524D02*
X8243571Y-12494571D01*
X8243571Y-12494571D02*
X8253095Y-12532667D01*
X8253095Y-12532667D02*
X8253095Y-12580286D01*
X8253095Y-12580286D02*
X8243571Y-12618381D01*
X8243571Y-12618381D02*
X8234048Y-12637428D01*
X8234048Y-12637428D02*
X8224524Y-12646952D01*
X8224524Y-12646952D02*
X8205476Y-12656476D01*
X8205476Y-12656476D02*
X8186428Y-12656476D01*
X8186428Y-12656476D02*
X8167381Y-12646952D01*
X8167381Y-12646952D02*
X8157857Y-12637428D01*
X8157857Y-12637428D02*
X8148333Y-12618381D01*
X8148333Y-12618381D02*
X8138809Y-12580286D01*
X8138809Y-12580286D02*
X8138809Y-12532667D01*
X8138809Y-12532667D02*
X8148333Y-12494571D01*
X8148333Y-12494571D02*
X8157857Y-12475524D01*
X8157857Y-12475524D02*
X8167381Y-12466000D01*
X8167381Y-12466000D02*
X8186428Y-12456476D01*
X8376905Y-12456476D02*
X8395952Y-12456476D01*
X8395952Y-12456476D02*
X8415000Y-12466000D01*
X8415000Y-12466000D02*
X8424524Y-12475524D01*
X8424524Y-12475524D02*
X8434048Y-12494571D01*
X8434048Y-12494571D02*
X8443571Y-12532667D01*
X8443571Y-12532667D02*
X8443571Y-12580286D01*
X8443571Y-12580286D02*
X8434048Y-12618381D01*
X8434048Y-12618381D02*
X8424524Y-12637428D01*
X8424524Y-12637428D02*
X8415000Y-12646952D01*
X8415000Y-12646952D02*
X8395952Y-12656476D01*
X8395952Y-12656476D02*
X8376905Y-12656476D01*
X8376905Y-12656476D02*
X8357857Y-12646952D01*
X8357857Y-12646952D02*
X8348333Y-12637428D01*
X8348333Y-12637428D02*
X8338809Y-12618381D01*
X8338809Y-12618381D02*
X8329286Y-12580286D01*
X8329286Y-12580286D02*
X8329286Y-12532667D01*
X8329286Y-12532667D02*
X8338809Y-12494571D01*
X8338809Y-12494571D02*
X8348333Y-12475524D01*
X8348333Y-12475524D02*
X8357857Y-12466000D01*
X8357857Y-12466000D02*
X8376905Y-12456476D01*
X8567381Y-12456476D02*
X8586429Y-12456476D01*
X8586429Y-12456476D02*
X8605476Y-12466000D01*
X8605476Y-12466000D02*
X8615000Y-12475524D01*
X8615000Y-12475524D02*
X8624524Y-12494571D01*
X8624524Y-12494571D02*
X8634048Y-12532667D01*
X8634048Y-12532667D02*
X8634048Y-12580286D01*
X8634048Y-12580286D02*
X8624524Y-12618381D01*
X8624524Y-12618381D02*
X8615000Y-12637428D01*
X8615000Y-12637428D02*
X8605476Y-12646952D01*
X8605476Y-12646952D02*
X8586429Y-12656476D01*
X8586429Y-12656476D02*
X8567381Y-12656476D01*
X8567381Y-12656476D02*
X8548333Y-12646952D01*
X8548333Y-12646952D02*
X8538810Y-12637428D01*
X8538810Y-12637428D02*
X8529286Y-12618381D01*
X8529286Y-12618381D02*
X8519762Y-12580286D01*
X8519762Y-12580286D02*
X8519762Y-12532667D01*
X8519762Y-12532667D02*
X8529286Y-12494571D01*
X8529286Y-12494571D02*
X8538810Y-12475524D01*
X8538810Y-12475524D02*
X8548333Y-12466000D01*
X8548333Y-12466000D02*
X8567381Y-12456476D01*
X8719762Y-12656476D02*
X8719762Y-12523143D01*
X8719762Y-12542190D02*
X8729286Y-12532667D01*
X8729286Y-12532667D02*
X8748333Y-12523143D01*
X8748333Y-12523143D02*
X8776905Y-12523143D01*
X8776905Y-12523143D02*
X8795952Y-12532667D01*
X8795952Y-12532667D02*
X8805476Y-12551714D01*
X8805476Y-12551714D02*
X8805476Y-12656476D01*
X8805476Y-12551714D02*
X8815000Y-12532667D01*
X8815000Y-12532667D02*
X8834048Y-12523143D01*
X8834048Y-12523143D02*
X8862619Y-12523143D01*
X8862619Y-12523143D02*
X8881667Y-12532667D01*
X8881667Y-12532667D02*
X8891191Y-12551714D01*
X8891191Y-12551714D02*
X8891191Y-12656476D01*
X8986429Y-12656476D02*
X8986429Y-12523143D01*
X8986429Y-12542190D02*
X8995952Y-12532667D01*
X8995952Y-12532667D02*
X9015000Y-12523143D01*
X9015000Y-12523143D02*
X9043572Y-12523143D01*
X9043572Y-12523143D02*
X9062619Y-12532667D01*
X9062619Y-12532667D02*
X9072143Y-12551714D01*
X9072143Y-12551714D02*
X9072143Y-12656476D01*
X9072143Y-12551714D02*
X9081667Y-12532667D01*
X9081667Y-12532667D02*
X9100714Y-12523143D01*
X9100714Y-12523143D02*
X9129286Y-12523143D01*
X9129286Y-12523143D02*
X9148333Y-12532667D01*
X9148333Y-12532667D02*
X9157857Y-12551714D01*
X9157857Y-12551714D02*
X9157857Y-12656476D01*
X9515952Y-12446952D02*
X9344524Y-12704095D01*
X9740714Y-12456476D02*
X9759762Y-12456476D01*
X9759762Y-12456476D02*
X9778810Y-12466000D01*
X9778810Y-12466000D02*
X9788333Y-12475524D01*
X9788333Y-12475524D02*
X9797857Y-12494571D01*
X9797857Y-12494571D02*
X9807381Y-12532667D01*
X9807381Y-12532667D02*
X9807381Y-12580286D01*
X9807381Y-12580286D02*
X9797857Y-12618381D01*
X9797857Y-12618381D02*
X9788333Y-12637428D01*
X9788333Y-12637428D02*
X9778810Y-12646952D01*
X9778810Y-12646952D02*
X9759762Y-12656476D01*
X9759762Y-12656476D02*
X9740714Y-12656476D01*
X9740714Y-12656476D02*
X9721667Y-12646952D01*
X9721667Y-12646952D02*
X9712143Y-12637428D01*
X9712143Y-12637428D02*
X9702619Y-12618381D01*
X9702619Y-12618381D02*
X9693095Y-12580286D01*
X9693095Y-12580286D02*
X9693095Y-12532667D01*
X9693095Y-12532667D02*
X9702619Y-12494571D01*
X9702619Y-12494571D02*
X9712143Y-12475524D01*
X9712143Y-12475524D02*
X9721667Y-12466000D01*
X9721667Y-12466000D02*
X9740714Y-12456476D01*
X9893095Y-12637428D02*
X9902619Y-12646952D01*
X9902619Y-12646952D02*
X9893095Y-12656476D01*
X9893095Y-12656476D02*
X9883572Y-12646952D01*
X9883572Y-12646952D02*
X9893095Y-12637428D01*
X9893095Y-12637428D02*
X9893095Y-12656476D01*
X10026429Y-12456476D02*
X10045476Y-12456476D01*
X10045476Y-12456476D02*
X10064524Y-12466000D01*
X10064524Y-12466000D02*
X10074048Y-12475524D01*
X10074048Y-12475524D02*
X10083572Y-12494571D01*
X10083572Y-12494571D02*
X10093095Y-12532667D01*
X10093095Y-12532667D02*
X10093095Y-12580286D01*
X10093095Y-12580286D02*
X10083572Y-12618381D01*
X10083572Y-12618381D02*
X10074048Y-12637428D01*
X10074048Y-12637428D02*
X10064524Y-12646952D01*
X10064524Y-12646952D02*
X10045476Y-12656476D01*
X10045476Y-12656476D02*
X10026429Y-12656476D01*
X10026429Y-12656476D02*
X10007381Y-12646952D01*
X10007381Y-12646952D02*
X9997857Y-12637428D01*
X9997857Y-12637428D02*
X9988333Y-12618381D01*
X9988333Y-12618381D02*
X9978810Y-12580286D01*
X9978810Y-12580286D02*
X9978810Y-12532667D01*
X9978810Y-12532667D02*
X9988333Y-12494571D01*
X9988333Y-12494571D02*
X9997857Y-12475524D01*
X9997857Y-12475524D02*
X10007381Y-12466000D01*
X10007381Y-12466000D02*
X10026429Y-12456476D01*
X10159762Y-12456476D02*
X10293095Y-12456476D01*
X10293095Y-12456476D02*
X10207381Y-12656476D01*
X10397857Y-12542190D02*
X10378810Y-12532667D01*
X10378810Y-12532667D02*
X10369286Y-12523143D01*
X10369286Y-12523143D02*
X10359762Y-12504095D01*
X10359762Y-12504095D02*
X10359762Y-12494571D01*
X10359762Y-12494571D02*
X10369286Y-12475524D01*
X10369286Y-12475524D02*
X10378810Y-12466000D01*
X10378810Y-12466000D02*
X10397857Y-12456476D01*
X10397857Y-12456476D02*
X10435953Y-12456476D01*
X10435953Y-12456476D02*
X10455000Y-12466000D01*
X10455000Y-12466000D02*
X10464524Y-12475524D01*
X10464524Y-12475524D02*
X10474048Y-12494571D01*
X10474048Y-12494571D02*
X10474048Y-12504095D01*
X10474048Y-12504095D02*
X10464524Y-12523143D01*
X10464524Y-12523143D02*
X10455000Y-12532667D01*
X10455000Y-12532667D02*
X10435953Y-12542190D01*
X10435953Y-12542190D02*
X10397857Y-12542190D01*
X10397857Y-12542190D02*
X10378810Y-12551714D01*
X10378810Y-12551714D02*
X10369286Y-12561238D01*
X10369286Y-12561238D02*
X10359762Y-12580286D01*
X10359762Y-12580286D02*
X10359762Y-12618381D01*
X10359762Y-12618381D02*
X10369286Y-12637428D01*
X10369286Y-12637428D02*
X10378810Y-12646952D01*
X10378810Y-12646952D02*
X10397857Y-12656476D01*
X10397857Y-12656476D02*
X10435953Y-12656476D01*
X10435953Y-12656476D02*
X10455000Y-12646952D01*
X10455000Y-12646952D02*
X10464524Y-12637428D01*
X10464524Y-12637428D02*
X10474048Y-12618381D01*
X10474048Y-12618381D02*
X10474048Y-12580286D01*
X10474048Y-12580286D02*
X10464524Y-12561238D01*
X10464524Y-12561238D02*
X10455000Y-12551714D01*
X10455000Y-12551714D02*
X10435953Y-12542190D01*
X10540714Y-12456476D02*
X10674048Y-12456476D01*
X10674048Y-12456476D02*
X10588333Y-12656476D01*
X10740714Y-12456476D02*
X10740714Y-12494571D01*
X10816905Y-12456476D02*
X10816905Y-12494571D01*
X11079762Y-12732667D02*
X11070238Y-12723143D01*
X11070238Y-12723143D02*
X11051191Y-12694571D01*
X11051191Y-12694571D02*
X11041667Y-12675524D01*
X11041667Y-12675524D02*
X11032143Y-12646952D01*
X11032143Y-12646952D02*
X11022619Y-12599333D01*
X11022619Y-12599333D02*
X11022619Y-12561238D01*
X11022619Y-12561238D02*
X11032143Y-12513619D01*
X11032143Y-12513619D02*
X11041667Y-12485048D01*
X11041667Y-12485048D02*
X11051191Y-12466000D01*
X11051191Y-12466000D02*
X11070238Y-12437428D01*
X11070238Y-12437428D02*
X11079762Y-12427905D01*
X11241667Y-12523143D02*
X11241667Y-12656476D01*
X11194048Y-12446952D02*
X11146429Y-12589809D01*
X11146429Y-12589809D02*
X11270238Y-12589809D01*
X11466429Y-12656476D02*
X11466429Y-12456476D01*
X11552143Y-12656476D02*
X11552143Y-12551714D01*
X11552143Y-12551714D02*
X11542619Y-12532667D01*
X11542619Y-12532667D02*
X11523572Y-12523143D01*
X11523572Y-12523143D02*
X11495000Y-12523143D01*
X11495000Y-12523143D02*
X11475952Y-12532667D01*
X11475952Y-12532667D02*
X11466429Y-12542190D01*
X11675952Y-12656476D02*
X11656905Y-12646952D01*
X11656905Y-12646952D02*
X11647381Y-12637428D01*
X11647381Y-12637428D02*
X11637857Y-12618381D01*
X11637857Y-12618381D02*
X11637857Y-12561238D01*
X11637857Y-12561238D02*
X11647381Y-12542190D01*
X11647381Y-12542190D02*
X11656905Y-12532667D01*
X11656905Y-12532667D02*
X11675952Y-12523143D01*
X11675952Y-12523143D02*
X11704524Y-12523143D01*
X11704524Y-12523143D02*
X11723572Y-12532667D01*
X11723572Y-12532667D02*
X11733095Y-12542190D01*
X11733095Y-12542190D02*
X11742619Y-12561238D01*
X11742619Y-12561238D02*
X11742619Y-12618381D01*
X11742619Y-12618381D02*
X11733095Y-12637428D01*
X11733095Y-12637428D02*
X11723572Y-12646952D01*
X11723572Y-12646952D02*
X11704524Y-12656476D01*
X11704524Y-12656476D02*
X11675952Y-12656476D01*
X11856905Y-12656476D02*
X11837857Y-12646952D01*
X11837857Y-12646952D02*
X11828333Y-12627905D01*
X11828333Y-12627905D02*
X11828333Y-12456476D01*
X12009286Y-12646952D02*
X11990238Y-12656476D01*
X11990238Y-12656476D02*
X11952143Y-12656476D01*
X11952143Y-12656476D02*
X11933095Y-12646952D01*
X11933095Y-12646952D02*
X11923572Y-12627905D01*
X11923572Y-12627905D02*
X11923572Y-12551714D01*
X11923572Y-12551714D02*
X11933095Y-12532667D01*
X11933095Y-12532667D02*
X11952143Y-12523143D01*
X11952143Y-12523143D02*
X11990238Y-12523143D01*
X11990238Y-12523143D02*
X12009286Y-12532667D01*
X12009286Y-12532667D02*
X12018810Y-12551714D01*
X12018810Y-12551714D02*
X12018810Y-12570762D01*
X12018810Y-12570762D02*
X11923572Y-12589809D01*
X12095000Y-12646952D02*
X12114048Y-12656476D01*
X12114048Y-12656476D02*
X12152143Y-12656476D01*
X12152143Y-12656476D02*
X12171191Y-12646952D01*
X12171191Y-12646952D02*
X12180714Y-12627905D01*
X12180714Y-12627905D02*
X12180714Y-12618381D01*
X12180714Y-12618381D02*
X12171191Y-12599333D01*
X12171191Y-12599333D02*
X12152143Y-12589809D01*
X12152143Y-12589809D02*
X12123572Y-12589809D01*
X12123572Y-12589809D02*
X12104524Y-12580286D01*
X12104524Y-12580286D02*
X12095000Y-12561238D01*
X12095000Y-12561238D02*
X12095000Y-12551714D01*
X12095000Y-12551714D02*
X12104524Y-12532667D01*
X12104524Y-12532667D02*
X12123572Y-12523143D01*
X12123572Y-12523143D02*
X12152143Y-12523143D01*
X12152143Y-12523143D02*
X12171191Y-12532667D01*
X12247381Y-12732667D02*
X12256905Y-12723143D01*
X12256905Y-12723143D02*
X12275953Y-12694571D01*
X12275953Y-12694571D02*
X12285476Y-12675524D01*
X12285476Y-12675524D02*
X12295000Y-12646952D01*
X12295000Y-12646952D02*
X12304524Y-12599333D01*
X12304524Y-12599333D02*
X12304524Y-12561238D01*
X12304524Y-12561238D02*
X12295000Y-12513619D01*
X12295000Y-12513619D02*
X12285476Y-12485048D01*
X12285476Y-12485048D02*
X12275953Y-12466000D01*
X12275953Y-12466000D02*
X12256905Y-12437428D01*
X12256905Y-12437428D02*
X12247381Y-12427905D01*
X12576905Y-12732667D02*
X12567381Y-12723143D01*
X12567381Y-12723143D02*
X12548333Y-12694571D01*
X12548333Y-12694571D02*
X12538810Y-12675524D01*
X12538810Y-12675524D02*
X12529286Y-12646952D01*
X12529286Y-12646952D02*
X12519762Y-12599333D01*
X12519762Y-12599333D02*
X12519762Y-12561238D01*
X12519762Y-12561238D02*
X12529286Y-12513619D01*
X12529286Y-12513619D02*
X12538810Y-12485048D01*
X12538810Y-12485048D02*
X12548333Y-12466000D01*
X12548333Y-12466000D02*
X12567381Y-12437428D01*
X12567381Y-12437428D02*
X12576905Y-12427905D01*
X12653095Y-12523143D02*
X12653095Y-12656476D01*
X12653095Y-12542190D02*
X12662619Y-12532667D01*
X12662619Y-12532667D02*
X12681667Y-12523143D01*
X12681667Y-12523143D02*
X12710238Y-12523143D01*
X12710238Y-12523143D02*
X12729286Y-12532667D01*
X12729286Y-12532667D02*
X12738810Y-12551714D01*
X12738810Y-12551714D02*
X12738810Y-12656476D01*
X12862619Y-12656476D02*
X12843572Y-12646952D01*
X12843572Y-12646952D02*
X12834048Y-12637428D01*
X12834048Y-12637428D02*
X12824524Y-12618381D01*
X12824524Y-12618381D02*
X12824524Y-12561238D01*
X12824524Y-12561238D02*
X12834048Y-12542190D01*
X12834048Y-12542190D02*
X12843572Y-12532667D01*
X12843572Y-12532667D02*
X12862619Y-12523143D01*
X12862619Y-12523143D02*
X12891191Y-12523143D01*
X12891191Y-12523143D02*
X12910238Y-12532667D01*
X12910238Y-12532667D02*
X12919762Y-12542190D01*
X12919762Y-12542190D02*
X12929286Y-12561238D01*
X12929286Y-12561238D02*
X12929286Y-12618381D01*
X12929286Y-12618381D02*
X12919762Y-12637428D01*
X12919762Y-12637428D02*
X12910238Y-12646952D01*
X12910238Y-12646952D02*
X12891191Y-12656476D01*
X12891191Y-12656476D02*
X12862619Y-12656476D01*
X12986429Y-12523143D02*
X13062619Y-12523143D01*
X13015000Y-12456476D02*
X13015000Y-12627905D01*
X13015000Y-12627905D02*
X13024524Y-12646952D01*
X13024524Y-12646952D02*
X13043572Y-12656476D01*
X13043572Y-12656476D02*
X13062619Y-12656476D01*
X13249286Y-12523143D02*
X13249286Y-12723143D01*
X13249286Y-12532667D02*
X13268333Y-12523143D01*
X13268333Y-12523143D02*
X13306429Y-12523143D01*
X13306429Y-12523143D02*
X13325476Y-12532667D01*
X13325476Y-12532667D02*
X13335000Y-12542190D01*
X13335000Y-12542190D02*
X13344524Y-12561238D01*
X13344524Y-12561238D02*
X13344524Y-12618381D01*
X13344524Y-12618381D02*
X13335000Y-12637428D01*
X13335000Y-12637428D02*
X13325476Y-12646952D01*
X13325476Y-12646952D02*
X13306429Y-12656476D01*
X13306429Y-12656476D02*
X13268333Y-12656476D01*
X13268333Y-12656476D02*
X13249286Y-12646952D01*
X13458810Y-12656476D02*
X13439762Y-12646952D01*
X13439762Y-12646952D02*
X13430238Y-12627905D01*
X13430238Y-12627905D02*
X13430238Y-12456476D01*
X13620714Y-12656476D02*
X13620714Y-12551714D01*
X13620714Y-12551714D02*
X13611191Y-12532667D01*
X13611191Y-12532667D02*
X13592143Y-12523143D01*
X13592143Y-12523143D02*
X13554048Y-12523143D01*
X13554048Y-12523143D02*
X13535000Y-12532667D01*
X13620714Y-12646952D02*
X13601667Y-12656476D01*
X13601667Y-12656476D02*
X13554048Y-12656476D01*
X13554048Y-12656476D02*
X13535000Y-12646952D01*
X13535000Y-12646952D02*
X13525476Y-12627905D01*
X13525476Y-12627905D02*
X13525476Y-12608857D01*
X13525476Y-12608857D02*
X13535000Y-12589809D01*
X13535000Y-12589809D02*
X13554048Y-12580286D01*
X13554048Y-12580286D02*
X13601667Y-12580286D01*
X13601667Y-12580286D02*
X13620714Y-12570762D01*
X13687381Y-12523143D02*
X13763572Y-12523143D01*
X13715953Y-12456476D02*
X13715953Y-12627905D01*
X13715953Y-12627905D02*
X13725476Y-12646952D01*
X13725476Y-12646952D02*
X13744524Y-12656476D01*
X13744524Y-12656476D02*
X13763572Y-12656476D01*
X13906429Y-12646952D02*
X13887381Y-12656476D01*
X13887381Y-12656476D02*
X13849286Y-12656476D01*
X13849286Y-12656476D02*
X13830238Y-12646952D01*
X13830238Y-12646952D02*
X13820714Y-12627905D01*
X13820714Y-12627905D02*
X13820714Y-12551714D01*
X13820714Y-12551714D02*
X13830238Y-12532667D01*
X13830238Y-12532667D02*
X13849286Y-12523143D01*
X13849286Y-12523143D02*
X13887381Y-12523143D01*
X13887381Y-12523143D02*
X13906429Y-12532667D01*
X13906429Y-12532667D02*
X13915953Y-12551714D01*
X13915953Y-12551714D02*
X13915953Y-12570762D01*
X13915953Y-12570762D02*
X13820714Y-12589809D01*
X14087381Y-12656476D02*
X14087381Y-12456476D01*
X14087381Y-12646952D02*
X14068334Y-12656476D01*
X14068334Y-12656476D02*
X14030238Y-12656476D01*
X14030238Y-12656476D02*
X14011191Y-12646952D01*
X14011191Y-12646952D02*
X14001667Y-12637428D01*
X14001667Y-12637428D02*
X13992143Y-12618381D01*
X13992143Y-12618381D02*
X13992143Y-12561238D01*
X13992143Y-12561238D02*
X14001667Y-12542190D01*
X14001667Y-12542190D02*
X14011191Y-12532667D01*
X14011191Y-12532667D02*
X14030238Y-12523143D01*
X14030238Y-12523143D02*
X14068334Y-12523143D01*
X14068334Y-12523143D02*
X14087381Y-12532667D01*
X14163572Y-12732667D02*
X14173095Y-12723143D01*
X14173095Y-12723143D02*
X14192143Y-12694571D01*
X14192143Y-12694571D02*
X14201667Y-12675524D01*
X14201667Y-12675524D02*
X14211191Y-12646952D01*
X14211191Y-12646952D02*
X14220714Y-12599333D01*
X14220714Y-12599333D02*
X14220714Y-12561238D01*
X14220714Y-12561238D02*
X14211191Y-12513619D01*
X14211191Y-12513619D02*
X14201667Y-12485048D01*
X14201667Y-12485048D02*
X14192143Y-12466000D01*
X14192143Y-12466000D02*
X14173095Y-12437428D01*
X14173095Y-12437428D02*
X14163572Y-12427905D01*
X7615000Y-12903000D02*
G75*
G03*
X7615000Y-12903000I-100000J0D01*
G01*
X7853095Y-12795524D02*
X7862619Y-12786000D01*
X7862619Y-12786000D02*
X7881667Y-12776476D01*
X7881667Y-12776476D02*
X7929286Y-12776476D01*
X7929286Y-12776476D02*
X7948333Y-12786000D01*
X7948333Y-12786000D02*
X7957857Y-12795524D01*
X7957857Y-12795524D02*
X7967381Y-12814571D01*
X7967381Y-12814571D02*
X7967381Y-12833619D01*
X7967381Y-12833619D02*
X7957857Y-12862190D01*
X7957857Y-12862190D02*
X7843571Y-12976476D01*
X7843571Y-12976476D02*
X7967381Y-12976476D01*
X8053095Y-12957428D02*
X8062619Y-12966952D01*
X8062619Y-12966952D02*
X8053095Y-12976476D01*
X8053095Y-12976476D02*
X8043571Y-12966952D01*
X8043571Y-12966952D02*
X8053095Y-12957428D01*
X8053095Y-12957428D02*
X8053095Y-12976476D01*
X8138809Y-12795524D02*
X8148333Y-12786000D01*
X8148333Y-12786000D02*
X8167381Y-12776476D01*
X8167381Y-12776476D02*
X8215000Y-12776476D01*
X8215000Y-12776476D02*
X8234048Y-12786000D01*
X8234048Y-12786000D02*
X8243571Y-12795524D01*
X8243571Y-12795524D02*
X8253095Y-12814571D01*
X8253095Y-12814571D02*
X8253095Y-12833619D01*
X8253095Y-12833619D02*
X8243571Y-12862190D01*
X8243571Y-12862190D02*
X8129286Y-12976476D01*
X8129286Y-12976476D02*
X8253095Y-12976476D01*
X8376905Y-12776476D02*
X8395952Y-12776476D01*
X8395952Y-12776476D02*
X8415000Y-12786000D01*
X8415000Y-12786000D02*
X8424524Y-12795524D01*
X8424524Y-12795524D02*
X8434048Y-12814571D01*
X8434048Y-12814571D02*
X8443571Y-12852667D01*
X8443571Y-12852667D02*
X8443571Y-12900286D01*
X8443571Y-12900286D02*
X8434048Y-12938381D01*
X8434048Y-12938381D02*
X8424524Y-12957428D01*
X8424524Y-12957428D02*
X8415000Y-12966952D01*
X8415000Y-12966952D02*
X8395952Y-12976476D01*
X8395952Y-12976476D02*
X8376905Y-12976476D01*
X8376905Y-12976476D02*
X8357857Y-12966952D01*
X8357857Y-12966952D02*
X8348333Y-12957428D01*
X8348333Y-12957428D02*
X8338809Y-12938381D01*
X8338809Y-12938381D02*
X8329286Y-12900286D01*
X8329286Y-12900286D02*
X8329286Y-12852667D01*
X8329286Y-12852667D02*
X8338809Y-12814571D01*
X8338809Y-12814571D02*
X8348333Y-12795524D01*
X8348333Y-12795524D02*
X8357857Y-12786000D01*
X8357857Y-12786000D02*
X8376905Y-12776476D01*
X8567381Y-12776476D02*
X8586429Y-12776476D01*
X8586429Y-12776476D02*
X8605476Y-12786000D01*
X8605476Y-12786000D02*
X8615000Y-12795524D01*
X8615000Y-12795524D02*
X8624524Y-12814571D01*
X8624524Y-12814571D02*
X8634048Y-12852667D01*
X8634048Y-12852667D02*
X8634048Y-12900286D01*
X8634048Y-12900286D02*
X8624524Y-12938381D01*
X8624524Y-12938381D02*
X8615000Y-12957428D01*
X8615000Y-12957428D02*
X8605476Y-12966952D01*
X8605476Y-12966952D02*
X8586429Y-12976476D01*
X8586429Y-12976476D02*
X8567381Y-12976476D01*
X8567381Y-12976476D02*
X8548333Y-12966952D01*
X8548333Y-12966952D02*
X8538810Y-12957428D01*
X8538810Y-12957428D02*
X8529286Y-12938381D01*
X8529286Y-12938381D02*
X8519762Y-12900286D01*
X8519762Y-12900286D02*
X8519762Y-12852667D01*
X8519762Y-12852667D02*
X8529286Y-12814571D01*
X8529286Y-12814571D02*
X8538810Y-12795524D01*
X8538810Y-12795524D02*
X8548333Y-12786000D01*
X8548333Y-12786000D02*
X8567381Y-12776476D01*
X8719762Y-12976476D02*
X8719762Y-12843143D01*
X8719762Y-12862190D02*
X8729286Y-12852667D01*
X8729286Y-12852667D02*
X8748333Y-12843143D01*
X8748333Y-12843143D02*
X8776905Y-12843143D01*
X8776905Y-12843143D02*
X8795952Y-12852667D01*
X8795952Y-12852667D02*
X8805476Y-12871714D01*
X8805476Y-12871714D02*
X8805476Y-12976476D01*
X8805476Y-12871714D02*
X8815000Y-12852667D01*
X8815000Y-12852667D02*
X8834048Y-12843143D01*
X8834048Y-12843143D02*
X8862619Y-12843143D01*
X8862619Y-12843143D02*
X8881667Y-12852667D01*
X8881667Y-12852667D02*
X8891191Y-12871714D01*
X8891191Y-12871714D02*
X8891191Y-12976476D01*
X8986429Y-12976476D02*
X8986429Y-12843143D01*
X8986429Y-12862190D02*
X8995952Y-12852667D01*
X8995952Y-12852667D02*
X9015000Y-12843143D01*
X9015000Y-12843143D02*
X9043572Y-12843143D01*
X9043572Y-12843143D02*
X9062619Y-12852667D01*
X9062619Y-12852667D02*
X9072143Y-12871714D01*
X9072143Y-12871714D02*
X9072143Y-12976476D01*
X9072143Y-12871714D02*
X9081667Y-12852667D01*
X9081667Y-12852667D02*
X9100714Y-12843143D01*
X9100714Y-12843143D02*
X9129286Y-12843143D01*
X9129286Y-12843143D02*
X9148333Y-12852667D01*
X9148333Y-12852667D02*
X9157857Y-12871714D01*
X9157857Y-12871714D02*
X9157857Y-12976476D01*
X9515952Y-12766952D02*
X9344524Y-13024095D01*
X9740714Y-12776476D02*
X9759762Y-12776476D01*
X9759762Y-12776476D02*
X9778810Y-12786000D01*
X9778810Y-12786000D02*
X9788333Y-12795524D01*
X9788333Y-12795524D02*
X9797857Y-12814571D01*
X9797857Y-12814571D02*
X9807381Y-12852667D01*
X9807381Y-12852667D02*
X9807381Y-12900286D01*
X9807381Y-12900286D02*
X9797857Y-12938381D01*
X9797857Y-12938381D02*
X9788333Y-12957428D01*
X9788333Y-12957428D02*
X9778810Y-12966952D01*
X9778810Y-12966952D02*
X9759762Y-12976476D01*
X9759762Y-12976476D02*
X9740714Y-12976476D01*
X9740714Y-12976476D02*
X9721667Y-12966952D01*
X9721667Y-12966952D02*
X9712143Y-12957428D01*
X9712143Y-12957428D02*
X9702619Y-12938381D01*
X9702619Y-12938381D02*
X9693095Y-12900286D01*
X9693095Y-12900286D02*
X9693095Y-12852667D01*
X9693095Y-12852667D02*
X9702619Y-12814571D01*
X9702619Y-12814571D02*
X9712143Y-12795524D01*
X9712143Y-12795524D02*
X9721667Y-12786000D01*
X9721667Y-12786000D02*
X9740714Y-12776476D01*
X9893095Y-12957428D02*
X9902619Y-12966952D01*
X9902619Y-12966952D02*
X9893095Y-12976476D01*
X9893095Y-12976476D02*
X9883572Y-12966952D01*
X9883572Y-12966952D02*
X9893095Y-12957428D01*
X9893095Y-12957428D02*
X9893095Y-12976476D01*
X10026429Y-12776476D02*
X10045476Y-12776476D01*
X10045476Y-12776476D02*
X10064524Y-12786000D01*
X10064524Y-12786000D02*
X10074048Y-12795524D01*
X10074048Y-12795524D02*
X10083572Y-12814571D01*
X10083572Y-12814571D02*
X10093095Y-12852667D01*
X10093095Y-12852667D02*
X10093095Y-12900286D01*
X10093095Y-12900286D02*
X10083572Y-12938381D01*
X10083572Y-12938381D02*
X10074048Y-12957428D01*
X10074048Y-12957428D02*
X10064524Y-12966952D01*
X10064524Y-12966952D02*
X10045476Y-12976476D01*
X10045476Y-12976476D02*
X10026429Y-12976476D01*
X10026429Y-12976476D02*
X10007381Y-12966952D01*
X10007381Y-12966952D02*
X9997857Y-12957428D01*
X9997857Y-12957428D02*
X9988333Y-12938381D01*
X9988333Y-12938381D02*
X9978810Y-12900286D01*
X9978810Y-12900286D02*
X9978810Y-12852667D01*
X9978810Y-12852667D02*
X9988333Y-12814571D01*
X9988333Y-12814571D02*
X9997857Y-12795524D01*
X9997857Y-12795524D02*
X10007381Y-12786000D01*
X10007381Y-12786000D02*
X10026429Y-12776476D01*
X10207381Y-12862190D02*
X10188333Y-12852667D01*
X10188333Y-12852667D02*
X10178810Y-12843143D01*
X10178810Y-12843143D02*
X10169286Y-12824095D01*
X10169286Y-12824095D02*
X10169286Y-12814571D01*
X10169286Y-12814571D02*
X10178810Y-12795524D01*
X10178810Y-12795524D02*
X10188333Y-12786000D01*
X10188333Y-12786000D02*
X10207381Y-12776476D01*
X10207381Y-12776476D02*
X10245476Y-12776476D01*
X10245476Y-12776476D02*
X10264524Y-12786000D01*
X10264524Y-12786000D02*
X10274048Y-12795524D01*
X10274048Y-12795524D02*
X10283572Y-12814571D01*
X10283572Y-12814571D02*
X10283572Y-12824095D01*
X10283572Y-12824095D02*
X10274048Y-12843143D01*
X10274048Y-12843143D02*
X10264524Y-12852667D01*
X10264524Y-12852667D02*
X10245476Y-12862190D01*
X10245476Y-12862190D02*
X10207381Y-12862190D01*
X10207381Y-12862190D02*
X10188333Y-12871714D01*
X10188333Y-12871714D02*
X10178810Y-12881238D01*
X10178810Y-12881238D02*
X10169286Y-12900286D01*
X10169286Y-12900286D02*
X10169286Y-12938381D01*
X10169286Y-12938381D02*
X10178810Y-12957428D01*
X10178810Y-12957428D02*
X10188333Y-12966952D01*
X10188333Y-12966952D02*
X10207381Y-12976476D01*
X10207381Y-12976476D02*
X10245476Y-12976476D01*
X10245476Y-12976476D02*
X10264524Y-12966952D01*
X10264524Y-12966952D02*
X10274048Y-12957428D01*
X10274048Y-12957428D02*
X10283572Y-12938381D01*
X10283572Y-12938381D02*
X10283572Y-12900286D01*
X10283572Y-12900286D02*
X10274048Y-12881238D01*
X10274048Y-12881238D02*
X10264524Y-12871714D01*
X10264524Y-12871714D02*
X10245476Y-12862190D01*
X10455000Y-12776476D02*
X10416905Y-12776476D01*
X10416905Y-12776476D02*
X10397857Y-12786000D01*
X10397857Y-12786000D02*
X10388333Y-12795524D01*
X10388333Y-12795524D02*
X10369286Y-12824095D01*
X10369286Y-12824095D02*
X10359762Y-12862190D01*
X10359762Y-12862190D02*
X10359762Y-12938381D01*
X10359762Y-12938381D02*
X10369286Y-12957428D01*
X10369286Y-12957428D02*
X10378810Y-12966952D01*
X10378810Y-12966952D02*
X10397857Y-12976476D01*
X10397857Y-12976476D02*
X10435953Y-12976476D01*
X10435953Y-12976476D02*
X10455000Y-12966952D01*
X10455000Y-12966952D02*
X10464524Y-12957428D01*
X10464524Y-12957428D02*
X10474048Y-12938381D01*
X10474048Y-12938381D02*
X10474048Y-12890762D01*
X10474048Y-12890762D02*
X10464524Y-12871714D01*
X10464524Y-12871714D02*
X10455000Y-12862190D01*
X10455000Y-12862190D02*
X10435953Y-12852667D01*
X10435953Y-12852667D02*
X10397857Y-12852667D01*
X10397857Y-12852667D02*
X10378810Y-12862190D01*
X10378810Y-12862190D02*
X10369286Y-12871714D01*
X10369286Y-12871714D02*
X10359762Y-12890762D01*
X10645476Y-12776476D02*
X10607381Y-12776476D01*
X10607381Y-12776476D02*
X10588333Y-12786000D01*
X10588333Y-12786000D02*
X10578810Y-12795524D01*
X10578810Y-12795524D02*
X10559762Y-12824095D01*
X10559762Y-12824095D02*
X10550238Y-12862190D01*
X10550238Y-12862190D02*
X10550238Y-12938381D01*
X10550238Y-12938381D02*
X10559762Y-12957428D01*
X10559762Y-12957428D02*
X10569286Y-12966952D01*
X10569286Y-12966952D02*
X10588333Y-12976476D01*
X10588333Y-12976476D02*
X10626429Y-12976476D01*
X10626429Y-12976476D02*
X10645476Y-12966952D01*
X10645476Y-12966952D02*
X10655000Y-12957428D01*
X10655000Y-12957428D02*
X10664524Y-12938381D01*
X10664524Y-12938381D02*
X10664524Y-12890762D01*
X10664524Y-12890762D02*
X10655000Y-12871714D01*
X10655000Y-12871714D02*
X10645476Y-12862190D01*
X10645476Y-12862190D02*
X10626429Y-12852667D01*
X10626429Y-12852667D02*
X10588333Y-12852667D01*
X10588333Y-12852667D02*
X10569286Y-12862190D01*
X10569286Y-12862190D02*
X10559762Y-12871714D01*
X10559762Y-12871714D02*
X10550238Y-12890762D01*
X10740714Y-12776476D02*
X10740714Y-12814571D01*
X10816905Y-12776476D02*
X10816905Y-12814571D01*
X11079762Y-13052667D02*
X11070238Y-13043143D01*
X11070238Y-13043143D02*
X11051191Y-13014571D01*
X11051191Y-13014571D02*
X11041667Y-12995524D01*
X11041667Y-12995524D02*
X11032143Y-12966952D01*
X11032143Y-12966952D02*
X11022619Y-12919333D01*
X11022619Y-12919333D02*
X11022619Y-12881238D01*
X11022619Y-12881238D02*
X11032143Y-12833619D01*
X11032143Y-12833619D02*
X11041667Y-12805048D01*
X11041667Y-12805048D02*
X11051191Y-12786000D01*
X11051191Y-12786000D02*
X11070238Y-12757428D01*
X11070238Y-12757428D02*
X11079762Y-12747905D01*
X11146429Y-12795524D02*
X11155953Y-12786000D01*
X11155953Y-12786000D02*
X11175000Y-12776476D01*
X11175000Y-12776476D02*
X11222619Y-12776476D01*
X11222619Y-12776476D02*
X11241667Y-12786000D01*
X11241667Y-12786000D02*
X11251191Y-12795524D01*
X11251191Y-12795524D02*
X11260714Y-12814571D01*
X11260714Y-12814571D02*
X11260714Y-12833619D01*
X11260714Y-12833619D02*
X11251191Y-12862190D01*
X11251191Y-12862190D02*
X11136905Y-12976476D01*
X11136905Y-12976476D02*
X11260714Y-12976476D01*
X11466429Y-12976476D02*
X11466429Y-12776476D01*
X11552143Y-12976476D02*
X11552143Y-12871714D01*
X11552143Y-12871714D02*
X11542619Y-12852667D01*
X11542619Y-12852667D02*
X11523572Y-12843143D01*
X11523572Y-12843143D02*
X11495000Y-12843143D01*
X11495000Y-12843143D02*
X11475952Y-12852667D01*
X11475952Y-12852667D02*
X11466429Y-12862190D01*
X11675952Y-12976476D02*
X11656905Y-12966952D01*
X11656905Y-12966952D02*
X11647381Y-12957428D01*
X11647381Y-12957428D02*
X11637857Y-12938381D01*
X11637857Y-12938381D02*
X11637857Y-12881238D01*
X11637857Y-12881238D02*
X11647381Y-12862190D01*
X11647381Y-12862190D02*
X11656905Y-12852667D01*
X11656905Y-12852667D02*
X11675952Y-12843143D01*
X11675952Y-12843143D02*
X11704524Y-12843143D01*
X11704524Y-12843143D02*
X11723572Y-12852667D01*
X11723572Y-12852667D02*
X11733095Y-12862190D01*
X11733095Y-12862190D02*
X11742619Y-12881238D01*
X11742619Y-12881238D02*
X11742619Y-12938381D01*
X11742619Y-12938381D02*
X11733095Y-12957428D01*
X11733095Y-12957428D02*
X11723572Y-12966952D01*
X11723572Y-12966952D02*
X11704524Y-12976476D01*
X11704524Y-12976476D02*
X11675952Y-12976476D01*
X11856905Y-12976476D02*
X11837857Y-12966952D01*
X11837857Y-12966952D02*
X11828333Y-12947905D01*
X11828333Y-12947905D02*
X11828333Y-12776476D01*
X12009286Y-12966952D02*
X11990238Y-12976476D01*
X11990238Y-12976476D02*
X11952143Y-12976476D01*
X11952143Y-12976476D02*
X11933095Y-12966952D01*
X11933095Y-12966952D02*
X11923572Y-12947905D01*
X11923572Y-12947905D02*
X11923572Y-12871714D01*
X11923572Y-12871714D02*
X11933095Y-12852667D01*
X11933095Y-12852667D02*
X11952143Y-12843143D01*
X11952143Y-12843143D02*
X11990238Y-12843143D01*
X11990238Y-12843143D02*
X12009286Y-12852667D01*
X12009286Y-12852667D02*
X12018810Y-12871714D01*
X12018810Y-12871714D02*
X12018810Y-12890762D01*
X12018810Y-12890762D02*
X11923572Y-12909809D01*
X12095000Y-12966952D02*
X12114048Y-12976476D01*
X12114048Y-12976476D02*
X12152143Y-12976476D01*
X12152143Y-12976476D02*
X12171191Y-12966952D01*
X12171191Y-12966952D02*
X12180714Y-12947905D01*
X12180714Y-12947905D02*
X12180714Y-12938381D01*
X12180714Y-12938381D02*
X12171191Y-12919333D01*
X12171191Y-12919333D02*
X12152143Y-12909809D01*
X12152143Y-12909809D02*
X12123572Y-12909809D01*
X12123572Y-12909809D02*
X12104524Y-12900286D01*
X12104524Y-12900286D02*
X12095000Y-12881238D01*
X12095000Y-12881238D02*
X12095000Y-12871714D01*
X12095000Y-12871714D02*
X12104524Y-12852667D01*
X12104524Y-12852667D02*
X12123572Y-12843143D01*
X12123572Y-12843143D02*
X12152143Y-12843143D01*
X12152143Y-12843143D02*
X12171191Y-12852667D01*
X12247381Y-13052667D02*
X12256905Y-13043143D01*
X12256905Y-13043143D02*
X12275953Y-13014571D01*
X12275953Y-13014571D02*
X12285476Y-12995524D01*
X12285476Y-12995524D02*
X12295000Y-12966952D01*
X12295000Y-12966952D02*
X12304524Y-12919333D01*
X12304524Y-12919333D02*
X12304524Y-12881238D01*
X12304524Y-12881238D02*
X12295000Y-12833619D01*
X12295000Y-12833619D02*
X12285476Y-12805048D01*
X12285476Y-12805048D02*
X12275953Y-12786000D01*
X12275953Y-12786000D02*
X12256905Y-12757428D01*
X12256905Y-12757428D02*
X12247381Y-12747905D01*
X12576905Y-13052667D02*
X12567381Y-13043143D01*
X12567381Y-13043143D02*
X12548333Y-13014571D01*
X12548333Y-13014571D02*
X12538810Y-12995524D01*
X12538810Y-12995524D02*
X12529286Y-12966952D01*
X12529286Y-12966952D02*
X12519762Y-12919333D01*
X12519762Y-12919333D02*
X12519762Y-12881238D01*
X12519762Y-12881238D02*
X12529286Y-12833619D01*
X12529286Y-12833619D02*
X12538810Y-12805048D01*
X12538810Y-12805048D02*
X12548333Y-12786000D01*
X12548333Y-12786000D02*
X12567381Y-12757428D01*
X12567381Y-12757428D02*
X12576905Y-12747905D01*
X12653095Y-12843143D02*
X12653095Y-12976476D01*
X12653095Y-12862190D02*
X12662619Y-12852667D01*
X12662619Y-12852667D02*
X12681667Y-12843143D01*
X12681667Y-12843143D02*
X12710238Y-12843143D01*
X12710238Y-12843143D02*
X12729286Y-12852667D01*
X12729286Y-12852667D02*
X12738810Y-12871714D01*
X12738810Y-12871714D02*
X12738810Y-12976476D01*
X12862619Y-12976476D02*
X12843572Y-12966952D01*
X12843572Y-12966952D02*
X12834048Y-12957428D01*
X12834048Y-12957428D02*
X12824524Y-12938381D01*
X12824524Y-12938381D02*
X12824524Y-12881238D01*
X12824524Y-12881238D02*
X12834048Y-12862190D01*
X12834048Y-12862190D02*
X12843572Y-12852667D01*
X12843572Y-12852667D02*
X12862619Y-12843143D01*
X12862619Y-12843143D02*
X12891191Y-12843143D01*
X12891191Y-12843143D02*
X12910238Y-12852667D01*
X12910238Y-12852667D02*
X12919762Y-12862190D01*
X12919762Y-12862190D02*
X12929286Y-12881238D01*
X12929286Y-12881238D02*
X12929286Y-12938381D01*
X12929286Y-12938381D02*
X12919762Y-12957428D01*
X12919762Y-12957428D02*
X12910238Y-12966952D01*
X12910238Y-12966952D02*
X12891191Y-12976476D01*
X12891191Y-12976476D02*
X12862619Y-12976476D01*
X12986429Y-12843143D02*
X13062619Y-12843143D01*
X13015000Y-12776476D02*
X13015000Y-12947905D01*
X13015000Y-12947905D02*
X13024524Y-12966952D01*
X13024524Y-12966952D02*
X13043572Y-12976476D01*
X13043572Y-12976476D02*
X13062619Y-12976476D01*
X13249286Y-12843143D02*
X13249286Y-13043143D01*
X13249286Y-12852667D02*
X13268333Y-12843143D01*
X13268333Y-12843143D02*
X13306429Y-12843143D01*
X13306429Y-12843143D02*
X13325476Y-12852667D01*
X13325476Y-12852667D02*
X13335000Y-12862190D01*
X13335000Y-12862190D02*
X13344524Y-12881238D01*
X13344524Y-12881238D02*
X13344524Y-12938381D01*
X13344524Y-12938381D02*
X13335000Y-12957428D01*
X13335000Y-12957428D02*
X13325476Y-12966952D01*
X13325476Y-12966952D02*
X13306429Y-12976476D01*
X13306429Y-12976476D02*
X13268333Y-12976476D01*
X13268333Y-12976476D02*
X13249286Y-12966952D01*
X13458810Y-12976476D02*
X13439762Y-12966952D01*
X13439762Y-12966952D02*
X13430238Y-12947905D01*
X13430238Y-12947905D02*
X13430238Y-12776476D01*
X13620714Y-12976476D02*
X13620714Y-12871714D01*
X13620714Y-12871714D02*
X13611191Y-12852667D01*
X13611191Y-12852667D02*
X13592143Y-12843143D01*
X13592143Y-12843143D02*
X13554048Y-12843143D01*
X13554048Y-12843143D02*
X13535000Y-12852667D01*
X13620714Y-12966952D02*
X13601667Y-12976476D01*
X13601667Y-12976476D02*
X13554048Y-12976476D01*
X13554048Y-12976476D02*
X13535000Y-12966952D01*
X13535000Y-12966952D02*
X13525476Y-12947905D01*
X13525476Y-12947905D02*
X13525476Y-12928857D01*
X13525476Y-12928857D02*
X13535000Y-12909809D01*
X13535000Y-12909809D02*
X13554048Y-12900286D01*
X13554048Y-12900286D02*
X13601667Y-12900286D01*
X13601667Y-12900286D02*
X13620714Y-12890762D01*
X13687381Y-12843143D02*
X13763572Y-12843143D01*
X13715953Y-12776476D02*
X13715953Y-12947905D01*
X13715953Y-12947905D02*
X13725476Y-12966952D01*
X13725476Y-12966952D02*
X13744524Y-12976476D01*
X13744524Y-12976476D02*
X13763572Y-12976476D01*
X13906429Y-12966952D02*
X13887381Y-12976476D01*
X13887381Y-12976476D02*
X13849286Y-12976476D01*
X13849286Y-12976476D02*
X13830238Y-12966952D01*
X13830238Y-12966952D02*
X13820714Y-12947905D01*
X13820714Y-12947905D02*
X13820714Y-12871714D01*
X13820714Y-12871714D02*
X13830238Y-12852667D01*
X13830238Y-12852667D02*
X13849286Y-12843143D01*
X13849286Y-12843143D02*
X13887381Y-12843143D01*
X13887381Y-12843143D02*
X13906429Y-12852667D01*
X13906429Y-12852667D02*
X13915953Y-12871714D01*
X13915953Y-12871714D02*
X13915953Y-12890762D01*
X13915953Y-12890762D02*
X13820714Y-12909809D01*
X14087381Y-12976476D02*
X14087381Y-12776476D01*
X14087381Y-12966952D02*
X14068334Y-12976476D01*
X14068334Y-12976476D02*
X14030238Y-12976476D01*
X14030238Y-12976476D02*
X14011191Y-12966952D01*
X14011191Y-12966952D02*
X14001667Y-12957428D01*
X14001667Y-12957428D02*
X13992143Y-12938381D01*
X13992143Y-12938381D02*
X13992143Y-12881238D01*
X13992143Y-12881238D02*
X14001667Y-12862190D01*
X14001667Y-12862190D02*
X14011191Y-12852667D01*
X14011191Y-12852667D02*
X14030238Y-12843143D01*
X14030238Y-12843143D02*
X14068334Y-12843143D01*
X14068334Y-12843143D02*
X14087381Y-12852667D01*
X14163572Y-13052667D02*
X14173095Y-13043143D01*
X14173095Y-13043143D02*
X14192143Y-13014571D01*
X14192143Y-13014571D02*
X14201667Y-12995524D01*
X14201667Y-12995524D02*
X14211191Y-12966952D01*
X14211191Y-12966952D02*
X14220714Y-12919333D01*
X14220714Y-12919333D02*
X14220714Y-12881238D01*
X14220714Y-12881238D02*
X14211191Y-12833619D01*
X14211191Y-12833619D02*
X14201667Y-12805048D01*
X14201667Y-12805048D02*
X14192143Y-12786000D01*
X14192143Y-12786000D02*
X14173095Y-12757428D01*
X14173095Y-12757428D02*
X14163572Y-12747905D01*
M02*
