%TF.GenerationSoftware,KiCad,Pcbnew,(7.0.0)*%
%TF.CreationDate,2023-05-14T14:46:27-04:00*%
%TF.ProjectId,8bc_clock,3862635f-636c-46f6-936b-2e6b69636164,rev?*%
%TF.SameCoordinates,Original*%
%TF.FileFunction,Copper,L1,Top*%
%TF.FilePolarity,Positive*%
%FSLAX46Y46*%
G04 Gerber Fmt 4.6, Leading zero omitted, Abs format (unit mm)*
G04 Created by KiCad (PCBNEW (7.0.0)) date 2023-05-14 14:46:27*
%MOMM*%
%LPD*%
G01*
G04 APERTURE LIST*
%TA.AperFunction,ComponentPad*%
%ADD10C,2.000000*%
%TD*%
%TA.AperFunction,ComponentPad*%
%ADD11R,1.800000X1.800000*%
%TD*%
%TA.AperFunction,ComponentPad*%
%ADD12C,1.800000*%
%TD*%
%TA.AperFunction,ComponentPad*%
%ADD13C,1.600000*%
%TD*%
%TA.AperFunction,ComponentPad*%
%ADD14O,1.600000X1.600000*%
%TD*%
%TA.AperFunction,ComponentPad*%
%ADD15R,1.600000X1.600000*%
%TD*%
%TA.AperFunction,WasherPad*%
%ADD16C,4.000000*%
%TD*%
%TA.AperFunction,ComponentPad*%
%ADD17O,3.500000X2.200000*%
%TD*%
%TA.AperFunction,ComponentPad*%
%ADD18R,2.500000X1.500000*%
%TD*%
%TA.AperFunction,ComponentPad*%
%ADD19O,2.500000X1.500000*%
%TD*%
%TA.AperFunction,ComponentPad*%
%ADD20R,1.700000X1.700000*%
%TD*%
%TA.AperFunction,ComponentPad*%
%ADD21O,1.700000X1.700000*%
%TD*%
%TA.AperFunction,ViaPad*%
%ADD22C,0.800000*%
%TD*%
%TA.AperFunction,Conductor*%
%ADD23C,0.250000*%
%TD*%
G04 APERTURE END LIST*
D10*
%TO.P,SW2,1*%
%TO.N,GND*%
X153520000Y-92020000D03*
X160020000Y-92020000D03*
%TO.P,SW2,2*%
%TO.N,Net-(U2-TR)*%
X153520000Y-96520000D03*
X160020000Y-96520000D03*
%TD*%
D11*
%TO.P,D1,1,K*%
%TO.N,Net-(D1-K)*%
X175259999Y-104139999D03*
D12*
%TO.P,D1,2,A*%
%TO.N,CLK*%
X177800000Y-104140000D03*
%TD*%
D13*
%TO.P,R1,1*%
%TO.N,+5V*%
X99060000Y-63500000D03*
D14*
%TO.P,R1,2*%
%TO.N,Net-(U1-DIS)*%
X106679999Y-63499999D03*
%TD*%
D15*
%TO.P,U1,1,GND*%
%TO.N,GND*%
X109219999Y-74919999D03*
D14*
%TO.P,U1,2,TR*%
%TO.N,Net-(U1-THR)*%
X111759999Y-74919999D03*
%TO.P,U1,3,Q*%
%TO.N,Net-(U1-Q)*%
X114299999Y-74919999D03*
%TO.P,U1,4,R*%
%TO.N,+5V*%
X116839999Y-74919999D03*
%TO.P,U1,5,CV*%
%TO.N,Net-(U1-CV)*%
X116839999Y-67299999D03*
%TO.P,U1,6,THR*%
%TO.N,Net-(U1-THR)*%
X114299999Y-67299999D03*
%TO.P,U1,7,DIS*%
%TO.N,Net-(U1-DIS)*%
X111759999Y-67299999D03*
%TO.P,U1,8,VCC*%
%TO.N,+5V*%
X109219999Y-67299999D03*
%TD*%
D13*
%TO.P,C7,1*%
%TO.N,+5V*%
X132080000Y-104140000D03*
%TO.P,C7,2*%
%TO.N,GND*%
X128580000Y-104140000D03*
%TD*%
%TO.P,C5,1*%
%TO.N,Net-(U3-CV)*%
X157480000Y-71120000D03*
%TO.P,C5,2*%
%TO.N,GND*%
X160980000Y-71120000D03*
%TD*%
D15*
%TO.P,C2,1*%
%TO.N,Net-(U1-THR)*%
X96439999Y-76199999D03*
D13*
%TO.P,C2,2*%
%TO.N,GND*%
X91440000Y-76200000D03*
%TD*%
%TO.P,C4,1*%
%TO.N,Net-(U2-DIS)*%
X129540000Y-80320000D03*
%TO.P,C4,2*%
%TO.N,GND*%
X129540000Y-83820000D03*
%TD*%
%TO.P,C3,1*%
%TO.N,Net-(U2-CV)*%
X159060000Y-83820000D03*
%TO.P,C3,2*%
%TO.N,GND*%
X162560000Y-83820000D03*
%TD*%
%TO.P,C10,1*%
%TO.N,GND*%
X149860000Y-104140000D03*
%TO.P,C10,2*%
%TO.N,+5V*%
X146360000Y-104140000D03*
%TD*%
D16*
%TO.P,RV1,*%
%TO.N,*%
X176210000Y-64180000D03*
X176210000Y-72980000D03*
D12*
%TO.P,RV1,1,1*%
%TO.N,unconnected-(RV1-Pad1)*%
X169210000Y-71080000D03*
%TO.P,RV1,2,2*%
%TO.N,Net-(R2-Pad2)*%
X169210000Y-68580000D03*
%TO.P,RV1,3,3*%
%TO.N,Net-(U1-THR)*%
X169210000Y-66080000D03*
%TD*%
D17*
%TO.P,SW1,*%
%TO.N,*%
X173764999Y-84829999D03*
X173764999Y-93029999D03*
D18*
%TO.P,SW1,1,A*%
%TO.N,Net-(SW1-A)*%
X173764999Y-86929999D03*
D19*
%TO.P,SW1,2,B*%
%TO.N,GND*%
X173764999Y-88929999D03*
%TO.P,SW1,3,C*%
%TO.N,Net-(SW1-C)*%
X173764999Y-90929999D03*
%TD*%
D13*
%TO.P,C6,1*%
%TO.N,+5V*%
X143520000Y-83820000D03*
%TO.P,C6,2*%
%TO.N,GND*%
X143520000Y-80320000D03*
%TD*%
%TO.P,R3,1*%
%TO.N,+5V*%
X121920000Y-63500000D03*
D14*
%TO.P,R3,2*%
%TO.N,Net-(U2-DIS)*%
X129539999Y-63499999D03*
%TD*%
D15*
%TO.P,U5,1*%
%TO.N,Net-(U1-Q)*%
X109219999Y-96519999D03*
D14*
%TO.P,U5,2*%
%TO.N,Net-(U3-Q)*%
X111759999Y-96519999D03*
%TO.P,U5,3*%
%TO.N,Net-(U5-Pad3)*%
X114299999Y-96519999D03*
%TO.P,U5,4*%
%TO.N,Net-(U4-Pad2)*%
X116839999Y-96519999D03*
%TO.P,U5,5*%
%TO.N,Net-(U2-Q)*%
X119379999Y-96519999D03*
%TO.P,U5,6*%
%TO.N,Net-(U5-Pad6)*%
X121919999Y-96519999D03*
%TO.P,U5,7,GND*%
%TO.N,GND*%
X124459999Y-96519999D03*
%TO.P,U5,8*%
%TO.N,CLK*%
X124459999Y-88899999D03*
%TO.P,U5,9*%
%TO.N,Net-(U5-Pad9)*%
X121919999Y-88899999D03*
%TO.P,U5,10*%
%TO.N,Net-(U4-Pad6)*%
X119379999Y-88899999D03*
%TO.P,U5,11*%
%TO.N,unconnected-(U5-Pad11)*%
X116839999Y-88899999D03*
%TO.P,U5,12*%
%TO.N,unconnected-(U5-Pad12)*%
X114299999Y-88899999D03*
%TO.P,U5,13*%
%TO.N,unconnected-(U5-Pad13)*%
X111759999Y-88899999D03*
%TO.P,U5,14,VCC*%
%TO.N,+5V*%
X109219999Y-88899999D03*
%TD*%
D13*
%TO.P,R6,1*%
%TO.N,+5V*%
X156210000Y-63500000D03*
D14*
%TO.P,R6,2*%
%TO.N,Net-(SW1-C)*%
X163829999Y-63499999D03*
%TD*%
D13*
%TO.P,C9,1*%
%TO.N,GND*%
X94940000Y-104140000D03*
%TO.P,C9,2*%
%TO.N,+5V*%
X91440000Y-104140000D03*
%TD*%
%TO.P,R5,1*%
%TO.N,+5V*%
X144780000Y-63500000D03*
D14*
%TO.P,R5,2*%
%TO.N,Net-(SW1-A)*%
X152399999Y-63499999D03*
%TD*%
D13*
%TO.P,R4,1*%
%TO.N,+5V*%
X133350000Y-63500000D03*
D14*
%TO.P,R4,2*%
%TO.N,Net-(U2-TR)*%
X140969999Y-63499999D03*
%TD*%
D15*
%TO.P,U3,1,GND*%
%TO.N,GND*%
X140979999Y-74919999D03*
D14*
%TO.P,U3,2,TR*%
%TO.N,Net-(SW1-A)*%
X143519999Y-74919999D03*
%TO.P,U3,3,Q*%
%TO.N,Net-(U3-Q)*%
X146059999Y-74919999D03*
%TO.P,U3,4,R*%
%TO.N,Net-(SW1-C)*%
X148599999Y-74919999D03*
%TO.P,U3,5,CV*%
%TO.N,Net-(U3-CV)*%
X148599999Y-67299999D03*
%TO.P,U3,6,THR*%
%TO.N,GND*%
X146059999Y-67299999D03*
%TO.P,U3,7,DIS*%
%TO.N,unconnected-(U3-DIS-Pad7)*%
X143519999Y-67299999D03*
%TO.P,U3,8,VCC*%
%TO.N,+5V*%
X140979999Y-67299999D03*
%TD*%
D13*
%TO.P,C1,1*%
%TO.N,Net-(U1-CV)*%
X119380000Y-78740000D03*
%TO.P,C1,2*%
%TO.N,GND*%
X119380000Y-83740000D03*
%TD*%
%TO.P,C8,1*%
%TO.N,+5V*%
X109220000Y-83820000D03*
%TO.P,C8,2*%
%TO.N,GND*%
X109220000Y-80320000D03*
%TD*%
%TO.P,R7,1*%
%TO.N,GND*%
X167640000Y-107950000D03*
D14*
%TO.P,R7,2*%
%TO.N,Net-(D1-K)*%
X167639999Y-100329999D03*
%TD*%
D20*
%TO.P,J1,1,Pin_1*%
%TO.N,+5V*%
X180364999Y-83849999D03*
D21*
%TO.P,J1,2,Pin_2*%
%TO.N,GND*%
X180364999Y-86389999D03*
%TO.P,J1,3,Pin_3*%
%TO.N,CLK*%
X180364999Y-88929999D03*
%TO.P,J1,4,Pin_4*%
%TO.N,!CLK*%
X180364999Y-91469999D03*
%TO.P,J1,5,Pin_5*%
%TO.N,HLT*%
X180364999Y-94009999D03*
%TD*%
D13*
%TO.P,R2,1*%
%TO.N,Net-(U1-DIS)*%
X110490000Y-63500000D03*
D14*
%TO.P,R2,2*%
%TO.N,Net-(R2-Pad2)*%
X118109999Y-63499999D03*
%TD*%
D15*
%TO.P,U6,1*%
%TO.N,Net-(U5-Pad3)*%
X132079999Y-96519999D03*
D14*
%TO.P,U6,2*%
%TO.N,Net-(U5-Pad6)*%
X134619999Y-96519999D03*
%TO.P,U6,3*%
%TO.N,Net-(U5-Pad9)*%
X137159999Y-96519999D03*
%TO.P,U6,4*%
%TO.N,unconnected-(U6-Pad4)*%
X139699999Y-96519999D03*
%TO.P,U6,5*%
%TO.N,unconnected-(U6-Pad5)*%
X142239999Y-96519999D03*
%TO.P,U6,6*%
%TO.N,unconnected-(U6-Pad6)*%
X144779999Y-96519999D03*
%TO.P,U6,7,GND*%
%TO.N,GND*%
X147319999Y-96519999D03*
%TO.P,U6,8*%
%TO.N,unconnected-(U6-Pad8)*%
X147319999Y-88899999D03*
%TO.P,U6,9*%
%TO.N,unconnected-(U6-Pad9)*%
X144779999Y-88899999D03*
%TO.P,U6,10*%
%TO.N,unconnected-(U6-Pad10)*%
X142239999Y-88899999D03*
%TO.P,U6,11*%
%TO.N,unconnected-(U6-Pad11)*%
X139699999Y-88899999D03*
%TO.P,U6,12*%
%TO.N,unconnected-(U6-Pad12)*%
X137159999Y-88899999D03*
%TO.P,U6,13*%
%TO.N,unconnected-(U6-Pad13)*%
X134619999Y-88899999D03*
%TO.P,U6,14,VCC*%
%TO.N,+5V*%
X132079999Y-88899999D03*
%TD*%
D13*
%TO.P,C11,1*%
%TO.N,GND*%
X111760000Y-104140000D03*
%TO.P,C11,2*%
%TO.N,+5V*%
X108260000Y-104140000D03*
%TD*%
D15*
%TO.P,U2,1,GND*%
%TO.N,GND*%
X124479999Y-74919999D03*
D14*
%TO.P,U2,2,TR*%
%TO.N,Net-(U2-TR)*%
X127019999Y-74919999D03*
%TO.P,U2,3,Q*%
%TO.N,Net-(U2-Q)*%
X129559999Y-74919999D03*
%TO.P,U2,4,R*%
%TO.N,+5V*%
X132099999Y-74919999D03*
%TO.P,U2,5,CV*%
%TO.N,Net-(U2-CV)*%
X132099999Y-67299999D03*
%TO.P,U2,6,THR*%
%TO.N,Net-(U2-DIS)*%
X129559999Y-67299999D03*
%TO.P,U2,7,DIS*%
X127019999Y-67299999D03*
%TO.P,U2,8,VCC*%
%TO.N,+5V*%
X124479999Y-67299999D03*
%TD*%
D15*
%TO.P,U4,1*%
%TO.N,Net-(U3-Q)*%
X86359999Y-96519999D03*
D14*
%TO.P,U4,2*%
%TO.N,Net-(U4-Pad2)*%
X88899999Y-96519999D03*
%TO.P,U4,3*%
%TO.N,CLK*%
X91439999Y-96519999D03*
%TO.P,U4,4*%
%TO.N,!CLK*%
X93979999Y-96519999D03*
%TO.P,U4,5*%
%TO.N,HLT*%
X96519999Y-96519999D03*
%TO.P,U4,6*%
%TO.N,Net-(U4-Pad6)*%
X99059999Y-96519999D03*
%TO.P,U4,7,GND*%
%TO.N,GND*%
X101599999Y-96519999D03*
%TO.P,U4,8*%
%TO.N,unconnected-(U4-Pad8)*%
X101599999Y-88899999D03*
%TO.P,U4,9*%
%TO.N,unconnected-(U4-Pad9)*%
X99059999Y-88899999D03*
%TO.P,U4,10*%
%TO.N,unconnected-(U4-Pad10)*%
X96519999Y-88899999D03*
%TO.P,U4,11*%
%TO.N,unconnected-(U4-Pad11)*%
X93979999Y-88899999D03*
%TO.P,U4,12*%
%TO.N,unconnected-(U4-Pad12)*%
X91439999Y-88899999D03*
%TO.P,U4,13*%
%TO.N,unconnected-(U4-Pad13)*%
X88899999Y-88899999D03*
%TO.P,U4,14,VCC*%
%TO.N,+5V*%
X86359999Y-88899999D03*
%TD*%
D22*
%TO.N,Net-(U2-TR)*%
X149860000Y-87084500D03*
%TO.N,Net-(U2-Q)*%
X121920000Y-85185500D03*
%TO.N,Net-(U3-Q)*%
X137160000Y-83820000D03*
%TO.N,Net-(U4-Pad6)*%
X111760000Y-91440000D03*
%TD*%
D23*
%TO.N,Net-(U1-CV)*%
X119380000Y-69840000D02*
X116840000Y-67300000D01*
X119380000Y-78740000D02*
X119380000Y-69840000D01*
%TO.N,Net-(U1-THR)*%
X111760000Y-69840000D02*
X114300000Y-67300000D01*
X96440000Y-76200000D02*
X110480000Y-76200000D01*
X111760000Y-74920000D02*
X111760000Y-69840000D01*
X110480000Y-76200000D02*
X111760000Y-74920000D01*
%TO.N,Net-(U2-CV)*%
X142408630Y-78740000D02*
X153980000Y-78740000D01*
X132100000Y-67300000D02*
X132100000Y-68431370D01*
X132100000Y-68431370D02*
X142408630Y-78740000D01*
X153980000Y-78740000D02*
X159060000Y-83820000D01*
%TO.N,Net-(U2-DIS)*%
X129540000Y-80320000D02*
X128145000Y-78925000D01*
X129540000Y-67280000D02*
X129560000Y-67300000D01*
X128145000Y-78925000D02*
X128145000Y-68425000D01*
X128145000Y-68425000D02*
X127020000Y-67300000D01*
X129560000Y-67300000D02*
X127020000Y-67300000D01*
X129540000Y-63500000D02*
X129540000Y-67280000D01*
%TO.N,Net-(U3-CV)*%
X157480000Y-71120000D02*
X152420000Y-71120000D01*
X152420000Y-71120000D02*
X148600000Y-67300000D01*
%TO.N,Net-(D1-K)*%
X175260000Y-104140000D02*
X171450000Y-104140000D01*
X171450000Y-104140000D02*
X167640000Y-100330000D01*
%TO.N,CLK*%
X117965000Y-95395000D02*
X113544009Y-95395000D01*
X112225991Y-97645000D02*
X101134009Y-97645000D01*
X100475000Y-96985991D02*
X100475000Y-96344009D01*
X160020000Y-86360000D02*
X127000000Y-86360000D01*
X177800000Y-91495000D02*
X180365000Y-88930000D01*
X124460000Y-88900000D02*
X117965000Y-95395000D01*
X100475000Y-96344009D02*
X99525991Y-95395000D01*
X112885000Y-96985991D02*
X112225991Y-97645000D01*
X112885000Y-96054009D02*
X112885000Y-96985991D01*
X101134009Y-97645000D02*
X100475000Y-96985991D01*
X127000000Y-86360000D02*
X124460000Y-88900000D01*
X92565000Y-95395000D02*
X91440000Y-96520000D01*
X177800000Y-104140000D02*
X177800000Y-91495000D01*
X99525991Y-95395000D02*
X92565000Y-95395000D01*
X177800000Y-104140000D02*
X160020000Y-86360000D01*
X113544009Y-95395000D02*
X112885000Y-96054009D01*
%TO.N,!CLK*%
X181540000Y-92645000D02*
X181540000Y-102768808D01*
X96070000Y-113850000D02*
X96070000Y-98610000D01*
X96970000Y-114750000D02*
X96070000Y-113850000D01*
X169558808Y-114750000D02*
X96970000Y-114750000D01*
X180365000Y-91470000D02*
X181540000Y-92645000D01*
X181540000Y-102768808D02*
X169558808Y-114750000D01*
X96070000Y-98610000D02*
X93980000Y-96520000D01*
%TO.N,HLT*%
X96520000Y-100185000D02*
X96520000Y-96520000D01*
X180365000Y-94010000D02*
X180365000Y-103307412D01*
X99060000Y-102725000D02*
X96520000Y-100185000D01*
X169372412Y-114300000D02*
X99060000Y-114300000D01*
X180365000Y-103307412D02*
X169372412Y-114300000D01*
X99060000Y-114300000D02*
X99060000Y-102725000D01*
%TO.N,Net-(U1-DIS)*%
X110490000Y-63500000D02*
X110490000Y-66030000D01*
X106680000Y-63500000D02*
X110490000Y-63500000D01*
X110490000Y-66030000D02*
X111760000Y-67300000D01*
%TO.N,Net-(R2-Pad2)*%
X118110000Y-54610000D02*
X119380000Y-53340000D01*
X167640000Y-67010000D02*
X169210000Y-68580000D01*
X118110000Y-63500000D02*
X118110000Y-54610000D01*
X167640000Y-55880000D02*
X167640000Y-67010000D01*
X119380000Y-53340000D02*
X165100000Y-53340000D01*
X165100000Y-53340000D02*
X167640000Y-55880000D01*
%TO.N,Net-(U2-TR)*%
X149860000Y-92860000D02*
X149860000Y-87084500D01*
X160020000Y-96520000D02*
X153520000Y-96520000D01*
X153520000Y-96520000D02*
X149860000Y-92860000D01*
X121920000Y-55880000D02*
X119380000Y-58420000D01*
X140970000Y-57150000D02*
X139700000Y-55880000D01*
X119380000Y-58420000D02*
X119380000Y-67280000D01*
X140970000Y-63500000D02*
X140970000Y-57150000D01*
X119380000Y-67280000D02*
X127020000Y-74920000D01*
X139700000Y-55880000D02*
X121920000Y-55880000D01*
%TO.N,Net-(SW1-A)*%
X144780000Y-55880000D02*
X144780000Y-61280991D01*
X137160000Y-71120000D02*
X139700000Y-73660000D01*
X177800000Y-84395000D02*
X175265000Y-86930000D01*
X167190000Y-70792412D02*
X177800000Y-81402412D01*
X152400000Y-58420000D02*
X149860000Y-55880000D01*
X175265000Y-86930000D02*
X173765000Y-86930000D01*
X139700000Y-73660000D02*
X142260000Y-73660000D01*
X149860000Y-55880000D02*
X144780000Y-55880000D01*
X152400000Y-63500000D02*
X152400000Y-58420000D01*
X152400000Y-63500000D02*
X160020000Y-55880000D01*
X144780000Y-61280991D02*
X137160000Y-68900991D01*
X167190000Y-57970000D02*
X167190000Y-70792412D01*
X165100000Y-55880000D02*
X167190000Y-57970000D01*
X177800000Y-81402412D02*
X177800000Y-84395000D01*
X137160000Y-68900991D02*
X137160000Y-71120000D01*
X142260000Y-73660000D02*
X143520000Y-74920000D01*
X160020000Y-55880000D02*
X165100000Y-55880000D01*
%TO.N,Net-(SW1-C)*%
X163830000Y-63500000D02*
X163830000Y-68068808D01*
X163830000Y-68068808D02*
X169800596Y-74039404D01*
X148600000Y-74920000D02*
X168920000Y-74920000D01*
X169800596Y-87465596D02*
X173265000Y-90930000D01*
X173265000Y-90930000D02*
X173765000Y-90930000D01*
X169800596Y-74039404D02*
X169800596Y-87465596D01*
X168920000Y-74920000D02*
X169800596Y-74039404D01*
%TO.N,Net-(U2-Q)*%
X130665000Y-85235000D02*
X130440000Y-85460000D01*
X129560000Y-74920000D02*
X130665000Y-76025000D01*
X122194500Y-85460000D02*
X121920000Y-85185500D01*
X130665000Y-76025000D02*
X130665000Y-85235000D01*
X130440000Y-85460000D02*
X122194500Y-85460000D01*
%TO.N,Net-(U3-Q)*%
X86360000Y-96520000D02*
X88900000Y-93980000D01*
X135070000Y-85910000D02*
X112869009Y-85910000D01*
X112869009Y-85910000D02*
X110345000Y-88434009D01*
X109220000Y-93980000D02*
X110345000Y-95105000D01*
X137160000Y-83820000D02*
X135070000Y-85910000D01*
X110345000Y-88434009D02*
X110345000Y-95105000D01*
X110345000Y-95105000D02*
X111760000Y-96520000D01*
X88900000Y-93980000D02*
X109220000Y-93980000D01*
%TO.N,Net-(U4-Pad6)*%
X116840000Y-91440000D02*
X119380000Y-88900000D01*
X111760000Y-91440000D02*
X116840000Y-91440000D01*
%TO.N,Net-(U5-Pad3)*%
X117965000Y-96344009D02*
X117965000Y-96985991D01*
X115425000Y-97645000D02*
X114300000Y-96520000D01*
X118914009Y-95395000D02*
X117965000Y-96344009D01*
X132080000Y-96520000D02*
X130955000Y-95395000D01*
X130955000Y-95395000D02*
X118914009Y-95395000D01*
X117305991Y-97645000D02*
X115425000Y-97645000D01*
X117965000Y-96985991D02*
X117305991Y-97645000D01*
%TO.N,Net-(U5-Pad6)*%
X133495000Y-97645000D02*
X134620000Y-96520000D01*
X123045000Y-97645000D02*
X133495000Y-97645000D01*
X121920000Y-96520000D02*
X123045000Y-97645000D01*
%TD*%
M02*
