%TF.GenerationSoftware,KiCad,Pcbnew,(7.0.0)*%
%TF.CreationDate,2023-05-14T14:46:31-04:00*%
%TF.ProjectId,8bc_clock,3862635f-636c-46f6-936b-2e6b69636164,rev?*%
%TF.SameCoordinates,Original*%
%TF.FileFunction,Drillmap*%
%TF.FilePolarity,Positive*%
%FSLAX45Y45*%
G04 Gerber Fmt 4.5, Leading zero omitted, Abs format (unit mm)*
G04 Created by KiCad (PCBNEW (7.0.0)) date 2023-05-14 14:46:31*
%MOMM*%
%LPD*%
G01*
G04 APERTURE LIST*
%ADD10C,0.100000*%
%ADD11C,0.200000*%
%ADD12C,0.040000*%
%ADD13C,0.080000*%
%ADD14C,0.090000*%
%ADD15C,0.110000*%
%ADD16C,0.150000*%
G04 APERTURE END LIST*
D10*
X7620000Y-5080000D02*
X19558000Y-5080000D01*
X19558000Y-5080000D02*
X19558000Y-11938000D01*
X19558000Y-11938000D02*
X7620000Y-11938000D01*
X7620000Y-11938000D02*
X7620000Y-5080000D01*
D11*
D12*
X11156000Y-9124000D02*
X11196000Y-9164000D01*
X11196000Y-9124000D02*
X11156000Y-9164000D01*
X12172000Y-8498550D02*
X12212000Y-8538550D01*
X12212000Y-8498550D02*
X12172000Y-8538550D01*
X13696000Y-8362000D02*
X13736000Y-8402000D01*
X13736000Y-8362000D02*
X13696000Y-8402000D01*
X14966000Y-8688450D02*
X15006000Y-8728450D01*
X15006000Y-8688450D02*
X14966000Y-8728450D01*
D13*
X8676000Y-8890000D02*
G75*
G03*
X8676000Y-8890000I-40000J0D01*
G01*
X8676000Y-9652000D02*
G75*
G03*
X8676000Y-9652000I-40000J0D01*
G01*
X8930000Y-8890000D02*
G75*
G03*
X8930000Y-8890000I-40000J0D01*
G01*
X8930000Y-9652000D02*
G75*
G03*
X8930000Y-9652000I-40000J0D01*
G01*
X9184000Y-7620000D02*
G75*
G03*
X9184000Y-7620000I-40000J0D01*
G01*
X9184000Y-8890000D02*
G75*
G03*
X9184000Y-8890000I-40000J0D01*
G01*
X9184000Y-9652000D02*
G75*
G03*
X9184000Y-9652000I-40000J0D01*
G01*
X9184000Y-10414000D02*
G75*
G03*
X9184000Y-10414000I-40000J0D01*
G01*
X9438000Y-8890000D02*
G75*
G03*
X9438000Y-8890000I-40000J0D01*
G01*
X9438000Y-9652000D02*
G75*
G03*
X9438000Y-9652000I-40000J0D01*
G01*
X9534000Y-10414000D02*
G75*
G03*
X9534000Y-10414000I-40000J0D01*
G01*
X9684000Y-7620000D02*
G75*
G03*
X9684000Y-7620000I-40000J0D01*
G01*
X9692000Y-8890000D02*
G75*
G03*
X9692000Y-8890000I-40000J0D01*
G01*
X9692000Y-9652000D02*
G75*
G03*
X9692000Y-9652000I-40000J0D01*
G01*
X9946000Y-6350000D02*
G75*
G03*
X9946000Y-6350000I-40000J0D01*
G01*
X9946000Y-8890000D02*
G75*
G03*
X9946000Y-8890000I-40000J0D01*
G01*
X9946000Y-9652000D02*
G75*
G03*
X9946000Y-9652000I-40000J0D01*
G01*
X10200000Y-8890000D02*
G75*
G03*
X10200000Y-8890000I-40000J0D01*
G01*
X10200000Y-9652000D02*
G75*
G03*
X10200000Y-9652000I-40000J0D01*
G01*
X10708000Y-6350000D02*
G75*
G03*
X10708000Y-6350000I-40000J0D01*
G01*
X10866000Y-10414000D02*
G75*
G03*
X10866000Y-10414000I-40000J0D01*
G01*
X10962000Y-6730000D02*
G75*
G03*
X10962000Y-6730000I-40000J0D01*
G01*
X10962000Y-7492000D02*
G75*
G03*
X10962000Y-7492000I-40000J0D01*
G01*
X10962000Y-8032000D02*
G75*
G03*
X10962000Y-8032000I-40000J0D01*
G01*
X10962000Y-8382000D02*
G75*
G03*
X10962000Y-8382000I-40000J0D01*
G01*
X10962000Y-8890000D02*
G75*
G03*
X10962000Y-8890000I-40000J0D01*
G01*
X10962000Y-9652000D02*
G75*
G03*
X10962000Y-9652000I-40000J0D01*
G01*
X11089000Y-6350000D02*
G75*
G03*
X11089000Y-6350000I-40000J0D01*
G01*
X11216000Y-6730000D02*
G75*
G03*
X11216000Y-6730000I-40000J0D01*
G01*
X11216000Y-7492000D02*
G75*
G03*
X11216000Y-7492000I-40000J0D01*
G01*
X11216000Y-8890000D02*
G75*
G03*
X11216000Y-8890000I-40000J0D01*
G01*
X11216000Y-9652000D02*
G75*
G03*
X11216000Y-9652000I-40000J0D01*
G01*
X11216000Y-10414000D02*
G75*
G03*
X11216000Y-10414000I-40000J0D01*
G01*
X11470000Y-6730000D02*
G75*
G03*
X11470000Y-6730000I-40000J0D01*
G01*
X11470000Y-7492000D02*
G75*
G03*
X11470000Y-7492000I-40000J0D01*
G01*
X11470000Y-8890000D02*
G75*
G03*
X11470000Y-8890000I-40000J0D01*
G01*
X11470000Y-9652000D02*
G75*
G03*
X11470000Y-9652000I-40000J0D01*
G01*
X11724000Y-6730000D02*
G75*
G03*
X11724000Y-6730000I-40000J0D01*
G01*
X11724000Y-7492000D02*
G75*
G03*
X11724000Y-7492000I-40000J0D01*
G01*
X11724000Y-8890000D02*
G75*
G03*
X11724000Y-8890000I-40000J0D01*
G01*
X11724000Y-9652000D02*
G75*
G03*
X11724000Y-9652000I-40000J0D01*
G01*
X11851000Y-6350000D02*
G75*
G03*
X11851000Y-6350000I-40000J0D01*
G01*
X11978000Y-7874000D02*
G75*
G03*
X11978000Y-7874000I-40000J0D01*
G01*
X11978000Y-8374000D02*
G75*
G03*
X11978000Y-8374000I-40000J0D01*
G01*
X11978000Y-8890000D02*
G75*
G03*
X11978000Y-8890000I-40000J0D01*
G01*
X11978000Y-9652000D02*
G75*
G03*
X11978000Y-9652000I-40000J0D01*
G01*
X12232000Y-6350000D02*
G75*
G03*
X12232000Y-6350000I-40000J0D01*
G01*
X12232000Y-8890000D02*
G75*
G03*
X12232000Y-8890000I-40000J0D01*
G01*
X12232000Y-9652000D02*
G75*
G03*
X12232000Y-9652000I-40000J0D01*
G01*
X12486000Y-8890000D02*
G75*
G03*
X12486000Y-8890000I-40000J0D01*
G01*
X12486000Y-9652000D02*
G75*
G03*
X12486000Y-9652000I-40000J0D01*
G01*
X12488000Y-6730000D02*
G75*
G03*
X12488000Y-6730000I-40000J0D01*
G01*
X12488000Y-7492000D02*
G75*
G03*
X12488000Y-7492000I-40000J0D01*
G01*
X12742000Y-6730000D02*
G75*
G03*
X12742000Y-6730000I-40000J0D01*
G01*
X12742000Y-7492000D02*
G75*
G03*
X12742000Y-7492000I-40000J0D01*
G01*
X12898000Y-10414000D02*
G75*
G03*
X12898000Y-10414000I-40000J0D01*
G01*
X12994000Y-6350000D02*
G75*
G03*
X12994000Y-6350000I-40000J0D01*
G01*
X12994000Y-8032000D02*
G75*
G03*
X12994000Y-8032000I-40000J0D01*
G01*
X12994000Y-8382000D02*
G75*
G03*
X12994000Y-8382000I-40000J0D01*
G01*
X12996000Y-6730000D02*
G75*
G03*
X12996000Y-6730000I-40000J0D01*
G01*
X12996000Y-7492000D02*
G75*
G03*
X12996000Y-7492000I-40000J0D01*
G01*
X13248000Y-8890000D02*
G75*
G03*
X13248000Y-8890000I-40000J0D01*
G01*
X13248000Y-9652000D02*
G75*
G03*
X13248000Y-9652000I-40000J0D01*
G01*
X13248000Y-10414000D02*
G75*
G03*
X13248000Y-10414000I-40000J0D01*
G01*
X13250000Y-6730000D02*
G75*
G03*
X13250000Y-6730000I-40000J0D01*
G01*
X13250000Y-7492000D02*
G75*
G03*
X13250000Y-7492000I-40000J0D01*
G01*
X13375000Y-6350000D02*
G75*
G03*
X13375000Y-6350000I-40000J0D01*
G01*
X13502000Y-8890000D02*
G75*
G03*
X13502000Y-8890000I-40000J0D01*
G01*
X13502000Y-9652000D02*
G75*
G03*
X13502000Y-9652000I-40000J0D01*
G01*
X13756000Y-8890000D02*
G75*
G03*
X13756000Y-8890000I-40000J0D01*
G01*
X13756000Y-9652000D02*
G75*
G03*
X13756000Y-9652000I-40000J0D01*
G01*
X14010000Y-8890000D02*
G75*
G03*
X14010000Y-8890000I-40000J0D01*
G01*
X14010000Y-9652000D02*
G75*
G03*
X14010000Y-9652000I-40000J0D01*
G01*
X14137000Y-6350000D02*
G75*
G03*
X14137000Y-6350000I-40000J0D01*
G01*
X14138000Y-6730000D02*
G75*
G03*
X14138000Y-6730000I-40000J0D01*
G01*
X14138000Y-7492000D02*
G75*
G03*
X14138000Y-7492000I-40000J0D01*
G01*
X14264000Y-8890000D02*
G75*
G03*
X14264000Y-8890000I-40000J0D01*
G01*
X14264000Y-9652000D02*
G75*
G03*
X14264000Y-9652000I-40000J0D01*
G01*
X14392000Y-6730000D02*
G75*
G03*
X14392000Y-6730000I-40000J0D01*
G01*
X14392000Y-7492000D02*
G75*
G03*
X14392000Y-7492000I-40000J0D01*
G01*
X14392000Y-8032000D02*
G75*
G03*
X14392000Y-8032000I-40000J0D01*
G01*
X14392000Y-8382000D02*
G75*
G03*
X14392000Y-8382000I-40000J0D01*
G01*
X14518000Y-6350000D02*
G75*
G03*
X14518000Y-6350000I-40000J0D01*
G01*
X14518000Y-8890000D02*
G75*
G03*
X14518000Y-8890000I-40000J0D01*
G01*
X14518000Y-9652000D02*
G75*
G03*
X14518000Y-9652000I-40000J0D01*
G01*
X14646000Y-6730000D02*
G75*
G03*
X14646000Y-6730000I-40000J0D01*
G01*
X14646000Y-7492000D02*
G75*
G03*
X14646000Y-7492000I-40000J0D01*
G01*
X14676000Y-10414000D02*
G75*
G03*
X14676000Y-10414000I-40000J0D01*
G01*
X14772000Y-8890000D02*
G75*
G03*
X14772000Y-8890000I-40000J0D01*
G01*
X14772000Y-9652000D02*
G75*
G03*
X14772000Y-9652000I-40000J0D01*
G01*
X14900000Y-6730000D02*
G75*
G03*
X14900000Y-6730000I-40000J0D01*
G01*
X14900000Y-7492000D02*
G75*
G03*
X14900000Y-7492000I-40000J0D01*
G01*
X15026000Y-10414000D02*
G75*
G03*
X15026000Y-10414000I-40000J0D01*
G01*
X15280000Y-6350000D02*
G75*
G03*
X15280000Y-6350000I-40000J0D01*
G01*
X15661000Y-6350000D02*
G75*
G03*
X15661000Y-6350000I-40000J0D01*
G01*
X15788000Y-7112000D02*
G75*
G03*
X15788000Y-7112000I-40000J0D01*
G01*
X15946000Y-8382000D02*
G75*
G03*
X15946000Y-8382000I-40000J0D01*
G01*
X16138000Y-7112000D02*
G75*
G03*
X16138000Y-7112000I-40000J0D01*
G01*
X16296000Y-8382000D02*
G75*
G03*
X16296000Y-8382000I-40000J0D01*
G01*
X16423000Y-6350000D02*
G75*
G03*
X16423000Y-6350000I-40000J0D01*
G01*
X16804000Y-10033000D02*
G75*
G03*
X16804000Y-10033000I-40000J0D01*
G01*
X16804000Y-10795000D02*
G75*
G03*
X16804000Y-10795000I-40000J0D01*
G01*
X17416500Y-8693000D02*
G75*
G03*
X17416500Y-8693000I-40000J0D01*
G01*
X17416500Y-8893000D02*
G75*
G03*
X17416500Y-8893000I-40000J0D01*
G01*
X17416500Y-9093000D02*
G75*
G03*
X17416500Y-9093000I-40000J0D01*
G01*
D14*
X17526000Y-10369000D02*
X17526000Y-10459000D01*
X17481000Y-10414000D02*
X17571000Y-10414000D01*
X17780000Y-10369000D02*
X17780000Y-10459000D01*
X17735000Y-10414000D02*
X17825000Y-10414000D01*
D10*
X16956356Y-6643356D02*
X16956356Y-6572644D01*
X16885644Y-6572644D01*
X16885644Y-6643356D01*
X16956356Y-6643356D01*
X16956356Y-6893356D02*
X16956356Y-6822644D01*
X16885644Y-6822644D01*
X16885644Y-6893356D01*
X16956356Y-6893356D01*
X16956356Y-7143356D02*
X16956356Y-7072644D01*
X16885644Y-7072644D01*
X16885644Y-7143356D01*
X16956356Y-7143356D01*
X18071856Y-8420356D02*
X18071856Y-8349644D01*
X18001144Y-8349644D01*
X18001144Y-8420356D01*
X18071856Y-8420356D01*
X18071856Y-8674356D02*
X18071856Y-8603644D01*
X18001144Y-8603644D01*
X18001144Y-8674356D01*
X18071856Y-8674356D01*
X18071856Y-8928356D02*
X18071856Y-8857644D01*
X18001144Y-8857644D01*
X18001144Y-8928356D01*
X18071856Y-8928356D01*
X18071856Y-9182356D02*
X18071856Y-9111644D01*
X18001144Y-9111644D01*
X18001144Y-9182356D01*
X18071856Y-9182356D01*
X18071856Y-9436356D02*
X18071856Y-9365644D01*
X18001144Y-9365644D01*
X18001144Y-9436356D01*
X18071856Y-9436356D01*
D15*
X15352000Y-9257000D02*
X15407000Y-9202000D01*
X15352000Y-9147000D01*
X15297000Y-9202000D01*
X15352000Y-9257000D01*
X15352000Y-9707000D02*
X15407000Y-9652000D01*
X15352000Y-9597000D01*
X15297000Y-9652000D01*
X15352000Y-9707000D01*
X16002000Y-9257000D02*
X16057000Y-9202000D01*
X16002000Y-9147000D01*
X15947000Y-9202000D01*
X16002000Y-9257000D01*
X16002000Y-9707000D02*
X16057000Y-9652000D01*
X16002000Y-9597000D01*
X15947000Y-9652000D01*
X16002000Y-9707000D01*
D16*
X17301500Y-8408000D02*
X17451500Y-8558000D01*
X17451500Y-8408000D02*
X17301500Y-8558000D01*
X17451500Y-8483000D02*
G75*
G03*
X17451500Y-8483000I-75000J0D01*
G01*
X17301500Y-9228000D02*
X17451500Y-9378000D01*
X17451500Y-9228000D02*
X17301500Y-9378000D01*
X17451500Y-9303000D02*
G75*
G03*
X17451500Y-9303000I-75000J0D01*
G01*
D11*
X7862619Y-12236476D02*
X7862619Y-12036476D01*
X7862619Y-12036476D02*
X7910238Y-12036476D01*
X7910238Y-12036476D02*
X7938809Y-12046000D01*
X7938809Y-12046000D02*
X7957857Y-12065048D01*
X7957857Y-12065048D02*
X7967381Y-12084095D01*
X7967381Y-12084095D02*
X7976905Y-12122190D01*
X7976905Y-12122190D02*
X7976905Y-12150762D01*
X7976905Y-12150762D02*
X7967381Y-12188857D01*
X7967381Y-12188857D02*
X7957857Y-12207905D01*
X7957857Y-12207905D02*
X7938809Y-12226952D01*
X7938809Y-12226952D02*
X7910238Y-12236476D01*
X7910238Y-12236476D02*
X7862619Y-12236476D01*
X8062619Y-12236476D02*
X8062619Y-12103143D01*
X8062619Y-12141238D02*
X8072143Y-12122190D01*
X8072143Y-12122190D02*
X8081667Y-12112667D01*
X8081667Y-12112667D02*
X8100714Y-12103143D01*
X8100714Y-12103143D02*
X8119762Y-12103143D01*
X8186428Y-12236476D02*
X8186428Y-12103143D01*
X8186428Y-12036476D02*
X8176905Y-12046000D01*
X8176905Y-12046000D02*
X8186428Y-12055524D01*
X8186428Y-12055524D02*
X8195952Y-12046000D01*
X8195952Y-12046000D02*
X8186428Y-12036476D01*
X8186428Y-12036476D02*
X8186428Y-12055524D01*
X8310238Y-12236476D02*
X8291190Y-12226952D01*
X8291190Y-12226952D02*
X8281667Y-12207905D01*
X8281667Y-12207905D02*
X8281667Y-12036476D01*
X8415000Y-12236476D02*
X8395952Y-12226952D01*
X8395952Y-12226952D02*
X8386428Y-12207905D01*
X8386428Y-12207905D02*
X8386428Y-12036476D01*
X8611190Y-12236476D02*
X8611190Y-12036476D01*
X8611190Y-12036476D02*
X8677857Y-12179333D01*
X8677857Y-12179333D02*
X8744524Y-12036476D01*
X8744524Y-12036476D02*
X8744524Y-12236476D01*
X8925476Y-12236476D02*
X8925476Y-12131714D01*
X8925476Y-12131714D02*
X8915952Y-12112667D01*
X8915952Y-12112667D02*
X8896905Y-12103143D01*
X8896905Y-12103143D02*
X8858809Y-12103143D01*
X8858809Y-12103143D02*
X8839762Y-12112667D01*
X8925476Y-12226952D02*
X8906429Y-12236476D01*
X8906429Y-12236476D02*
X8858809Y-12236476D01*
X8858809Y-12236476D02*
X8839762Y-12226952D01*
X8839762Y-12226952D02*
X8830238Y-12207905D01*
X8830238Y-12207905D02*
X8830238Y-12188857D01*
X8830238Y-12188857D02*
X8839762Y-12169809D01*
X8839762Y-12169809D02*
X8858809Y-12160286D01*
X8858809Y-12160286D02*
X8906429Y-12160286D01*
X8906429Y-12160286D02*
X8925476Y-12150762D01*
X9020714Y-12103143D02*
X9020714Y-12303143D01*
X9020714Y-12112667D02*
X9039762Y-12103143D01*
X9039762Y-12103143D02*
X9077857Y-12103143D01*
X9077857Y-12103143D02*
X9096905Y-12112667D01*
X9096905Y-12112667D02*
X9106429Y-12122190D01*
X9106429Y-12122190D02*
X9115952Y-12141238D01*
X9115952Y-12141238D02*
X9115952Y-12198381D01*
X9115952Y-12198381D02*
X9106429Y-12217428D01*
X9106429Y-12217428D02*
X9096905Y-12226952D01*
X9096905Y-12226952D02*
X9077857Y-12236476D01*
X9077857Y-12236476D02*
X9039762Y-12236476D01*
X9039762Y-12236476D02*
X9020714Y-12226952D01*
X9201667Y-12217428D02*
X9211190Y-12226952D01*
X9211190Y-12226952D02*
X9201667Y-12236476D01*
X9201667Y-12236476D02*
X9192143Y-12226952D01*
X9192143Y-12226952D02*
X9201667Y-12217428D01*
X9201667Y-12217428D02*
X9201667Y-12236476D01*
X9201667Y-12112667D02*
X9211190Y-12122190D01*
X9211190Y-12122190D02*
X9201667Y-12131714D01*
X9201667Y-12131714D02*
X9192143Y-12122190D01*
X9192143Y-12122190D02*
X9201667Y-12112667D01*
X9201667Y-12112667D02*
X9201667Y-12131714D01*
D12*
X7575000Y-12563000D02*
X7615000Y-12603000D01*
X7615000Y-12563000D02*
X7575000Y-12603000D01*
D11*
X7900714Y-12456476D02*
X7919762Y-12456476D01*
X7919762Y-12456476D02*
X7938809Y-12466000D01*
X7938809Y-12466000D02*
X7948333Y-12475524D01*
X7948333Y-12475524D02*
X7957857Y-12494571D01*
X7957857Y-12494571D02*
X7967381Y-12532667D01*
X7967381Y-12532667D02*
X7967381Y-12580286D01*
X7967381Y-12580286D02*
X7957857Y-12618381D01*
X7957857Y-12618381D02*
X7948333Y-12637428D01*
X7948333Y-12637428D02*
X7938809Y-12646952D01*
X7938809Y-12646952D02*
X7919762Y-12656476D01*
X7919762Y-12656476D02*
X7900714Y-12656476D01*
X7900714Y-12656476D02*
X7881667Y-12646952D01*
X7881667Y-12646952D02*
X7872143Y-12637428D01*
X7872143Y-12637428D02*
X7862619Y-12618381D01*
X7862619Y-12618381D02*
X7853095Y-12580286D01*
X7853095Y-12580286D02*
X7853095Y-12532667D01*
X7853095Y-12532667D02*
X7862619Y-12494571D01*
X7862619Y-12494571D02*
X7872143Y-12475524D01*
X7872143Y-12475524D02*
X7881667Y-12466000D01*
X7881667Y-12466000D02*
X7900714Y-12456476D01*
X8053095Y-12637428D02*
X8062619Y-12646952D01*
X8062619Y-12646952D02*
X8053095Y-12656476D01*
X8053095Y-12656476D02*
X8043571Y-12646952D01*
X8043571Y-12646952D02*
X8053095Y-12637428D01*
X8053095Y-12637428D02*
X8053095Y-12656476D01*
X8234048Y-12523143D02*
X8234048Y-12656476D01*
X8186428Y-12446952D02*
X8138809Y-12589809D01*
X8138809Y-12589809D02*
X8262619Y-12589809D01*
X8376905Y-12456476D02*
X8395952Y-12456476D01*
X8395952Y-12456476D02*
X8415000Y-12466000D01*
X8415000Y-12466000D02*
X8424524Y-12475524D01*
X8424524Y-12475524D02*
X8434048Y-12494571D01*
X8434048Y-12494571D02*
X8443571Y-12532667D01*
X8443571Y-12532667D02*
X8443571Y-12580286D01*
X8443571Y-12580286D02*
X8434048Y-12618381D01*
X8434048Y-12618381D02*
X8424524Y-12637428D01*
X8424524Y-12637428D02*
X8415000Y-12646952D01*
X8415000Y-12646952D02*
X8395952Y-12656476D01*
X8395952Y-12656476D02*
X8376905Y-12656476D01*
X8376905Y-12656476D02*
X8357857Y-12646952D01*
X8357857Y-12646952D02*
X8348333Y-12637428D01*
X8348333Y-12637428D02*
X8338809Y-12618381D01*
X8338809Y-12618381D02*
X8329286Y-12580286D01*
X8329286Y-12580286D02*
X8329286Y-12532667D01*
X8329286Y-12532667D02*
X8338809Y-12494571D01*
X8338809Y-12494571D02*
X8348333Y-12475524D01*
X8348333Y-12475524D02*
X8357857Y-12466000D01*
X8357857Y-12466000D02*
X8376905Y-12456476D01*
X8567381Y-12456476D02*
X8586429Y-12456476D01*
X8586429Y-12456476D02*
X8605476Y-12466000D01*
X8605476Y-12466000D02*
X8615000Y-12475524D01*
X8615000Y-12475524D02*
X8624524Y-12494571D01*
X8624524Y-12494571D02*
X8634048Y-12532667D01*
X8634048Y-12532667D02*
X8634048Y-12580286D01*
X8634048Y-12580286D02*
X8624524Y-12618381D01*
X8624524Y-12618381D02*
X8615000Y-12637428D01*
X8615000Y-12637428D02*
X8605476Y-12646952D01*
X8605476Y-12646952D02*
X8586429Y-12656476D01*
X8586429Y-12656476D02*
X8567381Y-12656476D01*
X8567381Y-12656476D02*
X8548333Y-12646952D01*
X8548333Y-12646952D02*
X8538810Y-12637428D01*
X8538810Y-12637428D02*
X8529286Y-12618381D01*
X8529286Y-12618381D02*
X8519762Y-12580286D01*
X8519762Y-12580286D02*
X8519762Y-12532667D01*
X8519762Y-12532667D02*
X8529286Y-12494571D01*
X8529286Y-12494571D02*
X8538810Y-12475524D01*
X8538810Y-12475524D02*
X8548333Y-12466000D01*
X8548333Y-12466000D02*
X8567381Y-12456476D01*
X8719762Y-12656476D02*
X8719762Y-12523143D01*
X8719762Y-12542190D02*
X8729286Y-12532667D01*
X8729286Y-12532667D02*
X8748333Y-12523143D01*
X8748333Y-12523143D02*
X8776905Y-12523143D01*
X8776905Y-12523143D02*
X8795952Y-12532667D01*
X8795952Y-12532667D02*
X8805476Y-12551714D01*
X8805476Y-12551714D02*
X8805476Y-12656476D01*
X8805476Y-12551714D02*
X8815000Y-12532667D01*
X8815000Y-12532667D02*
X8834048Y-12523143D01*
X8834048Y-12523143D02*
X8862619Y-12523143D01*
X8862619Y-12523143D02*
X8881667Y-12532667D01*
X8881667Y-12532667D02*
X8891191Y-12551714D01*
X8891191Y-12551714D02*
X8891191Y-12656476D01*
X8986429Y-12656476D02*
X8986429Y-12523143D01*
X8986429Y-12542190D02*
X8995952Y-12532667D01*
X8995952Y-12532667D02*
X9015000Y-12523143D01*
X9015000Y-12523143D02*
X9043572Y-12523143D01*
X9043572Y-12523143D02*
X9062619Y-12532667D01*
X9062619Y-12532667D02*
X9072143Y-12551714D01*
X9072143Y-12551714D02*
X9072143Y-12656476D01*
X9072143Y-12551714D02*
X9081667Y-12532667D01*
X9081667Y-12532667D02*
X9100714Y-12523143D01*
X9100714Y-12523143D02*
X9129286Y-12523143D01*
X9129286Y-12523143D02*
X9148333Y-12532667D01*
X9148333Y-12532667D02*
X9157857Y-12551714D01*
X9157857Y-12551714D02*
X9157857Y-12656476D01*
X9515952Y-12446952D02*
X9344524Y-12704095D01*
X9740714Y-12456476D02*
X9759762Y-12456476D01*
X9759762Y-12456476D02*
X9778810Y-12466000D01*
X9778810Y-12466000D02*
X9788333Y-12475524D01*
X9788333Y-12475524D02*
X9797857Y-12494571D01*
X9797857Y-12494571D02*
X9807381Y-12532667D01*
X9807381Y-12532667D02*
X9807381Y-12580286D01*
X9807381Y-12580286D02*
X9797857Y-12618381D01*
X9797857Y-12618381D02*
X9788333Y-12637428D01*
X9788333Y-12637428D02*
X9778810Y-12646952D01*
X9778810Y-12646952D02*
X9759762Y-12656476D01*
X9759762Y-12656476D02*
X9740714Y-12656476D01*
X9740714Y-12656476D02*
X9721667Y-12646952D01*
X9721667Y-12646952D02*
X9712143Y-12637428D01*
X9712143Y-12637428D02*
X9702619Y-12618381D01*
X9702619Y-12618381D02*
X9693095Y-12580286D01*
X9693095Y-12580286D02*
X9693095Y-12532667D01*
X9693095Y-12532667D02*
X9702619Y-12494571D01*
X9702619Y-12494571D02*
X9712143Y-12475524D01*
X9712143Y-12475524D02*
X9721667Y-12466000D01*
X9721667Y-12466000D02*
X9740714Y-12456476D01*
X9893095Y-12637428D02*
X9902619Y-12646952D01*
X9902619Y-12646952D02*
X9893095Y-12656476D01*
X9893095Y-12656476D02*
X9883572Y-12646952D01*
X9883572Y-12646952D02*
X9893095Y-12637428D01*
X9893095Y-12637428D02*
X9893095Y-12656476D01*
X10026429Y-12456476D02*
X10045476Y-12456476D01*
X10045476Y-12456476D02*
X10064524Y-12466000D01*
X10064524Y-12466000D02*
X10074048Y-12475524D01*
X10074048Y-12475524D02*
X10083572Y-12494571D01*
X10083572Y-12494571D02*
X10093095Y-12532667D01*
X10093095Y-12532667D02*
X10093095Y-12580286D01*
X10093095Y-12580286D02*
X10083572Y-12618381D01*
X10083572Y-12618381D02*
X10074048Y-12637428D01*
X10074048Y-12637428D02*
X10064524Y-12646952D01*
X10064524Y-12646952D02*
X10045476Y-12656476D01*
X10045476Y-12656476D02*
X10026429Y-12656476D01*
X10026429Y-12656476D02*
X10007381Y-12646952D01*
X10007381Y-12646952D02*
X9997857Y-12637428D01*
X9997857Y-12637428D02*
X9988333Y-12618381D01*
X9988333Y-12618381D02*
X9978810Y-12580286D01*
X9978810Y-12580286D02*
X9978810Y-12532667D01*
X9978810Y-12532667D02*
X9988333Y-12494571D01*
X9988333Y-12494571D02*
X9997857Y-12475524D01*
X9997857Y-12475524D02*
X10007381Y-12466000D01*
X10007381Y-12466000D02*
X10026429Y-12456476D01*
X10283572Y-12656476D02*
X10169286Y-12656476D01*
X10226429Y-12656476D02*
X10226429Y-12456476D01*
X10226429Y-12456476D02*
X10207381Y-12485048D01*
X10207381Y-12485048D02*
X10188333Y-12504095D01*
X10188333Y-12504095D02*
X10169286Y-12513619D01*
X10464524Y-12456476D02*
X10369286Y-12456476D01*
X10369286Y-12456476D02*
X10359762Y-12551714D01*
X10359762Y-12551714D02*
X10369286Y-12542190D01*
X10369286Y-12542190D02*
X10388333Y-12532667D01*
X10388333Y-12532667D02*
X10435953Y-12532667D01*
X10435953Y-12532667D02*
X10455000Y-12542190D01*
X10455000Y-12542190D02*
X10464524Y-12551714D01*
X10464524Y-12551714D02*
X10474048Y-12570762D01*
X10474048Y-12570762D02*
X10474048Y-12618381D01*
X10474048Y-12618381D02*
X10464524Y-12637428D01*
X10464524Y-12637428D02*
X10455000Y-12646952D01*
X10455000Y-12646952D02*
X10435953Y-12656476D01*
X10435953Y-12656476D02*
X10388333Y-12656476D01*
X10388333Y-12656476D02*
X10369286Y-12646952D01*
X10369286Y-12646952D02*
X10359762Y-12637428D01*
X10540714Y-12456476D02*
X10674048Y-12456476D01*
X10674048Y-12456476D02*
X10588333Y-12656476D01*
X10740714Y-12456476D02*
X10740714Y-12494571D01*
X10816905Y-12456476D02*
X10816905Y-12494571D01*
X11079762Y-12732667D02*
X11070238Y-12723143D01*
X11070238Y-12723143D02*
X11051191Y-12694571D01*
X11051191Y-12694571D02*
X11041667Y-12675524D01*
X11041667Y-12675524D02*
X11032143Y-12646952D01*
X11032143Y-12646952D02*
X11022619Y-12599333D01*
X11022619Y-12599333D02*
X11022619Y-12561238D01*
X11022619Y-12561238D02*
X11032143Y-12513619D01*
X11032143Y-12513619D02*
X11041667Y-12485048D01*
X11041667Y-12485048D02*
X11051191Y-12466000D01*
X11051191Y-12466000D02*
X11070238Y-12437428D01*
X11070238Y-12437428D02*
X11079762Y-12427905D01*
X11241667Y-12523143D02*
X11241667Y-12656476D01*
X11194048Y-12446952D02*
X11146429Y-12589809D01*
X11146429Y-12589809D02*
X11270238Y-12589809D01*
X11466429Y-12656476D02*
X11466429Y-12456476D01*
X11552143Y-12656476D02*
X11552143Y-12551714D01*
X11552143Y-12551714D02*
X11542619Y-12532667D01*
X11542619Y-12532667D02*
X11523572Y-12523143D01*
X11523572Y-12523143D02*
X11495000Y-12523143D01*
X11495000Y-12523143D02*
X11475952Y-12532667D01*
X11475952Y-12532667D02*
X11466429Y-12542190D01*
X11675952Y-12656476D02*
X11656905Y-12646952D01*
X11656905Y-12646952D02*
X11647381Y-12637428D01*
X11647381Y-12637428D02*
X11637857Y-12618381D01*
X11637857Y-12618381D02*
X11637857Y-12561238D01*
X11637857Y-12561238D02*
X11647381Y-12542190D01*
X11647381Y-12542190D02*
X11656905Y-12532667D01*
X11656905Y-12532667D02*
X11675952Y-12523143D01*
X11675952Y-12523143D02*
X11704524Y-12523143D01*
X11704524Y-12523143D02*
X11723572Y-12532667D01*
X11723572Y-12532667D02*
X11733095Y-12542190D01*
X11733095Y-12542190D02*
X11742619Y-12561238D01*
X11742619Y-12561238D02*
X11742619Y-12618381D01*
X11742619Y-12618381D02*
X11733095Y-12637428D01*
X11733095Y-12637428D02*
X11723572Y-12646952D01*
X11723572Y-12646952D02*
X11704524Y-12656476D01*
X11704524Y-12656476D02*
X11675952Y-12656476D01*
X11856905Y-12656476D02*
X11837857Y-12646952D01*
X11837857Y-12646952D02*
X11828333Y-12627905D01*
X11828333Y-12627905D02*
X11828333Y-12456476D01*
X12009286Y-12646952D02*
X11990238Y-12656476D01*
X11990238Y-12656476D02*
X11952143Y-12656476D01*
X11952143Y-12656476D02*
X11933095Y-12646952D01*
X11933095Y-12646952D02*
X11923572Y-12627905D01*
X11923572Y-12627905D02*
X11923572Y-12551714D01*
X11923572Y-12551714D02*
X11933095Y-12532667D01*
X11933095Y-12532667D02*
X11952143Y-12523143D01*
X11952143Y-12523143D02*
X11990238Y-12523143D01*
X11990238Y-12523143D02*
X12009286Y-12532667D01*
X12009286Y-12532667D02*
X12018810Y-12551714D01*
X12018810Y-12551714D02*
X12018810Y-12570762D01*
X12018810Y-12570762D02*
X11923572Y-12589809D01*
X12095000Y-12646952D02*
X12114048Y-12656476D01*
X12114048Y-12656476D02*
X12152143Y-12656476D01*
X12152143Y-12656476D02*
X12171191Y-12646952D01*
X12171191Y-12646952D02*
X12180714Y-12627905D01*
X12180714Y-12627905D02*
X12180714Y-12618381D01*
X12180714Y-12618381D02*
X12171191Y-12599333D01*
X12171191Y-12599333D02*
X12152143Y-12589809D01*
X12152143Y-12589809D02*
X12123572Y-12589809D01*
X12123572Y-12589809D02*
X12104524Y-12580286D01*
X12104524Y-12580286D02*
X12095000Y-12561238D01*
X12095000Y-12561238D02*
X12095000Y-12551714D01*
X12095000Y-12551714D02*
X12104524Y-12532667D01*
X12104524Y-12532667D02*
X12123572Y-12523143D01*
X12123572Y-12523143D02*
X12152143Y-12523143D01*
X12152143Y-12523143D02*
X12171191Y-12532667D01*
X12247381Y-12732667D02*
X12256905Y-12723143D01*
X12256905Y-12723143D02*
X12275953Y-12694571D01*
X12275953Y-12694571D02*
X12285476Y-12675524D01*
X12285476Y-12675524D02*
X12295000Y-12646952D01*
X12295000Y-12646952D02*
X12304524Y-12599333D01*
X12304524Y-12599333D02*
X12304524Y-12561238D01*
X12304524Y-12561238D02*
X12295000Y-12513619D01*
X12295000Y-12513619D02*
X12285476Y-12485048D01*
X12285476Y-12485048D02*
X12275953Y-12466000D01*
X12275953Y-12466000D02*
X12256905Y-12437428D01*
X12256905Y-12437428D02*
X12247381Y-12427905D01*
D13*
X7615000Y-12847000D02*
G75*
G03*
X7615000Y-12847000I-40000J0D01*
G01*
D11*
X7900714Y-12720476D02*
X7919762Y-12720476D01*
X7919762Y-12720476D02*
X7938809Y-12730000D01*
X7938809Y-12730000D02*
X7948333Y-12739524D01*
X7948333Y-12739524D02*
X7957857Y-12758571D01*
X7957857Y-12758571D02*
X7967381Y-12796667D01*
X7967381Y-12796667D02*
X7967381Y-12844286D01*
X7967381Y-12844286D02*
X7957857Y-12882381D01*
X7957857Y-12882381D02*
X7948333Y-12901428D01*
X7948333Y-12901428D02*
X7938809Y-12910952D01*
X7938809Y-12910952D02*
X7919762Y-12920476D01*
X7919762Y-12920476D02*
X7900714Y-12920476D01*
X7900714Y-12920476D02*
X7881667Y-12910952D01*
X7881667Y-12910952D02*
X7872143Y-12901428D01*
X7872143Y-12901428D02*
X7862619Y-12882381D01*
X7862619Y-12882381D02*
X7853095Y-12844286D01*
X7853095Y-12844286D02*
X7853095Y-12796667D01*
X7853095Y-12796667D02*
X7862619Y-12758571D01*
X7862619Y-12758571D02*
X7872143Y-12739524D01*
X7872143Y-12739524D02*
X7881667Y-12730000D01*
X7881667Y-12730000D02*
X7900714Y-12720476D01*
X8053095Y-12901428D02*
X8062619Y-12910952D01*
X8062619Y-12910952D02*
X8053095Y-12920476D01*
X8053095Y-12920476D02*
X8043571Y-12910952D01*
X8043571Y-12910952D02*
X8053095Y-12901428D01*
X8053095Y-12901428D02*
X8053095Y-12920476D01*
X8176905Y-12806190D02*
X8157857Y-12796667D01*
X8157857Y-12796667D02*
X8148333Y-12787143D01*
X8148333Y-12787143D02*
X8138809Y-12768095D01*
X8138809Y-12768095D02*
X8138809Y-12758571D01*
X8138809Y-12758571D02*
X8148333Y-12739524D01*
X8148333Y-12739524D02*
X8157857Y-12730000D01*
X8157857Y-12730000D02*
X8176905Y-12720476D01*
X8176905Y-12720476D02*
X8215000Y-12720476D01*
X8215000Y-12720476D02*
X8234048Y-12730000D01*
X8234048Y-12730000D02*
X8243571Y-12739524D01*
X8243571Y-12739524D02*
X8253095Y-12758571D01*
X8253095Y-12758571D02*
X8253095Y-12768095D01*
X8253095Y-12768095D02*
X8243571Y-12787143D01*
X8243571Y-12787143D02*
X8234048Y-12796667D01*
X8234048Y-12796667D02*
X8215000Y-12806190D01*
X8215000Y-12806190D02*
X8176905Y-12806190D01*
X8176905Y-12806190D02*
X8157857Y-12815714D01*
X8157857Y-12815714D02*
X8148333Y-12825238D01*
X8148333Y-12825238D02*
X8138809Y-12844286D01*
X8138809Y-12844286D02*
X8138809Y-12882381D01*
X8138809Y-12882381D02*
X8148333Y-12901428D01*
X8148333Y-12901428D02*
X8157857Y-12910952D01*
X8157857Y-12910952D02*
X8176905Y-12920476D01*
X8176905Y-12920476D02*
X8215000Y-12920476D01*
X8215000Y-12920476D02*
X8234048Y-12910952D01*
X8234048Y-12910952D02*
X8243571Y-12901428D01*
X8243571Y-12901428D02*
X8253095Y-12882381D01*
X8253095Y-12882381D02*
X8253095Y-12844286D01*
X8253095Y-12844286D02*
X8243571Y-12825238D01*
X8243571Y-12825238D02*
X8234048Y-12815714D01*
X8234048Y-12815714D02*
X8215000Y-12806190D01*
X8376905Y-12720476D02*
X8395952Y-12720476D01*
X8395952Y-12720476D02*
X8415000Y-12730000D01*
X8415000Y-12730000D02*
X8424524Y-12739524D01*
X8424524Y-12739524D02*
X8434048Y-12758571D01*
X8434048Y-12758571D02*
X8443571Y-12796667D01*
X8443571Y-12796667D02*
X8443571Y-12844286D01*
X8443571Y-12844286D02*
X8434048Y-12882381D01*
X8434048Y-12882381D02*
X8424524Y-12901428D01*
X8424524Y-12901428D02*
X8415000Y-12910952D01*
X8415000Y-12910952D02*
X8395952Y-12920476D01*
X8395952Y-12920476D02*
X8376905Y-12920476D01*
X8376905Y-12920476D02*
X8357857Y-12910952D01*
X8357857Y-12910952D02*
X8348333Y-12901428D01*
X8348333Y-12901428D02*
X8338809Y-12882381D01*
X8338809Y-12882381D02*
X8329286Y-12844286D01*
X8329286Y-12844286D02*
X8329286Y-12796667D01*
X8329286Y-12796667D02*
X8338809Y-12758571D01*
X8338809Y-12758571D02*
X8348333Y-12739524D01*
X8348333Y-12739524D02*
X8357857Y-12730000D01*
X8357857Y-12730000D02*
X8376905Y-12720476D01*
X8567381Y-12720476D02*
X8586429Y-12720476D01*
X8586429Y-12720476D02*
X8605476Y-12730000D01*
X8605476Y-12730000D02*
X8615000Y-12739524D01*
X8615000Y-12739524D02*
X8624524Y-12758571D01*
X8624524Y-12758571D02*
X8634048Y-12796667D01*
X8634048Y-12796667D02*
X8634048Y-12844286D01*
X8634048Y-12844286D02*
X8624524Y-12882381D01*
X8624524Y-12882381D02*
X8615000Y-12901428D01*
X8615000Y-12901428D02*
X8605476Y-12910952D01*
X8605476Y-12910952D02*
X8586429Y-12920476D01*
X8586429Y-12920476D02*
X8567381Y-12920476D01*
X8567381Y-12920476D02*
X8548333Y-12910952D01*
X8548333Y-12910952D02*
X8538810Y-12901428D01*
X8538810Y-12901428D02*
X8529286Y-12882381D01*
X8529286Y-12882381D02*
X8519762Y-12844286D01*
X8519762Y-12844286D02*
X8519762Y-12796667D01*
X8519762Y-12796667D02*
X8529286Y-12758571D01*
X8529286Y-12758571D02*
X8538810Y-12739524D01*
X8538810Y-12739524D02*
X8548333Y-12730000D01*
X8548333Y-12730000D02*
X8567381Y-12720476D01*
X8719762Y-12920476D02*
X8719762Y-12787143D01*
X8719762Y-12806190D02*
X8729286Y-12796667D01*
X8729286Y-12796667D02*
X8748333Y-12787143D01*
X8748333Y-12787143D02*
X8776905Y-12787143D01*
X8776905Y-12787143D02*
X8795952Y-12796667D01*
X8795952Y-12796667D02*
X8805476Y-12815714D01*
X8805476Y-12815714D02*
X8805476Y-12920476D01*
X8805476Y-12815714D02*
X8815000Y-12796667D01*
X8815000Y-12796667D02*
X8834048Y-12787143D01*
X8834048Y-12787143D02*
X8862619Y-12787143D01*
X8862619Y-12787143D02*
X8881667Y-12796667D01*
X8881667Y-12796667D02*
X8891191Y-12815714D01*
X8891191Y-12815714D02*
X8891191Y-12920476D01*
X8986429Y-12920476D02*
X8986429Y-12787143D01*
X8986429Y-12806190D02*
X8995952Y-12796667D01*
X8995952Y-12796667D02*
X9015000Y-12787143D01*
X9015000Y-12787143D02*
X9043572Y-12787143D01*
X9043572Y-12787143D02*
X9062619Y-12796667D01*
X9062619Y-12796667D02*
X9072143Y-12815714D01*
X9072143Y-12815714D02*
X9072143Y-12920476D01*
X9072143Y-12815714D02*
X9081667Y-12796667D01*
X9081667Y-12796667D02*
X9100714Y-12787143D01*
X9100714Y-12787143D02*
X9129286Y-12787143D01*
X9129286Y-12787143D02*
X9148333Y-12796667D01*
X9148333Y-12796667D02*
X9157857Y-12815714D01*
X9157857Y-12815714D02*
X9157857Y-12920476D01*
X9515952Y-12710952D02*
X9344524Y-12968095D01*
X9740714Y-12720476D02*
X9759762Y-12720476D01*
X9759762Y-12720476D02*
X9778810Y-12730000D01*
X9778810Y-12730000D02*
X9788333Y-12739524D01*
X9788333Y-12739524D02*
X9797857Y-12758571D01*
X9797857Y-12758571D02*
X9807381Y-12796667D01*
X9807381Y-12796667D02*
X9807381Y-12844286D01*
X9807381Y-12844286D02*
X9797857Y-12882381D01*
X9797857Y-12882381D02*
X9788333Y-12901428D01*
X9788333Y-12901428D02*
X9778810Y-12910952D01*
X9778810Y-12910952D02*
X9759762Y-12920476D01*
X9759762Y-12920476D02*
X9740714Y-12920476D01*
X9740714Y-12920476D02*
X9721667Y-12910952D01*
X9721667Y-12910952D02*
X9712143Y-12901428D01*
X9712143Y-12901428D02*
X9702619Y-12882381D01*
X9702619Y-12882381D02*
X9693095Y-12844286D01*
X9693095Y-12844286D02*
X9693095Y-12796667D01*
X9693095Y-12796667D02*
X9702619Y-12758571D01*
X9702619Y-12758571D02*
X9712143Y-12739524D01*
X9712143Y-12739524D02*
X9721667Y-12730000D01*
X9721667Y-12730000D02*
X9740714Y-12720476D01*
X9893095Y-12901428D02*
X9902619Y-12910952D01*
X9902619Y-12910952D02*
X9893095Y-12920476D01*
X9893095Y-12920476D02*
X9883572Y-12910952D01*
X9883572Y-12910952D02*
X9893095Y-12901428D01*
X9893095Y-12901428D02*
X9893095Y-12920476D01*
X10026429Y-12720476D02*
X10045476Y-12720476D01*
X10045476Y-12720476D02*
X10064524Y-12730000D01*
X10064524Y-12730000D02*
X10074048Y-12739524D01*
X10074048Y-12739524D02*
X10083572Y-12758571D01*
X10083572Y-12758571D02*
X10093095Y-12796667D01*
X10093095Y-12796667D02*
X10093095Y-12844286D01*
X10093095Y-12844286D02*
X10083572Y-12882381D01*
X10083572Y-12882381D02*
X10074048Y-12901428D01*
X10074048Y-12901428D02*
X10064524Y-12910952D01*
X10064524Y-12910952D02*
X10045476Y-12920476D01*
X10045476Y-12920476D02*
X10026429Y-12920476D01*
X10026429Y-12920476D02*
X10007381Y-12910952D01*
X10007381Y-12910952D02*
X9997857Y-12901428D01*
X9997857Y-12901428D02*
X9988333Y-12882381D01*
X9988333Y-12882381D02*
X9978810Y-12844286D01*
X9978810Y-12844286D02*
X9978810Y-12796667D01*
X9978810Y-12796667D02*
X9988333Y-12758571D01*
X9988333Y-12758571D02*
X9997857Y-12739524D01*
X9997857Y-12739524D02*
X10007381Y-12730000D01*
X10007381Y-12730000D02*
X10026429Y-12720476D01*
X10159762Y-12720476D02*
X10283572Y-12720476D01*
X10283572Y-12720476D02*
X10216905Y-12796667D01*
X10216905Y-12796667D02*
X10245476Y-12796667D01*
X10245476Y-12796667D02*
X10264524Y-12806190D01*
X10264524Y-12806190D02*
X10274048Y-12815714D01*
X10274048Y-12815714D02*
X10283572Y-12834762D01*
X10283572Y-12834762D02*
X10283572Y-12882381D01*
X10283572Y-12882381D02*
X10274048Y-12901428D01*
X10274048Y-12901428D02*
X10264524Y-12910952D01*
X10264524Y-12910952D02*
X10245476Y-12920476D01*
X10245476Y-12920476D02*
X10188333Y-12920476D01*
X10188333Y-12920476D02*
X10169286Y-12910952D01*
X10169286Y-12910952D02*
X10159762Y-12901428D01*
X10474048Y-12920476D02*
X10359762Y-12920476D01*
X10416905Y-12920476D02*
X10416905Y-12720476D01*
X10416905Y-12720476D02*
X10397857Y-12749048D01*
X10397857Y-12749048D02*
X10378810Y-12768095D01*
X10378810Y-12768095D02*
X10359762Y-12777619D01*
X10655000Y-12720476D02*
X10559762Y-12720476D01*
X10559762Y-12720476D02*
X10550238Y-12815714D01*
X10550238Y-12815714D02*
X10559762Y-12806190D01*
X10559762Y-12806190D02*
X10578810Y-12796667D01*
X10578810Y-12796667D02*
X10626429Y-12796667D01*
X10626429Y-12796667D02*
X10645476Y-12806190D01*
X10645476Y-12806190D02*
X10655000Y-12815714D01*
X10655000Y-12815714D02*
X10664524Y-12834762D01*
X10664524Y-12834762D02*
X10664524Y-12882381D01*
X10664524Y-12882381D02*
X10655000Y-12901428D01*
X10655000Y-12901428D02*
X10645476Y-12910952D01*
X10645476Y-12910952D02*
X10626429Y-12920476D01*
X10626429Y-12920476D02*
X10578810Y-12920476D01*
X10578810Y-12920476D02*
X10559762Y-12910952D01*
X10559762Y-12910952D02*
X10550238Y-12901428D01*
X10740714Y-12720476D02*
X10740714Y-12758571D01*
X10816905Y-12720476D02*
X10816905Y-12758571D01*
X11079762Y-12996667D02*
X11070238Y-12987143D01*
X11070238Y-12987143D02*
X11051191Y-12958571D01*
X11051191Y-12958571D02*
X11041667Y-12939524D01*
X11041667Y-12939524D02*
X11032143Y-12910952D01*
X11032143Y-12910952D02*
X11022619Y-12863333D01*
X11022619Y-12863333D02*
X11022619Y-12825238D01*
X11022619Y-12825238D02*
X11032143Y-12777619D01*
X11032143Y-12777619D02*
X11041667Y-12749048D01*
X11041667Y-12749048D02*
X11051191Y-12730000D01*
X11051191Y-12730000D02*
X11070238Y-12701428D01*
X11070238Y-12701428D02*
X11079762Y-12691905D01*
X11260714Y-12920476D02*
X11146429Y-12920476D01*
X11203571Y-12920476D02*
X11203571Y-12720476D01*
X11203571Y-12720476D02*
X11184524Y-12749048D01*
X11184524Y-12749048D02*
X11165476Y-12768095D01*
X11165476Y-12768095D02*
X11146429Y-12777619D01*
X11384524Y-12720476D02*
X11403572Y-12720476D01*
X11403572Y-12720476D02*
X11422619Y-12730000D01*
X11422619Y-12730000D02*
X11432143Y-12739524D01*
X11432143Y-12739524D02*
X11441667Y-12758571D01*
X11441667Y-12758571D02*
X11451191Y-12796667D01*
X11451191Y-12796667D02*
X11451191Y-12844286D01*
X11451191Y-12844286D02*
X11441667Y-12882381D01*
X11441667Y-12882381D02*
X11432143Y-12901428D01*
X11432143Y-12901428D02*
X11422619Y-12910952D01*
X11422619Y-12910952D02*
X11403572Y-12920476D01*
X11403572Y-12920476D02*
X11384524Y-12920476D01*
X11384524Y-12920476D02*
X11365476Y-12910952D01*
X11365476Y-12910952D02*
X11355952Y-12901428D01*
X11355952Y-12901428D02*
X11346429Y-12882381D01*
X11346429Y-12882381D02*
X11336905Y-12844286D01*
X11336905Y-12844286D02*
X11336905Y-12796667D01*
X11336905Y-12796667D02*
X11346429Y-12758571D01*
X11346429Y-12758571D02*
X11355952Y-12739524D01*
X11355952Y-12739524D02*
X11365476Y-12730000D01*
X11365476Y-12730000D02*
X11384524Y-12720476D01*
X11632143Y-12720476D02*
X11536905Y-12720476D01*
X11536905Y-12720476D02*
X11527381Y-12815714D01*
X11527381Y-12815714D02*
X11536905Y-12806190D01*
X11536905Y-12806190D02*
X11555952Y-12796667D01*
X11555952Y-12796667D02*
X11603572Y-12796667D01*
X11603572Y-12796667D02*
X11622619Y-12806190D01*
X11622619Y-12806190D02*
X11632143Y-12815714D01*
X11632143Y-12815714D02*
X11641667Y-12834762D01*
X11641667Y-12834762D02*
X11641667Y-12882381D01*
X11641667Y-12882381D02*
X11632143Y-12901428D01*
X11632143Y-12901428D02*
X11622619Y-12910952D01*
X11622619Y-12910952D02*
X11603572Y-12920476D01*
X11603572Y-12920476D02*
X11555952Y-12920476D01*
X11555952Y-12920476D02*
X11536905Y-12910952D01*
X11536905Y-12910952D02*
X11527381Y-12901428D01*
X11847381Y-12920476D02*
X11847381Y-12720476D01*
X11933095Y-12920476D02*
X11933095Y-12815714D01*
X11933095Y-12815714D02*
X11923572Y-12796667D01*
X11923572Y-12796667D02*
X11904524Y-12787143D01*
X11904524Y-12787143D02*
X11875952Y-12787143D01*
X11875952Y-12787143D02*
X11856905Y-12796667D01*
X11856905Y-12796667D02*
X11847381Y-12806190D01*
X12056905Y-12920476D02*
X12037857Y-12910952D01*
X12037857Y-12910952D02*
X12028333Y-12901428D01*
X12028333Y-12901428D02*
X12018810Y-12882381D01*
X12018810Y-12882381D02*
X12018810Y-12825238D01*
X12018810Y-12825238D02*
X12028333Y-12806190D01*
X12028333Y-12806190D02*
X12037857Y-12796667D01*
X12037857Y-12796667D02*
X12056905Y-12787143D01*
X12056905Y-12787143D02*
X12085476Y-12787143D01*
X12085476Y-12787143D02*
X12104524Y-12796667D01*
X12104524Y-12796667D02*
X12114048Y-12806190D01*
X12114048Y-12806190D02*
X12123572Y-12825238D01*
X12123572Y-12825238D02*
X12123572Y-12882381D01*
X12123572Y-12882381D02*
X12114048Y-12901428D01*
X12114048Y-12901428D02*
X12104524Y-12910952D01*
X12104524Y-12910952D02*
X12085476Y-12920476D01*
X12085476Y-12920476D02*
X12056905Y-12920476D01*
X12237857Y-12920476D02*
X12218810Y-12910952D01*
X12218810Y-12910952D02*
X12209286Y-12891905D01*
X12209286Y-12891905D02*
X12209286Y-12720476D01*
X12390238Y-12910952D02*
X12371191Y-12920476D01*
X12371191Y-12920476D02*
X12333095Y-12920476D01*
X12333095Y-12920476D02*
X12314048Y-12910952D01*
X12314048Y-12910952D02*
X12304524Y-12891905D01*
X12304524Y-12891905D02*
X12304524Y-12815714D01*
X12304524Y-12815714D02*
X12314048Y-12796667D01*
X12314048Y-12796667D02*
X12333095Y-12787143D01*
X12333095Y-12787143D02*
X12371191Y-12787143D01*
X12371191Y-12787143D02*
X12390238Y-12796667D01*
X12390238Y-12796667D02*
X12399762Y-12815714D01*
X12399762Y-12815714D02*
X12399762Y-12834762D01*
X12399762Y-12834762D02*
X12304524Y-12853809D01*
X12475953Y-12910952D02*
X12495000Y-12920476D01*
X12495000Y-12920476D02*
X12533095Y-12920476D01*
X12533095Y-12920476D02*
X12552143Y-12910952D01*
X12552143Y-12910952D02*
X12561667Y-12891905D01*
X12561667Y-12891905D02*
X12561667Y-12882381D01*
X12561667Y-12882381D02*
X12552143Y-12863333D01*
X12552143Y-12863333D02*
X12533095Y-12853809D01*
X12533095Y-12853809D02*
X12504524Y-12853809D01*
X12504524Y-12853809D02*
X12485476Y-12844286D01*
X12485476Y-12844286D02*
X12475953Y-12825238D01*
X12475953Y-12825238D02*
X12475953Y-12815714D01*
X12475953Y-12815714D02*
X12485476Y-12796667D01*
X12485476Y-12796667D02*
X12504524Y-12787143D01*
X12504524Y-12787143D02*
X12533095Y-12787143D01*
X12533095Y-12787143D02*
X12552143Y-12796667D01*
X12628334Y-12996667D02*
X12637857Y-12987143D01*
X12637857Y-12987143D02*
X12656905Y-12958571D01*
X12656905Y-12958571D02*
X12666429Y-12939524D01*
X12666429Y-12939524D02*
X12675953Y-12910952D01*
X12675953Y-12910952D02*
X12685476Y-12863333D01*
X12685476Y-12863333D02*
X12685476Y-12825238D01*
X12685476Y-12825238D02*
X12675953Y-12777619D01*
X12675953Y-12777619D02*
X12666429Y-12749048D01*
X12666429Y-12749048D02*
X12656905Y-12730000D01*
X12656905Y-12730000D02*
X12637857Y-12701428D01*
X12637857Y-12701428D02*
X12628334Y-12691905D01*
D14*
X7570000Y-13066000D02*
X7570000Y-13156000D01*
X7525000Y-13111000D02*
X7615000Y-13111000D01*
D11*
X7900714Y-12984476D02*
X7919762Y-12984476D01*
X7919762Y-12984476D02*
X7938809Y-12994000D01*
X7938809Y-12994000D02*
X7948333Y-13003524D01*
X7948333Y-13003524D02*
X7957857Y-13022571D01*
X7957857Y-13022571D02*
X7967381Y-13060667D01*
X7967381Y-13060667D02*
X7967381Y-13108286D01*
X7967381Y-13108286D02*
X7957857Y-13146381D01*
X7957857Y-13146381D02*
X7948333Y-13165428D01*
X7948333Y-13165428D02*
X7938809Y-13174952D01*
X7938809Y-13174952D02*
X7919762Y-13184476D01*
X7919762Y-13184476D02*
X7900714Y-13184476D01*
X7900714Y-13184476D02*
X7881667Y-13174952D01*
X7881667Y-13174952D02*
X7872143Y-13165428D01*
X7872143Y-13165428D02*
X7862619Y-13146381D01*
X7862619Y-13146381D02*
X7853095Y-13108286D01*
X7853095Y-13108286D02*
X7853095Y-13060667D01*
X7853095Y-13060667D02*
X7862619Y-13022571D01*
X7862619Y-13022571D02*
X7872143Y-13003524D01*
X7872143Y-13003524D02*
X7881667Y-12994000D01*
X7881667Y-12994000D02*
X7900714Y-12984476D01*
X8053095Y-13165428D02*
X8062619Y-13174952D01*
X8062619Y-13174952D02*
X8053095Y-13184476D01*
X8053095Y-13184476D02*
X8043571Y-13174952D01*
X8043571Y-13174952D02*
X8053095Y-13165428D01*
X8053095Y-13165428D02*
X8053095Y-13184476D01*
X8157857Y-13184476D02*
X8195952Y-13184476D01*
X8195952Y-13184476D02*
X8215000Y-13174952D01*
X8215000Y-13174952D02*
X8224524Y-13165428D01*
X8224524Y-13165428D02*
X8243571Y-13136857D01*
X8243571Y-13136857D02*
X8253095Y-13098762D01*
X8253095Y-13098762D02*
X8253095Y-13022571D01*
X8253095Y-13022571D02*
X8243571Y-13003524D01*
X8243571Y-13003524D02*
X8234048Y-12994000D01*
X8234048Y-12994000D02*
X8215000Y-12984476D01*
X8215000Y-12984476D02*
X8176905Y-12984476D01*
X8176905Y-12984476D02*
X8157857Y-12994000D01*
X8157857Y-12994000D02*
X8148333Y-13003524D01*
X8148333Y-13003524D02*
X8138809Y-13022571D01*
X8138809Y-13022571D02*
X8138809Y-13070190D01*
X8138809Y-13070190D02*
X8148333Y-13089238D01*
X8148333Y-13089238D02*
X8157857Y-13098762D01*
X8157857Y-13098762D02*
X8176905Y-13108286D01*
X8176905Y-13108286D02*
X8215000Y-13108286D01*
X8215000Y-13108286D02*
X8234048Y-13098762D01*
X8234048Y-13098762D02*
X8243571Y-13089238D01*
X8243571Y-13089238D02*
X8253095Y-13070190D01*
X8376905Y-12984476D02*
X8395952Y-12984476D01*
X8395952Y-12984476D02*
X8415000Y-12994000D01*
X8415000Y-12994000D02*
X8424524Y-13003524D01*
X8424524Y-13003524D02*
X8434048Y-13022571D01*
X8434048Y-13022571D02*
X8443571Y-13060667D01*
X8443571Y-13060667D02*
X8443571Y-13108286D01*
X8443571Y-13108286D02*
X8434048Y-13146381D01*
X8434048Y-13146381D02*
X8424524Y-13165428D01*
X8424524Y-13165428D02*
X8415000Y-13174952D01*
X8415000Y-13174952D02*
X8395952Y-13184476D01*
X8395952Y-13184476D02*
X8376905Y-13184476D01*
X8376905Y-13184476D02*
X8357857Y-13174952D01*
X8357857Y-13174952D02*
X8348333Y-13165428D01*
X8348333Y-13165428D02*
X8338809Y-13146381D01*
X8338809Y-13146381D02*
X8329286Y-13108286D01*
X8329286Y-13108286D02*
X8329286Y-13060667D01*
X8329286Y-13060667D02*
X8338809Y-13022571D01*
X8338809Y-13022571D02*
X8348333Y-13003524D01*
X8348333Y-13003524D02*
X8357857Y-12994000D01*
X8357857Y-12994000D02*
X8376905Y-12984476D01*
X8567381Y-12984476D02*
X8586429Y-12984476D01*
X8586429Y-12984476D02*
X8605476Y-12994000D01*
X8605476Y-12994000D02*
X8615000Y-13003524D01*
X8615000Y-13003524D02*
X8624524Y-13022571D01*
X8624524Y-13022571D02*
X8634048Y-13060667D01*
X8634048Y-13060667D02*
X8634048Y-13108286D01*
X8634048Y-13108286D02*
X8624524Y-13146381D01*
X8624524Y-13146381D02*
X8615000Y-13165428D01*
X8615000Y-13165428D02*
X8605476Y-13174952D01*
X8605476Y-13174952D02*
X8586429Y-13184476D01*
X8586429Y-13184476D02*
X8567381Y-13184476D01*
X8567381Y-13184476D02*
X8548333Y-13174952D01*
X8548333Y-13174952D02*
X8538810Y-13165428D01*
X8538810Y-13165428D02*
X8529286Y-13146381D01*
X8529286Y-13146381D02*
X8519762Y-13108286D01*
X8519762Y-13108286D02*
X8519762Y-13060667D01*
X8519762Y-13060667D02*
X8529286Y-13022571D01*
X8529286Y-13022571D02*
X8538810Y-13003524D01*
X8538810Y-13003524D02*
X8548333Y-12994000D01*
X8548333Y-12994000D02*
X8567381Y-12984476D01*
X8719762Y-13184476D02*
X8719762Y-13051143D01*
X8719762Y-13070190D02*
X8729286Y-13060667D01*
X8729286Y-13060667D02*
X8748333Y-13051143D01*
X8748333Y-13051143D02*
X8776905Y-13051143D01*
X8776905Y-13051143D02*
X8795952Y-13060667D01*
X8795952Y-13060667D02*
X8805476Y-13079714D01*
X8805476Y-13079714D02*
X8805476Y-13184476D01*
X8805476Y-13079714D02*
X8815000Y-13060667D01*
X8815000Y-13060667D02*
X8834048Y-13051143D01*
X8834048Y-13051143D02*
X8862619Y-13051143D01*
X8862619Y-13051143D02*
X8881667Y-13060667D01*
X8881667Y-13060667D02*
X8891191Y-13079714D01*
X8891191Y-13079714D02*
X8891191Y-13184476D01*
X8986429Y-13184476D02*
X8986429Y-13051143D01*
X8986429Y-13070190D02*
X8995952Y-13060667D01*
X8995952Y-13060667D02*
X9015000Y-13051143D01*
X9015000Y-13051143D02*
X9043572Y-13051143D01*
X9043572Y-13051143D02*
X9062619Y-13060667D01*
X9062619Y-13060667D02*
X9072143Y-13079714D01*
X9072143Y-13079714D02*
X9072143Y-13184476D01*
X9072143Y-13079714D02*
X9081667Y-13060667D01*
X9081667Y-13060667D02*
X9100714Y-13051143D01*
X9100714Y-13051143D02*
X9129286Y-13051143D01*
X9129286Y-13051143D02*
X9148333Y-13060667D01*
X9148333Y-13060667D02*
X9157857Y-13079714D01*
X9157857Y-13079714D02*
X9157857Y-13184476D01*
X9515952Y-12974952D02*
X9344524Y-13232095D01*
X9740714Y-12984476D02*
X9759762Y-12984476D01*
X9759762Y-12984476D02*
X9778810Y-12994000D01*
X9778810Y-12994000D02*
X9788333Y-13003524D01*
X9788333Y-13003524D02*
X9797857Y-13022571D01*
X9797857Y-13022571D02*
X9807381Y-13060667D01*
X9807381Y-13060667D02*
X9807381Y-13108286D01*
X9807381Y-13108286D02*
X9797857Y-13146381D01*
X9797857Y-13146381D02*
X9788333Y-13165428D01*
X9788333Y-13165428D02*
X9778810Y-13174952D01*
X9778810Y-13174952D02*
X9759762Y-13184476D01*
X9759762Y-13184476D02*
X9740714Y-13184476D01*
X9740714Y-13184476D02*
X9721667Y-13174952D01*
X9721667Y-13174952D02*
X9712143Y-13165428D01*
X9712143Y-13165428D02*
X9702619Y-13146381D01*
X9702619Y-13146381D02*
X9693095Y-13108286D01*
X9693095Y-13108286D02*
X9693095Y-13060667D01*
X9693095Y-13060667D02*
X9702619Y-13022571D01*
X9702619Y-13022571D02*
X9712143Y-13003524D01*
X9712143Y-13003524D02*
X9721667Y-12994000D01*
X9721667Y-12994000D02*
X9740714Y-12984476D01*
X9893095Y-13165428D02*
X9902619Y-13174952D01*
X9902619Y-13174952D02*
X9893095Y-13184476D01*
X9893095Y-13184476D02*
X9883572Y-13174952D01*
X9883572Y-13174952D02*
X9893095Y-13165428D01*
X9893095Y-13165428D02*
X9893095Y-13184476D01*
X10026429Y-12984476D02*
X10045476Y-12984476D01*
X10045476Y-12984476D02*
X10064524Y-12994000D01*
X10064524Y-12994000D02*
X10074048Y-13003524D01*
X10074048Y-13003524D02*
X10083572Y-13022571D01*
X10083572Y-13022571D02*
X10093095Y-13060667D01*
X10093095Y-13060667D02*
X10093095Y-13108286D01*
X10093095Y-13108286D02*
X10083572Y-13146381D01*
X10083572Y-13146381D02*
X10074048Y-13165428D01*
X10074048Y-13165428D02*
X10064524Y-13174952D01*
X10064524Y-13174952D02*
X10045476Y-13184476D01*
X10045476Y-13184476D02*
X10026429Y-13184476D01*
X10026429Y-13184476D02*
X10007381Y-13174952D01*
X10007381Y-13174952D02*
X9997857Y-13165428D01*
X9997857Y-13165428D02*
X9988333Y-13146381D01*
X9988333Y-13146381D02*
X9978810Y-13108286D01*
X9978810Y-13108286D02*
X9978810Y-13060667D01*
X9978810Y-13060667D02*
X9988333Y-13022571D01*
X9988333Y-13022571D02*
X9997857Y-13003524D01*
X9997857Y-13003524D02*
X10007381Y-12994000D01*
X10007381Y-12994000D02*
X10026429Y-12984476D01*
X10159762Y-12984476D02*
X10283572Y-12984476D01*
X10283572Y-12984476D02*
X10216905Y-13060667D01*
X10216905Y-13060667D02*
X10245476Y-13060667D01*
X10245476Y-13060667D02*
X10264524Y-13070190D01*
X10264524Y-13070190D02*
X10274048Y-13079714D01*
X10274048Y-13079714D02*
X10283572Y-13098762D01*
X10283572Y-13098762D02*
X10283572Y-13146381D01*
X10283572Y-13146381D02*
X10274048Y-13165428D01*
X10274048Y-13165428D02*
X10264524Y-13174952D01*
X10264524Y-13174952D02*
X10245476Y-13184476D01*
X10245476Y-13184476D02*
X10188333Y-13184476D01*
X10188333Y-13184476D02*
X10169286Y-13174952D01*
X10169286Y-13174952D02*
X10159762Y-13165428D01*
X10464524Y-12984476D02*
X10369286Y-12984476D01*
X10369286Y-12984476D02*
X10359762Y-13079714D01*
X10359762Y-13079714D02*
X10369286Y-13070190D01*
X10369286Y-13070190D02*
X10388333Y-13060667D01*
X10388333Y-13060667D02*
X10435953Y-13060667D01*
X10435953Y-13060667D02*
X10455000Y-13070190D01*
X10455000Y-13070190D02*
X10464524Y-13079714D01*
X10464524Y-13079714D02*
X10474048Y-13098762D01*
X10474048Y-13098762D02*
X10474048Y-13146381D01*
X10474048Y-13146381D02*
X10464524Y-13165428D01*
X10464524Y-13165428D02*
X10455000Y-13174952D01*
X10455000Y-13174952D02*
X10435953Y-13184476D01*
X10435953Y-13184476D02*
X10388333Y-13184476D01*
X10388333Y-13184476D02*
X10369286Y-13174952D01*
X10369286Y-13174952D02*
X10359762Y-13165428D01*
X10645476Y-13051143D02*
X10645476Y-13184476D01*
X10597857Y-12974952D02*
X10550238Y-13117809D01*
X10550238Y-13117809D02*
X10674048Y-13117809D01*
X10740714Y-12984476D02*
X10740714Y-13022571D01*
X10816905Y-12984476D02*
X10816905Y-13022571D01*
X11079762Y-13260667D02*
X11070238Y-13251143D01*
X11070238Y-13251143D02*
X11051191Y-13222571D01*
X11051191Y-13222571D02*
X11041667Y-13203524D01*
X11041667Y-13203524D02*
X11032143Y-13174952D01*
X11032143Y-13174952D02*
X11022619Y-13127333D01*
X11022619Y-13127333D02*
X11022619Y-13089238D01*
X11022619Y-13089238D02*
X11032143Y-13041619D01*
X11032143Y-13041619D02*
X11041667Y-13013048D01*
X11041667Y-13013048D02*
X11051191Y-12994000D01*
X11051191Y-12994000D02*
X11070238Y-12965428D01*
X11070238Y-12965428D02*
X11079762Y-12955905D01*
X11146429Y-13003524D02*
X11155953Y-12994000D01*
X11155953Y-12994000D02*
X11175000Y-12984476D01*
X11175000Y-12984476D02*
X11222619Y-12984476D01*
X11222619Y-12984476D02*
X11241667Y-12994000D01*
X11241667Y-12994000D02*
X11251191Y-13003524D01*
X11251191Y-13003524D02*
X11260714Y-13022571D01*
X11260714Y-13022571D02*
X11260714Y-13041619D01*
X11260714Y-13041619D02*
X11251191Y-13070190D01*
X11251191Y-13070190D02*
X11136905Y-13184476D01*
X11136905Y-13184476D02*
X11260714Y-13184476D01*
X11466429Y-13184476D02*
X11466429Y-12984476D01*
X11552143Y-13184476D02*
X11552143Y-13079714D01*
X11552143Y-13079714D02*
X11542619Y-13060667D01*
X11542619Y-13060667D02*
X11523572Y-13051143D01*
X11523572Y-13051143D02*
X11495000Y-13051143D01*
X11495000Y-13051143D02*
X11475952Y-13060667D01*
X11475952Y-13060667D02*
X11466429Y-13070190D01*
X11675952Y-13184476D02*
X11656905Y-13174952D01*
X11656905Y-13174952D02*
X11647381Y-13165428D01*
X11647381Y-13165428D02*
X11637857Y-13146381D01*
X11637857Y-13146381D02*
X11637857Y-13089238D01*
X11637857Y-13089238D02*
X11647381Y-13070190D01*
X11647381Y-13070190D02*
X11656905Y-13060667D01*
X11656905Y-13060667D02*
X11675952Y-13051143D01*
X11675952Y-13051143D02*
X11704524Y-13051143D01*
X11704524Y-13051143D02*
X11723572Y-13060667D01*
X11723572Y-13060667D02*
X11733095Y-13070190D01*
X11733095Y-13070190D02*
X11742619Y-13089238D01*
X11742619Y-13089238D02*
X11742619Y-13146381D01*
X11742619Y-13146381D02*
X11733095Y-13165428D01*
X11733095Y-13165428D02*
X11723572Y-13174952D01*
X11723572Y-13174952D02*
X11704524Y-13184476D01*
X11704524Y-13184476D02*
X11675952Y-13184476D01*
X11856905Y-13184476D02*
X11837857Y-13174952D01*
X11837857Y-13174952D02*
X11828333Y-13155905D01*
X11828333Y-13155905D02*
X11828333Y-12984476D01*
X12009286Y-13174952D02*
X11990238Y-13184476D01*
X11990238Y-13184476D02*
X11952143Y-13184476D01*
X11952143Y-13184476D02*
X11933095Y-13174952D01*
X11933095Y-13174952D02*
X11923572Y-13155905D01*
X11923572Y-13155905D02*
X11923572Y-13079714D01*
X11923572Y-13079714D02*
X11933095Y-13060667D01*
X11933095Y-13060667D02*
X11952143Y-13051143D01*
X11952143Y-13051143D02*
X11990238Y-13051143D01*
X11990238Y-13051143D02*
X12009286Y-13060667D01*
X12009286Y-13060667D02*
X12018810Y-13079714D01*
X12018810Y-13079714D02*
X12018810Y-13098762D01*
X12018810Y-13098762D02*
X11923572Y-13117809D01*
X12095000Y-13174952D02*
X12114048Y-13184476D01*
X12114048Y-13184476D02*
X12152143Y-13184476D01*
X12152143Y-13184476D02*
X12171191Y-13174952D01*
X12171191Y-13174952D02*
X12180714Y-13155905D01*
X12180714Y-13155905D02*
X12180714Y-13146381D01*
X12180714Y-13146381D02*
X12171191Y-13127333D01*
X12171191Y-13127333D02*
X12152143Y-13117809D01*
X12152143Y-13117809D02*
X12123572Y-13117809D01*
X12123572Y-13117809D02*
X12104524Y-13108286D01*
X12104524Y-13108286D02*
X12095000Y-13089238D01*
X12095000Y-13089238D02*
X12095000Y-13079714D01*
X12095000Y-13079714D02*
X12104524Y-13060667D01*
X12104524Y-13060667D02*
X12123572Y-13051143D01*
X12123572Y-13051143D02*
X12152143Y-13051143D01*
X12152143Y-13051143D02*
X12171191Y-13060667D01*
X12247381Y-13260667D02*
X12256905Y-13251143D01*
X12256905Y-13251143D02*
X12275953Y-13222571D01*
X12275953Y-13222571D02*
X12285476Y-13203524D01*
X12285476Y-13203524D02*
X12295000Y-13174952D01*
X12295000Y-13174952D02*
X12304524Y-13127333D01*
X12304524Y-13127333D02*
X12304524Y-13089238D01*
X12304524Y-13089238D02*
X12295000Y-13041619D01*
X12295000Y-13041619D02*
X12285476Y-13013048D01*
X12285476Y-13013048D02*
X12275953Y-12994000D01*
X12275953Y-12994000D02*
X12256905Y-12965428D01*
X12256905Y-12965428D02*
X12247381Y-12955905D01*
D10*
X7600356Y-13410356D02*
X7600356Y-13339644D01*
X7529644Y-13339644D01*
X7529644Y-13410356D01*
X7600356Y-13410356D01*
D11*
X7967381Y-13448476D02*
X7853095Y-13448476D01*
X7910238Y-13448476D02*
X7910238Y-13248476D01*
X7910238Y-13248476D02*
X7891190Y-13277048D01*
X7891190Y-13277048D02*
X7872143Y-13296095D01*
X7872143Y-13296095D02*
X7853095Y-13305619D01*
X8053095Y-13429428D02*
X8062619Y-13438952D01*
X8062619Y-13438952D02*
X8053095Y-13448476D01*
X8053095Y-13448476D02*
X8043571Y-13438952D01*
X8043571Y-13438952D02*
X8053095Y-13429428D01*
X8053095Y-13429428D02*
X8053095Y-13448476D01*
X8186428Y-13248476D02*
X8205476Y-13248476D01*
X8205476Y-13248476D02*
X8224524Y-13258000D01*
X8224524Y-13258000D02*
X8234048Y-13267524D01*
X8234048Y-13267524D02*
X8243571Y-13286571D01*
X8243571Y-13286571D02*
X8253095Y-13324667D01*
X8253095Y-13324667D02*
X8253095Y-13372286D01*
X8253095Y-13372286D02*
X8243571Y-13410381D01*
X8243571Y-13410381D02*
X8234048Y-13429428D01*
X8234048Y-13429428D02*
X8224524Y-13438952D01*
X8224524Y-13438952D02*
X8205476Y-13448476D01*
X8205476Y-13448476D02*
X8186428Y-13448476D01*
X8186428Y-13448476D02*
X8167381Y-13438952D01*
X8167381Y-13438952D02*
X8157857Y-13429428D01*
X8157857Y-13429428D02*
X8148333Y-13410381D01*
X8148333Y-13410381D02*
X8138809Y-13372286D01*
X8138809Y-13372286D02*
X8138809Y-13324667D01*
X8138809Y-13324667D02*
X8148333Y-13286571D01*
X8148333Y-13286571D02*
X8157857Y-13267524D01*
X8157857Y-13267524D02*
X8167381Y-13258000D01*
X8167381Y-13258000D02*
X8186428Y-13248476D01*
X8376905Y-13248476D02*
X8395952Y-13248476D01*
X8395952Y-13248476D02*
X8415000Y-13258000D01*
X8415000Y-13258000D02*
X8424524Y-13267524D01*
X8424524Y-13267524D02*
X8434048Y-13286571D01*
X8434048Y-13286571D02*
X8443571Y-13324667D01*
X8443571Y-13324667D02*
X8443571Y-13372286D01*
X8443571Y-13372286D02*
X8434048Y-13410381D01*
X8434048Y-13410381D02*
X8424524Y-13429428D01*
X8424524Y-13429428D02*
X8415000Y-13438952D01*
X8415000Y-13438952D02*
X8395952Y-13448476D01*
X8395952Y-13448476D02*
X8376905Y-13448476D01*
X8376905Y-13448476D02*
X8357857Y-13438952D01*
X8357857Y-13438952D02*
X8348333Y-13429428D01*
X8348333Y-13429428D02*
X8338809Y-13410381D01*
X8338809Y-13410381D02*
X8329286Y-13372286D01*
X8329286Y-13372286D02*
X8329286Y-13324667D01*
X8329286Y-13324667D02*
X8338809Y-13286571D01*
X8338809Y-13286571D02*
X8348333Y-13267524D01*
X8348333Y-13267524D02*
X8357857Y-13258000D01*
X8357857Y-13258000D02*
X8376905Y-13248476D01*
X8567381Y-13248476D02*
X8586429Y-13248476D01*
X8586429Y-13248476D02*
X8605476Y-13258000D01*
X8605476Y-13258000D02*
X8615000Y-13267524D01*
X8615000Y-13267524D02*
X8624524Y-13286571D01*
X8624524Y-13286571D02*
X8634048Y-13324667D01*
X8634048Y-13324667D02*
X8634048Y-13372286D01*
X8634048Y-13372286D02*
X8624524Y-13410381D01*
X8624524Y-13410381D02*
X8615000Y-13429428D01*
X8615000Y-13429428D02*
X8605476Y-13438952D01*
X8605476Y-13438952D02*
X8586429Y-13448476D01*
X8586429Y-13448476D02*
X8567381Y-13448476D01*
X8567381Y-13448476D02*
X8548333Y-13438952D01*
X8548333Y-13438952D02*
X8538810Y-13429428D01*
X8538810Y-13429428D02*
X8529286Y-13410381D01*
X8529286Y-13410381D02*
X8519762Y-13372286D01*
X8519762Y-13372286D02*
X8519762Y-13324667D01*
X8519762Y-13324667D02*
X8529286Y-13286571D01*
X8529286Y-13286571D02*
X8538810Y-13267524D01*
X8538810Y-13267524D02*
X8548333Y-13258000D01*
X8548333Y-13258000D02*
X8567381Y-13248476D01*
X8719762Y-13448476D02*
X8719762Y-13315143D01*
X8719762Y-13334190D02*
X8729286Y-13324667D01*
X8729286Y-13324667D02*
X8748333Y-13315143D01*
X8748333Y-13315143D02*
X8776905Y-13315143D01*
X8776905Y-13315143D02*
X8795952Y-13324667D01*
X8795952Y-13324667D02*
X8805476Y-13343714D01*
X8805476Y-13343714D02*
X8805476Y-13448476D01*
X8805476Y-13343714D02*
X8815000Y-13324667D01*
X8815000Y-13324667D02*
X8834048Y-13315143D01*
X8834048Y-13315143D02*
X8862619Y-13315143D01*
X8862619Y-13315143D02*
X8881667Y-13324667D01*
X8881667Y-13324667D02*
X8891191Y-13343714D01*
X8891191Y-13343714D02*
X8891191Y-13448476D01*
X8986429Y-13448476D02*
X8986429Y-13315143D01*
X8986429Y-13334190D02*
X8995952Y-13324667D01*
X8995952Y-13324667D02*
X9015000Y-13315143D01*
X9015000Y-13315143D02*
X9043572Y-13315143D01*
X9043572Y-13315143D02*
X9062619Y-13324667D01*
X9062619Y-13324667D02*
X9072143Y-13343714D01*
X9072143Y-13343714D02*
X9072143Y-13448476D01*
X9072143Y-13343714D02*
X9081667Y-13324667D01*
X9081667Y-13324667D02*
X9100714Y-13315143D01*
X9100714Y-13315143D02*
X9129286Y-13315143D01*
X9129286Y-13315143D02*
X9148333Y-13324667D01*
X9148333Y-13324667D02*
X9157857Y-13343714D01*
X9157857Y-13343714D02*
X9157857Y-13448476D01*
X9515952Y-13238952D02*
X9344524Y-13496095D01*
X9740714Y-13248476D02*
X9759762Y-13248476D01*
X9759762Y-13248476D02*
X9778810Y-13258000D01*
X9778810Y-13258000D02*
X9788333Y-13267524D01*
X9788333Y-13267524D02*
X9797857Y-13286571D01*
X9797857Y-13286571D02*
X9807381Y-13324667D01*
X9807381Y-13324667D02*
X9807381Y-13372286D01*
X9807381Y-13372286D02*
X9797857Y-13410381D01*
X9797857Y-13410381D02*
X9788333Y-13429428D01*
X9788333Y-13429428D02*
X9778810Y-13438952D01*
X9778810Y-13438952D02*
X9759762Y-13448476D01*
X9759762Y-13448476D02*
X9740714Y-13448476D01*
X9740714Y-13448476D02*
X9721667Y-13438952D01*
X9721667Y-13438952D02*
X9712143Y-13429428D01*
X9712143Y-13429428D02*
X9702619Y-13410381D01*
X9702619Y-13410381D02*
X9693095Y-13372286D01*
X9693095Y-13372286D02*
X9693095Y-13324667D01*
X9693095Y-13324667D02*
X9702619Y-13286571D01*
X9702619Y-13286571D02*
X9712143Y-13267524D01*
X9712143Y-13267524D02*
X9721667Y-13258000D01*
X9721667Y-13258000D02*
X9740714Y-13248476D01*
X9893095Y-13429428D02*
X9902619Y-13438952D01*
X9902619Y-13438952D02*
X9893095Y-13448476D01*
X9893095Y-13448476D02*
X9883572Y-13438952D01*
X9883572Y-13438952D02*
X9893095Y-13429428D01*
X9893095Y-13429428D02*
X9893095Y-13448476D01*
X10026429Y-13248476D02*
X10045476Y-13248476D01*
X10045476Y-13248476D02*
X10064524Y-13258000D01*
X10064524Y-13258000D02*
X10074048Y-13267524D01*
X10074048Y-13267524D02*
X10083572Y-13286571D01*
X10083572Y-13286571D02*
X10093095Y-13324667D01*
X10093095Y-13324667D02*
X10093095Y-13372286D01*
X10093095Y-13372286D02*
X10083572Y-13410381D01*
X10083572Y-13410381D02*
X10074048Y-13429428D01*
X10074048Y-13429428D02*
X10064524Y-13438952D01*
X10064524Y-13438952D02*
X10045476Y-13448476D01*
X10045476Y-13448476D02*
X10026429Y-13448476D01*
X10026429Y-13448476D02*
X10007381Y-13438952D01*
X10007381Y-13438952D02*
X9997857Y-13429428D01*
X9997857Y-13429428D02*
X9988333Y-13410381D01*
X9988333Y-13410381D02*
X9978810Y-13372286D01*
X9978810Y-13372286D02*
X9978810Y-13324667D01*
X9978810Y-13324667D02*
X9988333Y-13286571D01*
X9988333Y-13286571D02*
X9997857Y-13267524D01*
X9997857Y-13267524D02*
X10007381Y-13258000D01*
X10007381Y-13258000D02*
X10026429Y-13248476D01*
X10159762Y-13248476D02*
X10283572Y-13248476D01*
X10283572Y-13248476D02*
X10216905Y-13324667D01*
X10216905Y-13324667D02*
X10245476Y-13324667D01*
X10245476Y-13324667D02*
X10264524Y-13334190D01*
X10264524Y-13334190D02*
X10274048Y-13343714D01*
X10274048Y-13343714D02*
X10283572Y-13362762D01*
X10283572Y-13362762D02*
X10283572Y-13410381D01*
X10283572Y-13410381D02*
X10274048Y-13429428D01*
X10274048Y-13429428D02*
X10264524Y-13438952D01*
X10264524Y-13438952D02*
X10245476Y-13448476D01*
X10245476Y-13448476D02*
X10188333Y-13448476D01*
X10188333Y-13448476D02*
X10169286Y-13438952D01*
X10169286Y-13438952D02*
X10159762Y-13429428D01*
X10378810Y-13448476D02*
X10416905Y-13448476D01*
X10416905Y-13448476D02*
X10435953Y-13438952D01*
X10435953Y-13438952D02*
X10445476Y-13429428D01*
X10445476Y-13429428D02*
X10464524Y-13400857D01*
X10464524Y-13400857D02*
X10474048Y-13362762D01*
X10474048Y-13362762D02*
X10474048Y-13286571D01*
X10474048Y-13286571D02*
X10464524Y-13267524D01*
X10464524Y-13267524D02*
X10455000Y-13258000D01*
X10455000Y-13258000D02*
X10435953Y-13248476D01*
X10435953Y-13248476D02*
X10397857Y-13248476D01*
X10397857Y-13248476D02*
X10378810Y-13258000D01*
X10378810Y-13258000D02*
X10369286Y-13267524D01*
X10369286Y-13267524D02*
X10359762Y-13286571D01*
X10359762Y-13286571D02*
X10359762Y-13334190D01*
X10359762Y-13334190D02*
X10369286Y-13353238D01*
X10369286Y-13353238D02*
X10378810Y-13362762D01*
X10378810Y-13362762D02*
X10397857Y-13372286D01*
X10397857Y-13372286D02*
X10435953Y-13372286D01*
X10435953Y-13372286D02*
X10455000Y-13362762D01*
X10455000Y-13362762D02*
X10464524Y-13353238D01*
X10464524Y-13353238D02*
X10474048Y-13334190D01*
X10645476Y-13315143D02*
X10645476Y-13448476D01*
X10597857Y-13238952D02*
X10550238Y-13381809D01*
X10550238Y-13381809D02*
X10674048Y-13381809D01*
X10740714Y-13248476D02*
X10740714Y-13286571D01*
X10816905Y-13248476D02*
X10816905Y-13286571D01*
X11079762Y-13524667D02*
X11070238Y-13515143D01*
X11070238Y-13515143D02*
X11051191Y-13486571D01*
X11051191Y-13486571D02*
X11041667Y-13467524D01*
X11041667Y-13467524D02*
X11032143Y-13438952D01*
X11032143Y-13438952D02*
X11022619Y-13391333D01*
X11022619Y-13391333D02*
X11022619Y-13353238D01*
X11022619Y-13353238D02*
X11032143Y-13305619D01*
X11032143Y-13305619D02*
X11041667Y-13277048D01*
X11041667Y-13277048D02*
X11051191Y-13258000D01*
X11051191Y-13258000D02*
X11070238Y-13229428D01*
X11070238Y-13229428D02*
X11079762Y-13219905D01*
X11184524Y-13334190D02*
X11165476Y-13324667D01*
X11165476Y-13324667D02*
X11155953Y-13315143D01*
X11155953Y-13315143D02*
X11146429Y-13296095D01*
X11146429Y-13296095D02*
X11146429Y-13286571D01*
X11146429Y-13286571D02*
X11155953Y-13267524D01*
X11155953Y-13267524D02*
X11165476Y-13258000D01*
X11165476Y-13258000D02*
X11184524Y-13248476D01*
X11184524Y-13248476D02*
X11222619Y-13248476D01*
X11222619Y-13248476D02*
X11241667Y-13258000D01*
X11241667Y-13258000D02*
X11251191Y-13267524D01*
X11251191Y-13267524D02*
X11260714Y-13286571D01*
X11260714Y-13286571D02*
X11260714Y-13296095D01*
X11260714Y-13296095D02*
X11251191Y-13315143D01*
X11251191Y-13315143D02*
X11241667Y-13324667D01*
X11241667Y-13324667D02*
X11222619Y-13334190D01*
X11222619Y-13334190D02*
X11184524Y-13334190D01*
X11184524Y-13334190D02*
X11165476Y-13343714D01*
X11165476Y-13343714D02*
X11155953Y-13353238D01*
X11155953Y-13353238D02*
X11146429Y-13372286D01*
X11146429Y-13372286D02*
X11146429Y-13410381D01*
X11146429Y-13410381D02*
X11155953Y-13429428D01*
X11155953Y-13429428D02*
X11165476Y-13438952D01*
X11165476Y-13438952D02*
X11184524Y-13448476D01*
X11184524Y-13448476D02*
X11222619Y-13448476D01*
X11222619Y-13448476D02*
X11241667Y-13438952D01*
X11241667Y-13438952D02*
X11251191Y-13429428D01*
X11251191Y-13429428D02*
X11260714Y-13410381D01*
X11260714Y-13410381D02*
X11260714Y-13372286D01*
X11260714Y-13372286D02*
X11251191Y-13353238D01*
X11251191Y-13353238D02*
X11241667Y-13343714D01*
X11241667Y-13343714D02*
X11222619Y-13334190D01*
X11466429Y-13448476D02*
X11466429Y-13248476D01*
X11552143Y-13448476D02*
X11552143Y-13343714D01*
X11552143Y-13343714D02*
X11542619Y-13324667D01*
X11542619Y-13324667D02*
X11523572Y-13315143D01*
X11523572Y-13315143D02*
X11495000Y-13315143D01*
X11495000Y-13315143D02*
X11475952Y-13324667D01*
X11475952Y-13324667D02*
X11466429Y-13334190D01*
X11675952Y-13448476D02*
X11656905Y-13438952D01*
X11656905Y-13438952D02*
X11647381Y-13429428D01*
X11647381Y-13429428D02*
X11637857Y-13410381D01*
X11637857Y-13410381D02*
X11637857Y-13353238D01*
X11637857Y-13353238D02*
X11647381Y-13334190D01*
X11647381Y-13334190D02*
X11656905Y-13324667D01*
X11656905Y-13324667D02*
X11675952Y-13315143D01*
X11675952Y-13315143D02*
X11704524Y-13315143D01*
X11704524Y-13315143D02*
X11723572Y-13324667D01*
X11723572Y-13324667D02*
X11733095Y-13334190D01*
X11733095Y-13334190D02*
X11742619Y-13353238D01*
X11742619Y-13353238D02*
X11742619Y-13410381D01*
X11742619Y-13410381D02*
X11733095Y-13429428D01*
X11733095Y-13429428D02*
X11723572Y-13438952D01*
X11723572Y-13438952D02*
X11704524Y-13448476D01*
X11704524Y-13448476D02*
X11675952Y-13448476D01*
X11856905Y-13448476D02*
X11837857Y-13438952D01*
X11837857Y-13438952D02*
X11828333Y-13419905D01*
X11828333Y-13419905D02*
X11828333Y-13248476D01*
X12009286Y-13438952D02*
X11990238Y-13448476D01*
X11990238Y-13448476D02*
X11952143Y-13448476D01*
X11952143Y-13448476D02*
X11933095Y-13438952D01*
X11933095Y-13438952D02*
X11923572Y-13419905D01*
X11923572Y-13419905D02*
X11923572Y-13343714D01*
X11923572Y-13343714D02*
X11933095Y-13324667D01*
X11933095Y-13324667D02*
X11952143Y-13315143D01*
X11952143Y-13315143D02*
X11990238Y-13315143D01*
X11990238Y-13315143D02*
X12009286Y-13324667D01*
X12009286Y-13324667D02*
X12018810Y-13343714D01*
X12018810Y-13343714D02*
X12018810Y-13362762D01*
X12018810Y-13362762D02*
X11923572Y-13381809D01*
X12095000Y-13438952D02*
X12114048Y-13448476D01*
X12114048Y-13448476D02*
X12152143Y-13448476D01*
X12152143Y-13448476D02*
X12171191Y-13438952D01*
X12171191Y-13438952D02*
X12180714Y-13419905D01*
X12180714Y-13419905D02*
X12180714Y-13410381D01*
X12180714Y-13410381D02*
X12171191Y-13391333D01*
X12171191Y-13391333D02*
X12152143Y-13381809D01*
X12152143Y-13381809D02*
X12123572Y-13381809D01*
X12123572Y-13381809D02*
X12104524Y-13372286D01*
X12104524Y-13372286D02*
X12095000Y-13353238D01*
X12095000Y-13353238D02*
X12095000Y-13343714D01*
X12095000Y-13343714D02*
X12104524Y-13324667D01*
X12104524Y-13324667D02*
X12123572Y-13315143D01*
X12123572Y-13315143D02*
X12152143Y-13315143D01*
X12152143Y-13315143D02*
X12171191Y-13324667D01*
X12247381Y-13524667D02*
X12256905Y-13515143D01*
X12256905Y-13515143D02*
X12275953Y-13486571D01*
X12275953Y-13486571D02*
X12285476Y-13467524D01*
X12285476Y-13467524D02*
X12295000Y-13438952D01*
X12295000Y-13438952D02*
X12304524Y-13391333D01*
X12304524Y-13391333D02*
X12304524Y-13353238D01*
X12304524Y-13353238D02*
X12295000Y-13305619D01*
X12295000Y-13305619D02*
X12285476Y-13277048D01*
X12285476Y-13277048D02*
X12275953Y-13258000D01*
X12275953Y-13258000D02*
X12256905Y-13229428D01*
X12256905Y-13229428D02*
X12247381Y-13219905D01*
D15*
X7560000Y-13694000D02*
X7615000Y-13639000D01*
X7560000Y-13584000D01*
X7505000Y-13639000D01*
X7560000Y-13694000D01*
D11*
X7967381Y-13712476D02*
X7853095Y-13712476D01*
X7910238Y-13712476D02*
X7910238Y-13512476D01*
X7910238Y-13512476D02*
X7891190Y-13541048D01*
X7891190Y-13541048D02*
X7872143Y-13560095D01*
X7872143Y-13560095D02*
X7853095Y-13569619D01*
X8053095Y-13693428D02*
X8062619Y-13702952D01*
X8062619Y-13702952D02*
X8053095Y-13712476D01*
X8053095Y-13712476D02*
X8043571Y-13702952D01*
X8043571Y-13702952D02*
X8053095Y-13693428D01*
X8053095Y-13693428D02*
X8053095Y-13712476D01*
X8253095Y-13712476D02*
X8138809Y-13712476D01*
X8195952Y-13712476D02*
X8195952Y-13512476D01*
X8195952Y-13512476D02*
X8176905Y-13541048D01*
X8176905Y-13541048D02*
X8157857Y-13560095D01*
X8157857Y-13560095D02*
X8138809Y-13569619D01*
X8376905Y-13512476D02*
X8395952Y-13512476D01*
X8395952Y-13512476D02*
X8415000Y-13522000D01*
X8415000Y-13522000D02*
X8424524Y-13531524D01*
X8424524Y-13531524D02*
X8434048Y-13550571D01*
X8434048Y-13550571D02*
X8443571Y-13588667D01*
X8443571Y-13588667D02*
X8443571Y-13636286D01*
X8443571Y-13636286D02*
X8434048Y-13674381D01*
X8434048Y-13674381D02*
X8424524Y-13693428D01*
X8424524Y-13693428D02*
X8415000Y-13702952D01*
X8415000Y-13702952D02*
X8395952Y-13712476D01*
X8395952Y-13712476D02*
X8376905Y-13712476D01*
X8376905Y-13712476D02*
X8357857Y-13702952D01*
X8357857Y-13702952D02*
X8348333Y-13693428D01*
X8348333Y-13693428D02*
X8338809Y-13674381D01*
X8338809Y-13674381D02*
X8329286Y-13636286D01*
X8329286Y-13636286D02*
X8329286Y-13588667D01*
X8329286Y-13588667D02*
X8338809Y-13550571D01*
X8338809Y-13550571D02*
X8348333Y-13531524D01*
X8348333Y-13531524D02*
X8357857Y-13522000D01*
X8357857Y-13522000D02*
X8376905Y-13512476D01*
X8567381Y-13512476D02*
X8586429Y-13512476D01*
X8586429Y-13512476D02*
X8605476Y-13522000D01*
X8605476Y-13522000D02*
X8615000Y-13531524D01*
X8615000Y-13531524D02*
X8624524Y-13550571D01*
X8624524Y-13550571D02*
X8634048Y-13588667D01*
X8634048Y-13588667D02*
X8634048Y-13636286D01*
X8634048Y-13636286D02*
X8624524Y-13674381D01*
X8624524Y-13674381D02*
X8615000Y-13693428D01*
X8615000Y-13693428D02*
X8605476Y-13702952D01*
X8605476Y-13702952D02*
X8586429Y-13712476D01*
X8586429Y-13712476D02*
X8567381Y-13712476D01*
X8567381Y-13712476D02*
X8548333Y-13702952D01*
X8548333Y-13702952D02*
X8538810Y-13693428D01*
X8538810Y-13693428D02*
X8529286Y-13674381D01*
X8529286Y-13674381D02*
X8519762Y-13636286D01*
X8519762Y-13636286D02*
X8519762Y-13588667D01*
X8519762Y-13588667D02*
X8529286Y-13550571D01*
X8529286Y-13550571D02*
X8538810Y-13531524D01*
X8538810Y-13531524D02*
X8548333Y-13522000D01*
X8548333Y-13522000D02*
X8567381Y-13512476D01*
X8719762Y-13712476D02*
X8719762Y-13579143D01*
X8719762Y-13598190D02*
X8729286Y-13588667D01*
X8729286Y-13588667D02*
X8748333Y-13579143D01*
X8748333Y-13579143D02*
X8776905Y-13579143D01*
X8776905Y-13579143D02*
X8795952Y-13588667D01*
X8795952Y-13588667D02*
X8805476Y-13607714D01*
X8805476Y-13607714D02*
X8805476Y-13712476D01*
X8805476Y-13607714D02*
X8815000Y-13588667D01*
X8815000Y-13588667D02*
X8834048Y-13579143D01*
X8834048Y-13579143D02*
X8862619Y-13579143D01*
X8862619Y-13579143D02*
X8881667Y-13588667D01*
X8881667Y-13588667D02*
X8891191Y-13607714D01*
X8891191Y-13607714D02*
X8891191Y-13712476D01*
X8986429Y-13712476D02*
X8986429Y-13579143D01*
X8986429Y-13598190D02*
X8995952Y-13588667D01*
X8995952Y-13588667D02*
X9015000Y-13579143D01*
X9015000Y-13579143D02*
X9043572Y-13579143D01*
X9043572Y-13579143D02*
X9062619Y-13588667D01*
X9062619Y-13588667D02*
X9072143Y-13607714D01*
X9072143Y-13607714D02*
X9072143Y-13712476D01*
X9072143Y-13607714D02*
X9081667Y-13588667D01*
X9081667Y-13588667D02*
X9100714Y-13579143D01*
X9100714Y-13579143D02*
X9129286Y-13579143D01*
X9129286Y-13579143D02*
X9148333Y-13588667D01*
X9148333Y-13588667D02*
X9157857Y-13607714D01*
X9157857Y-13607714D02*
X9157857Y-13712476D01*
X9515952Y-13502952D02*
X9344524Y-13760095D01*
X9740714Y-13512476D02*
X9759762Y-13512476D01*
X9759762Y-13512476D02*
X9778810Y-13522000D01*
X9778810Y-13522000D02*
X9788333Y-13531524D01*
X9788333Y-13531524D02*
X9797857Y-13550571D01*
X9797857Y-13550571D02*
X9807381Y-13588667D01*
X9807381Y-13588667D02*
X9807381Y-13636286D01*
X9807381Y-13636286D02*
X9797857Y-13674381D01*
X9797857Y-13674381D02*
X9788333Y-13693428D01*
X9788333Y-13693428D02*
X9778810Y-13702952D01*
X9778810Y-13702952D02*
X9759762Y-13712476D01*
X9759762Y-13712476D02*
X9740714Y-13712476D01*
X9740714Y-13712476D02*
X9721667Y-13702952D01*
X9721667Y-13702952D02*
X9712143Y-13693428D01*
X9712143Y-13693428D02*
X9702619Y-13674381D01*
X9702619Y-13674381D02*
X9693095Y-13636286D01*
X9693095Y-13636286D02*
X9693095Y-13588667D01*
X9693095Y-13588667D02*
X9702619Y-13550571D01*
X9702619Y-13550571D02*
X9712143Y-13531524D01*
X9712143Y-13531524D02*
X9721667Y-13522000D01*
X9721667Y-13522000D02*
X9740714Y-13512476D01*
X9893095Y-13693428D02*
X9902619Y-13702952D01*
X9902619Y-13702952D02*
X9893095Y-13712476D01*
X9893095Y-13712476D02*
X9883572Y-13702952D01*
X9883572Y-13702952D02*
X9893095Y-13693428D01*
X9893095Y-13693428D02*
X9893095Y-13712476D01*
X10026429Y-13512476D02*
X10045476Y-13512476D01*
X10045476Y-13512476D02*
X10064524Y-13522000D01*
X10064524Y-13522000D02*
X10074048Y-13531524D01*
X10074048Y-13531524D02*
X10083572Y-13550571D01*
X10083572Y-13550571D02*
X10093095Y-13588667D01*
X10093095Y-13588667D02*
X10093095Y-13636286D01*
X10093095Y-13636286D02*
X10083572Y-13674381D01*
X10083572Y-13674381D02*
X10074048Y-13693428D01*
X10074048Y-13693428D02*
X10064524Y-13702952D01*
X10064524Y-13702952D02*
X10045476Y-13712476D01*
X10045476Y-13712476D02*
X10026429Y-13712476D01*
X10026429Y-13712476D02*
X10007381Y-13702952D01*
X10007381Y-13702952D02*
X9997857Y-13693428D01*
X9997857Y-13693428D02*
X9988333Y-13674381D01*
X9988333Y-13674381D02*
X9978810Y-13636286D01*
X9978810Y-13636286D02*
X9978810Y-13588667D01*
X9978810Y-13588667D02*
X9988333Y-13550571D01*
X9988333Y-13550571D02*
X9997857Y-13531524D01*
X9997857Y-13531524D02*
X10007381Y-13522000D01*
X10007381Y-13522000D02*
X10026429Y-13512476D01*
X10264524Y-13579143D02*
X10264524Y-13712476D01*
X10216905Y-13502952D02*
X10169286Y-13645809D01*
X10169286Y-13645809D02*
X10293095Y-13645809D01*
X10350238Y-13512476D02*
X10474048Y-13512476D01*
X10474048Y-13512476D02*
X10407381Y-13588667D01*
X10407381Y-13588667D02*
X10435953Y-13588667D01*
X10435953Y-13588667D02*
X10455000Y-13598190D01*
X10455000Y-13598190D02*
X10464524Y-13607714D01*
X10464524Y-13607714D02*
X10474048Y-13626762D01*
X10474048Y-13626762D02*
X10474048Y-13674381D01*
X10474048Y-13674381D02*
X10464524Y-13693428D01*
X10464524Y-13693428D02*
X10455000Y-13702952D01*
X10455000Y-13702952D02*
X10435953Y-13712476D01*
X10435953Y-13712476D02*
X10378810Y-13712476D01*
X10378810Y-13712476D02*
X10359762Y-13702952D01*
X10359762Y-13702952D02*
X10350238Y-13693428D01*
X10540714Y-13512476D02*
X10664524Y-13512476D01*
X10664524Y-13512476D02*
X10597857Y-13588667D01*
X10597857Y-13588667D02*
X10626429Y-13588667D01*
X10626429Y-13588667D02*
X10645476Y-13598190D01*
X10645476Y-13598190D02*
X10655000Y-13607714D01*
X10655000Y-13607714D02*
X10664524Y-13626762D01*
X10664524Y-13626762D02*
X10664524Y-13674381D01*
X10664524Y-13674381D02*
X10655000Y-13693428D01*
X10655000Y-13693428D02*
X10645476Y-13702952D01*
X10645476Y-13702952D02*
X10626429Y-13712476D01*
X10626429Y-13712476D02*
X10569286Y-13712476D01*
X10569286Y-13712476D02*
X10550238Y-13702952D01*
X10550238Y-13702952D02*
X10540714Y-13693428D01*
X10740714Y-13512476D02*
X10740714Y-13550571D01*
X10816905Y-13512476D02*
X10816905Y-13550571D01*
X11079762Y-13788667D02*
X11070238Y-13779143D01*
X11070238Y-13779143D02*
X11051191Y-13750571D01*
X11051191Y-13750571D02*
X11041667Y-13731524D01*
X11041667Y-13731524D02*
X11032143Y-13702952D01*
X11032143Y-13702952D02*
X11022619Y-13655333D01*
X11022619Y-13655333D02*
X11022619Y-13617238D01*
X11022619Y-13617238D02*
X11032143Y-13569619D01*
X11032143Y-13569619D02*
X11041667Y-13541048D01*
X11041667Y-13541048D02*
X11051191Y-13522000D01*
X11051191Y-13522000D02*
X11070238Y-13493428D01*
X11070238Y-13493428D02*
X11079762Y-13483905D01*
X11241667Y-13579143D02*
X11241667Y-13712476D01*
X11194048Y-13502952D02*
X11146429Y-13645809D01*
X11146429Y-13645809D02*
X11270238Y-13645809D01*
X11466429Y-13712476D02*
X11466429Y-13512476D01*
X11552143Y-13712476D02*
X11552143Y-13607714D01*
X11552143Y-13607714D02*
X11542619Y-13588667D01*
X11542619Y-13588667D02*
X11523572Y-13579143D01*
X11523572Y-13579143D02*
X11495000Y-13579143D01*
X11495000Y-13579143D02*
X11475952Y-13588667D01*
X11475952Y-13588667D02*
X11466429Y-13598190D01*
X11675952Y-13712476D02*
X11656905Y-13702952D01*
X11656905Y-13702952D02*
X11647381Y-13693428D01*
X11647381Y-13693428D02*
X11637857Y-13674381D01*
X11637857Y-13674381D02*
X11637857Y-13617238D01*
X11637857Y-13617238D02*
X11647381Y-13598190D01*
X11647381Y-13598190D02*
X11656905Y-13588667D01*
X11656905Y-13588667D02*
X11675952Y-13579143D01*
X11675952Y-13579143D02*
X11704524Y-13579143D01*
X11704524Y-13579143D02*
X11723572Y-13588667D01*
X11723572Y-13588667D02*
X11733095Y-13598190D01*
X11733095Y-13598190D02*
X11742619Y-13617238D01*
X11742619Y-13617238D02*
X11742619Y-13674381D01*
X11742619Y-13674381D02*
X11733095Y-13693428D01*
X11733095Y-13693428D02*
X11723572Y-13702952D01*
X11723572Y-13702952D02*
X11704524Y-13712476D01*
X11704524Y-13712476D02*
X11675952Y-13712476D01*
X11856905Y-13712476D02*
X11837857Y-13702952D01*
X11837857Y-13702952D02*
X11828333Y-13683905D01*
X11828333Y-13683905D02*
X11828333Y-13512476D01*
X12009286Y-13702952D02*
X11990238Y-13712476D01*
X11990238Y-13712476D02*
X11952143Y-13712476D01*
X11952143Y-13712476D02*
X11933095Y-13702952D01*
X11933095Y-13702952D02*
X11923572Y-13683905D01*
X11923572Y-13683905D02*
X11923572Y-13607714D01*
X11923572Y-13607714D02*
X11933095Y-13588667D01*
X11933095Y-13588667D02*
X11952143Y-13579143D01*
X11952143Y-13579143D02*
X11990238Y-13579143D01*
X11990238Y-13579143D02*
X12009286Y-13588667D01*
X12009286Y-13588667D02*
X12018810Y-13607714D01*
X12018810Y-13607714D02*
X12018810Y-13626762D01*
X12018810Y-13626762D02*
X11923572Y-13645809D01*
X12095000Y-13702952D02*
X12114048Y-13712476D01*
X12114048Y-13712476D02*
X12152143Y-13712476D01*
X12152143Y-13712476D02*
X12171191Y-13702952D01*
X12171191Y-13702952D02*
X12180714Y-13683905D01*
X12180714Y-13683905D02*
X12180714Y-13674381D01*
X12180714Y-13674381D02*
X12171191Y-13655333D01*
X12171191Y-13655333D02*
X12152143Y-13645809D01*
X12152143Y-13645809D02*
X12123572Y-13645809D01*
X12123572Y-13645809D02*
X12104524Y-13636286D01*
X12104524Y-13636286D02*
X12095000Y-13617238D01*
X12095000Y-13617238D02*
X12095000Y-13607714D01*
X12095000Y-13607714D02*
X12104524Y-13588667D01*
X12104524Y-13588667D02*
X12123572Y-13579143D01*
X12123572Y-13579143D02*
X12152143Y-13579143D01*
X12152143Y-13579143D02*
X12171191Y-13588667D01*
X12247381Y-13788667D02*
X12256905Y-13779143D01*
X12256905Y-13779143D02*
X12275953Y-13750571D01*
X12275953Y-13750571D02*
X12285476Y-13731524D01*
X12285476Y-13731524D02*
X12295000Y-13702952D01*
X12295000Y-13702952D02*
X12304524Y-13655333D01*
X12304524Y-13655333D02*
X12304524Y-13617238D01*
X12304524Y-13617238D02*
X12295000Y-13569619D01*
X12295000Y-13569619D02*
X12285476Y-13541048D01*
X12285476Y-13541048D02*
X12275953Y-13522000D01*
X12275953Y-13522000D02*
X12256905Y-13493428D01*
X12256905Y-13493428D02*
X12247381Y-13483905D01*
D16*
X7465000Y-13828000D02*
X7615000Y-13978000D01*
X7615000Y-13828000D02*
X7465000Y-13978000D01*
X7615000Y-13903000D02*
G75*
G03*
X7615000Y-13903000I-75000J0D01*
G01*
D11*
X7967381Y-13976476D02*
X7853095Y-13976476D01*
X7910238Y-13976476D02*
X7910238Y-13776476D01*
X7910238Y-13776476D02*
X7891190Y-13805048D01*
X7891190Y-13805048D02*
X7872143Y-13824095D01*
X7872143Y-13824095D02*
X7853095Y-13833619D01*
X8053095Y-13957428D02*
X8062619Y-13966952D01*
X8062619Y-13966952D02*
X8053095Y-13976476D01*
X8053095Y-13976476D02*
X8043571Y-13966952D01*
X8043571Y-13966952D02*
X8053095Y-13957428D01*
X8053095Y-13957428D02*
X8053095Y-13976476D01*
X8243571Y-13776476D02*
X8148333Y-13776476D01*
X8148333Y-13776476D02*
X8138809Y-13871714D01*
X8138809Y-13871714D02*
X8148333Y-13862190D01*
X8148333Y-13862190D02*
X8167381Y-13852667D01*
X8167381Y-13852667D02*
X8215000Y-13852667D01*
X8215000Y-13852667D02*
X8234048Y-13862190D01*
X8234048Y-13862190D02*
X8243571Y-13871714D01*
X8243571Y-13871714D02*
X8253095Y-13890762D01*
X8253095Y-13890762D02*
X8253095Y-13938381D01*
X8253095Y-13938381D02*
X8243571Y-13957428D01*
X8243571Y-13957428D02*
X8234048Y-13966952D01*
X8234048Y-13966952D02*
X8215000Y-13976476D01*
X8215000Y-13976476D02*
X8167381Y-13976476D01*
X8167381Y-13976476D02*
X8148333Y-13966952D01*
X8148333Y-13966952D02*
X8138809Y-13957428D01*
X8376905Y-13776476D02*
X8395952Y-13776476D01*
X8395952Y-13776476D02*
X8415000Y-13786000D01*
X8415000Y-13786000D02*
X8424524Y-13795524D01*
X8424524Y-13795524D02*
X8434048Y-13814571D01*
X8434048Y-13814571D02*
X8443571Y-13852667D01*
X8443571Y-13852667D02*
X8443571Y-13900286D01*
X8443571Y-13900286D02*
X8434048Y-13938381D01*
X8434048Y-13938381D02*
X8424524Y-13957428D01*
X8424524Y-13957428D02*
X8415000Y-13966952D01*
X8415000Y-13966952D02*
X8395952Y-13976476D01*
X8395952Y-13976476D02*
X8376905Y-13976476D01*
X8376905Y-13976476D02*
X8357857Y-13966952D01*
X8357857Y-13966952D02*
X8348333Y-13957428D01*
X8348333Y-13957428D02*
X8338809Y-13938381D01*
X8338809Y-13938381D02*
X8329286Y-13900286D01*
X8329286Y-13900286D02*
X8329286Y-13852667D01*
X8329286Y-13852667D02*
X8338809Y-13814571D01*
X8338809Y-13814571D02*
X8348333Y-13795524D01*
X8348333Y-13795524D02*
X8357857Y-13786000D01*
X8357857Y-13786000D02*
X8376905Y-13776476D01*
X8567381Y-13776476D02*
X8586429Y-13776476D01*
X8586429Y-13776476D02*
X8605476Y-13786000D01*
X8605476Y-13786000D02*
X8615000Y-13795524D01*
X8615000Y-13795524D02*
X8624524Y-13814571D01*
X8624524Y-13814571D02*
X8634048Y-13852667D01*
X8634048Y-13852667D02*
X8634048Y-13900286D01*
X8634048Y-13900286D02*
X8624524Y-13938381D01*
X8624524Y-13938381D02*
X8615000Y-13957428D01*
X8615000Y-13957428D02*
X8605476Y-13966952D01*
X8605476Y-13966952D02*
X8586429Y-13976476D01*
X8586429Y-13976476D02*
X8567381Y-13976476D01*
X8567381Y-13976476D02*
X8548333Y-13966952D01*
X8548333Y-13966952D02*
X8538810Y-13957428D01*
X8538810Y-13957428D02*
X8529286Y-13938381D01*
X8529286Y-13938381D02*
X8519762Y-13900286D01*
X8519762Y-13900286D02*
X8519762Y-13852667D01*
X8519762Y-13852667D02*
X8529286Y-13814571D01*
X8529286Y-13814571D02*
X8538810Y-13795524D01*
X8538810Y-13795524D02*
X8548333Y-13786000D01*
X8548333Y-13786000D02*
X8567381Y-13776476D01*
X8719762Y-13976476D02*
X8719762Y-13843143D01*
X8719762Y-13862190D02*
X8729286Y-13852667D01*
X8729286Y-13852667D02*
X8748333Y-13843143D01*
X8748333Y-13843143D02*
X8776905Y-13843143D01*
X8776905Y-13843143D02*
X8795952Y-13852667D01*
X8795952Y-13852667D02*
X8805476Y-13871714D01*
X8805476Y-13871714D02*
X8805476Y-13976476D01*
X8805476Y-13871714D02*
X8815000Y-13852667D01*
X8815000Y-13852667D02*
X8834048Y-13843143D01*
X8834048Y-13843143D02*
X8862619Y-13843143D01*
X8862619Y-13843143D02*
X8881667Y-13852667D01*
X8881667Y-13852667D02*
X8891191Y-13871714D01*
X8891191Y-13871714D02*
X8891191Y-13976476D01*
X8986429Y-13976476D02*
X8986429Y-13843143D01*
X8986429Y-13862190D02*
X8995952Y-13852667D01*
X8995952Y-13852667D02*
X9015000Y-13843143D01*
X9015000Y-13843143D02*
X9043572Y-13843143D01*
X9043572Y-13843143D02*
X9062619Y-13852667D01*
X9062619Y-13852667D02*
X9072143Y-13871714D01*
X9072143Y-13871714D02*
X9072143Y-13976476D01*
X9072143Y-13871714D02*
X9081667Y-13852667D01*
X9081667Y-13852667D02*
X9100714Y-13843143D01*
X9100714Y-13843143D02*
X9129286Y-13843143D01*
X9129286Y-13843143D02*
X9148333Y-13852667D01*
X9148333Y-13852667D02*
X9157857Y-13871714D01*
X9157857Y-13871714D02*
X9157857Y-13976476D01*
X9515952Y-13766952D02*
X9344524Y-14024095D01*
X9740714Y-13776476D02*
X9759762Y-13776476D01*
X9759762Y-13776476D02*
X9778810Y-13786000D01*
X9778810Y-13786000D02*
X9788333Y-13795524D01*
X9788333Y-13795524D02*
X9797857Y-13814571D01*
X9797857Y-13814571D02*
X9807381Y-13852667D01*
X9807381Y-13852667D02*
X9807381Y-13900286D01*
X9807381Y-13900286D02*
X9797857Y-13938381D01*
X9797857Y-13938381D02*
X9788333Y-13957428D01*
X9788333Y-13957428D02*
X9778810Y-13966952D01*
X9778810Y-13966952D02*
X9759762Y-13976476D01*
X9759762Y-13976476D02*
X9740714Y-13976476D01*
X9740714Y-13976476D02*
X9721667Y-13966952D01*
X9721667Y-13966952D02*
X9712143Y-13957428D01*
X9712143Y-13957428D02*
X9702619Y-13938381D01*
X9702619Y-13938381D02*
X9693095Y-13900286D01*
X9693095Y-13900286D02*
X9693095Y-13852667D01*
X9693095Y-13852667D02*
X9702619Y-13814571D01*
X9702619Y-13814571D02*
X9712143Y-13795524D01*
X9712143Y-13795524D02*
X9721667Y-13786000D01*
X9721667Y-13786000D02*
X9740714Y-13776476D01*
X9893095Y-13957428D02*
X9902619Y-13966952D01*
X9902619Y-13966952D02*
X9893095Y-13976476D01*
X9893095Y-13976476D02*
X9883572Y-13966952D01*
X9883572Y-13966952D02*
X9893095Y-13957428D01*
X9893095Y-13957428D02*
X9893095Y-13976476D01*
X10026429Y-13776476D02*
X10045476Y-13776476D01*
X10045476Y-13776476D02*
X10064524Y-13786000D01*
X10064524Y-13786000D02*
X10074048Y-13795524D01*
X10074048Y-13795524D02*
X10083572Y-13814571D01*
X10083572Y-13814571D02*
X10093095Y-13852667D01*
X10093095Y-13852667D02*
X10093095Y-13900286D01*
X10093095Y-13900286D02*
X10083572Y-13938381D01*
X10083572Y-13938381D02*
X10074048Y-13957428D01*
X10074048Y-13957428D02*
X10064524Y-13966952D01*
X10064524Y-13966952D02*
X10045476Y-13976476D01*
X10045476Y-13976476D02*
X10026429Y-13976476D01*
X10026429Y-13976476D02*
X10007381Y-13966952D01*
X10007381Y-13966952D02*
X9997857Y-13957428D01*
X9997857Y-13957428D02*
X9988333Y-13938381D01*
X9988333Y-13938381D02*
X9978810Y-13900286D01*
X9978810Y-13900286D02*
X9978810Y-13852667D01*
X9978810Y-13852667D02*
X9988333Y-13814571D01*
X9988333Y-13814571D02*
X9997857Y-13795524D01*
X9997857Y-13795524D02*
X10007381Y-13786000D01*
X10007381Y-13786000D02*
X10026429Y-13776476D01*
X10274048Y-13776476D02*
X10178810Y-13776476D01*
X10178810Y-13776476D02*
X10169286Y-13871714D01*
X10169286Y-13871714D02*
X10178810Y-13862190D01*
X10178810Y-13862190D02*
X10197857Y-13852667D01*
X10197857Y-13852667D02*
X10245476Y-13852667D01*
X10245476Y-13852667D02*
X10264524Y-13862190D01*
X10264524Y-13862190D02*
X10274048Y-13871714D01*
X10274048Y-13871714D02*
X10283572Y-13890762D01*
X10283572Y-13890762D02*
X10283572Y-13938381D01*
X10283572Y-13938381D02*
X10274048Y-13957428D01*
X10274048Y-13957428D02*
X10264524Y-13966952D01*
X10264524Y-13966952D02*
X10245476Y-13976476D01*
X10245476Y-13976476D02*
X10197857Y-13976476D01*
X10197857Y-13976476D02*
X10178810Y-13966952D01*
X10178810Y-13966952D02*
X10169286Y-13957428D01*
X10378810Y-13976476D02*
X10416905Y-13976476D01*
X10416905Y-13976476D02*
X10435953Y-13966952D01*
X10435953Y-13966952D02*
X10445476Y-13957428D01*
X10445476Y-13957428D02*
X10464524Y-13928857D01*
X10464524Y-13928857D02*
X10474048Y-13890762D01*
X10474048Y-13890762D02*
X10474048Y-13814571D01*
X10474048Y-13814571D02*
X10464524Y-13795524D01*
X10464524Y-13795524D02*
X10455000Y-13786000D01*
X10455000Y-13786000D02*
X10435953Y-13776476D01*
X10435953Y-13776476D02*
X10397857Y-13776476D01*
X10397857Y-13776476D02*
X10378810Y-13786000D01*
X10378810Y-13786000D02*
X10369286Y-13795524D01*
X10369286Y-13795524D02*
X10359762Y-13814571D01*
X10359762Y-13814571D02*
X10359762Y-13862190D01*
X10359762Y-13862190D02*
X10369286Y-13881238D01*
X10369286Y-13881238D02*
X10378810Y-13890762D01*
X10378810Y-13890762D02*
X10397857Y-13900286D01*
X10397857Y-13900286D02*
X10435953Y-13900286D01*
X10435953Y-13900286D02*
X10455000Y-13890762D01*
X10455000Y-13890762D02*
X10464524Y-13881238D01*
X10464524Y-13881238D02*
X10474048Y-13862190D01*
X10664524Y-13976476D02*
X10550238Y-13976476D01*
X10607381Y-13976476D02*
X10607381Y-13776476D01*
X10607381Y-13776476D02*
X10588333Y-13805048D01*
X10588333Y-13805048D02*
X10569286Y-13824095D01*
X10569286Y-13824095D02*
X10550238Y-13833619D01*
X10740714Y-13776476D02*
X10740714Y-13814571D01*
X10816905Y-13776476D02*
X10816905Y-13814571D01*
X11079762Y-14052667D02*
X11070238Y-14043143D01*
X11070238Y-14043143D02*
X11051191Y-14014571D01*
X11051191Y-14014571D02*
X11041667Y-13995524D01*
X11041667Y-13995524D02*
X11032143Y-13966952D01*
X11032143Y-13966952D02*
X11022619Y-13919333D01*
X11022619Y-13919333D02*
X11022619Y-13881238D01*
X11022619Y-13881238D02*
X11032143Y-13833619D01*
X11032143Y-13833619D02*
X11041667Y-13805048D01*
X11041667Y-13805048D02*
X11051191Y-13786000D01*
X11051191Y-13786000D02*
X11070238Y-13757428D01*
X11070238Y-13757428D02*
X11079762Y-13747905D01*
X11146429Y-13795524D02*
X11155953Y-13786000D01*
X11155953Y-13786000D02*
X11175000Y-13776476D01*
X11175000Y-13776476D02*
X11222619Y-13776476D01*
X11222619Y-13776476D02*
X11241667Y-13786000D01*
X11241667Y-13786000D02*
X11251191Y-13795524D01*
X11251191Y-13795524D02*
X11260714Y-13814571D01*
X11260714Y-13814571D02*
X11260714Y-13833619D01*
X11260714Y-13833619D02*
X11251191Y-13862190D01*
X11251191Y-13862190D02*
X11136905Y-13976476D01*
X11136905Y-13976476D02*
X11260714Y-13976476D01*
X11466429Y-13976476D02*
X11466429Y-13776476D01*
X11552143Y-13976476D02*
X11552143Y-13871714D01*
X11552143Y-13871714D02*
X11542619Y-13852667D01*
X11542619Y-13852667D02*
X11523572Y-13843143D01*
X11523572Y-13843143D02*
X11495000Y-13843143D01*
X11495000Y-13843143D02*
X11475952Y-13852667D01*
X11475952Y-13852667D02*
X11466429Y-13862190D01*
X11675952Y-13976476D02*
X11656905Y-13966952D01*
X11656905Y-13966952D02*
X11647381Y-13957428D01*
X11647381Y-13957428D02*
X11637857Y-13938381D01*
X11637857Y-13938381D02*
X11637857Y-13881238D01*
X11637857Y-13881238D02*
X11647381Y-13862190D01*
X11647381Y-13862190D02*
X11656905Y-13852667D01*
X11656905Y-13852667D02*
X11675952Y-13843143D01*
X11675952Y-13843143D02*
X11704524Y-13843143D01*
X11704524Y-13843143D02*
X11723572Y-13852667D01*
X11723572Y-13852667D02*
X11733095Y-13862190D01*
X11733095Y-13862190D02*
X11742619Y-13881238D01*
X11742619Y-13881238D02*
X11742619Y-13938381D01*
X11742619Y-13938381D02*
X11733095Y-13957428D01*
X11733095Y-13957428D02*
X11723572Y-13966952D01*
X11723572Y-13966952D02*
X11704524Y-13976476D01*
X11704524Y-13976476D02*
X11675952Y-13976476D01*
X11856905Y-13976476D02*
X11837857Y-13966952D01*
X11837857Y-13966952D02*
X11828333Y-13947905D01*
X11828333Y-13947905D02*
X11828333Y-13776476D01*
X12009286Y-13966952D02*
X11990238Y-13976476D01*
X11990238Y-13976476D02*
X11952143Y-13976476D01*
X11952143Y-13976476D02*
X11933095Y-13966952D01*
X11933095Y-13966952D02*
X11923572Y-13947905D01*
X11923572Y-13947905D02*
X11923572Y-13871714D01*
X11923572Y-13871714D02*
X11933095Y-13852667D01*
X11933095Y-13852667D02*
X11952143Y-13843143D01*
X11952143Y-13843143D02*
X11990238Y-13843143D01*
X11990238Y-13843143D02*
X12009286Y-13852667D01*
X12009286Y-13852667D02*
X12018810Y-13871714D01*
X12018810Y-13871714D02*
X12018810Y-13890762D01*
X12018810Y-13890762D02*
X11923572Y-13909809D01*
X12095000Y-13966952D02*
X12114048Y-13976476D01*
X12114048Y-13976476D02*
X12152143Y-13976476D01*
X12152143Y-13976476D02*
X12171191Y-13966952D01*
X12171191Y-13966952D02*
X12180714Y-13947905D01*
X12180714Y-13947905D02*
X12180714Y-13938381D01*
X12180714Y-13938381D02*
X12171191Y-13919333D01*
X12171191Y-13919333D02*
X12152143Y-13909809D01*
X12152143Y-13909809D02*
X12123572Y-13909809D01*
X12123572Y-13909809D02*
X12104524Y-13900286D01*
X12104524Y-13900286D02*
X12095000Y-13881238D01*
X12095000Y-13881238D02*
X12095000Y-13871714D01*
X12095000Y-13871714D02*
X12104524Y-13852667D01*
X12104524Y-13852667D02*
X12123572Y-13843143D01*
X12123572Y-13843143D02*
X12152143Y-13843143D01*
X12152143Y-13843143D02*
X12171191Y-13852667D01*
X12247381Y-14052667D02*
X12256905Y-14043143D01*
X12256905Y-14043143D02*
X12275953Y-14014571D01*
X12275953Y-14014571D02*
X12285476Y-13995524D01*
X12285476Y-13995524D02*
X12295000Y-13966952D01*
X12295000Y-13966952D02*
X12304524Y-13919333D01*
X12304524Y-13919333D02*
X12304524Y-13881238D01*
X12304524Y-13881238D02*
X12295000Y-13833619D01*
X12295000Y-13833619D02*
X12285476Y-13805048D01*
X12285476Y-13805048D02*
X12275953Y-13786000D01*
X12275953Y-13786000D02*
X12256905Y-13757428D01*
X12256905Y-13757428D02*
X12247381Y-13747905D01*
M02*
