%TF.GenerationSoftware,KiCad,Pcbnew,(7.0.0)*%
%TF.CreationDate,2023-03-05T21:28:25-05:00*%
%TF.ProjectId,8bc_ir,3862635f-6972-42e6-9b69-6361645f7063,rev?*%
%TF.SameCoordinates,Original*%
%TF.FileFunction,Copper,L1,Top*%
%TF.FilePolarity,Positive*%
%FSLAX46Y46*%
G04 Gerber Fmt 4.6, Leading zero omitted, Abs format (unit mm)*
G04 Created by KiCad (PCBNEW (7.0.0)) date 2023-03-05 21:28:25*
%MOMM*%
%LPD*%
G01*
G04 APERTURE LIST*
%TA.AperFunction,ComponentPad*%
%ADD10R,1.600000X1.600000*%
%TD*%
%TA.AperFunction,ComponentPad*%
%ADD11O,1.600000X1.600000*%
%TD*%
%TA.AperFunction,ComponentPad*%
%ADD12R,1.700000X1.700000*%
%TD*%
%TA.AperFunction,ComponentPad*%
%ADD13O,1.700000X1.700000*%
%TD*%
%TA.AperFunction,ComponentPad*%
%ADD14R,1.800000X1.800000*%
%TD*%
%TA.AperFunction,ComponentPad*%
%ADD15C,1.800000*%
%TD*%
%TA.AperFunction,ViaPad*%
%ADD16C,0.800000*%
%TD*%
%TA.AperFunction,Conductor*%
%ADD17C,0.250000*%
%TD*%
G04 APERTURE END LIST*
D10*
%TO.P,U3,1,Oe1*%
%TO.N,/GND*%
X156199999Y-66039999D03*
D11*
%TO.P,U3,2,Oe2*%
X156199999Y-63499999D03*
%TO.P,U3,3,Q0*%
%TO.N,Net-(D5-A)*%
X156199999Y-60959999D03*
%TO.P,U3,4,Q1*%
%TO.N,Net-(D6-A)*%
X156199999Y-58419999D03*
%TO.P,U3,5,Q2*%
%TO.N,Net-(D7-A)*%
X156199999Y-55879999D03*
%TO.P,U3,6,Q3*%
%TO.N,Net-(D8-A)*%
X156199999Y-53339999D03*
%TO.P,U3,7,Cp*%
%TO.N,/CLK*%
X156199999Y-50799999D03*
%TO.P,U3,8,GND*%
%TO.N,/GND*%
X156199999Y-48259999D03*
%TO.P,U3,9,E1*%
%TO.N,/~{II}*%
X148579999Y-48259999D03*
%TO.P,U3,10,E2*%
X148579999Y-50799999D03*
%TO.P,U3,11,D3*%
%TO.N,/BUS_0*%
X148579999Y-53339999D03*
%TO.P,U3,12,D2*%
%TO.N,/BUS_1*%
X148579999Y-55879999D03*
%TO.P,U3,13,D1*%
%TO.N,/BUS_2*%
X148579999Y-58419999D03*
%TO.P,U3,14,D0*%
%TO.N,/BUS_3*%
X148579999Y-60959999D03*
%TO.P,U3,15,Mr*%
%TO.N,/CLR*%
X148579999Y-63499999D03*
%TO.P,U3,16,VCC*%
%TO.N,/VCC*%
X148579999Y-66039999D03*
%TD*%
D10*
%TO.P,U2,1,Oe1*%
%TO.N,/GND*%
X129539999Y-66039999D03*
D11*
%TO.P,U2,2,Oe2*%
X129539999Y-63499999D03*
%TO.P,U2,3,Q0*%
%TO.N,/IR_7*%
X129539999Y-60959999D03*
%TO.P,U2,4,Q1*%
%TO.N,/IR_6*%
X129539999Y-58419999D03*
%TO.P,U2,5,Q2*%
%TO.N,/IR_5*%
X129539999Y-55879999D03*
%TO.P,U2,6,Q3*%
%TO.N,/IR_4*%
X129539999Y-53339999D03*
%TO.P,U2,7,Cp*%
%TO.N,/CLK*%
X129539999Y-50799999D03*
%TO.P,U2,8,GND*%
%TO.N,/GND*%
X129539999Y-48259999D03*
%TO.P,U2,9,E1*%
%TO.N,/~{II}*%
X121919999Y-48259999D03*
%TO.P,U2,10,E2*%
X121919999Y-50799999D03*
%TO.P,U2,11,D3*%
%TO.N,/BUS_4*%
X121919999Y-53339999D03*
%TO.P,U2,12,D2*%
%TO.N,/BUS_5*%
X121919999Y-55879999D03*
%TO.P,U2,13,D1*%
%TO.N,/BUS_6*%
X121919999Y-58419999D03*
%TO.P,U2,14,D0*%
%TO.N,/BUS_7*%
X121919999Y-60959999D03*
%TO.P,U2,15,Mr*%
%TO.N,/CLR*%
X121919999Y-63499999D03*
%TO.P,U2,16,VCC*%
%TO.N,/VCC*%
X121919999Y-66039999D03*
%TD*%
D10*
%TO.P,U1,1,A->B*%
%TO.N,/VCC*%
X185419999Y-68579999D03*
D11*
%TO.P,U1,2,A0*%
%TO.N,unconnected-(U1-A0-Pad2)*%
X185419999Y-66039999D03*
%TO.P,U1,3,A1*%
%TO.N,unconnected-(U1-A1-Pad3)*%
X185419999Y-63499999D03*
%TO.P,U1,4,A2*%
%TO.N,unconnected-(U1-A2-Pad4)*%
X185419999Y-60959999D03*
%TO.P,U1,5,A3*%
%TO.N,unconnected-(U1-A3-Pad5)*%
X185419999Y-58419999D03*
%TO.P,U1,6,A4*%
%TO.N,Net-(D5-A)*%
X185419999Y-55879999D03*
%TO.P,U1,7,A5*%
%TO.N,Net-(D6-A)*%
X185419999Y-53339999D03*
%TO.P,U1,8,A6*%
%TO.N,Net-(D7-A)*%
X185419999Y-50799999D03*
%TO.P,U1,9,A7*%
%TO.N,Net-(D8-A)*%
X185419999Y-48259999D03*
%TO.P,U1,10,GND*%
%TO.N,/GND*%
X185419999Y-45719999D03*
%TO.P,U1,11,B7*%
%TO.N,/BUS_0*%
X177799999Y-45719999D03*
%TO.P,U1,12,B6*%
%TO.N,/BUS_1*%
X177799999Y-48259999D03*
%TO.P,U1,13,B5*%
%TO.N,/BUS_2*%
X177799999Y-50799999D03*
%TO.P,U1,14,B4*%
%TO.N,/BUS_3*%
X177799999Y-53339999D03*
%TO.P,U1,15,B3*%
%TO.N,/BUS_4*%
X177799999Y-55879999D03*
%TO.P,U1,16,B2*%
%TO.N,/BUS_5*%
X177799999Y-58419999D03*
%TO.P,U1,17,B1*%
%TO.N,/BUS_6*%
X177799999Y-60959999D03*
%TO.P,U1,18,B0*%
%TO.N,/BUS_7*%
X177799999Y-63499999D03*
%TO.P,U1,19,CE*%
%TO.N,/~{IO}*%
X177799999Y-66039999D03*
%TO.P,U1,20,VCC*%
%TO.N,/VCC*%
X177799999Y-68579999D03*
%TD*%
D10*
%TO.P,RN1,1,common*%
%TO.N,/GND*%
X160019999Y-88899999D03*
D11*
%TO.P,RN1,2,R1*%
%TO.N,Net-(D8-K)*%
X157479999Y-88899999D03*
%TO.P,RN1,3,R2*%
%TO.N,Net-(D7-K)*%
X154939999Y-88899999D03*
%TO.P,RN1,4,R3*%
%TO.N,Net-(D6-K)*%
X152399999Y-88899999D03*
%TO.P,RN1,5,R4*%
%TO.N,Net-(D5-K)*%
X149859999Y-88899999D03*
%TO.P,RN1,6,R5*%
%TO.N,Net-(D4-K)*%
X147319999Y-88899999D03*
%TO.P,RN1,7,R6*%
%TO.N,Net-(D3-K)*%
X144779999Y-88899999D03*
%TO.P,RN1,8,R7*%
%TO.N,Net-(D2-K)*%
X142239999Y-88899999D03*
%TO.P,RN1,9,R8*%
%TO.N,Net-(D1-K)*%
X139699999Y-88899999D03*
%TD*%
D12*
%TO.P,J3,1,Pin_1*%
%TO.N,/IR_4*%
X137159999Y-53339999D03*
D13*
%TO.P,J3,2,Pin_2*%
%TO.N,/IR_5*%
X137159999Y-55879999D03*
%TO.P,J3,3,Pin_3*%
%TO.N,/IR_6*%
X137159999Y-58419999D03*
%TO.P,J3,4,Pin_4*%
%TO.N,/IR_7*%
X137159999Y-60959999D03*
%TD*%
%TO.P,J2,6,Pin_6*%
%TO.N,/CLR*%
X190499999Y-88899999D03*
%TO.P,J2,5,Pin_5*%
%TO.N,/CLK*%
X190499999Y-86359999D03*
%TO.P,J2,4,Pin_4*%
%TO.N,/~{IO}*%
X190499999Y-83819999D03*
%TO.P,J2,3,Pin_3*%
%TO.N,/~{II}*%
X190499999Y-81279999D03*
%TO.P,J2,2,Pin_2*%
%TO.N,/GND*%
X190499999Y-78739999D03*
D12*
%TO.P,J2,1,Pin_1*%
%TO.N,/VCC*%
X190499999Y-76199999D03*
%TD*%
%TO.P,J1,1,Pin_1*%
%TO.N,/BUS_0*%
X165099999Y-48259999D03*
D13*
%TO.P,J1,2,Pin_2*%
%TO.N,/BUS_1*%
X165099999Y-50799999D03*
%TO.P,J1,3,Pin_3*%
%TO.N,/BUS_2*%
X165099999Y-53339999D03*
%TO.P,J1,4,Pin_4*%
%TO.N,/BUS_3*%
X165099999Y-55879999D03*
%TO.P,J1,5,Pin_5*%
%TO.N,/BUS_4*%
X165099999Y-58419999D03*
%TO.P,J1,6,Pin_6*%
%TO.N,/BUS_5*%
X165099999Y-60959999D03*
%TO.P,J1,7,Pin_7*%
%TO.N,/BUS_6*%
X165099999Y-63499999D03*
%TO.P,J1,8,Pin_8*%
%TO.N,/BUS_7*%
X165099999Y-66039999D03*
%TD*%
D14*
%TO.P,D8,1,K*%
%TO.N,Net-(D8-K)*%
X180339999Y-81279999D03*
D15*
%TO.P,D8,2,A*%
%TO.N,Net-(D8-A)*%
X180340000Y-78740000D03*
%TD*%
D14*
%TO.P,D7,1,K*%
%TO.N,Net-(D7-K)*%
X170179999Y-81279999D03*
D15*
%TO.P,D7,2,A*%
%TO.N,Net-(D7-A)*%
X170180000Y-78740000D03*
%TD*%
D14*
%TO.P,D6,1,K*%
%TO.N,Net-(D6-K)*%
X160019999Y-81279999D03*
D15*
%TO.P,D6,2,A*%
%TO.N,Net-(D6-A)*%
X160020000Y-78740000D03*
%TD*%
D14*
%TO.P,D5,1,K*%
%TO.N,Net-(D5-K)*%
X149859999Y-81279999D03*
D15*
%TO.P,D5,2,A*%
%TO.N,Net-(D5-A)*%
X149860000Y-78740000D03*
%TD*%
D14*
%TO.P,D4,1,K*%
%TO.N,Net-(D4-K)*%
X139699999Y-81279999D03*
D15*
%TO.P,D4,2,A*%
%TO.N,/IR_4*%
X139700000Y-78740000D03*
%TD*%
D14*
%TO.P,D3,1,K*%
%TO.N,Net-(D3-K)*%
X129539999Y-81279999D03*
D15*
%TO.P,D3,2,A*%
%TO.N,/IR_5*%
X129540000Y-78740000D03*
%TD*%
D14*
%TO.P,D2,1,K*%
%TO.N,Net-(D2-K)*%
X119379999Y-81279999D03*
D15*
%TO.P,D2,2,A*%
%TO.N,/IR_6*%
X119380000Y-78740000D03*
%TD*%
D14*
%TO.P,D1,1,K*%
%TO.N,Net-(D1-K)*%
X109219999Y-81279999D03*
D15*
%TO.P,D1,2,A*%
%TO.N,/IR_7*%
X109220000Y-78740000D03*
%TD*%
D16*
%TO.N,/BUS_7*%
X180340000Y-63500000D03*
X180340000Y-48260000D03*
%TO.N,/BUS_5*%
X159827951Y-61152049D03*
X161403371Y-62859500D03*
X159946851Y-63573150D03*
%TO.N,/BUS_4*%
X154800497Y-60960000D03*
X141515500Y-53340000D03*
%TO.N,/BUS_3*%
X163284500Y-68580000D03*
X163559503Y-62859500D03*
%TO.N,/BUS_2*%
X157578011Y-61204310D03*
X160020000Y-58420000D03*
%TO.N,/BUS_1*%
X158204500Y-52850902D03*
%TO.N,/BUS_0*%
X149979503Y-50800000D03*
%TO.N,Net-(D7-A)*%
X162560000Y-62859500D03*
X158204500Y-55390902D03*
%TO.N,Net-(D5-A)*%
X152400000Y-68580000D03*
%TD*%
D17*
%TO.N,/BUS_7*%
X180340000Y-48260000D02*
X180340000Y-63500000D01*
%TO.N,/BUS_6*%
X178925000Y-62085000D02*
X177800000Y-60960000D01*
X178265991Y-64625000D02*
X178925000Y-63965991D01*
X178925000Y-63965991D02*
X178925000Y-62085000D01*
X177334009Y-64625000D02*
X178265991Y-64625000D01*
X175469009Y-66490000D02*
X177334009Y-64625000D01*
X175469009Y-70640710D02*
X175469009Y-66490000D01*
X190013299Y-85185000D02*
X175469009Y-70640710D01*
X190986701Y-85185000D02*
X190013299Y-85185000D01*
X191675000Y-85873299D02*
X190986701Y-85185000D01*
X191675000Y-86846701D02*
X191675000Y-85873299D01*
X190986701Y-87535000D02*
X191675000Y-86846701D01*
X163584805Y-69305000D02*
X181814805Y-87535000D01*
X156288604Y-69305000D02*
X163584805Y-69305000D01*
X149068604Y-62085000D02*
X156288604Y-69305000D01*
X181814805Y-87535000D02*
X190986701Y-87535000D01*
X147808604Y-62085000D02*
X149068604Y-62085000D01*
X145318604Y-59595000D02*
X147808604Y-62085000D01*
X123095000Y-59595000D02*
X145318604Y-59595000D01*
X121920000Y-58420000D02*
X123095000Y-59595000D01*
%TO.N,/BUS_5*%
X161403371Y-62859500D02*
X161403371Y-62727469D01*
X161403371Y-62727469D02*
X159827951Y-61152049D01*
X158870952Y-64649049D02*
X159946851Y-63573150D01*
X154172653Y-64649049D02*
X158870952Y-64649049D01*
X149358604Y-59835000D02*
X154172653Y-64649049D01*
X146195000Y-59835000D02*
X149358604Y-59835000D01*
X143605000Y-57245000D02*
X146195000Y-59835000D01*
X123285000Y-57245000D02*
X143605000Y-57245000D01*
X121920000Y-55880000D02*
X123285000Y-57245000D01*
%TO.N,/BUS_4*%
X151135497Y-57295000D02*
X154800497Y-60960000D01*
X147455000Y-57954009D02*
X148114009Y-57295000D01*
X148114009Y-57295000D02*
X151135497Y-57295000D01*
X141515500Y-53340000D02*
X147455000Y-59279500D01*
X147455000Y-59279500D02*
X147455000Y-57954009D01*
%TO.N,/BUS_3*%
X163284500Y-68580000D02*
X156200000Y-68580000D01*
X163559503Y-57420497D02*
X163559503Y-62859500D01*
X156200000Y-68580000D02*
X148580000Y-60960000D01*
X165100000Y-55880000D02*
X163559503Y-57420497D01*
%TO.N,/BUS_2*%
X157578011Y-61204310D02*
X156697321Y-62085000D01*
X156697321Y-62085000D02*
X152245000Y-62085000D01*
X165100000Y-53340000D02*
X160020000Y-58420000D01*
X152245000Y-62085000D02*
X148580000Y-58420000D01*
%TO.N,/BUS_1*%
X160255402Y-50800000D02*
X158204500Y-52850902D01*
X165100000Y-50800000D02*
X160255402Y-50800000D01*
%TO.N,/BUS_0*%
X151394503Y-49385000D02*
X149979503Y-50800000D01*
X163975000Y-49385000D02*
X151394503Y-49385000D01*
X165100000Y-48260000D02*
X163975000Y-49385000D01*
%TO.N,Net-(D7-A)*%
X157930000Y-58229500D02*
X157930000Y-55665402D01*
X157930000Y-55665402D02*
X158204500Y-55390902D01*
X162560000Y-62859500D02*
X157930000Y-58229500D01*
%TO.N,Net-(D5-A)*%
X152400000Y-76200000D02*
X152400000Y-68580000D01*
X149860000Y-78740000D02*
X152400000Y-76200000D01*
%TO.N,/CLR*%
X123045000Y-64625000D02*
X121920000Y-63500000D01*
X147455000Y-64625000D02*
X123045000Y-64625000D01*
X148580000Y-63500000D02*
X147455000Y-64625000D01*
X173980000Y-88900000D02*
X148580000Y-63500000D01*
X190500000Y-88900000D02*
X173980000Y-88900000D01*
%TO.N,/IR_7*%
X137160000Y-60960000D02*
X129540000Y-60960000D01*
%TO.N,/IR_6*%
X129540000Y-58420000D02*
X137160000Y-58420000D01*
%TO.N,/IR_5*%
X137160000Y-55880000D02*
X129540000Y-55880000D01*
%TO.N,/IR_4*%
X137160000Y-53340000D02*
X129540000Y-53340000D01*
%TO.N,/CLK*%
X156200000Y-50800000D02*
X155075000Y-51925000D01*
X155075000Y-51925000D02*
X130665000Y-51925000D01*
X130665000Y-51925000D02*
X129540000Y-50800000D01*
X157480000Y-52080000D02*
X156200000Y-50800000D01*
X157480000Y-60081701D02*
X157480000Y-52080000D01*
X164613299Y-67215000D02*
X157480000Y-60081701D01*
X171355000Y-67215000D02*
X164613299Y-67215000D01*
X190500000Y-86360000D02*
X171355000Y-67215000D01*
%TO.N,/~{IO}*%
X189325000Y-82645000D02*
X190500000Y-83820000D01*
X189325000Y-77565000D02*
X189325000Y-82645000D01*
X177800000Y-66040000D02*
X189325000Y-77565000D01*
%TO.N,/BUS_7*%
X175260000Y-66040000D02*
X165100000Y-66040000D01*
X177800000Y-63500000D02*
X175260000Y-66040000D01*
%TO.N,/BUS_6*%
X175260000Y-63500000D02*
X177800000Y-60960000D01*
X165100000Y-63500000D02*
X175260000Y-63500000D01*
%TO.N,/BUS_5*%
X167640000Y-58420000D02*
X165100000Y-60960000D01*
X177800000Y-58420000D02*
X167640000Y-58420000D01*
%TO.N,/BUS_4*%
X176385000Y-57295000D02*
X177800000Y-55880000D01*
X166225000Y-57295000D02*
X176385000Y-57295000D01*
X165100000Y-58420000D02*
X166225000Y-57295000D01*
%TO.N,/BUS_3*%
X175260000Y-55880000D02*
X165100000Y-55880000D01*
X177800000Y-53340000D02*
X175260000Y-55880000D01*
%TO.N,/BUS_2*%
X175260000Y-53340000D02*
X177800000Y-50800000D01*
X165100000Y-53340000D02*
X175260000Y-53340000D01*
%TO.N,/BUS_1*%
X166225000Y-49675000D02*
X176385000Y-49675000D01*
X176385000Y-49675000D02*
X177800000Y-48260000D01*
X165100000Y-50800000D02*
X166225000Y-49675000D01*
%TO.N,/BUS_0*%
X165100000Y-48260000D02*
X175260000Y-48260000D01*
X175260000Y-48260000D02*
X177800000Y-45720000D01*
%TD*%
M02*
