%TF.GenerationSoftware,KiCad,Pcbnew,(7.0.0)*%
%TF.CreationDate,2023-03-05T21:28:28-05:00*%
%TF.ProjectId,8bc_ir,3862635f-6972-42e6-9b69-6361645f7063,rev?*%
%TF.SameCoordinates,Original*%
%TF.FileFunction,Drillmap*%
%TF.FilePolarity,Positive*%
%FSLAX45Y45*%
G04 Gerber Fmt 4.5, Leading zero omitted, Abs format (unit mm)*
G04 Created by KiCad (PCBNEW (7.0.0)) date 2023-03-05 21:28:28*
%MOMM*%
%LPD*%
G01*
G04 APERTURE LIST*
%ADD10C,0.100000*%
%ADD11C,0.200000*%
G04 APERTURE END LIST*
D10*
X10414000Y-3048000D02*
X19812000Y-3048000D01*
X19812000Y-3048000D02*
X19812000Y-9398000D01*
X19812000Y-9398000D02*
X10414000Y-9398000D01*
X10414000Y-9398000D02*
X10414000Y-3048000D01*
D11*
X10656619Y-9696476D02*
X10656619Y-9496476D01*
X10656619Y-9496476D02*
X10704238Y-9496476D01*
X10704238Y-9496476D02*
X10732810Y-9506000D01*
X10732810Y-9506000D02*
X10751857Y-9525048D01*
X10751857Y-9525048D02*
X10761381Y-9544095D01*
X10761381Y-9544095D02*
X10770905Y-9582190D01*
X10770905Y-9582190D02*
X10770905Y-9610762D01*
X10770905Y-9610762D02*
X10761381Y-9648857D01*
X10761381Y-9648857D02*
X10751857Y-9667905D01*
X10751857Y-9667905D02*
X10732810Y-9686952D01*
X10732810Y-9686952D02*
X10704238Y-9696476D01*
X10704238Y-9696476D02*
X10656619Y-9696476D01*
X10856619Y-9696476D02*
X10856619Y-9563143D01*
X10856619Y-9601238D02*
X10866143Y-9582190D01*
X10866143Y-9582190D02*
X10875667Y-9572667D01*
X10875667Y-9572667D02*
X10894714Y-9563143D01*
X10894714Y-9563143D02*
X10913762Y-9563143D01*
X10980429Y-9696476D02*
X10980429Y-9563143D01*
X10980429Y-9496476D02*
X10970905Y-9506000D01*
X10970905Y-9506000D02*
X10980429Y-9515524D01*
X10980429Y-9515524D02*
X10989952Y-9506000D01*
X10989952Y-9506000D02*
X10980429Y-9496476D01*
X10980429Y-9496476D02*
X10980429Y-9515524D01*
X11104238Y-9696476D02*
X11085190Y-9686952D01*
X11085190Y-9686952D02*
X11075667Y-9667905D01*
X11075667Y-9667905D02*
X11075667Y-9496476D01*
X11209000Y-9696476D02*
X11189952Y-9686952D01*
X11189952Y-9686952D02*
X11180429Y-9667905D01*
X11180429Y-9667905D02*
X11180429Y-9496476D01*
X11405190Y-9696476D02*
X11405190Y-9496476D01*
X11405190Y-9496476D02*
X11471857Y-9639333D01*
X11471857Y-9639333D02*
X11538524Y-9496476D01*
X11538524Y-9496476D02*
X11538524Y-9696476D01*
X11719476Y-9696476D02*
X11719476Y-9591714D01*
X11719476Y-9591714D02*
X11709952Y-9572667D01*
X11709952Y-9572667D02*
X11690905Y-9563143D01*
X11690905Y-9563143D02*
X11652809Y-9563143D01*
X11652809Y-9563143D02*
X11633762Y-9572667D01*
X11719476Y-9686952D02*
X11700428Y-9696476D01*
X11700428Y-9696476D02*
X11652809Y-9696476D01*
X11652809Y-9696476D02*
X11633762Y-9686952D01*
X11633762Y-9686952D02*
X11624238Y-9667905D01*
X11624238Y-9667905D02*
X11624238Y-9648857D01*
X11624238Y-9648857D02*
X11633762Y-9629810D01*
X11633762Y-9629810D02*
X11652809Y-9620286D01*
X11652809Y-9620286D02*
X11700428Y-9620286D01*
X11700428Y-9620286D02*
X11719476Y-9610762D01*
X11814714Y-9563143D02*
X11814714Y-9763143D01*
X11814714Y-9572667D02*
X11833762Y-9563143D01*
X11833762Y-9563143D02*
X11871857Y-9563143D01*
X11871857Y-9563143D02*
X11890905Y-9572667D01*
X11890905Y-9572667D02*
X11900428Y-9582190D01*
X11900428Y-9582190D02*
X11909952Y-9601238D01*
X11909952Y-9601238D02*
X11909952Y-9658381D01*
X11909952Y-9658381D02*
X11900428Y-9677429D01*
X11900428Y-9677429D02*
X11890905Y-9686952D01*
X11890905Y-9686952D02*
X11871857Y-9696476D01*
X11871857Y-9696476D02*
X11833762Y-9696476D01*
X11833762Y-9696476D02*
X11814714Y-9686952D01*
X11995667Y-9677429D02*
X12005190Y-9686952D01*
X12005190Y-9686952D02*
X11995667Y-9696476D01*
X11995667Y-9696476D02*
X11986143Y-9686952D01*
X11986143Y-9686952D02*
X11995667Y-9677429D01*
X11995667Y-9677429D02*
X11995667Y-9696476D01*
X11995667Y-9572667D02*
X12005190Y-9582190D01*
X12005190Y-9582190D02*
X11995667Y-9591714D01*
X11995667Y-9591714D02*
X11986143Y-9582190D01*
X11986143Y-9582190D02*
X11995667Y-9572667D01*
X11995667Y-9572667D02*
X11995667Y-9591714D01*
M02*
