%TF.GenerationSoftware,KiCad,Pcbnew,(7.0.0)*%
%TF.CreationDate,2023-03-05T21:28:25-05:00*%
%TF.ProjectId,8bc_ir,3862635f-6972-42e6-9b69-6361645f7063,rev?*%
%TF.SameCoordinates,Original*%
%TF.FileFunction,Legend,Top*%
%TF.FilePolarity,Positive*%
%FSLAX46Y46*%
G04 Gerber Fmt 4.6, Leading zero omitted, Abs format (unit mm)*
G04 Created by KiCad (PCBNEW (7.0.0)) date 2023-03-05 21:28:25*
%MOMM*%
%LPD*%
G01*
G04 APERTURE LIST*
%ADD10C,0.150000*%
%ADD11C,0.120000*%
G04 APERTURE END LIST*
D10*
X125174285Y-37447142D02*
X125174285Y-34447142D01*
X126602856Y-37447142D02*
X126602856Y-34447142D01*
X126602856Y-34447142D02*
X128317142Y-37447142D01*
X128317142Y-37447142D02*
X128317142Y-34447142D01*
X129602856Y-37304285D02*
X130031428Y-37447142D01*
X130031428Y-37447142D02*
X130745713Y-37447142D01*
X130745713Y-37447142D02*
X131031428Y-37304285D01*
X131031428Y-37304285D02*
X131174285Y-37161428D01*
X131174285Y-37161428D02*
X131317142Y-36875714D01*
X131317142Y-36875714D02*
X131317142Y-36590000D01*
X131317142Y-36590000D02*
X131174285Y-36304285D01*
X131174285Y-36304285D02*
X131031428Y-36161428D01*
X131031428Y-36161428D02*
X130745713Y-36018571D01*
X130745713Y-36018571D02*
X130174285Y-35875714D01*
X130174285Y-35875714D02*
X129888570Y-35732857D01*
X129888570Y-35732857D02*
X129745713Y-35590000D01*
X129745713Y-35590000D02*
X129602856Y-35304285D01*
X129602856Y-35304285D02*
X129602856Y-35018571D01*
X129602856Y-35018571D02*
X129745713Y-34732857D01*
X129745713Y-34732857D02*
X129888570Y-34590000D01*
X129888570Y-34590000D02*
X130174285Y-34447142D01*
X130174285Y-34447142D02*
X130888570Y-34447142D01*
X130888570Y-34447142D02*
X131317142Y-34590000D01*
X132174285Y-34447142D02*
X133888571Y-34447142D01*
X133031428Y-37447142D02*
X133031428Y-34447142D01*
X136602856Y-37447142D02*
X135602856Y-36018571D01*
X134888570Y-37447142D02*
X134888570Y-34447142D01*
X134888570Y-34447142D02*
X136031427Y-34447142D01*
X136031427Y-34447142D02*
X136317142Y-34590000D01*
X136317142Y-34590000D02*
X136459999Y-34732857D01*
X136459999Y-34732857D02*
X136602856Y-35018571D01*
X136602856Y-35018571D02*
X136602856Y-35447142D01*
X136602856Y-35447142D02*
X136459999Y-35732857D01*
X136459999Y-35732857D02*
X136317142Y-35875714D01*
X136317142Y-35875714D02*
X136031427Y-36018571D01*
X136031427Y-36018571D02*
X134888570Y-36018571D01*
X137888570Y-34447142D02*
X137888570Y-36875714D01*
X137888570Y-36875714D02*
X138031427Y-37161428D01*
X138031427Y-37161428D02*
X138174285Y-37304285D01*
X138174285Y-37304285D02*
X138459999Y-37447142D01*
X138459999Y-37447142D02*
X139031427Y-37447142D01*
X139031427Y-37447142D02*
X139317142Y-37304285D01*
X139317142Y-37304285D02*
X139459999Y-37161428D01*
X139459999Y-37161428D02*
X139602856Y-36875714D01*
X139602856Y-36875714D02*
X139602856Y-34447142D01*
X142745713Y-37161428D02*
X142602856Y-37304285D01*
X142602856Y-37304285D02*
X142174284Y-37447142D01*
X142174284Y-37447142D02*
X141888570Y-37447142D01*
X141888570Y-37447142D02*
X141459999Y-37304285D01*
X141459999Y-37304285D02*
X141174284Y-37018571D01*
X141174284Y-37018571D02*
X141031427Y-36732857D01*
X141031427Y-36732857D02*
X140888570Y-36161428D01*
X140888570Y-36161428D02*
X140888570Y-35732857D01*
X140888570Y-35732857D02*
X141031427Y-35161428D01*
X141031427Y-35161428D02*
X141174284Y-34875714D01*
X141174284Y-34875714D02*
X141459999Y-34590000D01*
X141459999Y-34590000D02*
X141888570Y-34447142D01*
X141888570Y-34447142D02*
X142174284Y-34447142D01*
X142174284Y-34447142D02*
X142602856Y-34590000D01*
X142602856Y-34590000D02*
X142745713Y-34732857D01*
X143602856Y-34447142D02*
X145317142Y-34447142D01*
X144459999Y-37447142D02*
X144459999Y-34447142D01*
X146317141Y-37447142D02*
X146317141Y-34447142D01*
X148317141Y-34447142D02*
X148888569Y-34447142D01*
X148888569Y-34447142D02*
X149174284Y-34590000D01*
X149174284Y-34590000D02*
X149459998Y-34875714D01*
X149459998Y-34875714D02*
X149602855Y-35447142D01*
X149602855Y-35447142D02*
X149602855Y-36447142D01*
X149602855Y-36447142D02*
X149459998Y-37018571D01*
X149459998Y-37018571D02*
X149174284Y-37304285D01*
X149174284Y-37304285D02*
X148888569Y-37447142D01*
X148888569Y-37447142D02*
X148317141Y-37447142D01*
X148317141Y-37447142D02*
X148031427Y-37304285D01*
X148031427Y-37304285D02*
X147745712Y-37018571D01*
X147745712Y-37018571D02*
X147602855Y-36447142D01*
X147602855Y-36447142D02*
X147602855Y-35447142D01*
X147602855Y-35447142D02*
X147745712Y-34875714D01*
X147745712Y-34875714D02*
X148031427Y-34590000D01*
X148031427Y-34590000D02*
X148317141Y-34447142D01*
X150888569Y-37447142D02*
X150888569Y-34447142D01*
X150888569Y-34447142D02*
X152602855Y-37447142D01*
X152602855Y-37447142D02*
X152602855Y-34447142D01*
X157545712Y-37447142D02*
X156545712Y-36018571D01*
X155831426Y-37447142D02*
X155831426Y-34447142D01*
X155831426Y-34447142D02*
X156974283Y-34447142D01*
X156974283Y-34447142D02*
X157259998Y-34590000D01*
X157259998Y-34590000D02*
X157402855Y-34732857D01*
X157402855Y-34732857D02*
X157545712Y-35018571D01*
X157545712Y-35018571D02*
X157545712Y-35447142D01*
X157545712Y-35447142D02*
X157402855Y-35732857D01*
X157402855Y-35732857D02*
X157259998Y-35875714D01*
X157259998Y-35875714D02*
X156974283Y-36018571D01*
X156974283Y-36018571D02*
X155831426Y-36018571D01*
X158831426Y-35875714D02*
X159831426Y-35875714D01*
X160259998Y-37447142D02*
X158831426Y-37447142D01*
X158831426Y-37447142D02*
X158831426Y-34447142D01*
X158831426Y-34447142D02*
X160259998Y-34447142D01*
X163117141Y-34590000D02*
X162831427Y-34447142D01*
X162831427Y-34447142D02*
X162402855Y-34447142D01*
X162402855Y-34447142D02*
X161974284Y-34590000D01*
X161974284Y-34590000D02*
X161688569Y-34875714D01*
X161688569Y-34875714D02*
X161545712Y-35161428D01*
X161545712Y-35161428D02*
X161402855Y-35732857D01*
X161402855Y-35732857D02*
X161402855Y-36161428D01*
X161402855Y-36161428D02*
X161545712Y-36732857D01*
X161545712Y-36732857D02*
X161688569Y-37018571D01*
X161688569Y-37018571D02*
X161974284Y-37304285D01*
X161974284Y-37304285D02*
X162402855Y-37447142D01*
X162402855Y-37447142D02*
X162688569Y-37447142D01*
X162688569Y-37447142D02*
X163117141Y-37304285D01*
X163117141Y-37304285D02*
X163259998Y-37161428D01*
X163259998Y-37161428D02*
X163259998Y-36161428D01*
X163259998Y-36161428D02*
X162688569Y-36161428D01*
X164545712Y-37447142D02*
X164545712Y-34447142D01*
X165831426Y-37304285D02*
X166259998Y-37447142D01*
X166259998Y-37447142D02*
X166974283Y-37447142D01*
X166974283Y-37447142D02*
X167259998Y-37304285D01*
X167259998Y-37304285D02*
X167402855Y-37161428D01*
X167402855Y-37161428D02*
X167545712Y-36875714D01*
X167545712Y-36875714D02*
X167545712Y-36590000D01*
X167545712Y-36590000D02*
X167402855Y-36304285D01*
X167402855Y-36304285D02*
X167259998Y-36161428D01*
X167259998Y-36161428D02*
X166974283Y-36018571D01*
X166974283Y-36018571D02*
X166402855Y-35875714D01*
X166402855Y-35875714D02*
X166117140Y-35732857D01*
X166117140Y-35732857D02*
X165974283Y-35590000D01*
X165974283Y-35590000D02*
X165831426Y-35304285D01*
X165831426Y-35304285D02*
X165831426Y-35018571D01*
X165831426Y-35018571D02*
X165974283Y-34732857D01*
X165974283Y-34732857D02*
X166117140Y-34590000D01*
X166117140Y-34590000D02*
X166402855Y-34447142D01*
X166402855Y-34447142D02*
X167117140Y-34447142D01*
X167117140Y-34447142D02*
X167545712Y-34590000D01*
X168402855Y-34447142D02*
X170117141Y-34447142D01*
X169259998Y-37447142D02*
X169259998Y-34447142D01*
X171117140Y-35875714D02*
X172117140Y-35875714D01*
X172545712Y-37447142D02*
X171117140Y-37447142D01*
X171117140Y-37447142D02*
X171117140Y-34447142D01*
X171117140Y-34447142D02*
X172545712Y-34447142D01*
X175545712Y-37447142D02*
X174545712Y-36018571D01*
X173831426Y-37447142D02*
X173831426Y-34447142D01*
X173831426Y-34447142D02*
X174974283Y-34447142D01*
X174974283Y-34447142D02*
X175259998Y-34590000D01*
X175259998Y-34590000D02*
X175402855Y-34732857D01*
X175402855Y-34732857D02*
X175545712Y-35018571D01*
X175545712Y-35018571D02*
X175545712Y-35447142D01*
X175545712Y-35447142D02*
X175402855Y-35732857D01*
X175402855Y-35732857D02*
X175259998Y-35875714D01*
X175259998Y-35875714D02*
X174974283Y-36018571D01*
X174974283Y-36018571D02*
X173831426Y-36018571D01*
X194532384Y-89113415D02*
X194484765Y-89161034D01*
X194484765Y-89161034D02*
X194341908Y-89208653D01*
X194341908Y-89208653D02*
X194246670Y-89208653D01*
X194246670Y-89208653D02*
X194103813Y-89161034D01*
X194103813Y-89161034D02*
X194008575Y-89065796D01*
X194008575Y-89065796D02*
X193960956Y-88970558D01*
X193960956Y-88970558D02*
X193913337Y-88780082D01*
X193913337Y-88780082D02*
X193913337Y-88637225D01*
X193913337Y-88637225D02*
X193960956Y-88446749D01*
X193960956Y-88446749D02*
X194008575Y-88351511D01*
X194008575Y-88351511D02*
X194103813Y-88256273D01*
X194103813Y-88256273D02*
X194246670Y-88208653D01*
X194246670Y-88208653D02*
X194341908Y-88208653D01*
X194341908Y-88208653D02*
X194484765Y-88256273D01*
X194484765Y-88256273D02*
X194532384Y-88303892D01*
X195437146Y-89208653D02*
X194960956Y-89208653D01*
X194960956Y-89208653D02*
X194960956Y-88208653D01*
X196341908Y-89208653D02*
X196008575Y-88732463D01*
X195770480Y-89208653D02*
X195770480Y-88208653D01*
X195770480Y-88208653D02*
X196151432Y-88208653D01*
X196151432Y-88208653D02*
X196246670Y-88256273D01*
X196246670Y-88256273D02*
X196294289Y-88303892D01*
X196294289Y-88303892D02*
X196341908Y-88399130D01*
X196341908Y-88399130D02*
X196341908Y-88541987D01*
X196341908Y-88541987D02*
X196294289Y-88637225D01*
X196294289Y-88637225D02*
X196246670Y-88684844D01*
X196246670Y-88684844D02*
X196151432Y-88732463D01*
X196151432Y-88732463D02*
X195770480Y-88732463D01*
X194532384Y-86573415D02*
X194484765Y-86621034D01*
X194484765Y-86621034D02*
X194341908Y-86668653D01*
X194341908Y-86668653D02*
X194246670Y-86668653D01*
X194246670Y-86668653D02*
X194103813Y-86621034D01*
X194103813Y-86621034D02*
X194008575Y-86525796D01*
X194008575Y-86525796D02*
X193960956Y-86430558D01*
X193960956Y-86430558D02*
X193913337Y-86240082D01*
X193913337Y-86240082D02*
X193913337Y-86097225D01*
X193913337Y-86097225D02*
X193960956Y-85906749D01*
X193960956Y-85906749D02*
X194008575Y-85811511D01*
X194008575Y-85811511D02*
X194103813Y-85716273D01*
X194103813Y-85716273D02*
X194246670Y-85668653D01*
X194246670Y-85668653D02*
X194341908Y-85668653D01*
X194341908Y-85668653D02*
X194484765Y-85716273D01*
X194484765Y-85716273D02*
X194532384Y-85763892D01*
X195437146Y-86668653D02*
X194960956Y-86668653D01*
X194960956Y-86668653D02*
X194960956Y-85668653D01*
X195770480Y-86668653D02*
X195770480Y-85668653D01*
X196341908Y-86668653D02*
X195913337Y-86097225D01*
X196341908Y-85668653D02*
X195770480Y-86240082D01*
X193960956Y-84128653D02*
X193960956Y-83128653D01*
X194627622Y-83128653D02*
X194818098Y-83128653D01*
X194818098Y-83128653D02*
X194913336Y-83176273D01*
X194913336Y-83176273D02*
X195008574Y-83271511D01*
X195008574Y-83271511D02*
X195056193Y-83461987D01*
X195056193Y-83461987D02*
X195056193Y-83795320D01*
X195056193Y-83795320D02*
X195008574Y-83985796D01*
X195008574Y-83985796D02*
X194913336Y-84081034D01*
X194913336Y-84081034D02*
X194818098Y-84128653D01*
X194818098Y-84128653D02*
X194627622Y-84128653D01*
X194627622Y-84128653D02*
X194532384Y-84081034D01*
X194532384Y-84081034D02*
X194437146Y-83985796D01*
X194437146Y-83985796D02*
X194389527Y-83795320D01*
X194389527Y-83795320D02*
X194389527Y-83461987D01*
X194389527Y-83461987D02*
X194437146Y-83271511D01*
X194437146Y-83271511D02*
X194532384Y-83176273D01*
X194532384Y-83176273D02*
X194627622Y-83128653D01*
X193822861Y-82776273D02*
X195146670Y-82776273D01*
X193960956Y-81588653D02*
X193960956Y-80588653D01*
X194437146Y-81588653D02*
X194437146Y-80588653D01*
X193822861Y-80236273D02*
X194575241Y-80236273D01*
X194484765Y-78096273D02*
X194389527Y-78048653D01*
X194389527Y-78048653D02*
X194246670Y-78048653D01*
X194246670Y-78048653D02*
X194103813Y-78096273D01*
X194103813Y-78096273D02*
X194008575Y-78191511D01*
X194008575Y-78191511D02*
X193960956Y-78286749D01*
X193960956Y-78286749D02*
X193913337Y-78477225D01*
X193913337Y-78477225D02*
X193913337Y-78620082D01*
X193913337Y-78620082D02*
X193960956Y-78810558D01*
X193960956Y-78810558D02*
X194008575Y-78905796D01*
X194008575Y-78905796D02*
X194103813Y-79001034D01*
X194103813Y-79001034D02*
X194246670Y-79048653D01*
X194246670Y-79048653D02*
X194341908Y-79048653D01*
X194341908Y-79048653D02*
X194484765Y-79001034D01*
X194484765Y-79001034D02*
X194532384Y-78953415D01*
X194532384Y-78953415D02*
X194532384Y-78620082D01*
X194532384Y-78620082D02*
X194341908Y-78620082D01*
X194960956Y-79048653D02*
X194960956Y-78048653D01*
X194960956Y-78048653D02*
X195532384Y-79048653D01*
X195532384Y-79048653D02*
X195532384Y-78048653D01*
X196008575Y-79048653D02*
X196008575Y-78048653D01*
X196008575Y-78048653D02*
X196246670Y-78048653D01*
X196246670Y-78048653D02*
X196389527Y-78096273D01*
X196389527Y-78096273D02*
X196484765Y-78191511D01*
X196484765Y-78191511D02*
X196532384Y-78286749D01*
X196532384Y-78286749D02*
X196580003Y-78477225D01*
X196580003Y-78477225D02*
X196580003Y-78620082D01*
X196580003Y-78620082D02*
X196532384Y-78810558D01*
X196532384Y-78810558D02*
X196484765Y-78905796D01*
X196484765Y-78905796D02*
X196389527Y-79001034D01*
X196389527Y-79001034D02*
X196246670Y-79048653D01*
X196246670Y-79048653D02*
X196008575Y-79048653D01*
X193818099Y-75508653D02*
X194151432Y-76508653D01*
X194151432Y-76508653D02*
X194484765Y-75508653D01*
X195389527Y-76413415D02*
X195341908Y-76461034D01*
X195341908Y-76461034D02*
X195199051Y-76508653D01*
X195199051Y-76508653D02*
X195103813Y-76508653D01*
X195103813Y-76508653D02*
X194960956Y-76461034D01*
X194960956Y-76461034D02*
X194865718Y-76365796D01*
X194865718Y-76365796D02*
X194818099Y-76270558D01*
X194818099Y-76270558D02*
X194770480Y-76080082D01*
X194770480Y-76080082D02*
X194770480Y-75937225D01*
X194770480Y-75937225D02*
X194818099Y-75746749D01*
X194818099Y-75746749D02*
X194865718Y-75651511D01*
X194865718Y-75651511D02*
X194960956Y-75556273D01*
X194960956Y-75556273D02*
X195103813Y-75508653D01*
X195103813Y-75508653D02*
X195199051Y-75508653D01*
X195199051Y-75508653D02*
X195341908Y-75556273D01*
X195341908Y-75556273D02*
X195389527Y-75603892D01*
X196389527Y-76413415D02*
X196341908Y-76461034D01*
X196341908Y-76461034D02*
X196199051Y-76508653D01*
X196199051Y-76508653D02*
X196103813Y-76508653D01*
X196103813Y-76508653D02*
X195960956Y-76461034D01*
X195960956Y-76461034D02*
X195865718Y-76365796D01*
X195865718Y-76365796D02*
X195818099Y-76270558D01*
X195818099Y-76270558D02*
X195770480Y-76080082D01*
X195770480Y-76080082D02*
X195770480Y-75937225D01*
X195770480Y-75937225D02*
X195818099Y-75746749D01*
X195818099Y-75746749D02*
X195865718Y-75651511D01*
X195865718Y-75651511D02*
X195960956Y-75556273D01*
X195960956Y-75556273D02*
X196103813Y-75508653D01*
X196103813Y-75508653D02*
X196199051Y-75508653D01*
X196199051Y-75508653D02*
X196341908Y-75556273D01*
X196341908Y-75556273D02*
X196389527Y-75603892D01*
X168565031Y-65816129D02*
X168707888Y-65863748D01*
X168707888Y-65863748D02*
X168755507Y-65911367D01*
X168755507Y-65911367D02*
X168803126Y-66006605D01*
X168803126Y-66006605D02*
X168803126Y-66149462D01*
X168803126Y-66149462D02*
X168755507Y-66244700D01*
X168755507Y-66244700D02*
X168707888Y-66292319D01*
X168707888Y-66292319D02*
X168612650Y-66339938D01*
X168612650Y-66339938D02*
X168231698Y-66339938D01*
X168231698Y-66339938D02*
X168231698Y-65339938D01*
X168231698Y-65339938D02*
X168565031Y-65339938D01*
X168565031Y-65339938D02*
X168660269Y-65387558D01*
X168660269Y-65387558D02*
X168707888Y-65435177D01*
X168707888Y-65435177D02*
X168755507Y-65530415D01*
X168755507Y-65530415D02*
X168755507Y-65625653D01*
X168755507Y-65625653D02*
X168707888Y-65720891D01*
X168707888Y-65720891D02*
X168660269Y-65768510D01*
X168660269Y-65768510D02*
X168565031Y-65816129D01*
X168565031Y-65816129D02*
X168231698Y-65816129D01*
X169231698Y-65339938D02*
X169231698Y-66149462D01*
X169231698Y-66149462D02*
X169279317Y-66244700D01*
X169279317Y-66244700D02*
X169326936Y-66292319D01*
X169326936Y-66292319D02*
X169422174Y-66339938D01*
X169422174Y-66339938D02*
X169612650Y-66339938D01*
X169612650Y-66339938D02*
X169707888Y-66292319D01*
X169707888Y-66292319D02*
X169755507Y-66244700D01*
X169755507Y-66244700D02*
X169803126Y-66149462D01*
X169803126Y-66149462D02*
X169803126Y-65339938D01*
X170231698Y-66292319D02*
X170374555Y-66339938D01*
X170374555Y-66339938D02*
X170612650Y-66339938D01*
X170612650Y-66339938D02*
X170707888Y-66292319D01*
X170707888Y-66292319D02*
X170755507Y-66244700D01*
X170755507Y-66244700D02*
X170803126Y-66149462D01*
X170803126Y-66149462D02*
X170803126Y-66054224D01*
X170803126Y-66054224D02*
X170755507Y-65958986D01*
X170755507Y-65958986D02*
X170707888Y-65911367D01*
X170707888Y-65911367D02*
X170612650Y-65863748D01*
X170612650Y-65863748D02*
X170422174Y-65816129D01*
X170422174Y-65816129D02*
X170326936Y-65768510D01*
X170326936Y-65768510D02*
X170279317Y-65720891D01*
X170279317Y-65720891D02*
X170231698Y-65625653D01*
X170231698Y-65625653D02*
X170231698Y-65530415D01*
X170231698Y-65530415D02*
X170279317Y-65435177D01*
X170279317Y-65435177D02*
X170326936Y-65387558D01*
X170326936Y-65387558D02*
X170422174Y-65339938D01*
X170422174Y-65339938D02*
X170660269Y-65339938D01*
X170660269Y-65339938D02*
X170803126Y-65387558D01*
X170993603Y-66435177D02*
X171755507Y-66435177D01*
X171898365Y-65339938D02*
X172565031Y-65339938D01*
X172565031Y-65339938D02*
X172136460Y-66339938D01*
X168565031Y-63276129D02*
X168707888Y-63323748D01*
X168707888Y-63323748D02*
X168755507Y-63371367D01*
X168755507Y-63371367D02*
X168803126Y-63466605D01*
X168803126Y-63466605D02*
X168803126Y-63609462D01*
X168803126Y-63609462D02*
X168755507Y-63704700D01*
X168755507Y-63704700D02*
X168707888Y-63752319D01*
X168707888Y-63752319D02*
X168612650Y-63799938D01*
X168612650Y-63799938D02*
X168231698Y-63799938D01*
X168231698Y-63799938D02*
X168231698Y-62799938D01*
X168231698Y-62799938D02*
X168565031Y-62799938D01*
X168565031Y-62799938D02*
X168660269Y-62847558D01*
X168660269Y-62847558D02*
X168707888Y-62895177D01*
X168707888Y-62895177D02*
X168755507Y-62990415D01*
X168755507Y-62990415D02*
X168755507Y-63085653D01*
X168755507Y-63085653D02*
X168707888Y-63180891D01*
X168707888Y-63180891D02*
X168660269Y-63228510D01*
X168660269Y-63228510D02*
X168565031Y-63276129D01*
X168565031Y-63276129D02*
X168231698Y-63276129D01*
X169231698Y-62799938D02*
X169231698Y-63609462D01*
X169231698Y-63609462D02*
X169279317Y-63704700D01*
X169279317Y-63704700D02*
X169326936Y-63752319D01*
X169326936Y-63752319D02*
X169422174Y-63799938D01*
X169422174Y-63799938D02*
X169612650Y-63799938D01*
X169612650Y-63799938D02*
X169707888Y-63752319D01*
X169707888Y-63752319D02*
X169755507Y-63704700D01*
X169755507Y-63704700D02*
X169803126Y-63609462D01*
X169803126Y-63609462D02*
X169803126Y-62799938D01*
X170231698Y-63752319D02*
X170374555Y-63799938D01*
X170374555Y-63799938D02*
X170612650Y-63799938D01*
X170612650Y-63799938D02*
X170707888Y-63752319D01*
X170707888Y-63752319D02*
X170755507Y-63704700D01*
X170755507Y-63704700D02*
X170803126Y-63609462D01*
X170803126Y-63609462D02*
X170803126Y-63514224D01*
X170803126Y-63514224D02*
X170755507Y-63418986D01*
X170755507Y-63418986D02*
X170707888Y-63371367D01*
X170707888Y-63371367D02*
X170612650Y-63323748D01*
X170612650Y-63323748D02*
X170422174Y-63276129D01*
X170422174Y-63276129D02*
X170326936Y-63228510D01*
X170326936Y-63228510D02*
X170279317Y-63180891D01*
X170279317Y-63180891D02*
X170231698Y-63085653D01*
X170231698Y-63085653D02*
X170231698Y-62990415D01*
X170231698Y-62990415D02*
X170279317Y-62895177D01*
X170279317Y-62895177D02*
X170326936Y-62847558D01*
X170326936Y-62847558D02*
X170422174Y-62799938D01*
X170422174Y-62799938D02*
X170660269Y-62799938D01*
X170660269Y-62799938D02*
X170803126Y-62847558D01*
X170993603Y-63895177D02*
X171755507Y-63895177D01*
X172422174Y-62799938D02*
X172231698Y-62799938D01*
X172231698Y-62799938D02*
X172136460Y-62847558D01*
X172136460Y-62847558D02*
X172088841Y-62895177D01*
X172088841Y-62895177D02*
X171993603Y-63038034D01*
X171993603Y-63038034D02*
X171945984Y-63228510D01*
X171945984Y-63228510D02*
X171945984Y-63609462D01*
X171945984Y-63609462D02*
X171993603Y-63704700D01*
X171993603Y-63704700D02*
X172041222Y-63752319D01*
X172041222Y-63752319D02*
X172136460Y-63799938D01*
X172136460Y-63799938D02*
X172326936Y-63799938D01*
X172326936Y-63799938D02*
X172422174Y-63752319D01*
X172422174Y-63752319D02*
X172469793Y-63704700D01*
X172469793Y-63704700D02*
X172517412Y-63609462D01*
X172517412Y-63609462D02*
X172517412Y-63371367D01*
X172517412Y-63371367D02*
X172469793Y-63276129D01*
X172469793Y-63276129D02*
X172422174Y-63228510D01*
X172422174Y-63228510D02*
X172326936Y-63180891D01*
X172326936Y-63180891D02*
X172136460Y-63180891D01*
X172136460Y-63180891D02*
X172041222Y-63228510D01*
X172041222Y-63228510D02*
X171993603Y-63276129D01*
X171993603Y-63276129D02*
X171945984Y-63371367D01*
X168565031Y-60736129D02*
X168707888Y-60783748D01*
X168707888Y-60783748D02*
X168755507Y-60831367D01*
X168755507Y-60831367D02*
X168803126Y-60926605D01*
X168803126Y-60926605D02*
X168803126Y-61069462D01*
X168803126Y-61069462D02*
X168755507Y-61164700D01*
X168755507Y-61164700D02*
X168707888Y-61212319D01*
X168707888Y-61212319D02*
X168612650Y-61259938D01*
X168612650Y-61259938D02*
X168231698Y-61259938D01*
X168231698Y-61259938D02*
X168231698Y-60259938D01*
X168231698Y-60259938D02*
X168565031Y-60259938D01*
X168565031Y-60259938D02*
X168660269Y-60307558D01*
X168660269Y-60307558D02*
X168707888Y-60355177D01*
X168707888Y-60355177D02*
X168755507Y-60450415D01*
X168755507Y-60450415D02*
X168755507Y-60545653D01*
X168755507Y-60545653D02*
X168707888Y-60640891D01*
X168707888Y-60640891D02*
X168660269Y-60688510D01*
X168660269Y-60688510D02*
X168565031Y-60736129D01*
X168565031Y-60736129D02*
X168231698Y-60736129D01*
X169231698Y-60259938D02*
X169231698Y-61069462D01*
X169231698Y-61069462D02*
X169279317Y-61164700D01*
X169279317Y-61164700D02*
X169326936Y-61212319D01*
X169326936Y-61212319D02*
X169422174Y-61259938D01*
X169422174Y-61259938D02*
X169612650Y-61259938D01*
X169612650Y-61259938D02*
X169707888Y-61212319D01*
X169707888Y-61212319D02*
X169755507Y-61164700D01*
X169755507Y-61164700D02*
X169803126Y-61069462D01*
X169803126Y-61069462D02*
X169803126Y-60259938D01*
X170231698Y-61212319D02*
X170374555Y-61259938D01*
X170374555Y-61259938D02*
X170612650Y-61259938D01*
X170612650Y-61259938D02*
X170707888Y-61212319D01*
X170707888Y-61212319D02*
X170755507Y-61164700D01*
X170755507Y-61164700D02*
X170803126Y-61069462D01*
X170803126Y-61069462D02*
X170803126Y-60974224D01*
X170803126Y-60974224D02*
X170755507Y-60878986D01*
X170755507Y-60878986D02*
X170707888Y-60831367D01*
X170707888Y-60831367D02*
X170612650Y-60783748D01*
X170612650Y-60783748D02*
X170422174Y-60736129D01*
X170422174Y-60736129D02*
X170326936Y-60688510D01*
X170326936Y-60688510D02*
X170279317Y-60640891D01*
X170279317Y-60640891D02*
X170231698Y-60545653D01*
X170231698Y-60545653D02*
X170231698Y-60450415D01*
X170231698Y-60450415D02*
X170279317Y-60355177D01*
X170279317Y-60355177D02*
X170326936Y-60307558D01*
X170326936Y-60307558D02*
X170422174Y-60259938D01*
X170422174Y-60259938D02*
X170660269Y-60259938D01*
X170660269Y-60259938D02*
X170803126Y-60307558D01*
X170993603Y-61355177D02*
X171755507Y-61355177D01*
X172469793Y-60259938D02*
X171993603Y-60259938D01*
X171993603Y-60259938D02*
X171945984Y-60736129D01*
X171945984Y-60736129D02*
X171993603Y-60688510D01*
X171993603Y-60688510D02*
X172088841Y-60640891D01*
X172088841Y-60640891D02*
X172326936Y-60640891D01*
X172326936Y-60640891D02*
X172422174Y-60688510D01*
X172422174Y-60688510D02*
X172469793Y-60736129D01*
X172469793Y-60736129D02*
X172517412Y-60831367D01*
X172517412Y-60831367D02*
X172517412Y-61069462D01*
X172517412Y-61069462D02*
X172469793Y-61164700D01*
X172469793Y-61164700D02*
X172422174Y-61212319D01*
X172422174Y-61212319D02*
X172326936Y-61259938D01*
X172326936Y-61259938D02*
X172088841Y-61259938D01*
X172088841Y-61259938D02*
X171993603Y-61212319D01*
X171993603Y-61212319D02*
X171945984Y-61164700D01*
X168565031Y-58196129D02*
X168707888Y-58243748D01*
X168707888Y-58243748D02*
X168755507Y-58291367D01*
X168755507Y-58291367D02*
X168803126Y-58386605D01*
X168803126Y-58386605D02*
X168803126Y-58529462D01*
X168803126Y-58529462D02*
X168755507Y-58624700D01*
X168755507Y-58624700D02*
X168707888Y-58672319D01*
X168707888Y-58672319D02*
X168612650Y-58719938D01*
X168612650Y-58719938D02*
X168231698Y-58719938D01*
X168231698Y-58719938D02*
X168231698Y-57719938D01*
X168231698Y-57719938D02*
X168565031Y-57719938D01*
X168565031Y-57719938D02*
X168660269Y-57767558D01*
X168660269Y-57767558D02*
X168707888Y-57815177D01*
X168707888Y-57815177D02*
X168755507Y-57910415D01*
X168755507Y-57910415D02*
X168755507Y-58005653D01*
X168755507Y-58005653D02*
X168707888Y-58100891D01*
X168707888Y-58100891D02*
X168660269Y-58148510D01*
X168660269Y-58148510D02*
X168565031Y-58196129D01*
X168565031Y-58196129D02*
X168231698Y-58196129D01*
X169231698Y-57719938D02*
X169231698Y-58529462D01*
X169231698Y-58529462D02*
X169279317Y-58624700D01*
X169279317Y-58624700D02*
X169326936Y-58672319D01*
X169326936Y-58672319D02*
X169422174Y-58719938D01*
X169422174Y-58719938D02*
X169612650Y-58719938D01*
X169612650Y-58719938D02*
X169707888Y-58672319D01*
X169707888Y-58672319D02*
X169755507Y-58624700D01*
X169755507Y-58624700D02*
X169803126Y-58529462D01*
X169803126Y-58529462D02*
X169803126Y-57719938D01*
X170231698Y-58672319D02*
X170374555Y-58719938D01*
X170374555Y-58719938D02*
X170612650Y-58719938D01*
X170612650Y-58719938D02*
X170707888Y-58672319D01*
X170707888Y-58672319D02*
X170755507Y-58624700D01*
X170755507Y-58624700D02*
X170803126Y-58529462D01*
X170803126Y-58529462D02*
X170803126Y-58434224D01*
X170803126Y-58434224D02*
X170755507Y-58338986D01*
X170755507Y-58338986D02*
X170707888Y-58291367D01*
X170707888Y-58291367D02*
X170612650Y-58243748D01*
X170612650Y-58243748D02*
X170422174Y-58196129D01*
X170422174Y-58196129D02*
X170326936Y-58148510D01*
X170326936Y-58148510D02*
X170279317Y-58100891D01*
X170279317Y-58100891D02*
X170231698Y-58005653D01*
X170231698Y-58005653D02*
X170231698Y-57910415D01*
X170231698Y-57910415D02*
X170279317Y-57815177D01*
X170279317Y-57815177D02*
X170326936Y-57767558D01*
X170326936Y-57767558D02*
X170422174Y-57719938D01*
X170422174Y-57719938D02*
X170660269Y-57719938D01*
X170660269Y-57719938D02*
X170803126Y-57767558D01*
X170993603Y-58815177D02*
X171755507Y-58815177D01*
X172422174Y-58053272D02*
X172422174Y-58719938D01*
X172184079Y-57672319D02*
X171945984Y-58386605D01*
X171945984Y-58386605D02*
X172565031Y-58386605D01*
X168565031Y-55656129D02*
X168707888Y-55703748D01*
X168707888Y-55703748D02*
X168755507Y-55751367D01*
X168755507Y-55751367D02*
X168803126Y-55846605D01*
X168803126Y-55846605D02*
X168803126Y-55989462D01*
X168803126Y-55989462D02*
X168755507Y-56084700D01*
X168755507Y-56084700D02*
X168707888Y-56132319D01*
X168707888Y-56132319D02*
X168612650Y-56179938D01*
X168612650Y-56179938D02*
X168231698Y-56179938D01*
X168231698Y-56179938D02*
X168231698Y-55179938D01*
X168231698Y-55179938D02*
X168565031Y-55179938D01*
X168565031Y-55179938D02*
X168660269Y-55227558D01*
X168660269Y-55227558D02*
X168707888Y-55275177D01*
X168707888Y-55275177D02*
X168755507Y-55370415D01*
X168755507Y-55370415D02*
X168755507Y-55465653D01*
X168755507Y-55465653D02*
X168707888Y-55560891D01*
X168707888Y-55560891D02*
X168660269Y-55608510D01*
X168660269Y-55608510D02*
X168565031Y-55656129D01*
X168565031Y-55656129D02*
X168231698Y-55656129D01*
X169231698Y-55179938D02*
X169231698Y-55989462D01*
X169231698Y-55989462D02*
X169279317Y-56084700D01*
X169279317Y-56084700D02*
X169326936Y-56132319D01*
X169326936Y-56132319D02*
X169422174Y-56179938D01*
X169422174Y-56179938D02*
X169612650Y-56179938D01*
X169612650Y-56179938D02*
X169707888Y-56132319D01*
X169707888Y-56132319D02*
X169755507Y-56084700D01*
X169755507Y-56084700D02*
X169803126Y-55989462D01*
X169803126Y-55989462D02*
X169803126Y-55179938D01*
X170231698Y-56132319D02*
X170374555Y-56179938D01*
X170374555Y-56179938D02*
X170612650Y-56179938D01*
X170612650Y-56179938D02*
X170707888Y-56132319D01*
X170707888Y-56132319D02*
X170755507Y-56084700D01*
X170755507Y-56084700D02*
X170803126Y-55989462D01*
X170803126Y-55989462D02*
X170803126Y-55894224D01*
X170803126Y-55894224D02*
X170755507Y-55798986D01*
X170755507Y-55798986D02*
X170707888Y-55751367D01*
X170707888Y-55751367D02*
X170612650Y-55703748D01*
X170612650Y-55703748D02*
X170422174Y-55656129D01*
X170422174Y-55656129D02*
X170326936Y-55608510D01*
X170326936Y-55608510D02*
X170279317Y-55560891D01*
X170279317Y-55560891D02*
X170231698Y-55465653D01*
X170231698Y-55465653D02*
X170231698Y-55370415D01*
X170231698Y-55370415D02*
X170279317Y-55275177D01*
X170279317Y-55275177D02*
X170326936Y-55227558D01*
X170326936Y-55227558D02*
X170422174Y-55179938D01*
X170422174Y-55179938D02*
X170660269Y-55179938D01*
X170660269Y-55179938D02*
X170803126Y-55227558D01*
X170993603Y-56275177D02*
X171755507Y-56275177D01*
X171898365Y-55179938D02*
X172517412Y-55179938D01*
X172517412Y-55179938D02*
X172184079Y-55560891D01*
X172184079Y-55560891D02*
X172326936Y-55560891D01*
X172326936Y-55560891D02*
X172422174Y-55608510D01*
X172422174Y-55608510D02*
X172469793Y-55656129D01*
X172469793Y-55656129D02*
X172517412Y-55751367D01*
X172517412Y-55751367D02*
X172517412Y-55989462D01*
X172517412Y-55989462D02*
X172469793Y-56084700D01*
X172469793Y-56084700D02*
X172422174Y-56132319D01*
X172422174Y-56132319D02*
X172326936Y-56179938D01*
X172326936Y-56179938D02*
X172041222Y-56179938D01*
X172041222Y-56179938D02*
X171945984Y-56132319D01*
X171945984Y-56132319D02*
X171898365Y-56084700D01*
X168565031Y-53116129D02*
X168707888Y-53163748D01*
X168707888Y-53163748D02*
X168755507Y-53211367D01*
X168755507Y-53211367D02*
X168803126Y-53306605D01*
X168803126Y-53306605D02*
X168803126Y-53449462D01*
X168803126Y-53449462D02*
X168755507Y-53544700D01*
X168755507Y-53544700D02*
X168707888Y-53592319D01*
X168707888Y-53592319D02*
X168612650Y-53639938D01*
X168612650Y-53639938D02*
X168231698Y-53639938D01*
X168231698Y-53639938D02*
X168231698Y-52639938D01*
X168231698Y-52639938D02*
X168565031Y-52639938D01*
X168565031Y-52639938D02*
X168660269Y-52687558D01*
X168660269Y-52687558D02*
X168707888Y-52735177D01*
X168707888Y-52735177D02*
X168755507Y-52830415D01*
X168755507Y-52830415D02*
X168755507Y-52925653D01*
X168755507Y-52925653D02*
X168707888Y-53020891D01*
X168707888Y-53020891D02*
X168660269Y-53068510D01*
X168660269Y-53068510D02*
X168565031Y-53116129D01*
X168565031Y-53116129D02*
X168231698Y-53116129D01*
X169231698Y-52639938D02*
X169231698Y-53449462D01*
X169231698Y-53449462D02*
X169279317Y-53544700D01*
X169279317Y-53544700D02*
X169326936Y-53592319D01*
X169326936Y-53592319D02*
X169422174Y-53639938D01*
X169422174Y-53639938D02*
X169612650Y-53639938D01*
X169612650Y-53639938D02*
X169707888Y-53592319D01*
X169707888Y-53592319D02*
X169755507Y-53544700D01*
X169755507Y-53544700D02*
X169803126Y-53449462D01*
X169803126Y-53449462D02*
X169803126Y-52639938D01*
X170231698Y-53592319D02*
X170374555Y-53639938D01*
X170374555Y-53639938D02*
X170612650Y-53639938D01*
X170612650Y-53639938D02*
X170707888Y-53592319D01*
X170707888Y-53592319D02*
X170755507Y-53544700D01*
X170755507Y-53544700D02*
X170803126Y-53449462D01*
X170803126Y-53449462D02*
X170803126Y-53354224D01*
X170803126Y-53354224D02*
X170755507Y-53258986D01*
X170755507Y-53258986D02*
X170707888Y-53211367D01*
X170707888Y-53211367D02*
X170612650Y-53163748D01*
X170612650Y-53163748D02*
X170422174Y-53116129D01*
X170422174Y-53116129D02*
X170326936Y-53068510D01*
X170326936Y-53068510D02*
X170279317Y-53020891D01*
X170279317Y-53020891D02*
X170231698Y-52925653D01*
X170231698Y-52925653D02*
X170231698Y-52830415D01*
X170231698Y-52830415D02*
X170279317Y-52735177D01*
X170279317Y-52735177D02*
X170326936Y-52687558D01*
X170326936Y-52687558D02*
X170422174Y-52639938D01*
X170422174Y-52639938D02*
X170660269Y-52639938D01*
X170660269Y-52639938D02*
X170803126Y-52687558D01*
X170993603Y-53735177D02*
X171755507Y-53735177D01*
X171945984Y-52735177D02*
X171993603Y-52687558D01*
X171993603Y-52687558D02*
X172088841Y-52639938D01*
X172088841Y-52639938D02*
X172326936Y-52639938D01*
X172326936Y-52639938D02*
X172422174Y-52687558D01*
X172422174Y-52687558D02*
X172469793Y-52735177D01*
X172469793Y-52735177D02*
X172517412Y-52830415D01*
X172517412Y-52830415D02*
X172517412Y-52925653D01*
X172517412Y-52925653D02*
X172469793Y-53068510D01*
X172469793Y-53068510D02*
X171898365Y-53639938D01*
X171898365Y-53639938D02*
X172517412Y-53639938D01*
X168565031Y-50576129D02*
X168707888Y-50623748D01*
X168707888Y-50623748D02*
X168755507Y-50671367D01*
X168755507Y-50671367D02*
X168803126Y-50766605D01*
X168803126Y-50766605D02*
X168803126Y-50909462D01*
X168803126Y-50909462D02*
X168755507Y-51004700D01*
X168755507Y-51004700D02*
X168707888Y-51052319D01*
X168707888Y-51052319D02*
X168612650Y-51099938D01*
X168612650Y-51099938D02*
X168231698Y-51099938D01*
X168231698Y-51099938D02*
X168231698Y-50099938D01*
X168231698Y-50099938D02*
X168565031Y-50099938D01*
X168565031Y-50099938D02*
X168660269Y-50147558D01*
X168660269Y-50147558D02*
X168707888Y-50195177D01*
X168707888Y-50195177D02*
X168755507Y-50290415D01*
X168755507Y-50290415D02*
X168755507Y-50385653D01*
X168755507Y-50385653D02*
X168707888Y-50480891D01*
X168707888Y-50480891D02*
X168660269Y-50528510D01*
X168660269Y-50528510D02*
X168565031Y-50576129D01*
X168565031Y-50576129D02*
X168231698Y-50576129D01*
X169231698Y-50099938D02*
X169231698Y-50909462D01*
X169231698Y-50909462D02*
X169279317Y-51004700D01*
X169279317Y-51004700D02*
X169326936Y-51052319D01*
X169326936Y-51052319D02*
X169422174Y-51099938D01*
X169422174Y-51099938D02*
X169612650Y-51099938D01*
X169612650Y-51099938D02*
X169707888Y-51052319D01*
X169707888Y-51052319D02*
X169755507Y-51004700D01*
X169755507Y-51004700D02*
X169803126Y-50909462D01*
X169803126Y-50909462D02*
X169803126Y-50099938D01*
X170231698Y-51052319D02*
X170374555Y-51099938D01*
X170374555Y-51099938D02*
X170612650Y-51099938D01*
X170612650Y-51099938D02*
X170707888Y-51052319D01*
X170707888Y-51052319D02*
X170755507Y-51004700D01*
X170755507Y-51004700D02*
X170803126Y-50909462D01*
X170803126Y-50909462D02*
X170803126Y-50814224D01*
X170803126Y-50814224D02*
X170755507Y-50718986D01*
X170755507Y-50718986D02*
X170707888Y-50671367D01*
X170707888Y-50671367D02*
X170612650Y-50623748D01*
X170612650Y-50623748D02*
X170422174Y-50576129D01*
X170422174Y-50576129D02*
X170326936Y-50528510D01*
X170326936Y-50528510D02*
X170279317Y-50480891D01*
X170279317Y-50480891D02*
X170231698Y-50385653D01*
X170231698Y-50385653D02*
X170231698Y-50290415D01*
X170231698Y-50290415D02*
X170279317Y-50195177D01*
X170279317Y-50195177D02*
X170326936Y-50147558D01*
X170326936Y-50147558D02*
X170422174Y-50099938D01*
X170422174Y-50099938D02*
X170660269Y-50099938D01*
X170660269Y-50099938D02*
X170803126Y-50147558D01*
X170993603Y-51195177D02*
X171755507Y-51195177D01*
X172517412Y-51099938D02*
X171945984Y-51099938D01*
X172231698Y-51099938D02*
X172231698Y-50099938D01*
X172231698Y-50099938D02*
X172136460Y-50242796D01*
X172136460Y-50242796D02*
X172041222Y-50338034D01*
X172041222Y-50338034D02*
X171945984Y-50385653D01*
X168565031Y-48036129D02*
X168707888Y-48083748D01*
X168707888Y-48083748D02*
X168755507Y-48131367D01*
X168755507Y-48131367D02*
X168803126Y-48226605D01*
X168803126Y-48226605D02*
X168803126Y-48369462D01*
X168803126Y-48369462D02*
X168755507Y-48464700D01*
X168755507Y-48464700D02*
X168707888Y-48512319D01*
X168707888Y-48512319D02*
X168612650Y-48559938D01*
X168612650Y-48559938D02*
X168231698Y-48559938D01*
X168231698Y-48559938D02*
X168231698Y-47559938D01*
X168231698Y-47559938D02*
X168565031Y-47559938D01*
X168565031Y-47559938D02*
X168660269Y-47607558D01*
X168660269Y-47607558D02*
X168707888Y-47655177D01*
X168707888Y-47655177D02*
X168755507Y-47750415D01*
X168755507Y-47750415D02*
X168755507Y-47845653D01*
X168755507Y-47845653D02*
X168707888Y-47940891D01*
X168707888Y-47940891D02*
X168660269Y-47988510D01*
X168660269Y-47988510D02*
X168565031Y-48036129D01*
X168565031Y-48036129D02*
X168231698Y-48036129D01*
X169231698Y-47559938D02*
X169231698Y-48369462D01*
X169231698Y-48369462D02*
X169279317Y-48464700D01*
X169279317Y-48464700D02*
X169326936Y-48512319D01*
X169326936Y-48512319D02*
X169422174Y-48559938D01*
X169422174Y-48559938D02*
X169612650Y-48559938D01*
X169612650Y-48559938D02*
X169707888Y-48512319D01*
X169707888Y-48512319D02*
X169755507Y-48464700D01*
X169755507Y-48464700D02*
X169803126Y-48369462D01*
X169803126Y-48369462D02*
X169803126Y-47559938D01*
X170231698Y-48512319D02*
X170374555Y-48559938D01*
X170374555Y-48559938D02*
X170612650Y-48559938D01*
X170612650Y-48559938D02*
X170707888Y-48512319D01*
X170707888Y-48512319D02*
X170755507Y-48464700D01*
X170755507Y-48464700D02*
X170803126Y-48369462D01*
X170803126Y-48369462D02*
X170803126Y-48274224D01*
X170803126Y-48274224D02*
X170755507Y-48178986D01*
X170755507Y-48178986D02*
X170707888Y-48131367D01*
X170707888Y-48131367D02*
X170612650Y-48083748D01*
X170612650Y-48083748D02*
X170422174Y-48036129D01*
X170422174Y-48036129D02*
X170326936Y-47988510D01*
X170326936Y-47988510D02*
X170279317Y-47940891D01*
X170279317Y-47940891D02*
X170231698Y-47845653D01*
X170231698Y-47845653D02*
X170231698Y-47750415D01*
X170231698Y-47750415D02*
X170279317Y-47655177D01*
X170279317Y-47655177D02*
X170326936Y-47607558D01*
X170326936Y-47607558D02*
X170422174Y-47559938D01*
X170422174Y-47559938D02*
X170660269Y-47559938D01*
X170660269Y-47559938D02*
X170803126Y-47607558D01*
X170993603Y-48655177D02*
X171755507Y-48655177D01*
X172184079Y-47559938D02*
X172279317Y-47559938D01*
X172279317Y-47559938D02*
X172374555Y-47607558D01*
X172374555Y-47607558D02*
X172422174Y-47655177D01*
X172422174Y-47655177D02*
X172469793Y-47750415D01*
X172469793Y-47750415D02*
X172517412Y-47940891D01*
X172517412Y-47940891D02*
X172517412Y-48178986D01*
X172517412Y-48178986D02*
X172469793Y-48369462D01*
X172469793Y-48369462D02*
X172422174Y-48464700D01*
X172422174Y-48464700D02*
X172374555Y-48512319D01*
X172374555Y-48512319D02*
X172279317Y-48559938D01*
X172279317Y-48559938D02*
X172184079Y-48559938D01*
X172184079Y-48559938D02*
X172088841Y-48512319D01*
X172088841Y-48512319D02*
X172041222Y-48464700D01*
X172041222Y-48464700D02*
X171993603Y-48369462D01*
X171993603Y-48369462D02*
X171945984Y-48178986D01*
X171945984Y-48178986D02*
X171945984Y-47940891D01*
X171945984Y-47940891D02*
X171993603Y-47750415D01*
X171993603Y-47750415D02*
X172041222Y-47655177D01*
X172041222Y-47655177D02*
X172088841Y-47607558D01*
X172088841Y-47607558D02*
X172184079Y-47559938D01*
X139640773Y-61169471D02*
X139640773Y-60169471D01*
X140688391Y-61169471D02*
X140355058Y-60693281D01*
X140116963Y-61169471D02*
X140116963Y-60169471D01*
X140116963Y-60169471D02*
X140497915Y-60169471D01*
X140497915Y-60169471D02*
X140593153Y-60217091D01*
X140593153Y-60217091D02*
X140640772Y-60264710D01*
X140640772Y-60264710D02*
X140688391Y-60359948D01*
X140688391Y-60359948D02*
X140688391Y-60502805D01*
X140688391Y-60502805D02*
X140640772Y-60598043D01*
X140640772Y-60598043D02*
X140593153Y-60645662D01*
X140593153Y-60645662D02*
X140497915Y-60693281D01*
X140497915Y-60693281D02*
X140116963Y-60693281D01*
X140878868Y-61264710D02*
X141640772Y-61264710D01*
X141783630Y-60169471D02*
X142450296Y-60169471D01*
X142450296Y-60169471D02*
X142021725Y-61169471D01*
X139640773Y-58629471D02*
X139640773Y-57629471D01*
X140688391Y-58629471D02*
X140355058Y-58153281D01*
X140116963Y-58629471D02*
X140116963Y-57629471D01*
X140116963Y-57629471D02*
X140497915Y-57629471D01*
X140497915Y-57629471D02*
X140593153Y-57677091D01*
X140593153Y-57677091D02*
X140640772Y-57724710D01*
X140640772Y-57724710D02*
X140688391Y-57819948D01*
X140688391Y-57819948D02*
X140688391Y-57962805D01*
X140688391Y-57962805D02*
X140640772Y-58058043D01*
X140640772Y-58058043D02*
X140593153Y-58105662D01*
X140593153Y-58105662D02*
X140497915Y-58153281D01*
X140497915Y-58153281D02*
X140116963Y-58153281D01*
X140878868Y-58724710D02*
X141640772Y-58724710D01*
X142307439Y-57629471D02*
X142116963Y-57629471D01*
X142116963Y-57629471D02*
X142021725Y-57677091D01*
X142021725Y-57677091D02*
X141974106Y-57724710D01*
X141974106Y-57724710D02*
X141878868Y-57867567D01*
X141878868Y-57867567D02*
X141831249Y-58058043D01*
X141831249Y-58058043D02*
X141831249Y-58438995D01*
X141831249Y-58438995D02*
X141878868Y-58534233D01*
X141878868Y-58534233D02*
X141926487Y-58581852D01*
X141926487Y-58581852D02*
X142021725Y-58629471D01*
X142021725Y-58629471D02*
X142212201Y-58629471D01*
X142212201Y-58629471D02*
X142307439Y-58581852D01*
X142307439Y-58581852D02*
X142355058Y-58534233D01*
X142355058Y-58534233D02*
X142402677Y-58438995D01*
X142402677Y-58438995D02*
X142402677Y-58200900D01*
X142402677Y-58200900D02*
X142355058Y-58105662D01*
X142355058Y-58105662D02*
X142307439Y-58058043D01*
X142307439Y-58058043D02*
X142212201Y-58010424D01*
X142212201Y-58010424D02*
X142021725Y-58010424D01*
X142021725Y-58010424D02*
X141926487Y-58058043D01*
X141926487Y-58058043D02*
X141878868Y-58105662D01*
X141878868Y-58105662D02*
X141831249Y-58200900D01*
X139640773Y-56089471D02*
X139640773Y-55089471D01*
X140688391Y-56089471D02*
X140355058Y-55613281D01*
X140116963Y-56089471D02*
X140116963Y-55089471D01*
X140116963Y-55089471D02*
X140497915Y-55089471D01*
X140497915Y-55089471D02*
X140593153Y-55137091D01*
X140593153Y-55137091D02*
X140640772Y-55184710D01*
X140640772Y-55184710D02*
X140688391Y-55279948D01*
X140688391Y-55279948D02*
X140688391Y-55422805D01*
X140688391Y-55422805D02*
X140640772Y-55518043D01*
X140640772Y-55518043D02*
X140593153Y-55565662D01*
X140593153Y-55565662D02*
X140497915Y-55613281D01*
X140497915Y-55613281D02*
X140116963Y-55613281D01*
X140878868Y-56184710D02*
X141640772Y-56184710D01*
X142355058Y-55089471D02*
X141878868Y-55089471D01*
X141878868Y-55089471D02*
X141831249Y-55565662D01*
X141831249Y-55565662D02*
X141878868Y-55518043D01*
X141878868Y-55518043D02*
X141974106Y-55470424D01*
X141974106Y-55470424D02*
X142212201Y-55470424D01*
X142212201Y-55470424D02*
X142307439Y-55518043D01*
X142307439Y-55518043D02*
X142355058Y-55565662D01*
X142355058Y-55565662D02*
X142402677Y-55660900D01*
X142402677Y-55660900D02*
X142402677Y-55898995D01*
X142402677Y-55898995D02*
X142355058Y-55994233D01*
X142355058Y-55994233D02*
X142307439Y-56041852D01*
X142307439Y-56041852D02*
X142212201Y-56089471D01*
X142212201Y-56089471D02*
X141974106Y-56089471D01*
X141974106Y-56089471D02*
X141878868Y-56041852D01*
X141878868Y-56041852D02*
X141831249Y-55994233D01*
X139640773Y-53549471D02*
X139640773Y-52549471D01*
X140688391Y-53549471D02*
X140355058Y-53073281D01*
X140116963Y-53549471D02*
X140116963Y-52549471D01*
X140116963Y-52549471D02*
X140497915Y-52549471D01*
X140497915Y-52549471D02*
X140593153Y-52597091D01*
X140593153Y-52597091D02*
X140640772Y-52644710D01*
X140640772Y-52644710D02*
X140688391Y-52739948D01*
X140688391Y-52739948D02*
X140688391Y-52882805D01*
X140688391Y-52882805D02*
X140640772Y-52978043D01*
X140640772Y-52978043D02*
X140593153Y-53025662D01*
X140593153Y-53025662D02*
X140497915Y-53073281D01*
X140497915Y-53073281D02*
X140116963Y-53073281D01*
X140878868Y-53644710D02*
X141640772Y-53644710D01*
X142307439Y-52882805D02*
X142307439Y-53549471D01*
X142069344Y-52501852D02*
X141831249Y-53216138D01*
X141831249Y-53216138D02*
X142450296Y-53216138D01*
%TO.C,U3*%
X151628095Y-67737380D02*
X151628095Y-68546904D01*
X151628095Y-68546904D02*
X151675714Y-68642142D01*
X151675714Y-68642142D02*
X151723333Y-68689761D01*
X151723333Y-68689761D02*
X151818571Y-68737380D01*
X151818571Y-68737380D02*
X152009047Y-68737380D01*
X152009047Y-68737380D02*
X152104285Y-68689761D01*
X152104285Y-68689761D02*
X152151904Y-68642142D01*
X152151904Y-68642142D02*
X152199523Y-68546904D01*
X152199523Y-68546904D02*
X152199523Y-67737380D01*
X152580476Y-67737380D02*
X153199523Y-67737380D01*
X153199523Y-67737380D02*
X152866190Y-68118333D01*
X152866190Y-68118333D02*
X153009047Y-68118333D01*
X153009047Y-68118333D02*
X153104285Y-68165952D01*
X153104285Y-68165952D02*
X153151904Y-68213571D01*
X153151904Y-68213571D02*
X153199523Y-68308809D01*
X153199523Y-68308809D02*
X153199523Y-68546904D01*
X153199523Y-68546904D02*
X153151904Y-68642142D01*
X153151904Y-68642142D02*
X153104285Y-68689761D01*
X153104285Y-68689761D02*
X153009047Y-68737380D01*
X153009047Y-68737380D02*
X152723333Y-68737380D01*
X152723333Y-68737380D02*
X152628095Y-68689761D01*
X152628095Y-68689761D02*
X152580476Y-68642142D01*
%TO.C,U2*%
X124968095Y-67737380D02*
X124968095Y-68546904D01*
X124968095Y-68546904D02*
X125015714Y-68642142D01*
X125015714Y-68642142D02*
X125063333Y-68689761D01*
X125063333Y-68689761D02*
X125158571Y-68737380D01*
X125158571Y-68737380D02*
X125349047Y-68737380D01*
X125349047Y-68737380D02*
X125444285Y-68689761D01*
X125444285Y-68689761D02*
X125491904Y-68642142D01*
X125491904Y-68642142D02*
X125539523Y-68546904D01*
X125539523Y-68546904D02*
X125539523Y-67737380D01*
X125968095Y-67832619D02*
X126015714Y-67785000D01*
X126015714Y-67785000D02*
X126110952Y-67737380D01*
X126110952Y-67737380D02*
X126349047Y-67737380D01*
X126349047Y-67737380D02*
X126444285Y-67785000D01*
X126444285Y-67785000D02*
X126491904Y-67832619D01*
X126491904Y-67832619D02*
X126539523Y-67927857D01*
X126539523Y-67927857D02*
X126539523Y-68023095D01*
X126539523Y-68023095D02*
X126491904Y-68165952D01*
X126491904Y-68165952D02*
X125920476Y-68737380D01*
X125920476Y-68737380D02*
X126539523Y-68737380D01*
%TO.C,U1*%
X180848095Y-70277380D02*
X180848095Y-71086904D01*
X180848095Y-71086904D02*
X180895714Y-71182142D01*
X180895714Y-71182142D02*
X180943333Y-71229761D01*
X180943333Y-71229761D02*
X181038571Y-71277380D01*
X181038571Y-71277380D02*
X181229047Y-71277380D01*
X181229047Y-71277380D02*
X181324285Y-71229761D01*
X181324285Y-71229761D02*
X181371904Y-71182142D01*
X181371904Y-71182142D02*
X181419523Y-71086904D01*
X181419523Y-71086904D02*
X181419523Y-70277380D01*
X182419523Y-71277380D02*
X181848095Y-71277380D01*
X182133809Y-71277380D02*
X182133809Y-70277380D01*
X182133809Y-70277380D02*
X182038571Y-70420238D01*
X182038571Y-70420238D02*
X181943333Y-70515476D01*
X181943333Y-70515476D02*
X181848095Y-70563095D01*
%TO.C,RN1*%
X147899523Y-91667380D02*
X147566190Y-91191190D01*
X147328095Y-91667380D02*
X147328095Y-90667380D01*
X147328095Y-90667380D02*
X147709047Y-90667380D01*
X147709047Y-90667380D02*
X147804285Y-90715000D01*
X147804285Y-90715000D02*
X147851904Y-90762619D01*
X147851904Y-90762619D02*
X147899523Y-90857857D01*
X147899523Y-90857857D02*
X147899523Y-91000714D01*
X147899523Y-91000714D02*
X147851904Y-91095952D01*
X147851904Y-91095952D02*
X147804285Y-91143571D01*
X147804285Y-91143571D02*
X147709047Y-91191190D01*
X147709047Y-91191190D02*
X147328095Y-91191190D01*
X148328095Y-91667380D02*
X148328095Y-90667380D01*
X148328095Y-90667380D02*
X148899523Y-91667380D01*
X148899523Y-91667380D02*
X148899523Y-90667380D01*
X149899523Y-91667380D02*
X149328095Y-91667380D01*
X149613809Y-91667380D02*
X149613809Y-90667380D01*
X149613809Y-90667380D02*
X149518571Y-90810238D01*
X149518571Y-90810238D02*
X149423333Y-90905476D01*
X149423333Y-90905476D02*
X149328095Y-90953095D01*
%TO.C,J3*%
X136826666Y-49937380D02*
X136826666Y-50651666D01*
X136826666Y-50651666D02*
X136779047Y-50794523D01*
X136779047Y-50794523D02*
X136683809Y-50889761D01*
X136683809Y-50889761D02*
X136540952Y-50937380D01*
X136540952Y-50937380D02*
X136445714Y-50937380D01*
X137207619Y-49937380D02*
X137826666Y-49937380D01*
X137826666Y-49937380D02*
X137493333Y-50318333D01*
X137493333Y-50318333D02*
X137636190Y-50318333D01*
X137636190Y-50318333D02*
X137731428Y-50365952D01*
X137731428Y-50365952D02*
X137779047Y-50413571D01*
X137779047Y-50413571D02*
X137826666Y-50508809D01*
X137826666Y-50508809D02*
X137826666Y-50746904D01*
X137826666Y-50746904D02*
X137779047Y-50842142D01*
X137779047Y-50842142D02*
X137731428Y-50889761D01*
X137731428Y-50889761D02*
X137636190Y-50937380D01*
X137636190Y-50937380D02*
X137350476Y-50937380D01*
X137350476Y-50937380D02*
X137255238Y-50889761D01*
X137255238Y-50889761D02*
X137207619Y-50842142D01*
%TO.C,J2*%
X190166666Y-72797380D02*
X190166666Y-73511666D01*
X190166666Y-73511666D02*
X190119047Y-73654523D01*
X190119047Y-73654523D02*
X190023809Y-73749761D01*
X190023809Y-73749761D02*
X189880952Y-73797380D01*
X189880952Y-73797380D02*
X189785714Y-73797380D01*
X190595238Y-72892619D02*
X190642857Y-72845000D01*
X190642857Y-72845000D02*
X190738095Y-72797380D01*
X190738095Y-72797380D02*
X190976190Y-72797380D01*
X190976190Y-72797380D02*
X191071428Y-72845000D01*
X191071428Y-72845000D02*
X191119047Y-72892619D01*
X191119047Y-72892619D02*
X191166666Y-72987857D01*
X191166666Y-72987857D02*
X191166666Y-73083095D01*
X191166666Y-73083095D02*
X191119047Y-73225952D01*
X191119047Y-73225952D02*
X190547619Y-73797380D01*
X190547619Y-73797380D02*
X191166666Y-73797380D01*
%TO.C,J1*%
X164766666Y-44857380D02*
X164766666Y-45571666D01*
X164766666Y-45571666D02*
X164719047Y-45714523D01*
X164719047Y-45714523D02*
X164623809Y-45809761D01*
X164623809Y-45809761D02*
X164480952Y-45857380D01*
X164480952Y-45857380D02*
X164385714Y-45857380D01*
X165766666Y-45857380D02*
X165195238Y-45857380D01*
X165480952Y-45857380D02*
X165480952Y-44857380D01*
X165480952Y-44857380D02*
X165385714Y-45000238D01*
X165385714Y-45000238D02*
X165290476Y-45095476D01*
X165290476Y-45095476D02*
X165195238Y-45143095D01*
%TO.C,D8*%
X176747380Y-80748094D02*
X175747380Y-80748094D01*
X175747380Y-80748094D02*
X175747380Y-80509999D01*
X175747380Y-80509999D02*
X175795000Y-80367142D01*
X175795000Y-80367142D02*
X175890238Y-80271904D01*
X175890238Y-80271904D02*
X175985476Y-80224285D01*
X175985476Y-80224285D02*
X176175952Y-80176666D01*
X176175952Y-80176666D02*
X176318809Y-80176666D01*
X176318809Y-80176666D02*
X176509285Y-80224285D01*
X176509285Y-80224285D02*
X176604523Y-80271904D01*
X176604523Y-80271904D02*
X176699761Y-80367142D01*
X176699761Y-80367142D02*
X176747380Y-80509999D01*
X176747380Y-80509999D02*
X176747380Y-80748094D01*
X176175952Y-79605237D02*
X176128333Y-79700475D01*
X176128333Y-79700475D02*
X176080714Y-79748094D01*
X176080714Y-79748094D02*
X175985476Y-79795713D01*
X175985476Y-79795713D02*
X175937857Y-79795713D01*
X175937857Y-79795713D02*
X175842619Y-79748094D01*
X175842619Y-79748094D02*
X175795000Y-79700475D01*
X175795000Y-79700475D02*
X175747380Y-79605237D01*
X175747380Y-79605237D02*
X175747380Y-79414761D01*
X175747380Y-79414761D02*
X175795000Y-79319523D01*
X175795000Y-79319523D02*
X175842619Y-79271904D01*
X175842619Y-79271904D02*
X175937857Y-79224285D01*
X175937857Y-79224285D02*
X175985476Y-79224285D01*
X175985476Y-79224285D02*
X176080714Y-79271904D01*
X176080714Y-79271904D02*
X176128333Y-79319523D01*
X176128333Y-79319523D02*
X176175952Y-79414761D01*
X176175952Y-79414761D02*
X176175952Y-79605237D01*
X176175952Y-79605237D02*
X176223571Y-79700475D01*
X176223571Y-79700475D02*
X176271190Y-79748094D01*
X176271190Y-79748094D02*
X176366428Y-79795713D01*
X176366428Y-79795713D02*
X176556904Y-79795713D01*
X176556904Y-79795713D02*
X176652142Y-79748094D01*
X176652142Y-79748094D02*
X176699761Y-79700475D01*
X176699761Y-79700475D02*
X176747380Y-79605237D01*
X176747380Y-79605237D02*
X176747380Y-79414761D01*
X176747380Y-79414761D02*
X176699761Y-79319523D01*
X176699761Y-79319523D02*
X176652142Y-79271904D01*
X176652142Y-79271904D02*
X176556904Y-79224285D01*
X176556904Y-79224285D02*
X176366428Y-79224285D01*
X176366428Y-79224285D02*
X176271190Y-79271904D01*
X176271190Y-79271904D02*
X176223571Y-79319523D01*
X176223571Y-79319523D02*
X176175952Y-79414761D01*
%TO.C,D7*%
X166587380Y-80748094D02*
X165587380Y-80748094D01*
X165587380Y-80748094D02*
X165587380Y-80509999D01*
X165587380Y-80509999D02*
X165635000Y-80367142D01*
X165635000Y-80367142D02*
X165730238Y-80271904D01*
X165730238Y-80271904D02*
X165825476Y-80224285D01*
X165825476Y-80224285D02*
X166015952Y-80176666D01*
X166015952Y-80176666D02*
X166158809Y-80176666D01*
X166158809Y-80176666D02*
X166349285Y-80224285D01*
X166349285Y-80224285D02*
X166444523Y-80271904D01*
X166444523Y-80271904D02*
X166539761Y-80367142D01*
X166539761Y-80367142D02*
X166587380Y-80509999D01*
X166587380Y-80509999D02*
X166587380Y-80748094D01*
X165587380Y-79843332D02*
X165587380Y-79176666D01*
X165587380Y-79176666D02*
X166587380Y-79605237D01*
%TO.C,D6*%
X156427380Y-80748094D02*
X155427380Y-80748094D01*
X155427380Y-80748094D02*
X155427380Y-80509999D01*
X155427380Y-80509999D02*
X155475000Y-80367142D01*
X155475000Y-80367142D02*
X155570238Y-80271904D01*
X155570238Y-80271904D02*
X155665476Y-80224285D01*
X155665476Y-80224285D02*
X155855952Y-80176666D01*
X155855952Y-80176666D02*
X155998809Y-80176666D01*
X155998809Y-80176666D02*
X156189285Y-80224285D01*
X156189285Y-80224285D02*
X156284523Y-80271904D01*
X156284523Y-80271904D02*
X156379761Y-80367142D01*
X156379761Y-80367142D02*
X156427380Y-80509999D01*
X156427380Y-80509999D02*
X156427380Y-80748094D01*
X155427380Y-79319523D02*
X155427380Y-79509999D01*
X155427380Y-79509999D02*
X155475000Y-79605237D01*
X155475000Y-79605237D02*
X155522619Y-79652856D01*
X155522619Y-79652856D02*
X155665476Y-79748094D01*
X155665476Y-79748094D02*
X155855952Y-79795713D01*
X155855952Y-79795713D02*
X156236904Y-79795713D01*
X156236904Y-79795713D02*
X156332142Y-79748094D01*
X156332142Y-79748094D02*
X156379761Y-79700475D01*
X156379761Y-79700475D02*
X156427380Y-79605237D01*
X156427380Y-79605237D02*
X156427380Y-79414761D01*
X156427380Y-79414761D02*
X156379761Y-79319523D01*
X156379761Y-79319523D02*
X156332142Y-79271904D01*
X156332142Y-79271904D02*
X156236904Y-79224285D01*
X156236904Y-79224285D02*
X155998809Y-79224285D01*
X155998809Y-79224285D02*
X155903571Y-79271904D01*
X155903571Y-79271904D02*
X155855952Y-79319523D01*
X155855952Y-79319523D02*
X155808333Y-79414761D01*
X155808333Y-79414761D02*
X155808333Y-79605237D01*
X155808333Y-79605237D02*
X155855952Y-79700475D01*
X155855952Y-79700475D02*
X155903571Y-79748094D01*
X155903571Y-79748094D02*
X155998809Y-79795713D01*
%TO.C,D5*%
X146267380Y-80748094D02*
X145267380Y-80748094D01*
X145267380Y-80748094D02*
X145267380Y-80509999D01*
X145267380Y-80509999D02*
X145315000Y-80367142D01*
X145315000Y-80367142D02*
X145410238Y-80271904D01*
X145410238Y-80271904D02*
X145505476Y-80224285D01*
X145505476Y-80224285D02*
X145695952Y-80176666D01*
X145695952Y-80176666D02*
X145838809Y-80176666D01*
X145838809Y-80176666D02*
X146029285Y-80224285D01*
X146029285Y-80224285D02*
X146124523Y-80271904D01*
X146124523Y-80271904D02*
X146219761Y-80367142D01*
X146219761Y-80367142D02*
X146267380Y-80509999D01*
X146267380Y-80509999D02*
X146267380Y-80748094D01*
X145267380Y-79271904D02*
X145267380Y-79748094D01*
X145267380Y-79748094D02*
X145743571Y-79795713D01*
X145743571Y-79795713D02*
X145695952Y-79748094D01*
X145695952Y-79748094D02*
X145648333Y-79652856D01*
X145648333Y-79652856D02*
X145648333Y-79414761D01*
X145648333Y-79414761D02*
X145695952Y-79319523D01*
X145695952Y-79319523D02*
X145743571Y-79271904D01*
X145743571Y-79271904D02*
X145838809Y-79224285D01*
X145838809Y-79224285D02*
X146076904Y-79224285D01*
X146076904Y-79224285D02*
X146172142Y-79271904D01*
X146172142Y-79271904D02*
X146219761Y-79319523D01*
X146219761Y-79319523D02*
X146267380Y-79414761D01*
X146267380Y-79414761D02*
X146267380Y-79652856D01*
X146267380Y-79652856D02*
X146219761Y-79748094D01*
X146219761Y-79748094D02*
X146172142Y-79795713D01*
%TO.C,D4*%
X136107380Y-80748094D02*
X135107380Y-80748094D01*
X135107380Y-80748094D02*
X135107380Y-80509999D01*
X135107380Y-80509999D02*
X135155000Y-80367142D01*
X135155000Y-80367142D02*
X135250238Y-80271904D01*
X135250238Y-80271904D02*
X135345476Y-80224285D01*
X135345476Y-80224285D02*
X135535952Y-80176666D01*
X135535952Y-80176666D02*
X135678809Y-80176666D01*
X135678809Y-80176666D02*
X135869285Y-80224285D01*
X135869285Y-80224285D02*
X135964523Y-80271904D01*
X135964523Y-80271904D02*
X136059761Y-80367142D01*
X136059761Y-80367142D02*
X136107380Y-80509999D01*
X136107380Y-80509999D02*
X136107380Y-80748094D01*
X135440714Y-79319523D02*
X136107380Y-79319523D01*
X135059761Y-79557618D02*
X135774047Y-79795713D01*
X135774047Y-79795713D02*
X135774047Y-79176666D01*
%TO.C,D3*%
X125947380Y-80748094D02*
X124947380Y-80748094D01*
X124947380Y-80748094D02*
X124947380Y-80509999D01*
X124947380Y-80509999D02*
X124995000Y-80367142D01*
X124995000Y-80367142D02*
X125090238Y-80271904D01*
X125090238Y-80271904D02*
X125185476Y-80224285D01*
X125185476Y-80224285D02*
X125375952Y-80176666D01*
X125375952Y-80176666D02*
X125518809Y-80176666D01*
X125518809Y-80176666D02*
X125709285Y-80224285D01*
X125709285Y-80224285D02*
X125804523Y-80271904D01*
X125804523Y-80271904D02*
X125899761Y-80367142D01*
X125899761Y-80367142D02*
X125947380Y-80509999D01*
X125947380Y-80509999D02*
X125947380Y-80748094D01*
X124947380Y-79843332D02*
X124947380Y-79224285D01*
X124947380Y-79224285D02*
X125328333Y-79557618D01*
X125328333Y-79557618D02*
X125328333Y-79414761D01*
X125328333Y-79414761D02*
X125375952Y-79319523D01*
X125375952Y-79319523D02*
X125423571Y-79271904D01*
X125423571Y-79271904D02*
X125518809Y-79224285D01*
X125518809Y-79224285D02*
X125756904Y-79224285D01*
X125756904Y-79224285D02*
X125852142Y-79271904D01*
X125852142Y-79271904D02*
X125899761Y-79319523D01*
X125899761Y-79319523D02*
X125947380Y-79414761D01*
X125947380Y-79414761D02*
X125947380Y-79700475D01*
X125947380Y-79700475D02*
X125899761Y-79795713D01*
X125899761Y-79795713D02*
X125852142Y-79843332D01*
%TO.C,D2*%
X115787380Y-80748094D02*
X114787380Y-80748094D01*
X114787380Y-80748094D02*
X114787380Y-80509999D01*
X114787380Y-80509999D02*
X114835000Y-80367142D01*
X114835000Y-80367142D02*
X114930238Y-80271904D01*
X114930238Y-80271904D02*
X115025476Y-80224285D01*
X115025476Y-80224285D02*
X115215952Y-80176666D01*
X115215952Y-80176666D02*
X115358809Y-80176666D01*
X115358809Y-80176666D02*
X115549285Y-80224285D01*
X115549285Y-80224285D02*
X115644523Y-80271904D01*
X115644523Y-80271904D02*
X115739761Y-80367142D01*
X115739761Y-80367142D02*
X115787380Y-80509999D01*
X115787380Y-80509999D02*
X115787380Y-80748094D01*
X114882619Y-79795713D02*
X114835000Y-79748094D01*
X114835000Y-79748094D02*
X114787380Y-79652856D01*
X114787380Y-79652856D02*
X114787380Y-79414761D01*
X114787380Y-79414761D02*
X114835000Y-79319523D01*
X114835000Y-79319523D02*
X114882619Y-79271904D01*
X114882619Y-79271904D02*
X114977857Y-79224285D01*
X114977857Y-79224285D02*
X115073095Y-79224285D01*
X115073095Y-79224285D02*
X115215952Y-79271904D01*
X115215952Y-79271904D02*
X115787380Y-79843332D01*
X115787380Y-79843332D02*
X115787380Y-79224285D01*
%TO.C,D1*%
X105627380Y-80748094D02*
X104627380Y-80748094D01*
X104627380Y-80748094D02*
X104627380Y-80509999D01*
X104627380Y-80509999D02*
X104675000Y-80367142D01*
X104675000Y-80367142D02*
X104770238Y-80271904D01*
X104770238Y-80271904D02*
X104865476Y-80224285D01*
X104865476Y-80224285D02*
X105055952Y-80176666D01*
X105055952Y-80176666D02*
X105198809Y-80176666D01*
X105198809Y-80176666D02*
X105389285Y-80224285D01*
X105389285Y-80224285D02*
X105484523Y-80271904D01*
X105484523Y-80271904D02*
X105579761Y-80367142D01*
X105579761Y-80367142D02*
X105627380Y-80509999D01*
X105627380Y-80509999D02*
X105627380Y-80748094D01*
X105627380Y-79224285D02*
X105627380Y-79795713D01*
X105627380Y-79509999D02*
X104627380Y-79509999D01*
X104627380Y-79509999D02*
X104770238Y-79605237D01*
X104770238Y-79605237D02*
X104865476Y-79700475D01*
X104865476Y-79700475D02*
X104913095Y-79795713D01*
D11*
%TO.C,U3*%
X155040000Y-46930000D02*
X149740000Y-46930000D01*
X147250000Y-67430000D02*
X157530000Y-67430000D01*
X149740000Y-46930000D02*
X149740000Y-67370000D01*
X153390000Y-67370000D02*
X155040000Y-67370000D01*
X149740000Y-67370000D02*
X151390000Y-67370000D01*
X155040000Y-67370000D02*
X155040000Y-46930000D01*
X147250000Y-46870000D02*
X147250000Y-67430000D01*
X157530000Y-67430000D02*
X157530000Y-46870000D01*
X157530000Y-46870000D02*
X147250000Y-46870000D01*
X153390000Y-67370000D02*
G75*
G03*
X151390000Y-67370000I-1000000J0D01*
G01*
%TO.C,U2*%
X128380000Y-46930000D02*
X123080000Y-46930000D01*
X120590000Y-67430000D02*
X130870000Y-67430000D01*
X123080000Y-46930000D02*
X123080000Y-67370000D01*
X126730000Y-67370000D02*
X128380000Y-67370000D01*
X123080000Y-67370000D02*
X124730000Y-67370000D01*
X128380000Y-67370000D02*
X128380000Y-46930000D01*
X120590000Y-46870000D02*
X120590000Y-67430000D01*
X130870000Y-67430000D02*
X130870000Y-46870000D01*
X130870000Y-46870000D02*
X120590000Y-46870000D01*
X126730000Y-67370000D02*
G75*
G03*
X124730000Y-67370000I-1000000J0D01*
G01*
%TO.C,U1*%
X186750000Y-69970000D02*
X186750000Y-44330000D01*
X184260000Y-69910000D02*
X184260000Y-44390000D01*
X184260000Y-44390000D02*
X178960000Y-44390000D01*
X176470000Y-69970000D02*
X186750000Y-69970000D01*
X182610000Y-69910000D02*
X184260000Y-69910000D01*
X186750000Y-44330000D02*
X176470000Y-44330000D01*
X176470000Y-44330000D02*
X176470000Y-69970000D01*
X178960000Y-44390000D02*
X178960000Y-69910000D01*
X178960000Y-69910000D02*
X180610000Y-69910000D01*
X182610000Y-69910000D02*
G75*
G03*
X180610000Y-69910000I-1000000J0D01*
G01*
%TO.C,RN1*%
X138260000Y-87500000D02*
X138260000Y-90300000D01*
X158750000Y-90300000D02*
X158750000Y-87500000D01*
X161460000Y-87500000D02*
X138260000Y-87500000D01*
X138260000Y-90300000D02*
X161460000Y-90300000D01*
X161460000Y-90300000D02*
X161460000Y-87500000D01*
%TO.C,J3*%
X137160000Y-52010000D02*
X138490000Y-52010000D01*
X138490000Y-52010000D02*
X138490000Y-53340000D01*
X135830000Y-54610000D02*
X135830000Y-62290000D01*
X135830000Y-54610000D02*
X138490000Y-54610000D01*
X138490000Y-54610000D02*
X138490000Y-62290000D01*
X135830000Y-62290000D02*
X138490000Y-62290000D01*
%TO.C,J2*%
X190500000Y-74870000D02*
X191830000Y-74870000D01*
X189170000Y-77470000D02*
X191830000Y-77470000D01*
X191830000Y-77470000D02*
X191830000Y-90230000D01*
X191830000Y-74870000D02*
X191830000Y-76200000D01*
X189170000Y-77470000D02*
X189170000Y-90230000D01*
X189170000Y-90230000D02*
X191830000Y-90230000D01*
%TO.C,J1*%
X166430000Y-46930000D02*
X166430000Y-48260000D01*
X163770000Y-49530000D02*
X166430000Y-49530000D01*
X166430000Y-49530000D02*
X166430000Y-67370000D01*
X163770000Y-67370000D02*
X166430000Y-67370000D01*
X163770000Y-49530000D02*
X163770000Y-67370000D01*
X165100000Y-46930000D02*
X166430000Y-46930000D01*
%TO.C,D8*%
X178795000Y-82570000D02*
X181885000Y-82570000D01*
X181884830Y-82570000D02*
G75*
G03*
X180339538Y-77020000I-1544830J2560000D01*
G01*
X180340462Y-77020001D02*
G75*
G03*
X178795170Y-82569999I-462J-2989999D01*
G01*
X182840000Y-80010000D02*
G75*
G03*
X182840000Y-80010000I-2500000J0D01*
G01*
%TO.C,D7*%
X168635000Y-82570000D02*
X171725000Y-82570000D01*
X171724830Y-82570000D02*
G75*
G03*
X170179538Y-77020000I-1544830J2560000D01*
G01*
X170180462Y-77020001D02*
G75*
G03*
X168635170Y-82569999I-462J-2989999D01*
G01*
X172680000Y-80010000D02*
G75*
G03*
X172680000Y-80010000I-2500000J0D01*
G01*
%TO.C,D6*%
X158475000Y-82570000D02*
X161565000Y-82570000D01*
X161564830Y-82570000D02*
G75*
G03*
X160019538Y-77020000I-1544830J2560000D01*
G01*
X160020462Y-77020001D02*
G75*
G03*
X158475170Y-82569999I-462J-2989999D01*
G01*
X162520000Y-80010000D02*
G75*
G03*
X162520000Y-80010000I-2500000J0D01*
G01*
%TO.C,D5*%
X148315000Y-82570000D02*
X151405000Y-82570000D01*
X151404830Y-82570000D02*
G75*
G03*
X149859538Y-77020000I-1544830J2560000D01*
G01*
X149860462Y-77020001D02*
G75*
G03*
X148315170Y-82569999I-462J-2989999D01*
G01*
X152360000Y-80010000D02*
G75*
G03*
X152360000Y-80010000I-2500000J0D01*
G01*
%TO.C,D4*%
X138155000Y-82570000D02*
X141245000Y-82570000D01*
X141244830Y-82570000D02*
G75*
G03*
X139699538Y-77020000I-1544830J2560000D01*
G01*
X139700462Y-77020001D02*
G75*
G03*
X138155170Y-82569999I-462J-2989999D01*
G01*
X142200000Y-80010000D02*
G75*
G03*
X142200000Y-80010000I-2500000J0D01*
G01*
%TO.C,D3*%
X127995000Y-82570000D02*
X131085000Y-82570000D01*
X131084830Y-82570000D02*
G75*
G03*
X129539538Y-77020000I-1544830J2560000D01*
G01*
X129540462Y-77020001D02*
G75*
G03*
X127995170Y-82569999I-462J-2989999D01*
G01*
X132040000Y-80010000D02*
G75*
G03*
X132040000Y-80010000I-2500000J0D01*
G01*
%TO.C,D2*%
X117835000Y-82570000D02*
X120925000Y-82570000D01*
X120924830Y-82570000D02*
G75*
G03*
X119379538Y-77020000I-1544830J2560000D01*
G01*
X119380462Y-77020001D02*
G75*
G03*
X117835170Y-82569999I-462J-2989999D01*
G01*
X121880000Y-80010000D02*
G75*
G03*
X121880000Y-80010000I-2500000J0D01*
G01*
%TO.C,D1*%
X107675000Y-82570000D02*
X110765000Y-82570000D01*
X110764830Y-82570000D02*
G75*
G03*
X109219538Y-77020000I-1544830J2560000D01*
G01*
X109220462Y-77020001D02*
G75*
G03*
X107675170Y-82569999I-462J-2989999D01*
G01*
X111720000Y-80010000D02*
G75*
G03*
X111720000Y-80010000I-2500000J0D01*
G01*
%TD*%
M02*
