%TF.GenerationSoftware,KiCad,Pcbnew,(7.0.0)*%
%TF.CreationDate,2023-03-05T21:28:28-05:00*%
%TF.ProjectId,8bc_ir,3862635f-6972-42e6-9b69-6361645f7063,rev?*%
%TF.SameCoordinates,Original*%
%TF.FileFunction,Drillmap*%
%TF.FilePolarity,Positive*%
%FSLAX45Y45*%
G04 Gerber Fmt 4.5, Leading zero omitted, Abs format (unit mm)*
G04 Created by KiCad (PCBNEW (7.0.0)) date 2023-03-05 21:28:28*
%MOMM*%
%LPD*%
G01*
G04 APERTURE LIST*
%ADD10C,0.100000*%
%ADD11C,0.200000*%
%ADD12C,0.040000*%
%ADD13C,0.080000*%
%ADD14C,0.090000*%
G04 APERTURE END LIST*
D10*
X10414000Y-3048000D02*
X19812000Y-3048000D01*
X19812000Y-3048000D02*
X19812000Y-9398000D01*
X19812000Y-9398000D02*
X10414000Y-9398000D01*
X10414000Y-9398000D02*
X10414000Y-3048000D01*
D11*
D12*
X14131550Y-5314000D02*
X14171550Y-5354000D01*
X14171550Y-5314000D02*
X14131550Y-5354000D01*
X14977950Y-5060000D02*
X15017950Y-5100000D01*
X15017950Y-5060000D02*
X14977950Y-5100000D01*
X15220000Y-6838000D02*
X15260000Y-6878000D01*
X15260000Y-6838000D02*
X15220000Y-6878000D01*
X15460050Y-6076000D02*
X15500050Y-6116000D01*
X15500050Y-6076000D02*
X15460050Y-6116000D01*
X15737801Y-6100431D02*
X15777801Y-6140431D01*
X15777801Y-6100431D02*
X15737801Y-6140431D01*
X15800450Y-5265090D02*
X15840450Y-5305090D01*
X15840450Y-5265090D02*
X15800450Y-5305090D01*
X15800450Y-5519090D02*
X15840450Y-5559090D01*
X15840450Y-5519090D02*
X15800450Y-5559090D01*
X15962795Y-6095205D02*
X16002795Y-6135205D01*
X16002795Y-6095205D02*
X15962795Y-6135205D01*
X15974685Y-6337315D02*
X16014685Y-6377315D01*
X16014685Y-6337315D02*
X15974685Y-6377315D01*
X15982000Y-5822000D02*
X16022000Y-5862000D01*
X16022000Y-5822000D02*
X15982000Y-5862000D01*
X16120337Y-6265950D02*
X16160337Y-6305950D01*
X16160337Y-6265950D02*
X16120337Y-6305950D01*
X16236000Y-6265950D02*
X16276000Y-6305950D01*
X16276000Y-6265950D02*
X16236000Y-6305950D01*
X16308450Y-6838000D02*
X16348450Y-6878000D01*
X16348450Y-6838000D02*
X16308450Y-6878000D01*
X16335950Y-6265950D02*
X16375950Y-6305950D01*
X16375950Y-6265950D02*
X16335950Y-6305950D01*
X18014000Y-4806000D02*
X18054000Y-4846000D01*
X18054000Y-4806000D02*
X18014000Y-4846000D01*
X18014000Y-6330000D02*
X18054000Y-6370000D01*
X18054000Y-6330000D02*
X18014000Y-6370000D01*
D13*
X12232000Y-4826000D02*
G75*
G03*
X12232000Y-4826000I-40000J0D01*
G01*
X12232000Y-5080000D02*
G75*
G03*
X12232000Y-5080000I-40000J0D01*
G01*
X12232000Y-5334000D02*
G75*
G03*
X12232000Y-5334000I-40000J0D01*
G01*
X12232000Y-5588000D02*
G75*
G03*
X12232000Y-5588000I-40000J0D01*
G01*
X12232000Y-5842000D02*
G75*
G03*
X12232000Y-5842000I-40000J0D01*
G01*
X12232000Y-6096000D02*
G75*
G03*
X12232000Y-6096000I-40000J0D01*
G01*
X12232000Y-6350000D02*
G75*
G03*
X12232000Y-6350000I-40000J0D01*
G01*
X12232000Y-6604000D02*
G75*
G03*
X12232000Y-6604000I-40000J0D01*
G01*
X12994000Y-4826000D02*
G75*
G03*
X12994000Y-4826000I-40000J0D01*
G01*
X12994000Y-5080000D02*
G75*
G03*
X12994000Y-5080000I-40000J0D01*
G01*
X12994000Y-5334000D02*
G75*
G03*
X12994000Y-5334000I-40000J0D01*
G01*
X12994000Y-5588000D02*
G75*
G03*
X12994000Y-5588000I-40000J0D01*
G01*
X12994000Y-5842000D02*
G75*
G03*
X12994000Y-5842000I-40000J0D01*
G01*
X12994000Y-6096000D02*
G75*
G03*
X12994000Y-6096000I-40000J0D01*
G01*
X12994000Y-6350000D02*
G75*
G03*
X12994000Y-6350000I-40000J0D01*
G01*
X12994000Y-6604000D02*
G75*
G03*
X12994000Y-6604000I-40000J0D01*
G01*
X14010000Y-8890000D02*
G75*
G03*
X14010000Y-8890000I-40000J0D01*
G01*
X14264000Y-8890000D02*
G75*
G03*
X14264000Y-8890000I-40000J0D01*
G01*
X14518000Y-8890000D02*
G75*
G03*
X14518000Y-8890000I-40000J0D01*
G01*
X14772000Y-8890000D02*
G75*
G03*
X14772000Y-8890000I-40000J0D01*
G01*
X14898000Y-4826000D02*
G75*
G03*
X14898000Y-4826000I-40000J0D01*
G01*
X14898000Y-5080000D02*
G75*
G03*
X14898000Y-5080000I-40000J0D01*
G01*
X14898000Y-5334000D02*
G75*
G03*
X14898000Y-5334000I-40000J0D01*
G01*
X14898000Y-5588000D02*
G75*
G03*
X14898000Y-5588000I-40000J0D01*
G01*
X14898000Y-5842000D02*
G75*
G03*
X14898000Y-5842000I-40000J0D01*
G01*
X14898000Y-6096000D02*
G75*
G03*
X14898000Y-6096000I-40000J0D01*
G01*
X14898000Y-6350000D02*
G75*
G03*
X14898000Y-6350000I-40000J0D01*
G01*
X14898000Y-6604000D02*
G75*
G03*
X14898000Y-6604000I-40000J0D01*
G01*
X15026000Y-8890000D02*
G75*
G03*
X15026000Y-8890000I-40000J0D01*
G01*
X15280000Y-8890000D02*
G75*
G03*
X15280000Y-8890000I-40000J0D01*
G01*
X15534000Y-8890000D02*
G75*
G03*
X15534000Y-8890000I-40000J0D01*
G01*
X15660000Y-4826000D02*
G75*
G03*
X15660000Y-4826000I-40000J0D01*
G01*
X15660000Y-5080000D02*
G75*
G03*
X15660000Y-5080000I-40000J0D01*
G01*
X15660000Y-5334000D02*
G75*
G03*
X15660000Y-5334000I-40000J0D01*
G01*
X15660000Y-5588000D02*
G75*
G03*
X15660000Y-5588000I-40000J0D01*
G01*
X15660000Y-5842000D02*
G75*
G03*
X15660000Y-5842000I-40000J0D01*
G01*
X15660000Y-6096000D02*
G75*
G03*
X15660000Y-6096000I-40000J0D01*
G01*
X15660000Y-6350000D02*
G75*
G03*
X15660000Y-6350000I-40000J0D01*
G01*
X15660000Y-6604000D02*
G75*
G03*
X15660000Y-6604000I-40000J0D01*
G01*
X15788000Y-8890000D02*
G75*
G03*
X15788000Y-8890000I-40000J0D01*
G01*
X16042000Y-8890000D02*
G75*
G03*
X16042000Y-8890000I-40000J0D01*
G01*
X17820000Y-4572000D02*
G75*
G03*
X17820000Y-4572000I-40000J0D01*
G01*
X17820000Y-4826000D02*
G75*
G03*
X17820000Y-4826000I-40000J0D01*
G01*
X17820000Y-5080000D02*
G75*
G03*
X17820000Y-5080000I-40000J0D01*
G01*
X17820000Y-5334000D02*
G75*
G03*
X17820000Y-5334000I-40000J0D01*
G01*
X17820000Y-5588000D02*
G75*
G03*
X17820000Y-5588000I-40000J0D01*
G01*
X17820000Y-5842000D02*
G75*
G03*
X17820000Y-5842000I-40000J0D01*
G01*
X17820000Y-6096000D02*
G75*
G03*
X17820000Y-6096000I-40000J0D01*
G01*
X17820000Y-6350000D02*
G75*
G03*
X17820000Y-6350000I-40000J0D01*
G01*
X17820000Y-6604000D02*
G75*
G03*
X17820000Y-6604000I-40000J0D01*
G01*
X17820000Y-6858000D02*
G75*
G03*
X17820000Y-6858000I-40000J0D01*
G01*
X18582000Y-4572000D02*
G75*
G03*
X18582000Y-4572000I-40000J0D01*
G01*
X18582000Y-4826000D02*
G75*
G03*
X18582000Y-4826000I-40000J0D01*
G01*
X18582000Y-5080000D02*
G75*
G03*
X18582000Y-5080000I-40000J0D01*
G01*
X18582000Y-5334000D02*
G75*
G03*
X18582000Y-5334000I-40000J0D01*
G01*
X18582000Y-5588000D02*
G75*
G03*
X18582000Y-5588000I-40000J0D01*
G01*
X18582000Y-5842000D02*
G75*
G03*
X18582000Y-5842000I-40000J0D01*
G01*
X18582000Y-6096000D02*
G75*
G03*
X18582000Y-6096000I-40000J0D01*
G01*
X18582000Y-6350000D02*
G75*
G03*
X18582000Y-6350000I-40000J0D01*
G01*
X18582000Y-6604000D02*
G75*
G03*
X18582000Y-6604000I-40000J0D01*
G01*
X18582000Y-6858000D02*
G75*
G03*
X18582000Y-6858000I-40000J0D01*
G01*
D14*
X10922000Y-7829000D02*
X10922000Y-7919000D01*
X10877000Y-7874000D02*
X10967000Y-7874000D01*
X10922000Y-8083000D02*
X10922000Y-8173000D01*
X10877000Y-8128000D02*
X10967000Y-8128000D01*
X11938000Y-7829000D02*
X11938000Y-7919000D01*
X11893000Y-7874000D02*
X11983000Y-7874000D01*
X11938000Y-8083000D02*
X11938000Y-8173000D01*
X11893000Y-8128000D02*
X11983000Y-8128000D01*
X12954000Y-7829000D02*
X12954000Y-7919000D01*
X12909000Y-7874000D02*
X12999000Y-7874000D01*
X12954000Y-8083000D02*
X12954000Y-8173000D01*
X12909000Y-8128000D02*
X12999000Y-8128000D01*
X13970000Y-7829000D02*
X13970000Y-7919000D01*
X13925000Y-7874000D02*
X14015000Y-7874000D01*
X13970000Y-8083000D02*
X13970000Y-8173000D01*
X13925000Y-8128000D02*
X14015000Y-8128000D01*
X14986000Y-7829000D02*
X14986000Y-7919000D01*
X14941000Y-7874000D02*
X15031000Y-7874000D01*
X14986000Y-8083000D02*
X14986000Y-8173000D01*
X14941000Y-8128000D02*
X15031000Y-8128000D01*
X16002000Y-7829000D02*
X16002000Y-7919000D01*
X15957000Y-7874000D02*
X16047000Y-7874000D01*
X16002000Y-8083000D02*
X16002000Y-8173000D01*
X15957000Y-8128000D02*
X16047000Y-8128000D01*
X17018000Y-7829000D02*
X17018000Y-7919000D01*
X16973000Y-7874000D02*
X17063000Y-7874000D01*
X17018000Y-8083000D02*
X17018000Y-8173000D01*
X16973000Y-8128000D02*
X17063000Y-8128000D01*
X18034000Y-7829000D02*
X18034000Y-7919000D01*
X17989000Y-7874000D02*
X18079000Y-7874000D01*
X18034000Y-8083000D02*
X18034000Y-8173000D01*
X17989000Y-8128000D02*
X18079000Y-8128000D01*
D10*
X13751356Y-5369356D02*
X13751356Y-5298644D01*
X13680644Y-5298644D01*
X13680644Y-5369356D01*
X13751356Y-5369356D01*
X13751356Y-5623356D02*
X13751356Y-5552644D01*
X13680644Y-5552644D01*
X13680644Y-5623356D01*
X13751356Y-5623356D01*
X13751356Y-5877356D02*
X13751356Y-5806644D01*
X13680644Y-5806644D01*
X13680644Y-5877356D01*
X13751356Y-5877356D01*
X13751356Y-6131356D02*
X13751356Y-6060644D01*
X13680644Y-6060644D01*
X13680644Y-6131356D01*
X13751356Y-6131356D01*
X16545356Y-4861356D02*
X16545356Y-4790644D01*
X16474644Y-4790644D01*
X16474644Y-4861356D01*
X16545356Y-4861356D01*
X16545356Y-5115356D02*
X16545356Y-5044644D01*
X16474644Y-5044644D01*
X16474644Y-5115356D01*
X16545356Y-5115356D01*
X16545356Y-5369356D02*
X16545356Y-5298644D01*
X16474644Y-5298644D01*
X16474644Y-5369356D01*
X16545356Y-5369356D01*
X16545356Y-5623356D02*
X16545356Y-5552644D01*
X16474644Y-5552644D01*
X16474644Y-5623356D01*
X16545356Y-5623356D01*
X16545356Y-5877356D02*
X16545356Y-5806644D01*
X16474644Y-5806644D01*
X16474644Y-5877356D01*
X16545356Y-5877356D01*
X16545356Y-6131356D02*
X16545356Y-6060644D01*
X16474644Y-6060644D01*
X16474644Y-6131356D01*
X16545356Y-6131356D01*
X16545356Y-6385356D02*
X16545356Y-6314644D01*
X16474644Y-6314644D01*
X16474644Y-6385356D01*
X16545356Y-6385356D01*
X16545356Y-6639356D02*
X16545356Y-6568644D01*
X16474644Y-6568644D01*
X16474644Y-6639356D01*
X16545356Y-6639356D01*
X19085356Y-7655356D02*
X19085356Y-7584644D01*
X19014644Y-7584644D01*
X19014644Y-7655356D01*
X19085356Y-7655356D01*
X19085356Y-7909356D02*
X19085356Y-7838644D01*
X19014644Y-7838644D01*
X19014644Y-7909356D01*
X19085356Y-7909356D01*
X19085356Y-8163356D02*
X19085356Y-8092644D01*
X19014644Y-8092644D01*
X19014644Y-8163356D01*
X19085356Y-8163356D01*
X19085356Y-8417356D02*
X19085356Y-8346644D01*
X19014644Y-8346644D01*
X19014644Y-8417356D01*
X19085356Y-8417356D01*
X19085356Y-8671356D02*
X19085356Y-8600644D01*
X19014644Y-8600644D01*
X19014644Y-8671356D01*
X19085356Y-8671356D01*
X19085356Y-8925356D02*
X19085356Y-8854644D01*
X19014644Y-8854644D01*
X19014644Y-8925356D01*
X19085356Y-8925356D01*
D11*
X10656619Y-9696476D02*
X10656619Y-9496476D01*
X10656619Y-9496476D02*
X10704238Y-9496476D01*
X10704238Y-9496476D02*
X10732810Y-9506000D01*
X10732810Y-9506000D02*
X10751857Y-9525048D01*
X10751857Y-9525048D02*
X10761381Y-9544095D01*
X10761381Y-9544095D02*
X10770905Y-9582190D01*
X10770905Y-9582190D02*
X10770905Y-9610762D01*
X10770905Y-9610762D02*
X10761381Y-9648857D01*
X10761381Y-9648857D02*
X10751857Y-9667905D01*
X10751857Y-9667905D02*
X10732810Y-9686952D01*
X10732810Y-9686952D02*
X10704238Y-9696476D01*
X10704238Y-9696476D02*
X10656619Y-9696476D01*
X10856619Y-9696476D02*
X10856619Y-9563143D01*
X10856619Y-9601238D02*
X10866143Y-9582190D01*
X10866143Y-9582190D02*
X10875667Y-9572667D01*
X10875667Y-9572667D02*
X10894714Y-9563143D01*
X10894714Y-9563143D02*
X10913762Y-9563143D01*
X10980429Y-9696476D02*
X10980429Y-9563143D01*
X10980429Y-9496476D02*
X10970905Y-9506000D01*
X10970905Y-9506000D02*
X10980429Y-9515524D01*
X10980429Y-9515524D02*
X10989952Y-9506000D01*
X10989952Y-9506000D02*
X10980429Y-9496476D01*
X10980429Y-9496476D02*
X10980429Y-9515524D01*
X11104238Y-9696476D02*
X11085190Y-9686952D01*
X11085190Y-9686952D02*
X11075667Y-9667905D01*
X11075667Y-9667905D02*
X11075667Y-9496476D01*
X11209000Y-9696476D02*
X11189952Y-9686952D01*
X11189952Y-9686952D02*
X11180429Y-9667905D01*
X11180429Y-9667905D02*
X11180429Y-9496476D01*
X11405190Y-9696476D02*
X11405190Y-9496476D01*
X11405190Y-9496476D02*
X11471857Y-9639333D01*
X11471857Y-9639333D02*
X11538524Y-9496476D01*
X11538524Y-9496476D02*
X11538524Y-9696476D01*
X11719476Y-9696476D02*
X11719476Y-9591714D01*
X11719476Y-9591714D02*
X11709952Y-9572667D01*
X11709952Y-9572667D02*
X11690905Y-9563143D01*
X11690905Y-9563143D02*
X11652809Y-9563143D01*
X11652809Y-9563143D02*
X11633762Y-9572667D01*
X11719476Y-9686952D02*
X11700428Y-9696476D01*
X11700428Y-9696476D02*
X11652809Y-9696476D01*
X11652809Y-9696476D02*
X11633762Y-9686952D01*
X11633762Y-9686952D02*
X11624238Y-9667905D01*
X11624238Y-9667905D02*
X11624238Y-9648857D01*
X11624238Y-9648857D02*
X11633762Y-9629810D01*
X11633762Y-9629810D02*
X11652809Y-9620286D01*
X11652809Y-9620286D02*
X11700428Y-9620286D01*
X11700428Y-9620286D02*
X11719476Y-9610762D01*
X11814714Y-9563143D02*
X11814714Y-9763143D01*
X11814714Y-9572667D02*
X11833762Y-9563143D01*
X11833762Y-9563143D02*
X11871857Y-9563143D01*
X11871857Y-9563143D02*
X11890905Y-9572667D01*
X11890905Y-9572667D02*
X11900428Y-9582190D01*
X11900428Y-9582190D02*
X11909952Y-9601238D01*
X11909952Y-9601238D02*
X11909952Y-9658381D01*
X11909952Y-9658381D02*
X11900428Y-9677429D01*
X11900428Y-9677429D02*
X11890905Y-9686952D01*
X11890905Y-9686952D02*
X11871857Y-9696476D01*
X11871857Y-9696476D02*
X11833762Y-9696476D01*
X11833762Y-9696476D02*
X11814714Y-9686952D01*
X11995667Y-9677429D02*
X12005190Y-9686952D01*
X12005190Y-9686952D02*
X11995667Y-9696476D01*
X11995667Y-9696476D02*
X11986143Y-9686952D01*
X11986143Y-9686952D02*
X11995667Y-9677429D01*
X11995667Y-9677429D02*
X11995667Y-9696476D01*
X11995667Y-9572667D02*
X12005190Y-9582190D01*
X12005190Y-9582190D02*
X11995667Y-9591714D01*
X11995667Y-9591714D02*
X11986143Y-9582190D01*
X11986143Y-9582190D02*
X11995667Y-9572667D01*
X11995667Y-9572667D02*
X11995667Y-9591714D01*
D12*
X10369000Y-10023000D02*
X10409000Y-10063000D01*
X10409000Y-10023000D02*
X10369000Y-10063000D01*
D11*
X10694714Y-9916476D02*
X10713762Y-9916476D01*
X10713762Y-9916476D02*
X10732810Y-9926000D01*
X10732810Y-9926000D02*
X10742333Y-9935524D01*
X10742333Y-9935524D02*
X10751857Y-9954571D01*
X10751857Y-9954571D02*
X10761381Y-9992667D01*
X10761381Y-9992667D02*
X10761381Y-10040286D01*
X10761381Y-10040286D02*
X10751857Y-10078381D01*
X10751857Y-10078381D02*
X10742333Y-10097429D01*
X10742333Y-10097429D02*
X10732810Y-10106952D01*
X10732810Y-10106952D02*
X10713762Y-10116476D01*
X10713762Y-10116476D02*
X10694714Y-10116476D01*
X10694714Y-10116476D02*
X10675667Y-10106952D01*
X10675667Y-10106952D02*
X10666143Y-10097429D01*
X10666143Y-10097429D02*
X10656619Y-10078381D01*
X10656619Y-10078381D02*
X10647095Y-10040286D01*
X10647095Y-10040286D02*
X10647095Y-9992667D01*
X10647095Y-9992667D02*
X10656619Y-9954571D01*
X10656619Y-9954571D02*
X10666143Y-9935524D01*
X10666143Y-9935524D02*
X10675667Y-9926000D01*
X10675667Y-9926000D02*
X10694714Y-9916476D01*
X10847095Y-10097429D02*
X10856619Y-10106952D01*
X10856619Y-10106952D02*
X10847095Y-10116476D01*
X10847095Y-10116476D02*
X10837571Y-10106952D01*
X10837571Y-10106952D02*
X10847095Y-10097429D01*
X10847095Y-10097429D02*
X10847095Y-10116476D01*
X11028048Y-9983143D02*
X11028048Y-10116476D01*
X10980429Y-9906952D02*
X10932810Y-10049810D01*
X10932810Y-10049810D02*
X11056619Y-10049810D01*
X11170905Y-9916476D02*
X11189952Y-9916476D01*
X11189952Y-9916476D02*
X11209000Y-9926000D01*
X11209000Y-9926000D02*
X11218524Y-9935524D01*
X11218524Y-9935524D02*
X11228048Y-9954571D01*
X11228048Y-9954571D02*
X11237571Y-9992667D01*
X11237571Y-9992667D02*
X11237571Y-10040286D01*
X11237571Y-10040286D02*
X11228048Y-10078381D01*
X11228048Y-10078381D02*
X11218524Y-10097429D01*
X11218524Y-10097429D02*
X11209000Y-10106952D01*
X11209000Y-10106952D02*
X11189952Y-10116476D01*
X11189952Y-10116476D02*
X11170905Y-10116476D01*
X11170905Y-10116476D02*
X11151857Y-10106952D01*
X11151857Y-10106952D02*
X11142333Y-10097429D01*
X11142333Y-10097429D02*
X11132810Y-10078381D01*
X11132810Y-10078381D02*
X11123286Y-10040286D01*
X11123286Y-10040286D02*
X11123286Y-9992667D01*
X11123286Y-9992667D02*
X11132810Y-9954571D01*
X11132810Y-9954571D02*
X11142333Y-9935524D01*
X11142333Y-9935524D02*
X11151857Y-9926000D01*
X11151857Y-9926000D02*
X11170905Y-9916476D01*
X11361381Y-9916476D02*
X11380429Y-9916476D01*
X11380429Y-9916476D02*
X11399476Y-9926000D01*
X11399476Y-9926000D02*
X11409000Y-9935524D01*
X11409000Y-9935524D02*
X11418524Y-9954571D01*
X11418524Y-9954571D02*
X11428048Y-9992667D01*
X11428048Y-9992667D02*
X11428048Y-10040286D01*
X11428048Y-10040286D02*
X11418524Y-10078381D01*
X11418524Y-10078381D02*
X11409000Y-10097429D01*
X11409000Y-10097429D02*
X11399476Y-10106952D01*
X11399476Y-10106952D02*
X11380429Y-10116476D01*
X11380429Y-10116476D02*
X11361381Y-10116476D01*
X11361381Y-10116476D02*
X11342333Y-10106952D01*
X11342333Y-10106952D02*
X11332809Y-10097429D01*
X11332809Y-10097429D02*
X11323286Y-10078381D01*
X11323286Y-10078381D02*
X11313762Y-10040286D01*
X11313762Y-10040286D02*
X11313762Y-9992667D01*
X11313762Y-9992667D02*
X11323286Y-9954571D01*
X11323286Y-9954571D02*
X11332809Y-9935524D01*
X11332809Y-9935524D02*
X11342333Y-9926000D01*
X11342333Y-9926000D02*
X11361381Y-9916476D01*
X11513762Y-10116476D02*
X11513762Y-9983143D01*
X11513762Y-10002190D02*
X11523286Y-9992667D01*
X11523286Y-9992667D02*
X11542333Y-9983143D01*
X11542333Y-9983143D02*
X11570905Y-9983143D01*
X11570905Y-9983143D02*
X11589952Y-9992667D01*
X11589952Y-9992667D02*
X11599476Y-10011714D01*
X11599476Y-10011714D02*
X11599476Y-10116476D01*
X11599476Y-10011714D02*
X11609000Y-9992667D01*
X11609000Y-9992667D02*
X11628048Y-9983143D01*
X11628048Y-9983143D02*
X11656619Y-9983143D01*
X11656619Y-9983143D02*
X11675667Y-9992667D01*
X11675667Y-9992667D02*
X11685190Y-10011714D01*
X11685190Y-10011714D02*
X11685190Y-10116476D01*
X11780429Y-10116476D02*
X11780429Y-9983143D01*
X11780429Y-10002190D02*
X11789952Y-9992667D01*
X11789952Y-9992667D02*
X11809000Y-9983143D01*
X11809000Y-9983143D02*
X11837571Y-9983143D01*
X11837571Y-9983143D02*
X11856619Y-9992667D01*
X11856619Y-9992667D02*
X11866143Y-10011714D01*
X11866143Y-10011714D02*
X11866143Y-10116476D01*
X11866143Y-10011714D02*
X11875667Y-9992667D01*
X11875667Y-9992667D02*
X11894714Y-9983143D01*
X11894714Y-9983143D02*
X11923286Y-9983143D01*
X11923286Y-9983143D02*
X11942333Y-9992667D01*
X11942333Y-9992667D02*
X11951857Y-10011714D01*
X11951857Y-10011714D02*
X11951857Y-10116476D01*
X12309952Y-9906952D02*
X12138524Y-10164095D01*
X12534714Y-9916476D02*
X12553762Y-9916476D01*
X12553762Y-9916476D02*
X12572810Y-9926000D01*
X12572810Y-9926000D02*
X12582333Y-9935524D01*
X12582333Y-9935524D02*
X12591857Y-9954571D01*
X12591857Y-9954571D02*
X12601381Y-9992667D01*
X12601381Y-9992667D02*
X12601381Y-10040286D01*
X12601381Y-10040286D02*
X12591857Y-10078381D01*
X12591857Y-10078381D02*
X12582333Y-10097429D01*
X12582333Y-10097429D02*
X12572810Y-10106952D01*
X12572810Y-10106952D02*
X12553762Y-10116476D01*
X12553762Y-10116476D02*
X12534714Y-10116476D01*
X12534714Y-10116476D02*
X12515667Y-10106952D01*
X12515667Y-10106952D02*
X12506143Y-10097429D01*
X12506143Y-10097429D02*
X12496619Y-10078381D01*
X12496619Y-10078381D02*
X12487095Y-10040286D01*
X12487095Y-10040286D02*
X12487095Y-9992667D01*
X12487095Y-9992667D02*
X12496619Y-9954571D01*
X12496619Y-9954571D02*
X12506143Y-9935524D01*
X12506143Y-9935524D02*
X12515667Y-9926000D01*
X12515667Y-9926000D02*
X12534714Y-9916476D01*
X12687095Y-10097429D02*
X12696619Y-10106952D01*
X12696619Y-10106952D02*
X12687095Y-10116476D01*
X12687095Y-10116476D02*
X12677571Y-10106952D01*
X12677571Y-10106952D02*
X12687095Y-10097429D01*
X12687095Y-10097429D02*
X12687095Y-10116476D01*
X12820429Y-9916476D02*
X12839476Y-9916476D01*
X12839476Y-9916476D02*
X12858524Y-9926000D01*
X12858524Y-9926000D02*
X12868048Y-9935524D01*
X12868048Y-9935524D02*
X12877571Y-9954571D01*
X12877571Y-9954571D02*
X12887095Y-9992667D01*
X12887095Y-9992667D02*
X12887095Y-10040286D01*
X12887095Y-10040286D02*
X12877571Y-10078381D01*
X12877571Y-10078381D02*
X12868048Y-10097429D01*
X12868048Y-10097429D02*
X12858524Y-10106952D01*
X12858524Y-10106952D02*
X12839476Y-10116476D01*
X12839476Y-10116476D02*
X12820429Y-10116476D01*
X12820429Y-10116476D02*
X12801381Y-10106952D01*
X12801381Y-10106952D02*
X12791857Y-10097429D01*
X12791857Y-10097429D02*
X12782333Y-10078381D01*
X12782333Y-10078381D02*
X12772810Y-10040286D01*
X12772810Y-10040286D02*
X12772810Y-9992667D01*
X12772810Y-9992667D02*
X12782333Y-9954571D01*
X12782333Y-9954571D02*
X12791857Y-9935524D01*
X12791857Y-9935524D02*
X12801381Y-9926000D01*
X12801381Y-9926000D02*
X12820429Y-9916476D01*
X13077571Y-10116476D02*
X12963286Y-10116476D01*
X13020429Y-10116476D02*
X13020429Y-9916476D01*
X13020429Y-9916476D02*
X13001381Y-9945048D01*
X13001381Y-9945048D02*
X12982333Y-9964095D01*
X12982333Y-9964095D02*
X12963286Y-9973619D01*
X13258524Y-9916476D02*
X13163286Y-9916476D01*
X13163286Y-9916476D02*
X13153762Y-10011714D01*
X13153762Y-10011714D02*
X13163286Y-10002190D01*
X13163286Y-10002190D02*
X13182333Y-9992667D01*
X13182333Y-9992667D02*
X13229952Y-9992667D01*
X13229952Y-9992667D02*
X13249000Y-10002190D01*
X13249000Y-10002190D02*
X13258524Y-10011714D01*
X13258524Y-10011714D02*
X13268048Y-10030762D01*
X13268048Y-10030762D02*
X13268048Y-10078381D01*
X13268048Y-10078381D02*
X13258524Y-10097429D01*
X13258524Y-10097429D02*
X13249000Y-10106952D01*
X13249000Y-10106952D02*
X13229952Y-10116476D01*
X13229952Y-10116476D02*
X13182333Y-10116476D01*
X13182333Y-10116476D02*
X13163286Y-10106952D01*
X13163286Y-10106952D02*
X13153762Y-10097429D01*
X13334714Y-9916476D02*
X13468048Y-9916476D01*
X13468048Y-9916476D02*
X13382333Y-10116476D01*
X13534714Y-9916476D02*
X13534714Y-9954571D01*
X13610905Y-9916476D02*
X13610905Y-9954571D01*
X13873762Y-10192667D02*
X13864238Y-10183143D01*
X13864238Y-10183143D02*
X13845191Y-10154571D01*
X13845191Y-10154571D02*
X13835667Y-10135524D01*
X13835667Y-10135524D02*
X13826143Y-10106952D01*
X13826143Y-10106952D02*
X13816619Y-10059333D01*
X13816619Y-10059333D02*
X13816619Y-10021238D01*
X13816619Y-10021238D02*
X13826143Y-9973619D01*
X13826143Y-9973619D02*
X13835667Y-9945048D01*
X13835667Y-9945048D02*
X13845191Y-9926000D01*
X13845191Y-9926000D02*
X13864238Y-9897429D01*
X13864238Y-9897429D02*
X13873762Y-9887905D01*
X14054714Y-10116476D02*
X13940429Y-10116476D01*
X13997571Y-10116476D02*
X13997571Y-9916476D01*
X13997571Y-9916476D02*
X13978524Y-9945048D01*
X13978524Y-9945048D02*
X13959476Y-9964095D01*
X13959476Y-9964095D02*
X13940429Y-9973619D01*
X14226143Y-9916476D02*
X14188048Y-9916476D01*
X14188048Y-9916476D02*
X14169000Y-9926000D01*
X14169000Y-9926000D02*
X14159476Y-9935524D01*
X14159476Y-9935524D02*
X14140429Y-9964095D01*
X14140429Y-9964095D02*
X14130905Y-10002190D01*
X14130905Y-10002190D02*
X14130905Y-10078381D01*
X14130905Y-10078381D02*
X14140429Y-10097429D01*
X14140429Y-10097429D02*
X14149952Y-10106952D01*
X14149952Y-10106952D02*
X14169000Y-10116476D01*
X14169000Y-10116476D02*
X14207095Y-10116476D01*
X14207095Y-10116476D02*
X14226143Y-10106952D01*
X14226143Y-10106952D02*
X14235667Y-10097429D01*
X14235667Y-10097429D02*
X14245191Y-10078381D01*
X14245191Y-10078381D02*
X14245191Y-10030762D01*
X14245191Y-10030762D02*
X14235667Y-10011714D01*
X14235667Y-10011714D02*
X14226143Y-10002190D01*
X14226143Y-10002190D02*
X14207095Y-9992667D01*
X14207095Y-9992667D02*
X14169000Y-9992667D01*
X14169000Y-9992667D02*
X14149952Y-10002190D01*
X14149952Y-10002190D02*
X14140429Y-10011714D01*
X14140429Y-10011714D02*
X14130905Y-10030762D01*
X14450905Y-10116476D02*
X14450905Y-9916476D01*
X14536619Y-10116476D02*
X14536619Y-10011714D01*
X14536619Y-10011714D02*
X14527095Y-9992667D01*
X14527095Y-9992667D02*
X14508048Y-9983143D01*
X14508048Y-9983143D02*
X14479476Y-9983143D01*
X14479476Y-9983143D02*
X14460429Y-9992667D01*
X14460429Y-9992667D02*
X14450905Y-10002190D01*
X14660429Y-10116476D02*
X14641381Y-10106952D01*
X14641381Y-10106952D02*
X14631857Y-10097429D01*
X14631857Y-10097429D02*
X14622333Y-10078381D01*
X14622333Y-10078381D02*
X14622333Y-10021238D01*
X14622333Y-10021238D02*
X14631857Y-10002190D01*
X14631857Y-10002190D02*
X14641381Y-9992667D01*
X14641381Y-9992667D02*
X14660429Y-9983143D01*
X14660429Y-9983143D02*
X14689000Y-9983143D01*
X14689000Y-9983143D02*
X14708048Y-9992667D01*
X14708048Y-9992667D02*
X14717572Y-10002190D01*
X14717572Y-10002190D02*
X14727095Y-10021238D01*
X14727095Y-10021238D02*
X14727095Y-10078381D01*
X14727095Y-10078381D02*
X14717572Y-10097429D01*
X14717572Y-10097429D02*
X14708048Y-10106952D01*
X14708048Y-10106952D02*
X14689000Y-10116476D01*
X14689000Y-10116476D02*
X14660429Y-10116476D01*
X14841381Y-10116476D02*
X14822333Y-10106952D01*
X14822333Y-10106952D02*
X14812810Y-10087905D01*
X14812810Y-10087905D02*
X14812810Y-9916476D01*
X14993762Y-10106952D02*
X14974714Y-10116476D01*
X14974714Y-10116476D02*
X14936619Y-10116476D01*
X14936619Y-10116476D02*
X14917572Y-10106952D01*
X14917572Y-10106952D02*
X14908048Y-10087905D01*
X14908048Y-10087905D02*
X14908048Y-10011714D01*
X14908048Y-10011714D02*
X14917572Y-9992667D01*
X14917572Y-9992667D02*
X14936619Y-9983143D01*
X14936619Y-9983143D02*
X14974714Y-9983143D01*
X14974714Y-9983143D02*
X14993762Y-9992667D01*
X14993762Y-9992667D02*
X15003286Y-10011714D01*
X15003286Y-10011714D02*
X15003286Y-10030762D01*
X15003286Y-10030762D02*
X14908048Y-10049810D01*
X15079476Y-10106952D02*
X15098524Y-10116476D01*
X15098524Y-10116476D02*
X15136619Y-10116476D01*
X15136619Y-10116476D02*
X15155667Y-10106952D01*
X15155667Y-10106952D02*
X15165191Y-10087905D01*
X15165191Y-10087905D02*
X15165191Y-10078381D01*
X15165191Y-10078381D02*
X15155667Y-10059333D01*
X15155667Y-10059333D02*
X15136619Y-10049810D01*
X15136619Y-10049810D02*
X15108048Y-10049810D01*
X15108048Y-10049810D02*
X15089000Y-10040286D01*
X15089000Y-10040286D02*
X15079476Y-10021238D01*
X15079476Y-10021238D02*
X15079476Y-10011714D01*
X15079476Y-10011714D02*
X15089000Y-9992667D01*
X15089000Y-9992667D02*
X15108048Y-9983143D01*
X15108048Y-9983143D02*
X15136619Y-9983143D01*
X15136619Y-9983143D02*
X15155667Y-9992667D01*
X15231857Y-10192667D02*
X15241381Y-10183143D01*
X15241381Y-10183143D02*
X15260429Y-10154571D01*
X15260429Y-10154571D02*
X15269953Y-10135524D01*
X15269953Y-10135524D02*
X15279476Y-10106952D01*
X15279476Y-10106952D02*
X15289000Y-10059333D01*
X15289000Y-10059333D02*
X15289000Y-10021238D01*
X15289000Y-10021238D02*
X15279476Y-9973619D01*
X15279476Y-9973619D02*
X15269953Y-9945048D01*
X15269953Y-9945048D02*
X15260429Y-9926000D01*
X15260429Y-9926000D02*
X15241381Y-9897429D01*
X15241381Y-9897429D02*
X15231857Y-9887905D01*
D13*
X10409000Y-10307000D02*
G75*
G03*
X10409000Y-10307000I-40000J0D01*
G01*
D11*
X10694714Y-10180476D02*
X10713762Y-10180476D01*
X10713762Y-10180476D02*
X10732810Y-10190000D01*
X10732810Y-10190000D02*
X10742333Y-10199524D01*
X10742333Y-10199524D02*
X10751857Y-10218571D01*
X10751857Y-10218571D02*
X10761381Y-10256667D01*
X10761381Y-10256667D02*
X10761381Y-10304286D01*
X10761381Y-10304286D02*
X10751857Y-10342381D01*
X10751857Y-10342381D02*
X10742333Y-10361429D01*
X10742333Y-10361429D02*
X10732810Y-10370952D01*
X10732810Y-10370952D02*
X10713762Y-10380476D01*
X10713762Y-10380476D02*
X10694714Y-10380476D01*
X10694714Y-10380476D02*
X10675667Y-10370952D01*
X10675667Y-10370952D02*
X10666143Y-10361429D01*
X10666143Y-10361429D02*
X10656619Y-10342381D01*
X10656619Y-10342381D02*
X10647095Y-10304286D01*
X10647095Y-10304286D02*
X10647095Y-10256667D01*
X10647095Y-10256667D02*
X10656619Y-10218571D01*
X10656619Y-10218571D02*
X10666143Y-10199524D01*
X10666143Y-10199524D02*
X10675667Y-10190000D01*
X10675667Y-10190000D02*
X10694714Y-10180476D01*
X10847095Y-10361429D02*
X10856619Y-10370952D01*
X10856619Y-10370952D02*
X10847095Y-10380476D01*
X10847095Y-10380476D02*
X10837571Y-10370952D01*
X10837571Y-10370952D02*
X10847095Y-10361429D01*
X10847095Y-10361429D02*
X10847095Y-10380476D01*
X10970905Y-10266190D02*
X10951857Y-10256667D01*
X10951857Y-10256667D02*
X10942333Y-10247143D01*
X10942333Y-10247143D02*
X10932810Y-10228095D01*
X10932810Y-10228095D02*
X10932810Y-10218571D01*
X10932810Y-10218571D02*
X10942333Y-10199524D01*
X10942333Y-10199524D02*
X10951857Y-10190000D01*
X10951857Y-10190000D02*
X10970905Y-10180476D01*
X10970905Y-10180476D02*
X11009000Y-10180476D01*
X11009000Y-10180476D02*
X11028048Y-10190000D01*
X11028048Y-10190000D02*
X11037571Y-10199524D01*
X11037571Y-10199524D02*
X11047095Y-10218571D01*
X11047095Y-10218571D02*
X11047095Y-10228095D01*
X11047095Y-10228095D02*
X11037571Y-10247143D01*
X11037571Y-10247143D02*
X11028048Y-10256667D01*
X11028048Y-10256667D02*
X11009000Y-10266190D01*
X11009000Y-10266190D02*
X10970905Y-10266190D01*
X10970905Y-10266190D02*
X10951857Y-10275714D01*
X10951857Y-10275714D02*
X10942333Y-10285238D01*
X10942333Y-10285238D02*
X10932810Y-10304286D01*
X10932810Y-10304286D02*
X10932810Y-10342381D01*
X10932810Y-10342381D02*
X10942333Y-10361429D01*
X10942333Y-10361429D02*
X10951857Y-10370952D01*
X10951857Y-10370952D02*
X10970905Y-10380476D01*
X10970905Y-10380476D02*
X11009000Y-10380476D01*
X11009000Y-10380476D02*
X11028048Y-10370952D01*
X11028048Y-10370952D02*
X11037571Y-10361429D01*
X11037571Y-10361429D02*
X11047095Y-10342381D01*
X11047095Y-10342381D02*
X11047095Y-10304286D01*
X11047095Y-10304286D02*
X11037571Y-10285238D01*
X11037571Y-10285238D02*
X11028048Y-10275714D01*
X11028048Y-10275714D02*
X11009000Y-10266190D01*
X11170905Y-10180476D02*
X11189952Y-10180476D01*
X11189952Y-10180476D02*
X11209000Y-10190000D01*
X11209000Y-10190000D02*
X11218524Y-10199524D01*
X11218524Y-10199524D02*
X11228048Y-10218571D01*
X11228048Y-10218571D02*
X11237571Y-10256667D01*
X11237571Y-10256667D02*
X11237571Y-10304286D01*
X11237571Y-10304286D02*
X11228048Y-10342381D01*
X11228048Y-10342381D02*
X11218524Y-10361429D01*
X11218524Y-10361429D02*
X11209000Y-10370952D01*
X11209000Y-10370952D02*
X11189952Y-10380476D01*
X11189952Y-10380476D02*
X11170905Y-10380476D01*
X11170905Y-10380476D02*
X11151857Y-10370952D01*
X11151857Y-10370952D02*
X11142333Y-10361429D01*
X11142333Y-10361429D02*
X11132810Y-10342381D01*
X11132810Y-10342381D02*
X11123286Y-10304286D01*
X11123286Y-10304286D02*
X11123286Y-10256667D01*
X11123286Y-10256667D02*
X11132810Y-10218571D01*
X11132810Y-10218571D02*
X11142333Y-10199524D01*
X11142333Y-10199524D02*
X11151857Y-10190000D01*
X11151857Y-10190000D02*
X11170905Y-10180476D01*
X11361381Y-10180476D02*
X11380429Y-10180476D01*
X11380429Y-10180476D02*
X11399476Y-10190000D01*
X11399476Y-10190000D02*
X11409000Y-10199524D01*
X11409000Y-10199524D02*
X11418524Y-10218571D01*
X11418524Y-10218571D02*
X11428048Y-10256667D01*
X11428048Y-10256667D02*
X11428048Y-10304286D01*
X11428048Y-10304286D02*
X11418524Y-10342381D01*
X11418524Y-10342381D02*
X11409000Y-10361429D01*
X11409000Y-10361429D02*
X11399476Y-10370952D01*
X11399476Y-10370952D02*
X11380429Y-10380476D01*
X11380429Y-10380476D02*
X11361381Y-10380476D01*
X11361381Y-10380476D02*
X11342333Y-10370952D01*
X11342333Y-10370952D02*
X11332809Y-10361429D01*
X11332809Y-10361429D02*
X11323286Y-10342381D01*
X11323286Y-10342381D02*
X11313762Y-10304286D01*
X11313762Y-10304286D02*
X11313762Y-10256667D01*
X11313762Y-10256667D02*
X11323286Y-10218571D01*
X11323286Y-10218571D02*
X11332809Y-10199524D01*
X11332809Y-10199524D02*
X11342333Y-10190000D01*
X11342333Y-10190000D02*
X11361381Y-10180476D01*
X11513762Y-10380476D02*
X11513762Y-10247143D01*
X11513762Y-10266190D02*
X11523286Y-10256667D01*
X11523286Y-10256667D02*
X11542333Y-10247143D01*
X11542333Y-10247143D02*
X11570905Y-10247143D01*
X11570905Y-10247143D02*
X11589952Y-10256667D01*
X11589952Y-10256667D02*
X11599476Y-10275714D01*
X11599476Y-10275714D02*
X11599476Y-10380476D01*
X11599476Y-10275714D02*
X11609000Y-10256667D01*
X11609000Y-10256667D02*
X11628048Y-10247143D01*
X11628048Y-10247143D02*
X11656619Y-10247143D01*
X11656619Y-10247143D02*
X11675667Y-10256667D01*
X11675667Y-10256667D02*
X11685190Y-10275714D01*
X11685190Y-10275714D02*
X11685190Y-10380476D01*
X11780429Y-10380476D02*
X11780429Y-10247143D01*
X11780429Y-10266190D02*
X11789952Y-10256667D01*
X11789952Y-10256667D02*
X11809000Y-10247143D01*
X11809000Y-10247143D02*
X11837571Y-10247143D01*
X11837571Y-10247143D02*
X11856619Y-10256667D01*
X11856619Y-10256667D02*
X11866143Y-10275714D01*
X11866143Y-10275714D02*
X11866143Y-10380476D01*
X11866143Y-10275714D02*
X11875667Y-10256667D01*
X11875667Y-10256667D02*
X11894714Y-10247143D01*
X11894714Y-10247143D02*
X11923286Y-10247143D01*
X11923286Y-10247143D02*
X11942333Y-10256667D01*
X11942333Y-10256667D02*
X11951857Y-10275714D01*
X11951857Y-10275714D02*
X11951857Y-10380476D01*
X12309952Y-10170952D02*
X12138524Y-10428095D01*
X12534714Y-10180476D02*
X12553762Y-10180476D01*
X12553762Y-10180476D02*
X12572810Y-10190000D01*
X12572810Y-10190000D02*
X12582333Y-10199524D01*
X12582333Y-10199524D02*
X12591857Y-10218571D01*
X12591857Y-10218571D02*
X12601381Y-10256667D01*
X12601381Y-10256667D02*
X12601381Y-10304286D01*
X12601381Y-10304286D02*
X12591857Y-10342381D01*
X12591857Y-10342381D02*
X12582333Y-10361429D01*
X12582333Y-10361429D02*
X12572810Y-10370952D01*
X12572810Y-10370952D02*
X12553762Y-10380476D01*
X12553762Y-10380476D02*
X12534714Y-10380476D01*
X12534714Y-10380476D02*
X12515667Y-10370952D01*
X12515667Y-10370952D02*
X12506143Y-10361429D01*
X12506143Y-10361429D02*
X12496619Y-10342381D01*
X12496619Y-10342381D02*
X12487095Y-10304286D01*
X12487095Y-10304286D02*
X12487095Y-10256667D01*
X12487095Y-10256667D02*
X12496619Y-10218571D01*
X12496619Y-10218571D02*
X12506143Y-10199524D01*
X12506143Y-10199524D02*
X12515667Y-10190000D01*
X12515667Y-10190000D02*
X12534714Y-10180476D01*
X12687095Y-10361429D02*
X12696619Y-10370952D01*
X12696619Y-10370952D02*
X12687095Y-10380476D01*
X12687095Y-10380476D02*
X12677571Y-10370952D01*
X12677571Y-10370952D02*
X12687095Y-10361429D01*
X12687095Y-10361429D02*
X12687095Y-10380476D01*
X12820429Y-10180476D02*
X12839476Y-10180476D01*
X12839476Y-10180476D02*
X12858524Y-10190000D01*
X12858524Y-10190000D02*
X12868048Y-10199524D01*
X12868048Y-10199524D02*
X12877571Y-10218571D01*
X12877571Y-10218571D02*
X12887095Y-10256667D01*
X12887095Y-10256667D02*
X12887095Y-10304286D01*
X12887095Y-10304286D02*
X12877571Y-10342381D01*
X12877571Y-10342381D02*
X12868048Y-10361429D01*
X12868048Y-10361429D02*
X12858524Y-10370952D01*
X12858524Y-10370952D02*
X12839476Y-10380476D01*
X12839476Y-10380476D02*
X12820429Y-10380476D01*
X12820429Y-10380476D02*
X12801381Y-10370952D01*
X12801381Y-10370952D02*
X12791857Y-10361429D01*
X12791857Y-10361429D02*
X12782333Y-10342381D01*
X12782333Y-10342381D02*
X12772810Y-10304286D01*
X12772810Y-10304286D02*
X12772810Y-10256667D01*
X12772810Y-10256667D02*
X12782333Y-10218571D01*
X12782333Y-10218571D02*
X12791857Y-10199524D01*
X12791857Y-10199524D02*
X12801381Y-10190000D01*
X12801381Y-10190000D02*
X12820429Y-10180476D01*
X12953762Y-10180476D02*
X13077571Y-10180476D01*
X13077571Y-10180476D02*
X13010905Y-10256667D01*
X13010905Y-10256667D02*
X13039476Y-10256667D01*
X13039476Y-10256667D02*
X13058524Y-10266190D01*
X13058524Y-10266190D02*
X13068048Y-10275714D01*
X13068048Y-10275714D02*
X13077571Y-10294762D01*
X13077571Y-10294762D02*
X13077571Y-10342381D01*
X13077571Y-10342381D02*
X13068048Y-10361429D01*
X13068048Y-10361429D02*
X13058524Y-10370952D01*
X13058524Y-10370952D02*
X13039476Y-10380476D01*
X13039476Y-10380476D02*
X12982333Y-10380476D01*
X12982333Y-10380476D02*
X12963286Y-10370952D01*
X12963286Y-10370952D02*
X12953762Y-10361429D01*
X13268048Y-10380476D02*
X13153762Y-10380476D01*
X13210905Y-10380476D02*
X13210905Y-10180476D01*
X13210905Y-10180476D02*
X13191857Y-10209048D01*
X13191857Y-10209048D02*
X13172810Y-10228095D01*
X13172810Y-10228095D02*
X13153762Y-10237619D01*
X13449000Y-10180476D02*
X13353762Y-10180476D01*
X13353762Y-10180476D02*
X13344238Y-10275714D01*
X13344238Y-10275714D02*
X13353762Y-10266190D01*
X13353762Y-10266190D02*
X13372810Y-10256667D01*
X13372810Y-10256667D02*
X13420429Y-10256667D01*
X13420429Y-10256667D02*
X13439476Y-10266190D01*
X13439476Y-10266190D02*
X13449000Y-10275714D01*
X13449000Y-10275714D02*
X13458524Y-10294762D01*
X13458524Y-10294762D02*
X13458524Y-10342381D01*
X13458524Y-10342381D02*
X13449000Y-10361429D01*
X13449000Y-10361429D02*
X13439476Y-10370952D01*
X13439476Y-10370952D02*
X13420429Y-10380476D01*
X13420429Y-10380476D02*
X13372810Y-10380476D01*
X13372810Y-10380476D02*
X13353762Y-10370952D01*
X13353762Y-10370952D02*
X13344238Y-10361429D01*
X13534714Y-10180476D02*
X13534714Y-10218571D01*
X13610905Y-10180476D02*
X13610905Y-10218571D01*
X13873762Y-10456667D02*
X13864238Y-10447143D01*
X13864238Y-10447143D02*
X13845191Y-10418571D01*
X13845191Y-10418571D02*
X13835667Y-10399524D01*
X13835667Y-10399524D02*
X13826143Y-10370952D01*
X13826143Y-10370952D02*
X13816619Y-10323333D01*
X13816619Y-10323333D02*
X13816619Y-10285238D01*
X13816619Y-10285238D02*
X13826143Y-10237619D01*
X13826143Y-10237619D02*
X13835667Y-10209048D01*
X13835667Y-10209048D02*
X13845191Y-10190000D01*
X13845191Y-10190000D02*
X13864238Y-10161429D01*
X13864238Y-10161429D02*
X13873762Y-10151905D01*
X14035667Y-10180476D02*
X13997571Y-10180476D01*
X13997571Y-10180476D02*
X13978524Y-10190000D01*
X13978524Y-10190000D02*
X13969000Y-10199524D01*
X13969000Y-10199524D02*
X13949952Y-10228095D01*
X13949952Y-10228095D02*
X13940429Y-10266190D01*
X13940429Y-10266190D02*
X13940429Y-10342381D01*
X13940429Y-10342381D02*
X13949952Y-10361429D01*
X13949952Y-10361429D02*
X13959476Y-10370952D01*
X13959476Y-10370952D02*
X13978524Y-10380476D01*
X13978524Y-10380476D02*
X14016619Y-10380476D01*
X14016619Y-10380476D02*
X14035667Y-10370952D01*
X14035667Y-10370952D02*
X14045191Y-10361429D01*
X14045191Y-10361429D02*
X14054714Y-10342381D01*
X14054714Y-10342381D02*
X14054714Y-10294762D01*
X14054714Y-10294762D02*
X14045191Y-10275714D01*
X14045191Y-10275714D02*
X14035667Y-10266190D01*
X14035667Y-10266190D02*
X14016619Y-10256667D01*
X14016619Y-10256667D02*
X13978524Y-10256667D01*
X13978524Y-10256667D02*
X13959476Y-10266190D01*
X13959476Y-10266190D02*
X13949952Y-10275714D01*
X13949952Y-10275714D02*
X13940429Y-10294762D01*
X14245191Y-10380476D02*
X14130905Y-10380476D01*
X14188048Y-10380476D02*
X14188048Y-10180476D01*
X14188048Y-10180476D02*
X14169000Y-10209048D01*
X14169000Y-10209048D02*
X14149952Y-10228095D01*
X14149952Y-10228095D02*
X14130905Y-10237619D01*
X14450905Y-10380476D02*
X14450905Y-10180476D01*
X14536619Y-10380476D02*
X14536619Y-10275714D01*
X14536619Y-10275714D02*
X14527095Y-10256667D01*
X14527095Y-10256667D02*
X14508048Y-10247143D01*
X14508048Y-10247143D02*
X14479476Y-10247143D01*
X14479476Y-10247143D02*
X14460429Y-10256667D01*
X14460429Y-10256667D02*
X14450905Y-10266190D01*
X14660429Y-10380476D02*
X14641381Y-10370952D01*
X14641381Y-10370952D02*
X14631857Y-10361429D01*
X14631857Y-10361429D02*
X14622333Y-10342381D01*
X14622333Y-10342381D02*
X14622333Y-10285238D01*
X14622333Y-10285238D02*
X14631857Y-10266190D01*
X14631857Y-10266190D02*
X14641381Y-10256667D01*
X14641381Y-10256667D02*
X14660429Y-10247143D01*
X14660429Y-10247143D02*
X14689000Y-10247143D01*
X14689000Y-10247143D02*
X14708048Y-10256667D01*
X14708048Y-10256667D02*
X14717572Y-10266190D01*
X14717572Y-10266190D02*
X14727095Y-10285238D01*
X14727095Y-10285238D02*
X14727095Y-10342381D01*
X14727095Y-10342381D02*
X14717572Y-10361429D01*
X14717572Y-10361429D02*
X14708048Y-10370952D01*
X14708048Y-10370952D02*
X14689000Y-10380476D01*
X14689000Y-10380476D02*
X14660429Y-10380476D01*
X14841381Y-10380476D02*
X14822333Y-10370952D01*
X14822333Y-10370952D02*
X14812810Y-10351905D01*
X14812810Y-10351905D02*
X14812810Y-10180476D01*
X14993762Y-10370952D02*
X14974714Y-10380476D01*
X14974714Y-10380476D02*
X14936619Y-10380476D01*
X14936619Y-10380476D02*
X14917572Y-10370952D01*
X14917572Y-10370952D02*
X14908048Y-10351905D01*
X14908048Y-10351905D02*
X14908048Y-10275714D01*
X14908048Y-10275714D02*
X14917572Y-10256667D01*
X14917572Y-10256667D02*
X14936619Y-10247143D01*
X14936619Y-10247143D02*
X14974714Y-10247143D01*
X14974714Y-10247143D02*
X14993762Y-10256667D01*
X14993762Y-10256667D02*
X15003286Y-10275714D01*
X15003286Y-10275714D02*
X15003286Y-10294762D01*
X15003286Y-10294762D02*
X14908048Y-10313810D01*
X15079476Y-10370952D02*
X15098524Y-10380476D01*
X15098524Y-10380476D02*
X15136619Y-10380476D01*
X15136619Y-10380476D02*
X15155667Y-10370952D01*
X15155667Y-10370952D02*
X15165191Y-10351905D01*
X15165191Y-10351905D02*
X15165191Y-10342381D01*
X15165191Y-10342381D02*
X15155667Y-10323333D01*
X15155667Y-10323333D02*
X15136619Y-10313810D01*
X15136619Y-10313810D02*
X15108048Y-10313810D01*
X15108048Y-10313810D02*
X15089000Y-10304286D01*
X15089000Y-10304286D02*
X15079476Y-10285238D01*
X15079476Y-10285238D02*
X15079476Y-10275714D01*
X15079476Y-10275714D02*
X15089000Y-10256667D01*
X15089000Y-10256667D02*
X15108048Y-10247143D01*
X15108048Y-10247143D02*
X15136619Y-10247143D01*
X15136619Y-10247143D02*
X15155667Y-10256667D01*
X15231857Y-10456667D02*
X15241381Y-10447143D01*
X15241381Y-10447143D02*
X15260429Y-10418571D01*
X15260429Y-10418571D02*
X15269953Y-10399524D01*
X15269953Y-10399524D02*
X15279476Y-10370952D01*
X15279476Y-10370952D02*
X15289000Y-10323333D01*
X15289000Y-10323333D02*
X15289000Y-10285238D01*
X15289000Y-10285238D02*
X15279476Y-10237619D01*
X15279476Y-10237619D02*
X15269953Y-10209048D01*
X15269953Y-10209048D02*
X15260429Y-10190000D01*
X15260429Y-10190000D02*
X15241381Y-10161429D01*
X15241381Y-10161429D02*
X15231857Y-10151905D01*
D14*
X10364000Y-10526000D02*
X10364000Y-10616000D01*
X10319000Y-10571000D02*
X10409000Y-10571000D01*
D11*
X10694714Y-10444476D02*
X10713762Y-10444476D01*
X10713762Y-10444476D02*
X10732810Y-10454000D01*
X10732810Y-10454000D02*
X10742333Y-10463524D01*
X10742333Y-10463524D02*
X10751857Y-10482571D01*
X10751857Y-10482571D02*
X10761381Y-10520667D01*
X10761381Y-10520667D02*
X10761381Y-10568286D01*
X10761381Y-10568286D02*
X10751857Y-10606381D01*
X10751857Y-10606381D02*
X10742333Y-10625429D01*
X10742333Y-10625429D02*
X10732810Y-10634952D01*
X10732810Y-10634952D02*
X10713762Y-10644476D01*
X10713762Y-10644476D02*
X10694714Y-10644476D01*
X10694714Y-10644476D02*
X10675667Y-10634952D01*
X10675667Y-10634952D02*
X10666143Y-10625429D01*
X10666143Y-10625429D02*
X10656619Y-10606381D01*
X10656619Y-10606381D02*
X10647095Y-10568286D01*
X10647095Y-10568286D02*
X10647095Y-10520667D01*
X10647095Y-10520667D02*
X10656619Y-10482571D01*
X10656619Y-10482571D02*
X10666143Y-10463524D01*
X10666143Y-10463524D02*
X10675667Y-10454000D01*
X10675667Y-10454000D02*
X10694714Y-10444476D01*
X10847095Y-10625429D02*
X10856619Y-10634952D01*
X10856619Y-10634952D02*
X10847095Y-10644476D01*
X10847095Y-10644476D02*
X10837571Y-10634952D01*
X10837571Y-10634952D02*
X10847095Y-10625429D01*
X10847095Y-10625429D02*
X10847095Y-10644476D01*
X10951857Y-10644476D02*
X10989952Y-10644476D01*
X10989952Y-10644476D02*
X11009000Y-10634952D01*
X11009000Y-10634952D02*
X11018524Y-10625429D01*
X11018524Y-10625429D02*
X11037571Y-10596857D01*
X11037571Y-10596857D02*
X11047095Y-10558762D01*
X11047095Y-10558762D02*
X11047095Y-10482571D01*
X11047095Y-10482571D02*
X11037571Y-10463524D01*
X11037571Y-10463524D02*
X11028048Y-10454000D01*
X11028048Y-10454000D02*
X11009000Y-10444476D01*
X11009000Y-10444476D02*
X10970905Y-10444476D01*
X10970905Y-10444476D02*
X10951857Y-10454000D01*
X10951857Y-10454000D02*
X10942333Y-10463524D01*
X10942333Y-10463524D02*
X10932810Y-10482571D01*
X10932810Y-10482571D02*
X10932810Y-10530190D01*
X10932810Y-10530190D02*
X10942333Y-10549238D01*
X10942333Y-10549238D02*
X10951857Y-10558762D01*
X10951857Y-10558762D02*
X10970905Y-10568286D01*
X10970905Y-10568286D02*
X11009000Y-10568286D01*
X11009000Y-10568286D02*
X11028048Y-10558762D01*
X11028048Y-10558762D02*
X11037571Y-10549238D01*
X11037571Y-10549238D02*
X11047095Y-10530190D01*
X11170905Y-10444476D02*
X11189952Y-10444476D01*
X11189952Y-10444476D02*
X11209000Y-10454000D01*
X11209000Y-10454000D02*
X11218524Y-10463524D01*
X11218524Y-10463524D02*
X11228048Y-10482571D01*
X11228048Y-10482571D02*
X11237571Y-10520667D01*
X11237571Y-10520667D02*
X11237571Y-10568286D01*
X11237571Y-10568286D02*
X11228048Y-10606381D01*
X11228048Y-10606381D02*
X11218524Y-10625429D01*
X11218524Y-10625429D02*
X11209000Y-10634952D01*
X11209000Y-10634952D02*
X11189952Y-10644476D01*
X11189952Y-10644476D02*
X11170905Y-10644476D01*
X11170905Y-10644476D02*
X11151857Y-10634952D01*
X11151857Y-10634952D02*
X11142333Y-10625429D01*
X11142333Y-10625429D02*
X11132810Y-10606381D01*
X11132810Y-10606381D02*
X11123286Y-10568286D01*
X11123286Y-10568286D02*
X11123286Y-10520667D01*
X11123286Y-10520667D02*
X11132810Y-10482571D01*
X11132810Y-10482571D02*
X11142333Y-10463524D01*
X11142333Y-10463524D02*
X11151857Y-10454000D01*
X11151857Y-10454000D02*
X11170905Y-10444476D01*
X11361381Y-10444476D02*
X11380429Y-10444476D01*
X11380429Y-10444476D02*
X11399476Y-10454000D01*
X11399476Y-10454000D02*
X11409000Y-10463524D01*
X11409000Y-10463524D02*
X11418524Y-10482571D01*
X11418524Y-10482571D02*
X11428048Y-10520667D01*
X11428048Y-10520667D02*
X11428048Y-10568286D01*
X11428048Y-10568286D02*
X11418524Y-10606381D01*
X11418524Y-10606381D02*
X11409000Y-10625429D01*
X11409000Y-10625429D02*
X11399476Y-10634952D01*
X11399476Y-10634952D02*
X11380429Y-10644476D01*
X11380429Y-10644476D02*
X11361381Y-10644476D01*
X11361381Y-10644476D02*
X11342333Y-10634952D01*
X11342333Y-10634952D02*
X11332809Y-10625429D01*
X11332809Y-10625429D02*
X11323286Y-10606381D01*
X11323286Y-10606381D02*
X11313762Y-10568286D01*
X11313762Y-10568286D02*
X11313762Y-10520667D01*
X11313762Y-10520667D02*
X11323286Y-10482571D01*
X11323286Y-10482571D02*
X11332809Y-10463524D01*
X11332809Y-10463524D02*
X11342333Y-10454000D01*
X11342333Y-10454000D02*
X11361381Y-10444476D01*
X11513762Y-10644476D02*
X11513762Y-10511143D01*
X11513762Y-10530190D02*
X11523286Y-10520667D01*
X11523286Y-10520667D02*
X11542333Y-10511143D01*
X11542333Y-10511143D02*
X11570905Y-10511143D01*
X11570905Y-10511143D02*
X11589952Y-10520667D01*
X11589952Y-10520667D02*
X11599476Y-10539714D01*
X11599476Y-10539714D02*
X11599476Y-10644476D01*
X11599476Y-10539714D02*
X11609000Y-10520667D01*
X11609000Y-10520667D02*
X11628048Y-10511143D01*
X11628048Y-10511143D02*
X11656619Y-10511143D01*
X11656619Y-10511143D02*
X11675667Y-10520667D01*
X11675667Y-10520667D02*
X11685190Y-10539714D01*
X11685190Y-10539714D02*
X11685190Y-10644476D01*
X11780429Y-10644476D02*
X11780429Y-10511143D01*
X11780429Y-10530190D02*
X11789952Y-10520667D01*
X11789952Y-10520667D02*
X11809000Y-10511143D01*
X11809000Y-10511143D02*
X11837571Y-10511143D01*
X11837571Y-10511143D02*
X11856619Y-10520667D01*
X11856619Y-10520667D02*
X11866143Y-10539714D01*
X11866143Y-10539714D02*
X11866143Y-10644476D01*
X11866143Y-10539714D02*
X11875667Y-10520667D01*
X11875667Y-10520667D02*
X11894714Y-10511143D01*
X11894714Y-10511143D02*
X11923286Y-10511143D01*
X11923286Y-10511143D02*
X11942333Y-10520667D01*
X11942333Y-10520667D02*
X11951857Y-10539714D01*
X11951857Y-10539714D02*
X11951857Y-10644476D01*
X12309952Y-10434952D02*
X12138524Y-10692095D01*
X12534714Y-10444476D02*
X12553762Y-10444476D01*
X12553762Y-10444476D02*
X12572810Y-10454000D01*
X12572810Y-10454000D02*
X12582333Y-10463524D01*
X12582333Y-10463524D02*
X12591857Y-10482571D01*
X12591857Y-10482571D02*
X12601381Y-10520667D01*
X12601381Y-10520667D02*
X12601381Y-10568286D01*
X12601381Y-10568286D02*
X12591857Y-10606381D01*
X12591857Y-10606381D02*
X12582333Y-10625429D01*
X12582333Y-10625429D02*
X12572810Y-10634952D01*
X12572810Y-10634952D02*
X12553762Y-10644476D01*
X12553762Y-10644476D02*
X12534714Y-10644476D01*
X12534714Y-10644476D02*
X12515667Y-10634952D01*
X12515667Y-10634952D02*
X12506143Y-10625429D01*
X12506143Y-10625429D02*
X12496619Y-10606381D01*
X12496619Y-10606381D02*
X12487095Y-10568286D01*
X12487095Y-10568286D02*
X12487095Y-10520667D01*
X12487095Y-10520667D02*
X12496619Y-10482571D01*
X12496619Y-10482571D02*
X12506143Y-10463524D01*
X12506143Y-10463524D02*
X12515667Y-10454000D01*
X12515667Y-10454000D02*
X12534714Y-10444476D01*
X12687095Y-10625429D02*
X12696619Y-10634952D01*
X12696619Y-10634952D02*
X12687095Y-10644476D01*
X12687095Y-10644476D02*
X12677571Y-10634952D01*
X12677571Y-10634952D02*
X12687095Y-10625429D01*
X12687095Y-10625429D02*
X12687095Y-10644476D01*
X12820429Y-10444476D02*
X12839476Y-10444476D01*
X12839476Y-10444476D02*
X12858524Y-10454000D01*
X12858524Y-10454000D02*
X12868048Y-10463524D01*
X12868048Y-10463524D02*
X12877571Y-10482571D01*
X12877571Y-10482571D02*
X12887095Y-10520667D01*
X12887095Y-10520667D02*
X12887095Y-10568286D01*
X12887095Y-10568286D02*
X12877571Y-10606381D01*
X12877571Y-10606381D02*
X12868048Y-10625429D01*
X12868048Y-10625429D02*
X12858524Y-10634952D01*
X12858524Y-10634952D02*
X12839476Y-10644476D01*
X12839476Y-10644476D02*
X12820429Y-10644476D01*
X12820429Y-10644476D02*
X12801381Y-10634952D01*
X12801381Y-10634952D02*
X12791857Y-10625429D01*
X12791857Y-10625429D02*
X12782333Y-10606381D01*
X12782333Y-10606381D02*
X12772810Y-10568286D01*
X12772810Y-10568286D02*
X12772810Y-10520667D01*
X12772810Y-10520667D02*
X12782333Y-10482571D01*
X12782333Y-10482571D02*
X12791857Y-10463524D01*
X12791857Y-10463524D02*
X12801381Y-10454000D01*
X12801381Y-10454000D02*
X12820429Y-10444476D01*
X12953762Y-10444476D02*
X13077571Y-10444476D01*
X13077571Y-10444476D02*
X13010905Y-10520667D01*
X13010905Y-10520667D02*
X13039476Y-10520667D01*
X13039476Y-10520667D02*
X13058524Y-10530190D01*
X13058524Y-10530190D02*
X13068048Y-10539714D01*
X13068048Y-10539714D02*
X13077571Y-10558762D01*
X13077571Y-10558762D02*
X13077571Y-10606381D01*
X13077571Y-10606381D02*
X13068048Y-10625429D01*
X13068048Y-10625429D02*
X13058524Y-10634952D01*
X13058524Y-10634952D02*
X13039476Y-10644476D01*
X13039476Y-10644476D02*
X12982333Y-10644476D01*
X12982333Y-10644476D02*
X12963286Y-10634952D01*
X12963286Y-10634952D02*
X12953762Y-10625429D01*
X13258524Y-10444476D02*
X13163286Y-10444476D01*
X13163286Y-10444476D02*
X13153762Y-10539714D01*
X13153762Y-10539714D02*
X13163286Y-10530190D01*
X13163286Y-10530190D02*
X13182333Y-10520667D01*
X13182333Y-10520667D02*
X13229952Y-10520667D01*
X13229952Y-10520667D02*
X13249000Y-10530190D01*
X13249000Y-10530190D02*
X13258524Y-10539714D01*
X13258524Y-10539714D02*
X13268048Y-10558762D01*
X13268048Y-10558762D02*
X13268048Y-10606381D01*
X13268048Y-10606381D02*
X13258524Y-10625429D01*
X13258524Y-10625429D02*
X13249000Y-10634952D01*
X13249000Y-10634952D02*
X13229952Y-10644476D01*
X13229952Y-10644476D02*
X13182333Y-10644476D01*
X13182333Y-10644476D02*
X13163286Y-10634952D01*
X13163286Y-10634952D02*
X13153762Y-10625429D01*
X13439476Y-10511143D02*
X13439476Y-10644476D01*
X13391857Y-10434952D02*
X13344238Y-10577810D01*
X13344238Y-10577810D02*
X13468048Y-10577810D01*
X13534714Y-10444476D02*
X13534714Y-10482571D01*
X13610905Y-10444476D02*
X13610905Y-10482571D01*
X13873762Y-10720667D02*
X13864238Y-10711143D01*
X13864238Y-10711143D02*
X13845191Y-10682571D01*
X13845191Y-10682571D02*
X13835667Y-10663524D01*
X13835667Y-10663524D02*
X13826143Y-10634952D01*
X13826143Y-10634952D02*
X13816619Y-10587333D01*
X13816619Y-10587333D02*
X13816619Y-10549238D01*
X13816619Y-10549238D02*
X13826143Y-10501619D01*
X13826143Y-10501619D02*
X13835667Y-10473048D01*
X13835667Y-10473048D02*
X13845191Y-10454000D01*
X13845191Y-10454000D02*
X13864238Y-10425429D01*
X13864238Y-10425429D02*
X13873762Y-10415905D01*
X14054714Y-10644476D02*
X13940429Y-10644476D01*
X13997571Y-10644476D02*
X13997571Y-10444476D01*
X13997571Y-10444476D02*
X13978524Y-10473048D01*
X13978524Y-10473048D02*
X13959476Y-10492095D01*
X13959476Y-10492095D02*
X13940429Y-10501619D01*
X14226143Y-10444476D02*
X14188048Y-10444476D01*
X14188048Y-10444476D02*
X14169000Y-10454000D01*
X14169000Y-10454000D02*
X14159476Y-10463524D01*
X14159476Y-10463524D02*
X14140429Y-10492095D01*
X14140429Y-10492095D02*
X14130905Y-10530190D01*
X14130905Y-10530190D02*
X14130905Y-10606381D01*
X14130905Y-10606381D02*
X14140429Y-10625429D01*
X14140429Y-10625429D02*
X14149952Y-10634952D01*
X14149952Y-10634952D02*
X14169000Y-10644476D01*
X14169000Y-10644476D02*
X14207095Y-10644476D01*
X14207095Y-10644476D02*
X14226143Y-10634952D01*
X14226143Y-10634952D02*
X14235667Y-10625429D01*
X14235667Y-10625429D02*
X14245191Y-10606381D01*
X14245191Y-10606381D02*
X14245191Y-10558762D01*
X14245191Y-10558762D02*
X14235667Y-10539714D01*
X14235667Y-10539714D02*
X14226143Y-10530190D01*
X14226143Y-10530190D02*
X14207095Y-10520667D01*
X14207095Y-10520667D02*
X14169000Y-10520667D01*
X14169000Y-10520667D02*
X14149952Y-10530190D01*
X14149952Y-10530190D02*
X14140429Y-10539714D01*
X14140429Y-10539714D02*
X14130905Y-10558762D01*
X14450905Y-10644476D02*
X14450905Y-10444476D01*
X14536619Y-10644476D02*
X14536619Y-10539714D01*
X14536619Y-10539714D02*
X14527095Y-10520667D01*
X14527095Y-10520667D02*
X14508048Y-10511143D01*
X14508048Y-10511143D02*
X14479476Y-10511143D01*
X14479476Y-10511143D02*
X14460429Y-10520667D01*
X14460429Y-10520667D02*
X14450905Y-10530190D01*
X14660429Y-10644476D02*
X14641381Y-10634952D01*
X14641381Y-10634952D02*
X14631857Y-10625429D01*
X14631857Y-10625429D02*
X14622333Y-10606381D01*
X14622333Y-10606381D02*
X14622333Y-10549238D01*
X14622333Y-10549238D02*
X14631857Y-10530190D01*
X14631857Y-10530190D02*
X14641381Y-10520667D01*
X14641381Y-10520667D02*
X14660429Y-10511143D01*
X14660429Y-10511143D02*
X14689000Y-10511143D01*
X14689000Y-10511143D02*
X14708048Y-10520667D01*
X14708048Y-10520667D02*
X14717572Y-10530190D01*
X14717572Y-10530190D02*
X14727095Y-10549238D01*
X14727095Y-10549238D02*
X14727095Y-10606381D01*
X14727095Y-10606381D02*
X14717572Y-10625429D01*
X14717572Y-10625429D02*
X14708048Y-10634952D01*
X14708048Y-10634952D02*
X14689000Y-10644476D01*
X14689000Y-10644476D02*
X14660429Y-10644476D01*
X14841381Y-10644476D02*
X14822333Y-10634952D01*
X14822333Y-10634952D02*
X14812810Y-10615905D01*
X14812810Y-10615905D02*
X14812810Y-10444476D01*
X14993762Y-10634952D02*
X14974714Y-10644476D01*
X14974714Y-10644476D02*
X14936619Y-10644476D01*
X14936619Y-10644476D02*
X14917572Y-10634952D01*
X14917572Y-10634952D02*
X14908048Y-10615905D01*
X14908048Y-10615905D02*
X14908048Y-10539714D01*
X14908048Y-10539714D02*
X14917572Y-10520667D01*
X14917572Y-10520667D02*
X14936619Y-10511143D01*
X14936619Y-10511143D02*
X14974714Y-10511143D01*
X14974714Y-10511143D02*
X14993762Y-10520667D01*
X14993762Y-10520667D02*
X15003286Y-10539714D01*
X15003286Y-10539714D02*
X15003286Y-10558762D01*
X15003286Y-10558762D02*
X14908048Y-10577810D01*
X15079476Y-10634952D02*
X15098524Y-10644476D01*
X15098524Y-10644476D02*
X15136619Y-10644476D01*
X15136619Y-10644476D02*
X15155667Y-10634952D01*
X15155667Y-10634952D02*
X15165191Y-10615905D01*
X15165191Y-10615905D02*
X15165191Y-10606381D01*
X15165191Y-10606381D02*
X15155667Y-10587333D01*
X15155667Y-10587333D02*
X15136619Y-10577810D01*
X15136619Y-10577810D02*
X15108048Y-10577810D01*
X15108048Y-10577810D02*
X15089000Y-10568286D01*
X15089000Y-10568286D02*
X15079476Y-10549238D01*
X15079476Y-10549238D02*
X15079476Y-10539714D01*
X15079476Y-10539714D02*
X15089000Y-10520667D01*
X15089000Y-10520667D02*
X15108048Y-10511143D01*
X15108048Y-10511143D02*
X15136619Y-10511143D01*
X15136619Y-10511143D02*
X15155667Y-10520667D01*
X15231857Y-10720667D02*
X15241381Y-10711143D01*
X15241381Y-10711143D02*
X15260429Y-10682571D01*
X15260429Y-10682571D02*
X15269953Y-10663524D01*
X15269953Y-10663524D02*
X15279476Y-10634952D01*
X15279476Y-10634952D02*
X15289000Y-10587333D01*
X15289000Y-10587333D02*
X15289000Y-10549238D01*
X15289000Y-10549238D02*
X15279476Y-10501619D01*
X15279476Y-10501619D02*
X15269953Y-10473048D01*
X15269953Y-10473048D02*
X15260429Y-10454000D01*
X15260429Y-10454000D02*
X15241381Y-10425429D01*
X15241381Y-10425429D02*
X15231857Y-10415905D01*
D10*
X10394356Y-10870356D02*
X10394356Y-10799644D01*
X10323644Y-10799644D01*
X10323644Y-10870356D01*
X10394356Y-10870356D01*
D11*
X10761381Y-10908476D02*
X10647095Y-10908476D01*
X10704238Y-10908476D02*
X10704238Y-10708476D01*
X10704238Y-10708476D02*
X10685190Y-10737048D01*
X10685190Y-10737048D02*
X10666143Y-10756095D01*
X10666143Y-10756095D02*
X10647095Y-10765619D01*
X10847095Y-10889429D02*
X10856619Y-10898952D01*
X10856619Y-10898952D02*
X10847095Y-10908476D01*
X10847095Y-10908476D02*
X10837571Y-10898952D01*
X10837571Y-10898952D02*
X10847095Y-10889429D01*
X10847095Y-10889429D02*
X10847095Y-10908476D01*
X10980429Y-10708476D02*
X10999476Y-10708476D01*
X10999476Y-10708476D02*
X11018524Y-10718000D01*
X11018524Y-10718000D02*
X11028048Y-10727524D01*
X11028048Y-10727524D02*
X11037571Y-10746571D01*
X11037571Y-10746571D02*
X11047095Y-10784667D01*
X11047095Y-10784667D02*
X11047095Y-10832286D01*
X11047095Y-10832286D02*
X11037571Y-10870381D01*
X11037571Y-10870381D02*
X11028048Y-10889429D01*
X11028048Y-10889429D02*
X11018524Y-10898952D01*
X11018524Y-10898952D02*
X10999476Y-10908476D01*
X10999476Y-10908476D02*
X10980429Y-10908476D01*
X10980429Y-10908476D02*
X10961381Y-10898952D01*
X10961381Y-10898952D02*
X10951857Y-10889429D01*
X10951857Y-10889429D02*
X10942333Y-10870381D01*
X10942333Y-10870381D02*
X10932810Y-10832286D01*
X10932810Y-10832286D02*
X10932810Y-10784667D01*
X10932810Y-10784667D02*
X10942333Y-10746571D01*
X10942333Y-10746571D02*
X10951857Y-10727524D01*
X10951857Y-10727524D02*
X10961381Y-10718000D01*
X10961381Y-10718000D02*
X10980429Y-10708476D01*
X11170905Y-10708476D02*
X11189952Y-10708476D01*
X11189952Y-10708476D02*
X11209000Y-10718000D01*
X11209000Y-10718000D02*
X11218524Y-10727524D01*
X11218524Y-10727524D02*
X11228048Y-10746571D01*
X11228048Y-10746571D02*
X11237571Y-10784667D01*
X11237571Y-10784667D02*
X11237571Y-10832286D01*
X11237571Y-10832286D02*
X11228048Y-10870381D01*
X11228048Y-10870381D02*
X11218524Y-10889429D01*
X11218524Y-10889429D02*
X11209000Y-10898952D01*
X11209000Y-10898952D02*
X11189952Y-10908476D01*
X11189952Y-10908476D02*
X11170905Y-10908476D01*
X11170905Y-10908476D02*
X11151857Y-10898952D01*
X11151857Y-10898952D02*
X11142333Y-10889429D01*
X11142333Y-10889429D02*
X11132810Y-10870381D01*
X11132810Y-10870381D02*
X11123286Y-10832286D01*
X11123286Y-10832286D02*
X11123286Y-10784667D01*
X11123286Y-10784667D02*
X11132810Y-10746571D01*
X11132810Y-10746571D02*
X11142333Y-10727524D01*
X11142333Y-10727524D02*
X11151857Y-10718000D01*
X11151857Y-10718000D02*
X11170905Y-10708476D01*
X11361381Y-10708476D02*
X11380429Y-10708476D01*
X11380429Y-10708476D02*
X11399476Y-10718000D01*
X11399476Y-10718000D02*
X11409000Y-10727524D01*
X11409000Y-10727524D02*
X11418524Y-10746571D01*
X11418524Y-10746571D02*
X11428048Y-10784667D01*
X11428048Y-10784667D02*
X11428048Y-10832286D01*
X11428048Y-10832286D02*
X11418524Y-10870381D01*
X11418524Y-10870381D02*
X11409000Y-10889429D01*
X11409000Y-10889429D02*
X11399476Y-10898952D01*
X11399476Y-10898952D02*
X11380429Y-10908476D01*
X11380429Y-10908476D02*
X11361381Y-10908476D01*
X11361381Y-10908476D02*
X11342333Y-10898952D01*
X11342333Y-10898952D02*
X11332809Y-10889429D01*
X11332809Y-10889429D02*
X11323286Y-10870381D01*
X11323286Y-10870381D02*
X11313762Y-10832286D01*
X11313762Y-10832286D02*
X11313762Y-10784667D01*
X11313762Y-10784667D02*
X11323286Y-10746571D01*
X11323286Y-10746571D02*
X11332809Y-10727524D01*
X11332809Y-10727524D02*
X11342333Y-10718000D01*
X11342333Y-10718000D02*
X11361381Y-10708476D01*
X11513762Y-10908476D02*
X11513762Y-10775143D01*
X11513762Y-10794190D02*
X11523286Y-10784667D01*
X11523286Y-10784667D02*
X11542333Y-10775143D01*
X11542333Y-10775143D02*
X11570905Y-10775143D01*
X11570905Y-10775143D02*
X11589952Y-10784667D01*
X11589952Y-10784667D02*
X11599476Y-10803714D01*
X11599476Y-10803714D02*
X11599476Y-10908476D01*
X11599476Y-10803714D02*
X11609000Y-10784667D01*
X11609000Y-10784667D02*
X11628048Y-10775143D01*
X11628048Y-10775143D02*
X11656619Y-10775143D01*
X11656619Y-10775143D02*
X11675667Y-10784667D01*
X11675667Y-10784667D02*
X11685190Y-10803714D01*
X11685190Y-10803714D02*
X11685190Y-10908476D01*
X11780429Y-10908476D02*
X11780429Y-10775143D01*
X11780429Y-10794190D02*
X11789952Y-10784667D01*
X11789952Y-10784667D02*
X11809000Y-10775143D01*
X11809000Y-10775143D02*
X11837571Y-10775143D01*
X11837571Y-10775143D02*
X11856619Y-10784667D01*
X11856619Y-10784667D02*
X11866143Y-10803714D01*
X11866143Y-10803714D02*
X11866143Y-10908476D01*
X11866143Y-10803714D02*
X11875667Y-10784667D01*
X11875667Y-10784667D02*
X11894714Y-10775143D01*
X11894714Y-10775143D02*
X11923286Y-10775143D01*
X11923286Y-10775143D02*
X11942333Y-10784667D01*
X11942333Y-10784667D02*
X11951857Y-10803714D01*
X11951857Y-10803714D02*
X11951857Y-10908476D01*
X12309952Y-10698952D02*
X12138524Y-10956095D01*
X12534714Y-10708476D02*
X12553762Y-10708476D01*
X12553762Y-10708476D02*
X12572810Y-10718000D01*
X12572810Y-10718000D02*
X12582333Y-10727524D01*
X12582333Y-10727524D02*
X12591857Y-10746571D01*
X12591857Y-10746571D02*
X12601381Y-10784667D01*
X12601381Y-10784667D02*
X12601381Y-10832286D01*
X12601381Y-10832286D02*
X12591857Y-10870381D01*
X12591857Y-10870381D02*
X12582333Y-10889429D01*
X12582333Y-10889429D02*
X12572810Y-10898952D01*
X12572810Y-10898952D02*
X12553762Y-10908476D01*
X12553762Y-10908476D02*
X12534714Y-10908476D01*
X12534714Y-10908476D02*
X12515667Y-10898952D01*
X12515667Y-10898952D02*
X12506143Y-10889429D01*
X12506143Y-10889429D02*
X12496619Y-10870381D01*
X12496619Y-10870381D02*
X12487095Y-10832286D01*
X12487095Y-10832286D02*
X12487095Y-10784667D01*
X12487095Y-10784667D02*
X12496619Y-10746571D01*
X12496619Y-10746571D02*
X12506143Y-10727524D01*
X12506143Y-10727524D02*
X12515667Y-10718000D01*
X12515667Y-10718000D02*
X12534714Y-10708476D01*
X12687095Y-10889429D02*
X12696619Y-10898952D01*
X12696619Y-10898952D02*
X12687095Y-10908476D01*
X12687095Y-10908476D02*
X12677571Y-10898952D01*
X12677571Y-10898952D02*
X12687095Y-10889429D01*
X12687095Y-10889429D02*
X12687095Y-10908476D01*
X12820429Y-10708476D02*
X12839476Y-10708476D01*
X12839476Y-10708476D02*
X12858524Y-10718000D01*
X12858524Y-10718000D02*
X12868048Y-10727524D01*
X12868048Y-10727524D02*
X12877571Y-10746571D01*
X12877571Y-10746571D02*
X12887095Y-10784667D01*
X12887095Y-10784667D02*
X12887095Y-10832286D01*
X12887095Y-10832286D02*
X12877571Y-10870381D01*
X12877571Y-10870381D02*
X12868048Y-10889429D01*
X12868048Y-10889429D02*
X12858524Y-10898952D01*
X12858524Y-10898952D02*
X12839476Y-10908476D01*
X12839476Y-10908476D02*
X12820429Y-10908476D01*
X12820429Y-10908476D02*
X12801381Y-10898952D01*
X12801381Y-10898952D02*
X12791857Y-10889429D01*
X12791857Y-10889429D02*
X12782333Y-10870381D01*
X12782333Y-10870381D02*
X12772810Y-10832286D01*
X12772810Y-10832286D02*
X12772810Y-10784667D01*
X12772810Y-10784667D02*
X12782333Y-10746571D01*
X12782333Y-10746571D02*
X12791857Y-10727524D01*
X12791857Y-10727524D02*
X12801381Y-10718000D01*
X12801381Y-10718000D02*
X12820429Y-10708476D01*
X12953762Y-10708476D02*
X13077571Y-10708476D01*
X13077571Y-10708476D02*
X13010905Y-10784667D01*
X13010905Y-10784667D02*
X13039476Y-10784667D01*
X13039476Y-10784667D02*
X13058524Y-10794190D01*
X13058524Y-10794190D02*
X13068048Y-10803714D01*
X13068048Y-10803714D02*
X13077571Y-10822762D01*
X13077571Y-10822762D02*
X13077571Y-10870381D01*
X13077571Y-10870381D02*
X13068048Y-10889429D01*
X13068048Y-10889429D02*
X13058524Y-10898952D01*
X13058524Y-10898952D02*
X13039476Y-10908476D01*
X13039476Y-10908476D02*
X12982333Y-10908476D01*
X12982333Y-10908476D02*
X12963286Y-10898952D01*
X12963286Y-10898952D02*
X12953762Y-10889429D01*
X13172810Y-10908476D02*
X13210905Y-10908476D01*
X13210905Y-10908476D02*
X13229952Y-10898952D01*
X13229952Y-10898952D02*
X13239476Y-10889429D01*
X13239476Y-10889429D02*
X13258524Y-10860857D01*
X13258524Y-10860857D02*
X13268048Y-10822762D01*
X13268048Y-10822762D02*
X13268048Y-10746571D01*
X13268048Y-10746571D02*
X13258524Y-10727524D01*
X13258524Y-10727524D02*
X13249000Y-10718000D01*
X13249000Y-10718000D02*
X13229952Y-10708476D01*
X13229952Y-10708476D02*
X13191857Y-10708476D01*
X13191857Y-10708476D02*
X13172810Y-10718000D01*
X13172810Y-10718000D02*
X13163286Y-10727524D01*
X13163286Y-10727524D02*
X13153762Y-10746571D01*
X13153762Y-10746571D02*
X13153762Y-10794190D01*
X13153762Y-10794190D02*
X13163286Y-10813238D01*
X13163286Y-10813238D02*
X13172810Y-10822762D01*
X13172810Y-10822762D02*
X13191857Y-10832286D01*
X13191857Y-10832286D02*
X13229952Y-10832286D01*
X13229952Y-10832286D02*
X13249000Y-10822762D01*
X13249000Y-10822762D02*
X13258524Y-10813238D01*
X13258524Y-10813238D02*
X13268048Y-10794190D01*
X13439476Y-10775143D02*
X13439476Y-10908476D01*
X13391857Y-10698952D02*
X13344238Y-10841810D01*
X13344238Y-10841810D02*
X13468048Y-10841810D01*
X13534714Y-10708476D02*
X13534714Y-10746571D01*
X13610905Y-10708476D02*
X13610905Y-10746571D01*
X13873762Y-10984667D02*
X13864238Y-10975143D01*
X13864238Y-10975143D02*
X13845191Y-10946571D01*
X13845191Y-10946571D02*
X13835667Y-10927524D01*
X13835667Y-10927524D02*
X13826143Y-10898952D01*
X13826143Y-10898952D02*
X13816619Y-10851333D01*
X13816619Y-10851333D02*
X13816619Y-10813238D01*
X13816619Y-10813238D02*
X13826143Y-10765619D01*
X13826143Y-10765619D02*
X13835667Y-10737048D01*
X13835667Y-10737048D02*
X13845191Y-10718000D01*
X13845191Y-10718000D02*
X13864238Y-10689429D01*
X13864238Y-10689429D02*
X13873762Y-10679905D01*
X14054714Y-10908476D02*
X13940429Y-10908476D01*
X13997571Y-10908476D02*
X13997571Y-10708476D01*
X13997571Y-10708476D02*
X13978524Y-10737048D01*
X13978524Y-10737048D02*
X13959476Y-10756095D01*
X13959476Y-10756095D02*
X13940429Y-10765619D01*
X14169000Y-10794190D02*
X14149952Y-10784667D01*
X14149952Y-10784667D02*
X14140429Y-10775143D01*
X14140429Y-10775143D02*
X14130905Y-10756095D01*
X14130905Y-10756095D02*
X14130905Y-10746571D01*
X14130905Y-10746571D02*
X14140429Y-10727524D01*
X14140429Y-10727524D02*
X14149952Y-10718000D01*
X14149952Y-10718000D02*
X14169000Y-10708476D01*
X14169000Y-10708476D02*
X14207095Y-10708476D01*
X14207095Y-10708476D02*
X14226143Y-10718000D01*
X14226143Y-10718000D02*
X14235667Y-10727524D01*
X14235667Y-10727524D02*
X14245191Y-10746571D01*
X14245191Y-10746571D02*
X14245191Y-10756095D01*
X14245191Y-10756095D02*
X14235667Y-10775143D01*
X14235667Y-10775143D02*
X14226143Y-10784667D01*
X14226143Y-10784667D02*
X14207095Y-10794190D01*
X14207095Y-10794190D02*
X14169000Y-10794190D01*
X14169000Y-10794190D02*
X14149952Y-10803714D01*
X14149952Y-10803714D02*
X14140429Y-10813238D01*
X14140429Y-10813238D02*
X14130905Y-10832286D01*
X14130905Y-10832286D02*
X14130905Y-10870381D01*
X14130905Y-10870381D02*
X14140429Y-10889429D01*
X14140429Y-10889429D02*
X14149952Y-10898952D01*
X14149952Y-10898952D02*
X14169000Y-10908476D01*
X14169000Y-10908476D02*
X14207095Y-10908476D01*
X14207095Y-10908476D02*
X14226143Y-10898952D01*
X14226143Y-10898952D02*
X14235667Y-10889429D01*
X14235667Y-10889429D02*
X14245191Y-10870381D01*
X14245191Y-10870381D02*
X14245191Y-10832286D01*
X14245191Y-10832286D02*
X14235667Y-10813238D01*
X14235667Y-10813238D02*
X14226143Y-10803714D01*
X14226143Y-10803714D02*
X14207095Y-10794190D01*
X14450905Y-10908476D02*
X14450905Y-10708476D01*
X14536619Y-10908476D02*
X14536619Y-10803714D01*
X14536619Y-10803714D02*
X14527095Y-10784667D01*
X14527095Y-10784667D02*
X14508048Y-10775143D01*
X14508048Y-10775143D02*
X14479476Y-10775143D01*
X14479476Y-10775143D02*
X14460429Y-10784667D01*
X14460429Y-10784667D02*
X14450905Y-10794190D01*
X14660429Y-10908476D02*
X14641381Y-10898952D01*
X14641381Y-10898952D02*
X14631857Y-10889429D01*
X14631857Y-10889429D02*
X14622333Y-10870381D01*
X14622333Y-10870381D02*
X14622333Y-10813238D01*
X14622333Y-10813238D02*
X14631857Y-10794190D01*
X14631857Y-10794190D02*
X14641381Y-10784667D01*
X14641381Y-10784667D02*
X14660429Y-10775143D01*
X14660429Y-10775143D02*
X14689000Y-10775143D01*
X14689000Y-10775143D02*
X14708048Y-10784667D01*
X14708048Y-10784667D02*
X14717572Y-10794190D01*
X14717572Y-10794190D02*
X14727095Y-10813238D01*
X14727095Y-10813238D02*
X14727095Y-10870381D01*
X14727095Y-10870381D02*
X14717572Y-10889429D01*
X14717572Y-10889429D02*
X14708048Y-10898952D01*
X14708048Y-10898952D02*
X14689000Y-10908476D01*
X14689000Y-10908476D02*
X14660429Y-10908476D01*
X14841381Y-10908476D02*
X14822333Y-10898952D01*
X14822333Y-10898952D02*
X14812810Y-10879905D01*
X14812810Y-10879905D02*
X14812810Y-10708476D01*
X14993762Y-10898952D02*
X14974714Y-10908476D01*
X14974714Y-10908476D02*
X14936619Y-10908476D01*
X14936619Y-10908476D02*
X14917572Y-10898952D01*
X14917572Y-10898952D02*
X14908048Y-10879905D01*
X14908048Y-10879905D02*
X14908048Y-10803714D01*
X14908048Y-10803714D02*
X14917572Y-10784667D01*
X14917572Y-10784667D02*
X14936619Y-10775143D01*
X14936619Y-10775143D02*
X14974714Y-10775143D01*
X14974714Y-10775143D02*
X14993762Y-10784667D01*
X14993762Y-10784667D02*
X15003286Y-10803714D01*
X15003286Y-10803714D02*
X15003286Y-10822762D01*
X15003286Y-10822762D02*
X14908048Y-10841810D01*
X15079476Y-10898952D02*
X15098524Y-10908476D01*
X15098524Y-10908476D02*
X15136619Y-10908476D01*
X15136619Y-10908476D02*
X15155667Y-10898952D01*
X15155667Y-10898952D02*
X15165191Y-10879905D01*
X15165191Y-10879905D02*
X15165191Y-10870381D01*
X15165191Y-10870381D02*
X15155667Y-10851333D01*
X15155667Y-10851333D02*
X15136619Y-10841810D01*
X15136619Y-10841810D02*
X15108048Y-10841810D01*
X15108048Y-10841810D02*
X15089000Y-10832286D01*
X15089000Y-10832286D02*
X15079476Y-10813238D01*
X15079476Y-10813238D02*
X15079476Y-10803714D01*
X15079476Y-10803714D02*
X15089000Y-10784667D01*
X15089000Y-10784667D02*
X15108048Y-10775143D01*
X15108048Y-10775143D02*
X15136619Y-10775143D01*
X15136619Y-10775143D02*
X15155667Y-10784667D01*
X15231857Y-10984667D02*
X15241381Y-10975143D01*
X15241381Y-10975143D02*
X15260429Y-10946571D01*
X15260429Y-10946571D02*
X15269953Y-10927524D01*
X15269953Y-10927524D02*
X15279476Y-10898952D01*
X15279476Y-10898952D02*
X15289000Y-10851333D01*
X15289000Y-10851333D02*
X15289000Y-10813238D01*
X15289000Y-10813238D02*
X15279476Y-10765619D01*
X15279476Y-10765619D02*
X15269953Y-10737048D01*
X15269953Y-10737048D02*
X15260429Y-10718000D01*
X15260429Y-10718000D02*
X15241381Y-10689429D01*
X15241381Y-10689429D02*
X15231857Y-10679905D01*
M02*
