M48
; DRILL file {KiCad (7.0.0)} date Sun Mar  5 21:28:27 2023
; FORMAT={-:-/ absolute / inch / decimal}
; #@! TF.CreationDate,2023-03-05T21:28:27-05:00
; #@! TF.GenerationSoftware,Kicad,Pcbnew,(7.0.0)
; #@! TF.FileFunction,Plated,1,4,PTH
FMAT,2
INCH
; #@! TA.AperFunction,Plated,PTH,ViaDrill
T1C0.0157
; #@! TA.AperFunction,Plated,PTH,ComponentDrill
T2C0.0315
; #@! TA.AperFunction,Plated,PTH,ComponentDrill
T3C0.0354
; #@! TA.AperFunction,Plated,PTH,ComponentDrill
T4C0.0394
%
G90
G05
T1
X5.5715Y-2.1
X5.9047Y-2.0
X6.0Y-2.7
X6.0945Y-2.4
X6.2039Y-2.4096
X6.2285Y-2.0807
X6.2285Y-2.1807
X6.2924Y-2.4076
X6.2971Y-2.5029
X6.3Y-2.3
X6.3545Y-2.4748
X6.4Y-2.4748
X6.4285Y-2.7
X6.4394Y-2.4748
X7.1Y-1.9
X7.1Y-2.5
T2
X4.8Y-1.9
X4.8Y-2.0
X4.8Y-2.1
X4.8Y-2.2
X4.8Y-2.3
X4.8Y-2.4
X4.8Y-2.5
X4.8Y-2.6
X5.1Y-1.9
X5.1Y-2.0
X5.1Y-2.1
X5.1Y-2.2
X5.1Y-2.3
X5.1Y-2.4
X5.1Y-2.5
X5.1Y-2.6
X5.5Y-3.5
X5.6Y-3.5
X5.7Y-3.5
X5.8Y-3.5
X5.8496Y-1.9
X5.8496Y-2.0
X5.8496Y-2.1
X5.8496Y-2.2
X5.8496Y-2.3
X5.8496Y-2.4
X5.8496Y-2.5
X5.8496Y-2.6
X5.9Y-3.5
X6.0Y-3.5
X6.1Y-3.5
X6.1496Y-1.9
X6.1496Y-2.0
X6.1496Y-2.1
X6.1496Y-2.2
X6.1496Y-2.3
X6.1496Y-2.4
X6.1496Y-2.5
X6.1496Y-2.6
X6.2Y-3.5
X6.3Y-3.5
X7.0Y-1.8
X7.0Y-1.9
X7.0Y-2.0
X7.0Y-2.1
X7.0Y-2.2
X7.0Y-2.3
X7.0Y-2.4
X7.0Y-2.5
X7.0Y-2.6
X7.0Y-2.7
X7.3Y-1.8
X7.3Y-1.9
X7.3Y-2.0
X7.3Y-2.1
X7.3Y-2.2
X7.3Y-2.3
X7.3Y-2.4
X7.3Y-2.5
X7.3Y-2.6
X7.3Y-2.7
T3
X4.3Y-3.1
X4.3Y-3.2
X4.7Y-3.1
X4.7Y-3.2
X5.1Y-3.1
X5.1Y-3.2
X5.5Y-3.1
X5.5Y-3.2
X5.9Y-3.1
X5.9Y-3.2
X6.3Y-3.1
X6.3Y-3.2
X6.7Y-3.1
X6.7Y-3.2
X7.1Y-3.1
X7.1Y-3.2
T4
X5.4Y-2.1
X5.4Y-2.2
X5.4Y-2.3
X5.4Y-2.4
X6.5Y-1.9
X6.5Y-2.0
X6.5Y-2.1
X6.5Y-2.2
X6.5Y-2.3
X6.5Y-2.4
X6.5Y-2.5
X6.5Y-2.6
X7.5Y-3.0
X7.5Y-3.1
X7.5Y-3.2
X7.5Y-3.3
X7.5Y-3.4
X7.5Y-3.5
T0
M30
