%TF.GenerationSoftware,KiCad,Pcbnew,(7.0.0)*%
%TF.CreationDate,2023-03-05T21:28:25-05:00*%
%TF.ProjectId,8bc_ir,3862635f-6972-42e6-9b69-6361645f7063,rev?*%
%TF.SameCoordinates,Original*%
%TF.FileFunction,Soldermask,Top*%
%TF.FilePolarity,Negative*%
%FSLAX46Y46*%
G04 Gerber Fmt 4.6, Leading zero omitted, Abs format (unit mm)*
G04 Created by KiCad (PCBNEW (7.0.0)) date 2023-03-05 21:28:25*
%MOMM*%
%LPD*%
G01*
G04 APERTURE LIST*
%ADD10R,1.600000X1.600000*%
%ADD11O,1.600000X1.600000*%
%ADD12R,1.700000X1.700000*%
%ADD13O,1.700000X1.700000*%
%ADD14R,1.800000X1.800000*%
%ADD15C,1.800000*%
G04 APERTURE END LIST*
D10*
%TO.C,U3*%
X156199999Y-66039999D03*
D11*
X156199999Y-63499999D03*
X156199999Y-60959999D03*
X156199999Y-58419999D03*
X156199999Y-55879999D03*
X156199999Y-53339999D03*
X156199999Y-50799999D03*
X156199999Y-48259999D03*
X148579999Y-48259999D03*
X148579999Y-50799999D03*
X148579999Y-53339999D03*
X148579999Y-55879999D03*
X148579999Y-58419999D03*
X148579999Y-60959999D03*
X148579999Y-63499999D03*
X148579999Y-66039999D03*
%TD*%
D10*
%TO.C,U2*%
X129539999Y-66039999D03*
D11*
X129539999Y-63499999D03*
X129539999Y-60959999D03*
X129539999Y-58419999D03*
X129539999Y-55879999D03*
X129539999Y-53339999D03*
X129539999Y-50799999D03*
X129539999Y-48259999D03*
X121919999Y-48259999D03*
X121919999Y-50799999D03*
X121919999Y-53339999D03*
X121919999Y-55879999D03*
X121919999Y-58419999D03*
X121919999Y-60959999D03*
X121919999Y-63499999D03*
X121919999Y-66039999D03*
%TD*%
D10*
%TO.C,U1*%
X185419999Y-68579999D03*
D11*
X185419999Y-66039999D03*
X185419999Y-63499999D03*
X185419999Y-60959999D03*
X185419999Y-58419999D03*
X185419999Y-55879999D03*
X185419999Y-53339999D03*
X185419999Y-50799999D03*
X185419999Y-48259999D03*
X185419999Y-45719999D03*
X177799999Y-45719999D03*
X177799999Y-48259999D03*
X177799999Y-50799999D03*
X177799999Y-53339999D03*
X177799999Y-55879999D03*
X177799999Y-58419999D03*
X177799999Y-60959999D03*
X177799999Y-63499999D03*
X177799999Y-66039999D03*
X177799999Y-68579999D03*
%TD*%
D10*
%TO.C,RN1*%
X160019999Y-88899999D03*
D11*
X157479999Y-88899999D03*
X154939999Y-88899999D03*
X152399999Y-88899999D03*
X149859999Y-88899999D03*
X147319999Y-88899999D03*
X144779999Y-88899999D03*
X142239999Y-88899999D03*
X139699999Y-88899999D03*
%TD*%
D12*
%TO.C,J3*%
X137159999Y-53339999D03*
D13*
X137159999Y-55879999D03*
X137159999Y-58419999D03*
X137159999Y-60959999D03*
%TD*%
%TO.C,J2*%
X190499999Y-88899999D03*
X190499999Y-86359999D03*
X190499999Y-83819999D03*
X190499999Y-81279999D03*
X190499999Y-78739999D03*
D12*
X190499999Y-76199999D03*
%TD*%
%TO.C,J1*%
X165099999Y-48259999D03*
D13*
X165099999Y-50799999D03*
X165099999Y-53339999D03*
X165099999Y-55879999D03*
X165099999Y-58419999D03*
X165099999Y-60959999D03*
X165099999Y-63499999D03*
X165099999Y-66039999D03*
%TD*%
D14*
%TO.C,D8*%
X180339999Y-81279999D03*
D15*
X180340000Y-78740000D03*
%TD*%
D14*
%TO.C,D7*%
X170179999Y-81279999D03*
D15*
X170180000Y-78740000D03*
%TD*%
D14*
%TO.C,D6*%
X160019999Y-81279999D03*
D15*
X160020000Y-78740000D03*
%TD*%
D14*
%TO.C,D5*%
X149859999Y-81279999D03*
D15*
X149860000Y-78740000D03*
%TD*%
D14*
%TO.C,D4*%
X139699999Y-81279999D03*
D15*
X139700000Y-78740000D03*
%TD*%
D14*
%TO.C,D3*%
X129539999Y-81279999D03*
D15*
X129540000Y-78740000D03*
%TD*%
D14*
%TO.C,D2*%
X119379999Y-81279999D03*
D15*
X119380000Y-78740000D03*
%TD*%
D14*
%TO.C,D1*%
X109219999Y-81279999D03*
D15*
X109220000Y-78740000D03*
%TD*%
M02*
