%TF.GenerationSoftware,KiCad,Pcbnew,(7.0.0)*%
%TF.CreationDate,2023-02-28T23:31:08-05:00*%
%TF.ProjectId,8bc_registers,3862635f-7265-4676-9973-746572732e6b,1.0*%
%TF.SameCoordinates,Original*%
%TF.FileFunction,Copper,L4,Bot*%
%TF.FilePolarity,Positive*%
%FSLAX46Y46*%
G04 Gerber Fmt 4.6, Leading zero omitted, Abs format (unit mm)*
G04 Created by KiCad (PCBNEW (7.0.0)) date 2023-02-28 23:31:08*
%MOMM*%
%LPD*%
G01*
G04 APERTURE LIST*
%TA.AperFunction,WasherPad*%
%ADD10C,2.600000*%
%TD*%
%TA.AperFunction,ComponentPad*%
%ADD11R,1.800000X1.800000*%
%TD*%
%TA.AperFunction,ComponentPad*%
%ADD12C,1.800000*%
%TD*%
%TA.AperFunction,ComponentPad*%
%ADD13R,1.600000X1.600000*%
%TD*%
%TA.AperFunction,ComponentPad*%
%ADD14O,1.600000X1.600000*%
%TD*%
%TA.AperFunction,ComponentPad*%
%ADD15R,1.700000X1.700000*%
%TD*%
%TA.AperFunction,ComponentPad*%
%ADD16O,1.700000X1.700000*%
%TD*%
%TA.AperFunction,ComponentPad*%
%ADD17C,1.600000*%
%TD*%
%TA.AperFunction,ViaPad*%
%ADD18C,0.800000*%
%TD*%
%TA.AperFunction,Conductor*%
%ADD19C,0.250000*%
%TD*%
G04 APERTURE END LIST*
D10*
%TO.P,REF\u002A\u002A,*%
%TO.N,*%
X198120000Y-109220000D03*
%TD*%
%TO.P,REF\u002A\u002A,*%
%TO.N,*%
X198120000Y-38100000D03*
%TD*%
D11*
%TO.P,D1,1,K*%
%TO.N,Net-(D1-K)*%
X116839999Y-60959999D03*
D12*
%TO.P,D1,2,A*%
%TO.N,A0*%
X119380000Y-60960000D03*
%TD*%
D13*
%TO.P,U6,1,Oe1*%
%TO.N,GND*%
X142239999Y-83819999D03*
D14*
%TO.P,U6,2,Oe2*%
X144779999Y-83819999D03*
%TO.P,U6,3,Q0*%
%TO.N,B3*%
X147319999Y-83819999D03*
%TO.P,U6,4,Q1*%
%TO.N,B2*%
X149859999Y-83819999D03*
%TO.P,U6,5,Q2*%
%TO.N,B1*%
X152399999Y-83819999D03*
%TO.P,U6,6,Q3*%
%TO.N,B0*%
X154939999Y-83819999D03*
%TO.P,U6,7,Cp*%
%TO.N,CLK*%
X157479999Y-83819999D03*
%TO.P,U6,8,GND*%
%TO.N,GND*%
X160019999Y-83819999D03*
%TO.P,U6,9,E1*%
%TO.N,~{BI}*%
X160019999Y-76199999D03*
%TO.P,U6,10,E2*%
X157479999Y-76199999D03*
%TO.P,U6,11,D3*%
%TO.N,BUS_0*%
X154939999Y-76199999D03*
%TO.P,U6,12,D2*%
%TO.N,BUS_1*%
X152399999Y-76199999D03*
%TO.P,U6,13,D1*%
%TO.N,BUS_2*%
X149859999Y-76199999D03*
%TO.P,U6,14,D0*%
%TO.N,BUS_3*%
X147319999Y-76199999D03*
%TO.P,U6,15,Mr*%
%TO.N,CLR*%
X144779999Y-76199999D03*
%TO.P,U6,16,VCC*%
%TO.N,+5V*%
X142239999Y-76199999D03*
%TD*%
D11*
%TO.P,D3,1,K*%
%TO.N,Net-(D3-K)*%
X137159999Y-60959999D03*
D12*
%TO.P,D3,2,A*%
%TO.N,A2*%
X139700000Y-60960000D03*
%TD*%
D13*
%TO.P,U2,1,Oe1*%
%TO.N,GND*%
X117599999Y-49519999D03*
D14*
%TO.P,U2,2,Oe2*%
X120139999Y-49519999D03*
%TO.P,U2,3,Q0*%
%TO.N,A7*%
X122679999Y-49519999D03*
%TO.P,U2,4,Q1*%
%TO.N,A6*%
X125219999Y-49519999D03*
%TO.P,U2,5,Q2*%
%TO.N,A5*%
X127759999Y-49519999D03*
%TO.P,U2,6,Q3*%
%TO.N,A4*%
X130299999Y-49519999D03*
%TO.P,U2,7,Cp*%
%TO.N,CLK*%
X132839999Y-49519999D03*
%TO.P,U2,8,GND*%
%TO.N,GND*%
X135379999Y-49519999D03*
%TO.P,U2,9,E1*%
%TO.N,~{AI}*%
X135379999Y-41899999D03*
%TO.P,U2,10,E2*%
X132839999Y-41899999D03*
%TO.P,U2,11,D3*%
%TO.N,BUS_4*%
X130299999Y-41899999D03*
%TO.P,U2,12,D2*%
%TO.N,BUS_5*%
X127759999Y-41899999D03*
%TO.P,U2,13,D1*%
%TO.N,BUS_6*%
X125219999Y-41899999D03*
%TO.P,U2,14,D0*%
%TO.N,BUS_7*%
X122679999Y-41899999D03*
%TO.P,U2,15,Mr*%
%TO.N,CLR*%
X120139999Y-41899999D03*
%TO.P,U2,16,VCC*%
%TO.N,+5V*%
X117599999Y-41899999D03*
%TD*%
D13*
%TO.P,U1,1,A->B*%
%TO.N,+5V*%
X168399999Y-49519999D03*
D14*
%TO.P,U1,2,A0*%
%TO.N,A7*%
X170939999Y-49519999D03*
%TO.P,U1,3,A1*%
%TO.N,A6*%
X173479999Y-49519999D03*
%TO.P,U1,4,A2*%
%TO.N,A5*%
X176019999Y-49519999D03*
%TO.P,U1,5,A3*%
%TO.N,A4*%
X178559999Y-49519999D03*
%TO.P,U1,6,A4*%
%TO.N,A3*%
X181099999Y-49519999D03*
%TO.P,U1,7,A5*%
%TO.N,A2*%
X183639999Y-49519999D03*
%TO.P,U1,8,A6*%
%TO.N,A1*%
X186179999Y-49519999D03*
%TO.P,U1,9,A7*%
%TO.N,A0*%
X188719999Y-49519999D03*
%TO.P,U1,10,GND*%
%TO.N,GND*%
X191259999Y-49519999D03*
%TO.P,U1,11,B7*%
%TO.N,BUS_0*%
X191259999Y-41899999D03*
%TO.P,U1,12,B6*%
%TO.N,BUS_1*%
X188719999Y-41899999D03*
%TO.P,U1,13,B5*%
%TO.N,BUS_2*%
X186179999Y-41899999D03*
%TO.P,U1,14,B4*%
%TO.N,BUS_3*%
X183639999Y-41899999D03*
%TO.P,U1,15,B3*%
%TO.N,BUS_4*%
X181099999Y-41899999D03*
%TO.P,U1,16,B2*%
%TO.N,BUS_5*%
X178559999Y-41899999D03*
%TO.P,U1,17,B1*%
%TO.N,BUS_6*%
X176019999Y-41899999D03*
%TO.P,U1,18,B0*%
%TO.N,BUS_7*%
X173479999Y-41899999D03*
%TO.P,U1,19,CE*%
%TO.N,~{AO}*%
X170939999Y-41899999D03*
%TO.P,U1,20,VCC*%
%TO.N,+5V*%
X168399999Y-41899999D03*
%TD*%
D15*
%TO.P,J3,1,Pin_1*%
%TO.N,A0*%
X99059999Y-106679999D03*
D16*
%TO.P,J3,2,Pin_2*%
%TO.N,A1*%
X99059999Y-104139999D03*
%TO.P,J3,3,Pin_3*%
%TO.N,A2*%
X99059999Y-101599999D03*
%TO.P,J3,4,Pin_4*%
%TO.N,A3*%
X99059999Y-99059999D03*
%TO.P,J3,5,Pin_5*%
%TO.N,A4*%
X99059999Y-96519999D03*
%TO.P,J3,6,Pin_6*%
%TO.N,A5*%
X99059999Y-93979999D03*
%TO.P,J3,7,Pin_7*%
%TO.N,A6*%
X99059999Y-91439999D03*
%TO.P,J3,8,Pin_8*%
%TO.N,A7*%
X99059999Y-88899999D03*
%TD*%
D11*
%TO.P,D6,1,K*%
%TO.N,Net-(D6-K)*%
X167639999Y-60959999D03*
D12*
%TO.P,D6,2,A*%
%TO.N,A5*%
X170180000Y-60960000D03*
%TD*%
D13*
%TO.P,U3,1,Oe1*%
%TO.N,GND*%
X142999999Y-49519999D03*
D14*
%TO.P,U3,2,Oe2*%
X145539999Y-49519999D03*
%TO.P,U3,3,Q0*%
%TO.N,A3*%
X148079999Y-49519999D03*
%TO.P,U3,4,Q1*%
%TO.N,A2*%
X150619999Y-49519999D03*
%TO.P,U3,5,Q2*%
%TO.N,A1*%
X153159999Y-49519999D03*
%TO.P,U3,6,Q3*%
%TO.N,A0*%
X155699999Y-49519999D03*
%TO.P,U3,7,Cp*%
%TO.N,CLK*%
X158239999Y-49519999D03*
%TO.P,U3,8,GND*%
%TO.N,GND*%
X160779999Y-49519999D03*
%TO.P,U3,9,E1*%
%TO.N,~{AI}*%
X160779999Y-41899999D03*
%TO.P,U3,10,E2*%
X158239999Y-41899999D03*
%TO.P,U3,11,D3*%
%TO.N,BUS_0*%
X155699999Y-41899999D03*
%TO.P,U3,12,D2*%
%TO.N,BUS_1*%
X153159999Y-41899999D03*
%TO.P,U3,13,D1*%
%TO.N,BUS_2*%
X150619999Y-41899999D03*
%TO.P,U3,14,D0*%
%TO.N,BUS_3*%
X148079999Y-41899999D03*
%TO.P,U3,15,Mr*%
%TO.N,CLR*%
X145539999Y-41899999D03*
%TO.P,U3,16,VCC*%
%TO.N,+5V*%
X142999999Y-41899999D03*
%TD*%
D13*
%TO.P,U5,1,Oe1*%
%TO.N,GND*%
X116839999Y-83819999D03*
D14*
%TO.P,U5,2,Oe2*%
X119379999Y-83819999D03*
%TO.P,U5,3,Q0*%
%TO.N,B7*%
X121919999Y-83819999D03*
%TO.P,U5,4,Q1*%
%TO.N,B6*%
X124459999Y-83819999D03*
%TO.P,U5,5,Q2*%
%TO.N,B5*%
X126999999Y-83819999D03*
%TO.P,U5,6,Q3*%
%TO.N,B4*%
X129539999Y-83819999D03*
%TO.P,U5,7,Cp*%
%TO.N,CLK*%
X132079999Y-83819999D03*
%TO.P,U5,8,GND*%
%TO.N,GND*%
X134619999Y-83819999D03*
%TO.P,U5,9,E1*%
%TO.N,~{BI}*%
X134619999Y-76199999D03*
%TO.P,U5,10,E2*%
X132079999Y-76199999D03*
%TO.P,U5,11,D3*%
%TO.N,BUS_4*%
X129539999Y-76199999D03*
%TO.P,U5,12,D2*%
%TO.N,BUS_5*%
X126999999Y-76199999D03*
%TO.P,U5,13,D1*%
%TO.N,BUS_6*%
X124459999Y-76199999D03*
%TO.P,U5,14,D0*%
%TO.N,BUS_7*%
X121919999Y-76199999D03*
%TO.P,U5,15,Mr*%
%TO.N,CLR*%
X119379999Y-76199999D03*
%TO.P,U5,16,VCC*%
%TO.N,+5V*%
X116839999Y-76199999D03*
%TD*%
D11*
%TO.P,D9,1,K*%
%TO.N,Net-(D9-K)*%
X187959999Y-93979999D03*
D12*
%TO.P,D9,2,A*%
%TO.N,B7*%
X190500000Y-93980000D03*
%TD*%
D15*
%TO.P,J2,1,Pin_1*%
%TO.N,+5V*%
X101599999Y-40639999D03*
D16*
%TO.P,J2,2,Pin_2*%
%TO.N,GND*%
X101599999Y-43179999D03*
%TO.P,J2,3,Pin_3*%
%TO.N,~{BO}*%
X101599999Y-45719999D03*
%TO.P,J2,4,Pin_4*%
%TO.N,~{AO}*%
X101599999Y-48259999D03*
%TO.P,J2,5,Pin_5*%
%TO.N,~{BI}*%
X101599999Y-50799999D03*
%TO.P,J2,6,Pin_6*%
%TO.N,~{AI}*%
X101599999Y-53339999D03*
%TO.P,J2,7,Pin_7*%
%TO.N,CLR*%
X101599999Y-55879999D03*
%TO.P,J2,8,Pin_8*%
%TO.N,CLK*%
X101599999Y-58419999D03*
%TD*%
D15*
%TO.P,J4,1,Pin_1*%
%TO.N,B0*%
X104139999Y-106679999D03*
D16*
%TO.P,J4,2,Pin_2*%
%TO.N,B1*%
X104139999Y-104139999D03*
%TO.P,J4,3,Pin_3*%
%TO.N,B2*%
X104139999Y-101599999D03*
%TO.P,J4,4,Pin_4*%
%TO.N,B3*%
X104139999Y-99059999D03*
%TO.P,J4,5,Pin_5*%
%TO.N,B4*%
X104139999Y-96519999D03*
%TO.P,J4,6,Pin_6*%
%TO.N,B5*%
X104139999Y-93979999D03*
%TO.P,J4,7,Pin_7*%
%TO.N,B6*%
X104139999Y-91439999D03*
%TO.P,J4,8,Pin_8*%
%TO.N,B7*%
X104139999Y-88899999D03*
%TD*%
D11*
%TO.P,D12,1,K*%
%TO.N,Net-(D12-K)*%
X167639999Y-93979999D03*
D12*
%TO.P,D12,2,A*%
%TO.N,B4*%
X170180000Y-93980000D03*
%TD*%
D11*
%TO.P,D16,1,K*%
%TO.N,Net-(D16-K)*%
X116839999Y-93979999D03*
D12*
%TO.P,D16,2,A*%
%TO.N,B0*%
X119380000Y-93980000D03*
%TD*%
D11*
%TO.P,D14,1,K*%
%TO.N,Net-(D14-K)*%
X137159999Y-93979999D03*
D12*
%TO.P,D14,2,A*%
%TO.N,B2*%
X139700000Y-93980000D03*
%TD*%
D11*
%TO.P,D5,1,K*%
%TO.N,Net-(D5-K)*%
X157479999Y-60959999D03*
D12*
%TO.P,D5,2,A*%
%TO.N,A4*%
X160020000Y-60960000D03*
%TD*%
D11*
%TO.P,D15,1,K*%
%TO.N,Net-(D15-K)*%
X126999999Y-93979999D03*
D12*
%TO.P,D15,2,A*%
%TO.N,B1*%
X129540000Y-93980000D03*
%TD*%
D13*
%TO.P,RN2,1,common*%
%TO.N,GND*%
X142239999Y-104139999D03*
D14*
%TO.P,RN2,2,R1*%
%TO.N,Net-(D16-K)*%
X144779999Y-104139999D03*
%TO.P,RN2,3,R2*%
%TO.N,Net-(D15-K)*%
X147319999Y-104139999D03*
%TO.P,RN2,4,R3*%
%TO.N,Net-(D14-K)*%
X149859999Y-104139999D03*
%TO.P,RN2,5,R4*%
%TO.N,Net-(D13-K)*%
X152399999Y-104139999D03*
%TO.P,RN2,6,R5*%
%TO.N,Net-(D12-K)*%
X154939999Y-104139999D03*
%TO.P,RN2,7,R6*%
%TO.N,Net-(D11-K)*%
X157479999Y-104139999D03*
%TO.P,RN2,8,R7*%
%TO.N,Net-(D10-K)*%
X160019999Y-104139999D03*
%TO.P,RN2,9,R8*%
%TO.N,Net-(D9-K)*%
X162559999Y-104139999D03*
%TD*%
D11*
%TO.P,D8,1,K*%
%TO.N,Net-(D8-K)*%
X187959999Y-60959999D03*
D12*
%TO.P,D8,2,A*%
%TO.N,A7*%
X190500000Y-60960000D03*
%TD*%
D13*
%TO.P,RN1,1,common*%
%TO.N,GND*%
X142239999Y-71119999D03*
D14*
%TO.P,RN1,2,R1*%
%TO.N,Net-(D1-K)*%
X144779999Y-71119999D03*
%TO.P,RN1,3,R2*%
%TO.N,Net-(D2-K)*%
X147319999Y-71119999D03*
%TO.P,RN1,4,R3*%
%TO.N,Net-(D3-K)*%
X149859999Y-71119999D03*
%TO.P,RN1,5,R4*%
%TO.N,Net-(D4-K)*%
X152399999Y-71119999D03*
%TO.P,RN1,6,R5*%
%TO.N,Net-(D5-K)*%
X154939999Y-71119999D03*
%TO.P,RN1,7,R6*%
%TO.N,Net-(D6-K)*%
X157479999Y-71119999D03*
%TO.P,RN1,8,R7*%
%TO.N,Net-(D7-K)*%
X160019999Y-71119999D03*
%TO.P,RN1,9,R8*%
%TO.N,Net-(D8-K)*%
X162559999Y-71119999D03*
%TD*%
D15*
%TO.P,J1,1,Pin_1*%
%TO.N,BUS_0*%
X101599999Y-63499999D03*
D16*
%TO.P,J1,2,Pin_2*%
%TO.N,BUS_1*%
X101599999Y-66039999D03*
%TO.P,J1,3,Pin_3*%
%TO.N,BUS_2*%
X101599999Y-68579999D03*
%TO.P,J1,4,Pin_4*%
%TO.N,BUS_3*%
X101599999Y-71119999D03*
%TO.P,J1,5,Pin_5*%
%TO.N,BUS_4*%
X101599999Y-73659999D03*
%TO.P,J1,6,Pin_6*%
%TO.N,BUS_5*%
X101599999Y-76199999D03*
%TO.P,J1,7,Pin_7*%
%TO.N,BUS_6*%
X101599999Y-78739999D03*
%TO.P,J1,8,Pin_8*%
%TO.N,BUS_7*%
X101599999Y-81279999D03*
%TD*%
D11*
%TO.P,D4,1,K*%
%TO.N,Net-(D4-K)*%
X147319999Y-60959999D03*
D12*
%TO.P,D4,2,A*%
%TO.N,A3*%
X149860000Y-60960000D03*
%TD*%
D13*
%TO.P,C1,1*%
%TO.N,+5V*%
X106719999Y-48259999D03*
D17*
%TO.P,C1,2*%
%TO.N,GND*%
X109220000Y-48260000D03*
%TD*%
D13*
%TO.P,U4,1,A->B*%
%TO.N,+5V*%
X168914999Y-83819999D03*
D14*
%TO.P,U4,2,A0*%
%TO.N,B7*%
X171454999Y-83819999D03*
%TO.P,U4,3,A1*%
%TO.N,B6*%
X173994999Y-83819999D03*
%TO.P,U4,4,A2*%
%TO.N,B5*%
X176534999Y-83819999D03*
%TO.P,U4,5,A3*%
%TO.N,B4*%
X179074999Y-83819999D03*
%TO.P,U4,6,A4*%
%TO.N,B3*%
X181614999Y-83819999D03*
%TO.P,U4,7,A5*%
%TO.N,B2*%
X184154999Y-83819999D03*
%TO.P,U4,8,A6*%
%TO.N,B1*%
X186694999Y-83819999D03*
%TO.P,U4,9,A7*%
%TO.N,B0*%
X189234999Y-83819999D03*
%TO.P,U4,10,GND*%
%TO.N,GND*%
X191774999Y-83819999D03*
%TO.P,U4,11,B7*%
%TO.N,BUS_0*%
X191774999Y-76199999D03*
%TO.P,U4,12,B6*%
%TO.N,BUS_1*%
X189234999Y-76199999D03*
%TO.P,U4,13,B5*%
%TO.N,BUS_2*%
X186694999Y-76199999D03*
%TO.P,U4,14,B4*%
%TO.N,BUS_3*%
X184154999Y-76199999D03*
%TO.P,U4,15,B3*%
%TO.N,BUS_4*%
X181614999Y-76199999D03*
%TO.P,U4,16,B2*%
%TO.N,BUS_5*%
X179074999Y-76199999D03*
%TO.P,U4,17,B1*%
%TO.N,BUS_6*%
X176534999Y-76199999D03*
%TO.P,U4,18,B0*%
%TO.N,BUS_7*%
X173994999Y-76199999D03*
%TO.P,U4,19,CE*%
%TO.N,~{BO}*%
X171454999Y-76199999D03*
%TO.P,U4,20,VCC*%
%TO.N,+5V*%
X168914999Y-76199999D03*
%TD*%
D11*
%TO.P,D13,1,K*%
%TO.N,Net-(D13-K)*%
X147319999Y-93979999D03*
D12*
%TO.P,D13,2,A*%
%TO.N,B3*%
X149860000Y-93980000D03*
%TD*%
D11*
%TO.P,D7,1,K*%
%TO.N,Net-(D7-K)*%
X177799999Y-60959999D03*
D12*
%TO.P,D7,2,A*%
%TO.N,A6*%
X180340000Y-60960000D03*
%TD*%
D11*
%TO.P,D10,1,K*%
%TO.N,Net-(D10-K)*%
X177799999Y-93979999D03*
D12*
%TO.P,D10,2,A*%
%TO.N,B6*%
X180340000Y-93980000D03*
%TD*%
D11*
%TO.P,D2,1,K*%
%TO.N,Net-(D2-K)*%
X126999999Y-60959999D03*
D12*
%TO.P,D2,2,A*%
%TO.N,A1*%
X129540000Y-60960000D03*
%TD*%
D11*
%TO.P,D11,1,K*%
%TO.N,Net-(D11-K)*%
X157479999Y-93979999D03*
D12*
%TO.P,D11,2,A*%
%TO.N,B5*%
X160020000Y-93980000D03*
%TD*%
D18*
%TO.N,BUS_5*%
X140212300Y-81792300D03*
X124422205Y-78702205D03*
%TO.N,BUS_6*%
X142752300Y-79464500D03*
%TO.N,Net-(D11-K)*%
X157480000Y-99060000D03*
X157480000Y-97245000D03*
%TO.N,Net-(D12-K)*%
X165100000Y-97245000D03*
X154940000Y-100875500D03*
%TO.N,Net-(D13-K)*%
X147320000Y-96520000D03*
X149860000Y-99060000D03*
%TO.N,Net-(D14-K)*%
X139700000Y-96520000D03*
X134620000Y-96520000D03*
X142240000Y-99060000D03*
%TO.N,Net-(D15-K)*%
X132188506Y-94088506D03*
X135132300Y-99572300D03*
X139422746Y-99784500D03*
X132080000Y-96520000D03*
%TO.N,Net-(D16-K)*%
X121920000Y-88900000D03*
%TO.N,~{BI}*%
X132592300Y-71632300D03*
X119632299Y-45972299D03*
X151887700Y-74172300D03*
X124460000Y-60960000D03*
X109472299Y-53592299D03*
%TO.N,CLR*%
X111760000Y-83820000D03*
X144780000Y-73660000D03*
%TO.N,CLK*%
X142155851Y-80789549D03*
X144780000Y-80873698D03*
X132080000Y-81067800D03*
%TO.N,A0*%
X185489500Y-53340000D03*
X143655000Y-73660000D03*
%TO.N,A1*%
X141115000Y-69705000D03*
%TO.N,A2*%
X144780000Y-60960000D03*
%TO.N,A3*%
X147320000Y-55880000D03*
%TO.N,A4*%
X132080000Y-53340000D03*
%TO.N,A5*%
X148305164Y-56048698D03*
X155814549Y-63650049D03*
X155048506Y-58528506D03*
X128225000Y-58420000D03*
X145292300Y-58932300D03*
%TO.N,A7*%
X162560000Y-49119500D03*
X124460000Y-45720000D03*
%TO.N,B7*%
X119562795Y-86542795D03*
X170180000Y-97244500D03*
%TO.N,B6*%
X171855500Y-86360000D03*
X126179704Y-88524506D03*
X112272300Y-97032300D03*
X167640000Y-86360000D03*
X146807700Y-91952300D03*
X144267700Y-90927700D03*
%TO.N,B5*%
X126487700Y-85847700D03*
X111889807Y-97955720D03*
X144780000Y-93980000D03*
X144780000Y-88900000D03*
X127512300Y-86872300D03*
%TO.N,B4*%
X111760000Y-99060000D03*
%TO.N,B3*%
X122387299Y-102067299D03*
%TO.N,B2*%
X151130000Y-82474410D03*
X121680544Y-102791799D03*
X161009598Y-82830402D03*
%TO.N,B0*%
X169679500Y-88900000D03*
%TD*%
D19*
%TO.N,Net-(D1-K)*%
X133395000Y-59735000D02*
X118065000Y-59735000D01*
X118065000Y-59735000D02*
X116840000Y-60960000D01*
X144780000Y-71120000D02*
X133395000Y-59735000D01*
%TO.N,BUS_0*%
X144130305Y-59285000D02*
X145505000Y-60659695D01*
X193285000Y-43925000D02*
X191260000Y-41900000D01*
X151275000Y-72535000D02*
X154940000Y-76200000D01*
X106693299Y-59285000D02*
X144130305Y-59285000D01*
X99525000Y-66453299D02*
X106693299Y-59285000D01*
X99525000Y-65575000D02*
X99525000Y-66453299D01*
X145505000Y-60659695D02*
X145505000Y-62109695D01*
X151275000Y-67879695D02*
X151275000Y-72535000D01*
X191775000Y-76200000D02*
X193285000Y-74690000D01*
X145505000Y-62109695D02*
X151275000Y-67879695D01*
X193285000Y-74690000D02*
X193285000Y-43925000D01*
X101600000Y-63500000D02*
X99525000Y-65575000D01*
%TO.N,Net-(D2-K)*%
X146195000Y-72245000D02*
X138285000Y-72245000D01*
X147320000Y-71120000D02*
X146195000Y-72245000D01*
X138285000Y-72245000D02*
X127000000Y-60960000D01*
%TO.N,BUS_1*%
X149860000Y-78740000D02*
X152400000Y-76200000D01*
X101113299Y-74835000D02*
X102086701Y-74835000D01*
X99975000Y-67665000D02*
X99975000Y-73696701D01*
X128415000Y-75734009D02*
X128415000Y-76665991D01*
X126790991Y-74110000D02*
X128415000Y-75734009D01*
X192835000Y-72600000D02*
X189235000Y-76200000D01*
X102811701Y-74110000D02*
X126790991Y-74110000D01*
X102086701Y-74835000D02*
X102811701Y-74110000D01*
X99975000Y-73696701D02*
X101113299Y-74835000D01*
X192835000Y-46015000D02*
X192835000Y-72600000D01*
X188720000Y-41900000D02*
X192835000Y-46015000D01*
X128415000Y-76665991D02*
X130489009Y-78740000D01*
X130489009Y-78740000D02*
X149860000Y-78740000D01*
X101600000Y-66040000D02*
X99975000Y-67665000D01*
%TO.N,Net-(D3-K)*%
X140925000Y-62185000D02*
X138385000Y-62185000D01*
X149860000Y-71120000D02*
X140925000Y-62185000D01*
X138385000Y-62185000D02*
X137160000Y-60960000D01*
%TO.N,BUS_2*%
X100425000Y-71606701D02*
X101113299Y-72295000D01*
X101600000Y-68580000D02*
X100425000Y-69755000D01*
X130955000Y-75075000D02*
X130955000Y-76665991D01*
X128175000Y-72295000D02*
X130955000Y-75075000D01*
X101113299Y-72295000D02*
X128175000Y-72295000D01*
X186695000Y-76200000D02*
X192385000Y-70510000D01*
X100425000Y-69755000D02*
X100425000Y-71606701D01*
X192385000Y-70510000D02*
X192385000Y-48105000D01*
X130955000Y-76665991D02*
X131614009Y-77325000D01*
X148735000Y-77325000D02*
X149860000Y-76200000D01*
X192385000Y-48105000D02*
X186180000Y-41900000D01*
X131614009Y-77325000D02*
X148735000Y-77325000D01*
%TO.N,Net-(D4-K)*%
X152400000Y-71120000D02*
X152400000Y-66040000D01*
X152400000Y-66040000D02*
X147320000Y-60960000D01*
%TO.N,BUS_3*%
X189845000Y-51599595D02*
X189845000Y-48105000D01*
X184155000Y-76200000D02*
X191725000Y-68630000D01*
X191725000Y-53479595D02*
X189845000Y-51599595D01*
X101600000Y-71120000D02*
X128903604Y-71120000D01*
X189845000Y-48105000D02*
X183640000Y-41900000D01*
X132858604Y-75075000D02*
X146195000Y-75075000D01*
X191725000Y-68630000D02*
X191725000Y-53479595D01*
X146195000Y-75075000D02*
X147320000Y-76200000D01*
X128903604Y-71120000D02*
X132858604Y-75075000D01*
%TO.N,Net-(D5-K)*%
X154940000Y-71120000D02*
X154940000Y-63500000D01*
X154940000Y-63500000D02*
X157480000Y-60960000D01*
%TO.N,BUS_4*%
X101600000Y-73660000D02*
X127000000Y-73660000D01*
X189275000Y-51665991D02*
X187595000Y-49985991D01*
X181615000Y-76200000D02*
X189275000Y-68540000D01*
X187595000Y-49985991D02*
X187595000Y-48395000D01*
X127000000Y-73660000D02*
X129540000Y-76200000D01*
X189275000Y-68540000D02*
X189275000Y-51665991D01*
X187595000Y-48395000D02*
X181100000Y-41900000D01*
%TO.N,Net-(D6-K)*%
X157480000Y-71120000D02*
X167640000Y-60960000D01*
%TO.N,BUS_5*%
X127512300Y-81792300D02*
X124460000Y-78740000D01*
X140212300Y-81792300D02*
X127512300Y-81792300D01*
X101600000Y-76200000D02*
X103175000Y-74625000D01*
X125425000Y-74625000D02*
X127000000Y-76200000D01*
X103175000Y-74625000D02*
X125425000Y-74625000D01*
X124460000Y-78740000D02*
X124422205Y-78702205D01*
%TO.N,Net-(D7-K)*%
X160020000Y-71120000D02*
X161145000Y-69995000D01*
X168765000Y-69995000D02*
X177800000Y-60960000D01*
X161145000Y-69995000D02*
X168765000Y-69995000D01*
%TO.N,BUS_6*%
X105265000Y-75075000D02*
X123335000Y-75075000D01*
X142752300Y-79464500D02*
X142752300Y-79252300D01*
X142752300Y-79252300D02*
X142690000Y-79190000D01*
X123335000Y-75075000D02*
X124460000Y-76200000D01*
X127450000Y-79190000D02*
X124460000Y-76200000D01*
X142690000Y-79190000D02*
X127450000Y-79190000D01*
X101600000Y-78740000D02*
X105265000Y-75075000D01*
%TO.N,Net-(D8-K)*%
X177800000Y-71120000D02*
X187960000Y-60960000D01*
X162560000Y-71120000D02*
X177800000Y-71120000D01*
%TO.N,BUS_7*%
X101600000Y-81280000D02*
X116840000Y-81280000D01*
X116840000Y-81280000D02*
X121920000Y-76200000D01*
%TO.N,Net-(D10-K)*%
X166515000Y-105265000D02*
X161145000Y-105265000D01*
X161145000Y-105265000D02*
X160020000Y-104140000D01*
X177800000Y-93980000D02*
X166515000Y-105265000D01*
%TO.N,Net-(D11-K)*%
X157480000Y-99060000D02*
X157480000Y-104140000D01*
X157480000Y-93980000D02*
X157480000Y-97245000D01*
%TO.N,Net-(D12-K)*%
X167640000Y-93980000D02*
X165100000Y-96520000D01*
X165100000Y-96520000D02*
X165100000Y-97245000D01*
X154940000Y-100875500D02*
X154940000Y-104140000D01*
%TO.N,Net-(D13-K)*%
X152400000Y-104140000D02*
X152400000Y-101600000D01*
X147320000Y-96520000D02*
X147320000Y-93980000D01*
X152400000Y-101600000D02*
X149860000Y-99060000D01*
%TO.N,Net-(D14-K)*%
X149860000Y-104140000D02*
X144780000Y-99060000D01*
X144780000Y-99060000D02*
X142240000Y-99060000D01*
X139700000Y-96520000D02*
X134620000Y-96520000D01*
%TO.N,Net-(D15-K)*%
X132188506Y-94088506D02*
X130855000Y-92755000D01*
X128225000Y-92755000D02*
X127000000Y-93980000D01*
X135132300Y-99572300D02*
X132080000Y-96520000D01*
X140424500Y-99784500D02*
X139422746Y-99784500D01*
X140425000Y-99785000D02*
X140424500Y-99784500D01*
X130855000Y-92755000D02*
X128225000Y-92755000D01*
X147320000Y-104140000D02*
X142965000Y-99785000D01*
X142965000Y-99785000D02*
X140425000Y-99785000D01*
%TO.N,Net-(D16-K)*%
X144780000Y-104140000D02*
X140615000Y-108305000D01*
X102588604Y-108305000D02*
X102065000Y-107781396D01*
X102065000Y-89313299D02*
X105560504Y-85817795D01*
X105560504Y-85817795D02*
X119863100Y-85817795D01*
X119863100Y-85817795D02*
X121920000Y-87874695D01*
X140615000Y-108305000D02*
X102588604Y-108305000D01*
X121920000Y-87874695D02*
X121920000Y-88900000D01*
X102065000Y-107781396D02*
X102065000Y-89313299D01*
%TO.N,~{AO}*%
X109670000Y-40190000D02*
X169230000Y-40190000D01*
X169230000Y-40190000D02*
X170940000Y-41900000D01*
X101600000Y-48260000D02*
X109670000Y-40190000D01*
%TO.N,~{BI}*%
X138098604Y-72695000D02*
X150410400Y-72695000D01*
X150410400Y-72695000D02*
X151887700Y-74172300D01*
X137035904Y-71632300D02*
X138098604Y-72695000D01*
X132592300Y-71632300D02*
X137035904Y-71632300D01*
X124460000Y-63500000D02*
X124460000Y-60960000D01*
X119632299Y-45972299D02*
X117092299Y-45972299D01*
X160020000Y-76200000D02*
X157480000Y-76200000D01*
X134620000Y-76200000D02*
X132080000Y-76200000D01*
X132592300Y-71632300D02*
X124460000Y-63500000D01*
X117092299Y-45972299D02*
X109472299Y-53592299D01*
%TO.N,~{AI}*%
X100425000Y-54515000D02*
X100425000Y-56366701D01*
X118725000Y-50645000D02*
X118725000Y-49344009D01*
X124889009Y-43180000D02*
X131560000Y-43180000D01*
X101113299Y-57055000D02*
X112315000Y-57055000D01*
X118725000Y-49344009D02*
X124889009Y-43180000D01*
X112315000Y-57055000D02*
X118725000Y-50645000D01*
X132840000Y-41900000D02*
X135380000Y-41900000D01*
X156980000Y-40640000D02*
X158240000Y-41900000D01*
X158240000Y-41900000D02*
X160780000Y-41900000D01*
X154575000Y-42365991D02*
X154575000Y-41434009D01*
X154575000Y-41434009D02*
X155369009Y-40640000D01*
X135380000Y-41900000D02*
X136505000Y-43025000D01*
X131560000Y-43180000D02*
X132840000Y-41900000D01*
X136505000Y-43025000D02*
X153915991Y-43025000D01*
X155369009Y-40640000D02*
X156980000Y-40640000D01*
X153915991Y-43025000D02*
X154575000Y-42365991D01*
X100425000Y-56366701D02*
X101113299Y-57055000D01*
X101600000Y-53340000D02*
X100425000Y-54515000D01*
%TO.N,CLR*%
X139025000Y-84945000D02*
X144780000Y-79190000D01*
X101600000Y-55880000D02*
X106160000Y-55880000D01*
X112885000Y-84945000D02*
X139025000Y-84945000D01*
X102086701Y-52165000D02*
X100235000Y-52165000D01*
X101600000Y-55880000D02*
X102775000Y-54705000D01*
X146831396Y-75075000D02*
X145416396Y-73660000D01*
X145416396Y-73660000D02*
X144780000Y-73660000D01*
X100235000Y-52165000D02*
X98625000Y-53775000D01*
X100963604Y-83820000D02*
X111760000Y-83820000D01*
X102775000Y-54705000D02*
X102775000Y-52853299D01*
X152865991Y-75075000D02*
X146831396Y-75075000D01*
X153525000Y-76665991D02*
X153525000Y-75734009D01*
X120140000Y-41900000D02*
X121265000Y-40775000D01*
X153525000Y-75734009D02*
X152865991Y-75075000D01*
X111760000Y-83820000D02*
X112885000Y-84945000D01*
X151000991Y-79190000D02*
X153525000Y-76665991D01*
X144780000Y-79190000D02*
X151000991Y-79190000D01*
X102775000Y-52853299D02*
X102086701Y-52165000D01*
X144415000Y-40775000D02*
X145540000Y-41900000D01*
X98625000Y-81481396D02*
X100963604Y-83820000D01*
X98625000Y-53775000D02*
X98625000Y-81481396D01*
X106160000Y-55880000D02*
X120140000Y-41900000D01*
X121265000Y-40775000D02*
X144415000Y-40775000D01*
%TO.N,CLK*%
X157480000Y-83820000D02*
X154940000Y-81280000D01*
X99075000Y-60945000D02*
X99075000Y-81295000D01*
X99075000Y-81295000D02*
X100235000Y-82455000D01*
X123940000Y-58420000D02*
X132840000Y-49520000D01*
X154940000Y-81280000D02*
X145186302Y-81280000D01*
X132358251Y-80789549D02*
X132080000Y-81067800D01*
X145186302Y-81280000D02*
X144780000Y-80873698D01*
X130715000Y-82455000D02*
X132080000Y-83820000D01*
X101600000Y-58420000D02*
X99075000Y-60945000D01*
X142155851Y-80789549D02*
X132358251Y-80789549D01*
X101600000Y-58420000D02*
X123940000Y-58420000D01*
X100235000Y-82455000D02*
X130715000Y-82455000D01*
%TO.N,A0*%
X159520000Y-53340000D02*
X155700000Y-49520000D01*
X119380000Y-60960000D02*
X132080000Y-73660000D01*
X185489500Y-53340000D02*
X159520000Y-53340000D01*
X132080000Y-73660000D02*
X143655000Y-73660000D01*
%TO.N,A1*%
X138285000Y-69705000D02*
X141115000Y-69705000D01*
X129540000Y-60960000D02*
X138285000Y-69705000D01*
X185789805Y-54065000D02*
X157705000Y-54065000D01*
X186180000Y-49520000D02*
X186979999Y-50319999D01*
X186979999Y-50319999D02*
X186979999Y-52874806D01*
X186979999Y-52874806D02*
X185789805Y-54065000D01*
X157705000Y-54065000D02*
X153160000Y-49520000D01*
%TO.N,A2*%
X182515000Y-48395000D02*
X151745000Y-48395000D01*
X151745000Y-48395000D02*
X150620000Y-49520000D01*
X183640000Y-49520000D02*
X182515000Y-48395000D01*
X139700000Y-60960000D02*
X144780000Y-60960000D01*
%TO.N,A3*%
X149860000Y-60960000D02*
X147320000Y-58420000D01*
X149655000Y-47945000D02*
X148080000Y-49520000D01*
X184765000Y-49054009D02*
X183655991Y-47945000D01*
X147320000Y-58420000D02*
X147320000Y-55880000D01*
X183655991Y-47945000D02*
X149655000Y-47945000D01*
X181100000Y-49520000D02*
X182225000Y-50645000D01*
X182225000Y-50645000D02*
X184105991Y-50645000D01*
X184765000Y-49985991D02*
X184765000Y-49054009D01*
X184105991Y-50645000D02*
X184765000Y-49985991D01*
%TO.N,A4*%
X160020000Y-60960000D02*
X154215000Y-55155000D01*
X154215000Y-55155000D02*
X133895000Y-55155000D01*
X133895000Y-55155000D02*
X132080000Y-53340000D01*
%TO.N,A5*%
X159869951Y-63650049D02*
X155814549Y-63650049D01*
X168955000Y-59735000D02*
X163785000Y-59735000D01*
X144780000Y-58420000D02*
X128225000Y-58420000D01*
X170180000Y-60960000D02*
X168955000Y-59735000D01*
X149691692Y-56048698D02*
X148305164Y-56048698D01*
X155048506Y-58528506D02*
X152700305Y-56180305D01*
X145292300Y-58932300D02*
X144780000Y-58420000D01*
X149823299Y-56180305D02*
X149691692Y-56048698D01*
X152700305Y-56180305D02*
X149823299Y-56180305D01*
X163785000Y-59735000D02*
X159869951Y-63650049D01*
%TO.N,A6*%
X126480000Y-48260000D02*
X125220000Y-49520000D01*
X173895000Y-54515000D02*
X142105000Y-54515000D01*
X142105000Y-54515000D02*
X135850000Y-48260000D01*
X180340000Y-60960000D02*
X173895000Y-54515000D01*
X135850000Y-48260000D02*
X126480000Y-48260000D01*
%TO.N,A7*%
X164085500Y-50645000D02*
X162560000Y-49119500D01*
X170940000Y-49520000D02*
X169815000Y-50645000D01*
X124460000Y-45720000D02*
X122680000Y-47500000D01*
X169815000Y-50645000D02*
X164085500Y-50645000D01*
X122680000Y-47500000D02*
X122680000Y-49520000D01*
%TO.N,B7*%
X104140000Y-88900000D02*
X117205590Y-88900000D01*
X168955000Y-96019500D02*
X168955000Y-86320000D01*
X170180000Y-97244500D02*
X168955000Y-96019500D01*
X117205590Y-88900000D02*
X119562795Y-86542795D01*
X168955000Y-86320000D02*
X171455000Y-83820000D01*
%TO.N,B6*%
X106680000Y-91440000D02*
X104140000Y-91440000D01*
X112272300Y-97032300D02*
X106680000Y-91440000D01*
X152400000Y-86360000D02*
X167640000Y-86360000D01*
X171855500Y-86360000D02*
X171855500Y-85959500D01*
X126179704Y-88524506D02*
X141864506Y-88524506D01*
X171855500Y-85959500D02*
X173995000Y-83820000D01*
X141864506Y-88524506D02*
X144267700Y-90927700D01*
X146807700Y-91952300D02*
X152400000Y-86360000D01*
%TO.N,B5*%
X102965000Y-92805000D02*
X102965000Y-90953299D01*
X146005000Y-92755000D02*
X144780000Y-93980000D01*
X107914087Y-93980000D02*
X104140000Y-93980000D01*
X102965000Y-90953299D02*
X103653299Y-90265000D01*
X103653299Y-90265000D02*
X122070400Y-90265000D01*
X122070400Y-90265000D02*
X126487700Y-85847700D01*
X104140000Y-93980000D02*
X102965000Y-92805000D01*
X111889807Y-97955720D02*
X107914087Y-93980000D01*
X158795000Y-92755000D02*
X146005000Y-92755000D01*
X142752300Y-86872300D02*
X127512300Y-86872300D01*
X144780000Y-88900000D02*
X142752300Y-86872300D01*
X160020000Y-93980000D02*
X158795000Y-92755000D01*
%TO.N,B4*%
X128365000Y-107855000D02*
X137160000Y-99060000D01*
X137160000Y-99060000D02*
X139700000Y-99060000D01*
X109220000Y-96520000D02*
X104140000Y-96520000D01*
X102515000Y-107595000D02*
X102775000Y-107855000D01*
X140790500Y-97969500D02*
X170480305Y-97969500D01*
X102515000Y-98145000D02*
X102515000Y-107595000D01*
X111760000Y-99060000D02*
X109220000Y-96520000D01*
X102775000Y-107855000D02*
X128365000Y-107855000D01*
X170480305Y-97969500D02*
X170905000Y-97544805D01*
X170905000Y-97544805D02*
X170905000Y-94705000D01*
X139700000Y-99060000D02*
X140790500Y-97969500D01*
X170905000Y-94705000D02*
X170180000Y-93980000D01*
X104140000Y-96520000D02*
X102515000Y-98145000D01*
%TO.N,B3*%
X107147299Y-102067299D02*
X104140000Y-99060000D01*
X122387299Y-102067299D02*
X107147299Y-102067299D01*
%TO.N,B2*%
X151130000Y-82550000D02*
X149860000Y-83820000D01*
X105331799Y-102791799D02*
X104140000Y-101600000D01*
X161145000Y-82695000D02*
X161009598Y-82830402D01*
X184155000Y-83820000D02*
X183030000Y-82695000D01*
X121680544Y-102791799D02*
X105331799Y-102791799D01*
X151130000Y-82474410D02*
X151130000Y-82550000D01*
X183030000Y-82695000D02*
X161145000Y-82695000D01*
%TO.N,B1*%
X129540000Y-95957648D02*
X121357648Y-104140000D01*
X158895000Y-84495000D02*
X158445000Y-84945000D01*
X152400000Y-83820000D02*
X141015000Y-95205000D01*
X141015000Y-95205000D02*
X130765000Y-95205000D01*
X130765000Y-95205000D02*
X129540000Y-93980000D01*
X184980402Y-82105402D02*
X160143607Y-82105402D01*
X158445000Y-84945000D02*
X153525000Y-84945000D01*
X160143607Y-82105402D02*
X158895000Y-83354009D01*
X158895000Y-83354009D02*
X158895000Y-84495000D01*
X121357648Y-104140000D02*
X104140000Y-104140000D01*
X153525000Y-84945000D02*
X152400000Y-83820000D01*
X129540000Y-93980000D02*
X129540000Y-95957648D01*
X186695000Y-83820000D02*
X184980402Y-82105402D01*
%TO.N,B0*%
X151275000Y-83354009D02*
X151934009Y-82695000D01*
X151275000Y-83995991D02*
X151275000Y-83354009D01*
X109220000Y-101600000D02*
X111760000Y-101600000D01*
X105505000Y-97885000D02*
X109220000Y-101600000D01*
X184155000Y-88900000D02*
X169679500Y-88900000D01*
X127965000Y-85395000D02*
X149875991Y-85395000D01*
X102965000Y-105505000D02*
X102965000Y-98573299D01*
X153815000Y-82695000D02*
X154940000Y-83820000D01*
X103653299Y-97885000D02*
X105505000Y-97885000D01*
X111760000Y-101600000D02*
X119380000Y-93980000D01*
X119380000Y-93980000D02*
X127965000Y-85395000D01*
X151934009Y-82695000D02*
X153815000Y-82695000D01*
X104140000Y-106680000D02*
X102965000Y-105505000D01*
X149875991Y-85395000D02*
X151275000Y-83995991D01*
X189235000Y-83820000D02*
X184155000Y-88900000D01*
X102965000Y-98573299D02*
X103653299Y-97885000D01*
%TD*%
M02*
