%TF.GenerationSoftware,KiCad,Pcbnew,(7.0.0)*%
%TF.CreationDate,2023-02-28T23:31:08-05:00*%
%TF.ProjectId,8bc_registers,3862635f-7265-4676-9973-746572732e6b,1.0*%
%TF.SameCoordinates,Original*%
%TF.FileFunction,Soldermask,Top*%
%TF.FilePolarity,Negative*%
%FSLAX46Y46*%
G04 Gerber Fmt 4.6, Leading zero omitted, Abs format (unit mm)*
G04 Created by KiCad (PCBNEW (7.0.0)) date 2023-02-28 23:31:08*
%MOMM*%
%LPD*%
G01*
G04 APERTURE LIST*
%ADD10C,2.600000*%
%ADD11R,1.800000X1.800000*%
%ADD12C,1.800000*%
%ADD13R,1.600000X1.600000*%
%ADD14O,1.600000X1.600000*%
%ADD15R,1.700000X1.700000*%
%ADD16O,1.700000X1.700000*%
%ADD17C,1.600000*%
G04 APERTURE END LIST*
D10*
%TO.C,REF\u002A\u002A*%
X198120000Y-109220000D03*
%TD*%
%TO.C,REF\u002A\u002A*%
X198120000Y-38100000D03*
%TD*%
D11*
%TO.C,D1*%
X116839999Y-60959999D03*
D12*
X119380000Y-60960000D03*
%TD*%
D13*
%TO.C,U6*%
X142239999Y-83819999D03*
D14*
X144779999Y-83819999D03*
X147319999Y-83819999D03*
X149859999Y-83819999D03*
X152399999Y-83819999D03*
X154939999Y-83819999D03*
X157479999Y-83819999D03*
X160019999Y-83819999D03*
X160019999Y-76199999D03*
X157479999Y-76199999D03*
X154939999Y-76199999D03*
X152399999Y-76199999D03*
X149859999Y-76199999D03*
X147319999Y-76199999D03*
X144779999Y-76199999D03*
X142239999Y-76199999D03*
%TD*%
D11*
%TO.C,D3*%
X137159999Y-60959999D03*
D12*
X139700000Y-60960000D03*
%TD*%
D13*
%TO.C,U2*%
X117599999Y-49519999D03*
D14*
X120139999Y-49519999D03*
X122679999Y-49519999D03*
X125219999Y-49519999D03*
X127759999Y-49519999D03*
X130299999Y-49519999D03*
X132839999Y-49519999D03*
X135379999Y-49519999D03*
X135379999Y-41899999D03*
X132839999Y-41899999D03*
X130299999Y-41899999D03*
X127759999Y-41899999D03*
X125219999Y-41899999D03*
X122679999Y-41899999D03*
X120139999Y-41899999D03*
X117599999Y-41899999D03*
%TD*%
D13*
%TO.C,U1*%
X168399999Y-49519999D03*
D14*
X170939999Y-49519999D03*
X173479999Y-49519999D03*
X176019999Y-49519999D03*
X178559999Y-49519999D03*
X181099999Y-49519999D03*
X183639999Y-49519999D03*
X186179999Y-49519999D03*
X188719999Y-49519999D03*
X191259999Y-49519999D03*
X191259999Y-41899999D03*
X188719999Y-41899999D03*
X186179999Y-41899999D03*
X183639999Y-41899999D03*
X181099999Y-41899999D03*
X178559999Y-41899999D03*
X176019999Y-41899999D03*
X173479999Y-41899999D03*
X170939999Y-41899999D03*
X168399999Y-41899999D03*
%TD*%
D15*
%TO.C,J3*%
X99059999Y-106679999D03*
D16*
X99059999Y-104139999D03*
X99059999Y-101599999D03*
X99059999Y-99059999D03*
X99059999Y-96519999D03*
X99059999Y-93979999D03*
X99059999Y-91439999D03*
X99059999Y-88899999D03*
%TD*%
D11*
%TO.C,D6*%
X167639999Y-60959999D03*
D12*
X170180000Y-60960000D03*
%TD*%
D13*
%TO.C,U3*%
X142999999Y-49519999D03*
D14*
X145539999Y-49519999D03*
X148079999Y-49519999D03*
X150619999Y-49519999D03*
X153159999Y-49519999D03*
X155699999Y-49519999D03*
X158239999Y-49519999D03*
X160779999Y-49519999D03*
X160779999Y-41899999D03*
X158239999Y-41899999D03*
X155699999Y-41899999D03*
X153159999Y-41899999D03*
X150619999Y-41899999D03*
X148079999Y-41899999D03*
X145539999Y-41899999D03*
X142999999Y-41899999D03*
%TD*%
D13*
%TO.C,U5*%
X116839999Y-83819999D03*
D14*
X119379999Y-83819999D03*
X121919999Y-83819999D03*
X124459999Y-83819999D03*
X126999999Y-83819999D03*
X129539999Y-83819999D03*
X132079999Y-83819999D03*
X134619999Y-83819999D03*
X134619999Y-76199999D03*
X132079999Y-76199999D03*
X129539999Y-76199999D03*
X126999999Y-76199999D03*
X124459999Y-76199999D03*
X121919999Y-76199999D03*
X119379999Y-76199999D03*
X116839999Y-76199999D03*
%TD*%
D11*
%TO.C,D9*%
X187959999Y-93979999D03*
D12*
X190500000Y-93980000D03*
%TD*%
D15*
%TO.C,J2*%
X101599999Y-40639999D03*
D16*
X101599999Y-43179999D03*
X101599999Y-45719999D03*
X101599999Y-48259999D03*
X101599999Y-50799999D03*
X101599999Y-53339999D03*
X101599999Y-55879999D03*
X101599999Y-58419999D03*
%TD*%
D15*
%TO.C,J4*%
X104139999Y-106679999D03*
D16*
X104139999Y-104139999D03*
X104139999Y-101599999D03*
X104139999Y-99059999D03*
X104139999Y-96519999D03*
X104139999Y-93979999D03*
X104139999Y-91439999D03*
X104139999Y-88899999D03*
%TD*%
D11*
%TO.C,D12*%
X167639999Y-93979999D03*
D12*
X170180000Y-93980000D03*
%TD*%
D11*
%TO.C,D16*%
X116839999Y-93979999D03*
D12*
X119380000Y-93980000D03*
%TD*%
D11*
%TO.C,D14*%
X137159999Y-93979999D03*
D12*
X139700000Y-93980000D03*
%TD*%
D11*
%TO.C,D5*%
X157479999Y-60959999D03*
D12*
X160020000Y-60960000D03*
%TD*%
D11*
%TO.C,D15*%
X126999999Y-93979999D03*
D12*
X129540000Y-93980000D03*
%TD*%
D13*
%TO.C,RN2*%
X142239999Y-104139999D03*
D14*
X144779999Y-104139999D03*
X147319999Y-104139999D03*
X149859999Y-104139999D03*
X152399999Y-104139999D03*
X154939999Y-104139999D03*
X157479999Y-104139999D03*
X160019999Y-104139999D03*
X162559999Y-104139999D03*
%TD*%
D11*
%TO.C,D8*%
X187959999Y-60959999D03*
D12*
X190500000Y-60960000D03*
%TD*%
D13*
%TO.C,RN1*%
X142239999Y-71119999D03*
D14*
X144779999Y-71119999D03*
X147319999Y-71119999D03*
X149859999Y-71119999D03*
X152399999Y-71119999D03*
X154939999Y-71119999D03*
X157479999Y-71119999D03*
X160019999Y-71119999D03*
X162559999Y-71119999D03*
%TD*%
D15*
%TO.C,J1*%
X101599999Y-63499999D03*
D16*
X101599999Y-66039999D03*
X101599999Y-68579999D03*
X101599999Y-71119999D03*
X101599999Y-73659999D03*
X101599999Y-76199999D03*
X101599999Y-78739999D03*
X101599999Y-81279999D03*
%TD*%
D11*
%TO.C,D4*%
X147319999Y-60959999D03*
D12*
X149860000Y-60960000D03*
%TD*%
D13*
%TO.C,C1*%
X106719999Y-48259999D03*
D17*
X109220000Y-48260000D03*
%TD*%
D13*
%TO.C,U4*%
X168914999Y-83819999D03*
D14*
X171454999Y-83819999D03*
X173994999Y-83819999D03*
X176534999Y-83819999D03*
X179074999Y-83819999D03*
X181614999Y-83819999D03*
X184154999Y-83819999D03*
X186694999Y-83819999D03*
X189234999Y-83819999D03*
X191774999Y-83819999D03*
X191774999Y-76199999D03*
X189234999Y-76199999D03*
X186694999Y-76199999D03*
X184154999Y-76199999D03*
X181614999Y-76199999D03*
X179074999Y-76199999D03*
X176534999Y-76199999D03*
X173994999Y-76199999D03*
X171454999Y-76199999D03*
X168914999Y-76199999D03*
%TD*%
D11*
%TO.C,D13*%
X147319999Y-93979999D03*
D12*
X149860000Y-93980000D03*
%TD*%
D11*
%TO.C,D7*%
X177799999Y-60959999D03*
D12*
X180340000Y-60960000D03*
%TD*%
D11*
%TO.C,D10*%
X177799999Y-93979999D03*
D12*
X180340000Y-93980000D03*
%TD*%
D11*
%TO.C,D2*%
X126999999Y-60959999D03*
D12*
X129540000Y-60960000D03*
%TD*%
D11*
%TO.C,D11*%
X157479999Y-93979999D03*
D12*
X160020000Y-93980000D03*
%TD*%
M02*
