M48
; DRILL file {KiCad (7.0.0)} date Tue Feb 28 23:31:12 2023
; FORMAT={-:-/ absolute / inch / decimal}
; #@! TF.CreationDate,2023-02-28T23:31:12-05:00
; #@! TF.GenerationSoftware,Kicad,Pcbnew,(7.0.0)
; #@! TF.FileFunction,Plated,1,4,PTH
FMAT,2
INCH
; #@! TA.AperFunction,Plated,PTH,ViaDrill
T1C0.0157
; #@! TA.AperFunction,Plated,PTH,ComponentDrill
T2C0.0315
; #@! TA.AperFunction,Plated,PTH,ComponentDrill
T3C0.0354
; #@! TA.AperFunction,Plated,PTH,ComponentDrill
T4C0.0394
%
G90
G05
T1
X4.3099Y-2.1099
X4.4Y-3.3
X4.4Y-3.9
X4.4051Y-3.8565
X4.4202Y-3.8202
X4.7072Y-3.4072
X4.7099Y-1.8099
X4.7906Y-4.0469
X4.8Y-3.5
X4.8184Y-4.0184
X4.8985Y-3.0985
X4.9Y-1.8
X4.9Y-2.4
X4.9677Y-3.4852
X4.9798Y-3.3798
X5.0202Y-3.4202
X5.0482Y-2.3
X5.2Y-2.1
X5.2Y-3.1916
X5.2Y-3.8
X5.2043Y-3.7043
X5.2202Y-2.8202
X5.3Y-3.8
X5.3202Y-3.9202
X5.4891Y-3.9285
X5.5Y-3.8
X5.5202Y-3.2202
X5.5557Y-2.7443
X5.5967Y-3.1807
X5.6Y-3.9
X5.6202Y-3.1285
X5.6557Y-2.9
X5.6798Y-3.5798
X5.7Y-2.4
X5.7Y-2.9
X5.7Y-3.184
X5.7Y-3.5
X5.7Y-3.7
X5.7202Y-2.3202
X5.7798Y-3.6202
X5.8Y-2.2
X5.8Y-3.8
X5.8388Y-2.2066
X5.9Y-3.9
X5.95Y-3.247
X5.9798Y-2.9202
X6.1Y-3.9715
X6.1043Y-2.3043
X6.1344Y-2.5059
X6.2Y-3.8285
X6.2Y-3.9
X6.339Y-3.261
X6.4Y-1.9338
X6.5Y-3.8285
X6.6Y-3.4
X6.6803Y-3.5
X6.7Y-3.8285
X6.766Y-3.4
X7.3027Y-2.1
T2
X4.2016Y-1.9
X4.3Y-1.9
X4.6Y-3.0
X4.6Y-3.3
X4.6299Y-1.6496
X4.6299Y-1.9496
X4.7Y-3.0
X4.7Y-3.3
X4.7299Y-1.6496
X4.7299Y-1.9496
X4.8Y-3.0
X4.8Y-3.3
X4.8299Y-1.6496
X4.8299Y-1.9496
X4.9Y-3.0
X4.9Y-3.3
X4.9299Y-1.6496
X4.9299Y-1.9496
X5.0Y-3.0
X5.0Y-3.3
X5.0299Y-1.6496
X5.0299Y-1.9496
X5.1Y-3.0
X5.1Y-3.3
X5.1299Y-1.6496
X5.1299Y-1.9496
X5.2Y-3.0
X5.2Y-3.3
X5.2299Y-1.6496
X5.2299Y-1.9496
X5.3Y-3.0
X5.3Y-3.3
X5.3299Y-1.6496
X5.3299Y-1.9496
X5.6Y-2.8
X5.6Y-3.0
X5.6Y-3.3
X5.6Y-4.1
X5.6299Y-1.6496
X5.6299Y-1.9496
X5.7Y-2.8
X5.7Y-3.0
X5.7Y-3.3
X5.7Y-4.1
X5.7299Y-1.6496
X5.7299Y-1.9496
X5.8Y-2.8
X5.8Y-3.0
X5.8Y-3.3
X5.8Y-4.1
X5.8299Y-1.6496
X5.8299Y-1.9496
X5.9Y-2.8
X5.9Y-3.0
X5.9Y-3.3
X5.9Y-4.1
X5.9299Y-1.6496
X5.9299Y-1.9496
X6.0Y-2.8
X6.0Y-3.0
X6.0Y-3.3
X6.0Y-4.1
X6.0299Y-1.6496
X6.0299Y-1.9496
X6.1Y-2.8
X6.1Y-3.0
X6.1Y-3.3
X6.1Y-4.1
X6.1299Y-1.6496
X6.1299Y-1.9496
X6.2Y-2.8
X6.2Y-3.0
X6.2Y-3.3
X6.2Y-4.1
X6.2299Y-1.6496
X6.2299Y-1.9496
X6.3Y-2.8
X6.3Y-3.0
X6.3Y-3.3
X6.3Y-4.1
X6.3299Y-1.6496
X6.3299Y-1.9496
X6.4Y-2.8
X6.4Y-4.1
X6.6299Y-1.6496
X6.6299Y-1.9496
X6.6502Y-3.0
X6.6502Y-3.3
X6.7299Y-1.6496
X6.7299Y-1.9496
X6.7502Y-3.0
X6.7502Y-3.3
X6.8299Y-1.6496
X6.8299Y-1.9496
X6.8502Y-3.0
X6.8502Y-3.3
X6.9299Y-1.6496
X6.9299Y-1.9496
X6.9502Y-3.0
X6.9502Y-3.3
X7.0299Y-1.6496
X7.0299Y-1.9496
X7.0502Y-3.0
X7.0502Y-3.3
X7.1299Y-1.6496
X7.1299Y-1.9496
X7.1502Y-3.0
X7.1502Y-3.3
X7.2299Y-1.6496
X7.2299Y-1.9496
X7.2502Y-3.0
X7.2502Y-3.3
X7.3299Y-1.6496
X7.3299Y-1.9496
X7.3502Y-3.0
X7.3502Y-3.3
X7.4299Y-1.6496
X7.4299Y-1.9496
X7.4502Y-3.0
X7.4502Y-3.3
X7.5299Y-1.6496
X7.5299Y-1.9496
X7.5502Y-3.0
X7.5502Y-3.3
T3
X4.6Y-2.4
X4.6Y-3.7
X4.7Y-2.4
X4.7Y-3.7
X5.0Y-2.4
X5.0Y-3.7
X5.1Y-2.4
X5.1Y-3.7
X5.4Y-2.4
X5.4Y-3.7
X5.5Y-2.4
X5.5Y-3.7
X5.8Y-2.4
X5.8Y-3.7
X5.9Y-2.4
X5.9Y-3.7
X6.2Y-2.4
X6.2Y-3.7
X6.3Y-2.4
X6.3Y-3.7
X6.6Y-2.4
X6.6Y-3.7
X6.7Y-2.4
X6.7Y-3.7
X7.0Y-2.4
X7.0Y-3.7
X7.1Y-2.4
X7.1Y-3.7
X7.4Y-2.4
X7.4Y-3.7
X7.5Y-2.4
X7.5Y-3.7
T4
X3.9Y-3.5
X3.9Y-3.6
X3.9Y-3.7
X3.9Y-3.8
X3.9Y-3.9
X3.9Y-4.0
X3.9Y-4.1
X3.9Y-4.2
X4.0Y-1.6
X4.0Y-1.7
X4.0Y-1.8
X4.0Y-1.9
X4.0Y-2.0
X4.0Y-2.1
X4.0Y-2.2
X4.0Y-2.3
X4.0Y-2.5
X4.0Y-2.6
X4.0Y-2.7
X4.0Y-2.8
X4.0Y-2.9
X4.0Y-3.0
X4.0Y-3.1
X4.0Y-3.2
X4.1Y-3.5
X4.1Y-3.6
X4.1Y-3.7
X4.1Y-3.8
X4.1Y-3.9
X4.1Y-4.0
X4.1Y-4.1
X4.1Y-4.2
T0
M30
