%TF.GenerationSoftware,KiCad,Pcbnew,(7.0.0)*%
%TF.CreationDate,2023-02-28T23:31:13-05:00*%
%TF.ProjectId,8bc_registers,3862635f-7265-4676-9973-746572732e6b,1.0*%
%TF.SameCoordinates,Original*%
%TF.FileFunction,Drillmap*%
%TF.FilePolarity,Positive*%
%FSLAX45Y45*%
G04 Gerber Fmt 4.5, Leading zero omitted, Abs format (unit mm)*
G04 Created by KiCad (PCBNEW (7.0.0)) date 2023-02-28 23:31:13*
%MOMM*%
%LPD*%
G01*
G04 APERTURE LIST*
%ADD10C,0.100000*%
%ADD11C,0.200000*%
%ADD12C,0.140000*%
G04 APERTURE END LIST*
D10*
X9144000Y-3556000D02*
X20066000Y-3556000D01*
X20066000Y-3556000D02*
X20066000Y-11176000D01*
X20066000Y-11176000D02*
X9144000Y-11176000D01*
X9144000Y-11176000D02*
X9144000Y-3556000D01*
D11*
D12*
X19742000Y-3740000D02*
X19882000Y-3880000D01*
X19882000Y-3740000D02*
X19742000Y-3880000D01*
X19742000Y-10852000D02*
X19882000Y-10992000D01*
X19882000Y-10852000D02*
X19742000Y-10992000D01*
D11*
X9386619Y-11474476D02*
X9386619Y-11274476D01*
X9386619Y-11274476D02*
X9434238Y-11274476D01*
X9434238Y-11274476D02*
X9462810Y-11284000D01*
X9462810Y-11284000D02*
X9481857Y-11303048D01*
X9481857Y-11303048D02*
X9491381Y-11322095D01*
X9491381Y-11322095D02*
X9500905Y-11360190D01*
X9500905Y-11360190D02*
X9500905Y-11388762D01*
X9500905Y-11388762D02*
X9491381Y-11426857D01*
X9491381Y-11426857D02*
X9481857Y-11445905D01*
X9481857Y-11445905D02*
X9462810Y-11464952D01*
X9462810Y-11464952D02*
X9434238Y-11474476D01*
X9434238Y-11474476D02*
X9386619Y-11474476D01*
X9586619Y-11474476D02*
X9586619Y-11341143D01*
X9586619Y-11379238D02*
X9596143Y-11360190D01*
X9596143Y-11360190D02*
X9605667Y-11350667D01*
X9605667Y-11350667D02*
X9624714Y-11341143D01*
X9624714Y-11341143D02*
X9643762Y-11341143D01*
X9710429Y-11474476D02*
X9710429Y-11341143D01*
X9710429Y-11274476D02*
X9700905Y-11284000D01*
X9700905Y-11284000D02*
X9710429Y-11293524D01*
X9710429Y-11293524D02*
X9719952Y-11284000D01*
X9719952Y-11284000D02*
X9710429Y-11274476D01*
X9710429Y-11274476D02*
X9710429Y-11293524D01*
X9834238Y-11474476D02*
X9815190Y-11464952D01*
X9815190Y-11464952D02*
X9805667Y-11445905D01*
X9805667Y-11445905D02*
X9805667Y-11274476D01*
X9939000Y-11474476D02*
X9919952Y-11464952D01*
X9919952Y-11464952D02*
X9910429Y-11445905D01*
X9910429Y-11445905D02*
X9910429Y-11274476D01*
X10135190Y-11474476D02*
X10135190Y-11274476D01*
X10135190Y-11274476D02*
X10201857Y-11417333D01*
X10201857Y-11417333D02*
X10268524Y-11274476D01*
X10268524Y-11274476D02*
X10268524Y-11474476D01*
X10449476Y-11474476D02*
X10449476Y-11369714D01*
X10449476Y-11369714D02*
X10439952Y-11350667D01*
X10439952Y-11350667D02*
X10420905Y-11341143D01*
X10420905Y-11341143D02*
X10382809Y-11341143D01*
X10382809Y-11341143D02*
X10363762Y-11350667D01*
X10449476Y-11464952D02*
X10430429Y-11474476D01*
X10430429Y-11474476D02*
X10382809Y-11474476D01*
X10382809Y-11474476D02*
X10363762Y-11464952D01*
X10363762Y-11464952D02*
X10354238Y-11445905D01*
X10354238Y-11445905D02*
X10354238Y-11426857D01*
X10354238Y-11426857D02*
X10363762Y-11407809D01*
X10363762Y-11407809D02*
X10382809Y-11398286D01*
X10382809Y-11398286D02*
X10430429Y-11398286D01*
X10430429Y-11398286D02*
X10449476Y-11388762D01*
X10544714Y-11341143D02*
X10544714Y-11541143D01*
X10544714Y-11350667D02*
X10563762Y-11341143D01*
X10563762Y-11341143D02*
X10601857Y-11341143D01*
X10601857Y-11341143D02*
X10620905Y-11350667D01*
X10620905Y-11350667D02*
X10630429Y-11360190D01*
X10630429Y-11360190D02*
X10639952Y-11379238D01*
X10639952Y-11379238D02*
X10639952Y-11436381D01*
X10639952Y-11436381D02*
X10630429Y-11455428D01*
X10630429Y-11455428D02*
X10620905Y-11464952D01*
X10620905Y-11464952D02*
X10601857Y-11474476D01*
X10601857Y-11474476D02*
X10563762Y-11474476D01*
X10563762Y-11474476D02*
X10544714Y-11464952D01*
X10725667Y-11455428D02*
X10735190Y-11464952D01*
X10735190Y-11464952D02*
X10725667Y-11474476D01*
X10725667Y-11474476D02*
X10716143Y-11464952D01*
X10716143Y-11464952D02*
X10725667Y-11455428D01*
X10725667Y-11455428D02*
X10725667Y-11474476D01*
X10725667Y-11350667D02*
X10735190Y-11360190D01*
X10735190Y-11360190D02*
X10725667Y-11369714D01*
X10725667Y-11369714D02*
X10716143Y-11360190D01*
X10716143Y-11360190D02*
X10725667Y-11350667D01*
X10725667Y-11350667D02*
X10725667Y-11369714D01*
D12*
X8999000Y-11751000D02*
X9139000Y-11891000D01*
X9139000Y-11751000D02*
X8999000Y-11891000D01*
D11*
X9491381Y-11894476D02*
X9377095Y-11894476D01*
X9434238Y-11894476D02*
X9434238Y-11694476D01*
X9434238Y-11694476D02*
X9415190Y-11723048D01*
X9415190Y-11723048D02*
X9396143Y-11742095D01*
X9396143Y-11742095D02*
X9377095Y-11751619D01*
X9577095Y-11875428D02*
X9586619Y-11884952D01*
X9586619Y-11884952D02*
X9577095Y-11894476D01*
X9577095Y-11894476D02*
X9567571Y-11884952D01*
X9567571Y-11884952D02*
X9577095Y-11875428D01*
X9577095Y-11875428D02*
X9577095Y-11894476D01*
X9758048Y-11761143D02*
X9758048Y-11894476D01*
X9710429Y-11684952D02*
X9662810Y-11827809D01*
X9662810Y-11827809D02*
X9786619Y-11827809D01*
X9900905Y-11694476D02*
X9919952Y-11694476D01*
X9919952Y-11694476D02*
X9939000Y-11704000D01*
X9939000Y-11704000D02*
X9948524Y-11713524D01*
X9948524Y-11713524D02*
X9958048Y-11732571D01*
X9958048Y-11732571D02*
X9967571Y-11770667D01*
X9967571Y-11770667D02*
X9967571Y-11818286D01*
X9967571Y-11818286D02*
X9958048Y-11856381D01*
X9958048Y-11856381D02*
X9948524Y-11875428D01*
X9948524Y-11875428D02*
X9939000Y-11884952D01*
X9939000Y-11884952D02*
X9919952Y-11894476D01*
X9919952Y-11894476D02*
X9900905Y-11894476D01*
X9900905Y-11894476D02*
X9881857Y-11884952D01*
X9881857Y-11884952D02*
X9872333Y-11875428D01*
X9872333Y-11875428D02*
X9862810Y-11856381D01*
X9862810Y-11856381D02*
X9853286Y-11818286D01*
X9853286Y-11818286D02*
X9853286Y-11770667D01*
X9853286Y-11770667D02*
X9862810Y-11732571D01*
X9862810Y-11732571D02*
X9872333Y-11713524D01*
X9872333Y-11713524D02*
X9881857Y-11704000D01*
X9881857Y-11704000D02*
X9900905Y-11694476D01*
X10091381Y-11694476D02*
X10110429Y-11694476D01*
X10110429Y-11694476D02*
X10129476Y-11704000D01*
X10129476Y-11704000D02*
X10139000Y-11713524D01*
X10139000Y-11713524D02*
X10148524Y-11732571D01*
X10148524Y-11732571D02*
X10158048Y-11770667D01*
X10158048Y-11770667D02*
X10158048Y-11818286D01*
X10158048Y-11818286D02*
X10148524Y-11856381D01*
X10148524Y-11856381D02*
X10139000Y-11875428D01*
X10139000Y-11875428D02*
X10129476Y-11884952D01*
X10129476Y-11884952D02*
X10110429Y-11894476D01*
X10110429Y-11894476D02*
X10091381Y-11894476D01*
X10091381Y-11894476D02*
X10072333Y-11884952D01*
X10072333Y-11884952D02*
X10062810Y-11875428D01*
X10062810Y-11875428D02*
X10053286Y-11856381D01*
X10053286Y-11856381D02*
X10043762Y-11818286D01*
X10043762Y-11818286D02*
X10043762Y-11770667D01*
X10043762Y-11770667D02*
X10053286Y-11732571D01*
X10053286Y-11732571D02*
X10062810Y-11713524D01*
X10062810Y-11713524D02*
X10072333Y-11704000D01*
X10072333Y-11704000D02*
X10091381Y-11694476D01*
X10243762Y-11894476D02*
X10243762Y-11761143D01*
X10243762Y-11780190D02*
X10253286Y-11770667D01*
X10253286Y-11770667D02*
X10272333Y-11761143D01*
X10272333Y-11761143D02*
X10300905Y-11761143D01*
X10300905Y-11761143D02*
X10319952Y-11770667D01*
X10319952Y-11770667D02*
X10329476Y-11789714D01*
X10329476Y-11789714D02*
X10329476Y-11894476D01*
X10329476Y-11789714D02*
X10339000Y-11770667D01*
X10339000Y-11770667D02*
X10358048Y-11761143D01*
X10358048Y-11761143D02*
X10386619Y-11761143D01*
X10386619Y-11761143D02*
X10405667Y-11770667D01*
X10405667Y-11770667D02*
X10415191Y-11789714D01*
X10415191Y-11789714D02*
X10415191Y-11894476D01*
X10510429Y-11894476D02*
X10510429Y-11761143D01*
X10510429Y-11780190D02*
X10519952Y-11770667D01*
X10519952Y-11770667D02*
X10539000Y-11761143D01*
X10539000Y-11761143D02*
X10567572Y-11761143D01*
X10567572Y-11761143D02*
X10586619Y-11770667D01*
X10586619Y-11770667D02*
X10596143Y-11789714D01*
X10596143Y-11789714D02*
X10596143Y-11894476D01*
X10596143Y-11789714D02*
X10605667Y-11770667D01*
X10605667Y-11770667D02*
X10624714Y-11761143D01*
X10624714Y-11761143D02*
X10653286Y-11761143D01*
X10653286Y-11761143D02*
X10672333Y-11770667D01*
X10672333Y-11770667D02*
X10681857Y-11789714D01*
X10681857Y-11789714D02*
X10681857Y-11894476D01*
X11039952Y-11684952D02*
X10868524Y-11942095D01*
X11264714Y-11694476D02*
X11283762Y-11694476D01*
X11283762Y-11694476D02*
X11302810Y-11704000D01*
X11302810Y-11704000D02*
X11312333Y-11713524D01*
X11312333Y-11713524D02*
X11321857Y-11732571D01*
X11321857Y-11732571D02*
X11331381Y-11770667D01*
X11331381Y-11770667D02*
X11331381Y-11818286D01*
X11331381Y-11818286D02*
X11321857Y-11856381D01*
X11321857Y-11856381D02*
X11312333Y-11875428D01*
X11312333Y-11875428D02*
X11302810Y-11884952D01*
X11302810Y-11884952D02*
X11283762Y-11894476D01*
X11283762Y-11894476D02*
X11264714Y-11894476D01*
X11264714Y-11894476D02*
X11245667Y-11884952D01*
X11245667Y-11884952D02*
X11236143Y-11875428D01*
X11236143Y-11875428D02*
X11226619Y-11856381D01*
X11226619Y-11856381D02*
X11217095Y-11818286D01*
X11217095Y-11818286D02*
X11217095Y-11770667D01*
X11217095Y-11770667D02*
X11226619Y-11732571D01*
X11226619Y-11732571D02*
X11236143Y-11713524D01*
X11236143Y-11713524D02*
X11245667Y-11704000D01*
X11245667Y-11704000D02*
X11264714Y-11694476D01*
X11417095Y-11875428D02*
X11426619Y-11884952D01*
X11426619Y-11884952D02*
X11417095Y-11894476D01*
X11417095Y-11894476D02*
X11407571Y-11884952D01*
X11407571Y-11884952D02*
X11417095Y-11875428D01*
X11417095Y-11875428D02*
X11417095Y-11894476D01*
X11550429Y-11694476D02*
X11569476Y-11694476D01*
X11569476Y-11694476D02*
X11588524Y-11704000D01*
X11588524Y-11704000D02*
X11598048Y-11713524D01*
X11598048Y-11713524D02*
X11607571Y-11732571D01*
X11607571Y-11732571D02*
X11617095Y-11770667D01*
X11617095Y-11770667D02*
X11617095Y-11818286D01*
X11617095Y-11818286D02*
X11607571Y-11856381D01*
X11607571Y-11856381D02*
X11598048Y-11875428D01*
X11598048Y-11875428D02*
X11588524Y-11884952D01*
X11588524Y-11884952D02*
X11569476Y-11894476D01*
X11569476Y-11894476D02*
X11550429Y-11894476D01*
X11550429Y-11894476D02*
X11531381Y-11884952D01*
X11531381Y-11884952D02*
X11521857Y-11875428D01*
X11521857Y-11875428D02*
X11512333Y-11856381D01*
X11512333Y-11856381D02*
X11502810Y-11818286D01*
X11502810Y-11818286D02*
X11502810Y-11770667D01*
X11502810Y-11770667D02*
X11512333Y-11732571D01*
X11512333Y-11732571D02*
X11521857Y-11713524D01*
X11521857Y-11713524D02*
X11531381Y-11704000D01*
X11531381Y-11704000D02*
X11550429Y-11694476D01*
X11798048Y-11694476D02*
X11702810Y-11694476D01*
X11702810Y-11694476D02*
X11693286Y-11789714D01*
X11693286Y-11789714D02*
X11702810Y-11780190D01*
X11702810Y-11780190D02*
X11721857Y-11770667D01*
X11721857Y-11770667D02*
X11769476Y-11770667D01*
X11769476Y-11770667D02*
X11788524Y-11780190D01*
X11788524Y-11780190D02*
X11798048Y-11789714D01*
X11798048Y-11789714D02*
X11807571Y-11808762D01*
X11807571Y-11808762D02*
X11807571Y-11856381D01*
X11807571Y-11856381D02*
X11798048Y-11875428D01*
X11798048Y-11875428D02*
X11788524Y-11884952D01*
X11788524Y-11884952D02*
X11769476Y-11894476D01*
X11769476Y-11894476D02*
X11721857Y-11894476D01*
X11721857Y-11894476D02*
X11702810Y-11884952D01*
X11702810Y-11884952D02*
X11693286Y-11875428D01*
X11988524Y-11694476D02*
X11893286Y-11694476D01*
X11893286Y-11694476D02*
X11883762Y-11789714D01*
X11883762Y-11789714D02*
X11893286Y-11780190D01*
X11893286Y-11780190D02*
X11912333Y-11770667D01*
X11912333Y-11770667D02*
X11959952Y-11770667D01*
X11959952Y-11770667D02*
X11979000Y-11780190D01*
X11979000Y-11780190D02*
X11988524Y-11789714D01*
X11988524Y-11789714D02*
X11998048Y-11808762D01*
X11998048Y-11808762D02*
X11998048Y-11856381D01*
X11998048Y-11856381D02*
X11988524Y-11875428D01*
X11988524Y-11875428D02*
X11979000Y-11884952D01*
X11979000Y-11884952D02*
X11959952Y-11894476D01*
X11959952Y-11894476D02*
X11912333Y-11894476D01*
X11912333Y-11894476D02*
X11893286Y-11884952D01*
X11893286Y-11884952D02*
X11883762Y-11875428D01*
X12188524Y-11894476D02*
X12074238Y-11894476D01*
X12131381Y-11894476D02*
X12131381Y-11694476D01*
X12131381Y-11694476D02*
X12112333Y-11723048D01*
X12112333Y-11723048D02*
X12093286Y-11742095D01*
X12093286Y-11742095D02*
X12074238Y-11751619D01*
X12264714Y-11694476D02*
X12264714Y-11732571D01*
X12340905Y-11694476D02*
X12340905Y-11732571D01*
X12603762Y-11970667D02*
X12594238Y-11961143D01*
X12594238Y-11961143D02*
X12575191Y-11932571D01*
X12575191Y-11932571D02*
X12565667Y-11913524D01*
X12565667Y-11913524D02*
X12556143Y-11884952D01*
X12556143Y-11884952D02*
X12546619Y-11837333D01*
X12546619Y-11837333D02*
X12546619Y-11799238D01*
X12546619Y-11799238D02*
X12556143Y-11751619D01*
X12556143Y-11751619D02*
X12565667Y-11723048D01*
X12565667Y-11723048D02*
X12575191Y-11704000D01*
X12575191Y-11704000D02*
X12594238Y-11675428D01*
X12594238Y-11675428D02*
X12603762Y-11665905D01*
X12670429Y-11713524D02*
X12679952Y-11704000D01*
X12679952Y-11704000D02*
X12699000Y-11694476D01*
X12699000Y-11694476D02*
X12746619Y-11694476D01*
X12746619Y-11694476D02*
X12765667Y-11704000D01*
X12765667Y-11704000D02*
X12775191Y-11713524D01*
X12775191Y-11713524D02*
X12784714Y-11732571D01*
X12784714Y-11732571D02*
X12784714Y-11751619D01*
X12784714Y-11751619D02*
X12775191Y-11780190D01*
X12775191Y-11780190D02*
X12660905Y-11894476D01*
X12660905Y-11894476D02*
X12784714Y-11894476D01*
X12990429Y-11894476D02*
X12990429Y-11694476D01*
X13076143Y-11894476D02*
X13076143Y-11789714D01*
X13076143Y-11789714D02*
X13066619Y-11770667D01*
X13066619Y-11770667D02*
X13047572Y-11761143D01*
X13047572Y-11761143D02*
X13019000Y-11761143D01*
X13019000Y-11761143D02*
X12999952Y-11770667D01*
X12999952Y-11770667D02*
X12990429Y-11780190D01*
X13199952Y-11894476D02*
X13180905Y-11884952D01*
X13180905Y-11884952D02*
X13171381Y-11875428D01*
X13171381Y-11875428D02*
X13161857Y-11856381D01*
X13161857Y-11856381D02*
X13161857Y-11799238D01*
X13161857Y-11799238D02*
X13171381Y-11780190D01*
X13171381Y-11780190D02*
X13180905Y-11770667D01*
X13180905Y-11770667D02*
X13199952Y-11761143D01*
X13199952Y-11761143D02*
X13228524Y-11761143D01*
X13228524Y-11761143D02*
X13247572Y-11770667D01*
X13247572Y-11770667D02*
X13257095Y-11780190D01*
X13257095Y-11780190D02*
X13266619Y-11799238D01*
X13266619Y-11799238D02*
X13266619Y-11856381D01*
X13266619Y-11856381D02*
X13257095Y-11875428D01*
X13257095Y-11875428D02*
X13247572Y-11884952D01*
X13247572Y-11884952D02*
X13228524Y-11894476D01*
X13228524Y-11894476D02*
X13199952Y-11894476D01*
X13380905Y-11894476D02*
X13361857Y-11884952D01*
X13361857Y-11884952D02*
X13352333Y-11865905D01*
X13352333Y-11865905D02*
X13352333Y-11694476D01*
X13533286Y-11884952D02*
X13514238Y-11894476D01*
X13514238Y-11894476D02*
X13476143Y-11894476D01*
X13476143Y-11894476D02*
X13457095Y-11884952D01*
X13457095Y-11884952D02*
X13447572Y-11865905D01*
X13447572Y-11865905D02*
X13447572Y-11789714D01*
X13447572Y-11789714D02*
X13457095Y-11770667D01*
X13457095Y-11770667D02*
X13476143Y-11761143D01*
X13476143Y-11761143D02*
X13514238Y-11761143D01*
X13514238Y-11761143D02*
X13533286Y-11770667D01*
X13533286Y-11770667D02*
X13542810Y-11789714D01*
X13542810Y-11789714D02*
X13542810Y-11808762D01*
X13542810Y-11808762D02*
X13447572Y-11827809D01*
X13619000Y-11884952D02*
X13638048Y-11894476D01*
X13638048Y-11894476D02*
X13676143Y-11894476D01*
X13676143Y-11894476D02*
X13695191Y-11884952D01*
X13695191Y-11884952D02*
X13704714Y-11865905D01*
X13704714Y-11865905D02*
X13704714Y-11856381D01*
X13704714Y-11856381D02*
X13695191Y-11837333D01*
X13695191Y-11837333D02*
X13676143Y-11827809D01*
X13676143Y-11827809D02*
X13647572Y-11827809D01*
X13647572Y-11827809D02*
X13628524Y-11818286D01*
X13628524Y-11818286D02*
X13619000Y-11799238D01*
X13619000Y-11799238D02*
X13619000Y-11789714D01*
X13619000Y-11789714D02*
X13628524Y-11770667D01*
X13628524Y-11770667D02*
X13647572Y-11761143D01*
X13647572Y-11761143D02*
X13676143Y-11761143D01*
X13676143Y-11761143D02*
X13695191Y-11770667D01*
X13771381Y-11970667D02*
X13780905Y-11961143D01*
X13780905Y-11961143D02*
X13799953Y-11932571D01*
X13799953Y-11932571D02*
X13809476Y-11913524D01*
X13809476Y-11913524D02*
X13819000Y-11884952D01*
X13819000Y-11884952D02*
X13828524Y-11837333D01*
X13828524Y-11837333D02*
X13828524Y-11799238D01*
X13828524Y-11799238D02*
X13819000Y-11751619D01*
X13819000Y-11751619D02*
X13809476Y-11723048D01*
X13809476Y-11723048D02*
X13799953Y-11704000D01*
X13799953Y-11704000D02*
X13780905Y-11675428D01*
X13780905Y-11675428D02*
X13771381Y-11665905D01*
X14100905Y-11970667D02*
X14091381Y-11961143D01*
X14091381Y-11961143D02*
X14072333Y-11932571D01*
X14072333Y-11932571D02*
X14062810Y-11913524D01*
X14062810Y-11913524D02*
X14053286Y-11884952D01*
X14053286Y-11884952D02*
X14043762Y-11837333D01*
X14043762Y-11837333D02*
X14043762Y-11799238D01*
X14043762Y-11799238D02*
X14053286Y-11751619D01*
X14053286Y-11751619D02*
X14062810Y-11723048D01*
X14062810Y-11723048D02*
X14072333Y-11704000D01*
X14072333Y-11704000D02*
X14091381Y-11675428D01*
X14091381Y-11675428D02*
X14100905Y-11665905D01*
X14177095Y-11761143D02*
X14177095Y-11894476D01*
X14177095Y-11780190D02*
X14186619Y-11770667D01*
X14186619Y-11770667D02*
X14205667Y-11761143D01*
X14205667Y-11761143D02*
X14234238Y-11761143D01*
X14234238Y-11761143D02*
X14253286Y-11770667D01*
X14253286Y-11770667D02*
X14262810Y-11789714D01*
X14262810Y-11789714D02*
X14262810Y-11894476D01*
X14386619Y-11894476D02*
X14367572Y-11884952D01*
X14367572Y-11884952D02*
X14358048Y-11875428D01*
X14358048Y-11875428D02*
X14348524Y-11856381D01*
X14348524Y-11856381D02*
X14348524Y-11799238D01*
X14348524Y-11799238D02*
X14358048Y-11780190D01*
X14358048Y-11780190D02*
X14367572Y-11770667D01*
X14367572Y-11770667D02*
X14386619Y-11761143D01*
X14386619Y-11761143D02*
X14415191Y-11761143D01*
X14415191Y-11761143D02*
X14434238Y-11770667D01*
X14434238Y-11770667D02*
X14443762Y-11780190D01*
X14443762Y-11780190D02*
X14453286Y-11799238D01*
X14453286Y-11799238D02*
X14453286Y-11856381D01*
X14453286Y-11856381D02*
X14443762Y-11875428D01*
X14443762Y-11875428D02*
X14434238Y-11884952D01*
X14434238Y-11884952D02*
X14415191Y-11894476D01*
X14415191Y-11894476D02*
X14386619Y-11894476D01*
X14510429Y-11761143D02*
X14586619Y-11761143D01*
X14539000Y-11694476D02*
X14539000Y-11865905D01*
X14539000Y-11865905D02*
X14548524Y-11884952D01*
X14548524Y-11884952D02*
X14567572Y-11894476D01*
X14567572Y-11894476D02*
X14586619Y-11894476D01*
X14773286Y-11761143D02*
X14773286Y-11961143D01*
X14773286Y-11770667D02*
X14792333Y-11761143D01*
X14792333Y-11761143D02*
X14830429Y-11761143D01*
X14830429Y-11761143D02*
X14849476Y-11770667D01*
X14849476Y-11770667D02*
X14859000Y-11780190D01*
X14859000Y-11780190D02*
X14868524Y-11799238D01*
X14868524Y-11799238D02*
X14868524Y-11856381D01*
X14868524Y-11856381D02*
X14859000Y-11875428D01*
X14859000Y-11875428D02*
X14849476Y-11884952D01*
X14849476Y-11884952D02*
X14830429Y-11894476D01*
X14830429Y-11894476D02*
X14792333Y-11894476D01*
X14792333Y-11894476D02*
X14773286Y-11884952D01*
X14982810Y-11894476D02*
X14963762Y-11884952D01*
X14963762Y-11884952D02*
X14954238Y-11865905D01*
X14954238Y-11865905D02*
X14954238Y-11694476D01*
X15144714Y-11894476D02*
X15144714Y-11789714D01*
X15144714Y-11789714D02*
X15135191Y-11770667D01*
X15135191Y-11770667D02*
X15116143Y-11761143D01*
X15116143Y-11761143D02*
X15078048Y-11761143D01*
X15078048Y-11761143D02*
X15059000Y-11770667D01*
X15144714Y-11884952D02*
X15125667Y-11894476D01*
X15125667Y-11894476D02*
X15078048Y-11894476D01*
X15078048Y-11894476D02*
X15059000Y-11884952D01*
X15059000Y-11884952D02*
X15049476Y-11865905D01*
X15049476Y-11865905D02*
X15049476Y-11846857D01*
X15049476Y-11846857D02*
X15059000Y-11827809D01*
X15059000Y-11827809D02*
X15078048Y-11818286D01*
X15078048Y-11818286D02*
X15125667Y-11818286D01*
X15125667Y-11818286D02*
X15144714Y-11808762D01*
X15211381Y-11761143D02*
X15287572Y-11761143D01*
X15239953Y-11694476D02*
X15239953Y-11865905D01*
X15239953Y-11865905D02*
X15249476Y-11884952D01*
X15249476Y-11884952D02*
X15268524Y-11894476D01*
X15268524Y-11894476D02*
X15287572Y-11894476D01*
X15430429Y-11884952D02*
X15411381Y-11894476D01*
X15411381Y-11894476D02*
X15373286Y-11894476D01*
X15373286Y-11894476D02*
X15354238Y-11884952D01*
X15354238Y-11884952D02*
X15344714Y-11865905D01*
X15344714Y-11865905D02*
X15344714Y-11789714D01*
X15344714Y-11789714D02*
X15354238Y-11770667D01*
X15354238Y-11770667D02*
X15373286Y-11761143D01*
X15373286Y-11761143D02*
X15411381Y-11761143D01*
X15411381Y-11761143D02*
X15430429Y-11770667D01*
X15430429Y-11770667D02*
X15439953Y-11789714D01*
X15439953Y-11789714D02*
X15439953Y-11808762D01*
X15439953Y-11808762D02*
X15344714Y-11827809D01*
X15611381Y-11894476D02*
X15611381Y-11694476D01*
X15611381Y-11884952D02*
X15592334Y-11894476D01*
X15592334Y-11894476D02*
X15554238Y-11894476D01*
X15554238Y-11894476D02*
X15535191Y-11884952D01*
X15535191Y-11884952D02*
X15525667Y-11875428D01*
X15525667Y-11875428D02*
X15516143Y-11856381D01*
X15516143Y-11856381D02*
X15516143Y-11799238D01*
X15516143Y-11799238D02*
X15525667Y-11780190D01*
X15525667Y-11780190D02*
X15535191Y-11770667D01*
X15535191Y-11770667D02*
X15554238Y-11761143D01*
X15554238Y-11761143D02*
X15592334Y-11761143D01*
X15592334Y-11761143D02*
X15611381Y-11770667D01*
X15687572Y-11970667D02*
X15697095Y-11961143D01*
X15697095Y-11961143D02*
X15716143Y-11932571D01*
X15716143Y-11932571D02*
X15725667Y-11913524D01*
X15725667Y-11913524D02*
X15735191Y-11884952D01*
X15735191Y-11884952D02*
X15744714Y-11837333D01*
X15744714Y-11837333D02*
X15744714Y-11799238D01*
X15744714Y-11799238D02*
X15735191Y-11751619D01*
X15735191Y-11751619D02*
X15725667Y-11723048D01*
X15725667Y-11723048D02*
X15716143Y-11704000D01*
X15716143Y-11704000D02*
X15697095Y-11675428D01*
X15697095Y-11675428D02*
X15687572Y-11665905D01*
M02*
