%TF.GenerationSoftware,KiCad,Pcbnew,(7.0.0)*%
%TF.CreationDate,2023-02-28T23:31:13-05:00*%
%TF.ProjectId,8bc_registers,3862635f-7265-4676-9973-746572732e6b,1.0*%
%TF.SameCoordinates,Original*%
%TF.FileFunction,Drillmap*%
%TF.FilePolarity,Positive*%
%FSLAX45Y45*%
G04 Gerber Fmt 4.5, Leading zero omitted, Abs format (unit mm)*
G04 Created by KiCad (PCBNEW (7.0.0)) date 2023-02-28 23:31:13*
%MOMM*%
%LPD*%
G01*
G04 APERTURE LIST*
%ADD10C,0.100000*%
%ADD11C,0.200000*%
%ADD12C,0.040000*%
%ADD13C,0.080000*%
%ADD14C,0.090000*%
G04 APERTURE END LIST*
D10*
X9144000Y-3556000D02*
X20066000Y-3556000D01*
X20066000Y-3556000D02*
X20066000Y-11176000D01*
X20066000Y-11176000D02*
X9144000Y-11176000D01*
X9144000Y-11176000D02*
X9144000Y-3556000D01*
D11*
D12*
X10927230Y-5339230D02*
X10967230Y-5379230D01*
X10967230Y-5339230D02*
X10927230Y-5379230D01*
X11156000Y-8362000D02*
X11196000Y-8402000D01*
X11196000Y-8362000D02*
X11156000Y-8402000D01*
X11156000Y-9886000D02*
X11196000Y-9926000D01*
X11196000Y-9886000D02*
X11156000Y-9926000D01*
X11168981Y-9775572D02*
X11208981Y-9815572D01*
X11208981Y-9775572D02*
X11168981Y-9815572D01*
X11207230Y-9683230D02*
X11247230Y-9723230D01*
X11247230Y-9683230D02*
X11207230Y-9723230D01*
X11936279Y-8634280D02*
X11976279Y-8674280D01*
X11976279Y-8634280D02*
X11936279Y-8674280D01*
X11943230Y-4577230D02*
X11983230Y-4617230D01*
X11983230Y-4577230D02*
X11943230Y-4617230D01*
X12148054Y-10259180D02*
X12188054Y-10299180D01*
X12188054Y-10259180D02*
X12148054Y-10299180D01*
X12172000Y-8870000D02*
X12212000Y-8910000D01*
X12212000Y-8870000D02*
X12172000Y-8910000D01*
X12218730Y-10186730D02*
X12258730Y-10226730D01*
X12258730Y-10186730D02*
X12218730Y-10226730D01*
X12422220Y-7850220D02*
X12462220Y-7890220D01*
X12462220Y-7850220D02*
X12422220Y-7890220D01*
X12426000Y-4552000D02*
X12466000Y-4592000D01*
X12466000Y-4552000D02*
X12426000Y-4592000D01*
X12426000Y-6076000D02*
X12466000Y-6116000D01*
X12466000Y-6076000D02*
X12426000Y-6116000D01*
X12597970Y-8832451D02*
X12637970Y-8872451D01*
X12637970Y-8832451D02*
X12597970Y-8872451D01*
X12628770Y-8564770D02*
X12668770Y-8604770D01*
X12668770Y-8564770D02*
X12628770Y-8604770D01*
X12731230Y-8667230D02*
X12771230Y-8707230D01*
X12771230Y-8667230D02*
X12731230Y-8707230D01*
X12802500Y-5822000D02*
X12842500Y-5862000D01*
X12842500Y-5822000D02*
X12802500Y-5862000D01*
X13188000Y-5314000D02*
X13228000Y-5354000D01*
X13228000Y-5314000D02*
X13188000Y-5354000D01*
X13188000Y-8086780D02*
X13228000Y-8126780D01*
X13228000Y-8086780D02*
X13188000Y-8126780D01*
X13188000Y-9632000D02*
X13228000Y-9672000D01*
X13228000Y-9632000D02*
X13188000Y-9672000D01*
X13198851Y-9388851D02*
X13238851Y-9428851D01*
X13238851Y-9388851D02*
X13198851Y-9428851D01*
X13239230Y-7143230D02*
X13279230Y-7183230D01*
X13279230Y-7143230D02*
X13239230Y-7183230D01*
X13442000Y-9632000D02*
X13482000Y-9672000D01*
X13482000Y-9632000D02*
X13442000Y-9672000D01*
X13493230Y-9937230D02*
X13533230Y-9977230D01*
X13533230Y-9937230D02*
X13493230Y-9977230D01*
X13922275Y-9958450D02*
X13962275Y-9998450D01*
X13962275Y-9958450D02*
X13922275Y-9998450D01*
X13950000Y-9632000D02*
X13990000Y-9672000D01*
X13990000Y-9632000D02*
X13950000Y-9672000D01*
X14001230Y-8159230D02*
X14041230Y-8199230D01*
X14041230Y-8159230D02*
X14001230Y-8199230D01*
X14091500Y-6950500D02*
X14131500Y-6990500D01*
X14131500Y-6950500D02*
X14091500Y-6990500D01*
X14195585Y-8058955D02*
X14235585Y-8098955D01*
X14235585Y-8058955D02*
X14195585Y-8098955D01*
X14204000Y-9886000D02*
X14244000Y-9926000D01*
X14244000Y-9886000D02*
X14204000Y-9926000D01*
X14255230Y-7926450D02*
X14295230Y-7966450D01*
X14295230Y-7926450D02*
X14255230Y-7966450D01*
X14345500Y-7346000D02*
X14385500Y-7386000D01*
X14385500Y-7346000D02*
X14345500Y-7386000D01*
X14406770Y-9072770D02*
X14446770Y-9112770D01*
X14446770Y-9072770D02*
X14406770Y-9112770D01*
X14458000Y-6076000D02*
X14498000Y-6116000D01*
X14498000Y-6076000D02*
X14458000Y-6116000D01*
X14458000Y-7346000D02*
X14498000Y-7386000D01*
X14498000Y-7346000D02*
X14458000Y-7386000D01*
X14458000Y-8067370D02*
X14498000Y-8107370D01*
X14498000Y-8067370D02*
X14458000Y-8107370D01*
X14458000Y-8870000D02*
X14498000Y-8910000D01*
X14498000Y-8870000D02*
X14458000Y-8910000D01*
X14458000Y-9378000D02*
X14498000Y-9418000D01*
X14498000Y-9378000D02*
X14458000Y-9418000D01*
X14509230Y-5873230D02*
X14549230Y-5913230D01*
X14549230Y-5873230D02*
X14509230Y-5913230D01*
X14660770Y-9175230D02*
X14700770Y-9215230D01*
X14700770Y-9175230D02*
X14660770Y-9215230D01*
X14712000Y-5568000D02*
X14752000Y-5608000D01*
X14752000Y-5568000D02*
X14712000Y-5608000D01*
X14712000Y-9632000D02*
X14752000Y-9672000D01*
X14752000Y-9632000D02*
X14712000Y-9672000D01*
X14810516Y-5584870D02*
X14850516Y-5624870D01*
X14850516Y-5584870D02*
X14810516Y-5624870D01*
X14966000Y-9886000D02*
X15006000Y-9926000D01*
X15006000Y-9886000D02*
X14966000Y-9926000D01*
X15093000Y-8227441D02*
X15133000Y-8267441D01*
X15133000Y-8227441D02*
X15093000Y-8267441D01*
X15168770Y-7397230D02*
X15208770Y-7437230D01*
X15208770Y-7397230D02*
X15168770Y-7437230D01*
X15474000Y-10067550D02*
X15514000Y-10107550D01*
X15514000Y-10067550D02*
X15474000Y-10107550D01*
X15484851Y-5832851D02*
X15524851Y-5872851D01*
X15524851Y-5832851D02*
X15484851Y-5872851D01*
X15561455Y-6345005D02*
X15601455Y-6385005D01*
X15601455Y-6345005D02*
X15561455Y-6385005D01*
X15728000Y-9704500D02*
X15768000Y-9744500D01*
X15768000Y-9704500D02*
X15728000Y-9744500D01*
X15728000Y-9886000D02*
X15768000Y-9926000D01*
X15768000Y-9886000D02*
X15728000Y-9926000D01*
X16080960Y-8263040D02*
X16120960Y-8303040D01*
X16120960Y-8263040D02*
X16080960Y-8303040D01*
X16236000Y-4891950D02*
X16276000Y-4931950D01*
X16276000Y-4891950D02*
X16236000Y-4931950D01*
X16490000Y-9704500D02*
X16530000Y-9744500D01*
X16530000Y-9704500D02*
X16490000Y-9744500D01*
X16744000Y-8616000D02*
X16784000Y-8656000D01*
X16784000Y-8616000D02*
X16744000Y-8656000D01*
X16947950Y-8870000D02*
X16987950Y-8910000D01*
X16987950Y-8870000D02*
X16947950Y-8910000D01*
X16998000Y-9704450D02*
X17038000Y-9744450D01*
X17038000Y-9704450D02*
X16998000Y-9744450D01*
X17165550Y-8616000D02*
X17205550Y-8656000D01*
X17205550Y-8616000D02*
X17165550Y-8656000D01*
X18528950Y-5314000D02*
X18568950Y-5354000D01*
X18568950Y-5314000D02*
X18528950Y-5354000D01*
D13*
X10712000Y-4826000D02*
G75*
G03*
X10712000Y-4826000I-40000J0D01*
G01*
X10962000Y-4826000D02*
G75*
G03*
X10962000Y-4826000I-40000J0D01*
G01*
X11724000Y-7620000D02*
G75*
G03*
X11724000Y-7620000I-40000J0D01*
G01*
X11724000Y-8382000D02*
G75*
G03*
X11724000Y-8382000I-40000J0D01*
G01*
X11800000Y-4190000D02*
G75*
G03*
X11800000Y-4190000I-40000J0D01*
G01*
X11800000Y-4952000D02*
G75*
G03*
X11800000Y-4952000I-40000J0D01*
G01*
X11978000Y-7620000D02*
G75*
G03*
X11978000Y-7620000I-40000J0D01*
G01*
X11978000Y-8382000D02*
G75*
G03*
X11978000Y-8382000I-40000J0D01*
G01*
X12054000Y-4190000D02*
G75*
G03*
X12054000Y-4190000I-40000J0D01*
G01*
X12054000Y-4952000D02*
G75*
G03*
X12054000Y-4952000I-40000J0D01*
G01*
X12232000Y-7620000D02*
G75*
G03*
X12232000Y-7620000I-40000J0D01*
G01*
X12232000Y-8382000D02*
G75*
G03*
X12232000Y-8382000I-40000J0D01*
G01*
X12308000Y-4190000D02*
G75*
G03*
X12308000Y-4190000I-40000J0D01*
G01*
X12308000Y-4952000D02*
G75*
G03*
X12308000Y-4952000I-40000J0D01*
G01*
X12486000Y-7620000D02*
G75*
G03*
X12486000Y-7620000I-40000J0D01*
G01*
X12486000Y-8382000D02*
G75*
G03*
X12486000Y-8382000I-40000J0D01*
G01*
X12562000Y-4190000D02*
G75*
G03*
X12562000Y-4190000I-40000J0D01*
G01*
X12562000Y-4952000D02*
G75*
G03*
X12562000Y-4952000I-40000J0D01*
G01*
X12740000Y-7620000D02*
G75*
G03*
X12740000Y-7620000I-40000J0D01*
G01*
X12740000Y-8382000D02*
G75*
G03*
X12740000Y-8382000I-40000J0D01*
G01*
X12816000Y-4190000D02*
G75*
G03*
X12816000Y-4190000I-40000J0D01*
G01*
X12816000Y-4952000D02*
G75*
G03*
X12816000Y-4952000I-40000J0D01*
G01*
X12994000Y-7620000D02*
G75*
G03*
X12994000Y-7620000I-40000J0D01*
G01*
X12994000Y-8382000D02*
G75*
G03*
X12994000Y-8382000I-40000J0D01*
G01*
X13070000Y-4190000D02*
G75*
G03*
X13070000Y-4190000I-40000J0D01*
G01*
X13070000Y-4952000D02*
G75*
G03*
X13070000Y-4952000I-40000J0D01*
G01*
X13248000Y-7620000D02*
G75*
G03*
X13248000Y-7620000I-40000J0D01*
G01*
X13248000Y-8382000D02*
G75*
G03*
X13248000Y-8382000I-40000J0D01*
G01*
X13324000Y-4190000D02*
G75*
G03*
X13324000Y-4190000I-40000J0D01*
G01*
X13324000Y-4952000D02*
G75*
G03*
X13324000Y-4952000I-40000J0D01*
G01*
X13502000Y-7620000D02*
G75*
G03*
X13502000Y-7620000I-40000J0D01*
G01*
X13502000Y-8382000D02*
G75*
G03*
X13502000Y-8382000I-40000J0D01*
G01*
X13578000Y-4190000D02*
G75*
G03*
X13578000Y-4190000I-40000J0D01*
G01*
X13578000Y-4952000D02*
G75*
G03*
X13578000Y-4952000I-40000J0D01*
G01*
X14264000Y-7112000D02*
G75*
G03*
X14264000Y-7112000I-40000J0D01*
G01*
X14264000Y-7620000D02*
G75*
G03*
X14264000Y-7620000I-40000J0D01*
G01*
X14264000Y-8382000D02*
G75*
G03*
X14264000Y-8382000I-40000J0D01*
G01*
X14264000Y-10414000D02*
G75*
G03*
X14264000Y-10414000I-40000J0D01*
G01*
X14340000Y-4190000D02*
G75*
G03*
X14340000Y-4190000I-40000J0D01*
G01*
X14340000Y-4952000D02*
G75*
G03*
X14340000Y-4952000I-40000J0D01*
G01*
X14518000Y-7112000D02*
G75*
G03*
X14518000Y-7112000I-40000J0D01*
G01*
X14518000Y-7620000D02*
G75*
G03*
X14518000Y-7620000I-40000J0D01*
G01*
X14518000Y-8382000D02*
G75*
G03*
X14518000Y-8382000I-40000J0D01*
G01*
X14518000Y-10414000D02*
G75*
G03*
X14518000Y-10414000I-40000J0D01*
G01*
X14594000Y-4190000D02*
G75*
G03*
X14594000Y-4190000I-40000J0D01*
G01*
X14594000Y-4952000D02*
G75*
G03*
X14594000Y-4952000I-40000J0D01*
G01*
X14772000Y-7112000D02*
G75*
G03*
X14772000Y-7112000I-40000J0D01*
G01*
X14772000Y-7620000D02*
G75*
G03*
X14772000Y-7620000I-40000J0D01*
G01*
X14772000Y-8382000D02*
G75*
G03*
X14772000Y-8382000I-40000J0D01*
G01*
X14772000Y-10414000D02*
G75*
G03*
X14772000Y-10414000I-40000J0D01*
G01*
X14848000Y-4190000D02*
G75*
G03*
X14848000Y-4190000I-40000J0D01*
G01*
X14848000Y-4952000D02*
G75*
G03*
X14848000Y-4952000I-40000J0D01*
G01*
X15026000Y-7112000D02*
G75*
G03*
X15026000Y-7112000I-40000J0D01*
G01*
X15026000Y-7620000D02*
G75*
G03*
X15026000Y-7620000I-40000J0D01*
G01*
X15026000Y-8382000D02*
G75*
G03*
X15026000Y-8382000I-40000J0D01*
G01*
X15026000Y-10414000D02*
G75*
G03*
X15026000Y-10414000I-40000J0D01*
G01*
X15102000Y-4190000D02*
G75*
G03*
X15102000Y-4190000I-40000J0D01*
G01*
X15102000Y-4952000D02*
G75*
G03*
X15102000Y-4952000I-40000J0D01*
G01*
X15280000Y-7112000D02*
G75*
G03*
X15280000Y-7112000I-40000J0D01*
G01*
X15280000Y-7620000D02*
G75*
G03*
X15280000Y-7620000I-40000J0D01*
G01*
X15280000Y-8382000D02*
G75*
G03*
X15280000Y-8382000I-40000J0D01*
G01*
X15280000Y-10414000D02*
G75*
G03*
X15280000Y-10414000I-40000J0D01*
G01*
X15356000Y-4190000D02*
G75*
G03*
X15356000Y-4190000I-40000J0D01*
G01*
X15356000Y-4952000D02*
G75*
G03*
X15356000Y-4952000I-40000J0D01*
G01*
X15534000Y-7112000D02*
G75*
G03*
X15534000Y-7112000I-40000J0D01*
G01*
X15534000Y-7620000D02*
G75*
G03*
X15534000Y-7620000I-40000J0D01*
G01*
X15534000Y-8382000D02*
G75*
G03*
X15534000Y-8382000I-40000J0D01*
G01*
X15534000Y-10414000D02*
G75*
G03*
X15534000Y-10414000I-40000J0D01*
G01*
X15610000Y-4190000D02*
G75*
G03*
X15610000Y-4190000I-40000J0D01*
G01*
X15610000Y-4952000D02*
G75*
G03*
X15610000Y-4952000I-40000J0D01*
G01*
X15788000Y-7112000D02*
G75*
G03*
X15788000Y-7112000I-40000J0D01*
G01*
X15788000Y-7620000D02*
G75*
G03*
X15788000Y-7620000I-40000J0D01*
G01*
X15788000Y-8382000D02*
G75*
G03*
X15788000Y-8382000I-40000J0D01*
G01*
X15788000Y-10414000D02*
G75*
G03*
X15788000Y-10414000I-40000J0D01*
G01*
X15864000Y-4190000D02*
G75*
G03*
X15864000Y-4190000I-40000J0D01*
G01*
X15864000Y-4952000D02*
G75*
G03*
X15864000Y-4952000I-40000J0D01*
G01*
X16042000Y-7112000D02*
G75*
G03*
X16042000Y-7112000I-40000J0D01*
G01*
X16042000Y-7620000D02*
G75*
G03*
X16042000Y-7620000I-40000J0D01*
G01*
X16042000Y-8382000D02*
G75*
G03*
X16042000Y-8382000I-40000J0D01*
G01*
X16042000Y-10414000D02*
G75*
G03*
X16042000Y-10414000I-40000J0D01*
G01*
X16118000Y-4190000D02*
G75*
G03*
X16118000Y-4190000I-40000J0D01*
G01*
X16118000Y-4952000D02*
G75*
G03*
X16118000Y-4952000I-40000J0D01*
G01*
X16296000Y-7112000D02*
G75*
G03*
X16296000Y-7112000I-40000J0D01*
G01*
X16296000Y-10414000D02*
G75*
G03*
X16296000Y-10414000I-40000J0D01*
G01*
X16880000Y-4190000D02*
G75*
G03*
X16880000Y-4190000I-40000J0D01*
G01*
X16880000Y-4952000D02*
G75*
G03*
X16880000Y-4952000I-40000J0D01*
G01*
X16931500Y-7620000D02*
G75*
G03*
X16931500Y-7620000I-40000J0D01*
G01*
X16931500Y-8382000D02*
G75*
G03*
X16931500Y-8382000I-40000J0D01*
G01*
X17134000Y-4190000D02*
G75*
G03*
X17134000Y-4190000I-40000J0D01*
G01*
X17134000Y-4952000D02*
G75*
G03*
X17134000Y-4952000I-40000J0D01*
G01*
X17185500Y-7620000D02*
G75*
G03*
X17185500Y-7620000I-40000J0D01*
G01*
X17185500Y-8382000D02*
G75*
G03*
X17185500Y-8382000I-40000J0D01*
G01*
X17388000Y-4190000D02*
G75*
G03*
X17388000Y-4190000I-40000J0D01*
G01*
X17388000Y-4952000D02*
G75*
G03*
X17388000Y-4952000I-40000J0D01*
G01*
X17439500Y-7620000D02*
G75*
G03*
X17439500Y-7620000I-40000J0D01*
G01*
X17439500Y-8382000D02*
G75*
G03*
X17439500Y-8382000I-40000J0D01*
G01*
X17642000Y-4190000D02*
G75*
G03*
X17642000Y-4190000I-40000J0D01*
G01*
X17642000Y-4952000D02*
G75*
G03*
X17642000Y-4952000I-40000J0D01*
G01*
X17693500Y-7620000D02*
G75*
G03*
X17693500Y-7620000I-40000J0D01*
G01*
X17693500Y-8382000D02*
G75*
G03*
X17693500Y-8382000I-40000J0D01*
G01*
X17896000Y-4190000D02*
G75*
G03*
X17896000Y-4190000I-40000J0D01*
G01*
X17896000Y-4952000D02*
G75*
G03*
X17896000Y-4952000I-40000J0D01*
G01*
X17947500Y-7620000D02*
G75*
G03*
X17947500Y-7620000I-40000J0D01*
G01*
X17947500Y-8382000D02*
G75*
G03*
X17947500Y-8382000I-40000J0D01*
G01*
X18150000Y-4190000D02*
G75*
G03*
X18150000Y-4190000I-40000J0D01*
G01*
X18150000Y-4952000D02*
G75*
G03*
X18150000Y-4952000I-40000J0D01*
G01*
X18201500Y-7620000D02*
G75*
G03*
X18201500Y-7620000I-40000J0D01*
G01*
X18201500Y-8382000D02*
G75*
G03*
X18201500Y-8382000I-40000J0D01*
G01*
X18404000Y-4190000D02*
G75*
G03*
X18404000Y-4190000I-40000J0D01*
G01*
X18404000Y-4952000D02*
G75*
G03*
X18404000Y-4952000I-40000J0D01*
G01*
X18455500Y-7620000D02*
G75*
G03*
X18455500Y-7620000I-40000J0D01*
G01*
X18455500Y-8382000D02*
G75*
G03*
X18455500Y-8382000I-40000J0D01*
G01*
X18658000Y-4190000D02*
G75*
G03*
X18658000Y-4190000I-40000J0D01*
G01*
X18658000Y-4952000D02*
G75*
G03*
X18658000Y-4952000I-40000J0D01*
G01*
X18709500Y-7620000D02*
G75*
G03*
X18709500Y-7620000I-40000J0D01*
G01*
X18709500Y-8382000D02*
G75*
G03*
X18709500Y-8382000I-40000J0D01*
G01*
X18912000Y-4190000D02*
G75*
G03*
X18912000Y-4190000I-40000J0D01*
G01*
X18912000Y-4952000D02*
G75*
G03*
X18912000Y-4952000I-40000J0D01*
G01*
X18963500Y-7620000D02*
G75*
G03*
X18963500Y-7620000I-40000J0D01*
G01*
X18963500Y-8382000D02*
G75*
G03*
X18963500Y-8382000I-40000J0D01*
G01*
X19166000Y-4190000D02*
G75*
G03*
X19166000Y-4190000I-40000J0D01*
G01*
X19166000Y-4952000D02*
G75*
G03*
X19166000Y-4952000I-40000J0D01*
G01*
X19217500Y-7620000D02*
G75*
G03*
X19217500Y-7620000I-40000J0D01*
G01*
X19217500Y-8382000D02*
G75*
G03*
X19217500Y-8382000I-40000J0D01*
G01*
D14*
X11684000Y-6051000D02*
X11684000Y-6141000D01*
X11639000Y-6096000D02*
X11729000Y-6096000D01*
X11684000Y-9353000D02*
X11684000Y-9443000D01*
X11639000Y-9398000D02*
X11729000Y-9398000D01*
X11938000Y-6051000D02*
X11938000Y-6141000D01*
X11893000Y-6096000D02*
X11983000Y-6096000D01*
X11938000Y-9353000D02*
X11938000Y-9443000D01*
X11893000Y-9398000D02*
X11983000Y-9398000D01*
X12700000Y-6051000D02*
X12700000Y-6141000D01*
X12655000Y-6096000D02*
X12745000Y-6096000D01*
X12700000Y-9353000D02*
X12700000Y-9443000D01*
X12655000Y-9398000D02*
X12745000Y-9398000D01*
X12954000Y-6051000D02*
X12954000Y-6141000D01*
X12909000Y-6096000D02*
X12999000Y-6096000D01*
X12954000Y-9353000D02*
X12954000Y-9443000D01*
X12909000Y-9398000D02*
X12999000Y-9398000D01*
X13716000Y-6051000D02*
X13716000Y-6141000D01*
X13671000Y-6096000D02*
X13761000Y-6096000D01*
X13716000Y-9353000D02*
X13716000Y-9443000D01*
X13671000Y-9398000D02*
X13761000Y-9398000D01*
X13970000Y-6051000D02*
X13970000Y-6141000D01*
X13925000Y-6096000D02*
X14015000Y-6096000D01*
X13970000Y-9353000D02*
X13970000Y-9443000D01*
X13925000Y-9398000D02*
X14015000Y-9398000D01*
X14732000Y-6051000D02*
X14732000Y-6141000D01*
X14687000Y-6096000D02*
X14777000Y-6096000D01*
X14732000Y-9353000D02*
X14732000Y-9443000D01*
X14687000Y-9398000D02*
X14777000Y-9398000D01*
X14986000Y-6051000D02*
X14986000Y-6141000D01*
X14941000Y-6096000D02*
X15031000Y-6096000D01*
X14986000Y-9353000D02*
X14986000Y-9443000D01*
X14941000Y-9398000D02*
X15031000Y-9398000D01*
X15748000Y-6051000D02*
X15748000Y-6141000D01*
X15703000Y-6096000D02*
X15793000Y-6096000D01*
X15748000Y-9353000D02*
X15748000Y-9443000D01*
X15703000Y-9398000D02*
X15793000Y-9398000D01*
X16002000Y-6051000D02*
X16002000Y-6141000D01*
X15957000Y-6096000D02*
X16047000Y-6096000D01*
X16002000Y-9353000D02*
X16002000Y-9443000D01*
X15957000Y-9398000D02*
X16047000Y-9398000D01*
X16764000Y-6051000D02*
X16764000Y-6141000D01*
X16719000Y-6096000D02*
X16809000Y-6096000D01*
X16764000Y-9353000D02*
X16764000Y-9443000D01*
X16719000Y-9398000D02*
X16809000Y-9398000D01*
X17018000Y-6051000D02*
X17018000Y-6141000D01*
X16973000Y-6096000D02*
X17063000Y-6096000D01*
X17018000Y-9353000D02*
X17018000Y-9443000D01*
X16973000Y-9398000D02*
X17063000Y-9398000D01*
X17780000Y-6051000D02*
X17780000Y-6141000D01*
X17735000Y-6096000D02*
X17825000Y-6096000D01*
X17780000Y-9353000D02*
X17780000Y-9443000D01*
X17735000Y-9398000D02*
X17825000Y-9398000D01*
X18034000Y-6051000D02*
X18034000Y-6141000D01*
X17989000Y-6096000D02*
X18079000Y-6096000D01*
X18034000Y-9353000D02*
X18034000Y-9443000D01*
X17989000Y-9398000D02*
X18079000Y-9398000D01*
X18796000Y-6051000D02*
X18796000Y-6141000D01*
X18751000Y-6096000D02*
X18841000Y-6096000D01*
X18796000Y-9353000D02*
X18796000Y-9443000D01*
X18751000Y-9398000D02*
X18841000Y-9398000D01*
X19050000Y-6051000D02*
X19050000Y-6141000D01*
X19005000Y-6096000D02*
X19095000Y-6096000D01*
X19050000Y-9353000D02*
X19050000Y-9443000D01*
X19005000Y-9398000D02*
X19095000Y-9398000D01*
D10*
X9941356Y-8925356D02*
X9941356Y-8854644D01*
X9870644Y-8854644D01*
X9870644Y-8925356D01*
X9941356Y-8925356D01*
X9941356Y-9179356D02*
X9941356Y-9108644D01*
X9870644Y-9108644D01*
X9870644Y-9179356D01*
X9941356Y-9179356D01*
X9941356Y-9433356D02*
X9941356Y-9362644D01*
X9870644Y-9362644D01*
X9870644Y-9433356D01*
X9941356Y-9433356D01*
X9941356Y-9687356D02*
X9941356Y-9616644D01*
X9870644Y-9616644D01*
X9870644Y-9687356D01*
X9941356Y-9687356D01*
X9941356Y-9941356D02*
X9941356Y-9870644D01*
X9870644Y-9870644D01*
X9870644Y-9941356D01*
X9941356Y-9941356D01*
X9941356Y-10195356D02*
X9941356Y-10124644D01*
X9870644Y-10124644D01*
X9870644Y-10195356D01*
X9941356Y-10195356D01*
X9941356Y-10449356D02*
X9941356Y-10378644D01*
X9870644Y-10378644D01*
X9870644Y-10449356D01*
X9941356Y-10449356D01*
X9941356Y-10703356D02*
X9941356Y-10632644D01*
X9870644Y-10632644D01*
X9870644Y-10703356D01*
X9941356Y-10703356D01*
X10195356Y-4099356D02*
X10195356Y-4028644D01*
X10124644Y-4028644D01*
X10124644Y-4099356D01*
X10195356Y-4099356D01*
X10195356Y-4353356D02*
X10195356Y-4282644D01*
X10124644Y-4282644D01*
X10124644Y-4353356D01*
X10195356Y-4353356D01*
X10195356Y-4607356D02*
X10195356Y-4536644D01*
X10124644Y-4536644D01*
X10124644Y-4607356D01*
X10195356Y-4607356D01*
X10195356Y-4861356D02*
X10195356Y-4790644D01*
X10124644Y-4790644D01*
X10124644Y-4861356D01*
X10195356Y-4861356D01*
X10195356Y-5115356D02*
X10195356Y-5044644D01*
X10124644Y-5044644D01*
X10124644Y-5115356D01*
X10195356Y-5115356D01*
X10195356Y-5369356D02*
X10195356Y-5298644D01*
X10124644Y-5298644D01*
X10124644Y-5369356D01*
X10195356Y-5369356D01*
X10195356Y-5623356D02*
X10195356Y-5552644D01*
X10124644Y-5552644D01*
X10124644Y-5623356D01*
X10195356Y-5623356D01*
X10195356Y-5877356D02*
X10195356Y-5806644D01*
X10124644Y-5806644D01*
X10124644Y-5877356D01*
X10195356Y-5877356D01*
X10195356Y-6385356D02*
X10195356Y-6314644D01*
X10124644Y-6314644D01*
X10124644Y-6385356D01*
X10195356Y-6385356D01*
X10195356Y-6639356D02*
X10195356Y-6568644D01*
X10124644Y-6568644D01*
X10124644Y-6639356D01*
X10195356Y-6639356D01*
X10195356Y-6893356D02*
X10195356Y-6822644D01*
X10124644Y-6822644D01*
X10124644Y-6893356D01*
X10195356Y-6893356D01*
X10195356Y-7147356D02*
X10195356Y-7076644D01*
X10124644Y-7076644D01*
X10124644Y-7147356D01*
X10195356Y-7147356D01*
X10195356Y-7401356D02*
X10195356Y-7330644D01*
X10124644Y-7330644D01*
X10124644Y-7401356D01*
X10195356Y-7401356D01*
X10195356Y-7655356D02*
X10195356Y-7584644D01*
X10124644Y-7584644D01*
X10124644Y-7655356D01*
X10195356Y-7655356D01*
X10195356Y-7909356D02*
X10195356Y-7838644D01*
X10124644Y-7838644D01*
X10124644Y-7909356D01*
X10195356Y-7909356D01*
X10195356Y-8163356D02*
X10195356Y-8092644D01*
X10124644Y-8092644D01*
X10124644Y-8163356D01*
X10195356Y-8163356D01*
X10449356Y-8925356D02*
X10449356Y-8854644D01*
X10378644Y-8854644D01*
X10378644Y-8925356D01*
X10449356Y-8925356D01*
X10449356Y-9179356D02*
X10449356Y-9108644D01*
X10378644Y-9108644D01*
X10378644Y-9179356D01*
X10449356Y-9179356D01*
X10449356Y-9433356D02*
X10449356Y-9362644D01*
X10378644Y-9362644D01*
X10378644Y-9433356D01*
X10449356Y-9433356D01*
X10449356Y-9687356D02*
X10449356Y-9616644D01*
X10378644Y-9616644D01*
X10378644Y-9687356D01*
X10449356Y-9687356D01*
X10449356Y-9941356D02*
X10449356Y-9870644D01*
X10378644Y-9870644D01*
X10378644Y-9941356D01*
X10449356Y-9941356D01*
X10449356Y-10195356D02*
X10449356Y-10124644D01*
X10378644Y-10124644D01*
X10378644Y-10195356D01*
X10449356Y-10195356D01*
X10449356Y-10449356D02*
X10449356Y-10378644D01*
X10378644Y-10378644D01*
X10378644Y-10449356D01*
X10449356Y-10449356D01*
X10449356Y-10703356D02*
X10449356Y-10632644D01*
X10378644Y-10632644D01*
X10378644Y-10703356D01*
X10449356Y-10703356D01*
D11*
X9386619Y-11474476D02*
X9386619Y-11274476D01*
X9386619Y-11274476D02*
X9434238Y-11274476D01*
X9434238Y-11274476D02*
X9462810Y-11284000D01*
X9462810Y-11284000D02*
X9481857Y-11303048D01*
X9481857Y-11303048D02*
X9491381Y-11322095D01*
X9491381Y-11322095D02*
X9500905Y-11360190D01*
X9500905Y-11360190D02*
X9500905Y-11388762D01*
X9500905Y-11388762D02*
X9491381Y-11426857D01*
X9491381Y-11426857D02*
X9481857Y-11445905D01*
X9481857Y-11445905D02*
X9462810Y-11464952D01*
X9462810Y-11464952D02*
X9434238Y-11474476D01*
X9434238Y-11474476D02*
X9386619Y-11474476D01*
X9586619Y-11474476D02*
X9586619Y-11341143D01*
X9586619Y-11379238D02*
X9596143Y-11360190D01*
X9596143Y-11360190D02*
X9605667Y-11350667D01*
X9605667Y-11350667D02*
X9624714Y-11341143D01*
X9624714Y-11341143D02*
X9643762Y-11341143D01*
X9710429Y-11474476D02*
X9710429Y-11341143D01*
X9710429Y-11274476D02*
X9700905Y-11284000D01*
X9700905Y-11284000D02*
X9710429Y-11293524D01*
X9710429Y-11293524D02*
X9719952Y-11284000D01*
X9719952Y-11284000D02*
X9710429Y-11274476D01*
X9710429Y-11274476D02*
X9710429Y-11293524D01*
X9834238Y-11474476D02*
X9815190Y-11464952D01*
X9815190Y-11464952D02*
X9805667Y-11445905D01*
X9805667Y-11445905D02*
X9805667Y-11274476D01*
X9939000Y-11474476D02*
X9919952Y-11464952D01*
X9919952Y-11464952D02*
X9910429Y-11445905D01*
X9910429Y-11445905D02*
X9910429Y-11274476D01*
X10135190Y-11474476D02*
X10135190Y-11274476D01*
X10135190Y-11274476D02*
X10201857Y-11417333D01*
X10201857Y-11417333D02*
X10268524Y-11274476D01*
X10268524Y-11274476D02*
X10268524Y-11474476D01*
X10449476Y-11474476D02*
X10449476Y-11369714D01*
X10449476Y-11369714D02*
X10439952Y-11350667D01*
X10439952Y-11350667D02*
X10420905Y-11341143D01*
X10420905Y-11341143D02*
X10382809Y-11341143D01*
X10382809Y-11341143D02*
X10363762Y-11350667D01*
X10449476Y-11464952D02*
X10430429Y-11474476D01*
X10430429Y-11474476D02*
X10382809Y-11474476D01*
X10382809Y-11474476D02*
X10363762Y-11464952D01*
X10363762Y-11464952D02*
X10354238Y-11445905D01*
X10354238Y-11445905D02*
X10354238Y-11426857D01*
X10354238Y-11426857D02*
X10363762Y-11407809D01*
X10363762Y-11407809D02*
X10382809Y-11398286D01*
X10382809Y-11398286D02*
X10430429Y-11398286D01*
X10430429Y-11398286D02*
X10449476Y-11388762D01*
X10544714Y-11341143D02*
X10544714Y-11541143D01*
X10544714Y-11350667D02*
X10563762Y-11341143D01*
X10563762Y-11341143D02*
X10601857Y-11341143D01*
X10601857Y-11341143D02*
X10620905Y-11350667D01*
X10620905Y-11350667D02*
X10630429Y-11360190D01*
X10630429Y-11360190D02*
X10639952Y-11379238D01*
X10639952Y-11379238D02*
X10639952Y-11436381D01*
X10639952Y-11436381D02*
X10630429Y-11455428D01*
X10630429Y-11455428D02*
X10620905Y-11464952D01*
X10620905Y-11464952D02*
X10601857Y-11474476D01*
X10601857Y-11474476D02*
X10563762Y-11474476D01*
X10563762Y-11474476D02*
X10544714Y-11464952D01*
X10725667Y-11455428D02*
X10735190Y-11464952D01*
X10735190Y-11464952D02*
X10725667Y-11474476D01*
X10725667Y-11474476D02*
X10716143Y-11464952D01*
X10716143Y-11464952D02*
X10725667Y-11455428D01*
X10725667Y-11455428D02*
X10725667Y-11474476D01*
X10725667Y-11350667D02*
X10735190Y-11360190D01*
X10735190Y-11360190D02*
X10725667Y-11369714D01*
X10725667Y-11369714D02*
X10716143Y-11360190D01*
X10716143Y-11360190D02*
X10725667Y-11350667D01*
X10725667Y-11350667D02*
X10725667Y-11369714D01*
D12*
X9099000Y-11801000D02*
X9139000Y-11841000D01*
X9139000Y-11801000D02*
X9099000Y-11841000D01*
D11*
X9424714Y-11694476D02*
X9443762Y-11694476D01*
X9443762Y-11694476D02*
X9462810Y-11704000D01*
X9462810Y-11704000D02*
X9472333Y-11713524D01*
X9472333Y-11713524D02*
X9481857Y-11732571D01*
X9481857Y-11732571D02*
X9491381Y-11770667D01*
X9491381Y-11770667D02*
X9491381Y-11818286D01*
X9491381Y-11818286D02*
X9481857Y-11856381D01*
X9481857Y-11856381D02*
X9472333Y-11875428D01*
X9472333Y-11875428D02*
X9462810Y-11884952D01*
X9462810Y-11884952D02*
X9443762Y-11894476D01*
X9443762Y-11894476D02*
X9424714Y-11894476D01*
X9424714Y-11894476D02*
X9405667Y-11884952D01*
X9405667Y-11884952D02*
X9396143Y-11875428D01*
X9396143Y-11875428D02*
X9386619Y-11856381D01*
X9386619Y-11856381D02*
X9377095Y-11818286D01*
X9377095Y-11818286D02*
X9377095Y-11770667D01*
X9377095Y-11770667D02*
X9386619Y-11732571D01*
X9386619Y-11732571D02*
X9396143Y-11713524D01*
X9396143Y-11713524D02*
X9405667Y-11704000D01*
X9405667Y-11704000D02*
X9424714Y-11694476D01*
X9577095Y-11875428D02*
X9586619Y-11884952D01*
X9586619Y-11884952D02*
X9577095Y-11894476D01*
X9577095Y-11894476D02*
X9567571Y-11884952D01*
X9567571Y-11884952D02*
X9577095Y-11875428D01*
X9577095Y-11875428D02*
X9577095Y-11894476D01*
X9758048Y-11761143D02*
X9758048Y-11894476D01*
X9710429Y-11684952D02*
X9662810Y-11827809D01*
X9662810Y-11827809D02*
X9786619Y-11827809D01*
X9900905Y-11694476D02*
X9919952Y-11694476D01*
X9919952Y-11694476D02*
X9939000Y-11704000D01*
X9939000Y-11704000D02*
X9948524Y-11713524D01*
X9948524Y-11713524D02*
X9958048Y-11732571D01*
X9958048Y-11732571D02*
X9967571Y-11770667D01*
X9967571Y-11770667D02*
X9967571Y-11818286D01*
X9967571Y-11818286D02*
X9958048Y-11856381D01*
X9958048Y-11856381D02*
X9948524Y-11875428D01*
X9948524Y-11875428D02*
X9939000Y-11884952D01*
X9939000Y-11884952D02*
X9919952Y-11894476D01*
X9919952Y-11894476D02*
X9900905Y-11894476D01*
X9900905Y-11894476D02*
X9881857Y-11884952D01*
X9881857Y-11884952D02*
X9872333Y-11875428D01*
X9872333Y-11875428D02*
X9862810Y-11856381D01*
X9862810Y-11856381D02*
X9853286Y-11818286D01*
X9853286Y-11818286D02*
X9853286Y-11770667D01*
X9853286Y-11770667D02*
X9862810Y-11732571D01*
X9862810Y-11732571D02*
X9872333Y-11713524D01*
X9872333Y-11713524D02*
X9881857Y-11704000D01*
X9881857Y-11704000D02*
X9900905Y-11694476D01*
X10091381Y-11694476D02*
X10110429Y-11694476D01*
X10110429Y-11694476D02*
X10129476Y-11704000D01*
X10129476Y-11704000D02*
X10139000Y-11713524D01*
X10139000Y-11713524D02*
X10148524Y-11732571D01*
X10148524Y-11732571D02*
X10158048Y-11770667D01*
X10158048Y-11770667D02*
X10158048Y-11818286D01*
X10158048Y-11818286D02*
X10148524Y-11856381D01*
X10148524Y-11856381D02*
X10139000Y-11875428D01*
X10139000Y-11875428D02*
X10129476Y-11884952D01*
X10129476Y-11884952D02*
X10110429Y-11894476D01*
X10110429Y-11894476D02*
X10091381Y-11894476D01*
X10091381Y-11894476D02*
X10072333Y-11884952D01*
X10072333Y-11884952D02*
X10062810Y-11875428D01*
X10062810Y-11875428D02*
X10053286Y-11856381D01*
X10053286Y-11856381D02*
X10043762Y-11818286D01*
X10043762Y-11818286D02*
X10043762Y-11770667D01*
X10043762Y-11770667D02*
X10053286Y-11732571D01*
X10053286Y-11732571D02*
X10062810Y-11713524D01*
X10062810Y-11713524D02*
X10072333Y-11704000D01*
X10072333Y-11704000D02*
X10091381Y-11694476D01*
X10243762Y-11894476D02*
X10243762Y-11761143D01*
X10243762Y-11780190D02*
X10253286Y-11770667D01*
X10253286Y-11770667D02*
X10272333Y-11761143D01*
X10272333Y-11761143D02*
X10300905Y-11761143D01*
X10300905Y-11761143D02*
X10319952Y-11770667D01*
X10319952Y-11770667D02*
X10329476Y-11789714D01*
X10329476Y-11789714D02*
X10329476Y-11894476D01*
X10329476Y-11789714D02*
X10339000Y-11770667D01*
X10339000Y-11770667D02*
X10358048Y-11761143D01*
X10358048Y-11761143D02*
X10386619Y-11761143D01*
X10386619Y-11761143D02*
X10405667Y-11770667D01*
X10405667Y-11770667D02*
X10415191Y-11789714D01*
X10415191Y-11789714D02*
X10415191Y-11894476D01*
X10510429Y-11894476D02*
X10510429Y-11761143D01*
X10510429Y-11780190D02*
X10519952Y-11770667D01*
X10519952Y-11770667D02*
X10539000Y-11761143D01*
X10539000Y-11761143D02*
X10567572Y-11761143D01*
X10567572Y-11761143D02*
X10586619Y-11770667D01*
X10586619Y-11770667D02*
X10596143Y-11789714D01*
X10596143Y-11789714D02*
X10596143Y-11894476D01*
X10596143Y-11789714D02*
X10605667Y-11770667D01*
X10605667Y-11770667D02*
X10624714Y-11761143D01*
X10624714Y-11761143D02*
X10653286Y-11761143D01*
X10653286Y-11761143D02*
X10672333Y-11770667D01*
X10672333Y-11770667D02*
X10681857Y-11789714D01*
X10681857Y-11789714D02*
X10681857Y-11894476D01*
X11039952Y-11684952D02*
X10868524Y-11942095D01*
X11264714Y-11694476D02*
X11283762Y-11694476D01*
X11283762Y-11694476D02*
X11302810Y-11704000D01*
X11302810Y-11704000D02*
X11312333Y-11713524D01*
X11312333Y-11713524D02*
X11321857Y-11732571D01*
X11321857Y-11732571D02*
X11331381Y-11770667D01*
X11331381Y-11770667D02*
X11331381Y-11818286D01*
X11331381Y-11818286D02*
X11321857Y-11856381D01*
X11321857Y-11856381D02*
X11312333Y-11875428D01*
X11312333Y-11875428D02*
X11302810Y-11884952D01*
X11302810Y-11884952D02*
X11283762Y-11894476D01*
X11283762Y-11894476D02*
X11264714Y-11894476D01*
X11264714Y-11894476D02*
X11245667Y-11884952D01*
X11245667Y-11884952D02*
X11236143Y-11875428D01*
X11236143Y-11875428D02*
X11226619Y-11856381D01*
X11226619Y-11856381D02*
X11217095Y-11818286D01*
X11217095Y-11818286D02*
X11217095Y-11770667D01*
X11217095Y-11770667D02*
X11226619Y-11732571D01*
X11226619Y-11732571D02*
X11236143Y-11713524D01*
X11236143Y-11713524D02*
X11245667Y-11704000D01*
X11245667Y-11704000D02*
X11264714Y-11694476D01*
X11417095Y-11875428D02*
X11426619Y-11884952D01*
X11426619Y-11884952D02*
X11417095Y-11894476D01*
X11417095Y-11894476D02*
X11407571Y-11884952D01*
X11407571Y-11884952D02*
X11417095Y-11875428D01*
X11417095Y-11875428D02*
X11417095Y-11894476D01*
X11550429Y-11694476D02*
X11569476Y-11694476D01*
X11569476Y-11694476D02*
X11588524Y-11704000D01*
X11588524Y-11704000D02*
X11598048Y-11713524D01*
X11598048Y-11713524D02*
X11607571Y-11732571D01*
X11607571Y-11732571D02*
X11617095Y-11770667D01*
X11617095Y-11770667D02*
X11617095Y-11818286D01*
X11617095Y-11818286D02*
X11607571Y-11856381D01*
X11607571Y-11856381D02*
X11598048Y-11875428D01*
X11598048Y-11875428D02*
X11588524Y-11884952D01*
X11588524Y-11884952D02*
X11569476Y-11894476D01*
X11569476Y-11894476D02*
X11550429Y-11894476D01*
X11550429Y-11894476D02*
X11531381Y-11884952D01*
X11531381Y-11884952D02*
X11521857Y-11875428D01*
X11521857Y-11875428D02*
X11512333Y-11856381D01*
X11512333Y-11856381D02*
X11502810Y-11818286D01*
X11502810Y-11818286D02*
X11502810Y-11770667D01*
X11502810Y-11770667D02*
X11512333Y-11732571D01*
X11512333Y-11732571D02*
X11521857Y-11713524D01*
X11521857Y-11713524D02*
X11531381Y-11704000D01*
X11531381Y-11704000D02*
X11550429Y-11694476D01*
X11807571Y-11894476D02*
X11693286Y-11894476D01*
X11750429Y-11894476D02*
X11750429Y-11694476D01*
X11750429Y-11694476D02*
X11731381Y-11723048D01*
X11731381Y-11723048D02*
X11712333Y-11742095D01*
X11712333Y-11742095D02*
X11693286Y-11751619D01*
X11988524Y-11694476D02*
X11893286Y-11694476D01*
X11893286Y-11694476D02*
X11883762Y-11789714D01*
X11883762Y-11789714D02*
X11893286Y-11780190D01*
X11893286Y-11780190D02*
X11912333Y-11770667D01*
X11912333Y-11770667D02*
X11959952Y-11770667D01*
X11959952Y-11770667D02*
X11979000Y-11780190D01*
X11979000Y-11780190D02*
X11988524Y-11789714D01*
X11988524Y-11789714D02*
X11998048Y-11808762D01*
X11998048Y-11808762D02*
X11998048Y-11856381D01*
X11998048Y-11856381D02*
X11988524Y-11875428D01*
X11988524Y-11875428D02*
X11979000Y-11884952D01*
X11979000Y-11884952D02*
X11959952Y-11894476D01*
X11959952Y-11894476D02*
X11912333Y-11894476D01*
X11912333Y-11894476D02*
X11893286Y-11884952D01*
X11893286Y-11884952D02*
X11883762Y-11875428D01*
X12064714Y-11694476D02*
X12198048Y-11694476D01*
X12198048Y-11694476D02*
X12112333Y-11894476D01*
X12264714Y-11694476D02*
X12264714Y-11732571D01*
X12340905Y-11694476D02*
X12340905Y-11732571D01*
X12603762Y-11970667D02*
X12594238Y-11961143D01*
X12594238Y-11961143D02*
X12575191Y-11932571D01*
X12575191Y-11932571D02*
X12565667Y-11913524D01*
X12565667Y-11913524D02*
X12556143Y-11884952D01*
X12556143Y-11884952D02*
X12546619Y-11837333D01*
X12546619Y-11837333D02*
X12546619Y-11799238D01*
X12546619Y-11799238D02*
X12556143Y-11751619D01*
X12556143Y-11751619D02*
X12565667Y-11723048D01*
X12565667Y-11723048D02*
X12575191Y-11704000D01*
X12575191Y-11704000D02*
X12594238Y-11675428D01*
X12594238Y-11675428D02*
X12603762Y-11665905D01*
X12775191Y-11694476D02*
X12679952Y-11694476D01*
X12679952Y-11694476D02*
X12670429Y-11789714D01*
X12670429Y-11789714D02*
X12679952Y-11780190D01*
X12679952Y-11780190D02*
X12699000Y-11770667D01*
X12699000Y-11770667D02*
X12746619Y-11770667D01*
X12746619Y-11770667D02*
X12765667Y-11780190D01*
X12765667Y-11780190D02*
X12775191Y-11789714D01*
X12775191Y-11789714D02*
X12784714Y-11808762D01*
X12784714Y-11808762D02*
X12784714Y-11856381D01*
X12784714Y-11856381D02*
X12775191Y-11875428D01*
X12775191Y-11875428D02*
X12765667Y-11884952D01*
X12765667Y-11884952D02*
X12746619Y-11894476D01*
X12746619Y-11894476D02*
X12699000Y-11894476D01*
X12699000Y-11894476D02*
X12679952Y-11884952D01*
X12679952Y-11884952D02*
X12670429Y-11875428D01*
X12879952Y-11894476D02*
X12918048Y-11894476D01*
X12918048Y-11894476D02*
X12937095Y-11884952D01*
X12937095Y-11884952D02*
X12946619Y-11875428D01*
X12946619Y-11875428D02*
X12965667Y-11846857D01*
X12965667Y-11846857D02*
X12975191Y-11808762D01*
X12975191Y-11808762D02*
X12975191Y-11732571D01*
X12975191Y-11732571D02*
X12965667Y-11713524D01*
X12965667Y-11713524D02*
X12956143Y-11704000D01*
X12956143Y-11704000D02*
X12937095Y-11694476D01*
X12937095Y-11694476D02*
X12899000Y-11694476D01*
X12899000Y-11694476D02*
X12879952Y-11704000D01*
X12879952Y-11704000D02*
X12870429Y-11713524D01*
X12870429Y-11713524D02*
X12860905Y-11732571D01*
X12860905Y-11732571D02*
X12860905Y-11780190D01*
X12860905Y-11780190D02*
X12870429Y-11799238D01*
X12870429Y-11799238D02*
X12879952Y-11808762D01*
X12879952Y-11808762D02*
X12899000Y-11818286D01*
X12899000Y-11818286D02*
X12937095Y-11818286D01*
X12937095Y-11818286D02*
X12956143Y-11808762D01*
X12956143Y-11808762D02*
X12965667Y-11799238D01*
X12965667Y-11799238D02*
X12975191Y-11780190D01*
X13180905Y-11894476D02*
X13180905Y-11694476D01*
X13266619Y-11894476D02*
X13266619Y-11789714D01*
X13266619Y-11789714D02*
X13257095Y-11770667D01*
X13257095Y-11770667D02*
X13238048Y-11761143D01*
X13238048Y-11761143D02*
X13209476Y-11761143D01*
X13209476Y-11761143D02*
X13190429Y-11770667D01*
X13190429Y-11770667D02*
X13180905Y-11780190D01*
X13390429Y-11894476D02*
X13371381Y-11884952D01*
X13371381Y-11884952D02*
X13361857Y-11875428D01*
X13361857Y-11875428D02*
X13352333Y-11856381D01*
X13352333Y-11856381D02*
X13352333Y-11799238D01*
X13352333Y-11799238D02*
X13361857Y-11780190D01*
X13361857Y-11780190D02*
X13371381Y-11770667D01*
X13371381Y-11770667D02*
X13390429Y-11761143D01*
X13390429Y-11761143D02*
X13419000Y-11761143D01*
X13419000Y-11761143D02*
X13438048Y-11770667D01*
X13438048Y-11770667D02*
X13447572Y-11780190D01*
X13447572Y-11780190D02*
X13457095Y-11799238D01*
X13457095Y-11799238D02*
X13457095Y-11856381D01*
X13457095Y-11856381D02*
X13447572Y-11875428D01*
X13447572Y-11875428D02*
X13438048Y-11884952D01*
X13438048Y-11884952D02*
X13419000Y-11894476D01*
X13419000Y-11894476D02*
X13390429Y-11894476D01*
X13571381Y-11894476D02*
X13552333Y-11884952D01*
X13552333Y-11884952D02*
X13542810Y-11865905D01*
X13542810Y-11865905D02*
X13542810Y-11694476D01*
X13723762Y-11884952D02*
X13704714Y-11894476D01*
X13704714Y-11894476D02*
X13666619Y-11894476D01*
X13666619Y-11894476D02*
X13647572Y-11884952D01*
X13647572Y-11884952D02*
X13638048Y-11865905D01*
X13638048Y-11865905D02*
X13638048Y-11789714D01*
X13638048Y-11789714D02*
X13647572Y-11770667D01*
X13647572Y-11770667D02*
X13666619Y-11761143D01*
X13666619Y-11761143D02*
X13704714Y-11761143D01*
X13704714Y-11761143D02*
X13723762Y-11770667D01*
X13723762Y-11770667D02*
X13733286Y-11789714D01*
X13733286Y-11789714D02*
X13733286Y-11808762D01*
X13733286Y-11808762D02*
X13638048Y-11827809D01*
X13809476Y-11884952D02*
X13828524Y-11894476D01*
X13828524Y-11894476D02*
X13866619Y-11894476D01*
X13866619Y-11894476D02*
X13885667Y-11884952D01*
X13885667Y-11884952D02*
X13895191Y-11865905D01*
X13895191Y-11865905D02*
X13895191Y-11856381D01*
X13895191Y-11856381D02*
X13885667Y-11837333D01*
X13885667Y-11837333D02*
X13866619Y-11827809D01*
X13866619Y-11827809D02*
X13838048Y-11827809D01*
X13838048Y-11827809D02*
X13819000Y-11818286D01*
X13819000Y-11818286D02*
X13809476Y-11799238D01*
X13809476Y-11799238D02*
X13809476Y-11789714D01*
X13809476Y-11789714D02*
X13819000Y-11770667D01*
X13819000Y-11770667D02*
X13838048Y-11761143D01*
X13838048Y-11761143D02*
X13866619Y-11761143D01*
X13866619Y-11761143D02*
X13885667Y-11770667D01*
X13961857Y-11970667D02*
X13971381Y-11961143D01*
X13971381Y-11961143D02*
X13990429Y-11932571D01*
X13990429Y-11932571D02*
X13999953Y-11913524D01*
X13999953Y-11913524D02*
X14009476Y-11884952D01*
X14009476Y-11884952D02*
X14019000Y-11837333D01*
X14019000Y-11837333D02*
X14019000Y-11799238D01*
X14019000Y-11799238D02*
X14009476Y-11751619D01*
X14009476Y-11751619D02*
X13999953Y-11723048D01*
X13999953Y-11723048D02*
X13990429Y-11704000D01*
X13990429Y-11704000D02*
X13971381Y-11675428D01*
X13971381Y-11675428D02*
X13961857Y-11665905D01*
D13*
X9139000Y-12085000D02*
G75*
G03*
X9139000Y-12085000I-40000J0D01*
G01*
D11*
X9424714Y-11958476D02*
X9443762Y-11958476D01*
X9443762Y-11958476D02*
X9462810Y-11968000D01*
X9462810Y-11968000D02*
X9472333Y-11977524D01*
X9472333Y-11977524D02*
X9481857Y-11996571D01*
X9481857Y-11996571D02*
X9491381Y-12034667D01*
X9491381Y-12034667D02*
X9491381Y-12082286D01*
X9491381Y-12082286D02*
X9481857Y-12120381D01*
X9481857Y-12120381D02*
X9472333Y-12139428D01*
X9472333Y-12139428D02*
X9462810Y-12148952D01*
X9462810Y-12148952D02*
X9443762Y-12158476D01*
X9443762Y-12158476D02*
X9424714Y-12158476D01*
X9424714Y-12158476D02*
X9405667Y-12148952D01*
X9405667Y-12148952D02*
X9396143Y-12139428D01*
X9396143Y-12139428D02*
X9386619Y-12120381D01*
X9386619Y-12120381D02*
X9377095Y-12082286D01*
X9377095Y-12082286D02*
X9377095Y-12034667D01*
X9377095Y-12034667D02*
X9386619Y-11996571D01*
X9386619Y-11996571D02*
X9396143Y-11977524D01*
X9396143Y-11977524D02*
X9405667Y-11968000D01*
X9405667Y-11968000D02*
X9424714Y-11958476D01*
X9577095Y-12139428D02*
X9586619Y-12148952D01*
X9586619Y-12148952D02*
X9577095Y-12158476D01*
X9577095Y-12158476D02*
X9567571Y-12148952D01*
X9567571Y-12148952D02*
X9577095Y-12139428D01*
X9577095Y-12139428D02*
X9577095Y-12158476D01*
X9700905Y-12044190D02*
X9681857Y-12034667D01*
X9681857Y-12034667D02*
X9672333Y-12025143D01*
X9672333Y-12025143D02*
X9662810Y-12006095D01*
X9662810Y-12006095D02*
X9662810Y-11996571D01*
X9662810Y-11996571D02*
X9672333Y-11977524D01*
X9672333Y-11977524D02*
X9681857Y-11968000D01*
X9681857Y-11968000D02*
X9700905Y-11958476D01*
X9700905Y-11958476D02*
X9739000Y-11958476D01*
X9739000Y-11958476D02*
X9758048Y-11968000D01*
X9758048Y-11968000D02*
X9767571Y-11977524D01*
X9767571Y-11977524D02*
X9777095Y-11996571D01*
X9777095Y-11996571D02*
X9777095Y-12006095D01*
X9777095Y-12006095D02*
X9767571Y-12025143D01*
X9767571Y-12025143D02*
X9758048Y-12034667D01*
X9758048Y-12034667D02*
X9739000Y-12044190D01*
X9739000Y-12044190D02*
X9700905Y-12044190D01*
X9700905Y-12044190D02*
X9681857Y-12053714D01*
X9681857Y-12053714D02*
X9672333Y-12063238D01*
X9672333Y-12063238D02*
X9662810Y-12082286D01*
X9662810Y-12082286D02*
X9662810Y-12120381D01*
X9662810Y-12120381D02*
X9672333Y-12139428D01*
X9672333Y-12139428D02*
X9681857Y-12148952D01*
X9681857Y-12148952D02*
X9700905Y-12158476D01*
X9700905Y-12158476D02*
X9739000Y-12158476D01*
X9739000Y-12158476D02*
X9758048Y-12148952D01*
X9758048Y-12148952D02*
X9767571Y-12139428D01*
X9767571Y-12139428D02*
X9777095Y-12120381D01*
X9777095Y-12120381D02*
X9777095Y-12082286D01*
X9777095Y-12082286D02*
X9767571Y-12063238D01*
X9767571Y-12063238D02*
X9758048Y-12053714D01*
X9758048Y-12053714D02*
X9739000Y-12044190D01*
X9900905Y-11958476D02*
X9919952Y-11958476D01*
X9919952Y-11958476D02*
X9939000Y-11968000D01*
X9939000Y-11968000D02*
X9948524Y-11977524D01*
X9948524Y-11977524D02*
X9958048Y-11996571D01*
X9958048Y-11996571D02*
X9967571Y-12034667D01*
X9967571Y-12034667D02*
X9967571Y-12082286D01*
X9967571Y-12082286D02*
X9958048Y-12120381D01*
X9958048Y-12120381D02*
X9948524Y-12139428D01*
X9948524Y-12139428D02*
X9939000Y-12148952D01*
X9939000Y-12148952D02*
X9919952Y-12158476D01*
X9919952Y-12158476D02*
X9900905Y-12158476D01*
X9900905Y-12158476D02*
X9881857Y-12148952D01*
X9881857Y-12148952D02*
X9872333Y-12139428D01*
X9872333Y-12139428D02*
X9862810Y-12120381D01*
X9862810Y-12120381D02*
X9853286Y-12082286D01*
X9853286Y-12082286D02*
X9853286Y-12034667D01*
X9853286Y-12034667D02*
X9862810Y-11996571D01*
X9862810Y-11996571D02*
X9872333Y-11977524D01*
X9872333Y-11977524D02*
X9881857Y-11968000D01*
X9881857Y-11968000D02*
X9900905Y-11958476D01*
X10091381Y-11958476D02*
X10110429Y-11958476D01*
X10110429Y-11958476D02*
X10129476Y-11968000D01*
X10129476Y-11968000D02*
X10139000Y-11977524D01*
X10139000Y-11977524D02*
X10148524Y-11996571D01*
X10148524Y-11996571D02*
X10158048Y-12034667D01*
X10158048Y-12034667D02*
X10158048Y-12082286D01*
X10158048Y-12082286D02*
X10148524Y-12120381D01*
X10148524Y-12120381D02*
X10139000Y-12139428D01*
X10139000Y-12139428D02*
X10129476Y-12148952D01*
X10129476Y-12148952D02*
X10110429Y-12158476D01*
X10110429Y-12158476D02*
X10091381Y-12158476D01*
X10091381Y-12158476D02*
X10072333Y-12148952D01*
X10072333Y-12148952D02*
X10062810Y-12139428D01*
X10062810Y-12139428D02*
X10053286Y-12120381D01*
X10053286Y-12120381D02*
X10043762Y-12082286D01*
X10043762Y-12082286D02*
X10043762Y-12034667D01*
X10043762Y-12034667D02*
X10053286Y-11996571D01*
X10053286Y-11996571D02*
X10062810Y-11977524D01*
X10062810Y-11977524D02*
X10072333Y-11968000D01*
X10072333Y-11968000D02*
X10091381Y-11958476D01*
X10243762Y-12158476D02*
X10243762Y-12025143D01*
X10243762Y-12044190D02*
X10253286Y-12034667D01*
X10253286Y-12034667D02*
X10272333Y-12025143D01*
X10272333Y-12025143D02*
X10300905Y-12025143D01*
X10300905Y-12025143D02*
X10319952Y-12034667D01*
X10319952Y-12034667D02*
X10329476Y-12053714D01*
X10329476Y-12053714D02*
X10329476Y-12158476D01*
X10329476Y-12053714D02*
X10339000Y-12034667D01*
X10339000Y-12034667D02*
X10358048Y-12025143D01*
X10358048Y-12025143D02*
X10386619Y-12025143D01*
X10386619Y-12025143D02*
X10405667Y-12034667D01*
X10405667Y-12034667D02*
X10415191Y-12053714D01*
X10415191Y-12053714D02*
X10415191Y-12158476D01*
X10510429Y-12158476D02*
X10510429Y-12025143D01*
X10510429Y-12044190D02*
X10519952Y-12034667D01*
X10519952Y-12034667D02*
X10539000Y-12025143D01*
X10539000Y-12025143D02*
X10567572Y-12025143D01*
X10567572Y-12025143D02*
X10586619Y-12034667D01*
X10586619Y-12034667D02*
X10596143Y-12053714D01*
X10596143Y-12053714D02*
X10596143Y-12158476D01*
X10596143Y-12053714D02*
X10605667Y-12034667D01*
X10605667Y-12034667D02*
X10624714Y-12025143D01*
X10624714Y-12025143D02*
X10653286Y-12025143D01*
X10653286Y-12025143D02*
X10672333Y-12034667D01*
X10672333Y-12034667D02*
X10681857Y-12053714D01*
X10681857Y-12053714D02*
X10681857Y-12158476D01*
X11039952Y-11948952D02*
X10868524Y-12206095D01*
X11264714Y-11958476D02*
X11283762Y-11958476D01*
X11283762Y-11958476D02*
X11302810Y-11968000D01*
X11302810Y-11968000D02*
X11312333Y-11977524D01*
X11312333Y-11977524D02*
X11321857Y-11996571D01*
X11321857Y-11996571D02*
X11331381Y-12034667D01*
X11331381Y-12034667D02*
X11331381Y-12082286D01*
X11331381Y-12082286D02*
X11321857Y-12120381D01*
X11321857Y-12120381D02*
X11312333Y-12139428D01*
X11312333Y-12139428D02*
X11302810Y-12148952D01*
X11302810Y-12148952D02*
X11283762Y-12158476D01*
X11283762Y-12158476D02*
X11264714Y-12158476D01*
X11264714Y-12158476D02*
X11245667Y-12148952D01*
X11245667Y-12148952D02*
X11236143Y-12139428D01*
X11236143Y-12139428D02*
X11226619Y-12120381D01*
X11226619Y-12120381D02*
X11217095Y-12082286D01*
X11217095Y-12082286D02*
X11217095Y-12034667D01*
X11217095Y-12034667D02*
X11226619Y-11996571D01*
X11226619Y-11996571D02*
X11236143Y-11977524D01*
X11236143Y-11977524D02*
X11245667Y-11968000D01*
X11245667Y-11968000D02*
X11264714Y-11958476D01*
X11417095Y-12139428D02*
X11426619Y-12148952D01*
X11426619Y-12148952D02*
X11417095Y-12158476D01*
X11417095Y-12158476D02*
X11407571Y-12148952D01*
X11407571Y-12148952D02*
X11417095Y-12139428D01*
X11417095Y-12139428D02*
X11417095Y-12158476D01*
X11550429Y-11958476D02*
X11569476Y-11958476D01*
X11569476Y-11958476D02*
X11588524Y-11968000D01*
X11588524Y-11968000D02*
X11598048Y-11977524D01*
X11598048Y-11977524D02*
X11607571Y-11996571D01*
X11607571Y-11996571D02*
X11617095Y-12034667D01*
X11617095Y-12034667D02*
X11617095Y-12082286D01*
X11617095Y-12082286D02*
X11607571Y-12120381D01*
X11607571Y-12120381D02*
X11598048Y-12139428D01*
X11598048Y-12139428D02*
X11588524Y-12148952D01*
X11588524Y-12148952D02*
X11569476Y-12158476D01*
X11569476Y-12158476D02*
X11550429Y-12158476D01*
X11550429Y-12158476D02*
X11531381Y-12148952D01*
X11531381Y-12148952D02*
X11521857Y-12139428D01*
X11521857Y-12139428D02*
X11512333Y-12120381D01*
X11512333Y-12120381D02*
X11502810Y-12082286D01*
X11502810Y-12082286D02*
X11502810Y-12034667D01*
X11502810Y-12034667D02*
X11512333Y-11996571D01*
X11512333Y-11996571D02*
X11521857Y-11977524D01*
X11521857Y-11977524D02*
X11531381Y-11968000D01*
X11531381Y-11968000D02*
X11550429Y-11958476D01*
X11683762Y-11958476D02*
X11807571Y-11958476D01*
X11807571Y-11958476D02*
X11740905Y-12034667D01*
X11740905Y-12034667D02*
X11769476Y-12034667D01*
X11769476Y-12034667D02*
X11788524Y-12044190D01*
X11788524Y-12044190D02*
X11798048Y-12053714D01*
X11798048Y-12053714D02*
X11807571Y-12072762D01*
X11807571Y-12072762D02*
X11807571Y-12120381D01*
X11807571Y-12120381D02*
X11798048Y-12139428D01*
X11798048Y-12139428D02*
X11788524Y-12148952D01*
X11788524Y-12148952D02*
X11769476Y-12158476D01*
X11769476Y-12158476D02*
X11712333Y-12158476D01*
X11712333Y-12158476D02*
X11693286Y-12148952D01*
X11693286Y-12148952D02*
X11683762Y-12139428D01*
X11998048Y-12158476D02*
X11883762Y-12158476D01*
X11940905Y-12158476D02*
X11940905Y-11958476D01*
X11940905Y-11958476D02*
X11921857Y-11987048D01*
X11921857Y-11987048D02*
X11902810Y-12006095D01*
X11902810Y-12006095D02*
X11883762Y-12015619D01*
X12179000Y-11958476D02*
X12083762Y-11958476D01*
X12083762Y-11958476D02*
X12074238Y-12053714D01*
X12074238Y-12053714D02*
X12083762Y-12044190D01*
X12083762Y-12044190D02*
X12102810Y-12034667D01*
X12102810Y-12034667D02*
X12150429Y-12034667D01*
X12150429Y-12034667D02*
X12169476Y-12044190D01*
X12169476Y-12044190D02*
X12179000Y-12053714D01*
X12179000Y-12053714D02*
X12188524Y-12072762D01*
X12188524Y-12072762D02*
X12188524Y-12120381D01*
X12188524Y-12120381D02*
X12179000Y-12139428D01*
X12179000Y-12139428D02*
X12169476Y-12148952D01*
X12169476Y-12148952D02*
X12150429Y-12158476D01*
X12150429Y-12158476D02*
X12102810Y-12158476D01*
X12102810Y-12158476D02*
X12083762Y-12148952D01*
X12083762Y-12148952D02*
X12074238Y-12139428D01*
X12264714Y-11958476D02*
X12264714Y-11996571D01*
X12340905Y-11958476D02*
X12340905Y-11996571D01*
X12603762Y-12234667D02*
X12594238Y-12225143D01*
X12594238Y-12225143D02*
X12575191Y-12196571D01*
X12575191Y-12196571D02*
X12565667Y-12177524D01*
X12565667Y-12177524D02*
X12556143Y-12148952D01*
X12556143Y-12148952D02*
X12546619Y-12101333D01*
X12546619Y-12101333D02*
X12546619Y-12063238D01*
X12546619Y-12063238D02*
X12556143Y-12015619D01*
X12556143Y-12015619D02*
X12565667Y-11987048D01*
X12565667Y-11987048D02*
X12575191Y-11968000D01*
X12575191Y-11968000D02*
X12594238Y-11939428D01*
X12594238Y-11939428D02*
X12603762Y-11929905D01*
X12784714Y-12158476D02*
X12670429Y-12158476D01*
X12727571Y-12158476D02*
X12727571Y-11958476D01*
X12727571Y-11958476D02*
X12708524Y-11987048D01*
X12708524Y-11987048D02*
X12689476Y-12006095D01*
X12689476Y-12006095D02*
X12670429Y-12015619D01*
X12860905Y-11977524D02*
X12870429Y-11968000D01*
X12870429Y-11968000D02*
X12889476Y-11958476D01*
X12889476Y-11958476D02*
X12937095Y-11958476D01*
X12937095Y-11958476D02*
X12956143Y-11968000D01*
X12956143Y-11968000D02*
X12965667Y-11977524D01*
X12965667Y-11977524D02*
X12975191Y-11996571D01*
X12975191Y-11996571D02*
X12975191Y-12015619D01*
X12975191Y-12015619D02*
X12965667Y-12044190D01*
X12965667Y-12044190D02*
X12851381Y-12158476D01*
X12851381Y-12158476D02*
X12975191Y-12158476D01*
X13146619Y-12025143D02*
X13146619Y-12158476D01*
X13099000Y-11948952D02*
X13051381Y-12091809D01*
X13051381Y-12091809D02*
X13175191Y-12091809D01*
X13371381Y-12158476D02*
X13371381Y-11958476D01*
X13457095Y-12158476D02*
X13457095Y-12053714D01*
X13457095Y-12053714D02*
X13447572Y-12034667D01*
X13447572Y-12034667D02*
X13428524Y-12025143D01*
X13428524Y-12025143D02*
X13399952Y-12025143D01*
X13399952Y-12025143D02*
X13380905Y-12034667D01*
X13380905Y-12034667D02*
X13371381Y-12044190D01*
X13580905Y-12158476D02*
X13561857Y-12148952D01*
X13561857Y-12148952D02*
X13552333Y-12139428D01*
X13552333Y-12139428D02*
X13542810Y-12120381D01*
X13542810Y-12120381D02*
X13542810Y-12063238D01*
X13542810Y-12063238D02*
X13552333Y-12044190D01*
X13552333Y-12044190D02*
X13561857Y-12034667D01*
X13561857Y-12034667D02*
X13580905Y-12025143D01*
X13580905Y-12025143D02*
X13609476Y-12025143D01*
X13609476Y-12025143D02*
X13628524Y-12034667D01*
X13628524Y-12034667D02*
X13638048Y-12044190D01*
X13638048Y-12044190D02*
X13647572Y-12063238D01*
X13647572Y-12063238D02*
X13647572Y-12120381D01*
X13647572Y-12120381D02*
X13638048Y-12139428D01*
X13638048Y-12139428D02*
X13628524Y-12148952D01*
X13628524Y-12148952D02*
X13609476Y-12158476D01*
X13609476Y-12158476D02*
X13580905Y-12158476D01*
X13761857Y-12158476D02*
X13742810Y-12148952D01*
X13742810Y-12148952D02*
X13733286Y-12129905D01*
X13733286Y-12129905D02*
X13733286Y-11958476D01*
X13914238Y-12148952D02*
X13895191Y-12158476D01*
X13895191Y-12158476D02*
X13857095Y-12158476D01*
X13857095Y-12158476D02*
X13838048Y-12148952D01*
X13838048Y-12148952D02*
X13828524Y-12129905D01*
X13828524Y-12129905D02*
X13828524Y-12053714D01*
X13828524Y-12053714D02*
X13838048Y-12034667D01*
X13838048Y-12034667D02*
X13857095Y-12025143D01*
X13857095Y-12025143D02*
X13895191Y-12025143D01*
X13895191Y-12025143D02*
X13914238Y-12034667D01*
X13914238Y-12034667D02*
X13923762Y-12053714D01*
X13923762Y-12053714D02*
X13923762Y-12072762D01*
X13923762Y-12072762D02*
X13828524Y-12091809D01*
X13999953Y-12148952D02*
X14019000Y-12158476D01*
X14019000Y-12158476D02*
X14057095Y-12158476D01*
X14057095Y-12158476D02*
X14076143Y-12148952D01*
X14076143Y-12148952D02*
X14085667Y-12129905D01*
X14085667Y-12129905D02*
X14085667Y-12120381D01*
X14085667Y-12120381D02*
X14076143Y-12101333D01*
X14076143Y-12101333D02*
X14057095Y-12091809D01*
X14057095Y-12091809D02*
X14028524Y-12091809D01*
X14028524Y-12091809D02*
X14009476Y-12082286D01*
X14009476Y-12082286D02*
X13999953Y-12063238D01*
X13999953Y-12063238D02*
X13999953Y-12053714D01*
X13999953Y-12053714D02*
X14009476Y-12034667D01*
X14009476Y-12034667D02*
X14028524Y-12025143D01*
X14028524Y-12025143D02*
X14057095Y-12025143D01*
X14057095Y-12025143D02*
X14076143Y-12034667D01*
X14152334Y-12234667D02*
X14161857Y-12225143D01*
X14161857Y-12225143D02*
X14180905Y-12196571D01*
X14180905Y-12196571D02*
X14190429Y-12177524D01*
X14190429Y-12177524D02*
X14199953Y-12148952D01*
X14199953Y-12148952D02*
X14209476Y-12101333D01*
X14209476Y-12101333D02*
X14209476Y-12063238D01*
X14209476Y-12063238D02*
X14199953Y-12015619D01*
X14199953Y-12015619D02*
X14190429Y-11987048D01*
X14190429Y-11987048D02*
X14180905Y-11968000D01*
X14180905Y-11968000D02*
X14161857Y-11939428D01*
X14161857Y-11939428D02*
X14152334Y-11929905D01*
D14*
X9094000Y-12304000D02*
X9094000Y-12394000D01*
X9049000Y-12349000D02*
X9139000Y-12349000D01*
D11*
X9424714Y-12222476D02*
X9443762Y-12222476D01*
X9443762Y-12222476D02*
X9462810Y-12232000D01*
X9462810Y-12232000D02*
X9472333Y-12241524D01*
X9472333Y-12241524D02*
X9481857Y-12260571D01*
X9481857Y-12260571D02*
X9491381Y-12298667D01*
X9491381Y-12298667D02*
X9491381Y-12346286D01*
X9491381Y-12346286D02*
X9481857Y-12384381D01*
X9481857Y-12384381D02*
X9472333Y-12403428D01*
X9472333Y-12403428D02*
X9462810Y-12412952D01*
X9462810Y-12412952D02*
X9443762Y-12422476D01*
X9443762Y-12422476D02*
X9424714Y-12422476D01*
X9424714Y-12422476D02*
X9405667Y-12412952D01*
X9405667Y-12412952D02*
X9396143Y-12403428D01*
X9396143Y-12403428D02*
X9386619Y-12384381D01*
X9386619Y-12384381D02*
X9377095Y-12346286D01*
X9377095Y-12346286D02*
X9377095Y-12298667D01*
X9377095Y-12298667D02*
X9386619Y-12260571D01*
X9386619Y-12260571D02*
X9396143Y-12241524D01*
X9396143Y-12241524D02*
X9405667Y-12232000D01*
X9405667Y-12232000D02*
X9424714Y-12222476D01*
X9577095Y-12403428D02*
X9586619Y-12412952D01*
X9586619Y-12412952D02*
X9577095Y-12422476D01*
X9577095Y-12422476D02*
X9567571Y-12412952D01*
X9567571Y-12412952D02*
X9577095Y-12403428D01*
X9577095Y-12403428D02*
X9577095Y-12422476D01*
X9681857Y-12422476D02*
X9719952Y-12422476D01*
X9719952Y-12422476D02*
X9739000Y-12412952D01*
X9739000Y-12412952D02*
X9748524Y-12403428D01*
X9748524Y-12403428D02*
X9767571Y-12374857D01*
X9767571Y-12374857D02*
X9777095Y-12336762D01*
X9777095Y-12336762D02*
X9777095Y-12260571D01*
X9777095Y-12260571D02*
X9767571Y-12241524D01*
X9767571Y-12241524D02*
X9758048Y-12232000D01*
X9758048Y-12232000D02*
X9739000Y-12222476D01*
X9739000Y-12222476D02*
X9700905Y-12222476D01*
X9700905Y-12222476D02*
X9681857Y-12232000D01*
X9681857Y-12232000D02*
X9672333Y-12241524D01*
X9672333Y-12241524D02*
X9662810Y-12260571D01*
X9662810Y-12260571D02*
X9662810Y-12308190D01*
X9662810Y-12308190D02*
X9672333Y-12327238D01*
X9672333Y-12327238D02*
X9681857Y-12336762D01*
X9681857Y-12336762D02*
X9700905Y-12346286D01*
X9700905Y-12346286D02*
X9739000Y-12346286D01*
X9739000Y-12346286D02*
X9758048Y-12336762D01*
X9758048Y-12336762D02*
X9767571Y-12327238D01*
X9767571Y-12327238D02*
X9777095Y-12308190D01*
X9900905Y-12222476D02*
X9919952Y-12222476D01*
X9919952Y-12222476D02*
X9939000Y-12232000D01*
X9939000Y-12232000D02*
X9948524Y-12241524D01*
X9948524Y-12241524D02*
X9958048Y-12260571D01*
X9958048Y-12260571D02*
X9967571Y-12298667D01*
X9967571Y-12298667D02*
X9967571Y-12346286D01*
X9967571Y-12346286D02*
X9958048Y-12384381D01*
X9958048Y-12384381D02*
X9948524Y-12403428D01*
X9948524Y-12403428D02*
X9939000Y-12412952D01*
X9939000Y-12412952D02*
X9919952Y-12422476D01*
X9919952Y-12422476D02*
X9900905Y-12422476D01*
X9900905Y-12422476D02*
X9881857Y-12412952D01*
X9881857Y-12412952D02*
X9872333Y-12403428D01*
X9872333Y-12403428D02*
X9862810Y-12384381D01*
X9862810Y-12384381D02*
X9853286Y-12346286D01*
X9853286Y-12346286D02*
X9853286Y-12298667D01*
X9853286Y-12298667D02*
X9862810Y-12260571D01*
X9862810Y-12260571D02*
X9872333Y-12241524D01*
X9872333Y-12241524D02*
X9881857Y-12232000D01*
X9881857Y-12232000D02*
X9900905Y-12222476D01*
X10091381Y-12222476D02*
X10110429Y-12222476D01*
X10110429Y-12222476D02*
X10129476Y-12232000D01*
X10129476Y-12232000D02*
X10139000Y-12241524D01*
X10139000Y-12241524D02*
X10148524Y-12260571D01*
X10148524Y-12260571D02*
X10158048Y-12298667D01*
X10158048Y-12298667D02*
X10158048Y-12346286D01*
X10158048Y-12346286D02*
X10148524Y-12384381D01*
X10148524Y-12384381D02*
X10139000Y-12403428D01*
X10139000Y-12403428D02*
X10129476Y-12412952D01*
X10129476Y-12412952D02*
X10110429Y-12422476D01*
X10110429Y-12422476D02*
X10091381Y-12422476D01*
X10091381Y-12422476D02*
X10072333Y-12412952D01*
X10072333Y-12412952D02*
X10062810Y-12403428D01*
X10062810Y-12403428D02*
X10053286Y-12384381D01*
X10053286Y-12384381D02*
X10043762Y-12346286D01*
X10043762Y-12346286D02*
X10043762Y-12298667D01*
X10043762Y-12298667D02*
X10053286Y-12260571D01*
X10053286Y-12260571D02*
X10062810Y-12241524D01*
X10062810Y-12241524D02*
X10072333Y-12232000D01*
X10072333Y-12232000D02*
X10091381Y-12222476D01*
X10243762Y-12422476D02*
X10243762Y-12289143D01*
X10243762Y-12308190D02*
X10253286Y-12298667D01*
X10253286Y-12298667D02*
X10272333Y-12289143D01*
X10272333Y-12289143D02*
X10300905Y-12289143D01*
X10300905Y-12289143D02*
X10319952Y-12298667D01*
X10319952Y-12298667D02*
X10329476Y-12317714D01*
X10329476Y-12317714D02*
X10329476Y-12422476D01*
X10329476Y-12317714D02*
X10339000Y-12298667D01*
X10339000Y-12298667D02*
X10358048Y-12289143D01*
X10358048Y-12289143D02*
X10386619Y-12289143D01*
X10386619Y-12289143D02*
X10405667Y-12298667D01*
X10405667Y-12298667D02*
X10415191Y-12317714D01*
X10415191Y-12317714D02*
X10415191Y-12422476D01*
X10510429Y-12422476D02*
X10510429Y-12289143D01*
X10510429Y-12308190D02*
X10519952Y-12298667D01*
X10519952Y-12298667D02*
X10539000Y-12289143D01*
X10539000Y-12289143D02*
X10567572Y-12289143D01*
X10567572Y-12289143D02*
X10586619Y-12298667D01*
X10586619Y-12298667D02*
X10596143Y-12317714D01*
X10596143Y-12317714D02*
X10596143Y-12422476D01*
X10596143Y-12317714D02*
X10605667Y-12298667D01*
X10605667Y-12298667D02*
X10624714Y-12289143D01*
X10624714Y-12289143D02*
X10653286Y-12289143D01*
X10653286Y-12289143D02*
X10672333Y-12298667D01*
X10672333Y-12298667D02*
X10681857Y-12317714D01*
X10681857Y-12317714D02*
X10681857Y-12422476D01*
X11039952Y-12212952D02*
X10868524Y-12470095D01*
X11264714Y-12222476D02*
X11283762Y-12222476D01*
X11283762Y-12222476D02*
X11302810Y-12232000D01*
X11302810Y-12232000D02*
X11312333Y-12241524D01*
X11312333Y-12241524D02*
X11321857Y-12260571D01*
X11321857Y-12260571D02*
X11331381Y-12298667D01*
X11331381Y-12298667D02*
X11331381Y-12346286D01*
X11331381Y-12346286D02*
X11321857Y-12384381D01*
X11321857Y-12384381D02*
X11312333Y-12403428D01*
X11312333Y-12403428D02*
X11302810Y-12412952D01*
X11302810Y-12412952D02*
X11283762Y-12422476D01*
X11283762Y-12422476D02*
X11264714Y-12422476D01*
X11264714Y-12422476D02*
X11245667Y-12412952D01*
X11245667Y-12412952D02*
X11236143Y-12403428D01*
X11236143Y-12403428D02*
X11226619Y-12384381D01*
X11226619Y-12384381D02*
X11217095Y-12346286D01*
X11217095Y-12346286D02*
X11217095Y-12298667D01*
X11217095Y-12298667D02*
X11226619Y-12260571D01*
X11226619Y-12260571D02*
X11236143Y-12241524D01*
X11236143Y-12241524D02*
X11245667Y-12232000D01*
X11245667Y-12232000D02*
X11264714Y-12222476D01*
X11417095Y-12403428D02*
X11426619Y-12412952D01*
X11426619Y-12412952D02*
X11417095Y-12422476D01*
X11417095Y-12422476D02*
X11407571Y-12412952D01*
X11407571Y-12412952D02*
X11417095Y-12403428D01*
X11417095Y-12403428D02*
X11417095Y-12422476D01*
X11550429Y-12222476D02*
X11569476Y-12222476D01*
X11569476Y-12222476D02*
X11588524Y-12232000D01*
X11588524Y-12232000D02*
X11598048Y-12241524D01*
X11598048Y-12241524D02*
X11607571Y-12260571D01*
X11607571Y-12260571D02*
X11617095Y-12298667D01*
X11617095Y-12298667D02*
X11617095Y-12346286D01*
X11617095Y-12346286D02*
X11607571Y-12384381D01*
X11607571Y-12384381D02*
X11598048Y-12403428D01*
X11598048Y-12403428D02*
X11588524Y-12412952D01*
X11588524Y-12412952D02*
X11569476Y-12422476D01*
X11569476Y-12422476D02*
X11550429Y-12422476D01*
X11550429Y-12422476D02*
X11531381Y-12412952D01*
X11531381Y-12412952D02*
X11521857Y-12403428D01*
X11521857Y-12403428D02*
X11512333Y-12384381D01*
X11512333Y-12384381D02*
X11502810Y-12346286D01*
X11502810Y-12346286D02*
X11502810Y-12298667D01*
X11502810Y-12298667D02*
X11512333Y-12260571D01*
X11512333Y-12260571D02*
X11521857Y-12241524D01*
X11521857Y-12241524D02*
X11531381Y-12232000D01*
X11531381Y-12232000D02*
X11550429Y-12222476D01*
X11683762Y-12222476D02*
X11807571Y-12222476D01*
X11807571Y-12222476D02*
X11740905Y-12298667D01*
X11740905Y-12298667D02*
X11769476Y-12298667D01*
X11769476Y-12298667D02*
X11788524Y-12308190D01*
X11788524Y-12308190D02*
X11798048Y-12317714D01*
X11798048Y-12317714D02*
X11807571Y-12336762D01*
X11807571Y-12336762D02*
X11807571Y-12384381D01*
X11807571Y-12384381D02*
X11798048Y-12403428D01*
X11798048Y-12403428D02*
X11788524Y-12412952D01*
X11788524Y-12412952D02*
X11769476Y-12422476D01*
X11769476Y-12422476D02*
X11712333Y-12422476D01*
X11712333Y-12422476D02*
X11693286Y-12412952D01*
X11693286Y-12412952D02*
X11683762Y-12403428D01*
X11988524Y-12222476D02*
X11893286Y-12222476D01*
X11893286Y-12222476D02*
X11883762Y-12317714D01*
X11883762Y-12317714D02*
X11893286Y-12308190D01*
X11893286Y-12308190D02*
X11912333Y-12298667D01*
X11912333Y-12298667D02*
X11959952Y-12298667D01*
X11959952Y-12298667D02*
X11979000Y-12308190D01*
X11979000Y-12308190D02*
X11988524Y-12317714D01*
X11988524Y-12317714D02*
X11998048Y-12336762D01*
X11998048Y-12336762D02*
X11998048Y-12384381D01*
X11998048Y-12384381D02*
X11988524Y-12403428D01*
X11988524Y-12403428D02*
X11979000Y-12412952D01*
X11979000Y-12412952D02*
X11959952Y-12422476D01*
X11959952Y-12422476D02*
X11912333Y-12422476D01*
X11912333Y-12422476D02*
X11893286Y-12412952D01*
X11893286Y-12412952D02*
X11883762Y-12403428D01*
X12169476Y-12289143D02*
X12169476Y-12422476D01*
X12121857Y-12212952D02*
X12074238Y-12355809D01*
X12074238Y-12355809D02*
X12198048Y-12355809D01*
X12264714Y-12222476D02*
X12264714Y-12260571D01*
X12340905Y-12222476D02*
X12340905Y-12260571D01*
X12603762Y-12498667D02*
X12594238Y-12489143D01*
X12594238Y-12489143D02*
X12575191Y-12460571D01*
X12575191Y-12460571D02*
X12565667Y-12441524D01*
X12565667Y-12441524D02*
X12556143Y-12412952D01*
X12556143Y-12412952D02*
X12546619Y-12365333D01*
X12546619Y-12365333D02*
X12546619Y-12327238D01*
X12546619Y-12327238D02*
X12556143Y-12279619D01*
X12556143Y-12279619D02*
X12565667Y-12251048D01*
X12565667Y-12251048D02*
X12575191Y-12232000D01*
X12575191Y-12232000D02*
X12594238Y-12203428D01*
X12594238Y-12203428D02*
X12603762Y-12193905D01*
X12660905Y-12222476D02*
X12784714Y-12222476D01*
X12784714Y-12222476D02*
X12718048Y-12298667D01*
X12718048Y-12298667D02*
X12746619Y-12298667D01*
X12746619Y-12298667D02*
X12765667Y-12308190D01*
X12765667Y-12308190D02*
X12775191Y-12317714D01*
X12775191Y-12317714D02*
X12784714Y-12336762D01*
X12784714Y-12336762D02*
X12784714Y-12384381D01*
X12784714Y-12384381D02*
X12775191Y-12403428D01*
X12775191Y-12403428D02*
X12765667Y-12412952D01*
X12765667Y-12412952D02*
X12746619Y-12422476D01*
X12746619Y-12422476D02*
X12689476Y-12422476D01*
X12689476Y-12422476D02*
X12670429Y-12412952D01*
X12670429Y-12412952D02*
X12660905Y-12403428D01*
X12860905Y-12241524D02*
X12870429Y-12232000D01*
X12870429Y-12232000D02*
X12889476Y-12222476D01*
X12889476Y-12222476D02*
X12937095Y-12222476D01*
X12937095Y-12222476D02*
X12956143Y-12232000D01*
X12956143Y-12232000D02*
X12965667Y-12241524D01*
X12965667Y-12241524D02*
X12975191Y-12260571D01*
X12975191Y-12260571D02*
X12975191Y-12279619D01*
X12975191Y-12279619D02*
X12965667Y-12308190D01*
X12965667Y-12308190D02*
X12851381Y-12422476D01*
X12851381Y-12422476D02*
X12975191Y-12422476D01*
X13180905Y-12422476D02*
X13180905Y-12222476D01*
X13266619Y-12422476D02*
X13266619Y-12317714D01*
X13266619Y-12317714D02*
X13257095Y-12298667D01*
X13257095Y-12298667D02*
X13238048Y-12289143D01*
X13238048Y-12289143D02*
X13209476Y-12289143D01*
X13209476Y-12289143D02*
X13190429Y-12298667D01*
X13190429Y-12298667D02*
X13180905Y-12308190D01*
X13390429Y-12422476D02*
X13371381Y-12412952D01*
X13371381Y-12412952D02*
X13361857Y-12403428D01*
X13361857Y-12403428D02*
X13352333Y-12384381D01*
X13352333Y-12384381D02*
X13352333Y-12327238D01*
X13352333Y-12327238D02*
X13361857Y-12308190D01*
X13361857Y-12308190D02*
X13371381Y-12298667D01*
X13371381Y-12298667D02*
X13390429Y-12289143D01*
X13390429Y-12289143D02*
X13419000Y-12289143D01*
X13419000Y-12289143D02*
X13438048Y-12298667D01*
X13438048Y-12298667D02*
X13447572Y-12308190D01*
X13447572Y-12308190D02*
X13457095Y-12327238D01*
X13457095Y-12327238D02*
X13457095Y-12384381D01*
X13457095Y-12384381D02*
X13447572Y-12403428D01*
X13447572Y-12403428D02*
X13438048Y-12412952D01*
X13438048Y-12412952D02*
X13419000Y-12422476D01*
X13419000Y-12422476D02*
X13390429Y-12422476D01*
X13571381Y-12422476D02*
X13552333Y-12412952D01*
X13552333Y-12412952D02*
X13542810Y-12393905D01*
X13542810Y-12393905D02*
X13542810Y-12222476D01*
X13723762Y-12412952D02*
X13704714Y-12422476D01*
X13704714Y-12422476D02*
X13666619Y-12422476D01*
X13666619Y-12422476D02*
X13647572Y-12412952D01*
X13647572Y-12412952D02*
X13638048Y-12393905D01*
X13638048Y-12393905D02*
X13638048Y-12317714D01*
X13638048Y-12317714D02*
X13647572Y-12298667D01*
X13647572Y-12298667D02*
X13666619Y-12289143D01*
X13666619Y-12289143D02*
X13704714Y-12289143D01*
X13704714Y-12289143D02*
X13723762Y-12298667D01*
X13723762Y-12298667D02*
X13733286Y-12317714D01*
X13733286Y-12317714D02*
X13733286Y-12336762D01*
X13733286Y-12336762D02*
X13638048Y-12355809D01*
X13809476Y-12412952D02*
X13828524Y-12422476D01*
X13828524Y-12422476D02*
X13866619Y-12422476D01*
X13866619Y-12422476D02*
X13885667Y-12412952D01*
X13885667Y-12412952D02*
X13895191Y-12393905D01*
X13895191Y-12393905D02*
X13895191Y-12384381D01*
X13895191Y-12384381D02*
X13885667Y-12365333D01*
X13885667Y-12365333D02*
X13866619Y-12355809D01*
X13866619Y-12355809D02*
X13838048Y-12355809D01*
X13838048Y-12355809D02*
X13819000Y-12346286D01*
X13819000Y-12346286D02*
X13809476Y-12327238D01*
X13809476Y-12327238D02*
X13809476Y-12317714D01*
X13809476Y-12317714D02*
X13819000Y-12298667D01*
X13819000Y-12298667D02*
X13838048Y-12289143D01*
X13838048Y-12289143D02*
X13866619Y-12289143D01*
X13866619Y-12289143D02*
X13885667Y-12298667D01*
X13961857Y-12498667D02*
X13971381Y-12489143D01*
X13971381Y-12489143D02*
X13990429Y-12460571D01*
X13990429Y-12460571D02*
X13999953Y-12441524D01*
X13999953Y-12441524D02*
X14009476Y-12412952D01*
X14009476Y-12412952D02*
X14019000Y-12365333D01*
X14019000Y-12365333D02*
X14019000Y-12327238D01*
X14019000Y-12327238D02*
X14009476Y-12279619D01*
X14009476Y-12279619D02*
X13999953Y-12251048D01*
X13999953Y-12251048D02*
X13990429Y-12232000D01*
X13990429Y-12232000D02*
X13971381Y-12203428D01*
X13971381Y-12203428D02*
X13961857Y-12193905D01*
D10*
X9124356Y-12648356D02*
X9124356Y-12577644D01*
X9053644Y-12577644D01*
X9053644Y-12648356D01*
X9124356Y-12648356D01*
D11*
X9491381Y-12686476D02*
X9377095Y-12686476D01*
X9434238Y-12686476D02*
X9434238Y-12486476D01*
X9434238Y-12486476D02*
X9415190Y-12515048D01*
X9415190Y-12515048D02*
X9396143Y-12534095D01*
X9396143Y-12534095D02*
X9377095Y-12543619D01*
X9577095Y-12667428D02*
X9586619Y-12676952D01*
X9586619Y-12676952D02*
X9577095Y-12686476D01*
X9577095Y-12686476D02*
X9567571Y-12676952D01*
X9567571Y-12676952D02*
X9577095Y-12667428D01*
X9577095Y-12667428D02*
X9577095Y-12686476D01*
X9710429Y-12486476D02*
X9729476Y-12486476D01*
X9729476Y-12486476D02*
X9748524Y-12496000D01*
X9748524Y-12496000D02*
X9758048Y-12505524D01*
X9758048Y-12505524D02*
X9767571Y-12524571D01*
X9767571Y-12524571D02*
X9777095Y-12562667D01*
X9777095Y-12562667D02*
X9777095Y-12610286D01*
X9777095Y-12610286D02*
X9767571Y-12648381D01*
X9767571Y-12648381D02*
X9758048Y-12667428D01*
X9758048Y-12667428D02*
X9748524Y-12676952D01*
X9748524Y-12676952D02*
X9729476Y-12686476D01*
X9729476Y-12686476D02*
X9710429Y-12686476D01*
X9710429Y-12686476D02*
X9691381Y-12676952D01*
X9691381Y-12676952D02*
X9681857Y-12667428D01*
X9681857Y-12667428D02*
X9672333Y-12648381D01*
X9672333Y-12648381D02*
X9662810Y-12610286D01*
X9662810Y-12610286D02*
X9662810Y-12562667D01*
X9662810Y-12562667D02*
X9672333Y-12524571D01*
X9672333Y-12524571D02*
X9681857Y-12505524D01*
X9681857Y-12505524D02*
X9691381Y-12496000D01*
X9691381Y-12496000D02*
X9710429Y-12486476D01*
X9900905Y-12486476D02*
X9919952Y-12486476D01*
X9919952Y-12486476D02*
X9939000Y-12496000D01*
X9939000Y-12496000D02*
X9948524Y-12505524D01*
X9948524Y-12505524D02*
X9958048Y-12524571D01*
X9958048Y-12524571D02*
X9967571Y-12562667D01*
X9967571Y-12562667D02*
X9967571Y-12610286D01*
X9967571Y-12610286D02*
X9958048Y-12648381D01*
X9958048Y-12648381D02*
X9948524Y-12667428D01*
X9948524Y-12667428D02*
X9939000Y-12676952D01*
X9939000Y-12676952D02*
X9919952Y-12686476D01*
X9919952Y-12686476D02*
X9900905Y-12686476D01*
X9900905Y-12686476D02*
X9881857Y-12676952D01*
X9881857Y-12676952D02*
X9872333Y-12667428D01*
X9872333Y-12667428D02*
X9862810Y-12648381D01*
X9862810Y-12648381D02*
X9853286Y-12610286D01*
X9853286Y-12610286D02*
X9853286Y-12562667D01*
X9853286Y-12562667D02*
X9862810Y-12524571D01*
X9862810Y-12524571D02*
X9872333Y-12505524D01*
X9872333Y-12505524D02*
X9881857Y-12496000D01*
X9881857Y-12496000D02*
X9900905Y-12486476D01*
X10091381Y-12486476D02*
X10110429Y-12486476D01*
X10110429Y-12486476D02*
X10129476Y-12496000D01*
X10129476Y-12496000D02*
X10139000Y-12505524D01*
X10139000Y-12505524D02*
X10148524Y-12524571D01*
X10148524Y-12524571D02*
X10158048Y-12562667D01*
X10158048Y-12562667D02*
X10158048Y-12610286D01*
X10158048Y-12610286D02*
X10148524Y-12648381D01*
X10148524Y-12648381D02*
X10139000Y-12667428D01*
X10139000Y-12667428D02*
X10129476Y-12676952D01*
X10129476Y-12676952D02*
X10110429Y-12686476D01*
X10110429Y-12686476D02*
X10091381Y-12686476D01*
X10091381Y-12686476D02*
X10072333Y-12676952D01*
X10072333Y-12676952D02*
X10062810Y-12667428D01*
X10062810Y-12667428D02*
X10053286Y-12648381D01*
X10053286Y-12648381D02*
X10043762Y-12610286D01*
X10043762Y-12610286D02*
X10043762Y-12562667D01*
X10043762Y-12562667D02*
X10053286Y-12524571D01*
X10053286Y-12524571D02*
X10062810Y-12505524D01*
X10062810Y-12505524D02*
X10072333Y-12496000D01*
X10072333Y-12496000D02*
X10091381Y-12486476D01*
X10243762Y-12686476D02*
X10243762Y-12553143D01*
X10243762Y-12572190D02*
X10253286Y-12562667D01*
X10253286Y-12562667D02*
X10272333Y-12553143D01*
X10272333Y-12553143D02*
X10300905Y-12553143D01*
X10300905Y-12553143D02*
X10319952Y-12562667D01*
X10319952Y-12562667D02*
X10329476Y-12581714D01*
X10329476Y-12581714D02*
X10329476Y-12686476D01*
X10329476Y-12581714D02*
X10339000Y-12562667D01*
X10339000Y-12562667D02*
X10358048Y-12553143D01*
X10358048Y-12553143D02*
X10386619Y-12553143D01*
X10386619Y-12553143D02*
X10405667Y-12562667D01*
X10405667Y-12562667D02*
X10415191Y-12581714D01*
X10415191Y-12581714D02*
X10415191Y-12686476D01*
X10510429Y-12686476D02*
X10510429Y-12553143D01*
X10510429Y-12572190D02*
X10519952Y-12562667D01*
X10519952Y-12562667D02*
X10539000Y-12553143D01*
X10539000Y-12553143D02*
X10567572Y-12553143D01*
X10567572Y-12553143D02*
X10586619Y-12562667D01*
X10586619Y-12562667D02*
X10596143Y-12581714D01*
X10596143Y-12581714D02*
X10596143Y-12686476D01*
X10596143Y-12581714D02*
X10605667Y-12562667D01*
X10605667Y-12562667D02*
X10624714Y-12553143D01*
X10624714Y-12553143D02*
X10653286Y-12553143D01*
X10653286Y-12553143D02*
X10672333Y-12562667D01*
X10672333Y-12562667D02*
X10681857Y-12581714D01*
X10681857Y-12581714D02*
X10681857Y-12686476D01*
X11039952Y-12476952D02*
X10868524Y-12734095D01*
X11264714Y-12486476D02*
X11283762Y-12486476D01*
X11283762Y-12486476D02*
X11302810Y-12496000D01*
X11302810Y-12496000D02*
X11312333Y-12505524D01*
X11312333Y-12505524D02*
X11321857Y-12524571D01*
X11321857Y-12524571D02*
X11331381Y-12562667D01*
X11331381Y-12562667D02*
X11331381Y-12610286D01*
X11331381Y-12610286D02*
X11321857Y-12648381D01*
X11321857Y-12648381D02*
X11312333Y-12667428D01*
X11312333Y-12667428D02*
X11302810Y-12676952D01*
X11302810Y-12676952D02*
X11283762Y-12686476D01*
X11283762Y-12686476D02*
X11264714Y-12686476D01*
X11264714Y-12686476D02*
X11245667Y-12676952D01*
X11245667Y-12676952D02*
X11236143Y-12667428D01*
X11236143Y-12667428D02*
X11226619Y-12648381D01*
X11226619Y-12648381D02*
X11217095Y-12610286D01*
X11217095Y-12610286D02*
X11217095Y-12562667D01*
X11217095Y-12562667D02*
X11226619Y-12524571D01*
X11226619Y-12524571D02*
X11236143Y-12505524D01*
X11236143Y-12505524D02*
X11245667Y-12496000D01*
X11245667Y-12496000D02*
X11264714Y-12486476D01*
X11417095Y-12667428D02*
X11426619Y-12676952D01*
X11426619Y-12676952D02*
X11417095Y-12686476D01*
X11417095Y-12686476D02*
X11407571Y-12676952D01*
X11407571Y-12676952D02*
X11417095Y-12667428D01*
X11417095Y-12667428D02*
X11417095Y-12686476D01*
X11550429Y-12486476D02*
X11569476Y-12486476D01*
X11569476Y-12486476D02*
X11588524Y-12496000D01*
X11588524Y-12496000D02*
X11598048Y-12505524D01*
X11598048Y-12505524D02*
X11607571Y-12524571D01*
X11607571Y-12524571D02*
X11617095Y-12562667D01*
X11617095Y-12562667D02*
X11617095Y-12610286D01*
X11617095Y-12610286D02*
X11607571Y-12648381D01*
X11607571Y-12648381D02*
X11598048Y-12667428D01*
X11598048Y-12667428D02*
X11588524Y-12676952D01*
X11588524Y-12676952D02*
X11569476Y-12686476D01*
X11569476Y-12686476D02*
X11550429Y-12686476D01*
X11550429Y-12686476D02*
X11531381Y-12676952D01*
X11531381Y-12676952D02*
X11521857Y-12667428D01*
X11521857Y-12667428D02*
X11512333Y-12648381D01*
X11512333Y-12648381D02*
X11502810Y-12610286D01*
X11502810Y-12610286D02*
X11502810Y-12562667D01*
X11502810Y-12562667D02*
X11512333Y-12524571D01*
X11512333Y-12524571D02*
X11521857Y-12505524D01*
X11521857Y-12505524D02*
X11531381Y-12496000D01*
X11531381Y-12496000D02*
X11550429Y-12486476D01*
X11683762Y-12486476D02*
X11807571Y-12486476D01*
X11807571Y-12486476D02*
X11740905Y-12562667D01*
X11740905Y-12562667D02*
X11769476Y-12562667D01*
X11769476Y-12562667D02*
X11788524Y-12572190D01*
X11788524Y-12572190D02*
X11798048Y-12581714D01*
X11798048Y-12581714D02*
X11807571Y-12600762D01*
X11807571Y-12600762D02*
X11807571Y-12648381D01*
X11807571Y-12648381D02*
X11798048Y-12667428D01*
X11798048Y-12667428D02*
X11788524Y-12676952D01*
X11788524Y-12676952D02*
X11769476Y-12686476D01*
X11769476Y-12686476D02*
X11712333Y-12686476D01*
X11712333Y-12686476D02*
X11693286Y-12676952D01*
X11693286Y-12676952D02*
X11683762Y-12667428D01*
X11902810Y-12686476D02*
X11940905Y-12686476D01*
X11940905Y-12686476D02*
X11959952Y-12676952D01*
X11959952Y-12676952D02*
X11969476Y-12667428D01*
X11969476Y-12667428D02*
X11988524Y-12638857D01*
X11988524Y-12638857D02*
X11998048Y-12600762D01*
X11998048Y-12600762D02*
X11998048Y-12524571D01*
X11998048Y-12524571D02*
X11988524Y-12505524D01*
X11988524Y-12505524D02*
X11979000Y-12496000D01*
X11979000Y-12496000D02*
X11959952Y-12486476D01*
X11959952Y-12486476D02*
X11921857Y-12486476D01*
X11921857Y-12486476D02*
X11902810Y-12496000D01*
X11902810Y-12496000D02*
X11893286Y-12505524D01*
X11893286Y-12505524D02*
X11883762Y-12524571D01*
X11883762Y-12524571D02*
X11883762Y-12572190D01*
X11883762Y-12572190D02*
X11893286Y-12591238D01*
X11893286Y-12591238D02*
X11902810Y-12600762D01*
X11902810Y-12600762D02*
X11921857Y-12610286D01*
X11921857Y-12610286D02*
X11959952Y-12610286D01*
X11959952Y-12610286D02*
X11979000Y-12600762D01*
X11979000Y-12600762D02*
X11988524Y-12591238D01*
X11988524Y-12591238D02*
X11998048Y-12572190D01*
X12169476Y-12553143D02*
X12169476Y-12686476D01*
X12121857Y-12476952D02*
X12074238Y-12619809D01*
X12074238Y-12619809D02*
X12198048Y-12619809D01*
X12264714Y-12486476D02*
X12264714Y-12524571D01*
X12340905Y-12486476D02*
X12340905Y-12524571D01*
X12603762Y-12762667D02*
X12594238Y-12753143D01*
X12594238Y-12753143D02*
X12575191Y-12724571D01*
X12575191Y-12724571D02*
X12565667Y-12705524D01*
X12565667Y-12705524D02*
X12556143Y-12676952D01*
X12556143Y-12676952D02*
X12546619Y-12629333D01*
X12546619Y-12629333D02*
X12546619Y-12591238D01*
X12546619Y-12591238D02*
X12556143Y-12543619D01*
X12556143Y-12543619D02*
X12565667Y-12515048D01*
X12565667Y-12515048D02*
X12575191Y-12496000D01*
X12575191Y-12496000D02*
X12594238Y-12467428D01*
X12594238Y-12467428D02*
X12603762Y-12457905D01*
X12660905Y-12486476D02*
X12784714Y-12486476D01*
X12784714Y-12486476D02*
X12718048Y-12562667D01*
X12718048Y-12562667D02*
X12746619Y-12562667D01*
X12746619Y-12562667D02*
X12765667Y-12572190D01*
X12765667Y-12572190D02*
X12775191Y-12581714D01*
X12775191Y-12581714D02*
X12784714Y-12600762D01*
X12784714Y-12600762D02*
X12784714Y-12648381D01*
X12784714Y-12648381D02*
X12775191Y-12667428D01*
X12775191Y-12667428D02*
X12765667Y-12676952D01*
X12765667Y-12676952D02*
X12746619Y-12686476D01*
X12746619Y-12686476D02*
X12689476Y-12686476D01*
X12689476Y-12686476D02*
X12670429Y-12676952D01*
X12670429Y-12676952D02*
X12660905Y-12667428D01*
X12860905Y-12505524D02*
X12870429Y-12496000D01*
X12870429Y-12496000D02*
X12889476Y-12486476D01*
X12889476Y-12486476D02*
X12937095Y-12486476D01*
X12937095Y-12486476D02*
X12956143Y-12496000D01*
X12956143Y-12496000D02*
X12965667Y-12505524D01*
X12965667Y-12505524D02*
X12975191Y-12524571D01*
X12975191Y-12524571D02*
X12975191Y-12543619D01*
X12975191Y-12543619D02*
X12965667Y-12572190D01*
X12965667Y-12572190D02*
X12851381Y-12686476D01*
X12851381Y-12686476D02*
X12975191Y-12686476D01*
X13180905Y-12686476D02*
X13180905Y-12486476D01*
X13266619Y-12686476D02*
X13266619Y-12581714D01*
X13266619Y-12581714D02*
X13257095Y-12562667D01*
X13257095Y-12562667D02*
X13238048Y-12553143D01*
X13238048Y-12553143D02*
X13209476Y-12553143D01*
X13209476Y-12553143D02*
X13190429Y-12562667D01*
X13190429Y-12562667D02*
X13180905Y-12572190D01*
X13390429Y-12686476D02*
X13371381Y-12676952D01*
X13371381Y-12676952D02*
X13361857Y-12667428D01*
X13361857Y-12667428D02*
X13352333Y-12648381D01*
X13352333Y-12648381D02*
X13352333Y-12591238D01*
X13352333Y-12591238D02*
X13361857Y-12572190D01*
X13361857Y-12572190D02*
X13371381Y-12562667D01*
X13371381Y-12562667D02*
X13390429Y-12553143D01*
X13390429Y-12553143D02*
X13419000Y-12553143D01*
X13419000Y-12553143D02*
X13438048Y-12562667D01*
X13438048Y-12562667D02*
X13447572Y-12572190D01*
X13447572Y-12572190D02*
X13457095Y-12591238D01*
X13457095Y-12591238D02*
X13457095Y-12648381D01*
X13457095Y-12648381D02*
X13447572Y-12667428D01*
X13447572Y-12667428D02*
X13438048Y-12676952D01*
X13438048Y-12676952D02*
X13419000Y-12686476D01*
X13419000Y-12686476D02*
X13390429Y-12686476D01*
X13571381Y-12686476D02*
X13552333Y-12676952D01*
X13552333Y-12676952D02*
X13542810Y-12657905D01*
X13542810Y-12657905D02*
X13542810Y-12486476D01*
X13723762Y-12676952D02*
X13704714Y-12686476D01*
X13704714Y-12686476D02*
X13666619Y-12686476D01*
X13666619Y-12686476D02*
X13647572Y-12676952D01*
X13647572Y-12676952D02*
X13638048Y-12657905D01*
X13638048Y-12657905D02*
X13638048Y-12581714D01*
X13638048Y-12581714D02*
X13647572Y-12562667D01*
X13647572Y-12562667D02*
X13666619Y-12553143D01*
X13666619Y-12553143D02*
X13704714Y-12553143D01*
X13704714Y-12553143D02*
X13723762Y-12562667D01*
X13723762Y-12562667D02*
X13733286Y-12581714D01*
X13733286Y-12581714D02*
X13733286Y-12600762D01*
X13733286Y-12600762D02*
X13638048Y-12619809D01*
X13809476Y-12676952D02*
X13828524Y-12686476D01*
X13828524Y-12686476D02*
X13866619Y-12686476D01*
X13866619Y-12686476D02*
X13885667Y-12676952D01*
X13885667Y-12676952D02*
X13895191Y-12657905D01*
X13895191Y-12657905D02*
X13895191Y-12648381D01*
X13895191Y-12648381D02*
X13885667Y-12629333D01*
X13885667Y-12629333D02*
X13866619Y-12619809D01*
X13866619Y-12619809D02*
X13838048Y-12619809D01*
X13838048Y-12619809D02*
X13819000Y-12610286D01*
X13819000Y-12610286D02*
X13809476Y-12591238D01*
X13809476Y-12591238D02*
X13809476Y-12581714D01*
X13809476Y-12581714D02*
X13819000Y-12562667D01*
X13819000Y-12562667D02*
X13838048Y-12553143D01*
X13838048Y-12553143D02*
X13866619Y-12553143D01*
X13866619Y-12553143D02*
X13885667Y-12562667D01*
X13961857Y-12762667D02*
X13971381Y-12753143D01*
X13971381Y-12753143D02*
X13990429Y-12724571D01*
X13990429Y-12724571D02*
X13999953Y-12705524D01*
X13999953Y-12705524D02*
X14009476Y-12676952D01*
X14009476Y-12676952D02*
X14019000Y-12629333D01*
X14019000Y-12629333D02*
X14019000Y-12591238D01*
X14019000Y-12591238D02*
X14009476Y-12543619D01*
X14009476Y-12543619D02*
X13999953Y-12515048D01*
X13999953Y-12515048D02*
X13990429Y-12496000D01*
X13990429Y-12496000D02*
X13971381Y-12467428D01*
X13971381Y-12467428D02*
X13961857Y-12457905D01*
M02*
